  0
SECTION
  2
HEADER
  9
$ACADVER
  1
AC1027
  9
$ACADMAINTVER
 70
     8
  9
$DWGCODEPAGE
  3
ANSI_1252
  9
$REQUIREDVERSIONS
160
                 0
  9
$INSBASE
 10
0.0
 20
0.0
 30
0.0
  9
$EXTMIN
 10
-191.765
 20
-238.6625
 30
0.0
  9
$EXTMAX
 10
121.0063
 20
209.2061
 30
0.0
  9
$LIMMIN
 10
0.0
 20
0.0
  9
$LIMMAX
 10
12.0
 20
9.0
  9
$ORTHOMODE
 70
     0
  9
$REGENMODE
 70
     1
  9
$FILLMODE
 70
     1
  9
$QTEXTMODE
 70
     0
  9
$MIRRTEXT
 70
     1
  9
$LTSCALE
 40
1.0
  9
$ATTMODE
 70
     1
  9
$TEXTSIZE
 40
0.2
  9
$TRACEWID
 40
0.05
  9
$TEXTSTYLE
  7
Standard
  9
$CLAYER
  8
0
  9
$CELTYPE
  6
ByLayer
  9
$CECOLOR
 62
   256
  9
$CELTSCALE
 40
1.0
  9
$DISPSILH
 70
     0
  9
$DIMSCALE
 40
1.0
  9
$DIMASZ
 40
0.18
  9
$DIMEXO
 40
0.0625
  9
$DIMDLI
 40
0.38
  9
$DIMRND
 40
0.0
  9
$DIMDLE
 40
0.0
  9
$DIMEXE
 40
0.18
  9
$DIMTP
 40
0.0
  9
$DIMTM
 40
0.0
  9
$DIMTXT
 40
0.18
  9
$DIMCEN
 40
0.09
  9
$DIMTSZ
 40
0.0
  9
$DIMTOL
 70
     0
  9
$DIMLIM
 70
     0
  9
$DIMTIH
 70
     1
  9
$DIMTOH
 70
     1
  9
$DIMSE1
 70
     0
  9
$DIMSE2
 70
     0
  9
$DIMTAD
 70
     0
  9
$DIMZIN
 70
     0
  9
$DIMBLK
  1

  9
$DIMASO
 70
     1
  9
$DIMSHO
 70
     1
  9
$DIMPOST
  1

  9
$DIMAPOST
  1

  9
$DIMALT
 70
     0
  9
$DIMALTD
 70
     2
  9
$DIMALTF
 40
25.4
  9
$DIMLFAC
 40
1.0
  9
$DIMTOFL
 70
     0
  9
$DIMTVP
 40
0.0
  9
$DIMTIX
 70
     0
  9
$DIMSOXD
 70
     0
  9
$DIMSAH
 70
     0
  9
$DIMBLK1
  1

  9
$DIMBLK2
  1

  9
$DIMSTYLE
  2
Standard
  9
$DIMCLRD
 70
     0
  9
$DIMCLRE
 70
     0
  9
$DIMCLRT
 70
     0
  9
$DIMTFAC
 40
1.0
  9
$DIMGAP
 40
0.09
  9
$DIMJUST
 70
     0
  9
$DIMSD1
 70
     0
  9
$DIMSD2
 70
     0
  9
$DIMTOLJ
 70
     1
  9
$DIMTZIN
 70
     0
  9
$DIMALTZ
 70
     0
  9
$DIMALTTZ
 70
     0
  9
$DIMUPT
 70
     0
  9
$DIMDEC
 70
     4
  9
$DIMTDEC
 70
     4
  9
$DIMALTU
 70
     2
  9
$DIMALTTD
 70
     2
  9
$DIMTXSTY
  7
Standard
  9
$DIMAUNIT
 70
     0
  9
$DIMADEC
 70
     0
  9
$DIMALTRND
 40
0.0
  9
$DIMAZIN
 70
     0
  9
$DIMDSEP
 70
    46
  9
$DIMATFIT
 70
     3
  9
$DIMFRAC
 70
     0
  9
$DIMLDRBLK
  1

  9
$DIMLUNIT
 70
     2
  9
$DIMLWD
 70
    -2
  9
$DIMLWE
 70
    -2
  9
$DIMTMOVE
 70
     0
  9
$DIMFXL
 40
1.0
  9
$DIMFXLON
 70
     0
  9
$DIMJOGANG
 40
0.7853981633974483
  9
$DIMTFILL
 70
     0
  9
$DIMTFILLCLR
 70
     0
  9
$DIMARCSYM
 70
     0
  9
$DIMLTYPE
  6

  9
$DIMLTEX1
  6

  9
$DIMLTEX2
  6

  9
$DIMTXTDIRECTION
 70
     0
  9
$LUNITS
 70
     2
  9
$LUPREC
 70
     4
  9
$SKETCHINC
 40
0.1
  9
$FILLETRAD
 40
0.5
  9
$AUNITS
 70
     0
  9
$AUPREC
 70
     0
  9
$MENU
  1
.
  9
$ELEVATION
 40
0.0
  9
$PELEVATION
 40
0.0
  9
$THICKNESS
 40
0.0
  9
$LIMCHECK
 70
     0
  9
$CHAMFERA
 40
0.5
  9
$CHAMFERB
 40
0.5
  9
$CHAMFERC
 40
1.0
  9
$CHAMFERD
 40
0.0
  9
$SKPOLY
 70
     0
  9
$TDCREATE
 40
2457007.075339572
  9
$TDUCREATE
 40
2457007.033672905
  9
$TDUPDATE
 40
2457171.862268519
  9
$TDUUPDATE
 40
2457171.820601852
  9
$TDINDWG
 40
0.0000000116
  9
$TDUSRTIMER
 40
0.0000000116
  9
$USRTIMER
 70
     1
  9
$ANGBASE
 50
0.0
  9
$ANGDIR
 70
     0
  9
$PDMODE
 70
     0
  9
$PDSIZE
 40
0.0
  9
$PLINEWID
 40
0.0
  9
$SPLFRAME
 70
     0
  9
$SPLINETYPE
 70
     6
  9
$SPLINESEGS
 70
     8
  9
$HANDSEED
  5
E0
  9
$SURFTAB1
 70
     6
  9
$SURFTAB2
 70
     6
  9
$SURFTYPE
 70
     6
  9
$SURFU
 70
     6
  9
$SURFV
 70
     6
  9
$UCSBASE
  2

  9
$UCSNAME
  2

  9
$UCSORG
 10
0.0
 20
0.0
 30
0.0
  9
$UCSXDIR
 10
1.0
 20
0.0
 30
0.0
  9
$UCSYDIR
 10
0.0
 20
1.0
 30
0.0
  9
$UCSORTHOREF
  2

  9
$UCSORTHOVIEW
 70
     0
  9
$UCSORGTOP
 10
0.0
 20
0.0
 30
0.0
  9
$UCSORGBOTTOM
 10
0.0
 20
0.0
 30
0.0
  9
$UCSORGLEFT
 10
0.0
 20
0.0
 30
0.0
  9
$UCSORGRIGHT
 10
0.0
 20
0.0
 30
0.0
  9
$UCSORGFRONT
 10
0.0
 20
0.0
 30
0.0
  9
$UCSORGBACK
 10
0.0
 20
0.0
 30
0.0
  9
$PUCSBASE
  2

  9
$PUCSNAME
  2

  9
$PUCSORG
 10
0.0
 20
0.0
 30
0.0
  9
$PUCSXDIR
 10
1.0
 20
0.0
 30
0.0
  9
$PUCSYDIR
 10
0.0
 20
1.0
 30
0.0
  9
$PUCSORTHOREF
  2

  9
$PUCSORTHOVIEW
 70
     0
  9
$PUCSORGTOP
 10
0.0
 20
0.0
 30
0.0
  9
$PUCSORGBOTTOM
 10
0.0
 20
0.0
 30
0.0
  9
$PUCSORGLEFT
 10
0.0
 20
0.0
 30
0.0
  9
$PUCSORGRIGHT
 10
0.0
 20
0.0
 30
0.0
  9
$PUCSORGFRONT
 10
0.0
 20
0.0
 30
0.0
  9
$PUCSORGBACK
 10
0.0
 20
0.0
 30
0.0
  9
$USERI1
 70
     0
  9
$USERI2
 70
     0
  9
$USERI3
 70
     0
  9
$USERI4
 70
     0
  9
$USERI5
 70
     0
  9
$USERR1
 40
0.0
  9
$USERR2
 40
0.0
  9
$USERR3
 40
0.0
  9
$USERR4
 40
0.0
  9
$USERR5
 40
0.0
  9
$WORLDVIEW
 70
     1
  9
$SHADEDGE
 70
     3
  9
$SHADEDIF
 70
    70
  9
$TILEMODE
 70
     1
  9
$MAXACTVP
 70
    64
  9
$PINSBASE
 10
0.0
 20
0.0
 30
0.0
  9
$PLIMCHECK
 70
     0
  9
$PEXTMIN
 10
1.000000000000000E+20
 20
1.000000000000000E+20
 30
1.000000000000000E+20
  9
$PEXTMAX
 10
-1.000000000000000E+20
 20
-1.000000000000000E+20
 30
-1.000000000000000E+20
  9
$PLIMMIN
 10
0.0
 20
0.0
  9
$PLIMMAX
 10
12.0
 20
9.0
  9
$UNITMODE
 70
     0
  9
$VISRETAIN
 70
     1
  9
$PLINEGEN
 70
     0
  9
$PSLTSCALE
 70
     1
  9
$TREEDEPTH
 70
  3020
  9
$CMLSTYLE
  2
Standard
  9
$CMLJUST
 70
     0
  9
$CMLSCALE
 40
1.0
  9
$PROXYGRAPHICS
 70
     1
  9
$MEASUREMENT
 70
     0
  9
$CELWEIGHT
370
    -1
  9
$ENDCAPS
280
     0
  9
$JOINSTYLE
280
     0
  9
$LWDISPLAY
290
     0
  9
$INSUNITS
 70
     4
  9
$HYPERLINKBASE
  1

  9
$STYLESHEET
  1

  9
$XEDIT
290
     1
  9
$CEPSNTYPE
380
     0
  9
$PSTYLEMODE
290
     1
  9
$FINGERPRINTGUID
  2
{24E97FA1-8225-49E3-AF19-6446F2FC53CC}
  9
$VERSIONGUID
  2
{FAEB1C32-E019-11D5-929B-00C0DF256EC4}
  9
$EXTNAMES
290
     1
  9
$PSVPSCALE
 40
0.0
  9
$OLESTARTUP
290
     0
  9
$SORTENTS
280
   127
  9
$INDEXCTL
280
     0
  9
$HIDETEXT
280
     1
  9
$XCLIPFRAME
280
     0
  9
$HALOGAP
280
     0
  9
$OBSCOLOR
 70
   257
  9
$OBSLTYPE
280
     0
  9
$INTERSECTIONDISPLAY
280
     0
  9
$INTERSECTIONCOLOR
 70
   257
  9
$DIMASSOC
280
     2
  9
$PROJECTNAME
  1

  9
$CAMERADISPLAY
290
     0
  9
$LENSLENGTH
 40
50.0
  9
$CAMERAHEIGHT
 40
0.0
  9
$STEPSPERSEC
 40
2.0
  9
$STEPSIZE
 40
6.0
  9
$3DDWFPREC
 40
2.0
  9
$PSOLWIDTH
 40
0.25
  9
$PSOLHEIGHT
 40
4.0
  9
$LOFTANG1
 40
1.570796326794897
  9
$LOFTANG2
 40
1.570796326794897
  9
$LOFTMAG1
 40
0.0
  9
$LOFTMAG2
 40
0.0
  9
$LOFTPARAM
 70
     7
  9
$LOFTNORMALS
280
     1
  9
$LATITUDE
 40
37.795
  9
$LONGITUDE
 40
-122.394
  9
$NORTHDIRECTION
 40
0.0
  9
$TIMEZONE
 70
 -8000
  9
$LIGHTGLYPHDISPLAY
280
     1
  9
$TILEMODELIGHTSYNCH
280
     1
  9
$SOLIDHIST
280
     1
  9
$SHOWHIST
280
     1
  9
$DWFFRAME
280
     2
  9
$DGNFRAME
280
     2
  9
$REALWORLDSCALE
290
     1
  9
$INTERFERECOLOR
 62
   256
  9
$CSHADOW
280
     0
  9
$SHADOWPLANELOCATION
 40
0.0
  0
ENDSEC
  0
SECTION
  2
CLASSES
  0
CLASS
  1
ACDBDICTIONARYWDFLT
  2
AcDbDictionaryWithDefault
  3
ObjectDBX Classes
 90
        0
 91
        4
280
     0
281
     0
  0
CLASS
  1
VISUALSTYLE
  2
AcDbVisualStyle
  3
ObjectDBX Classes
 90
     4095
 91
        4
280
     0
281
     0
  0
CLASS
  1
MATERIAL
  2
AcDbMaterial
  3
ObjectDBX Classes
 90
     1153
 91
        4
280
     0
281
     0
  0
CLASS
  1
SCALE
  2
AcDbScale
  3
ObjectDBX Classes
 90
     1153
 91
        4
280
     0
281
     0
  0
CLASS
  1
TABLESTYLE
  2
AcDbTableStyle
  3
ObjectDBX Classes
 90
     4095
 91
        4
280
     0
281
     0
  0
CLASS
  1
MLEADERSTYLE
  2
AcDbMLeaderStyle
  3
ACDB_MLEADERSTYLE_CLASS
 90
     4095
 91
        4
280
     0
281
     0
  0
CLASS
  1
DICTIONARYVAR
  2
AcDbDictionaryVar
  3
ObjectDBX Classes
 90
        0
 91
        4
280
     0
281
     0
  0
CLASS
  1
CELLSTYLEMAP
  2
AcDbCellStyleMap
  3
ObjectDBX Classes
 90
     1152
 91
        4
280
     0
281
     0
  0
ENDSEC
  0
SECTION
  2
TABLES
  0
TABLE
  2
VPORT
  5
8
330
0
100
AcDbSymbolTable
 70
     1
  0
VPORT
  5
29
330
8
100
AcDbSymbolTableRecord
100
AcDbViewportTableRecord
  2
*Active
 70
     0
 10
0.0
 20
0.0
 11
1.0
 21
1.0
 12
10.42990654205607
 22
4.5
 13
0.0
 23
0.0
 14
0.5
 24
0.5
 15
0.5
 25
0.5
 16
0.0
 26
0.0
 36
1.0
 17
0.0
 27
0.0
 37
0.0
 40
9.0
 41
1.972972972850329
 42
50.0
 43
0.0
 44
0.0
 50
0.0
 51
0.0
 71
     0
 72
   100
 73
     1
 74
     3
 75
     0
 76
     0
 77
     0
 78
     0
281
     0
 65
     1
110
0.0
120
0.0
130
0.0
111
1.0
121
0.0
131
0.0
112
0.0
122
1.0
132
0.0
 79
     0
146
0.0
348
2F
 60
     3
 61
     5
292
     1
282
     1
141
0.0
142
0.0
 63
   250
  0
ENDTAB
  0
TABLE
  2
LTYPE
  5
5
330
0
100
AcDbSymbolTable
 70
     1
  0
LTYPE
  5
14
330
5
100
AcDbSymbolTableRecord
100
AcDbLinetypeTableRecord
  2
ByBlock
 70
     0
  3

 72
    65
 73
     0
 40
0.0
  0
LTYPE
  5
15
330
5
100
AcDbSymbolTableRecord
100
AcDbLinetypeTableRecord
  2
ByLayer
 70
     0
  3

 72
    65
 73
     0
 40
0.0
  0
LTYPE
  5
16
330
5
100
AcDbSymbolTableRecord
100
AcDbLinetypeTableRecord
  2
Continuous
 70
     0
  3
Solid line
 72
    65
 73
     0
 40
0.0
  0
ENDTAB
  0
TABLE
  2
LAYER
  5
2
330
0
100
AcDbSymbolTable
 70
     2
  0
LAYER
  5
10
330
2
100
AcDbSymbolTableRecord
100
AcDbLayerTableRecord
  2
0
 70
     0
 62
     7
  6
Continuous
370
    -3
390
F
347
3E
348
0
  0
LAYER
  5
40
330
2
100
AcDbSymbolTableRecord
100
AcDbLayerTableRecord
  2
Capa 1
 70
     0
 62
     7
  6
Continuous
370
    -3
390
F
347
3E
348
0
  0
ENDTAB
  0
TABLE
  2
STYLE
  5
3
330
0
100
AcDbSymbolTable
 70
     1
  0
STYLE
  5
11
330
3
100
AcDbSymbolTableRecord
100
AcDbTextStyleTableRecord
  2
Standard
 70
     0
 40
0.0
 41
1.0
 50
0.0
 71
     0
 42
0.2
  3
txt
  4

  0
ENDTAB
  0
TABLE
  2
VIEW
  5
6
330
0
100
AcDbSymbolTable
 70
     0
  0
ENDTAB
  0
TABLE
  2
UCS
  5
7
330
0
100
AcDbSymbolTable
 70
     0
  0
ENDTAB
  0
TABLE
  2
APPID
  5
9
330
0
100
AcDbSymbolTable
 70
     2
  0
APPID
  5
12
330
9
100
AcDbSymbolTableRecord
100
AcDbRegAppTableRecord
  2
ACAD
 70
     0
  0
APPID
  5
3F
330
9
100
AcDbSymbolTableRecord
100
AcDbRegAppTableRecord
  2
ODA
 70
     0
  0
ENDTAB
  0
TABLE
  2
DIMSTYLE
  5
A
330
0
100
AcDbSymbolTable
 70
     1
100
AcDbDimStyleTable
  0
DIMSTYLE
105
27
330
A
100
AcDbSymbolTableRecord
100
AcDbDimStyleTableRecord
  2
Standard
 70
     0
178
     0
340
11
  0
ENDTAB
  0
TABLE
  2
BLOCK_RECORD
  5
1
330
0
100
AcDbSymbolTable
 70
     1
  0
BLOCK_RECORD
  5
1F
330
1
100
AcDbSymbolTableRecord
100
AcDbBlockTableRecord
  2
*Model_Space
340
22
 70
     0
280
     1
281
     0
  0
BLOCK_RECORD
  5
1B
330
1
100
AcDbSymbolTableRecord
100
AcDbBlockTableRecord
  2
*Paper_Space
340
1E
 70
     0
280
     1
281
     0
  0
BLOCK_RECORD
  5
23
330
1
100
AcDbSymbolTableRecord
100
AcDbBlockTableRecord
  2
*Paper_Space0
340
26
 70
     0
280
     1
281
     0
  0
ENDTAB
  0
ENDSEC
  0
SECTION
  2
BLOCKS
  0
BLOCK
  5
20
330
1F
100
AcDbEntity
  8
0
100
AcDbBlockBegin
  2
*Model_Space
 70
     0
 10
0.0
 20
0.0
 30
0.0
  3
*Model_Space
  1

  0
ENDBLK
  5
21
330
1F
100
AcDbEntity
  8
0
100
AcDbBlockEnd
  0
BLOCK
  5
1C
330
1B
100
AcDbEntity
 67
     1
  8
0
100
AcDbBlockBegin
  2
*Paper_Space
 70
     0
 10
0.0
 20
0.0
 30
0.0
  3
*Paper_Space
  1

  0
ENDBLK
  5
1D
330
1B
100
AcDbEntity
 67
     1
  8
0
100
AcDbBlockEnd
  0
BLOCK
  5
24
330
23
100
AcDbEntity
  8
0
100
AcDbBlockBegin
  2
*Paper_Space0
 70
     0
 10
0.0
 20
0.0
 30
0.0
  3
*Paper_Space0
  1

  0
ENDBLK
  5
25
330
23
100
AcDbEntity
  8
0
100
AcDbBlockEnd
  0
ENDSEC
  0
SECTION
  2
ENTITIES
  0
SPLINE
  5
41
330
1F
100
AcDbEntity
  8
Capa 1
 62
   250
370
    20
100
AcDbSpline
210
0.0
220
0.0
230
1.0
 70
    11
 71
     3
 72
    36
 73
    32
 74
     0
 42
0.000000001
 43
0.0000000001
 40
0.0
 40
0.0
 40
0.0
 40
0.0
 40
0.1111111111111111
 40
0.1111111111111111
 40
0.1111111111111111
 40
0.1111111111111111
 40
0.2222222222222222
 40
0.2222222222222222
 40
0.2222222222222222
 40
0.2222222222222222
 40
0.3333333333333333
 40
0.3333333333333333
 40
0.3333333333333333
 40
0.3333333333333333
 40
0.4444444444444444
 40
0.4444444444444444
 40
0.4444444444444444
 40
0.4444444444444444
 40
0.5555555555555556
 40
0.5555555555555556
 40
0.5555555555555556
 40
0.5555555555555556
 40
0.6666666666666666
 40
0.6666666666666666
 40
0.6666666666666666
 40
0.6666666666666666
 40
0.7777777777777778
 40
0.7777777777777778
 40
0.7777777777777778
 40
0.7777777777777778
 40
1.0
 40
1.0
 40
1.0
 40
1.0
 10
-191.6549
 20
113.1724
 30
0.0
 10
-191.6549
 20
113.1724
 30
0.0
 10
-191.6549
 20
137.8907
 30
0.0
 10
-191.6549
 20
137.8907
 30
0.0
 10
-191.6549
 20
137.8907
 30
0.0
 10
-191.6549
 20
143.4683
 30
0.0
 10
-187.0916
 20
148.0316
 30
0.0
 10
-181.5141
 20
148.0316
 30
0.0
 10
-181.5141
 20
148.0316
 30
0.0
 10
-181.5141
 20
148.0316
 30
0.0
 10
110.7655
 20
148.0316
 30
0.0
 10
110.7655
 20
148.0316
 30
0.0
 10
110.7655
 20
148.0316
 30
0.0
 10
116.343
 20
148.0316
 30
0.0
 10
120.9063
 20
143.4683
 30
0.0
 10
120.9063
 20
137.8907
 30
0.0
 10
120.9063
 20
137.8907
 30
0.0
 10
120.9063
 20
137.8907
 30
0.0
 10
120.9063
 20
113.1724
 30
0.0
 10
120.9063
 20
113.1724
 30
0.0
 10
120.9063
 20
113.1724
 30
0.0
 10
120.9063
 20
107.5948
 30
0.0
 10
116.343
 20
103.0316
 30
0.0
 10
110.7655
 20
103.0316
 30
0.0
 10
110.7655
 20
103.0316
 30
0.0
 10
110.7655
 20
103.0316
 30
0.0
 10
-181.5141
 20
103.0316
 30
0.0
 10
-181.5141
 20
103.0316
 30
0.0
 10
-181.5141
 20
103.0316
 30
0.0
 10
-187.0916
 20
103.0316
 30
0.0
 10
-191.6549
 20
107.5948
 30
0.0
 10
-191.6549
 20
113.1724
 30
0.0
  0
SPLINE
  5
46
330
1F
100
AcDbEntity
  8
Capa 1
 62
   250
370
    20
100
AcDbSpline
210
0.0
220
0.0
230
1.0
 70
    11
 71
     3
 72
    20
 73
    16
 74
     0
 42
0.000000001
 43
0.0000000001
 40
0.0
 40
0.0
 40
0.0
 40
0.0
 40
0.2
 40
0.2
 40
0.2
 40
0.2
 40
0.4
 40
0.4
 40
0.4
 40
0.4
 40
0.6
 40
0.6
 40
0.6
 40
0.6
 40
1.0
 40
1.0
 40
1.0
 40
1.0
 10
-153.1545
 20
125.5316
 30
0.0
 10
-153.1545
 20
126.36
 30
0.0
 10
-152.4829
 20
127.0316
 30
0.0
 10
-151.6545
 20
127.0316
 30
0.0
 10
-151.6545
 20
127.0316
 30
0.0
 10
-150.8261
 20
127.0316
 30
0.0
 10
-150.1545
 20
126.36
 30
0.0
 10
-150.1545
 20
125.5316
 30
0.0
 10
-150.1545
 20
125.5316
 30
0.0
 10
-150.1545
 20
124.7032
 30
0.0
 10
-150.8261
 20
124.0316
 30
0.0
 10
-151.6545
 20
124.0316
 30
0.0
 10
-151.6545
 20
124.0316
 30
0.0
 10
-152.4829
 20
124.0316
 30
0.0
 10
-153.1545
 20
124.7032
 30
0.0
 10
-153.1545
 20
125.5316
 30
0.0
  0
SPLINE
  5
47
330
1F
100
AcDbEntity
  8
Capa 1
 62
   250
370
    20
100
AcDbSpline
210
0.0
220
0.0
230
1.0
 70
    11
 71
     3
 72
    20
 73
    16
 74
     0
 42
0.000000001
 43
0.0000000001
 40
0.0
 40
0.0
 40
0.0
 40
0.0
 40
0.2
 40
0.2
 40
0.2
 40
0.2
 40
0.4
 40
0.4
 40
0.4
 40
0.4
 40
0.6
 40
0.6
 40
0.6
 40
0.6
 40
1.0
 40
1.0
 40
1.0
 40
1.0
 10
-38.3743
 20
125.5316
 30
0.0
 10
-38.3743
 20
126.36
 30
0.0
 10
-37.7027
 20
127.0316
 30
0.0
 10
-36.8743
 20
127.0316
 30
0.0
 10
-36.8743
 20
127.0316
 30
0.0
 10
-36.0459
 20
127.0316
 30
0.0
 10
-35.3743
 20
126.36
 30
0.0
 10
-35.3743
 20
125.5316
 30
0.0
 10
-35.3743
 20
125.5316
 30
0.0
 10
-35.3743
 20
124.7032
 30
0.0
 10
-36.0459
 20
124.0316
 30
0.0
 10
-36.8743
 20
124.0316
 30
0.0
 10
-36.8743
 20
124.0316
 30
0.0
 10
-37.7027
 20
124.0316
 30
0.0
 10
-38.3743
 20
124.7032
 30
0.0
 10
-38.3743
 20
125.5316
 30
0.0
  0
SPLINE
  5
48
330
1F
100
AcDbEntity
  8
Capa 1
 62
   250
370
    20
100
AcDbSpline
210
0.0
220
0.0
230
1.0
 70
    11
 71
     3
 72
    20
 73
    16
 74
     0
 42
0.000000001
 43
0.0000000001
 40
0.0
 40
0.0
 40
0.0
 40
0.0
 40
0.2
 40
0.2
 40
0.2
 40
0.2
 40
0.4
 40
0.4
 40
0.4
 40
0.4
 40
0.6
 40
0.6
 40
0.6
 40
0.6
 40
1.0
 40
1.0
 40
1.0
 40
1.0
 10
79.4065
 20
125.5316
 30
0.0
 10
79.4065
 20
126.36
 30
0.0
 10
80.0781
 20
127.0316
 30
0.0
 10
80.9065
 20
127.0316
 30
0.0
 10
80.9065
 20
127.0316
 30
0.0
 10
81.7349
 20
127.0316
 30
0.0
 10
82.4065
 20
126.36
 30
0.0
 10
82.4065
 20
125.5316
 30
0.0
 10
82.4065
 20
125.5316
 30
0.0
 10
82.4065
 20
124.7032
 30
0.0
 10
81.7349
 20
124.0316
 30
0.0
 10
80.9065
 20
124.0316
 30
0.0
 10
80.9065
 20
124.0316
 30
0.0
 10
80.0781
 20
124.0316
 30
0.0
 10
79.4065
 20
124.7032
 30
0.0
 10
79.4065
 20
125.5316
 30
0.0
  0
SPLINE
  5
49
330
1F
100
AcDbEntity
  8
Capa 1
 62
   250
370
    20
100
AcDbSpline
210
0.0
220
0.0
230
1.0
 70
    11
 71
     3
 72
    36
 73
    32
 74
     0
 42
0.000000001
 43
0.0000000001
 40
0.0
 40
0.0
 40
0.0
 40
0.0
 40
0.1111111111111111
 40
0.1111111111111111
 40
0.1111111111111111
 40
0.1111111111111111
 40
0.2222222222222222
 40
0.2222222222222222
 40
0.2222222222222222
 40
0.2222222222222222
 40
0.3333333333333333
 40
0.3333333333333333
 40
0.3333333333333333
 40
0.3333333333333333
 40
0.4444444444444444
 40
0.4444444444444444
 40
0.4444444444444444
 40
0.4444444444444444
 40
0.5555555555555556
 40
0.5555555555555556
 40
0.5555555555555556
 40
0.5555555555555556
 40
0.6666666666666666
 40
0.6666666666666666
 40
0.6666666666666666
 40
0.6666666666666666
 40
0.7777777777777778
 40
0.7777777777777778
 40
0.7777777777777778
 40
0.7777777777777778
 40
1.0
 40
1.0
 40
1.0
 40
1.0
 10
-191.665
 20
174.2469
 30
0.0
 10
-191.665
 20
174.2469
 30
0.0
 10
-191.665
 20
198.9652
 30
0.0
 10
-191.665
 20
198.9652
 30
0.0
 10
-191.665
 20
198.9652
 30
0.0
 10
-191.665
 20
204.5428
 30
0.0
 10
-187.1017
 20
209.1061
 30
0.0
 10
-181.5242
 20
209.1061
 30
0.0
 10
-181.5242
 20
209.1061
 30
0.0
 10
-181.5242
 20
209.1061
 30
0.0
 10
110.7554
 20
209.1061
 30
0.0
 10
110.7554
 20
209.1061
 30
0.0
 10
110.7554
 20
209.1061
 30
0.0
 10
116.3329
 20
209.1061
 30
0.0
 10
120.8962
 20
204.5428
 30
0.0
 10
120.8962
 20
198.9652
 30
0.0
 10
120.8962
 20
198.9652
 30
0.0
 10
120.8962
 20
198.9652
 30
0.0
 10
120.8962
 20
174.2469
 30
0.0
 10
120.8962
 20
174.2469
 30
0.0
 10
120.8962
 20
174.2469
 30
0.0
 10
120.8962
 20
168.6693
 30
0.0
 10
116.3329
 20
164.1061
 30
0.0
 10
110.7554
 20
164.1061
 30
0.0
 10
110.7554
 20
164.1061
 30
0.0
 10
110.7554
 20
164.1061
 30
0.0
 10
-181.5242
 20
164.1061
 30
0.0
 10
-181.5242
 20
164.1061
 30
0.0
 10
-181.5242
 20
164.1061
 30
0.0
 10
-187.1017
 20
164.1061
 30
0.0
 10
-191.665
 20
168.6693
 30
0.0
 10
-191.665
 20
174.2469
 30
0.0
  0
SPLINE
  5
4E
330
1F
100
AcDbEntity
  8
Capa 1
 62
   250
370
    20
100
AcDbSpline
210
0.0
220
0.0
230
1.0
 70
    11
 71
     3
 72
    20
 73
    16
 74
     0
 42
0.000000001
 43
0.0000000001
 40
0.0
 40
0.0
 40
0.0
 40
0.0
 40
0.2
 40
0.2
 40
0.2
 40
0.2
 40
0.4
 40
0.4
 40
0.4
 40
0.4
 40
0.6
 40
0.6
 40
0.6
 40
0.6
 40
1.0
 40
1.0
 40
1.0
 40
1.0
 10
-153.1646
 20
186.6061
 30
0.0
 10
-153.1646
 20
187.4345
 30
0.0
 10
-152.493
 20
188.1061
 30
0.0
 10
-151.6646
 20
188.1061
 30
0.0
 10
-151.6646
 20
188.1061
 30
0.0
 10
-150.8362
 20
188.1061
 30
0.0
 10
-150.1646
 20
187.4345
 30
0.0
 10
-150.1646
 20
186.6061
 30
0.0
 10
-150.1646
 20
186.6061
 30
0.0
 10
-150.1646
 20
185.7777
 30
0.0
 10
-150.8362
 20
185.1061
 30
0.0
 10
-151.6646
 20
185.1061
 30
0.0
 10
-151.6646
 20
185.1061
 30
0.0
 10
-152.493
 20
185.1061
 30
0.0
 10
-153.1646
 20
185.7777
 30
0.0
 10
-153.1646
 20
186.6061
 30
0.0
  0
SPLINE
  5
4F
330
1F
100
AcDbEntity
  8
Capa 1
 62
   250
370
    20
100
AcDbSpline
210
0.0
220
0.0
230
1.0
 70
    11
 71
     3
 72
    20
 73
    16
 74
     0
 42
0.000000001
 43
0.0000000001
 40
0.0
 40
0.0
 40
0.0
 40
0.0
 40
0.2
 40
0.2
 40
0.2
 40
0.2
 40
0.4
 40
0.4
 40
0.4
 40
0.4
 40
0.6
 40
0.6
 40
0.6
 40
0.6
 40
1.0
 40
1.0
 40
1.0
 40
1.0
 10
-38.3844
 20
186.6061
 30
0.0
 10
-38.3844
 20
187.4345
 30
0.0
 10
-37.7128
 20
188.1061
 30
0.0
 10
-36.8844
 20
188.1061
 30
0.0
 10
-36.8844
 20
188.1061
 30
0.0
 10
-36.056
 20
188.1061
 30
0.0
 10
-35.3844
 20
187.4345
 30
0.0
 10
-35.3844
 20
186.6061
 30
0.0
 10
-35.3844
 20
186.6061
 30
0.0
 10
-35.3844
 20
185.7777
 30
0.0
 10
-36.056
 20
185.1061
 30
0.0
 10
-36.8844
 20
185.1061
 30
0.0
 10
-36.8844
 20
185.1061
 30
0.0
 10
-37.7128
 20
185.1061
 30
0.0
 10
-38.3844
 20
185.7777
 30
0.0
 10
-38.3844
 20
186.6061
 30
0.0
  0
SPLINE
  5
50
330
1F
100
AcDbEntity
  8
Capa 1
 62
   250
370
    20
100
AcDbSpline
210
0.0
220
0.0
230
1.0
 70
    11
 71
     3
 72
    20
 73
    16
 74
     0
 42
0.000000001
 43
0.0000000001
 40
0.0
 40
0.0
 40
0.0
 40
0.0
 40
0.2
 40
0.2
 40
0.2
 40
0.2
 40
0.4
 40
0.4
 40
0.4
 40
0.4
 40
0.6
 40
0.6
 40
0.6
 40
0.6
 40
1.0
 40
1.0
 40
1.0
 40
1.0
 10
79.3964
 20
186.6061
 30
0.0
 10
79.3964
 20
187.4345
 30
0.0
 10
80.068
 20
188.1061
 30
0.0
 10
80.8964
 20
188.1061
 30
0.0
 10
80.8964
 20
188.1061
 30
0.0
 10
81.7248
 20
188.1061
 30
0.0
 10
82.3964
 20
187.4345
 30
0.0
 10
82.3964
 20
186.6061
 30
0.0
 10
82.3964
 20
186.6061
 30
0.0
 10
82.3964
 20
185.7777
 30
0.0
 10
81.7248
 20
185.1061
 30
0.0
 10
80.8964
 20
185.1061
 30
0.0
 10
80.8964
 20
185.1061
 30
0.0
 10
80.068
 20
185.1061
 30
0.0
 10
79.3964
 20
185.7777
 30
0.0
 10
79.3964
 20
186.6061
 30
0.0
  0
SPLINE
  5
51
330
1F
100
AcDbEntity
  8
Capa 1
370
    15
100
AcDbSpline
210
0.0
220
0.0
230
1.0
 70
     8
 71
     3
 72
    20
 73
    16
 74
     0
 42
0.000000001
 43
0.0000000001
 40
0.0
 40
0.0
 40
0.0
 40
0.0
 40
0.2
 40
0.2
 40
0.2
 40
0.2
 40
0.4
 40
0.4
 40
0.4
 40
0.4
 40
0.6
 40
0.6
 40
0.6
 40
0.6
 40
1.0
 40
1.0
 40
1.0
 40
1.0
 10
-38.7308
 20
85.887
 30
0.0
 10
-38.7308
 20
86.7982
 30
0.0
 10
-39.4696
 20
87.5369
 30
0.0
 10
-40.3808
 20
87.5369
 30
0.0
 10
-40.3808
 20
87.5369
 30
0.0
 10
-41.2921
 20
87.537
 30
0.0
 10
-42.0308
 20
86.7982
 30
0.0
 10
-42.0308
 20
85.887
 30
0.0
 10
-42.0308
 20
85.887
 30
0.0
 10
-42.0309
 20
84.9757
 30
0.0
 10
-41.2921
 20
84.237
 30
0.0
 10
-40.3809
 20
84.237
 30
0.0
 10
-40.3809
 20
84.237
 30
0.0
 10
-39.4696
 20
84.2369
 30
0.0
 10
-38.7309
 20
84.9757
 30
0.0
 10
-38.7309
 20
85.8869
 30
0.0
  0
SPLINE
  5
52
330
1F
100
AcDbEntity
  8
Capa 1
370
    15
100
AcDbSpline
210
0.0
220
0.0
230
1.0
 70
     8
 71
     3
 72
    20
 73
    16
 74
     0
 42
0.000000001
 43
0.0000000001
 40
0.0
 40
0.0
 40
0.0
 40
0.0
 40
0.2
 40
0.2
 40
0.2
 40
0.2
 40
0.4
 40
0.4
 40
0.4
 40
0.4
 40
0.6
 40
0.6
 40
0.6
 40
0.6
 40
1.0
 40
1.0
 40
1.0
 40
1.0
 10
-50.2308
 20
85.887
 30
0.0
 10
-50.2308
 20
86.7982
 30
0.0
 10
-50.9695
 20
87.5369
 30
0.0
 10
-51.8807
 20
87.5369
 30
0.0
 10
-51.8807
 20
87.5369
 30
0.0
 10
-52.792
 20
87.537
 30
0.0
 10
-53.5307
 20
86.7982
 30
0.0
 10
-53.5307
 20
85.887
 30
0.0
 10
-53.5307
 20
85.887
 30
0.0
 10
-53.5308
 20
84.9757
 30
0.0
 10
-52.792
 20
84.237
 30
0.0
 10
-51.8808
 20
84.237
 30
0.0
 10
-51.8808
 20
84.237
 30
0.0
 10
-50.9695
 20
84.2369
 30
0.0
 10
-50.2308
 20
84.9757
 30
0.0
 10
-50.2308
 20
85.8869
 30
0.0
  0
SPLINE
  5
53
330
1F
100
AcDbEntity
  8
Capa 1
370
    15
100
AcDbSpline
210
0.0
220
0.0
230
1.0
 70
     8
 71
     3
 72
    20
 73
    16
 74
     0
 42
0.000000001
 43
0.0000000001
 40
0.0
 40
0.0
 40
0.0
 40
0.0
 40
0.2
 40
0.2
 40
0.2
 40
0.2
 40
0.4
 40
0.4
 40
0.4
 40
0.4
 40
0.6
 40
0.6
 40
0.6
 40
0.6
 40
1.0
 40
1.0
 40
1.0
 40
1.0
 10
-40.8808
 20
80.137
 30
0.0
 10
-40.8808
 20
83.0365
 30
0.0
 10
-43.2313
 20
85.3869
 30
0.0
 10
-46.1308
 20
85.3869
 30
0.0
 10
-46.1308
 20
85.3869
 30
0.0
 10
-49.0303
 20
85.387
 30
0.0
 10
-51.3807
 20
83.0365
 30
0.0
 10
-51.3807
 20
80.137
 30
0.0
 10
-51.3807
 20
80.137
 30
0.0
 10
-51.3808
 20
77.2374
 30
0.0
 10
-49.0303
 20
74.887
 30
0.0
 10
-46.1308
 20
74.887
 30
0.0
 10
-46.1308
 20
74.887
 30
0.0
 10
-43.2313
 20
74.8869
 30
0.0
 10
-40.8809
 20
77.2374
 30
0.0
 10
-40.8809
 20
80.1369
 30
0.0
  0
SPLINE
  5
54
330
1F
100
AcDbEntity
  8
Capa 1
370
    15
100
AcDbSpline
210
0.0
220
0.0
230
1.0
 70
    11
 71
     3
 72
    20
 73
    16
 74
     0
 42
0.000000001
 43
0.0000000001
 40
0.0
 40
0.0
 40
0.0
 40
0.0
 40
0.2
 40
0.2
 40
0.2
 40
0.2
 40
0.4
 40
0.4
 40
0.4
 40
0.4
 40
0.6
 40
0.6
 40
0.6
 40
0.6
 40
1.0
 40
1.0
 40
1.0
 40
1.0
 10
-128.0669
 20
68.7232
 30
0.0
 10
-128.0669
 20
69.6897
 30
0.0
 10
-128.8504
 20
70.4732
 30
0.0
 10
-129.8169
 20
70.4732
 30
0.0
 10
-129.8169
 20
70.4732
 30
0.0
 10
-130.7834
 20
70.4732
 30
0.0
 10
-131.5669
 20
69.6897
 30
0.0
 10
-131.5669
 20
68.7232
 30
0.0
 10
-131.5669
 20
68.7232
 30
0.0
 10
-131.5669
 20
67.7567
 30
0.0
 10
-130.7834
 20
66.9732
 30
0.0
 10
-129.8169
 20
66.9732
 30
0.0
 10
-129.8169
 20
66.9732
 30
0.0
 10
-128.8505
 20
66.9732
 30
0.0
 10
-128.0669
 20
67.7567
 30
0.0
 10
-128.0669
 20
68.7232
 30
0.0
  0
SPLINE
  5
55
330
1F
100
AcDbEntity
  8
Capa 1
370
    15
100
AcDbSpline
210
0.0
220
0.0
230
1.0
 70
     8
 71
     3
 72
    20
 73
    16
 74
     0
 42
0.000000001
 43
0.0000000001
 40
0.0
 40
0.0
 40
0.0
 40
0.0
 40
0.2
 40
0.2
 40
0.2
 40
0.2
 40
0.4
 40
0.4
 40
0.4
 40
0.4
 40
0.6
 40
0.6
 40
0.6
 40
0.6
 40
1.0
 40
1.0
 40
1.0
 40
1.0
 10
-150.6944
 20
91.3507
 30
0.0
 10
-150.6944
 20
92.3172
 30
0.0
 10
-151.4779
 20
93.1007
 30
0.0
 10
-152.4444
 20
93.1007
 30
0.0
 10
-152.4444
 20
93.1007
 30
0.0
 10
-153.4109
 20
93.1007
 30
0.0
 10
-154.1944
 20
92.3172
 30
0.0
 10
-154.1944
 20
91.3507
 30
0.0
 10
-154.1944
 20
91.3507
 30
0.0
 10
-154.1944
 20
90.3842
 30
0.0
 10
-153.4109
 20
89.6007
 30
0.0
 10
-152.4444
 20
89.6007
 30
0.0
 10
-152.4444
 20
89.6007
 30
0.0
 10
-151.4779
 20
89.6007
 30
0.0
 10
-150.6944
 20
90.3842
 30
0.0
 10
-150.6944
 20
91.3506
 30
0.0
  0
SPLINE
  5
56
330
1F
100
AcDbEntity
  8
Capa 1
370
    15
100
AcDbSpline
210
0.0
220
0.0
230
1.0
 70
     8
 71
     3
 72
    20
 73
    16
 74
     0
 42
0.000000001
 43
0.0000000001
 40
0.0
 40
0.0
 40
0.0
 40
0.0
 40
0.2
 40
0.2
 40
0.2
 40
0.2
 40
0.4
 40
0.4
 40
0.4
 40
0.4
 40
0.6
 40
0.6
 40
0.6
 40
0.6
 40
1.0
 40
1.0
 40
1.0
 40
1.0
 10
-130.3807
 20
80.0371
 30
0.0
 10
-130.3807
 20
85.974
 30
0.0
 10
-135.1936
 20
90.7869
 30
0.0
 10
-141.1306
 20
90.7869
 30
0.0
 10
-141.1306
 20
90.7869
 30
0.0
 10
-147.0676
 20
90.787
 30
0.0
 10
-151.8806
 20
85.9741
 30
0.0
 10
-151.8806
 20
80.0371
 30
0.0
 10
-151.8806
 20
80.0371
 30
0.0
 10
-151.8807
 20
74.1
 30
0.0
 10
-147.0678
 20
69.2871
 30
0.0
 10
-141.1307
 20
69.2871
 30
0.0
 10
-141.1307
 20
69.2871
 30
0.0
 10
-135.1936
 20
69.2869
 30
0.0
 10
-130.3807
 20
74.0998
 30
0.0
 10
-130.3807
 20
80.0369
 30
0.0
  0
SPLINE
  5
57
330
1F
100
AcDbEntity
  8
Capa 1
370
    15
100
AcDbSpline
210
0.0
220
0.0
230
1.0
 70
     8
 71
     3
 72
    20
 73
    16
 74
     0
 42
0.000000001
 43
0.0000000001
 40
0.0
 40
0.0
 40
0.0
 40
0.0
 40
0.2
 40
0.2
 40
0.2
 40
0.2
 40
0.4
 40
0.4
 40
0.4
 40
0.4
 40
0.6
 40
0.6
 40
0.6
 40
0.6
 40
1.0
 40
1.0
 40
1.0
 40
1.0
 10
-128.0669
 20
91.3507
 30
0.0
 10
-128.0669
 20
92.3172
 30
0.0
 10
-128.8504
 20
93.1007
 30
0.0
 10
-129.8169
 20
93.1007
 30
0.0
 10
-129.8169
 20
93.1007
 30
0.0
 10
-130.7834
 20
93.1007
 30
0.0
 10
-131.5669
 20
92.3172
 30
0.0
 10
-131.5669
 20
91.3507
 30
0.0
 10
-131.5669
 20
91.3507
 30
0.0
 10
-131.5669
 20
90.3842
 30
0.0
 10
-130.7834
 20
89.6007
 30
0.0
 10
-129.8169
 20
89.6007
 30
0.0
 10
-129.8169
 20
89.6007
 30
0.0
 10
-128.8505
 20
89.6007
 30
0.0
 10
-128.0669
 20
90.3842
 30
0.0
 10
-128.0669
 20
91.3506
 30
0.0
  0
SPLINE
  5
58
330
1F
100
AcDbEntity
  8
Capa 1
370
    15
100
AcDbSpline
210
0.0
220
0.0
230
1.0
 70
    11
 71
     3
 72
    20
 73
    16
 74
     0
 42
0.000000001
 43
0.0000000001
 40
0.0
 40
0.0
 40
0.0
 40
0.0
 40
0.2
 40
0.2
 40
0.2
 40
0.2
 40
0.4
 40
0.4
 40
0.4
 40
0.4
 40
0.6
 40
0.6
 40
0.6
 40
0.6
 40
1.0
 40
1.0
 40
1.0
 40
1.0
 10
-150.6944
 20
68.7232
 30
0.0
 10
-150.6944
 20
69.6897
 30
0.0
 10
-151.4779
 20
70.4732
 30
0.0
 10
-152.4444
 20
70.4732
 30
0.0
 10
-152.4444
 20
70.4732
 30
0.0
 10
-153.4109
 20
70.4732
 30
0.0
 10
-154.1944
 20
69.6897
 30
0.0
 10
-154.1944
 20
68.7232
 30
0.0
 10
-154.1944
 20
68.7232
 30
0.0
 10
-154.1944
 20
67.7567
 30
0.0
 10
-153.4109
 20
66.9732
 30
0.0
 10
-152.4444
 20
66.9732
 30
0.0
 10
-152.4444
 20
66.9732
 30
0.0
 10
-151.4779
 20
66.9732
 30
0.0
 10
-150.6944
 20
67.7567
 30
0.0
 10
-150.6944
 20
68.7232
 30
0.0
  0
SPLINE
  5
59
330
1F
100
AcDbEntity
  8
Capa 1
370
    15
100
AcDbSpline
210
0.0
220
0.0
230
1.0
 70
    11
 71
     3
 72
    20
 73
    16
 74
     0
 42
0.000000001
 43
0.0000000001
 40
0.0
 40
0.0
 40
0.0
 40
0.0
 40
0.2
 40
0.2
 40
0.2
 40
0.2
 40
0.4
 40
0.4
 40
0.4
 40
0.4
 40
0.6
 40
0.6
 40
0.6
 40
0.6
 40
1.0
 40
1.0
 40
1.0
 40
1.0
 10
39.3052
 20
68.7232
 30
0.0
 10
39.3052
 20
69.6897
 30
0.0
 10
38.5217
 20
70.4732
 30
0.0
 10
37.5552
 20
70.4732
 30
0.0
 10
37.5552
 20
70.4732
 30
0.0
 10
36.5887
 20
70.4732
 30
0.0
 10
35.8052
 20
69.6897
 30
0.0
 10
35.8052
 20
68.7232
 30
0.0
 10
35.8052
 20
68.7232
 30
0.0
 10
35.8052
 20
67.7567
 30
0.0
 10
36.5887
 20
66.9732
 30
0.0
 10
37.5552
 20
66.9732
 30
0.0
 10
37.5552
 20
66.9732
 30
0.0
 10
38.5217
 20
66.9732
 30
0.0
 10
39.3052
 20
67.7567
 30
0.0
 10
39.3052
 20
68.7232
 30
0.0
  0
SPLINE
  5
5A
330
1F
100
AcDbEntity
  8
Capa 1
370
    15
100
AcDbSpline
210
0.0
220
0.0
230
1.0
 70
     8
 71
     3
 72
    20
 73
    16
 74
     0
 42
0.000000001
 43
0.0000000001
 40
0.0
 40
0.0
 40
0.0
 40
0.0
 40
0.2
 40
0.2
 40
0.2
 40
0.2
 40
0.4
 40
0.4
 40
0.4
 40
0.4
 40
0.6
 40
0.6
 40
0.6
 40
0.6
 40
1.0
 40
1.0
 40
1.0
 40
1.0
 10
61.9327
 20
91.3507
 30
0.0
 10
61.9327
 20
92.3172
 30
0.0
 10
61.1492
 20
93.1007
 30
0.0
 10
60.1827
 20
93.1007
 30
0.0
 10
60.1827
 20
93.1007
 30
0.0
 10
59.2162
 20
93.1007
 30
0.0
 10
58.4327
 20
92.3172
 30
0.0
 10
58.4327
 20
91.3507
 30
0.0
 10
58.4327
 20
91.3507
 30
0.0
 10
58.4327
 20
90.3842
 30
0.0
 10
59.2162
 20
89.6007
 30
0.0
 10
60.1827
 20
89.6007
 30
0.0
 10
60.1827
 20
89.6007
 30
0.0
 10
61.1491
 20
89.6007
 30
0.0
 10
61.9327
 20
90.3842
 30
0.0
 10
61.9327
 20
91.3506
 30
0.0
  0
SPLINE
  5
5B
330
1F
100
AcDbEntity
  8
Capa 1
370
    15
100
AcDbSpline
210
0.0
220
0.0
230
1.0
 70
     8
 71
     3
 72
    20
 73
    16
 74
     0
 42
0.000000001
 43
0.0000000001
 40
0.0
 40
0.0
 40
0.0
 40
0.0
 40
0.2
 40
0.2
 40
0.2
 40
0.2
 40
0.4
 40
0.4
 40
0.4
 40
0.4
 40
0.6
 40
0.6
 40
0.6
 40
0.6
 40
1.0
 40
1.0
 40
1.0
 40
1.0
 10
59.619
 20
80.0371
 30
0.0
 10
59.619
 20
85.974
 30
0.0
 10
54.8059
 20
90.7869
 30
0.0
 10
48.8691
 20
90.7869
 30
0.0
 10
48.8691
 20
90.7869
 30
0.0
 10
42.932
 20
90.787
 30
0.0
 10
38.1191
 20
85.9741
 30
0.0
 10
38.1191
 20
80.0371
 30
0.0
 10
38.1191
 20
80.0371
 30
0.0
 10
38.119
 20
74.1
 30
0.0
 10
42.9319
 20
69.2871
 30
0.0
 10
48.8689
 20
69.2871
 30
0.0
 10
48.8689
 20
69.2871
 30
0.0
 10
54.8059
 20
69.2869
 30
0.0
 10
59.6188
 20
74.0998
 30
0.0
 10
59.6188
 20
80.0369
 30
0.0
  0
SPLINE
  5
5C
330
1F
100
AcDbEntity
  8
Capa 1
370
    15
100
AcDbSpline
210
0.0
220
0.0
230
1.0
 70
     8
 71
     3
 72
    20
 73
    16
 74
     0
 42
0.000000001
 43
0.0000000001
 40
0.0
 40
0.0
 40
0.0
 40
0.0
 40
0.2
 40
0.2
 40
0.2
 40
0.2
 40
0.4
 40
0.4
 40
0.4
 40
0.4
 40
0.6
 40
0.6
 40
0.6
 40
0.6
 40
1.0
 40
1.0
 40
1.0
 40
1.0
 10
39.3052
 20
91.3507
 30
0.0
 10
39.3052
 20
92.3172
 30
0.0
 10
38.5217
 20
93.1007
 30
0.0
 10
37.5552
 20
93.1007
 30
0.0
 10
37.5552
 20
93.1007
 30
0.0
 10
36.5887
 20
93.1007
 30
0.0
 10
35.8052
 20
92.3172
 30
0.0
 10
35.8052
 20
91.3507
 30
0.0
 10
35.8052
 20
91.3507
 30
0.0
 10
35.8052
 20
90.3842
 30
0.0
 10
36.5887
 20
89.6007
 30
0.0
 10
37.5552
 20
89.6007
 30
0.0
 10
37.5552
 20
89.6007
 30
0.0
 10
38.5217
 20
89.6007
 30
0.0
 10
39.3052
 20
90.3842
 30
0.0
 10
39.3052
 20
91.3506
 30
0.0
  0
SPLINE
  5
5D
330
1F
100
AcDbEntity
  8
Capa 1
370
    15
100
AcDbSpline
210
0.0
220
0.0
230
1.0
 70
    11
 71
     3
 72
    20
 73
    16
 74
     0
 42
0.000000001
 43
0.0000000001
 40
0.0
 40
0.0
 40
0.0
 40
0.0
 40
0.2
 40
0.2
 40
0.2
 40
0.2
 40
0.4
 40
0.4
 40
0.4
 40
0.4
 40
0.6
 40
0.6
 40
0.6
 40
0.6
 40
1.0
 40
1.0
 40
1.0
 40
1.0
 10
61.9327
 20
68.7232
 30
0.0
 10
61.9327
 20
69.6897
 30
0.0
 10
61.1492
 20
70.4732
 30
0.0
 10
60.1827
 20
70.4732
 30
0.0
 10
60.1827
 20
70.4732
 30
0.0
 10
59.2162
 20
70.4732
 30
0.0
 10
58.4327
 20
69.6897
 30
0.0
 10
58.4327
 20
68.7232
 30
0.0
 10
58.4327
 20
68.7232
 30
0.0
 10
58.4327
 20
67.7567
 30
0.0
 10
59.2162
 20
66.9732
 30
0.0
 10
60.1827
 20
66.9732
 30
0.0
 10
60.1827
 20
66.9732
 30
0.0
 10
61.1491
 20
66.9732
 30
0.0
 10
61.9327
 20
67.7567
 30
0.0
 10
61.9327
 20
68.7232
 30
0.0
  0
SPLINE
  5
5E
330
1F
100
AcDbEntity
  8
Capa 1
370
    15
100
AcDbSpline
210
0.0
220
0.0
230
1.0
 70
     8
 71
     3
 72
    20
 73
    16
 74
     0
 42
0.000000001
 43
0.0000000001
 40
0.0
 40
0.0
 40
0.0
 40
0.0
 40
0.2
 40
0.2
 40
0.2
 40
0.2
 40
0.4
 40
0.4
 40
0.4
 40
0.4
 40
0.6
 40
0.6
 40
0.6
 40
0.6
 40
1.0
 40
1.0
 40
1.0
 40
1.0
 10
-50.2308
 20
74.387
 30
0.0
 10
-50.2308
 20
75.2982
 30
0.0
 10
-50.9695
 20
76.0369
 30
0.0
 10
-51.8807
 20
76.0369
 30
0.0
 10
-51.8807
 20
76.0369
 30
0.0
 10
-52.792
 20
76.037
 30
0.0
 10
-53.5307
 20
75.2982
 30
0.0
 10
-53.5307
 20
74.387
 30
0.0
 10
-53.5307
 20
74.387
 30
0.0
 10
-53.5308
 20
73.4757
 30
0.0
 10
-52.792
 20
72.737
 30
0.0
 10
-51.8808
 20
72.737
 30
0.0
 10
-51.8808
 20
72.737
 30
0.0
 10
-50.9695
 20
72.7369
 30
0.0
 10
-50.2308
 20
73.4757
 30
0.0
 10
-50.2308
 20
74.3869
 30
0.0
  0
SPLINE
  5
5F
330
1F
100
AcDbEntity
  8
Capa 1
370
    15
100
AcDbSpline
210
0.0
220
0.0
230
1.0
 70
     8
 71
     3
 72
    20
 73
    16
 74
     0
 42
0.000000001
 43
0.0000000001
 40
0.0
 40
0.0
 40
0.0
 40
0.0
 40
0.2
 40
0.2
 40
0.2
 40
0.2
 40
0.4
 40
0.4
 40
0.4
 40
0.4
 40
0.6
 40
0.6
 40
0.6
 40
0.6
 40
1.0
 40
1.0
 40
1.0
 40
1.0
 10
-38.7309
 20
74.387
 30
0.0
 10
-38.7309
 20
75.2982
 30
0.0
 10
-39.4696
 20
76.0369
 30
0.0
 10
-40.3808
 20
76.0369
 30
0.0
 10
-40.3808
 20
76.0369
 30
0.0
 10
-41.2921
 20
76.037
 30
0.0
 10
-42.0308
 20
75.2982
 30
0.0
 10
-42.0308
 20
74.387
 30
0.0
 10
-42.0308
 20
74.387
 30
0.0
 10
-42.0309
 20
73.4757
 30
0.0
 10
-41.2921
 20
72.737
 30
0.0
 10
-40.3809
 20
72.737
 30
0.0
 10
-40.3809
 20
72.737
 30
0.0
 10
-39.4696
 20
72.7369
 30
0.0
 10
-38.7309
 20
73.4757
 30
0.0
 10
-38.7309
 20
74.3869
 30
0.0
  0
SPLINE
  5
60
330
1F
100
AcDbEntity
  8
Capa 1
370
    15
100
AcDbSpline
210
0.0
220
0.0
230
1.0
 70
    24
 71
     3
 72
     8
 73
     4
 74
     0
 42
0.000000001
 43
0.0000000001
 40
0.0
 40
0.0
 40
0.0
 40
0.0
 40
1.0
 40
1.0
 40
1.0
 40
1.0
 10
68.869
 20
63.837
 30
0.0
 10
68.869
 20
63.837
 30
0.0
 10
68.869
 20
91.037
 30
0.0
 10
68.869
 20
91.037
 30
0.0
  0
SPLINE
  5
61
330
1F
100
AcDbEntity
  8
Capa 1
370
    15
100
AcDbSpline
210
0.0
220
0.0
230
1.0
 70
     8
 71
     3
 72
    12
 73
     8
 74
     0
 42
0.000000001
 43
0.0000000001
 40
0.0
 40
0.0
 40
0.0
 40
0.0
 40
0.3333333333333333
 40
0.3333333333333333
 40
0.3333333333333333
 40
0.3333333333333333
 40
1.0
 40
1.0
 40
1.0
 40
1.0
 10
68.869
 20
91.037
 30
0.0
 10
68.869
 20
92.363
 30
0.0
 10
68.3422
 20
93.6348
 30
0.0
 10
67.4045
 20
94.5725
 30
0.0
 10
67.4045
 20
94.5725
 30
0.0
 10
66.4668
 20
95.5102
 30
0.0
 10
65.195
 20
96.0369
 30
0.0
 10
63.869
 20
96.0369
 30
0.0
  0
SPLINE
  5
62
330
1F
100
AcDbEntity
  8
Capa 1
370
    15
100
AcDbSpline
210
0.0
220
0.0
230
1.0
 70
    24
 71
     3
 72
     8
 73
     4
 74
     0
 42
0.000000001
 43
0.0000000001
 40
0.0
 40
0.0
 40
0.0
 40
0.0
 40
1.0
 40
1.0
 40
1.0
 40
1.0
 10
63.869
 20
96.037
 30
0.0
 10
63.869
 20
96.037
 30
0.0
 10
22.869
 20
96.037
 30
0.0
 10
22.869
 20
96.037
 30
0.0
  0
SPLINE
  5
63
330
1F
100
AcDbEntity
  8
Capa 1
370
    15
100
AcDbSpline
210
0.0
220
0.0
230
1.0
 70
     8
 71
     3
 72
     8
 73
     4
 74
     0
 42
0.000000001
 43
0.0000000001
 40
0.0
 40
0.0
 40
0.0
 40
0.0
 40
1.0
 40
1.0
 40
1.0
 40
1.0
 10
-187.9023
 20
20.3917
 30
0.0
 10
-189.0166
 20
19.1163
 30
0.0
 10
-189.6307
 20
17.48
 30
0.0
 10
-189.6307
 20
15.7864
 30
0.0
  0
SPLINE
  5
64
330
1F
100
AcDbEntity
  8
Capa 1
370
    15
100
AcDbSpline
210
0.0
220
0.0
230
1.0
 70
     8
 71
     3
 72
    12
 73
     8
 74
     0
 42
0.000000001
 43
0.0000000001
 40
0.0
 40
0.0
 40
0.0
 40
0.0
 40
0.3333333333333333
 40
0.3333333333333333
 40
0.3333333333333333
 40
0.3333333333333333
 40
1.0
 40
1.0
 40
1.0
 40
1.0
 10
-189.6307
 20
-233.5626
 30
0.0
 10
-189.6307
 20
-234.8886
 30
0.0
 10
-189.1039
 20
-236.1604
 30
0.0
 10
-188.1662
 20
-237.0981
 30
0.0
 10
-188.1662
 20
-237.0981
 30
0.0
 10
-187.2285
 20
-238.0358
 30
0.0
 10
-185.9567
 20
-238.5625
 30
0.0
 10
-184.6307
 20
-238.5625
 30
0.0
  0
SPLINE
  5
65
330
1F
100
AcDbEntity
  8
Capa 1
370
    15
100
AcDbSpline
210
0.0
220
0.0
230
1.0
 70
     8
 71
     3
 72
     8
 73
     4
 74
     0
 42
0.000000001
 43
0.0000000001
 40
0.0
 40
0.0
 40
0.0
 40
0.0
 40
1.0
 40
1.0
 40
1.0
 40
1.0
 10
92.369
 20
-238.5625
 30
0.0
 10
95.1304
 20
-238.5625
 30
0.0
 10
97.3689
 20
-236.324
 30
0.0
 10
97.3689
 20
-233.5626
 30
0.0
  0
SPLINE
  5
66
330
1F
100
AcDbEntity
  8
Capa 1
370
    15
100
AcDbSpline
210
0.0
220
0.0
230
1.0
 70
     8
 71
     3
 72
     8
 73
     4
 74
     0
 42
0.000000001
 43
0.0000000001
 40
0.0
 40
0.0
 40
0.0
 40
0.0
 40
1.0
 40
1.0
 40
1.0
 40
1.0
 10
97.369
 20
15.7864
 30
0.0
 10
97.369
 20
17.48
 30
0.0
 10
96.7549
 20
19.1163
 30
0.0
 10
95.6406
 20
20.3917
 30
0.0
  0
SPLINE
  5
67
330
1F
100
AcDbEntity
  8
Capa 1
370
    15
100
AcDbSpline
210
0.0
220
0.0
230
1.0
 70
    24
 71
     3
 72
     8
 73
     4
 74
     0
 42
0.000000001
 43
0.0000000001
 40
0.0
 40
0.0
 40
0.0
 40
0.0
 40
1.0
 40
1.0
 40
1.0
 40
1.0
 10
95.6406
 20
20.3917
 30
0.0
 10
95.6406
 20
20.3917
 30
0.0
 10
70.1035
 20
49.6238
 30
0.0
 10
70.1035
 20
49.6238
 30
0.0
  0
SPLINE
  5
68
330
1F
100
AcDbEntity
  8
Capa 1
370
    15
100
AcDbSpline
210
0.0
220
0.0
230
1.0
 70
     8
 71
     3
 72
     8
 73
     4
 74
     0
 42
0.000000001
 43
0.0000000001
 40
0.0
 40
0.0
 40
0.0
 40
0.0
 40
1.0
 40
1.0
 40
1.0
 40
1.0
 10
68.869
 20
52.9134
 30
0.0
 10
68.869
 20
51.7036
 30
0.0
 10
69.3076
 20
50.5349
 30
0.0
 10
70.1035
 20
49.6238
 30
0.0
  0
SPLINE
  5
69
330
1F
100
AcDbEntity
  8
Capa 1
370
    15
100
AcDbSpline
210
0.0
220
0.0
230
1.0
 70
    24
 71
     3
 72
     8
 73
     4
 74
     0
 42
0.000000001
 43
0.0000000001
 40
0.0
 40
0.0
 40
0.0
 40
0.0
 40
1.0
 40
1.0
 40
1.0
 40
1.0
 10
68.869
 20
52.9134
 30
0.0
 10
68.869
 20
52.9134
 30
0.0
 10
68.869
 20
57.337
 30
0.0
 10
68.869
 20
57.337
 30
0.0
  0
SPLINE
  5
6A
330
1F
100
AcDbEntity
  8
Capa 1
 62
   250
370
    20
100
AcDbSpline
210
0.0
220
0.0
230
1.0
 70
    24
 71
     3
 72
     8
 73
     4
 74
     0
 42
0.000000001
 43
0.0000000001
 40
0.0
 40
0.0
 40
0.0
 40
0.0
 40
1.0
 40
1.0
 40
1.0
 40
1.0
 10
-155.7279
 20
64.0031
 30
0.0
 10
-155.7279
 20
64.0031
 30
0.0
 10
-155.7948
 20
96.1832
 30
0.0
 10
-155.7948
 20
96.1832
 30
0.0
  0
SPLINE
  5
6B
330
1F
100
AcDbEntity
  8
Capa 1
 62
   250
370
    20
100
AcDbSpline
210
0.0
220
0.0
230
1.0
 70
    24
 71
     3
 72
     8
 73
     4
 74
     0
 42
0.000000001
 43
0.0000000001
 40
0.0
 40
0.0
 40
0.0
 40
0.0
 40
1.0
 40
1.0
 40
1.0
 40
1.0
 10
68.869
 20
57.337
 30
0.0
 10
68.869
 20
57.337
 30
0.0
 10
68.869
 20
63.837
 30
0.0
 10
68.869
 20
63.837
 30
0.0
  0
SPLINE
  5
6C
330
1F
100
AcDbEntity
  8
Capa 1
 62
   250
370
    20
100
AcDbSpline
210
0.0
220
0.0
230
1.0
 70
    24
 71
     3
 72
     8
 73
     4
 74
     0
 42
0.000000001
 43
0.0000000001
 40
0.0
 40
0.0
 40
0.0
 40
0.0
 40
1.0
 40
1.0
 40
1.0
 40
1.0
 10
22.869
 20
96.037
 30
0.0
 10
22.869
 20
96.037
 30
0.0
 10
-155.7944
 20
96.037
 30
0.0
 10
-155.7944
 20
96.037
 30
0.0
  0
SPLINE
  5
6D
330
1F
100
AcDbEntity
  8
Capa 1
 62
   250
370
    20
100
AcDbSpline
210
0.0
220
0.0
230
1.0
 70
    24
 71
     3
 72
     8
 73
     4
 74
     0
 42
0.000000001
 43
0.0000000001
 40
0.0
 40
0.0
 40
0.0
 40
0.0
 40
1.0
 40
1.0
 40
1.0
 40
1.0
 10
-184.6307
 20
-238.5625
 30
0.0
 10
-184.6307
 20
-238.5625
 30
0.0
 10
92.369
 20
-238.5625
 30
0.0
 10
92.369
 20
-238.5625
 30
0.0
  0
ELLIPSE
  5
6E
330
1F
100
AcDbEntity
  8
Capa 1
 62
   250
370
    20
100
AcDbEllipse
 10
-161.8831
 20
3.3316
 30
0.0
 11
0.0
 21
1.5
 31
0.0
210
0.0
220
0.0
230
1.0
 40
1.0
 41
0.0
 42
6.283185307179586
  0
ELLIPSE
  5
6F
330
1F
100
AcDbEntity
  8
Capa 1
 62
   250
370
    20
100
AcDbEllipse
 10
47.1169
 20
3.3316
 30
0.0
 11
0.0
 21
1.5
 31
0.0
210
0.0
220
0.0
230
1.0
 40
1.0
 41
0.0
 42
6.283185307179586
  0
ELLIPSE
  5
70
330
1F
100
AcDbEntity
  8
Capa 1
 62
   250
370
    20
100
AcDbEllipse
 10
47.1169
 20
-205.6684
 30
0.0
 11
0.0
 21
1.5
 31
0.0
210
0.0
220
0.0
230
1.0
 40
1.0
 41
0.0
 42
6.283185307179586
  0
ELLIPSE
  5
71
330
1F
100
AcDbEntity
  8
Capa 1
 62
   250
370
    20
100
AcDbEllipse
 10
-161.8831
 20
-205.6684
 30
0.0
 11
0.0
 21
1.5
 31
0.0
210
0.0
220
0.0
230
1.0
 40
1.0
 41
0.0
 42
6.283185307179586
  0
SPLINE
  5
72
330
1F
100
AcDbEntity
  8
Capa 1
 62
   250
370
    20
100
AcDbSpline
210
0.0
220
0.0
230
1.0
 70
    24
 71
     3
 72
     8
 73
     4
 74
     0
 42
0.000000001
 43
0.0000000001
 40
0.0
 40
0.0
 40
0.0
 40
0.0
 40
1.0
 40
1.0
 40
1.0
 40
1.0
 10
-189.6307
 20
15.7864
 30
0.0
 10
-189.6307
 20
15.7864
 30
0.0
 10
-189.6307
 20
-233.5626
 30
0.0
 10
-189.6307
 20
-233.5626
 30
0.0
  0
SPLINE
  5
73
330
1F
100
AcDbEntity
  8
Capa 1
 62
   250
370
    20
100
AcDbSpline
210
0.0
220
0.0
230
1.0
 70
    24
 71
     3
 72
     8
 73
     4
 74
     0
 42
0.000000001
 43
0.0000000001
 40
0.0
 40
0.0
 40
0.0
 40
0.0
 40
1.0
 40
1.0
 40
1.0
 40
1.0
 10
97.369
 20
15.7864
 30
0.0
 10
97.369
 20
15.7864
 30
0.0
 10
97.3689
 20
-233.5626
 30
0.0
 10
97.3689
 20
-233.5626
 30
0.0
  0
ELLIPSE
  5
74
330
1F
100
AcDbEntity
  8
Capa 1
 62
   250
370
    20
100
AcDbEllipse
 10
-90.0381
 20
43.4606
 30
0.0
 11
0.0
 21
1.5
 31
0.0
210
0.0
220
0.0
230
1.0
 40
1.0
 41
0.0
 42
6.283185307179586
  0
ELLIPSE
  5
75
330
1F
100
AcDbEntity
  8
Capa 1
 62
   250
370
    20
100
AcDbEllipse
 10
-90.0381
 20
-71.3196
 30
0.0
 11
0.0
 21
1.5
 31
0.0
210
0.0
220
0.0
230
1.0
 40
1.0
 41
0.0
 42
6.283185307179586
  0
ELLIPSE
  5
76
330
1F
100
AcDbEntity
  8
Capa 1
 62
   250
370
    20
100
AcDbEllipse
 10
-90.0381
 20
-189.1004
 30
0.0
 11
0.0
 21
1.5
 31
0.0
210
0.0
220
0.0
230
1.0
 40
1.0
 41
0.0
 42
6.283185307179586
  0
ELLIPSE
  5
77
330
1F
100
AcDbEntity
  8
Capa 1
 62
   250
370
    20
100
AcDbEllipse
 10
-2.3159
 20
43.4608
 30
0.0
 11
0.0
 21
1.5
 31
0.0
210
0.0
220
0.0
230
1.0
 40
1.0
 41
0.0
 42
6.283185307179586
  0
ELLIPSE
  5
78
330
1F
100
AcDbEntity
  8
Capa 1
 62
   250
370
    20
100
AcDbEllipse
 10
-2.3159
 20
-71.3194
 30
0.0
 11
0.0
 21
1.5
 31
0.0
210
0.0
220
0.0
230
1.0
 40
1.0
 41
0.0
 42
6.283185307179586
  0
ELLIPSE
  5
79
330
1F
100
AcDbEntity
  8
Capa 1
 62
   250
370
    20
100
AcDbEllipse
 10
-2.3159
 20
-189.1002
 30
0.0
 11
0.0
 21
1.5
 31
0.0
210
0.0
220
0.0
230
1.0
 40
1.0
 41
0.0
 42
6.283185307179586
  0
SPLINE
  5
7A
330
1F
100
AcDbEntity
  8
Capa 1
 62
   250
370
     9
100
AcDbSpline
210
0.0
220
0.0
230
1.0
 70
    11
 71
     3
 72
    52
 73
    48
 74
     0
 42
0.000000001
 43
0.0000000001
 40
0.0
 40
0.0
 40
0.0
 40
0.0
 40
0.0769230769230769
 40
0.0769230769230769
 40
0.0769230769230769
 40
0.0769230769230769
 40
0.1538461538461539
 40
0.1538461538461539
 40
0.1538461538461539
 40
0.1538461538461539
 40
0.2307692307692308
 40
0.2307692307692308
 40
0.2307692307692308
 40
0.2307692307692308
 40
0.3076923076923077
 40
0.3076923076923077
 40
0.3076923076923077
 40
0.3076923076923077
 40
0.3846153846153846
 40
0.3846153846153846
 40
0.3846153846153846
 40
0.3846153846153846
 40
0.4615384615384616
 40
0.4615384615384616
 40
0.4615384615384616
 40
0.4615384615384616
 40
0.5384615384615384
 40
0.5384615384615384
 40
0.5384615384615384
 40
0.5384615384615384
 40
0.6153846153846154
 40
0.6153846153846154
 40
0.6153846153846154
 40
0.6153846153846154
 40
0.6923076923076923
 40
0.6923076923076923
 40
0.6923076923076923
 40
0.6923076923076923
 40
0.7692307692307693
 40
0.7692307692307693
 40
0.7692307692307693
 40
0.7692307692307693
 40
0.8461538461538461
 40
0.8461538461538461
 40
0.8461538461538461
 40
0.8461538461538461
 40
1.0
 40
1.0
 40
1.0
 40
1.0
 10
-36.8743
 20
128.9066
 30
0.0
 10
-36.8743
 20
128.9066
 30
0.0
 10
-35.3743
 20
128.0628
 30
0.0
 10
-35.3743
 20
128.0628
 30
0.0
 10
-35.3743
 20
128.0628
 30
0.0
 10
-35.3743
 20
128.0628
 30
0.0
 10
-33.8743
 20
127.2191
 30
0.0
 10
-33.8743
 20
127.2191
 30
0.0
 10
-33.8743
 20
127.2191
 30
0.0
 10
-33.8743
 20
127.2191
 30
0.0
 10
-33.8743
 20
125.5316
 30
0.0
 10
-33.8743
 20
125.5316
 30
0.0
 10
-33.8743
 20
125.5316
 30
0.0
 10
-33.8743
 20
125.5316
 30
0.0
 10
-33.8743
 20
123.8441
 30
0.0
 10
-33.8743
 20
123.8441
 30
0.0
 10
-33.8743
 20
123.8441
 30
0.0
 10
-33.8743
 20
123.8441
 30
0.0
 10
-35.3743
 20
123.0004
 30
0.0
 10
-35.3743
 20
123.0004
 30
0.0
 10
-35.3743
 20
123.0004
 30
0.0
 10
-35.3743
 20
123.0004
 30
0.0
 10
-36.8743
 20
122.1566
 30
0.0
 10
-36.8743
 20
122.1566
 30
0.0
 10
-36.8743
 20
122.1566
 30
0.0
 10
-36.8743
 20
122.1566
 30
0.0
 10
-38.3743
 20
123.0004
 30
0.0
 10
-38.3743
 20
123.0004
 30
0.0
 10
-38.3743
 20
123.0004
 30
0.0
 10
-38.3743
 20
123.0004
 30
0.0
 10
-39.8743
 20
123.8441
 30
0.0
 10
-39.8743
 20
123.8441
 30
0.0
 10
-39.8743
 20
123.8441
 30
0.0
 10
-39.8743
 20
123.8441
 30
0.0
 10
-39.8743
 20
125.5316
 30
0.0
 10
-39.8743
 20
125.5316
 30
0.0
 10
-39.8743
 20
125.5316
 30
0.0
 10
-39.8743
 20
125.5316
 30
0.0
 10
-39.8743
 20
127.2191
 30
0.0
 10
-39.8743
 20
127.2191
 30
0.0
 10
-39.8743
 20
127.2191
 30
0.0
 10
-39.8743
 20
127.2191
 30
0.0
 10
-38.3743
 20
128.0628
 30
0.0
 10
-38.3743
 20
128.0628
 30
0.0
 10
-38.3743
 20
128.0628
 30
0.0
 10
-38.3743
 20
128.0628
 30
0.0
 10
-36.8743
 20
128.9066
 30
0.0
 10
-36.8743
 20
128.9066
 30
0.0
  0
SPLINE
  5
7B
330
1F
100
AcDbEntity
  8
Capa 1
 62
   250
370
     9
100
AcDbSpline
210
0.0
220
0.0
230
1.0
 70
    11
 71
     3
 72
    52
 73
    48
 74
     0
 42
0.000000001
 43
0.0000000001
 40
0.0
 40
0.0
 40
0.0
 40
0.0
 40
0.0769230769230769
 40
0.0769230769230769
 40
0.0769230769230769
 40
0.0769230769230769
 40
0.1538461538461539
 40
0.1538461538461539
 40
0.1538461538461539
 40
0.1538461538461539
 40
0.2307692307692308
 40
0.2307692307692308
 40
0.2307692307692308
 40
0.2307692307692308
 40
0.3076923076923077
 40
0.3076923076923077
 40
0.3076923076923077
 40
0.3076923076923077
 40
0.3846153846153846
 40
0.3846153846153846
 40
0.3846153846153846
 40
0.3846153846153846
 40
0.4615384615384616
 40
0.4615384615384616
 40
0.4615384615384616
 40
0.4615384615384616
 40
0.5384615384615384
 40
0.5384615384615384
 40
0.5384615384615384
 40
0.5384615384615384
 40
0.6153846153846154
 40
0.6153846153846154
 40
0.6153846153846154
 40
0.6153846153846154
 40
0.6923076923076923
 40
0.6923076923076923
 40
0.6923076923076923
 40
0.6923076923076923
 40
0.7692307692307693
 40
0.7692307692307693
 40
0.7692307692307693
 40
0.7692307692307693
 40
0.8461538461538461
 40
0.8461538461538461
 40
0.8461538461538461
 40
0.8461538461538461
 40
1.0
 40
1.0
 40
1.0
 40
1.0
 10
-151.6646
 20
189.9811
 30
0.0
 10
-151.6646
 20
189.9811
 30
0.0
 10
-150.1646
 20
189.1373
 30
0.0
 10
-150.1646
 20
189.1373
 30
0.0
 10
-150.1646
 20
189.1373
 30
0.0
 10
-150.1646
 20
189.1373
 30
0.0
 10
-148.6646
 20
188.2936
 30
0.0
 10
-148.6646
 20
188.2936
 30
0.0
 10
-148.6646
 20
188.2936
 30
0.0
 10
-148.6646
 20
188.2936
 30
0.0
 10
-148.6646
 20
186.6061
 30
0.0
 10
-148.6646
 20
186.6061
 30
0.0
 10
-148.6646
 20
186.6061
 30
0.0
 10
-148.6646
 20
186.6061
 30
0.0
 10
-148.6646
 20
184.9186
 30
0.0
 10
-148.6646
 20
184.9186
 30
0.0
 10
-148.6646
 20
184.9186
 30
0.0
 10
-148.6646
 20
184.9186
 30
0.0
 10
-150.1646
 20
184.0749
 30
0.0
 10
-150.1646
 20
184.0749
 30
0.0
 10
-150.1646
 20
184.0749
 30
0.0
 10
-150.1646
 20
184.0749
 30
0.0
 10
-151.6646
 20
183.2311
 30
0.0
 10
-151.6646
 20
183.2311
 30
0.0
 10
-151.6646
 20
183.2311
 30
0.0
 10
-151.6646
 20
183.2311
 30
0.0
 10
-153.1646
 20
184.0749
 30
0.0
 10
-153.1646
 20
184.0749
 30
0.0
 10
-153.1646
 20
184.0749
 30
0.0
 10
-153.1646
 20
184.0749
 30
0.0
 10
-154.6646
 20
184.9186
 30
0.0
 10
-154.6646
 20
184.9186
 30
0.0
 10
-154.6646
 20
184.9186
 30
0.0
 10
-154.6646
 20
184.9186
 30
0.0
 10
-154.6646
 20
186.6061
 30
0.0
 10
-154.6646
 20
186.6061
 30
0.0
 10
-154.6646
 20
186.6061
 30
0.0
 10
-154.6646
 20
186.6061
 30
0.0
 10
-154.6646
 20
188.2936
 30
0.0
 10
-154.6646
 20
188.2936
 30
0.0
 10
-154.6646
 20
188.2936
 30
0.0
 10
-154.6646
 20
188.2936
 30
0.0
 10
-153.1646
 20
189.1373
 30
0.0
 10
-153.1646
 20
189.1373
 30
0.0
 10
-153.1646
 20
189.1373
 30
0.0
 10
-153.1646
 20
189.1373
 30
0.0
 10
-151.6646
 20
189.9811
 30
0.0
 10
-151.6646
 20
189.9811
 30
0.0
  0
SPLINE
  5
7C
330
1F
100
AcDbEntity
  8
Capa 1
 62
   250
370
     9
100
AcDbSpline
210
0.0
220
0.0
230
1.0
 70
    11
 71
     3
 72
    52
 73
    48
 74
     0
 42
0.000000001
 43
0.0000000001
 40
0.0
 40
0.0
 40
0.0
 40
0.0
 40
0.0769230769230769
 40
0.0769230769230769
 40
0.0769230769230769
 40
0.0769230769230769
 40
0.1538461538461539
 40
0.1538461538461539
 40
0.1538461538461539
 40
0.1538461538461539
 40
0.2307692307692308
 40
0.2307692307692308
 40
0.2307692307692308
 40
0.2307692307692308
 40
0.3076923076923077
 40
0.3076923076923077
 40
0.3076923076923077
 40
0.3076923076923077
 40
0.3846153846153846
 40
0.3846153846153846
 40
0.3846153846153846
 40
0.3846153846153846
 40
0.4615384615384616
 40
0.4615384615384616
 40
0.4615384615384616
 40
0.4615384615384616
 40
0.5384615384615384
 40
0.5384615384615384
 40
0.5384615384615384
 40
0.5384615384615384
 40
0.6153846153846154
 40
0.6153846153846154
 40
0.6153846153846154
 40
0.6153846153846154
 40
0.6923076923076923
 40
0.6923076923076923
 40
0.6923076923076923
 40
0.6923076923076923
 40
0.7692307692307693
 40
0.7692307692307693
 40
0.7692307692307693
 40
0.7692307692307693
 40
0.8461538461538461
 40
0.8461538461538461
 40
0.8461538461538461
 40
0.8461538461538461
 40
1.0
 40
1.0
 40
1.0
 40
1.0
 10
80.9065
 20
128.9066
 30
0.0
 10
80.9065
 20
128.9066
 30
0.0
 10
82.4065
 20
128.0628
 30
0.0
 10
82.4065
 20
128.0628
 30
0.0
 10
82.4065
 20
128.0628
 30
0.0
 10
82.4065
 20
128.0628
 30
0.0
 10
83.9065
 20
127.2191
 30
0.0
 10
83.9065
 20
127.2191
 30
0.0
 10
83.9065
 20
127.2191
 30
0.0
 10
83.9065
 20
127.2191
 30
0.0
 10
83.9065
 20
125.5316
 30
0.0
 10
83.9065
 20
125.5316
 30
0.0
 10
83.9065
 20
125.5316
 30
0.0
 10
83.9065
 20
125.5316
 30
0.0
 10
83.9065
 20
123.8441
 30
0.0
 10
83.9065
 20
123.8441
 30
0.0
 10
83.9065
 20
123.8441
 30
0.0
 10
83.9065
 20
123.8441
 30
0.0
 10
82.4065
 20
123.0004
 30
0.0
 10
82.4065
 20
123.0004
 30
0.0
 10
82.4065
 20
123.0004
 30
0.0
 10
82.4065
 20
123.0004
 30
0.0
 10
80.9065
 20
122.1566
 30
0.0
 10
80.9065
 20
122.1566
 30
0.0
 10
80.9065
 20
122.1566
 30
0.0
 10
80.9065
 20
122.1566
 30
0.0
 10
79.4065
 20
123.0004
 30
0.0
 10
79.4065
 20
123.0004
 30
0.0
 10
79.4065
 20
123.0004
 30
0.0
 10
79.4065
 20
123.0004
 30
0.0
 10
77.9065
 20
123.8441
 30
0.0
 10
77.9065
 20
123.8441
 30
0.0
 10
77.9065
 20
123.8441
 30
0.0
 10
77.9065
 20
123.8441
 30
0.0
 10
77.9065
 20
125.5316
 30
0.0
 10
77.9065
 20
125.5316
 30
0.0
 10
77.9065
 20
125.5316
 30
0.0
 10
77.9065
 20
125.5316
 30
0.0
 10
77.9065
 20
127.2191
 30
0.0
 10
77.9065
 20
127.2191
 30
0.0
 10
77.9065
 20
127.2191
 30
0.0
 10
77.9065
 20
127.2191
 30
0.0
 10
79.4065
 20
128.0628
 30
0.0
 10
79.4065
 20
128.0628
 30
0.0
 10
79.4065
 20
128.0628
 30
0.0
 10
79.4065
 20
128.0628
 30
0.0
 10
80.9065
 20
128.9066
 30
0.0
 10
80.9065
 20
128.9066
 30
0.0
  0
SPLINE
  5
7D
330
1F
100
AcDbEntity
  8
Capa 1
 62
   250
370
     9
100
AcDbSpline
210
0.0
220
0.0
230
1.0
 70
    11
 71
     3
 72
    52
 73
    48
 74
     0
 42
0.000000001
 43
0.0000000001
 40
0.0
 40
0.0
 40
0.0
 40
0.0
 40
0.0769230769230769
 40
0.0769230769230769
 40
0.0769230769230769
 40
0.0769230769230769
 40
0.1538461538461539
 40
0.1538461538461539
 40
0.1538461538461539
 40
0.1538461538461539
 40
0.2307692307692308
 40
0.2307692307692308
 40
0.2307692307692308
 40
0.2307692307692308
 40
0.3076923076923077
 40
0.3076923076923077
 40
0.3076923076923077
 40
0.3076923076923077
 40
0.3846153846153846
 40
0.3846153846153846
 40
0.3846153846153846
 40
0.3846153846153846
 40
0.4615384615384616
 40
0.4615384615384616
 40
0.4615384615384616
 40
0.4615384615384616
 40
0.5384615384615384
 40
0.5384615384615384
 40
0.5384615384615384
 40
0.5384615384615384
 40
0.6153846153846154
 40
0.6153846153846154
 40
0.6153846153846154
 40
0.6153846153846154
 40
0.6923076923076923
 40
0.6923076923076923
 40
0.6923076923076923
 40
0.6923076923076923
 40
0.7692307692307693
 40
0.7692307692307693
 40
0.7692307692307693
 40
0.7692307692307693
 40
0.8461538461538461
 40
0.8461538461538461
 40
0.8461538461538461
 40
0.8461538461538461
 40
1.0
 40
1.0
 40
1.0
 40
1.0
 10
-36.8844
 20
189.9811
 30
0.0
 10
-36.8844
 20
189.9811
 30
0.0
 10
-35.3844
 20
189.1373
 30
0.0
 10
-35.3844
 20
189.1373
 30
0.0
 10
-35.3844
 20
189.1373
 30
0.0
 10
-35.3844
 20
189.1373
 30
0.0
 10
-33.8844
 20
188.2936
 30
0.0
 10
-33.8844
 20
188.2936
 30
0.0
 10
-33.8844
 20
188.2936
 30
0.0
 10
-33.8844
 20
188.2936
 30
0.0
 10
-33.8844
 20
186.6061
 30
0.0
 10
-33.8844
 20
186.6061
 30
0.0
 10
-33.8844
 20
186.6061
 30
0.0
 10
-33.8844
 20
186.6061
 30
0.0
 10
-33.8844
 20
184.9186
 30
0.0
 10
-33.8844
 20
184.9186
 30
0.0
 10
-33.8844
 20
184.9186
 30
0.0
 10
-33.8844
 20
184.9186
 30
0.0
 10
-35.3844
 20
184.0749
 30
0.0
 10
-35.3844
 20
184.0749
 30
0.0
 10
-35.3844
 20
184.0749
 30
0.0
 10
-35.3844
 20
184.0749
 30
0.0
 10
-36.8844
 20
183.2311
 30
0.0
 10
-36.8844
 20
183.2311
 30
0.0
 10
-36.8844
 20
183.2311
 30
0.0
 10
-36.8844
 20
183.2311
 30
0.0
 10
-38.3844
 20
184.0749
 30
0.0
 10
-38.3844
 20
184.0749
 30
0.0
 10
-38.3844
 20
184.0749
 30
0.0
 10
-38.3844
 20
184.0749
 30
0.0
 10
-39.8844
 20
184.9186
 30
0.0
 10
-39.8844
 20
184.9186
 30
0.0
 10
-39.8844
 20
184.9186
 30
0.0
 10
-39.8844
 20
184.9186
 30
0.0
 10
-39.8844
 20
186.6061
 30
0.0
 10
-39.8844
 20
186.6061
 30
0.0
 10
-39.8844
 20
186.6061
 30
0.0
 10
-39.8844
 20
186.6061
 30
0.0
 10
-39.8844
 20
188.2936
 30
0.0
 10
-39.8844
 20
188.2936
 30
0.0
 10
-39.8844
 20
188.2936
 30
0.0
 10
-39.8844
 20
188.2936
 30
0.0
 10
-38.3844
 20
189.1373
 30
0.0
 10
-38.3844
 20
189.1373
 30
0.0
 10
-38.3844
 20
189.1373
 30
0.0
 10
-38.3844
 20
189.1373
 30
0.0
 10
-36.8844
 20
189.9811
 30
0.0
 10
-36.8844
 20
189.9811
 30
0.0
  0
SPLINE
  5
7E
330
1F
100
AcDbEntity
  8
Capa 1
 62
   250
370
     9
100
AcDbSpline
210
0.0
220
0.0
230
1.0
 70
    11
 71
     3
 72
    52
 73
    48
 74
     0
 42
0.000000001
 43
0.0000000001
 40
0.0
 40
0.0
 40
0.0
 40
0.0
 40
0.0769230769230769
 40
0.0769230769230769
 40
0.0769230769230769
 40
0.0769230769230769
 40
0.1538461538461539
 40
0.1538461538461539
 40
0.1538461538461539
 40
0.1538461538461539
 40
0.2307692307692308
 40
0.2307692307692308
 40
0.2307692307692308
 40
0.2307692307692308
 40
0.3076923076923077
 40
0.3076923076923077
 40
0.3076923076923077
 40
0.3076923076923077
 40
0.3846153846153846
 40
0.3846153846153846
 40
0.3846153846153846
 40
0.3846153846153846
 40
0.4615384615384616
 40
0.4615384615384616
 40
0.4615384615384616
 40
0.4615384615384616
 40
0.5384615384615384
 40
0.5384615384615384
 40
0.5384615384615384
 40
0.5384615384615384
 40
0.6153846153846154
 40
0.6153846153846154
 40
0.6153846153846154
 40
0.6153846153846154
 40
0.6923076923076923
 40
0.6923076923076923
 40
0.6923076923076923
 40
0.6923076923076923
 40
0.7692307692307693
 40
0.7692307692307693
 40
0.7692307692307693
 40
0.7692307692307693
 40
0.8461538461538461
 40
0.8461538461538461
 40
0.8461538461538461
 40
0.8461538461538461
 40
1.0
 40
1.0
 40
1.0
 40
1.0
 10
-151.6545
 20
128.9066
 30
0.0
 10
-151.6545
 20
128.9066
 30
0.0
 10
-150.1545
 20
128.0628
 30
0.0
 10
-150.1545
 20
128.0628
 30
0.0
 10
-150.1545
 20
128.0628
 30
0.0
 10
-150.1545
 20
128.0628
 30
0.0
 10
-148.6545
 20
127.2191
 30
0.0
 10
-148.6545
 20
127.2191
 30
0.0
 10
-148.6545
 20
127.2191
 30
0.0
 10
-148.6545
 20
127.2191
 30
0.0
 10
-148.6545
 20
125.5316
 30
0.0
 10
-148.6545
 20
125.5316
 30
0.0
 10
-148.6545
 20
125.5316
 30
0.0
 10
-148.6545
 20
125.5316
 30
0.0
 10
-148.6545
 20
123.8441
 30
0.0
 10
-148.6545
 20
123.8441
 30
0.0
 10
-148.6545
 20
123.8441
 30
0.0
 10
-148.6545
 20
123.8441
 30
0.0
 10
-150.1545
 20
123.0004
 30
0.0
 10
-150.1545
 20
123.0004
 30
0.0
 10
-150.1545
 20
123.0004
 30
0.0
 10
-150.1545
 20
123.0004
 30
0.0
 10
-151.6545
 20
122.1566
 30
0.0
 10
-151.6545
 20
122.1566
 30
0.0
 10
-151.6545
 20
122.1566
 30
0.0
 10
-151.6545
 20
122.1566
 30
0.0
 10
-153.1545
 20
123.0004
 30
0.0
 10
-153.1545
 20
123.0004
 30
0.0
 10
-153.1545
 20
123.0004
 30
0.0
 10
-153.1545
 20
123.0004
 30
0.0
 10
-154.6545
 20
123.8441
 30
0.0
 10
-154.6545
 20
123.8441
 30
0.0
 10
-154.6545
 20
123.8441
 30
0.0
 10
-154.6545
 20
123.8441
 30
0.0
 10
-154.6545
 20
125.5316
 30
0.0
 10
-154.6545
 20
125.5316
 30
0.0
 10
-154.6545
 20
125.5316
 30
0.0
 10
-154.6545
 20
125.5316
 30
0.0
 10
-154.6545
 20
127.2191
 30
0.0
 10
-154.6545
 20
127.2191
 30
0.0
 10
-154.6545
 20
127.2191
 30
0.0
 10
-154.6545
 20
127.2191
 30
0.0
 10
-153.1545
 20
128.0628
 30
0.0
 10
-153.1545
 20
128.0628
 30
0.0
 10
-153.1545
 20
128.0628
 30
0.0
 10
-153.1545
 20
128.0628
 30
0.0
 10
-151.6545
 20
128.9066
 30
0.0
 10
-151.6545
 20
128.9066
 30
0.0
  0
SPLINE
  5
7F
330
1F
100
AcDbEntity
  8
Capa 1
 62
   250
370
     9
100
AcDbSpline
210
0.0
220
0.0
230
1.0
 70
    11
 71
     3
 72
    52
 73
    48
 74
     0
 42
0.000000001
 43
0.0000000001
 40
0.0
 40
0.0
 40
0.0
 40
0.0
 40
0.0769230769230769
 40
0.0769230769230769
 40
0.0769230769230769
 40
0.0769230769230769
 40
0.1538461538461539
 40
0.1538461538461539
 40
0.1538461538461539
 40
0.1538461538461539
 40
0.2307692307692308
 40
0.2307692307692308
 40
0.2307692307692308
 40
0.2307692307692308
 40
0.3076923076923077
 40
0.3076923076923077
 40
0.3076923076923077
 40
0.3076923076923077
 40
0.3846153846153846
 40
0.3846153846153846
 40
0.3846153846153846
 40
0.3846153846153846
 40
0.4615384615384616
 40
0.4615384615384616
 40
0.4615384615384616
 40
0.4615384615384616
 40
0.5384615384615384
 40
0.5384615384615384
 40
0.5384615384615384
 40
0.5384615384615384
 40
0.6153846153846154
 40
0.6153846153846154
 40
0.6153846153846154
 40
0.6153846153846154
 40
0.6923076923076923
 40
0.6923076923076923
 40
0.6923076923076923
 40
0.6923076923076923
 40
0.7692307692307693
 40
0.7692307692307693
 40
0.7692307692307693
 40
0.7692307692307693
 40
0.8461538461538461
 40
0.8461538461538461
 40
0.8461538461538461
 40
0.8461538461538461
 40
1.0
 40
1.0
 40
1.0
 40
1.0
 10
80.8964
 20
189.9811
 30
0.0
 10
80.8964
 20
189.9811
 30
0.0
 10
82.3964
 20
189.1373
 30
0.0
 10
82.3964
 20
189.1373
 30
0.0
 10
82.3964
 20
189.1373
 30
0.0
 10
82.3964
 20
189.1373
 30
0.0
 10
83.8964
 20
188.2936
 30
0.0
 10
83.8964
 20
188.2936
 30
0.0
 10
83.8964
 20
188.2936
 30
0.0
 10
83.8964
 20
188.2936
 30
0.0
 10
83.8964
 20
186.6061
 30
0.0
 10
83.8964
 20
186.6061
 30
0.0
 10
83.8964
 20
186.6061
 30
0.0
 10
83.8964
 20
186.6061
 30
0.0
 10
83.8964
 20
184.9186
 30
0.0
 10
83.8964
 20
184.9186
 30
0.0
 10
83.8964
 20
184.9186
 30
0.0
 10
83.8964
 20
184.9186
 30
0.0
 10
82.3964
 20
184.0749
 30
0.0
 10
82.3964
 20
184.0749
 30
0.0
 10
82.3964
 20
184.0749
 30
0.0
 10
82.3964
 20
184.0749
 30
0.0
 10
80.8964
 20
183.2311
 30
0.0
 10
80.8964
 20
183.2311
 30
0.0
 10
80.8964
 20
183.2311
 30
0.0
 10
80.8964
 20
183.2311
 30
0.0
 10
79.3964
 20
184.0749
 30
0.0
 10
79.3964
 20
184.0749
 30
0.0
 10
79.3964
 20
184.0749
 30
0.0
 10
79.3964
 20
184.0749
 30
0.0
 10
77.8964
 20
184.9186
 30
0.0
 10
77.8964
 20
184.9186
 30
0.0
 10
77.8964
 20
184.9186
 30
0.0
 10
77.8964
 20
184.9186
 30
0.0
 10
77.8964
 20
186.6061
 30
0.0
 10
77.8964
 20
186.6061
 30
0.0
 10
77.8964
 20
186.6061
 30
0.0
 10
77.8964
 20
186.6061
 30
0.0
 10
77.8964
 20
188.2936
 30
0.0
 10
77.8964
 20
188.2936
 30
0.0
 10
77.8964
 20
188.2936
 30
0.0
 10
77.8964
 20
188.2936
 30
0.0
 10
79.3964
 20
189.1373
 30
0.0
 10
79.3964
 20
189.1373
 30
0.0
 10
79.3964
 20
189.1373
 30
0.0
 10
79.3964
 20
189.1373
 30
0.0
 10
80.8964
 20
189.9811
 30
0.0
 10
80.8964
 20
189.9811
 30
0.0
  0
SPLINE
  5
80
330
1F
100
AcDbEntity
  8
Capa 1
 62
   250
370
     9
100
AcDbSpline
210
0.0
220
0.0
230
1.0
 70
    24
 71
     3
 72
     8
 73
     4
 74
     0
 42
0.000000001
 43
0.0000000001
 40
0.0
 40
0.0
 40
0.0
 40
0.0
 40
1.0
 40
1.0
 40
1.0
 40
1.0
 10
-155.7279
 20
64.0031
 30
0.0
 10
-155.7279
 20
64.0031
 30
0.0
 10
-155.7608
 20
56.8535
 30
0.0
 10
-155.7608
 20
56.8535
 30
0.0
  0
SPLINE
  5
81
330
1F
100
AcDbEntity
  8
Capa 1
 62
   250
370
     9
100
AcDbSpline
210
0.0
220
0.0
230
1.0
 70
    24
 71
     3
 72
     8
 73
     4
 74
     0
 42
0.000000001
 43
0.0000000001
 40
0.0
 40
0.0
 40
0.0
 40
0.0
 40
1.0
 40
1.0
 40
1.0
 40
1.0
 10
-187.9023
 20
20.3917
 30
0.0
 10
-187.9023
 20
20.3917
 30
0.0
 10
-155.7608
 20
56.8535
 30
0.0
 10
-155.7608
 20
56.8535
 30
0.0
  0
ELLIPSE
  5
82
330
1F
100
AcDbEntity
  8
Capa 1
 62
   250
370
     9
100
AcDbEllipse
 10
81.6862
 20
23.1697
 30
0.0
 11
0.0
 21
1.5
 31
0.0
210
0.0
220
0.0
230
1.0
 40
1.0
 41
0.0
 42
6.283185307179586
  0
ELLIPSE
  5
83
330
1F
100
AcDbEntity
  8
Capa 1
 62
   250
370
     9
100
AcDbEllipse
 10
-173.3138
 20
23.1697
 30
0.0
 11
0.0
 21
1.5
 31
0.0
210
0.0
220
0.0
230
1.0
 40
1.0
 41
0.0
 42
6.283185307179586
  0
ELLIPSE
  5
84
330
1F
100
AcDbEntity
  8
Capa 1
 62
   250
370
     9
100
AcDbEllipse
 10
-173.3138
 20
-231.5164
 30
0.0
 11
0.0
 21
1.5
 31
0.0
210
0.0
220
0.0
230
1.0
 40
1.0
 41
0.0
 42
6.283185307179586
  0
ELLIPSE
  5
85
330
1F
100
AcDbEntity
  8
Capa 1
 62
   250
370
     9
100
AcDbEllipse
 10
81.6862
 20
-231.5164
 30
0.0
 11
0.0
 21
1.5
 31
0.0
210
0.0
220
0.0
230
1.0
 40
1.0
 41
0.0
 42
6.283185307179586
  0
ENDSEC
  0
SECTION
  2
OBJECTS
  0
DICTIONARY
  5
C
330
0
100
AcDbDictionary
281
     1
  3
ACAD_DETAILVIEWSTYLE
350
DE
  3
ACAD_GROUP
350
D
  3
ACAD_LAYOUT
350
1A
  3
ACAD_MATERIAL
350
3B
  3
ACAD_MLEADERSTYLE
350
A7
  3
ACAD_MLINESTYLE
350
17
  3
ACAD_PLOTSETTINGS
350
19
  3
ACAD_PLOTSTYLENAME
350
E
  3
ACAD_SCALELIST
350
A8
  3
ACAD_SECTIONVIEWSTYLE
350
DF
  3
ACAD_TABLESTYLE
350
A6
  3
ACAD_VISUALSTYLE
350
2A
  3
ACDB_RECOMPOSE_DATA
350
DA
  3
AcDbVariableDictionary
350
D6
  0
DICTIONARY
  5
DE
102
{ACAD_REACTORS
330
C
102
}
330
C
100
AcDbDictionary
281
     1
  0
DICTIONARY
  5
D
102
{ACAD_REACTORS
330
C
102
}
330
C
100
AcDbDictionary
281
     1
  0
DICTIONARY
  5
1A
102
{ACAD_REACTORS
330
C
102
}
330
C
100
AcDbDictionary
281
     1
  3
Layout1
350
1E
  3
Layout2
350
26
  3
Model
350
22
  0
DICTIONARY
  5
3B
102
{ACAD_REACTORS
330
C
102
}
330
C
100
AcDbDictionary
281
     1
  3
ByBlock
350
3D
  3
ByLayer
350
3C
  3
Global
350
3E
  0
DICTIONARY
  5
A7
102
{ACAD_REACTORS
330
C
102
}
330
C
100
AcDbDictionary
281
     1
  3
Standard
350
D5
  0
DICTIONARY
  5
17
102
{ACAD_REACTORS
330
C
102
}
330
C
100
AcDbDictionary
281
     1
  3
Standard
350
18
  0
DICTIONARY
  5
19
102
{ACAD_REACTORS
330
C
102
}
330
C
100
AcDbDictionary
281
     1
  0
ACDBDICTIONARYWDFLT
  5
E
102
{ACAD_REACTORS
330
C
102
}
330
C
100
AcDbDictionary
281
     1
  3
Normal
350
F
100
AcDbDictionaryWithDefault
340
F
  0
DICTIONARY
  5
A8
102
{ACAD_REACTORS
330
C
102
}
330
C
100
AcDbDictionary
281
     1
  3
A0
350
A9
  3
A1
350
AA
  3
A2
350
AB
  3
A3
350
AC
  3
A4
350
AD
  3
A5
350
AE
  3
A6
350
AF
  3
A7
350
B0
  3
A8
350
B1
  3
A9
350
B2
  3
B0
350
B3
  3
B1
350
B4
  3
B2
350
B5
  3
B3
350
B6
  3
B4
350
B7
  3
B5
350
B8
  3
B6
350
B9
  3
B7
350
BA
  3
B8
350
BB
  3
B9
350
BC
  3
C0
350
BD
  3
C1
350
BE
  3
C2
350
BF
  3
C3
350
C0
  3
C4
350
C1
  3
C5
350
C2
  3
C6
350
C3
  3
C7
350
C4
  3
C8
350
C5
  3
C9
350
C6
  3
D0
350
C7
  3
D1
350
C8
  3
D2
350
C9
  0
DICTIONARY
  5
DF
102
{ACAD_REACTORS
330
C
102
}
330
C
100
AcDbDictionary
281
     1
  0
DICTIONARY
  5
A6
102
{ACAD_REACTORS
330
C
102
}
330
C
100
AcDbDictionary
281
     1
  3
Standard
350
D4
  0
DICTIONARY
  5
2A
102
{ACAD_REACTORS
330
C
102
}
330
C
100
AcDbDictionary
281
     1
  3
2dWireframe
350
2F
  3
3D Hidden
350
31
  3
3dWireframe
350
30
  3
Basic
350
32
  3
Brighten
350
36
  3
ColorChange
350
3A
  3
Conceptual
350
34
  3
Dim
350
35
  3
EdgeColorOff
350
CE
  3
Facepattern
350
39
  3
Flat
350
2B
  3
FlatWithEdges
350
2C
  3
Gouraud
350
2D
  3
GouraudWithEdges
350
2E
  3
Hidden
350
CB
  3
JitterOff
350
CC
  3
Linepattern
350
38
  3
OverhangOff
350
CD
  3
Realistic
350
33
  3
Shaded
350
D3
  3
Shaded with edges
350
D2
  3
Shades of Gray
350
CF
  3
Sketchy
350
D0
  3
Thicken
350
37
  3
Wireframe
350
CA
  3
X-Ray
350
D1
  0
XRECORD
  5
DA
102
{ACAD_REACTORS
330
C
102
}
330
C
100
AcDbXrecord
280
     1
 90
        1
330
D4
  0
DICTIONARY
  5
D6
102
{ACAD_REACTORS
330
C
102
}
330
C
100
AcDbDictionary
281
     1
  3
CANNOSCALE
350
D7
  3
CMLEADERSTYLE
350
DC
  3
CTABLESTYLE
350
DB
  3
XCLIPFRAME
350
DD
  0
LAYOUT
  5
1E
102
{ACAD_REACTORS
330
1A
102
}
330
1A
100
AcDbPlotSettings
  1

  2
none_device
  4

  6

 40
0.0
 41
0.0
 42
0.0
 43
0.0
 44
0.0
 45
0.0
 46
0.0
 47
0.0
 48
0.0
 49
0.0
140
0.0
141
0.0
142
1.0
143
1.0
 70
   688
 72
     0
 73
     0
 74
     5
  7

 75
    16
 76
     0
 77
     2
 78
   300
147
1.0
148
0.0
149
0.0
100
AcDbLayout
  1
Layout1
 70
     1
 71
     1
 10
0.0
 20
0.0
 11
12.0
 21
9.0
 12
0.0
 22
0.0
 32
0.0
 14
1.000000000000000E+20
 24
1.000000000000000E+20
 34
1.000000000000000E+20
 15
-1.000000000000000E+20
 25
-1.000000000000000E+20
 35
-1.000000000000000E+20
146
0.0
 13
0.0
 23
0.0
 33
0.0
 16
1.0
 26
0.0
 36
0.0
 17
0.0
 27
1.0
 37
0.0
 76
     0
330
1B
  0
LAYOUT
  5
26
102
{ACAD_REACTORS
330
1A
102
}
330
1A
100
AcDbPlotSettings
  1

  2
none_device
  4

  6

 40
0.0
 41
0.0
 42
0.0
 43
0.0
 44
0.0
 45
0.0
 46
0.0
 47
0.0
 48
0.0
 49
0.0
140
0.0
141
0.0
142
1.0
143
1.0
 70
   688
 72
     0
 73
     0
 74
     5
  7

 75
    16
 76
     0
 77
     2
 78
   300
147
1.0
148
0.0
149
0.0
100
AcDbLayout
  1
Layout2
 70
     1
 71
     2
 10
0.0
 20
0.0
 11
0.0
 21
0.0
 12
0.0
 22
0.0
 32
0.0
 14
0.0
 24
0.0
 34
0.0
 15
0.0
 25
0.0
 35
0.0
146
0.0
 13
0.0
 23
0.0
 33
0.0
 16
1.0
 26
0.0
 36
0.0
 17
0.0
 27
1.0
 37
0.0
 76
     0
330
23
  0
LAYOUT
  5
22
102
{ACAD_REACTORS
330
1A
102
}
330
1A
100
AcDbPlotSettings
  1

  2
none_device
  4

  6

 40
0.0
 41
0.0
 42
0.0
 43
0.0
 44
0.0
 45
0.0
 46
0.0
 47
0.0
 48
0.0
 49
0.0
140
0.0
141
0.0
142
1.0
143
1.0
 70
  1712
 72
     0
 73
     0
 74
     0
  7

 75
     0
 76
     0
 77
     2
 78
   300
147
1.0
148
0.0
149
0.0
100
AcDbLayout
  1
Model
 70
     1
 71
     0
 10
0.0
 20
0.0
 11
12.0
 21
9.0
 12
0.0
 22
0.0
 32
0.0
 14
-191.765
 24
-238.6625
 34
0.0
 15
121.0063
 25
209.2061
 35
0.0
146
0.0
 13
0.0
 23
0.0
 33
0.0
 16
1.0
 26
0.0
 36
0.0
 17
0.0
 27
1.0
 37
0.0
 76
     0
330
1F
331
29
  0
MATERIAL
  5
3D
102
{ACAD_REACTORS
330
3B
102
}
330
3B
100
AcDbMaterial
  1
ByBlock
 72
     1
 94
      127
  0
MATERIAL
  5
3C
102
{ACAD_REACTORS
330
3B
102
}
330
3B
100
AcDbMaterial
  1
ByLayer
 72
     1
 94
      127
  0
MATERIAL
  5
3E
102
{ACAD_REACTORS
330
3B
102
}
330
3B
100
AcDbMaterial
  1
Global
 72
     1
 94
      127
  0
MLEADERSTYLE
  5
D5
102
{ACAD_REACTORS
330
A7
102
}
330
A7
100
AcDbMLeaderStyle
179
     2
170
     2
171
     1
172
     0
 90
        2
 40
0.0
 41
0.0
173
     1
 91
-1056964608
340
14
 92
       -2
290
     1
 42
0.09
291
     1
 43
0.36
  3
Standard
341
0
 44
0.18
300

342
11
174
     1
178
     6
175
     1
176
     0
 93
-1056964608
 45
0.18
292
     0
297
     0
 46
0.18
343
0
 94
-1056964608
 47
1.0
 49
1.0
140
1.0
293
     1
141
0.0
294
     1
177
     0
142
1.0
295
     0
296
     0
143
0.125
271
     0
272
     9
273
     9
298
     0
  0
MLINESTYLE
  5
18
102
{ACAD_REACTORS
330
17
102
}
330
17
100
AcDbMlineStyle
  2
Standard
 70
     0
  3

 62
   256
 51
90.0
 52
90.0
 71
     2
 49
0.5
 62
   256
  6
BYLAYER
 49
-0.5
 62
   256
  6
BYLAYER
  0
ACDBPLACEHOLDER
  5
F
102
{ACAD_REACTORS
330
E
102
}
330
E
  0
SCALE
  5
A9
102
{ACAD_REACTORS
330
A8
102
}
330
A8
100
AcDbScale
 70
     0
300
1:1
140
1.0
141
1.0
290
     1
  0
SCALE
  5
AA
102
{ACAD_REACTORS
330
A8
102
}
330
A8
100
AcDbScale
 70
     0
300
1:2
140
1.0
141
2.0
290
     0
  0
SCALE
  5
AB
102
{ACAD_REACTORS
330
A8
102
}
330
A8
100
AcDbScale
 70
     0
300
1:4
140
1.0
141
4.0
290
     0
  0
SCALE
  5
AC
102
{ACAD_REACTORS
330
A8
102
}
330
A8
100
AcDbScale
 70
     0
300
1:5
140
1.0
141
5.0
290
     0
  0
SCALE
  5
AD
102
{ACAD_REACTORS
330
A8
102
}
330
A8
100
AcDbScale
 70
     0
300
1:8
140
1.0
141
8.0
290
     0
  0
SCALE
  5
AE
102
{ACAD_REACTORS
330
A8
102
}
330
A8
100
AcDbScale
 70
     0
300
1:10
140
1.0
141
10.0
290
     0
  0
SCALE
  5
AF
102
{ACAD_REACTORS
330
A8
102
}
330
A8
100
AcDbScale
 70
     0
300
1:16
140
1.0
141
16.0
290
     0
  0
SCALE
  5
B0
102
{ACAD_REACTORS
330
A8
102
}
330
A8
100
AcDbScale
 70
     0
300
1:20
140
1.0
141
20.0
290
     0
  0
SCALE
  5
B1
102
{ACAD_REACTORS
330
A8
102
}
330
A8
100
AcDbScale
 70
     0
300
1:30
140
1.0
141
30.0
290
     0
  0
SCALE
  5
B2
102
{ACAD_REACTORS
330
A8
102
}
330
A8
100
AcDbScale
 70
     0
300
1:40
140
1.0
141
40.0
290
     0
  0
SCALE
  5
B3
102
{ACAD_REACTORS
330
A8
102
}
330
A8
100
AcDbScale
 70
     0
300
1:50
140
1.0
141
50.0
290
     0
  0
SCALE
  5
B4
102
{ACAD_REACTORS
330
A8
102
}
330
A8
100
AcDbScale
 70
     0
300
1:100
140
1.0
141
100.0
290
     0
  0
SCALE
  5
B5
102
{ACAD_REACTORS
330
A8
102
}
330
A8
100
AcDbScale
 70
     0
300
2:1
140
2.0
141
1.0
290
     0
  0
SCALE
  5
B6
102
{ACAD_REACTORS
330
A8
102
}
330
A8
100
AcDbScale
 70
     0
300
4:1
140
4.0
141
1.0
290
     0
  0
SCALE
  5
B7
102
{ACAD_REACTORS
330
A8
102
}
330
A8
100
AcDbScale
 70
     0
300
8:1
140
8.0
141
1.0
290
     0
  0
SCALE
  5
B8
102
{ACAD_REACTORS
330
A8
102
}
330
A8
100
AcDbScale
 70
     0
300
10:1
140
10.0
141
1.0
290
     0
  0
SCALE
  5
B9
102
{ACAD_REACTORS
330
A8
102
}
330
A8
100
AcDbScale
 70
     0
300
100:1
140
100.0
141
1.0
290
     0
  0
SCALE
  5
BA
102
{ACAD_REACTORS
330
A8
102
}
330
A8
100
AcDbScale
 70
     0
300
1/128" = 1'-0"
140
0.0078125
141
12.0
290
     0
  0
SCALE
  5
BB
102
{ACAD_REACTORS
330
A8
102
}
330
A8
100
AcDbScale
 70
     0
300
1/64" = 1'-0"
140
0.015625
141
12.0
290
     0
  0
SCALE
  5
BC
102
{ACAD_REACTORS
330
A8
102
}
330
A8
100
AcDbScale
 70
     0
300
1/32" = 1'-0"
140
0.03125
141
12.0
290
     0
  0
SCALE
  5
BD
102
{ACAD_REACTORS
330
A8
102
}
330
A8
100
AcDbScale
 70
     0
300
1/16" = 1'-0"
140
0.0625
141
12.0
290
     0
  0
SCALE
  5
BE
102
{ACAD_REACTORS
330
A8
102
}
330
A8
100
AcDbScale
 70
     0
300
3/32" = 1'-0"
140
0.09375
141
12.0
290
     0
  0
SCALE
  5
BF
102
{ACAD_REACTORS
330
A8
102
}
330
A8
100
AcDbScale
 70
     0
300
1/8" = 1'-0"
140
0.125
141
12.0
290
     0
  0
SCALE
  5
C0
102
{ACAD_REACTORS
330
A8
102
}
330
A8
100
AcDbScale
 70
     0
300
3/16" = 1'-0"
140
0.1875
141
12.0
290
     0
  0
SCALE
  5
C1
102
{ACAD_REACTORS
330
A8
102
}
330
A8
100
AcDbScale
 70
     0
300
1/4" = 1'-0"
140
0.25
141
12.0
290
     0
  0
SCALE
  5
C2
102
{ACAD_REACTORS
330
A8
102
}
330
A8
100
AcDbScale
 70
     0
300
3/8" = 1'-0"
140
0.375
141
12.0
290
     0
  0
SCALE
  5
C3
102
{ACAD_REACTORS
330
A8
102
}
330
A8
100
AcDbScale
 70
     0
300
1/2" = 1'-0"
140
0.5
141
12.0
290
     0
  0
SCALE
  5
C4
102
{ACAD_REACTORS
330
A8
102
}
330
A8
100
AcDbScale
 70
     0
300
3/4" = 1'-0"
140
0.75
141
12.0
290
     0
  0
SCALE
  5
C5
102
{ACAD_REACTORS
330
A8
102
}
330
A8
100
AcDbScale
 70
     0
300
1" = 1'-0"
140
1.0
141
12.0
290
     0
  0
SCALE
  5
C6
102
{ACAD_REACTORS
330
A8
102
}
330
A8
100
AcDbScale
 70
     0
300
1-1/2" = 1'-0"
140
1.5
141
12.0
290
     0
  0
SCALE
  5
C7
102
{ACAD_REACTORS
330
A8
102
}
330
A8
100
AcDbScale
 70
     0
300
3" = 1'-0"
140
3.0
141
12.0
290
     0
  0
SCALE
  5
C8
102
{ACAD_REACTORS
330
A8
102
}
330
A8
100
AcDbScale
 70
     0
300
6" = 1'-0"
140
6.0
141
12.0
290
     0
  0
SCALE
  5
C9
102
{ACAD_REACTORS
330
A8
102
}
330
A8
100
AcDbScale
 70
     0
300
1'-0" = 1'-0"
140
12.0
141
12.0
290
     0
  0
TABLESTYLE
  5
D4
102
{ACAD_REACTORS
330
A6
102
}
102
{ACAD_XDICTIONARY
360
D8
102
}
330
A6
100
AcDbTableStyle
  3
Standard
 70
     0
 71
     0
 40
0.06
 41
0.06
280
     0
281
     0
  7
Standard
140
0.18
170
     2
 62
     0
 63
   257
283
     0
 90
        4
 91
        0
  1

274
    -2
284
     1
 64
     0
275
    -2
285
     1
 65
     0
276
    -2
286
     1
 66
     0
277
    -2
287
     1
 67
     0
278
    -2
288
     1
 68
     0
279
    -2
289
     1
 69
     0
  7
Standard
140
0.25
170
     5
 62
     0
 63
   257
283
     0
 90
        4
 91
        0
  1

274
    -2
284
     1
 64
     0
275
    -2
285
     1
 65
     0
276
    -2
286
     1
 66
     0
277
    -2
287
     1
 67
     0
278
    -2
288
     1
 68
     0
279
    -2
289
     1
 69
     0
  7
Standard
140
0.18
170
     5
 62
     0
 63
   257
283
     0
 90
        4
 91
        0
  1

274
    -2
284
     1
 64
     0
275
    -2
285
     1
 65
     0
276
    -2
286
     1
 66
     0
277
    -2
287
     1
 67
     0
278
    -2
288
     1
 68
     0
279
    -2
289
     1
 69
     0
  0
VISUALSTYLE
  5
2F
102
{ACAD_REACTORS
330
2A
102
}
330
2A
100
AcDbVisualStyle
  2
2dWireframe
 70
     4
177
     3
291
     0
 70
    58
 90
        0
176
     1
 90
        2
176
     1
 90
        0
176
     1
 90
        0
176
     1
 40
-0.6
176
     1
 40
-30.0
176
     1
 62
     7
420
 16777215
176
     1
 90
        1
176
     1
 90
        4
176
     1
 62
     7
176
     1
 62
   257
176
     1
 90
        1
176
     1
 90
        1
176
     1
 40
1.0
176
     1
 90
        0
176
     1
 62
   257
176
     1
 40
1.0
176
     1
 90
        1
176
     1
 90
        6
176
     1
 90
        2
176
     1
 62
     7
176
     1
 90
        5
176
     1
 90
        0
176
     1
 90
        0
176
     1
290
     0
176
     1
 90
        1
176
     1
 40
0.0
176
     1
 90
        0
176
     1
290
     1
176
     1
290
     1
176
     1
290
     0
176
     1
290
     0
176
     1
290
     0
176
     1
290
     0
176
     1
290
     0
176
     1
290
     0
176
     1
290
     0
176
     1
 90
       50
176
     1
 40
0.0
176
     1
 40
1.0
176
     1
 90
        0
176
     1
 62
   178
420
        0
176
     1
 90
       50
176
     1
 90
        3
176
     1
 62
     5
420
      255
176
     1
290
     0
176
     1
 90
       50
176
     1
 90
       50
176
     1
 90
       50
176
     1
290
     0
176
     1
 90
       50
176
     1
 62
   256
176
     0
 40
1.0
176
     0
 90
        2
176
     1
  1
strokes_ogs.tif
176
     1
290
     0
176
     1
 40
1.0
176
     1
 40
1.0
176
     1
  0
VISUALSTYLE
  5
31
102
{ACAD_REACTORS
330
2A
102
}
330
2A
100
AcDbVisualStyle
  2
3D Hidden
 70
     6
177
     3
291
     0
 70
    58
 90
        1
176
     1
 90
        2
176
     1
 90
        2
176
     1
 90
        0
176
     1
 40
-0.6
176
     1
 40
-30.0
176
     1
 62
     7
420
 16777215
176
     1
 90
        2
176
     1
 90
        2
176
     1
 62
     7
176
     1
 62
   257
176
     1
 90
        2
176
     1
 90
        1
176
     1
 40
40.0
176
     1
 90
        0
176
     1
 62
   257
176
     1
 40
1.0
176
     1
 90
        1
176
     1
 90
        6
176
     1
 90
        2
176
     1
 62
     7
176
     1
 90
        3
176
     1
 90
        0
176
     1
 90
        0
176
     1
290
     0
176
     1
 90
        1
176
     1
 40
0.0
176
     1
 90
        0
176
     1
290
     0
176
     1
290
     1
176
     1
290
     1
176
     1
290
     0
176
     1
290
     0
176
     1
290
     0
176
     1
290
     0
176
     1
290
     0
176
     1
290
     0
176
     1
 90
       50
176
     1
 40
0.0
176
     1
 40
1.0
176
     1
 90
        0
176
     1
 62
   178
420
        0
176
     1
 90
       50
176
     1
 90
        3
176
     1
 62
     5
420
      255
176
     1
290
     0
176
     1
 90
       50
176
     1
 90
       50
176
     1
 90
       50
176
     1
290
     0
176
     1
 90
       50
176
     1
 62
   256
176
     0
 40
1.0
176
     0
 90
        2
176
     1
  1
strokes_ogs.tif
176
     1
290
     0
176
     1
 40
1.0
176
     1
 40
1.0
176
     1
  0
VISUALSTYLE
  5
30
102
{ACAD_REACTORS
330
2A
102
}
330
2A
100
AcDbVisualStyle
  2
3dWireframe
 70
     5
177
     3
291
     0
 70
    58
 90
        0
176
     1
 90
        2
176
     1
 90
        0
176
     1
 90
        0
176
     1
 40
-0.6
176
     1
 40
-30.0
176
     1
 62
     7
420
 16777215
176
     1
 90
        1
176
     1
 90
        4
176
     1
 62
     7
176
     1
 62
   257
176
     1
 90
        1
176
     1
 90
        1
176
     1
 40
1.0
176
     1
 90
        0
176
     1
 62
   257
176
     1
 40
1.0
176
     1
 90
        1
176
     1
 90
        6
176
     1
 90
        2
176
     1
 62
     7
176
     1
 90
        5
176
     1
 90
        0
176
     1
 90
        0
176
     1
290
     0
176
     1
 90
        1
176
     1
 40
0.0
176
     1
 90
        0
176
     1
290
     0
176
     1
290
     1
176
     1
290
     1
176
     1
290
     0
176
     1
290
     0
176
     1
290
     0
176
     1
290
     0
176
     1
290
     0
176
     1
290
     0
176
     1
 90
       50
176
     1
 40
0.0
176
     1
 40
1.0
176
     1
 90
        0
176
     1
 62
   178
420
        0
176
     1
 90
       50
176
     1
 90
        3
176
     1
 62
     5
420
      255
176
     1
290
     0
176
     1
 90
       50
176
     1
 90
       50
176
     1
 90
       50
176
     1
290
     0
176
     1
 90
       50
176
     1
 62
   256
176
     0
 40
1.0
176
     0
 90
        2
176
     1
  1
strokes_ogs.tif
176
     1
290
     0
176
     1
 40
1.0
176
     1
 40
1.0
176
     1
  0
VISUALSTYLE
  5
32
102
{ACAD_REACTORS
330
2A
102
}
330
2A
100
AcDbVisualStyle
  2
Basic
 70
     7
177
     3
291
     1
 70
    58
 90
        1
176
     1
 90
        0
176
     1
 90
        1
176
     1
 90
        0
176
     1
 40
-0.6
176
     1
 40
-30.0
176
     1
 62
     7
420
 16777215
176
     1
 90
        0
176
     1
 90
        4
176
     1
 62
     7
176
     1
 62
   257
176
     1
 90
        1
176
     1
 90
        1
176
     1
 40
1.0
176
     1
 90
        8
176
     1
 62
     7
176
     1
 40
1.0
176
     1
 90
        1
176
     1
 90
        6
176
     1
 90
        2
176
     1
 62
     7
176
     1
 90
        5
176
     1
 90
        0
176
     1
 90
        0
176
     1
290
     0
176
     1
 90
        1
176
     1
 40
0.0
176
     1
 90
        0
176
     1
290
     0
176
     1
290
     1
176
     1
290
     1
176
     1
290
     0
176
     1
290
     0
176
     1
290
     0
176
     1
290
     0
176
     1
290
     0
176
     1
290
     0
176
     1
 90
       50
176
     1
 40
0.0
176
     1
 40
1.0
176
     1
 90
        0
176
     1
 62
   178
420
        0
176
     1
 90
       50
176
     1
 90
        3
176
     1
 62
     5
420
      255
176
     1
290
     0
176
     1
 90
       50
176
     1
 90
       50
176
     1
 90
       50
176
     1
290
     0
176
     1
 90
       50
176
     1
 62
   256
176
     0
 40
1.0
176
     0
 90
        2
176
     1
  1
strokes_ogs.tif
176
     1
290
     0
176
     1
 40
1.0
176
     1
 40
1.0
176
     1
  0
VISUALSTYLE
  5
36
102
{ACAD_REACTORS
330
2A
102
}
330
2A
100
AcDbVisualStyle
  2
Brighten
 70
    12
177
     3
291
     1
 70
    58
 90
        2
176
     1
 90
        2
176
     1
 90
        0
176
     1
 90
        0
176
     1
 40
-0.6
176
     1
 40
-30.0
176
     1
 62
     7
420
 16777215
176
     1
 90
        1
176
     1
 90
        4
176
     1
 62
     7
176
     1
 62
   257
176
     1
 90
        1
176
     1
 90
        1
176
     1
 40
1.0
176
     1
 90
        8
176
     1
 62
     7
176
     1
 40
1.0
176
     1
 90
        1
176
     1
 90
        6
176
     1
 90
        2
176
     1
 62
     7
176
     1
 90
        5
176
     1
 90
        0
176
     1
 90
        0
176
     1
290
     0
176
     1
 90
        1
176
     1
 40
50.0
176
     1
 90
        0
176
     1
290
     0
176
     1
290
     1
176
     1
290
     1
176
     1
290
     0
176
     1
290
     0
176
     1
290
     0
176
     1
290
     0
176
     1
290
     0
176
     1
290
     0
176
     1
 90
       50
176
     1
 40
0.0
176
     1
 40
1.0
176
     1
 90
        0
176
     1
 62
   178
420
        0
176
     1
 90
       50
176
     1
 90
        3
176
     1
 62
     5
420
      255
176
     1
290
     0
176
     1
 90
       50
176
     1
 90
       50
176
     1
 90
       50
176
     1
290
     0
176
     1
 90
       50
176
     1
 62
   256
176
     0
 40
1.0
176
     0
 90
        2
176
     1
  1
strokes_ogs.tif
176
     1
290
     0
176
     1
 40
1.0
176
     1
 40
1.0
176
     1
  0
VISUALSTYLE
  5
3A
102
{ACAD_REACTORS
330
2A
102
}
330
2A
100
AcDbVisualStyle
  2
ColorChange
 70
    16
177
     3
291
     1
 70
    58
 90
        2
176
     1
 90
        2
176
     1
 90
        3
176
     1
 90
        0
176
     1
 40
-0.6
176
     1
 40
-30.0
176
     1
 62
     8
420
  8421504
176
     1
 90
        1
176
     1
 90
        4
176
     1
 62
     7
176
     1
 62
   257
176
     1
 90
        1
176
     1
 90
        1
176
     1
 40
1.0
176
     1
 90
        8
176
     1
 62
     8
420
  8421504
176
     1
 40
1.0
176
     1
 90
        1
176
     1
 90
        6
176
     1
 90
        2
176
     1
 62
     7
176
     1
 90
        5
176
     1
 90
        0
176
     1
 90
        0
176
     1
290
     0
176
     1
 90
        1
176
     1
 40
0.0
176
     1
 90
        0
176
     1
290
     0
176
     1
290
     1
176
     1
290
     1
176
     1
290
     0
176
     1
290
     0
176
     1
290
     0
176
     1
290
     0
176
     1
290
     0
176
     1
290
     0
176
     1
 90
       50
176
     1
 40
0.0
176
     1
 40
1.0
176
     1
 90
        0
176
     1
 62
   178
420
        0
176
     1
 90
       50
176
     1
 90
        3
176
     1
 62
     5
420
      255
176
     1
290
     0
176
     1
 90
       50
176
     1
 90
       50
176
     1
 90
       50
176
     1
290
     0
176
     1
 90
       50
176
     1
 62
   256
176
     0
 40
1.0
176
     0
 90
        2
176
     1
  1
strokes_ogs.tif
176
     1
290
     0
176
     1
 40
1.0
176
     1
 40
1.0
176
     1
  0
VISUALSTYLE
  5
34
102
{ACAD_REACTORS
330
2A
102
}
330
2A
100
AcDbVisualStyle
  2
Conceptual
 70
     9
177
     3
291
     0
 70
    58
 90
        3
176
     1
 90
        2
176
     1
 90
        0
176
     1
 90
        0
176
     1
 40
-0.6
176
     1
 40
-30.0
176
     1
 62
     7
420
 16777215
176
     1
 90
        2
176
     1
 90
        2
176
     1
 62
     7
176
     1
 62
   257
176
     1
 90
        1
176
     1
 90
        1
176
     1
 40
40.0
176
     1
 90
        8
176
     1
 62
     7
176
     1
 40
1.0
176
     1
 90
        1
176
     1
 90
        6
176
     1
 90
        2
176
     1
 62
     7
176
     1
 90
        3
176
     1
 90
        0
176
     1
 90
        0
176
     1
290
     0
176
     1
 90
        1
176
     1
 40
0.0
176
     1
 90
        0
176
     1
290
     0
176
     1
290
     1
176
     1
290
     1
176
     1
290
     0
176
     1
290
     0
176
     1
290
     0
176
     1
290
     0
176
     1
290
     0
176
     1
290
     0
176
     1
 90
       50
176
     1
 40
0.0
176
     1
 40
1.0
176
     1
 90
        0
176
     1
 62
   178
420
        0
176
     1
 90
       50
176
     1
 90
        3
176
     1
 62
     5
420
      255
176
     1
290
     0
176
     1
 90
       50
176
     1
 90
       50
176
     1
 90
       50
176
     1
290
     0
176
     1
 90
       50
176
     1
 62
   256
176
     0
 40
1.0
176
     0
 90
        2
176
     1
  1
strokes_ogs.tif
176
     1
290
     0
176
     1
 40
1.0
176
     1
 40
1.0
176
     1
  0
VISUALSTYLE
  5
35
102
{ACAD_REACTORS
330
2A
102
}
330
2A
100
AcDbVisualStyle
  2
Dim
 70
    11
177
     3
291
     1
 70
    58
 90
        2
176
     1
 90
        2
176
     1
 90
        0
176
     1
 90
        0
176
     1
 40
-0.6
176
     1
 40
-30.0
176
     1
 62
     7
420
 16777215
176
     1
 90
        1
176
     1
 90
        4
176
     1
 62
     7
176
     1
 62
   257
176
     1
 90
        1
176
     1
 90
        1
176
     1
 40
1.0
176
     1
 90
        8
176
     1
 62
     7
176
     1
 40
1.0
176
     1
 90
        1
176
     1
 90
        6
176
     1
 90
        2
176
     1
 62
     7
176
     1
 90
        5
176
     1
 90
        0
176
     1
 90
        0
176
     1
290
     0
176
     1
 90
        1
176
     1
 40
-50.0
176
     1
 90
        0
176
     1
290
     0
176
     1
290
     1
176
     1
290
     1
176
     1
290
     0
176
     1
290
     0
176
     1
290
     0
176
     1
290
     0
176
     1
290
     0
176
     1
290
     0
176
     1
 90
       50
176
     1
 40
0.0
176
     1
 40
1.0
176
     1
 90
        0
176
     1
 62
   178
420
        0
176
     1
 90
       50
176
     1
 90
        3
176
     1
 62
     5
420
      255
176
     1
290
     0
176
     1
 90
       50
176
     1
 90
       50
176
     1
 90
       50
176
     1
290
     0
176
     1
 90
       50
176
     1
 62
   256
176
     0
 40
1.0
176
     0
 90
        2
176
     1
  1
strokes_ogs.tif
176
     1
290
     0
176
     1
 40
1.0
176
     1
 40
1.0
176
     1
  0
VISUALSTYLE
  5
CE
102
{ACAD_REACTORS
330
2A
102
}
330
2A
100
AcDbVisualStyle
  2
EdgeColorOff
 70
    22
177
     3
291
     1
 70
    58
 90
        2
176
     0
 90
        2
176
     0
 90
        0
176
     0
 90
        0
176
     0
 40
0.6
176
     0
 40
30.0
176
     0
 62
     7
420
 16777215
176
     0
 90
        1
176
     0
 90
        4
176
     0
 62
     7
176
     0
 62
   257
176
     0
 90
        1
176
     0
 90
        1
176
     0
 40
1.0
176
     0
 90
        8
176
     2
 62
     7
176
     0
 40
1.0
176
     0
 90
        1
176
     0
 90
        6
176
     0
 90
        2
176
     0
 62
     7
176
     0
 90
        5
176
     0
 90
        0
176
     0
 90
        0
176
     0
290
     0
176
     0
 90
        1
176
     0
 40
0.0
176
     0
 90
        0
176
     0
290
     0
176
     0
290
     1
176
     0
290
     1
176
     0
290
     0
176
     0
290
     0
176
     0
290
     0
176
     0
290
     0
176
     0
290
     0
176
     0
290
     0
176
     0
 90
       50
176
     0
 40
0.0
176
     0
 40
1.0
176
     0
 90
        0
176
     0
 62
   178
420
        0
176
     0
 90
       50
176
     0
 90
        3
176
     0
 62
     5
420
      255
176
     0
290
     0
176
     0
 90
       50
176
     0
 90
       50
176
     0
 90
       50
176
     0
290
     0
176
     0
 90
       50
176
     0
 62
   256
176
     0
 40
1.0
176
     0
 90
        2
176
     0
  1
strokes_ogs.tif
176
     0
290
     0
176
     0
 40
1.0
176
     0
 40
1.0
176
     0
  0
VISUALSTYLE
  5
39
102
{ACAD_REACTORS
330
2A
102
}
330
2A
100
AcDbVisualStyle
  2
Facepattern
 70
    15
177
     3
291
     1
 70
    58
 90
        2
176
     1
 90
        2
176
     1
 90
        0
176
     1
 90
        0
176
     1
 40
-0.6
176
     1
 40
-30.0
176
     1
 62
     7
420
 16777215
176
     1
 90
        1
176
     1
 90
        4
176
     1
 62
     7
176
     1
 62
   257
176
     1
 90
        1
176
     1
 90
        1
176
     1
 40
1.0
176
     1
 90
        8
176
     1
 62
     7
176
     1
 40
1.0
176
     1
 90
        1
176
     1
 90
        6
176
     1
 90
        2
176
     1
 62
     7
176
     1
 90
        5
176
     1
 90
        0
176
     1
 90
        0
176
     1
290
     0
176
     1
 90
        1
176
     1
 40
0.0
176
     1
 90
        0
176
     1
290
     0
176
     1
290
     1
176
     1
290
     1
176
     1
290
     0
176
     1
290
     0
176
     1
290
     0
176
     1
290
     0
176
     1
290
     0
176
     1
290
     0
176
     1
 90
       50
176
     1
 40
0.0
176
     1
 40
1.0
176
     1
 90
        0
176
     1
 62
   178
420
        0
176
     1
 90
       50
176
     1
 90
        3
176
     1
 62
     5
420
      255
176
     1
290
     0
176
     1
 90
       50
176
     1
 90
       50
176
     1
 90
       50
176
     1
290
     0
176
     1
 90
       50
176
     1
 62
   256
176
     0
 40
1.0
176
     0
 90
        2
176
     1
  1
strokes_ogs.tif
176
     1
290
     0
176
     1
 40
1.0
176
     1
 40
1.0
176
     1
  0
VISUALSTYLE
  5
2B
102
{ACAD_REACTORS
330
2A
102
}
330
2A
100
AcDbVisualStyle
  2
Flat
 70
     0
177
     3
291
     1
 70
    58
 90
        2
176
     1
 90
        1
176
     1
 90
        1
176
     1
 90
        2
176
     1
 40
-0.6
176
     1
 40
30.0
176
     1
 62
     7
420
 16777215
176
     1
 90
        0
176
     1
 90
        4
176
     1
 62
     7
176
     1
 62
   257
176
     1
 90
        1
176
     1
 90
        1
176
     1
 40
1.0
176
     1
 90
        8
176
     1
 62
     7
176
     1
 40
1.0
176
     1
 90
        1
176
     1
 90
        6
176
     1
 90
        2
176
     1
 62
     7
176
     1
 90
        5
176
     1
 90
        0
176
     1
 90
        0
176
     1
290
     0
176
     1
 90
       13
176
     1
 40
0.0
176
     1
 90
        0
176
     1
290
     0
176
     1
290
     1
176
     1
290
     1
176
     1
290
     0
176
     1
290
     0
176
     1
290
     0
176
     1
290
     0
176
     1
290
     0
176
     1
290
     0
176
     1
 90
       50
176
     1
 40
0.0
176
     1
 40
1.0
176
     1
 90
        0
176
     1
 62
   178
420
        0
176
     1
 90
       50
176
     1
 90
        3
176
     1
 62
     5
420
      255
176
     1
290
     0
176
     1
 90
       50
176
     1
 90
       50
176
     1
 90
       50
176
     1
290
     0
176
     1
 90
       50
176
     1
 62
   256
176
     0
 40
1.0
176
     0
 90
        2
176
     1
  1
strokes_ogs.tif
176
     1
290
     0
176
     1
 40
1.0
176
     1
 40
1.0
176
     1
  0
VISUALSTYLE
  5
2C
102
{ACAD_REACTORS
330
2A
102
}
330
2A
100
AcDbVisualStyle
  2
FlatWithEdges
 70
     1
177
     3
291
     1
 70
    58
 90
        2
176
     1
 90
        1
176
     1
 90
        1
176
     1
 90
        2
176
     1
 40
-0.6
176
     1
 40
30.0
176
     1
 62
     7
420
 16777215
176
     1
 90
        1
176
     1
 90
        4
176
     1
 62
     7
176
     1
 62
   257
176
     1
 90
        1
176
     1
 90
        1
176
     1
 40
1.0
176
     1
 90
        0
176
     1
 62
   257
176
     1
 40
1.0
176
     1
 90
        1
176
     1
 90
        6
176
     1
 90
        2
176
     1
 62
     7
176
     1
 90
        5
176
     1
 90
        0
176
     1
 90
        0
176
     1
290
     0
176
     1
 90
       13
176
     1
 40
0.0
176
     1
 90
        0
176
     1
290
     0
176
     1
290
     1
176
     1
290
     1
176
     1
290
     0
176
     1
290
     0
176
     1
290
     0
176
     1
290
     0
176
     1
290
     0
176
     1
290
     0
176
     1
 90
       50
176
     1
 40
0.0
176
     1
 40
1.0
176
     1
 90
        0
176
     1
 62
   178
420
        0
176
     1
 90
       50
176
     1
 90
        3
176
     1
 62
     5
420
      255
176
     1
290
     0
176
     1
 90
       50
176
     1
 90
       50
176
     1
 90
       50
176
     1
290
     0
176
     1
 90
       50
176
     1
 62
   256
176
     0
 40
1.0
176
     0
 90
        2
176
     1
  1
strokes_ogs.tif
176
     1
290
     0
176
     1
 40
1.0
176
     1
 40
1.0
176
     1
  0
VISUALSTYLE
  5
2D
102
{ACAD_REACTORS
330
2A
102
}
330
2A
100
AcDbVisualStyle
  2
Gouraud
 70
     2
177
     3
291
     1
 70
    58
 90
        2
176
     1
 90
        2
176
     1
 90
        1
176
     1
 90
        2
176
     1
 40
-0.6
176
     1
 40
30.0
176
     1
 62
     7
420
 16777215
176
     1
 90
        0
176
     1
 90
        4
176
     1
 62
     7
176
     1
 62
   257
176
     1
 90
        1
176
     1
 90
        1
176
     1
 40
1.0
176
     1
 90
        0
176
     1
 62
     7
176
     1
 40
1.0
176
     1
 90
        1
176
     1
 90
        6
176
     1
 90
        2
176
     1
 62
     7
176
     1
 90
        5
176
     1
 90
        0
176
     1
 90
        0
176
     1
290
     0
176
     1
 90
       13
176
     1
 40
0.0
176
     1
 90
        0
176
     1
290
     0
176
     1
290
     1
176
     1
290
     1
176
     1
290
     0
176
     1
290
     0
176
     1
290
     0
176
     1
290
     0
176
     1
290
     0
176
     1
290
     0
176
     1
 90
       50
176
     1
 40
0.0
176
     1
 40
1.0
176
     1
 90
        0
176
     1
 62
   178
420
        0
176
     1
 90
       50
176
     1
 90
        3
176
     1
 62
     5
420
      255
176
     1
290
     0
176
     1
 90
       50
176
     1
 90
       50
176
     1
 90
       50
176
     1
290
     0
176
     1
 90
       50
176
     1
 62
   256
176
     0
 40
1.0
176
     0
 90
        2
176
     1
  1
strokes_ogs.tif
176
     1
290
     0
176
     1
 40
1.0
176
     1
 40
1.0
176
     1
  0
VISUALSTYLE
  5
2E
102
{ACAD_REACTORS
330
2A
102
}
330
2A
100
AcDbVisualStyle
  2
GouraudWithEdges
 70
     3
177
     3
291
     1
 70
    58
 90
        2
176
     1
 90
        2
176
     1
 90
        1
176
     1
 90
        2
176
     1
 40
-0.6
176
     1
 40
30.0
176
     1
 62
     7
420
 16777215
176
     1
 90
        1
176
     1
 90
        4
176
     1
 62
     7
176
     1
 62
   257
176
     1
 90
        1
176
     1
 90
        1
176
     1
 40
1.0
176
     1
 90
        0
176
     1
 62
   257
176
     1
 40
1.0
176
     1
 90
        1
176
     1
 90
        6
176
     1
 90
        2
176
     1
 62
     7
176
     1
 90
        5
176
     1
 90
        0
176
     1
 90
        0
176
     1
290
     0
176
     1
 90
       13
176
     1
 40
0.0
176
     1
 90
        0
176
     1
290
     0
176
     1
290
     1
176
     1
290
     1
176
     1
290
     0
176
     1
290
     0
176
     1
290
     0
176
     1
290
     0
176
     1
290
     0
176
     1
290
     0
176
     1
 90
       50
176
     1
 40
0.0
176
     1
 40
1.0
176
     1
 90
        0
176
     1
 62
   178
420
        0
176
     1
 90
       50
176
     1
 90
        3
176
     1
 62
     5
420
      255
176
     1
290
     0
176
     1
 90
       50
176
     1
 90
       50
176
     1
 90
       50
176
     1
290
     0
176
     1
 90
       50
176
     1
 62
   256
176
     0
 40
1.0
176
     0
 90
        2
176
     1
  1
strokes_ogs.tif
176
     1
290
     0
176
     1
 40
1.0
176
     1
 40
1.0
176
     1
  0
VISUALSTYLE
  5
CB
102
{ACAD_REACTORS
330
2A
102
}
330
2A
100
AcDbVisualStyle
  2
Hidden
 70
     6
177
     3
291
     0
 70
    58
 90
        1
176
     1
 90
        2
176
     1
 90
        2
176
     1
 90
        0
176
     1
 40
0.6
176
     1
 40
30.0
176
     1
 62
     7
420
 16777215
176
     1
 90
        2
176
     1
 90
        2
176
     1
 62
     7
176
     1
 62
   257
176
     1
 90
        2
176
     1
 90
        1
176
     1
 40
40.0
176
     1
 90
        0
176
     1
 62
   257
176
     1
 40
1.0
176
     1
 90
        1
176
     1
 90
        6
176
     1
 90
        2
176
     1
 62
     7
176
     1
 90
        3
176
     1
 90
        0
176
     1
 90
        0
176
     1
290
     0
176
     1
 90
        1
176
     1
 40
0.0
176
     1
 90
        0
176
     1
290
     0
176
     1
290
     1
176
     1
290
     1
176
     1
290
     0
176
     1
290
     0
176
     1
290
     0
176
     1
290
     0
176
     1
290
     0
176
     1
290
     0
176
     1
 90
       50
176
     1
 40
0.0
176
     1
 40
1.0
176
     1
 90
        0
176
     1
 62
   178
420
        0
176
     1
 90
       50
176
     1
 90
        3
176
     1
 62
     5
420
      255
176
     1
290
     0
176
     1
 90
       50
176
     1
 90
       50
176
     1
 90
       50
176
     1
290
     0
176
     1
 90
       50
176
     1
 62
   256
176
     0
 40
1.0
176
     0
 90
        2
176
     1
  1
strokes_ogs.tif
176
     1
290
     0
176
     1
 40
1.0
176
     1
 40
1.0
176
     1
  0
VISUALSTYLE
  5
CC
102
{ACAD_REACTORS
330
2A
102
}
330
2A
100
AcDbVisualStyle
  2
JitterOff
 70
    20
177
     3
291
     1
 70
    58
 90
        2
176
     0
 90
        2
176
     0
 90
        0
176
     0
 90
        0
176
     0
 40
0.6
176
     0
 40
30.0
176
     0
 62
     7
420
 16777215
176
     0
 90
        1
176
     0
 90
        4
176
     0
 62
     7
176
     0
 62
   257
176
     0
 90
        1
176
     0
 90
        1
176
     0
 40
1.0
176
     0
 90
       10
176
     2
 62
     7
176
     0
 40
1.0
176
     0
 90
        1
176
     0
 90
        6
176
     0
 90
        2
176
     0
 62
     7
176
     0
 90
        5
176
     0
 90
        0
176
     0
 90
        0
176
     0
290
     0
176
     0
 90
        1
176
     0
 40
0.0
176
     0
 90
        0
176
     0
290
     0
176
     0
290
     1
176
     0
290
     1
176
     0
290
     0
176
     0
290
     0
176
     0
290
     0
176
     0
290
     0
176
     0
290
     0
176
     0
290
     0
176
     0
 90
       50
176
     0
 40
0.0
176
     0
 40
1.0
176
     0
 90
        0
176
     0
 62
   178
420
        0
176
     0
 90
       50
176
     0
 90
        3
176
     0
 62
     5
420
      255
176
     0
290
     0
176
     0
 90
       50
176
     0
 90
       50
176
     0
 90
       50
176
     0
290
     0
176
     0
 90
       50
176
     0
 62
   256
176
     0
 40
1.0
176
     0
 90
        2
176
     0
  1
strokes_ogs.tif
176
     0
290
     0
176
     0
 40
1.0
176
     0
 40
1.0
176
     0
  0
VISUALSTYLE
  5
38
102
{ACAD_REACTORS
330
2A
102
}
330
2A
100
AcDbVisualStyle
  2
Linepattern
 70
    14
177
     3
291
     1
 70
    58
 90
        2
176
     1
 90
        2
176
     1
 90
        0
176
     1
 90
        0
176
     1
 40
-0.6
176
     1
 40
-30.0
176
     1
 62
     7
420
 16777215
176
     1
 90
        1
176
     1
 90
        4
176
     1
 62
     7
176
     1
 62
   257
176
     1
 90
        7
176
     1
 90
        7
176
     1
 40
1.0
176
     1
 90
        8
176
     1
 62
     7
176
     1
 40
1.0
176
     1
 90
        1
176
     1
 90
        6
176
     1
 90
        2
176
     1
 62
     7
176
     1
 90
        5
176
     1
 90
        0
176
     1
 90
        0
176
     1
290
     0
176
     1
 90
        1
176
     1
 40
0.0
176
     1
 90
        0
176
     1
290
     0
176
     1
290
     1
176
     1
290
     1
176
     1
290
     0
176
     1
290
     0
176
     1
290
     0
176
     1
290
     0
176
     1
290
     0
176
     1
290
     0
176
     1
 90
       50
176
     1
 40
0.0
176
     1
 40
1.0
176
     1
 90
        0
176
     1
 62
   178
420
        0
176
     1
 90
       50
176
     1
 90
        3
176
     1
 62
     5
420
      255
176
     1
290
     0
176
     1
 90
       50
176
     1
 90
       50
176
     1
 90
       50
176
     1
290
     0
176
     1
 90
       50
176
     1
 62
   256
176
     0
 40
1.0
176
     0
 90
        2
176
     1
  1
strokes_ogs.tif
176
     1
290
     0
176
     1
 40
1.0
176
     1
 40
1.0
176
     1
  0
VISUALSTYLE
  5
CD
102
{ACAD_REACTORS
330
2A
102
}
330
2A
100
AcDbVisualStyle
  2
OverhangOff
 70
    21
177
     3
291
     1
 70
    58
 90
        2
176
     0
 90
        2
176
     0
 90
        0
176
     0
 90
        0
176
     0
 40
0.6
176
     0
 40
30.0
176
     0
 62
     7
420
 16777215
176
     0
 90
        1
176
     0
 90
        4
176
     0
 62
     7
176
     0
 62
   257
176
     0
 90
        1
176
     0
 90
        1
176
     0
 40
1.0
176
     0
 90
        9
176
     2
 62
     7
176
     0
 40
1.0
176
     0
 90
        1
176
     0
 90
        6
176
     0
 90
        2
176
     0
 62
     7
176
     0
 90
        5
176
     0
 90
        0
176
     0
 90
        0
176
     0
290
     0
176
     0
 90
        1
176
     0
 40
0.0
176
     0
 90
        0
176
     0
290
     0
176
     0
290
     1
176
     0
290
     1
176
     0
290
     0
176
     0
290
     0
176
     0
290
     0
176
     0
290
     0
176
     0
290
     0
176
     0
290
     0
176
     0
 90
       50
176
     0
 40
0.0
176
     0
 40
1.0
176
     0
 90
        0
176
     0
 62
   178
420
        0
176
     0
 90
       50
176
     0
 90
        3
176
     0
 62
     5
420
      255
176
     0
290
     0
176
     0
 90
       50
176
     0
 90
       50
176
     0
 90
       50
176
     0
290
     0
176
     0
 90
       50
176
     0
 62
   256
176
     0
 40
1.0
176
     0
 90
        2
176
     0
  1
strokes_ogs.tif
176
     0
290
     0
176
     0
 40
1.0
176
     0
 40
1.0
176
     0
  0
VISUALSTYLE
  5
33
102
{ACAD_REACTORS
330
2A
102
}
330
2A
100
AcDbVisualStyle
  2
Realistic
 70
     8
177
     3
291
     0
 70
    58
 90
        2
176
     1
 90
        2
176
     1
 90
        0
176
     1
 90
        0
176
     1
 40
-0.6
176
     1
 40
-30.0
176
     1
 62
     7
420
 16777215
176
     1
 90
        1
176
     1
 90
        0
176
     1
 62
     7
176
     1
 62
   257
176
     1
 90
        1
176
     1
 90
        1
176
     1
 40
1.0
176
     1
 90
        8
176
     1
 62
     8
420
  7895160
176
     1
 40
1.0
176
     1
 90
        1
176
     1
 90
        6
176
     1
 90
        2
176
     1
 62
     7
176
     1
 90
        5
176
     1
 90
        0
176
     1
 90
        0
176
     1
290
     0
176
     1
 90
       13
176
     1
 40
0.0
176
     1
 90
        0
176
     1
290
     0
176
     1
290
     1
176
     1
290
     1
176
     1
290
     0
176
     1
290
     0
176
     1
290
     0
176
     1
290
     0
176
     1
290
     0
176
     1
290
     0
176
     1
 90
       50
176
     1
 40
0.0
176
     1
 40
1.0
176
     1
 90
        0
176
     1
 62
   178
420
        0
176
     1
 90
       50
176
     1
 90
        3
176
     1
 62
     5
420
      255
176
     1
290
     0
176
     1
 90
       50
176
     1
 90
       50
176
     1
 90
       50
176
     1
290
     0
176
     1
 90
       50
176
     1
 62
   256
176
     0
 40
1.0
176
     0
 90
        2
176
     1
  1
strokes_ogs.tif
176
     1
290
     0
176
     1
 40
1.0
176
     1
 40
1.0
176
     1
  0
VISUALSTYLE
  5
D3
102
{ACAD_REACTORS
330
2A
102
}
330
2A
100
AcDbVisualStyle
  2
Shaded
 70
    27
177
     3
291
     0
 70
    58
 90
        2
176
     1
 90
        2
176
     1
 90
        1
176
     1
 90
        2
176
     1
 40
0.6
176
     1
 40
30.0
176
     1
 62
     7
420
 16777215
176
     1
 90
        0
176
     1
 90
        4
176
     1
 62
     7
176
     1
 62
   257
176
     1
 90
        1
176
     1
 90
        1
176
     1
 40
1.0
176
     1
 90
        8
176
     1
 62
   257
176
     1
 40
1.0
176
     1
 90
        1
176
     1
 90
        6
176
     1
 90
        2
176
     1
 62
     8
420
  7895160
176
     1
 90
        3
176
     1
 90
        0
176
     1
 90
        0
176
     1
290
     0
176
     1
 90
        5
176
     1
 40
0.0
176
     1
 90
        0
176
     1
290
     0
176
     1
290
     1
176
     1
290
     1
176
     1
290
     0
176
     1
290
     0
176
     1
290
     0
176
     1
290
     0
176
     1
290
     0
176
     1
290
     0
176
     1
 90
       50
176
     1
 40
0.0
176
     1
 40
1.0
176
     1
 90
        0
176
     1
 62
   178
420
        0
176
     1
 90
       50
176
     1
 90
        3
176
     1
 62
     5
420
      255
176
     1
290
     0
176
     1
 90
       50
176
     1
 90
       50
176
     1
 90
       50
176
     1
290
     0
176
     1
 90
       50
176
     1
 62
   256
176
     0
 40
1.0
176
     0
 90
        2
176
     1
  1
strokes_ogs.tif
176
     1
290
     0
176
     1
 40
1.0
176
     1
 40
1.0
176
     1
  0
VISUALSTYLE
  5
D2
102
{ACAD_REACTORS
330
2A
102
}
330
2A
100
AcDbVisualStyle
  2
Shaded with edges
 70
    26
177
     3
291
     0
 70
    58
 90
        2
176
     1
 90
        2
176
     1
 90
        1
176
     1
 90
        2
176
     1
 40
0.6
176
     1
 40
30.0
176
     1
 62
     7
420
 16777215
176
     1
 90
        1
176
     1
 90
       10
176
     1
 62
     7
176
     1
 62
   257
176
     1
 90
        2
176
     1
 90
        1
176
     1
 40
1.0
176
     1
 90
        8
176
     1
 62
   257
176
     1
 40
1.0
176
     1
 90
        1
176
     1
 90
        6
176
     1
 90
        2
176
     1
 62
     7
176
     1
 90
        3
176
     1
 90
        0
176
     1
 90
        0
176
     1
290
     0
176
     1
 90
        5
176
     1
 40
0.0
176
     1
 90
        0
176
     1
290
     0
176
     1
290
     1
176
     1
290
     1
176
     1
290
     0
176
     1
290
     0
176
     1
290
     0
176
     1
290
     0
176
     1
290
     0
176
     1
290
     0
176
     1
 90
       50
176
     1
 40
0.0
176
     1
 40
1.0
176
     1
 90
        0
176
     1
 62
   178
420
        0
176
     1
 90
       50
176
     1
 90
        3
176
     1
 62
     5
420
      255
176
     1
290
     0
176
     1
 90
       50
176
     1
 90
       50
176
     1
 90
       50
176
     1
290
     0
176
     1
 90
       50
176
     1
 62
   256
176
     0
 40
1.0
176
     0
 90
        2
176
     1
  1
strokes_ogs.tif
176
     1
290
     0
176
     1
 40
1.0
176
     1
 40
1.0
176
     1
  0
VISUALSTYLE
  5
CF
102
{ACAD_REACTORS
330
2A
102
}
330
2A
100
AcDbVisualStyle
  2
Shades of Gray
 70
    23
177
     3
291
     0
 70
    58
 90
        2
176
     1
 90
        2
176
     1
 90
        3
176
     1
 90
        0
176
     1
 40
0.6
176
     1
 40
30.0
176
     1
 62
     7
420
 16777215
176
     1
 90
        2
176
     1
 90
        2
176
     1
 62
     7
176
     1
 62
     7
176
     1
 90
        1
176
     1
 90
        1
176
     1
 40
40.0
176
     1
 90
        8
176
     1
 62
     7
176
     1
 40
1.0
176
     1
 90
        1
176
     1
 90
        6
176
     1
 90
        2
176
     1
 62
     7
176
     1
 90
        3
176
     1
 90
        0
176
     1
 90
        0
176
     1
290
     0
176
     1
 90
        1
176
     1
 40
0.0
176
     1
 90
        0
176
     1
290
     0
176
     1
290
     1
176
     1
290
     1
176
     1
290
     0
176
     1
290
     0
176
     1
290
     0
176
     1
290
     0
176
     1
290
     0
176
     1
290
     0
176
     1
 90
       50
176
     1
 40
0.0
176
     1
 40
1.0
176
     1
 90
        0
176
     1
 62
   178
420
        0
176
     1
 90
       50
176
     1
 90
        3
176
     1
 62
     5
420
      255
176
     1
290
     0
176
     1
 90
       50
176
     1
 90
       50
176
     1
 90
       50
176
     1
290
     0
176
     1
 90
       50
176
     1
 62
   256
176
     0
 40
1.0
176
     0
 90
        2
176
     1
  1
strokes_ogs.tif
176
     1
290
     0
176
     1
 40
1.0
176
     1
 40
1.0
176
     1
  0
VISUALSTYLE
  5
D0
102
{ACAD_REACTORS
330
2A
102
}
330
2A
100
AcDbVisualStyle
  2
Sketchy
 70
    24
177
     3
291
     0
 70
    58
 90
        1
176
     1
 90
        2
176
     1
 90
        2
176
     1
 90
        0
176
     1
 40
0.6
176
     1
 40
30.0
176
     1
 62
     7
420
 16777215
176
     1
 90
        2
176
     1
 90
        2
176
     1
 62
     7
176
     1
 62
     7
176
     1
 90
        1
176
     1
 90
        1
176
     1
 40
40.0
176
     1
 90
       11
176
     1
 62
     7
176
     1
 40
1.0
176
     1
 90
        1
176
     1
 90
        6
176
     1
 90
        2
176
     1
 62
     7
176
     1
 90
        6
176
     1
 90
        0
176
     1
 90
        0
176
     1
290
     0
176
     1
 90
        1
176
     1
 40
0.0
176
     1
 90
        0
176
     1
290
     0
176
     1
290
     1
176
     1
290
     1
176
     1
290
     0
176
     1
290
     0
176
     1
290
     0
176
     1
290
     0
176
     1
290
     0
176
     1
290
     0
176
     1
 90
       50
176
     1
 40
0.0
176
     1
 40
1.0
176
     1
 90
        0
176
     1
 62
   178
420
        0
176
     1
 90
       50
176
     1
 90
        3
176
     1
 62
     5
420
      255
176
     1
290
     0
176
     1
 90
       50
176
     1
 90
       50
176
     1
 90
       50
176
     1
290
     0
176
     1
 90
       50
176
     1
 62
   256
176
     0
 40
1.0
176
     0
 90
        2
176
     1
  1
strokes_ogs.tif
176
     1
290
     0
176
     1
 40
1.0
176
     1
 40
1.0
176
     1
  0
VISUALSTYLE
  5
37
102
{ACAD_REACTORS
330
2A
102
}
330
2A
100
AcDbVisualStyle
  2
Thicken
 70
    13
177
     3
291
     1
 70
    58
 90
        2
176
     1
 90
        2
176
     1
 90
        0
176
     1
 90
        0
176
     1
 40
-0.6
176
     1
 40
-30.0
176
     1
 62
     7
420
 16777215
176
     1
 90
        1
176
     1
 90
        4
176
     1
 62
     7
176
     1
 62
   257
176
     1
 90
        1
176
     1
 90
        1
176
     1
 40
1.0
176
     1
 90
       12
176
     1
 62
     7
176
     1
 40
1.0
176
     1
 90
        1
176
     1
 90
        6
176
     1
 90
        2
176
     1
 62
     7
176
     1
 90
        5
176
     1
 90
        0
176
     1
 90
        0
176
     1
290
     0
176
     1
 90
        1
176
     1
 40
0.0
176
     1
 90
        0
176
     1
290
     0
176
     1
290
     1
176
     1
290
     1
176
     1
290
     0
176
     1
290
     0
176
     1
290
     0
176
     1
290
     0
176
     1
290
     0
176
     1
290
     0
176
     1
 90
       50
176
     1
 40
0.0
176
     1
 40
1.0
176
     1
 90
        0
176
     1
 62
   178
420
        0
176
     1
 90
       50
176
     1
 90
        3
176
     1
 62
     5
420
      255
176
     1
290
     0
176
     1
 90
       50
176
     1
 90
       50
176
     1
 90
       50
176
     1
290
     0
176
     1
 90
       50
176
     1
 62
   256
176
     0
 40
1.0
176
     0
 90
        2
176
     1
  1
strokes_ogs.tif
176
     1
290
     0
176
     1
 40
1.0
176
     1
 40
1.0
176
     1
  0
VISUALSTYLE
  5
CA
102
{ACAD_REACTORS
330
2A
102
}
330
2A
100
AcDbVisualStyle
  2
Wireframe
 70
     5
177
     3
291
     0
 70
    58
 90
        0
176
     1
 90
        2
176
     1
 90
        0
176
     1
 90
        0
176
     1
 40
0.6
176
     1
 40
30.0
176
     1
 62
     7
420
 16777215
176
     1
 90
        1
176
     1
 90
        4
176
     1
 62
     7
176
     1
 62
   257
176
     1
 90
        1
176
     1
 90
        1
176
     1
 40
1.0
176
     1
 90
        0
176
     1
 62
   257
176
     1
 40
1.0
176
     1
 90
        1
176
     1
 90
        6
176
     1
 90
        2
176
     1
 62
     7
176
     1
 90
        3
176
     1
 90
        0
176
     1
 90
        0
176
     1
290
     0
176
     1
 90
        1
176
     1
 40
0.0
176
     1
 90
        0
176
     1
290
     0
176
     1
290
     1
176
     1
290
     1
176
     1
290
     0
176
     1
290
     0
176
     1
290
     0
176
     1
290
     0
176
     1
290
     0
176
     1
290
     0
176
     1
 90
       50
176
     1
 40
0.0
176
     1
 40
1.0
176
     1
 90
        0
176
     1
 62
   178
420
        0
176
     1
 90
       50
176
     1
 90
        3
176
     1
 62
     5
420
      255
176
     1
290
     0
176
     1
 90
       50
176
     1
 90
       50
176
     1
 90
       50
176
     1
290
     0
176
     1
 90
       50
176
     1
 62
   256
176
     0
 40
1.0
176
     0
 90
        2
176
     1
  1
strokes_ogs.tif
176
     1
290
     0
176
     1
 40
1.0
176
     1
 40
1.0
176
     1
  0
VISUALSTYLE
  5
D1
102
{ACAD_REACTORS
330
2A
102
}
330
2A
100
AcDbVisualStyle
  2
X-Ray
 70
    25
177
     3
291
     0
 70
    58
 90
        2
176
     1
 90
        2
176
     1
 90
        1
176
     1
 90
        1
176
     1
 40
0.5
176
     1
 40
30.0
176
     1
 62
     7
420
 16777215
176
     1
 90
        1
176
     1
 90
        0
176
     1
 62
     7
176
     1
 62
   257
176
     1
 90
        1
176
     1
 90
        1
176
     1
 40
1.0
176
     1
 90
        8
176
     1
 62
     7
176
     1
 40
1.0
176
     1
 90
        1
176
     1
 90
        6
176
     1
 90
        2
176
     1
 62
     7
176
     1
 90
        3
176
     1
 90
        0
176
     1
 90
        0
176
     1
290
     0
176
     1
 90
       13
176
     1
 40
0.0
176
     1
 90
        0
176
     1
290
     0
176
     1
290
     1
176
     1
290
     1
176
     1
290
     0
176
     1
290
     0
176
     1
290
     0
176
     1
290
     0
176
     1
290
     0
176
     1
290
     0
176
     1
 90
       50
176
     1
 40
0.0
176
     1
 40
1.0
176
     1
 90
        0
176
     1
 62
   178
420
        0
176
     1
 90
       50
176
     1
 90
        3
176
     1
 62
     5
420
      255
176
     1
290
     0
176
     1
 90
       50
176
     1
 90
       50
176
     1
 90
       50
176
     1
290
     0
176
     1
 90
       50
176
     1
 62
   256
176
     0
 40
1.0
176
     0
 90
        2
176
     1
  1
strokes_ogs.tif
176
     1
290
     0
176
     1
 40
1.0
176
     1
 40
1.0
176
     1
  0
DICTIONARYVAR
  5
D7
102
{ACAD_REACTORS
330
D6
102
}
330
D6
100
DictionaryVariables
280
     0
  1
1:1
  0
DICTIONARYVAR
  5
DC
102
{ACAD_REACTORS
330
D6
102
}
330
D6
100
DictionaryVariables
280
     0
  1
Standard
  0
DICTIONARYVAR
  5
DB
102
{ACAD_REACTORS
330
D6
102
}
330
D6
100
DictionaryVariables
280
     0
  1
Standard
  0
DICTIONARYVAR
  5
DD
102
{ACAD_REACTORS
330
D6
102
}
330
D6
100
DictionaryVariables
280
     0
  1
0
  0
DICTIONARY
  5
D8
330
D4
100
AcDbDictionary
280
     1
281
     1
  3
ACAD_ROUNDTRIP_2008_TABLESTYLE_CELLSTYLEMAP
360
D9
  0
CELLSTYLEMAP
  5
D9
102
{ACAD_REACTORS
330
D8
102
}
330
D8
100
AcDbCellStyleMap
 90
        3
300
CELLSTYLE
  1
TABLEFORMAT_BEGIN
 90
        5
170
     1
 91
        0
 92
    32768
 62
   257
 93
        1
300
CONTENTFORMAT
  1
CONTENTFORMAT_BEGIN
 90
        0
 91
        0
 92
        4
 93
        0
300

 40
0.0
140
1.0
 94
        5
 62
     0
340
11
144
0.25
309
CONTENTFORMAT_END
171
     1
301
MARGIN
  1
CELLMARGIN_BEGIN
 40
0.06
 40
0.06
 40
0.06
 40
0.06
 40
0.06
 40
0.06
309
CELLMARGIN_END
 94
        6
 95
        1
302
GRIDFORMAT
  1
GRIDFORMAT_BEGIN
 90
        0
 91
        1
 62
     0
 92
       -2
340
14
 93
        0
 40
0.045
309
GRIDFORMAT_END
 95
        2
302
GRIDFORMAT
  1
GRIDFORMAT_BEGIN
 90
        0
 91
        1
 62
     0
 92
       -2
340
14
 93
        0
 40
0.045
309
GRIDFORMAT_END
 95
        4
302
GRIDFORMAT
  1
GRIDFORMAT_BEGIN
 90
        0
 91
        1
 62
     0
 92
       -2
340
14
 93
        0
 40
0.045
309
GRIDFORMAT_END
 95
        8
302
GRIDFORMAT
  1
GRIDFORMAT_BEGIN
 90
        0
 91
        1
 62
     0
 92
       -2
340
14
 93
        0
 40
0.045
309
GRIDFORMAT_END
 95
       16
302
GRIDFORMAT
  1
GRIDFORMAT_BEGIN
 90
        0
 91
        1
 62
     0
 92
       -2
340
14
 93
        0
 40
0.045
309
GRIDFORMAT_END
 95
       32
302
GRIDFORMAT
  1
GRIDFORMAT_BEGIN
 90
        0
 91
        1
 62
     0
 92
       -2
340
14
 93
        0
 40
0.045
309
GRIDFORMAT_END
309
TABLEFORMAT_END
  1
CELLSTYLE_BEGIN
 90
        1
 91
        1
300
_TITLE
309
CELLSTYLE_END
300
CELLSTYLE
  1
TABLEFORMAT_BEGIN
 90
        5
170
     1
 91
        0
 92
        0
 62
   257
 93
        1
300
CONTENTFORMAT
  1
CONTENTFORMAT_BEGIN
 90
        0
 91
        0
 92
        4
 93
        0
300

 40
0.0
140
1.0
 94
        5
 62
     0
340
11
144
0.18
309
CONTENTFORMAT_END
171
     1
301
MARGIN
  1
CELLMARGIN_BEGIN
 40
0.06
 40
0.06
 40
0.06
 40
0.06
 40
0.06
 40
0.06
309
CELLMARGIN_END
 94
        6
 95
        1
302
GRIDFORMAT
  1
GRIDFORMAT_BEGIN
 90
        0
 91
        1
 62
     0
 92
       -2
340
14
 93
        0
 40
0.045
309
GRIDFORMAT_END
 95
        2
302
GRIDFORMAT
  1
GRIDFORMAT_BEGIN
 90
        0
 91
        1
 62
     0
 92
       -2
340
14
 93
        0
 40
0.045
309
GRIDFORMAT_END
 95
        4
302
GRIDFORMAT
  1
GRIDFORMAT_BEGIN
 90
        0
 91
        1
 62
     0
 92
       -2
340
14
 93
        0
 40
0.045
309
GRIDFORMAT_END
 95
        8
302
GRIDFORMAT
  1
GRIDFORMAT_BEGIN
 90
        0
 91
        1
 62
     0
 92
       -2
340
14
 93
        0
 40
0.045
309
GRIDFORMAT_END
 95
       16
302
GRIDFORMAT
  1
GRIDFORMAT_BEGIN
 90
        0
 91
        1
 62
     0
 92
       -2
340
14
 93
        0
 40
0.045
309
GRIDFORMAT_END
 95
       32
302
GRIDFORMAT
  1
GRIDFORMAT_BEGIN
 90
        0
 91
        1
 62
     0
 92
       -2
340
14
 93
        0
 40
0.045
309
GRIDFORMAT_END
309
TABLEFORMAT_END
  1
CELLSTYLE_BEGIN
 90
        2
 91
        1
300
_HEADER
309
CELLSTYLE_END
300
CELLSTYLE
  1
TABLEFORMAT_BEGIN
 90
        5
170
     1
 91
        0
 92
        0
 62
   257
 93
        1
300
CONTENTFORMAT
  1
CONTENTFORMAT_BEGIN
 90
        0
 91
        0
 92
        4
 93
        0
300

 40
0.0
140
1.0
 94
        2
 62
     0
340
11
144
0.18
309
CONTENTFORMAT_END
171
     1
301
MARGIN
  1
CELLMARGIN_BEGIN
 40
0.06
 40
0.06
 40
0.06
 40
0.06
 40
0.06
 40
0.06
309
CELLMARGIN_END
 94
        6
 95
        1
302
GRIDFORMAT
  1
GRIDFORMAT_BEGIN
 90
        0
 91
        1
 62
     0
 92
       -2
340
14
 93
        0
 40
0.045
309
GRIDFORMAT_END
 95
        2
302
GRIDFORMAT
  1
GRIDFORMAT_BEGIN
 90
        0
 91
        1
 62
     0
 92
       -2
340
14
 93
        0
 40
0.045
309
GRIDFORMAT_END
 95
        4
302
GRIDFORMAT
  1
GRIDFORMAT_BEGIN
 90
        0
 91
        1
 62
     0
 92
       -2
340
14
 93
        0
 40
0.045
309
GRIDFORMAT_END
 95
        8
302
GRIDFORMAT
  1
GRIDFORMAT_BEGIN
 90
        0
 91
        1
 62
     0
 92
       -2
340
14
 93
        0
 40
0.045
309
GRIDFORMAT_END
 95
       16
302
GRIDFORMAT
  1
GRIDFORMAT_BEGIN
 90
        0
 91
        1
 62
     0
 92
       -2
340
14
 93
        0
 40
0.045
309
GRIDFORMAT_END
 95
       32
302
GRIDFORMAT
  1
GRIDFORMAT_BEGIN
 90
        0
 91
        1
 62
     0
 92
       -2
340
14
 93
        0
 40
0.045
309
GRIDFORMAT_END
309
TABLEFORMAT_END
  1
CELLSTYLE_BEGIN
 90
        3
 91
        2
300
_DATA
309
CELLSTYLE_END
  0
ENDSEC
  0
EOF
