  0
SECTION
  2
HEADER
  9
$ACADVER
  1
AC1027
  9
$ACADMAINTVER
 70
     8
  9
$DWGCODEPAGE
  3
ANSI_1252
  9
$REQUIREDVERSIONS
160
                 0
  9
$INSBASE
 10
0.0
 20
0.0
 30
0.0
  9
$EXTMIN
 10
-180.6987
 20
-230.035
 30
0.0
  9
$EXTMAX
 10
183.6513
 20
192.3824
 30
0.0
  9
$LIMMIN
 10
0.0
 20
0.0
  9
$LIMMAX
 10
12.0
 20
9.0
  9
$ORTHOMODE
 70
     0
  9
$REGENMODE
 70
     1
  9
$FILLMODE
 70
     1
  9
$QTEXTMODE
 70
     0
  9
$MIRRTEXT
 70
     1
  9
$LTSCALE
 40
1.0
  9
$ATTMODE
 70
     1
  9
$TEXTSIZE
 40
0.2
  9
$TRACEWID
 40
0.05
  9
$TEXTSTYLE
  7
Standard
  9
$CLAYER
  8
0
  9
$CELTYPE
  6
ByLayer
  9
$CECOLOR
 62
   256
  9
$CELTSCALE
 40
1.0
  9
$DISPSILH
 70
     0
  9
$DIMSCALE
 40
1.0
  9
$DIMASZ
 40
0.18
  9
$DIMEXO
 40
0.0625
  9
$DIMDLI
 40
0.38
  9
$DIMRND
 40
0.0
  9
$DIMDLE
 40
0.0
  9
$DIMEXE
 40
0.18
  9
$DIMTP
 40
0.0
  9
$DIMTM
 40
0.0
  9
$DIMTXT
 40
0.18
  9
$DIMCEN
 40
0.09
  9
$DIMTSZ
 40
0.0
  9
$DIMTOL
 70
     0
  9
$DIMLIM
 70
     0
  9
$DIMTIH
 70
     1
  9
$DIMTOH
 70
     1
  9
$DIMSE1
 70
     0
  9
$DIMSE2
 70
     0
  9
$DIMTAD
 70
     0
  9
$DIMZIN
 70
     0
  9
$DIMBLK
  1

  9
$DIMASO
 70
     1
  9
$DIMSHO
 70
     1
  9
$DIMPOST
  1

  9
$DIMAPOST
  1

  9
$DIMALT
 70
     0
  9
$DIMALTD
 70
     2
  9
$DIMALTF
 40
25.4
  9
$DIMLFAC
 40
1.0
  9
$DIMTOFL
 70
     0
  9
$DIMTVP
 40
0.0
  9
$DIMTIX
 70
     0
  9
$DIMSOXD
 70
     0
  9
$DIMSAH
 70
     0
  9
$DIMBLK1
  1

  9
$DIMBLK2
  1

  9
$DIMSTYLE
  2
Standard
  9
$DIMCLRD
 70
     0
  9
$DIMCLRE
 70
     0
  9
$DIMCLRT
 70
     0
  9
$DIMTFAC
 40
1.0
  9
$DIMGAP
 40
0.09
  9
$DIMJUST
 70
     0
  9
$DIMSD1
 70
     0
  9
$DIMSD2
 70
     0
  9
$DIMTOLJ
 70
     1
  9
$DIMTZIN
 70
     0
  9
$DIMALTZ
 70
     0
  9
$DIMALTTZ
 70
     0
  9
$DIMUPT
 70
     0
  9
$DIMDEC
 70
     4
  9
$DIMTDEC
 70
     4
  9
$DIMALTU
 70
     2
  9
$DIMALTTD
 70
     2
  9
$DIMTXSTY
  7
Standard
  9
$DIMAUNIT
 70
     0
  9
$DIMADEC
 70
     0
  9
$DIMALTRND
 40
0.0
  9
$DIMAZIN
 70
     0
  9
$DIMDSEP
 70
    46
  9
$DIMATFIT
 70
     3
  9
$DIMFRAC
 70
     0
  9
$DIMLDRBLK
  1

  9
$DIMLUNIT
 70
     2
  9
$DIMLWD
 70
    -2
  9
$DIMLWE
 70
    -2
  9
$DIMTMOVE
 70
     0
  9
$DIMFXL
 40
1.0
  9
$DIMFXLON
 70
     0
  9
$DIMJOGANG
 40
0.7853981633974483
  9
$DIMTFILL
 70
     0
  9
$DIMTFILLCLR
 70
     0
  9
$DIMARCSYM
 70
     0
  9
$DIMLTYPE
  6

  9
$DIMLTEX1
  6

  9
$DIMLTEX2
  6

  9
$DIMTXTDIRECTION
 70
     0
  9
$LUNITS
 70
     2
  9
$LUPREC
 70
     4
  9
$SKETCHINC
 40
0.1
  9
$FILLETRAD
 40
0.5
  9
$AUNITS
 70
     0
  9
$AUPREC
 70
     0
  9
$MENU
  1
.
  9
$ELEVATION
 40
0.0
  9
$PELEVATION
 40
0.0
  9
$THICKNESS
 40
0.0
  9
$LIMCHECK
 70
     0
  9
$CHAMFERA
 40
0.5
  9
$CHAMFERB
 40
0.5
  9
$CHAMFERC
 40
1.0
  9
$CHAMFERD
 40
0.0
  9
$SKPOLY
 70
     0
  9
$TDCREATE
 40
2456993.974045648
  9
$TDUCREATE
 40
2456993.932378981
  9
$TDUPDATE
 40
2457171.862268519
  9
$TDUUPDATE
 40
2457171.820601852
  9
$TDINDWG
 40
0.0000000116
  9
$TDUSRTIMER
 40
0.0000000116
  9
$USRTIMER
 70
     1
  9
$ANGBASE
 50
0.0
  9
$ANGDIR
 70
     0
  9
$PDMODE
 70
     0
  9
$PDSIZE
 40
0.0
  9
$PLINEWID
 40
0.0
  9
$SPLFRAME
 70
     0
  9
$SPLINETYPE
 70
     6
  9
$SPLINESEGS
 70
     8
  9
$HANDSEED
  5
17A
  9
$SURFTAB1
 70
     6
  9
$SURFTAB2
 70
     6
  9
$SURFTYPE
 70
     6
  9
$SURFU
 70
     6
  9
$SURFV
 70
     6
  9
$UCSBASE
  2

  9
$UCSNAME
  2

  9
$UCSORG
 10
0.0
 20
0.0
 30
0.0
  9
$UCSXDIR
 10
1.0
 20
0.0
 30
0.0
  9
$UCSYDIR
 10
0.0
 20
1.0
 30
0.0
  9
$UCSORTHOREF
  2

  9
$UCSORTHOVIEW
 70
     0
  9
$UCSORGTOP
 10
0.0
 20
0.0
 30
0.0
  9
$UCSORGBOTTOM
 10
0.0
 20
0.0
 30
0.0
  9
$UCSORGLEFT
 10
0.0
 20
0.0
 30
0.0
  9
$UCSORGRIGHT
 10
0.0
 20
0.0
 30
0.0
  9
$UCSORGFRONT
 10
0.0
 20
0.0
 30
0.0
  9
$UCSORGBACK
 10
0.0
 20
0.0
 30
0.0
  9
$PUCSBASE
  2

  9
$PUCSNAME
  2

  9
$PUCSORG
 10
0.0
 20
0.0
 30
0.0
  9
$PUCSXDIR
 10
1.0
 20
0.0
 30
0.0
  9
$PUCSYDIR
 10
0.0
 20
1.0
 30
0.0
  9
$PUCSORTHOREF
  2

  9
$PUCSORTHOVIEW
 70
     0
  9
$PUCSORGTOP
 10
0.0
 20
0.0
 30
0.0
  9
$PUCSORGBOTTOM
 10
0.0
 20
0.0
 30
0.0
  9
$PUCSORGLEFT
 10
0.0
 20
0.0
 30
0.0
  9
$PUCSORGRIGHT
 10
0.0
 20
0.0
 30
0.0
  9
$PUCSORGFRONT
 10
0.0
 20
0.0
 30
0.0
  9
$PUCSORGBACK
 10
0.0
 20
0.0
 30
0.0
  9
$USERI1
 70
     0
  9
$USERI2
 70
     0
  9
$USERI3
 70
     0
  9
$USERI4
 70
     0
  9
$USERI5
 70
     0
  9
$USERR1
 40
0.0
  9
$USERR2
 40
0.0
  9
$USERR3
 40
0.0
  9
$USERR4
 40
0.0
  9
$USERR5
 40
0.0
  9
$WORLDVIEW
 70
     1
  9
$SHADEDGE
 70
     3
  9
$SHADEDIF
 70
    70
  9
$TILEMODE
 70
     1
  9
$MAXACTVP
 70
    64
  9
$PINSBASE
 10
0.0
 20
0.0
 30
0.0
  9
$PLIMCHECK
 70
     0
  9
$PEXTMIN
 10
1.000000000000000E+20
 20
1.000000000000000E+20
 30
1.000000000000000E+20
  9
$PEXTMAX
 10
-1.000000000000000E+20
 20
-1.000000000000000E+20
 30
-1.000000000000000E+20
  9
$PLIMMIN
 10
0.0
 20
0.0
  9
$PLIMMAX
 10
12.0
 20
9.0
  9
$UNITMODE
 70
     0
  9
$VISRETAIN
 70
     1
  9
$PLINEGEN
 70
     0
  9
$PSLTSCALE
 70
     1
  9
$TREEDEPTH
 70
  3020
  9
$CMLSTYLE
  2
Standard
  9
$CMLJUST
 70
     0
  9
$CMLSCALE
 40
1.0
  9
$PROXYGRAPHICS
 70
     1
  9
$MEASUREMENT
 70
     0
  9
$CELWEIGHT
370
    -1
  9
$ENDCAPS
280
     0
  9
$JOINSTYLE
280
     0
  9
$LWDISPLAY
290
     0
  9
$INSUNITS
 70
     4
  9
$HYPERLINKBASE
  1

  9
$STYLESHEET
  1

  9
$XEDIT
290
     1
  9
$CEPSNTYPE
380
     0
  9
$PSTYLEMODE
290
     1
  9
$FINGERPRINTGUID
  2
{9F4E41CA-D511-491C-8B96-5FE8035D9504}
  9
$VERSIONGUID
  2
{FAEB1C32-E019-11D5-929B-00C0DF256EC4}
  9
$EXTNAMES
290
     1
  9
$PSVPSCALE
 40
0.0
  9
$OLESTARTUP
290
     0
  9
$SORTENTS
280
   127
  9
$INDEXCTL
280
     0
  9
$HIDETEXT
280
     1
  9
$XCLIPFRAME
280
     0
  9
$HALOGAP
280
     0
  9
$OBSCOLOR
 70
   257
  9
$OBSLTYPE
280
     0
  9
$INTERSECTIONDISPLAY
280
     0
  9
$INTERSECTIONCOLOR
 70
   257
  9
$DIMASSOC
280
     2
  9
$PROJECTNAME
  1

  9
$CAMERADISPLAY
290
     0
  9
$LENSLENGTH
 40
50.0
  9
$CAMERAHEIGHT
 40
0.0
  9
$STEPSPERSEC
 40
2.0
  9
$STEPSIZE
 40
6.0
  9
$3DDWFPREC
 40
2.0
  9
$PSOLWIDTH
 40
0.25
  9
$PSOLHEIGHT
 40
4.0
  9
$LOFTANG1
 40
1.570796326794897
  9
$LOFTANG2
 40
1.570796326794897
  9
$LOFTMAG1
 40
0.0
  9
$LOFTMAG2
 40
0.0
  9
$LOFTPARAM
 70
     7
  9
$LOFTNORMALS
280
     1
  9
$LATITUDE
 40
37.795
  9
$LONGITUDE
 40
-122.394
  9
$NORTHDIRECTION
 40
0.0
  9
$TIMEZONE
 70
 -8000
  9
$LIGHTGLYPHDISPLAY
280
     1
  9
$TILEMODELIGHTSYNCH
280
     1
  9
$SOLIDHIST
280
     1
  9
$SHOWHIST
280
     1
  9
$DWFFRAME
280
     2
  9
$DGNFRAME
280
     2
  9
$REALWORLDSCALE
290
     1
  9
$INTERFERECOLOR
 62
   256
  9
$CSHADOW
280
     0
  9
$SHADOWPLANELOCATION
 40
0.0
  0
ENDSEC
  0
SECTION
  2
CLASSES
  0
CLASS
  1
ACDBDICTIONARYWDFLT
  2
AcDbDictionaryWithDefault
  3
ObjectDBX Classes
 90
        0
 91
        4
280
     0
281
     0
  0
CLASS
  1
VISUALSTYLE
  2
AcDbVisualStyle
  3
ObjectDBX Classes
 90
     4095
 91
        4
280
     0
281
     0
  0
CLASS
  1
MATERIAL
  2
AcDbMaterial
  3
ObjectDBX Classes
 90
     1153
 91
        4
280
     0
281
     0
  0
CLASS
  1
SCALE
  2
AcDbScale
  3
ObjectDBX Classes
 90
     1153
 91
        4
280
     0
281
     0
  0
CLASS
  1
TABLESTYLE
  2
AcDbTableStyle
  3
ObjectDBX Classes
 90
     4095
 91
        4
280
     0
281
     0
  0
CLASS
  1
MLEADERSTYLE
  2
AcDbMLeaderStyle
  3
ACDB_MLEADERSTYLE_CLASS
 90
     4095
 91
        4
280
     0
281
     0
  0
CLASS
  1
DICTIONARYVAR
  2
AcDbDictionaryVar
  3
ObjectDBX Classes
 90
        0
 91
        4
280
     0
281
     0
  0
CLASS
  1
CELLSTYLEMAP
  2
AcDbCellStyleMap
  3
ObjectDBX Classes
 90
     1152
 91
        4
280
     0
281
     0
  0
ENDSEC
  0
SECTION
  2
TABLES
  0
TABLE
  2
VPORT
  5
8
330
0
100
AcDbSymbolTable
 70
     1
  0
VPORT
  5
29
330
8
100
AcDbSymbolTableRecord
100
AcDbViewportTableRecord
  2
*Active
 70
     0
 10
0.0
 20
0.0
 11
1.0
 21
1.0
 12
10.42990654205607
 22
4.5
 13
0.0
 23
0.0
 14
0.5
 24
0.5
 15
0.5
 25
0.5
 16
0.0
 26
0.0
 36
1.0
 17
0.0
 27
0.0
 37
0.0
 40
9.0
 41
1.972972972850329
 42
50.0
 43
0.0
 44
0.0
 50
0.0
 51
0.0
 71
     0
 72
   100
 73
     1
 74
     3
 75
     0
 76
     0
 77
     0
 78
     0
281
     0
 65
     1
110
0.0
120
0.0
130
0.0
111
1.0
121
0.0
131
0.0
112
0.0
122
1.0
132
0.0
 79
     0
146
0.0
348
2F
 60
     3
 61
     5
292
     1
282
     1
141
0.0
142
0.0
 63
   250
  0
ENDTAB
  0
TABLE
  2
LTYPE
  5
5
330
0
100
AcDbSymbolTable
 70
     1
  0
LTYPE
  5
14
330
5
100
AcDbSymbolTableRecord
100
AcDbLinetypeTableRecord
  2
ByBlock
 70
     0
  3

 72
    65
 73
     0
 40
0.0
  0
LTYPE
  5
15
330
5
100
AcDbSymbolTableRecord
100
AcDbLinetypeTableRecord
  2
ByLayer
 70
     0
  3

 72
    65
 73
     0
 40
0.0
  0
LTYPE
  5
16
330
5
100
AcDbSymbolTableRecord
100
AcDbLinetypeTableRecord
  2
Continuous
 70
     0
  3
Solid line
 72
    65
 73
     0
 40
0.0
  0
ENDTAB
  0
TABLE
  2
LAYER
  5
2
330
0
100
AcDbSymbolTable
 70
     2
  0
LAYER
  5
10
330
2
100
AcDbSymbolTableRecord
100
AcDbLayerTableRecord
  2
0
 70
     0
 62
     7
  6
Continuous
370
    -3
390
F
347
3E
348
0
  0
LAYER
  5
40
330
2
100
AcDbSymbolTableRecord
100
AcDbLayerTableRecord
  2
Capa 1
 70
     0
 62
     7
  6
Continuous
370
    -3
390
F
347
3E
348
0
  0
ENDTAB
  0
TABLE
  2
STYLE
  5
3
330
0
100
AcDbSymbolTable
 70
     1
  0
STYLE
  5
11
330
3
100
AcDbSymbolTableRecord
100
AcDbTextStyleTableRecord
  2
Standard
 70
     0
 40
0.0
 41
1.0
 50
0.0
 71
     0
 42
0.2
  3
txt
  4

  0
ENDTAB
  0
TABLE
  2
VIEW
  5
6
330
0
100
AcDbSymbolTable
 70
     0
  0
ENDTAB
  0
TABLE
  2
UCS
  5
7
330
0
100
AcDbSymbolTable
 70
     0
  0
ENDTAB
  0
TABLE
  2
APPID
  5
9
330
0
100
AcDbSymbolTable
 70
     2
  0
APPID
  5
12
330
9
100
AcDbSymbolTableRecord
100
AcDbRegAppTableRecord
  2
ACAD
 70
     0
  0
APPID
  5
3F
330
9
100
AcDbSymbolTableRecord
100
AcDbRegAppTableRecord
  2
ODA
 70
     0
  0
ENDTAB
  0
TABLE
  2
DIMSTYLE
  5
A
330
0
100
AcDbSymbolTable
 70
     1
100
AcDbDimStyleTable
  0
DIMSTYLE
105
27
330
A
100
AcDbSymbolTableRecord
100
AcDbDimStyleTableRecord
  2
Standard
 70
     0
178
     0
340
11
  0
ENDTAB
  0
TABLE
  2
BLOCK_RECORD
  5
1
330
0
100
AcDbSymbolTable
 70
     1
  0
BLOCK_RECORD
  5
1F
330
1
100
AcDbSymbolTableRecord
100
AcDbBlockTableRecord
  2
*Model_Space
340
22
 70
     0
280
     1
281
     0
  0
BLOCK_RECORD
  5
1B
330
1
100
AcDbSymbolTableRecord
100
AcDbBlockTableRecord
  2
*Paper_Space
340
1E
 70
     0
280
     1
281
     0
  0
BLOCK_RECORD
  5
23
330
1
100
AcDbSymbolTableRecord
100
AcDbBlockTableRecord
  2
*Paper_Space0
340
26
 70
     0
280
     1
281
     0
  0
ENDTAB
  0
ENDSEC
  0
SECTION
  2
BLOCKS
  0
BLOCK
  5
20
330
1F
100
AcDbEntity
  8
0
100
AcDbBlockBegin
  2
*Model_Space
 70
     0
 10
0.0
 20
0.0
 30
0.0
  3
*Model_Space
  1

  0
ENDBLK
  5
21
330
1F
100
AcDbEntity
  8
0
100
AcDbBlockEnd
  0
BLOCK
  5
1C
330
1B
100
AcDbEntity
 67
     1
  8
0
100
AcDbBlockBegin
  2
*Paper_Space
 70
     0
 10
0.0
 20
0.0
 30
0.0
  3
*Paper_Space
  1

  0
ENDBLK
  5
1D
330
1B
100
AcDbEntity
 67
     1
  8
0
100
AcDbBlockEnd
  0
BLOCK
  5
24
330
23
100
AcDbEntity
  8
0
100
AcDbBlockBegin
  2
*Paper_Space0
 70
     0
 10
0.0
 20
0.0
 30
0.0
  3
*Paper_Space0
  1

  0
ENDBLK
  5
25
330
23
100
AcDbEntity
  8
0
100
AcDbBlockEnd
  0
ENDSEC
  0
SECTION
  2
ENTITIES
  0
SPLINE
  5
41
330
1F
100
AcDbEntity
  8
Capa 1
 62
   250
370
    20
100
AcDbSpline
210
0.0
220
0.0
230
1.0
 70
    24
 71
     3
 72
     8
 73
     4
 74
     0
 42
0.000000001
 43
0.0000000001
 40
0.0
 40
0.0
 40
0.0
 40
0.0
 40
1.0
 40
1.0
 40
1.0
 40
1.0
 10
-176.6237
 20
141.9825
 30
0.0
 10
-176.6237
 20
141.9825
 30
0.0
 10
-176.6237
 20
138.9474
 30
0.0
 10
-176.6237
 20
138.9474
 30
0.0
  0
SPLINE
  5
42
330
1F
100
AcDbEntity
  8
Capa 1
 62
   250
370
    20
100
AcDbSpline
210
0.0
220
0.0
230
1.0
 70
    24
 71
     3
 72
     8
 73
     4
 74
     0
 42
0.000000001
 43
0.0000000001
 40
0.0
 40
0.0
 40
0.0
 40
0.0
 40
1.0
 40
1.0
 40
1.0
 40
1.0
 10
-176.6237
 20
7.8825
 30
0.0
 10
-176.6237
 20
7.8825
 30
0.0
 10
-176.6237
 20
4.8825
 30
0.0
 10
-176.6237
 20
4.8825
 30
0.0
  0
SPLINE
  5
43
330
1F
100
AcDbEntity
  8
Capa 1
 62
   250
370
    20
100
AcDbSpline
210
0.0
220
0.0
230
1.0
 70
    24
 71
     3
 72
     8
 73
     4
 74
     0
 42
0.000000001
 43
0.0000000001
 40
0.0
 40
0.0
 40
0.0
 40
0.0
 40
1.0
 40
1.0
 40
1.0
 40
1.0
 10
-176.4003
 20
141.9825
 30
0.0
 10
-176.4003
 20
141.9825
 30
0.0
 10
-176.387
 20
138.9825
 30
0.0
 10
-176.387
 20
138.9825
 30
0.0
  0
SPLINE
  5
44
330
1F
100
AcDbEntity
  8
Capa 1
 62
   250
370
    20
100
AcDbSpline
210
0.0
220
0.0
230
1.0
 70
    24
 71
     3
 72
     8
 73
     4
 74
     0
 42
0.000000001
 43
0.0000000001
 40
0.0
 40
0.0
 40
0.0
 40
0.0
 40
1.0
 40
1.0
 40
1.0
 40
1.0
 10
-176.3874
 20
7.8825
 30
0.0
 10
-176.3874
 20
7.8825
 30
0.0
 10
-176.3874
 20
4.8825
 30
0.0
 10
-176.3874
 20
4.8825
 30
0.0
  0
SPLINE
  5
45
330
1F
100
AcDbEntity
  8
Capa 1
 62
   250
370
    20
100
AcDbSpline
210
0.0
220
0.0
230
1.0
 70
    24
 71
     3
 72
     8
 73
     4
 74
     0
 42
0.000000001
 43
0.0000000001
 40
0.0
 40
0.0
 40
0.0
 40
0.0
 40
1.0
 40
1.0
 40
1.0
 40
1.0
 10
-176.3836
 20
-124.0175
 30
0.0
 10
-176.3836
 20
-124.0175
 30
0.0
 10
-176.4034
 20
-127.0175
 30
0.0
 10
-176.4034
 20
-127.0175
 30
0.0
  0
SPLINE
  5
46
330
1F
100
AcDbEntity
  8
Capa 1
 62
   250
370
    20
100
AcDbSpline
210
0.0
220
0.0
230
1.0
 70
    24
 71
     3
 72
     8
 73
     4
 74
     0
 42
0.000000001
 43
0.0000000001
 40
0.0
 40
0.0
 40
0.0
 40
0.0
 40
1.0
 40
1.0
 40
1.0
 40
1.0
 10
-176.6237
 20
-124.0175
 30
0.0
 10
-176.6237
 20
-124.0175
 30
0.0
 10
-176.6237
 20
-127.0175
 30
0.0
 10
-176.6237
 20
-127.0175
 30
0.0
  0
SPLINE
  5
47
330
1F
100
AcDbEntity
  8
Capa 1
 62
   250
370
    20
100
AcDbSpline
210
0.0
220
0.0
230
1.0
 70
    24
 71
     3
 72
     8
 73
     4
 74
     0
 42
0.000000001
 43
0.0000000001
 40
0.0
 40
0.0
 40
0.0
 40
0.0
 40
1.0
 40
1.0
 40
1.0
 40
1.0
 10
179.2534
 20
-124.0175
 30
0.0
 10
179.2534
 20
-124.0175
 30
0.0
 10
179.2798
 20
-127.0175
 30
0.0
 10
179.2798
 20
-127.0175
 30
0.0
  0
SPLINE
  5
48
330
1F
100
AcDbEntity
  8
Capa 1
 62
   250
370
    20
100
AcDbSpline
210
0.0
220
0.0
230
1.0
 70
    24
 71
     3
 72
     8
 73
     4
 74
     0
 42
0.000000001
 43
0.0000000001
 40
0.0
 40
0.0
 40
0.0
 40
0.0
 40
1.0
 40
1.0
 40
1.0
 40
1.0
 10
179.5763
 20
-124.0175
 30
0.0
 10
179.5763
 20
-124.0175
 30
0.0
 10
179.5763
 20
-127.0175
 30
0.0
 10
179.5763
 20
-127.0175
 30
0.0
  0
SPLINE
  5
49
330
1F
100
AcDbEntity
  8
Capa 1
 62
   250
370
    20
100
AcDbSpline
210
0.0
220
0.0
230
1.0
 70
    24
 71
     3
 72
     8
 73
     4
 74
     0
 42
0.000000001
 43
0.0000000001
 40
0.0
 40
0.0
 40
0.0
 40
0.0
 40
1.0
 40
1.0
 40
1.0
 40
1.0
 10
179.3666
 20
7.8825
 30
0.0
 10
179.3666
 20
7.8825
 30
0.0
 10
179.36
 20
4.8825
 30
0.0
 10
179.36
 20
4.8825
 30
0.0
  0
SPLINE
  5
4A
330
1F
100
AcDbEntity
  8
Capa 1
 62
   250
370
    20
100
AcDbSpline
210
0.0
220
0.0
230
1.0
 70
    24
 71
     3
 72
     8
 73
     4
 74
     0
 42
0.000000001
 43
0.0000000001
 40
0.0
 40
0.0
 40
0.0
 40
0.0
 40
1.0
 40
1.0
 40
1.0
 40
1.0
 10
179.5763
 20
7.8825
 30
0.0
 10
179.5763
 20
7.8825
 30
0.0
 10
179.5763
 20
4.8825
 30
0.0
 10
179.5763
 20
4.8825
 30
0.0
  0
SPLINE
  5
4B
330
1F
100
AcDbEntity
  8
Capa 1
 62
   250
370
    20
100
AcDbSpline
210
0.0
220
0.0
230
1.0
 70
    24
 71
     3
 72
     8
 73
     4
 74
     0
 42
0.000000001
 43
0.0000000001
 40
0.0
 40
0.0
 40
0.0
 40
0.0
 40
1.0
 40
1.0
 40
1.0
 40
1.0
 10
179.3174
 20
141.9825
 30
0.0
 10
179.3174
 20
141.9825
 30
0.0
 10
179.3174
 20
138.9825
 30
0.0
 10
179.3174
 20
138.9825
 30
0.0
  0
SPLINE
  5
4C
330
1F
100
AcDbEntity
  8
Capa 1
 62
   250
370
    20
100
AcDbSpline
210
0.0
220
0.0
230
1.0
 70
    24
 71
     3
 72
     8
 73
     4
 74
     0
 42
0.000000001
 43
0.0000000001
 40
0.0
 40
0.0
 40
0.0
 40
0.0
 40
1.0
 40
1.0
 40
1.0
 40
1.0
 10
179.5763
 20
141.9825
 30
0.0
 10
179.5763
 20
141.9825
 30
0.0
 10
179.5763
 20
138.9825
 30
0.0
 10
179.5763
 20
138.9825
 30
0.0
  0
SPLINE
  5
4D
330
1F
100
AcDbEntity
  8
Capa 1
370
    15
100
AcDbSpline
210
0.0
220
0.0
230
1.0
 70
    24
 71
     3
 72
     8
 73
     4
 74
     0
 42
0.000000001
 43
0.0000000001
 40
0.0
 40
0.0
 40
0.0
 40
0.0
 40
1.0
 40
1.0
 40
1.0
 40
1.0
 10
113.2763
 20
-145.1175
 30
0.0
 10
113.2763
 20
-145.1175
 30
0.0
 10
103.2763
 20
-145.1175
 30
0.0
 10
103.2763
 20
-145.1175
 30
0.0
  0
SPLINE
  5
4E
330
1F
100
AcDbEntity
  8
Capa 1
370
    15
100
AcDbSpline
210
0.0
220
0.0
230
1.0
 70
     8
 71
     3
 72
    12
 73
     8
 74
     0
 42
0.000000001
 43
0.0000000001
 40
0.0
 40
0.0
 40
0.0
 40
0.0
 40
0.3333333333333333
 40
0.3333333333333333
 40
0.3333333333333333
 40
0.3333333333333333
 40
1.0
 40
1.0
 40
1.0
 40
1.0
 10
113.2763
 20
-151.3174
 30
0.0
 10
114.9883
 20
-151.3174
 30
0.0
 10
116.3762
 20
-149.9295
 30
0.0
 10
116.3762
 20
-148.2175
 30
0.0
 10
116.3762
 20
-148.2175
 30
0.0
 10
116.3763
 20
-146.5054
 30
0.0
 10
114.9883
 20
-145.1175
 30
0.0
 10
113.2763
 20
-145.1175
 30
0.0
  0
SPLINE
  5
4F
330
1F
100
AcDbEntity
  8
Capa 1
370
    15
100
AcDbSpline
210
0.0
220
0.0
230
1.0
 70
     8
 71
     3
 72
    16
 73
    12
 74
     0
 42
0.000000001
 43
0.0000000001
 40
0.0
 40
0.0
 40
0.0
 40
0.0
 40
0.25
 40
0.25
 40
0.25
 40
0.25
 40
0.5
 40
0.5
 40
0.5
 40
0.5
 40
1.0
 40
1.0
 40
1.0
 40
1.0
 10
103.2763
 20
-145.1175
 30
0.0
 10
102.1687
 20
-145.1175
 30
0.0
 10
101.1453
 20
-145.7083
 30
0.0
 10
100.5916
 20
-146.6675
 30
0.0
 10
100.5916
 20
-146.6675
 30
0.0
 10
100.0378
 20
-147.6266
 30
0.0
 10
100.0378
 20
-148.8083
 30
0.0
 10
100.5916
 20
-149.7674
 30
0.0
 10
100.5916
 20
-149.7674
 30
0.0
 10
101.1453
 20
-150.7266
 30
0.0
 10
102.1687
 20
-151.3174
 30
0.0
 10
103.2763
 20
-151.3174
 30
0.0
  0
SPLINE
  5
50
330
1F
100
AcDbEntity
  8
Capa 1
370
    15
100
AcDbSpline
210
0.0
220
0.0
230
1.0
 70
     8
 71
     3
 72
    20
 73
    16
 74
     0
 42
0.000000001
 43
0.0000000001
 40
0.0
 40
0.0
 40
0.0
 40
0.0
 40
0.2
 40
0.2
 40
0.2
 40
0.2
 40
0.4
 40
0.4
 40
0.4
 40
0.4
 40
0.6
 40
0.6
 40
0.6
 40
0.6
 40
1.0
 40
1.0
 40
1.0
 40
1.0
 10
3.0765
 20
184.2325
 30
0.0
 10
3.0765
 20
185.1161
 30
0.0
 10
2.3602
 20
185.8324
 30
0.0
 10
1.4766
 20
185.8324
 30
0.0
 10
1.4766
 20
185.8324
 30
0.0
 10
0.593
 20
185.8325
 30
0.0
 10
-0.1233
 20
185.1161
 30
0.0
 10
-0.1233
 20
184.2325
 30
0.0
 10
-0.1233
 20
184.2325
 30
0.0
 10
-0.1234
 20
183.3488
 30
0.0
 10
0.593
 20
182.6325
 30
0.0
 10
1.4766
 20
182.6325
 30
0.0
 10
1.4766
 20
182.6325
 30
0.0
 10
2.3602
 20
182.6324
 30
0.0
 10
3.0765
 20
183.3488
 30
0.0
 10
3.0765
 20
184.2324
 30
0.0
  0
SPLINE
  5
51
330
1F
100
AcDbEntity
  8
Capa 1
370
    15
100
AcDbSpline
210
0.0
220
0.0
230
1.0
 70
    11
 71
     3
 72
    20
 73
    16
 74
     0
 42
0.000000001
 43
0.0000000001
 40
0.0
 40
0.0
 40
0.0
 40
0.0
 40
0.2
 40
0.2
 40
0.2
 40
0.2
 40
0.4
 40
0.4
 40
0.4
 40
0.4
 40
0.6
 40
0.6
 40
0.6
 40
0.6
 40
1.0
 40
1.0
 40
1.0
 40
1.0
 10
-128.7237
 20
-149.7675
 30
0.0
 10
-128.7237
 20
-148.8838
 30
0.0
 10
-129.44
 20
-148.1675
 30
0.0
 10
-130.3236
 20
-148.1675
 30
0.0
 10
-130.3236
 20
-148.1675
 30
0.0
 10
-131.2073
 20
-148.1674
 30
0.0
 10
-131.9236
 20
-148.8838
 30
0.0
 10
-131.9236
 20
-149.7674
 30
0.0
 10
-131.9236
 20
-149.7674
 30
0.0
 10
-131.9237
 20
-150.6511
 30
0.0
 10
-131.2073
 20
-151.3674
 30
0.0
 10
-130.3237
 20
-151.3674
 30
0.0
 10
-130.3237
 20
-151.3674
 30
0.0
 10
-129.44
 20
-151.3675
 30
0.0
 10
-128.7237
 20
-150.6511
 30
0.0
 10
-128.7237
 20
-149.7675
 30
0.0
  0
SPLINE
  5
52
330
1F
100
AcDbEntity
  8
Capa 1
370
    15
100
AcDbSpline
210
0.0
220
0.0
230
1.0
 70
     8
 71
     3
 72
    20
 73
    16
 74
     0
 42
0.000000001
 43
0.0000000001
 40
0.0
 40
0.0
 40
0.0
 40
0.0
 40
0.2
 40
0.2
 40
0.2
 40
0.2
 40
0.4
 40
0.4
 40
0.4
 40
0.4
 40
0.6
 40
0.6
 40
0.6
 40
0.6
 40
1.0
 40
1.0
 40
1.0
 40
1.0
 10
-128.7237
 20
184.2325
 30
0.0
 10
-128.7237
 20
185.1161
 30
0.0
 10
-129.44
 20
185.8324
 30
0.0
 10
-130.3236
 20
185.8324
 30
0.0
 10
-130.3236
 20
185.8324
 30
0.0
 10
-131.2073
 20
185.8325
 30
0.0
 10
-131.9236
 20
185.1161
 30
0.0
 10
-131.9236
 20
184.2325
 30
0.0
 10
-131.9236
 20
184.2325
 30
0.0
 10
-131.9237
 20
183.3488
 30
0.0
 10
-131.2073
 20
182.6325
 30
0.0
 10
-130.3237
 20
182.6325
 30
0.0
 10
-130.3237
 20
182.6325
 30
0.0
 10
-129.44
 20
182.6324
 30
0.0
 10
-128.7237
 20
183.3488
 30
0.0
 10
-128.7237
 20
184.2324
 30
0.0
  0
SPLINE
  5
53
330
1F
100
AcDbEntity
  8
Capa 1
370
    15
100
AcDbSpline
210
0.0
220
0.0
230
1.0
 70
     8
 71
     3
 72
    20
 73
    16
 74
     0
 42
0.000000001
 43
0.0000000001
 40
0.0
 40
0.0
 40
0.0
 40
0.0
 40
0.2
 40
0.2
 40
0.2
 40
0.2
 40
0.4
 40
0.4
 40
0.4
 40
0.4
 40
0.6
 40
0.6
 40
0.6
 40
0.6
 40
1.0
 40
1.0
 40
1.0
 40
1.0
 10
-147.2737
 20
151.7825
 30
0.0
 10
-147.2737
 20
156.2007
 30
0.0
 10
-150.8554
 20
159.7824
 30
0.0
 10
-155.2736
 20
159.7824
 30
0.0
 10
-155.2736
 20
159.7824
 30
0.0
 10
-159.6919
 20
159.7825
 30
0.0
 10
-163.2736
 20
156.2007
 30
0.0
 10
-163.2736
 20
151.7825
 30
0.0
 10
-163.2736
 20
151.7825
 30
0.0
 10
-163.2737
 20
147.3642
 30
0.0
 10
-159.692
 20
143.7825
 30
0.0
 10
-155.2737
 20
143.7825
 30
0.0
 10
-155.2737
 20
143.7825
 30
0.0
 10
-150.8554
 20
143.7824
 30
0.0
 10
-147.2737
 20
147.3641
 30
0.0
 10
-147.2737
 20
151.7824
 30
0.0
  0
SPLINE
  5
54
330
1F
100
AcDbEntity
  8
Capa 1
370
    15
100
AcDbSpline
210
0.0
220
0.0
230
1.0
 70
    24
 71
     3
 72
     8
 73
     4
 74
     0
 42
0.000000001
 43
0.0000000001
 40
0.0
 40
0.0
 40
0.0
 40
0.0
 40
1.0
 40
1.0
 40
1.0
 40
1.0
 10
-150.3237
 20
-145.1175
 30
0.0
 10
-150.3237
 20
-145.1175
 30
0.0
 10
-160.3237
 20
-145.1175
 30
0.0
 10
-160.3237
 20
-145.1175
 30
0.0
  0
SPLINE
  5
55
330
1F
100
AcDbEntity
  8
Capa 1
370
    15
100
AcDbSpline
210
0.0
220
0.0
230
1.0
 70
     8
 71
     3
 72
    12
 73
     8
 74
     0
 42
0.000000001
 43
0.0000000001
 40
0.0
 40
0.0
 40
0.0
 40
0.0
 40
0.3333333333333333
 40
0.3333333333333333
 40
0.3333333333333333
 40
0.3333333333333333
 40
1.0
 40
1.0
 40
1.0
 40
1.0
 10
-150.3237
 20
-151.3174
 30
0.0
 10
-148.6116
 20
-151.3174
 30
0.0
 10
-147.2237
 20
-149.9295
 30
0.0
 10
-147.2237
 20
-148.2175
 30
0.0
 10
-147.2237
 20
-148.2175
 30
0.0
 10
-147.2236
 20
-146.5054
 30
0.0
 10
-148.6116
 20
-145.1175
 30
0.0
 10
-150.3236
 20
-145.1175
 30
0.0
  0
SPLINE
  5
56
330
1F
100
AcDbEntity
  8
Capa 1
370
    15
100
AcDbSpline
210
0.0
220
0.0
230
1.0
 70
    24
 71
     3
 72
     8
 73
     4
 74
     0
 42
0.000000001
 43
0.0000000001
 40
0.0
 40
0.0
 40
0.0
 40
0.0
 40
1.0
 40
1.0
 40
1.0
 40
1.0
 10
-160.3237
 20
-151.3175
 30
0.0
 10
-160.3237
 20
-151.3175
 30
0.0
 10
-150.3237
 20
-151.3175
 30
0.0
 10
-150.3237
 20
-151.3175
 30
0.0
  0
SPLINE
  5
57
330
1F
100
AcDbEntity
  8
Capa 1
370
    15
100
AcDbSpline
210
0.0
220
0.0
230
1.0
 70
     8
 71
     3
 72
    16
 73
    12
 74
     0
 42
0.000000001
 43
0.0000000001
 40
0.0
 40
0.0
 40
0.0
 40
0.0
 40
0.25
 40
0.25
 40
0.25
 40
0.25
 40
0.5
 40
0.5
 40
0.5
 40
0.5
 40
1.0
 40
1.0
 40
1.0
 40
1.0
 10
-160.3237
 20
-145.1175
 30
0.0
 10
-161.4312
 20
-145.1175
 30
0.0
 10
-162.4546
 20
-145.7083
 30
0.0
 10
-163.0083
 20
-146.6675
 30
0.0
 10
-163.0083
 20
-146.6675
 30
0.0
 10
-163.5621
 20
-147.6266
 30
0.0
 10
-163.5621
 20
-148.8083
 30
0.0
 10
-163.0083
 20
-149.7674
 30
0.0
 10
-163.0083
 20
-149.7674
 30
0.0
 10
-162.4546
 20
-150.7266
 30
0.0
 10
-161.4312
 20
-151.3174
 30
0.0
 10
-160.3237
 20
-151.3174
 30
0.0
  0
SPLINE
  5
58
330
1F
100
AcDbEntity
  8
Capa 1
370
    15
100
AcDbSpline
210
0.0
220
0.0
230
1.0
 70
    24
 71
     3
 72
     8
 73
     4
 74
     0
 42
0.000000001
 43
0.0000000001
 40
0.0
 40
0.0
 40
0.0
 40
0.0
 40
1.0
 40
1.0
 40
1.0
 40
1.0
 10
-100.2737
 20
188.8825
 30
0.0
 10
-100.2737
 20
188.8825
 30
0.0
 10
-110.2737
 20
188.8825
 30
0.0
 10
-110.2737
 20
188.8825
 30
0.0
  0
SPLINE
  5
59
330
1F
100
AcDbEntity
  8
Capa 1
370
    15
100
AcDbSpline
210
0.0
220
0.0
230
1.0
 70
     8
 71
     3
 72
    12
 73
     8
 74
     0
 42
0.000000001
 43
0.0000000001
 40
0.0
 40
0.0
 40
0.0
 40
0.0
 40
0.3333333333333333
 40
0.3333333333333333
 40
0.3333333333333333
 40
0.3333333333333333
 40
1.0
 40
1.0
 40
1.0
 40
1.0
 10
-100.2737
 20
182.6825
 30
0.0
 10
-98.5616
 20
182.6825
 30
0.0
 10
-97.1737
 20
184.0704
 30
0.0
 10
-97.1737
 20
185.7824
 30
0.0
 10
-97.1737
 20
185.7824
 30
0.0
 10
-97.1736
 20
187.4945
 30
0.0
 10
-98.5616
 20
188.8824
 30
0.0
 10
-100.2736
 20
188.8824
 30
0.0
  0
SPLINE
  5
5A
330
1F
100
AcDbEntity
  8
Capa 1
370
    15
100
AcDbSpline
210
0.0
220
0.0
230
1.0
 70
    24
 71
     3
 72
     8
 73
     4
 74
     0
 42
0.000000001
 43
0.0000000001
 40
0.0
 40
0.0
 40
0.0
 40
0.0
 40
1.0
 40
1.0
 40
1.0
 40
1.0
 10
-110.2737
 20
182.6825
 30
0.0
 10
-110.2737
 20
182.6825
 30
0.0
 10
-100.2737
 20
182.6825
 30
0.0
 10
-100.2737
 20
182.6825
 30
0.0
  0
SPLINE
  5
5B
330
1F
100
AcDbEntity
  8
Capa 1
370
    15
100
AcDbSpline
210
0.0
220
0.0
230
1.0
 70
     8
 71
     3
 72
    16
 73
    12
 74
     0
 42
0.000000001
 43
0.0000000001
 40
0.0
 40
0.0
 40
0.0
 40
0.0
 40
0.25
 40
0.25
 40
0.25
 40
0.25
 40
0.5
 40
0.5
 40
0.5
 40
0.5
 40
1.0
 40
1.0
 40
1.0
 40
1.0
 10
-110.2737
 20
188.8824
 30
0.0
 10
-111.3812
 20
188.8824
 30
0.0
 10
-112.4046
 20
188.2916
 30
0.0
 10
-112.9583
 20
187.3324
 30
0.0
 10
-112.9583
 20
187.3324
 30
0.0
 10
-113.5121
 20
186.3733
 30
0.0
 10
-113.5121
 20
185.1916
 30
0.0
 10
-112.9583
 20
184.2325
 30
0.0
 10
-112.9583
 20
184.2325
 30
0.0
 10
-112.4046
 20
183.2733
 30
0.0
 10
-111.3812
 20
182.6825
 30
0.0
 10
-110.2737
 20
182.6825
 30
0.0
  0
SPLINE
  5
5C
330
1F
100
AcDbEntity
  8
Capa 1
370
    15
100
AcDbSpline
210
0.0
220
0.0
230
1.0
 70
    24
 71
     3
 72
     8
 73
     4
 74
     0
 42
0.000000001
 43
0.0000000001
 40
0.0
 40
0.0
 40
0.0
 40
0.0
 40
1.0
 40
1.0
 40
1.0
 40
1.0
 10
-11.5234
 20
188.8825
 30
0.0
 10
-11.5234
 20
188.8825
 30
0.0
 10
-21.5234
 20
188.8825
 30
0.0
 10
-21.5234
 20
188.8825
 30
0.0
  0
SPLINE
  5
5D
330
1F
100
AcDbEntity
  8
Capa 1
370
    15
100
AcDbSpline
210
0.0
220
0.0
230
1.0
 70
     8
 71
     3
 72
    12
 73
     8
 74
     0
 42
0.000000001
 43
0.0000000001
 40
0.0
 40
0.0
 40
0.0
 40
0.0
 40
0.3333333333333333
 40
0.3333333333333333
 40
0.3333333333333333
 40
0.3333333333333333
 40
1.0
 40
1.0
 40
1.0
 40
1.0
 10
-11.5234
 20
182.6825
 30
0.0
 10
-9.8113
 20
182.6825
 30
0.0
 10
-8.4234
 20
184.0704
 30
0.0
 10
-8.4234
 20
185.7824
 30
0.0
 10
-8.4234
 20
185.7824
 30
0.0
 10
-8.4233
 20
187.4945
 30
0.0
 10
-9.8113
 20
188.8824
 30
0.0
 10
-11.5233
 20
188.8824
 30
0.0
  0
SPLINE
  5
5E
330
1F
100
AcDbEntity
  8
Capa 1
370
    15
100
AcDbSpline
210
0.0
220
0.0
230
1.0
 70
     8
 71
     3
 72
    16
 73
    12
 74
     0
 42
0.000000001
 43
0.0000000001
 40
0.0
 40
0.0
 40
0.0
 40
0.0
 40
0.25
 40
0.25
 40
0.25
 40
0.25
 40
0.5
 40
0.5
 40
0.5
 40
0.5
 40
1.0
 40
1.0
 40
1.0
 40
1.0
 10
-21.5234
 20
188.8824
 30
0.0
 10
-22.6309
 20
188.8824
 30
0.0
 10
-23.6543
 20
188.2916
 30
0.0
 10
-24.208
 20
187.3324
 30
0.0
 10
-24.208
 20
187.3324
 30
0.0
 10
-24.7618
 20
186.3733
 30
0.0
 10
-24.7618
 20
185.1916
 30
0.0
 10
-24.208
 20
184.2325
 30
0.0
 10
-24.208
 20
184.2325
 30
0.0
 10
-23.6543
 20
183.2733
 30
0.0
 10
-22.6309
 20
182.6825
 30
0.0
 10
-21.5234
 20
182.6825
 30
0.0
  0
SPLINE
  5
5F
330
1F
100
AcDbEntity
  8
Capa 1
370
    15
100
AcDbSpline
210
0.0
220
0.0
230
1.0
 70
     8
 71
     3
 72
    20
 73
    16
 74
     0
 42
0.000000001
 43
0.0000000001
 40
0.0
 40
0.0
 40
0.0
 40
0.0
 40
0.2
 40
0.2
 40
0.2
 40
0.2
 40
0.4
 40
0.4
 40
0.4
 40
0.4
 40
0.6
 40
0.6
 40
0.6
 40
0.6
 40
1.0
 40
1.0
 40
1.0
 40
1.0
 10
134.8763
 20
-149.7675
 30
0.0
 10
134.8763
 20
-148.8838
 30
0.0
 10
134.1599
 20
-148.1675
 30
0.0
 10
133.2763
 20
-148.1675
 30
0.0
 10
133.2763
 20
-148.1675
 30
0.0
 10
132.3926
 20
-148.1674
 30
0.0
 10
131.6763
 20
-148.8838
 30
0.0
 10
131.6763
 20
-149.7674
 30
0.0
 10
131.6763
 20
-149.7674
 30
0.0
 10
131.6762
 20
-150.6511
 30
0.0
 10
132.3926
 20
-151.3674
 30
0.0
 10
133.2762
 20
-151.3674
 30
0.0
 10
133.2762
 20
-151.3674
 30
0.0
 10
134.1599
 20
-151.3675
 30
0.0
 10
134.8762
 20
-150.6511
 30
0.0
 10
134.8762
 20
-149.7675
 30
0.0
  0
SPLINE
  5
60
330
1F
100
AcDbEntity
  8
Capa 1
370
    15
100
AcDbSpline
210
0.0
220
0.0
230
1.0
 70
     8
 71
     3
 72
    20
 73
    16
 74
     0
 42
0.000000001
 43
0.0000000001
 40
0.0
 40
0.0
 40
0.0
 40
0.0
 40
0.2
 40
0.2
 40
0.2
 40
0.2
 40
0.4
 40
0.4
 40
0.4
 40
0.4
 40
0.6
 40
0.6
 40
0.6
 40
0.6
 40
1.0
 40
1.0
 40
1.0
 40
1.0
 10
134.8763
 20
184.2325
 30
0.0
 10
134.8763
 20
185.1161
 30
0.0
 10
134.1599
 20
185.8324
 30
0.0
 10
133.2763
 20
185.8324
 30
0.0
 10
133.2763
 20
185.8324
 30
0.0
 10
132.3926
 20
185.8325
 30
0.0
 10
131.6763
 20
185.1161
 30
0.0
 10
131.6763
 20
184.2325
 30
0.0
 10
131.6763
 20
184.2325
 30
0.0
 10
131.6762
 20
183.3488
 30
0.0
 10
132.3926
 20
182.6325
 30
0.0
 10
133.2762
 20
182.6325
 30
0.0
 10
133.2762
 20
182.6325
 30
0.0
 10
134.1599
 20
182.6324
 30
0.0
 10
134.8762
 20
183.3488
 30
0.0
 10
134.8762
 20
184.2324
 30
0.0
  0
SPLINE
  5
61
330
1F
100
AcDbEntity
  8
Capa 1
370
    15
100
AcDbSpline
210
0.0
220
0.0
230
1.0
 70
     8
 71
     3
 72
    20
 73
    16
 74
     0
 42
0.000000001
 43
0.0000000001
 40
0.0
 40
0.0
 40
0.0
 40
0.0
 40
0.2
 40
0.2
 40
0.2
 40
0.2
 40
0.4
 40
0.4
 40
0.4
 40
0.4
 40
0.6
 40
0.6
 40
0.6
 40
0.6
 40
1.0
 40
1.0
 40
1.0
 40
1.0
 10
166.2263
 20
151.7825
 30
0.0
 10
166.2263
 20
156.2007
 30
0.0
 10
162.6445
 20
159.7824
 30
0.0
 10
158.2263
 20
159.7824
 30
0.0
 10
158.2263
 20
159.7824
 30
0.0
 10
153.808
 20
159.7825
 30
0.0
 10
150.2263
 20
156.2007
 30
0.0
 10
150.2263
 20
151.7825
 30
0.0
 10
150.2263
 20
151.7825
 30
0.0
 10
150.2262
 20
147.3642
 30
0.0
 10
153.8079
 20
143.7825
 30
0.0
 10
158.2262
 20
143.7825
 30
0.0
 10
158.2262
 20
143.7825
 30
0.0
 10
162.6445
 20
143.7824
 30
0.0
 10
166.2262
 20
147.3641
 30
0.0
 10
166.2262
 20
151.7824
 30
0.0
  0
SPLINE
  5
62
330
1F
100
AcDbEntity
  8
Capa 1
370
    15
100
AcDbSpline
210
0.0
220
0.0
230
1.0
 70
    24
 71
     3
 72
     8
 73
     4
 74
     0
 42
0.000000001
 43
0.0000000001
 40
0.0
 40
0.0
 40
0.0
 40
0.0
 40
1.0
 40
1.0
 40
1.0
 40
1.0
 10
153.2763
 20
-151.3175
 30
0.0
 10
153.2763
 20
-151.3175
 30
0.0
 10
163.2763
 20
-151.3175
 30
0.0
 10
163.2763
 20
-151.3175
 30
0.0
  0
SPLINE
  5
63
330
1F
100
AcDbEntity
  8
Capa 1
370
    15
100
AcDbSpline
210
0.0
220
0.0
230
1.0
 70
     8
 71
     3
 72
    16
 73
    12
 74
     0
 42
0.000000001
 43
0.0000000001
 40
0.0
 40
0.0
 40
0.0
 40
0.0
 40
0.25
 40
0.25
 40
0.25
 40
0.25
 40
0.5
 40
0.5
 40
0.5
 40
0.5
 40
1.0
 40
1.0
 40
1.0
 40
1.0
 10
153.2763
 20
-145.1175
 30
0.0
 10
152.1687
 20
-145.1175
 30
0.0
 10
151.1453
 20
-145.7083
 30
0.0
 10
150.5916
 20
-146.6675
 30
0.0
 10
150.5916
 20
-146.6675
 30
0.0
 10
150.0378
 20
-147.6266
 30
0.0
 10
150.0378
 20
-148.8083
 30
0.0
 10
150.5916
 20
-149.7674
 30
0.0
 10
150.5916
 20
-149.7674
 30
0.0
 10
151.1453
 20
-150.7266
 30
0.0
 10
152.1687
 20
-151.3174
 30
0.0
 10
153.2763
 20
-151.3174
 30
0.0
  0
SPLINE
  5
64
330
1F
100
AcDbEntity
  8
Capa 1
370
    15
100
AcDbSpline
210
0.0
220
0.0
230
1.0
 70
    24
 71
     3
 72
     8
 73
     4
 74
     0
 42
0.000000001
 43
0.0000000001
 40
0.0
 40
0.0
 40
0.0
 40
0.0
 40
1.0
 40
1.0
 40
1.0
 40
1.0
 10
163.2763
 20
-145.1175
 30
0.0
 10
163.2763
 20
-145.1175
 30
0.0
 10
153.2763
 20
-145.1175
 30
0.0
 10
153.2763
 20
-145.1175
 30
0.0
  0
SPLINE
  5
65
330
1F
100
AcDbEntity
  8
Capa 1
370
    15
100
AcDbSpline
210
0.0
220
0.0
230
1.0
 70
     8
 71
     3
 72
    12
 73
     8
 74
     0
 42
0.000000001
 43
0.0000000001
 40
0.0
 40
0.0
 40
0.0
 40
0.0
 40
0.3333333333333333
 40
0.3333333333333333
 40
0.3333333333333333
 40
0.3333333333333333
 40
1.0
 40
1.0
 40
1.0
 40
1.0
 10
163.2763
 20
-151.3174
 30
0.0
 10
164.9883
 20
-151.3174
 30
0.0
 10
166.3762
 20
-149.9295
 30
0.0
 10
166.3762
 20
-148.2175
 30
0.0
 10
166.3762
 20
-148.2175
 30
0.0
 10
166.3763
 20
-146.5054
 30
0.0
 10
164.9883
 20
-145.1175
 30
0.0
 10
163.2763
 20
-145.1175
 30
0.0
  0
SPLINE
  5
66
330
1F
100
AcDbEntity
  8
Capa 1
370
    15
100
AcDbSpline
210
0.0
220
0.0
230
1.0
 70
    24
 71
     3
 72
     8
 73
     4
 74
     0
 42
0.000000001
 43
0.0000000001
 40
0.0
 40
0.0
 40
0.0
 40
0.0
 40
1.0
 40
1.0
 40
1.0
 40
1.0
 10
103.2263
 20
182.6825
 30
0.0
 10
103.2263
 20
182.6825
 30
0.0
 10
113.2263
 20
182.6825
 30
0.0
 10
113.2263
 20
182.6825
 30
0.0
  0
SPLINE
  5
67
330
1F
100
AcDbEntity
  8
Capa 1
370
    15
100
AcDbSpline
210
0.0
220
0.0
230
1.0
 70
     8
 71
     3
 72
    16
 73
    12
 74
     0
 42
0.000000001
 43
0.0000000001
 40
0.0
 40
0.0
 40
0.0
 40
0.0
 40
0.25
 40
0.25
 40
0.25
 40
0.25
 40
0.5
 40
0.5
 40
0.5
 40
0.5
 40
1.0
 40
1.0
 40
1.0
 40
1.0
 10
103.2263
 20
188.8824
 30
0.0
 10
102.1187
 20
188.8824
 30
0.0
 10
101.0953
 20
188.2916
 30
0.0
 10
100.5416
 20
187.3324
 30
0.0
 10
100.5416
 20
187.3324
 30
0.0
 10
99.9878
 20
186.3733
 30
0.0
 10
99.9878
 20
185.1916
 30
0.0
 10
100.5416
 20
184.2325
 30
0.0
 10
100.5416
 20
184.2325
 30
0.0
 10
101.0953
 20
183.2733
 30
0.0
 10
102.1187
 20
182.6825
 30
0.0
 10
103.2263
 20
182.6825
 30
0.0
  0
SPLINE
  5
68
330
1F
100
AcDbEntity
  8
Capa 1
370
    15
100
AcDbSpline
210
0.0
220
0.0
230
1.0
 70
    24
 71
     3
 72
     8
 73
     4
 74
     0
 42
0.000000001
 43
0.0000000001
 40
0.0
 40
0.0
 40
0.0
 40
0.0
 40
1.0
 40
1.0
 40
1.0
 40
1.0
 10
113.2263
 20
188.8825
 30
0.0
 10
113.2263
 20
188.8825
 30
0.0
 10
103.2263
 20
188.8825
 30
0.0
 10
103.2263
 20
188.8825
 30
0.0
  0
SPLINE
  5
69
330
1F
100
AcDbEntity
  8
Capa 1
370
    15
100
AcDbSpline
210
0.0
220
0.0
230
1.0
 70
     8
 71
     3
 72
    12
 73
     8
 74
     0
 42
0.000000001
 43
0.0000000001
 40
0.0
 40
0.0
 40
0.0
 40
0.0
 40
0.3333333333333333
 40
0.3333333333333333
 40
0.3333333333333333
 40
0.3333333333333333
 40
1.0
 40
1.0
 40
1.0
 40
1.0
 10
113.2263
 20
182.6825
 30
0.0
 10
114.9383
 20
182.6825
 30
0.0
 10
116.3262
 20
184.0704
 30
0.0
 10
116.3262
 20
185.7824
 30
0.0
 10
116.3262
 20
185.7824
 30
0.0
 10
116.3263
 20
187.4945
 30
0.0
 10
114.9383
 20
188.8824
 30
0.0
 10
113.2263
 20
188.8824
 30
0.0
  0
SPLINE
  5
6A
330
1F
100
AcDbEntity
  8
Capa 1
370
    15
100
AcDbSpline
210
0.0
220
0.0
230
1.0
 70
     8
 71
     3
 72
    16
 73
    12
 74
     0
 42
0.000000001
 43
0.0000000001
 40
0.0
 40
0.0
 40
0.0
 40
0.0
 40
0.25
 40
0.25
 40
0.25
 40
0.25
 40
0.5
 40
0.5
 40
0.5
 40
0.5
 40
1.0
 40
1.0
 40
1.0
 40
1.0
 10
14.4766
 20
188.8824
 30
0.0
 10
13.369
 20
188.8824
 30
0.0
 10
12.3456
 20
188.2916
 30
0.0
 10
11.7919
 20
187.3324
 30
0.0
 10
11.7919
 20
187.3324
 30
0.0
 10
11.2381
 20
186.3733
 30
0.0
 10
11.2381
 20
185.1916
 30
0.0
 10
11.7919
 20
184.2325
 30
0.0
 10
11.7919
 20
184.2325
 30
0.0
 10
12.3456
 20
183.2733
 30
0.0
 10
13.369
 20
182.6825
 30
0.0
 10
14.4766
 20
182.6825
 30
0.0
  0
SPLINE
  5
6B
330
1F
100
AcDbEntity
  8
Capa 1
370
    15
100
AcDbSpline
210
0.0
220
0.0
230
1.0
 70
    24
 71
     3
 72
     8
 73
     4
 74
     0
 42
0.000000001
 43
0.0000000001
 40
0.0
 40
0.0
 40
0.0
 40
0.0
 40
1.0
 40
1.0
 40
1.0
 40
1.0
 10
24.4766
 20
188.8825
 30
0.0
 10
24.4766
 20
188.8825
 30
0.0
 10
14.4766
 20
188.8825
 30
0.0
 10
14.4766
 20
188.8825
 30
0.0
  0
SPLINE
  5
6C
330
1F
100
AcDbEntity
  8
Capa 1
370
    15
100
AcDbSpline
210
0.0
220
0.0
230
1.0
 70
     8
 71
     3
 72
    12
 73
     8
 74
     0
 42
0.000000001
 43
0.0000000001
 40
0.0
 40
0.0
 40
0.0
 40
0.0
 40
0.3333333333333333
 40
0.3333333333333333
 40
0.3333333333333333
 40
0.3333333333333333
 40
1.0
 40
1.0
 40
1.0
 40
1.0
 10
24.4766
 20
182.6825
 30
0.0
 10
26.1886
 20
182.6825
 30
0.0
 10
27.5765
 20
184.0704
 30
0.0
 10
27.5765
 20
185.7824
 30
0.0
 10
27.5765
 20
185.7824
 30
0.0
 10
27.5766
 20
187.4945
 30
0.0
 10
26.1886
 20
188.8824
 30
0.0
 10
24.4766
 20
188.8824
 30
0.0
  0
SPLINE
  5
6D
330
1F
100
AcDbEntity
  8
Capa 1
370
    15
100
AcDbSpline
210
0.0
220
0.0
230
1.0
 70
    24
 71
     3
 72
     8
 73
     4
 74
     0
 42
0.000000001
 43
0.0000000001
 40
0.0
 40
0.0
 40
0.0
 40
0.0
 40
1.0
 40
1.0
 40
1.0
 40
1.0
 10
-144.0237
 20
150.7825
 30
0.0
 10
-144.0237
 20
150.7825
 30
0.0
 10
-144.0237
 20
-109.4997
 30
0.0
 10
-144.0237
 20
-109.4997
 30
0.0
  0
SPLINE
  5
6E
330
1F
100
AcDbEntity
  8
Capa 1
370
    15
100
AcDbSpline
210
0.0
220
0.0
230
1.0
 70
     8
 71
     3
 72
    12
 73
     8
 74
     0
 42
0.000000001
 43
0.0000000001
 40
0.0
 40
0.0
 40
0.0
 40
0.0
 40
0.3333333333333333
 40
0.3333333333333333
 40
0.3333333333333333
 40
0.3333333333333333
 40
1.0
 40
1.0
 40
1.0
 40
1.0
 10
-137.0237
 20
157.7824
 30
0.0
 10
-138.8802
 20
157.7824
 30
0.0
 10
-140.6606
 20
157.045
 30
0.0
 10
-141.9734
 20
155.7322
 30
0.0
 10
-141.9734
 20
155.7322
 30
0.0
 10
-143.2862
 20
154.4194
 30
0.0
 10
-144.0237
 20
152.639
 30
0.0
 10
-144.0237
 20
150.7825
 30
0.0
  0
SPLINE
  5
6F
330
1F
100
AcDbEntity
  8
Capa 1
370
    15
100
AcDbSpline
210
0.0
220
0.0
230
1.0
 70
     8
 71
     3
 72
    12
 73
     8
 74
     0
 42
0.000000001
 43
0.0000000001
 40
0.0
 40
0.0
 40
0.0
 40
0.0
 40
0.3333333333333333
 40
0.3333333333333333
 40
0.3333333333333333
 40
0.3333333333333333
 40
1.0
 40
1.0
 40
1.0
 40
1.0
 10
146.9762
 20
150.7825
 30
0.0
 10
146.9762
 20
152.639
 30
0.0
 10
146.2388
 20
154.4194
 30
0.0
 10
144.926
 20
155.7322
 30
0.0
 10
144.926
 20
155.7322
 30
0.0
 10
143.6132
 20
157.045
 30
0.0
 10
141.8328
 20
157.7824
 30
0.0
 10
139.9763
 20
157.7824
 30
0.0
  0
SPLINE
  5
70
330
1F
100
AcDbEntity
  8
Capa 1
370
    15
100
AcDbSpline
210
0.0
220
0.0
230
1.0
 70
    24
 71
     3
 72
     8
 73
     4
 74
     0
 42
0.000000001
 43
0.0000000001
 40
0.0
 40
0.0
 40
0.0
 40
0.0
 40
1.0
 40
1.0
 40
1.0
 40
1.0
 10
146.9763
 20
-109.4997
 30
0.0
 10
146.9763
 20
-109.4997
 30
0.0
 10
146.9763
 20
150.7825
 30
0.0
 10
146.9763
 20
150.7825
 30
0.0
  0
SPLINE
  5
71
330
1F
100
AcDbEntity
  8
Capa 1
370
    15
100
AcDbSpline
210
0.0
220
0.0
230
1.0
 70
     8
 71
     3
 72
     8
 73
     4
 74
     0
 42
0.000000001
 43
0.0000000001
 40
0.0
 40
0.0
 40
0.0
 40
0.0
 40
1.0
 40
1.0
 40
1.0
 40
1.0
 10
143.2363
 20
-113.9351
 30
0.0
 10
145.3968
 20
-113.5648
 30
0.0
 10
146.9762
 20
-111.6917
 30
0.0
 10
146.9762
 20
-109.4997
 30
0.0
  0
SPLINE
  5
72
330
1F
100
AcDbEntity
  8
Capa 1
370
    15
100
AcDbSpline
210
0.0
220
0.0
230
1.0
 70
     8
 71
     3
 72
     8
 73
     4
 74
     0
 42
0.000000001
 43
0.0000000001
 40
0.0
 40
0.0
 40
0.0
 40
0.0
 40
1.0
 40
1.0
 40
1.0
 40
1.0
 10
-144.0236
 20
-109.4997
 30
0.0
 10
-144.0237
 20
-111.6917
 30
0.0
 10
-142.4442
 20
-113.5648
 30
0.0
 10
-140.2837
 20
-113.9351
 30
0.0
  0
SPLINE
  5
73
330
1F
100
AcDbEntity
  8
Capa 1
370
    15
100
AcDbSpline
210
0.0
220
0.0
230
1.0
 70
    24
 71
     3
 72
     8
 73
     4
 74
     0
 42
0.000000001
 43
0.0000000001
 40
0.0
 40
0.0
 40
0.0
 40
0.0
 40
1.0
 40
1.0
 40
1.0
 40
1.0
 10
-153.4815
 20
-229.96
 30
0.0
 10
-153.4815
 20
-229.96
 30
0.0
 10
-176.5179
 20
-229.96
 30
0.0
 10
-176.5179
 20
-229.96
 30
0.0
  0
SPLINE
  5
74
330
1F
100
AcDbEntity
  8
Capa 1
370
    15
100
AcDbSpline
210
0.0
220
0.0
230
1.0
 70
     8
 71
     3
 72
     8
 73
     4
 74
     0
 42
0.000000001
 43
0.0000000001
 40
0.0
 40
0.0
 40
0.0
 40
0.0
 40
1.0
 40
1.0
 40
1.0
 40
1.0
 10
-153.4815
 20
-229.9599
 30
0.0
 10
-151.1167
 20
-229.9599
 30
0.0
 10
-148.8731
 20
-228.9137
 30
0.0
 10
-147.3531
 20
-227.1023
 30
0.0
  0
SPLINE
  5
75
330
1F
100
AcDbEntity
  8
Capa 1
370
    15
100
AcDbSpline
210
0.0
220
0.0
230
1.0
 70
    24
 71
     3
 72
     8
 73
     4
 74
     0
 42
0.000000001
 43
0.0000000001
 40
0.0
 40
0.0
 40
0.0
 40
0.0
 40
1.0
 40
1.0
 40
1.0
 40
1.0
 10
-143.2964
 20
-222.2677
 30
0.0
 10
-143.2964
 20
-222.2677
 30
0.0
 10
-147.3531
 20
-227.1023
 30
0.0
 10
-147.3531
 20
-227.1023
 30
0.0
  0
SPLINE
  5
76
330
1F
100
AcDbEntity
  8
Capa 1
370
    15
100
AcDbSpline
210
0.0
220
0.0
230
1.0
 70
     8
 71
     3
 72
     8
 73
     4
 74
     0
 42
0.000000001
 43
0.0000000001
 40
0.0
 40
0.0
 40
0.0
 40
0.0
 40
1.0
 40
1.0
 40
1.0
 40
1.0
 10
-136.402
 20
-219.0527
 30
0.0
 10
-139.0623
 20
-219.0527
 30
0.0
 10
-141.5864
 20
-220.2297
 30
0.0
 10
-143.2964
 20
-222.2677
 30
0.0
  0
SPLINE
  5
77
330
1F
100
AcDbEntity
  8
Capa 1
370
    15
100
AcDbSpline
210
0.0
220
0.0
230
1.0
 70
     8
 71
     3
 72
     8
 73
     4
 74
     0
 42
0.000000001
 43
0.0000000001
 40
0.0
 40
0.0
 40
0.0
 40
0.0
 40
1.0
 40
1.0
 40
1.0
 40
1.0
 10
146.4606
 20
-222.2677
 30
0.0
 10
144.7506
 20
-220.2297
 30
0.0
 10
142.2265
 20
-219.0527
 30
0.0
 10
139.5662
 20
-219.0527
 30
0.0
  0
SPLINE
  5
78
330
1F
100
AcDbEntity
  8
Capa 1
370
    15
100
AcDbSpline
210
0.0
220
0.0
230
1.0
 70
    24
 71
     3
 72
     8
 73
     4
 74
     0
 42
0.000000001
 43
0.0000000001
 40
0.0
 40
0.0
 40
0.0
 40
0.0
 40
1.0
 40
1.0
 40
1.0
 40
1.0
 10
150.5173
 20
-227.1023
 30
0.0
 10
150.5173
 20
-227.1023
 30
0.0
 10
146.4606
 20
-222.2677
 30
0.0
 10
146.4606
 20
-222.2677
 30
0.0
  0
SPLINE
  5
79
330
1F
100
AcDbEntity
  8
Capa 1
370
    15
100
AcDbSpline
210
0.0
220
0.0
230
1.0
 70
     8
 71
     3
 72
     8
 73
     4
 74
     0
 42
0.000000001
 43
0.0000000001
 40
0.0
 40
0.0
 40
0.0
 40
0.0
 40
1.0
 40
1.0
 40
1.0
 40
1.0
 10
150.5173
 20
-227.1023
 30
0.0
 10
152.0373
 20
-228.9137
 30
0.0
 10
154.2809
 20
-229.9599
 30
0.0
 10
156.6457
 20
-229.9599
 30
0.0
  0
SPLINE
  5
7A
330
1F
100
AcDbEntity
  8
Capa 1
370
    15
100
AcDbSpline
210
0.0
220
0.0
230
1.0
 70
    24
 71
     3
 72
     8
 73
     4
 74
     0
 42
0.000000001
 43
0.0000000001
 40
0.0
 40
0.0
 40
0.0
 40
0.0
 40
1.0
 40
1.0
 40
1.0
 40
1.0
 10
179.6821
 20
-229.96
 30
0.0
 10
179.6821
 20
-229.96
 30
0.0
 10
156.6457
 20
-229.96
 30
0.0
 10
156.6457
 20
-229.96
 30
0.0
  0
SPLINE
  5
7B
330
1F
100
AcDbEntity
  8
Capa 1
370
    15
100
AcDbSpline
210
0.0
220
0.0
230
1.0
 70
    24
 71
     3
 72
     8
 73
     4
 74
     0
 42
0.000000001
 43
0.0000000001
 40
0.0
 40
0.0
 40
0.0
 40
0.0
 40
1.0
 40
1.0
 40
1.0
 40
1.0
 10
179.5763
 20
-229.96
 30
0.0
 10
179.5763
 20
-229.96
 30
0.0
 10
179.5763
 20
-157.0057
 30
0.0
 10
179.5763
 20
-157.0057
 30
0.0
  0
SPLINE
  5
7C
330
1F
100
AcDbEntity
  8
Capa 1
370
    15
100
AcDbSpline
210
0.0
220
0.0
230
1.0
 70
     8
 71
     3
 72
     8
 73
     4
 74
     0
 42
0.000000001
 43
0.0000000001
 40
0.0
 40
0.0
 40
0.0
 40
0.0
 40
1.0
 40
1.0
 40
1.0
 40
1.0
 10
181.0239
 20
-155.5066
 30
0.0
 10
180.2163
 20
-155.5348
 30
0.0
 10
179.5763
 20
-156.1976
 30
0.0
 10
179.5763
 20
-157.0057
 30
0.0
  0
SPLINE
  5
7D
330
1F
100
AcDbEntity
  8
Capa 1
370
    15
100
AcDbSpline
210
0.0
220
0.0
230
1.0
 70
    24
 71
     3
 72
     8
 73
     4
 74
     0
 42
0.000000001
 43
0.0000000001
 40
0.0
 40
0.0
 40
0.0
 40
0.0
 40
1.0
 40
1.0
 40
1.0
 40
1.0
 10
183.5763
 20
-155.4175
 30
0.0
 10
183.5763
 20
-155.4175
 30
0.0
 10
181.0239
 20
-155.5066
 30
0.0
 10
181.0239
 20
-155.5066
 30
0.0
  0
SPLINE
  5
7E
330
1F
100
AcDbEntity
  8
Capa 1
370
    15
100
AcDbSpline
210
0.0
220
0.0
230
1.0
 70
    24
 71
     3
 72
     8
 73
     4
 74
     0
 42
0.000000001
 43
0.0000000001
 40
0.0
 40
0.0
 40
0.0
 40
0.0
 40
1.0
 40
1.0
 40
1.0
 40
1.0
 10
183.5763
 20
-155.4175
 30
0.0
 10
183.5763
 20
-155.4175
 30
0.0
 10
183.5763
 20
-145.4175
 30
0.0
 10
183.5763
 20
-145.4175
 30
0.0
  0
SPLINE
  5
7F
330
1F
100
AcDbEntity
  8
Capa 1
370
    15
100
AcDbSpline
210
0.0
220
0.0
230
1.0
 70
    24
 71
     3
 72
     8
 73
     4
 74
     0
 42
0.000000001
 43
0.0000000001
 40
0.0
 40
0.0
 40
0.0
 40
0.0
 40
1.0
 40
1.0
 40
1.0
 40
1.0
 10
181.0239
 20
-145.3283
 30
0.0
 10
181.0239
 20
-145.3283
 30
0.0
 10
183.5763
 20
-145.4175
 30
0.0
 10
183.5763
 20
-145.4175
 30
0.0
  0
SPLINE
  5
80
330
1F
100
AcDbEntity
  8
Capa 1
370
    15
100
AcDbSpline
210
0.0
220
0.0
230
1.0
 70
     8
 71
     3
 72
     8
 73
     4
 74
     0
 42
0.000000001
 43
0.0000000001
 40
0.0
 40
0.0
 40
0.0
 40
0.0
 40
1.0
 40
1.0
 40
1.0
 40
1.0
 10
179.5763
 20
-143.8292
 30
0.0
 10
179.5763
 20
-144.6373
 30
0.0
 10
180.2163
 20
-145.3001
 30
0.0
 10
181.0239
 20
-145.3283
 30
0.0
  0
SPLINE
  5
81
330
1F
100
AcDbEntity
  8
Capa 1
370
    15
100
AcDbSpline
210
0.0
220
0.0
230
1.0
 70
    24
 71
     3
 72
     8
 73
     4
 74
     0
 42
0.000000001
 43
0.0000000001
 40
0.0
 40
0.0
 40
0.0
 40
0.0
 40
1.0
 40
1.0
 40
1.0
 40
1.0
 10
179.5763
 20
-143.8292
 30
0.0
 10
179.5763
 20
-143.8292
 30
0.0
 10
179.5763
 20
-127.0175
 30
0.0
 10
179.5763
 20
-127.0175
 30
0.0
  0
SPLINE
  5
82
330
1F
100
AcDbEntity
  8
Capa 1
370
    15
100
AcDbSpline
210
0.0
220
0.0
230
1.0
 70
    24
 71
     3
 72
     8
 73
     4
 74
     0
 42
0.000000001
 43
0.0000000001
 40
0.0
 40
0.0
 40
0.0
 40
0.0
 40
1.0
 40
1.0
 40
1.0
 40
1.0
 10
173.2548
 20
-127.0175
 30
0.0
 10
173.2548
 20
-127.0175
 30
0.0
 10
179.2798
 20
-127.0175
 30
0.0
 10
179.2798
 20
-127.0175
 30
0.0
  0
SPLINE
  5
83
330
1F
100
AcDbEntity
  8
Capa 1
370
    15
100
AcDbSpline
210
0.0
220
0.0
230
1.0
 70
     8
 71
     3
 72
     8
 73
     4
 74
     0
 42
0.000000001
 43
0.0000000001
 40
0.0
 40
0.0
 40
0.0
 40
0.0
 40
1.0
 40
1.0
 40
1.0
 40
1.0
 10
171.7763
 20
-128.2674
 30
0.0
 10
172.5082
 20
-128.2674
 30
0.0
 10
173.1333
 20
-127.7392
 30
0.0
 10
173.2553
 20
-127.0175
 30
0.0
  0
SPLINE
  5
84
330
1F
100
AcDbEntity
  8
Capa 1
370
    15
100
AcDbSpline
210
0.0
220
0.0
230
1.0
 70
    24
 71
     3
 72
     8
 73
     4
 74
     0
 42
0.000000001
 43
0.0000000001
 40
0.0
 40
0.0
 40
0.0
 40
0.0
 40
1.0
 40
1.0
 40
1.0
 40
1.0
 10
170.3763
 20
-128.2675
 30
0.0
 10
170.3763
 20
-128.2675
 30
0.0
 10
171.7763
 20
-128.2675
 30
0.0
 10
171.7763
 20
-128.2675
 30
0.0
  0
SPLINE
  5
85
330
1F
100
AcDbEntity
  8
Capa 1
370
    15
100
AcDbSpline
210
0.0
220
0.0
230
1.0
 70
     8
 71
     3
 72
     8
 73
     4
 74
     0
 42
0.000000001
 43
0.0000000001
 40
0.0
 40
0.0
 40
0.0
 40
0.0
 40
1.0
 40
1.0
 40
1.0
 40
1.0
 10
168.8972
 20
-127.0175
 30
0.0
 10
169.0192
 20
-127.7392
 30
0.0
 10
169.6443
 20
-128.2674
 30
0.0
 10
170.3763
 20
-128.2674
 30
0.0
  0
SPLINE
  5
86
330
1F
100
AcDbEntity
  8
Capa 1
370
    15
100
AcDbSpline
210
0.0
220
0.0
230
1.0
 70
    24
 71
     3
 72
     8
 73
     4
 74
     0
 42
0.000000001
 43
0.0000000001
 40
0.0
 40
0.0
 40
0.0
 40
0.0
 40
1.0
 40
1.0
 40
1.0
 40
1.0
 10
168.8972
 20
-126.855
 30
0.0
 10
168.8972
 20
-126.855
 30
0.0
 10
168.8972
 20
-127.0175
 30
0.0
 10
168.8972
 20
-127.0175
 30
0.0
  0
SPLINE
  5
87
330
1F
100
AcDbEntity
  8
Capa 1
370
    15
100
AcDbSpline
210
0.0
220
0.0
230
1.0
 70
     8
 71
     3
 72
    12
 73
     8
 74
     0
 42
0.000000001
 43
0.0000000001
 40
0.0
 40
0.0
 40
0.0
 40
0.0
 40
0.3333333333333333
 40
0.3333333333333333
 40
0.3333333333333333
 40
0.3333333333333333
 40
1.0
 40
1.0
 40
1.0
 40
1.0
 10
168.8972
 20
-124.1799
 30
0.0
 10
168.3936
 20
-124.4356
 30
0.0
 10
168.0763
 20
-124.9526
 30
0.0
 10
168.0763
 20
-125.5175
 30
0.0
 10
168.0763
 20
-125.5175
 30
0.0
 10
168.0763
 20
-126.0823
 30
0.0
 10
168.3936
 20
-126.5993
 30
0.0
 10
168.8972
 20
-126.855
 30
0.0
  0
SPLINE
  5
88
330
1F
100
AcDbEntity
  8
Capa 1
370
    15
100
AcDbSpline
210
0.0
220
0.0
230
1.0
 70
    24
 71
     3
 72
     8
 73
     4
 74
     0
 42
0.000000001
 43
0.0000000001
 40
0.0
 40
0.0
 40
0.0
 40
0.0
 40
1.0
 40
1.0
 40
1.0
 40
1.0
 10
168.8972
 20
-124.0175
 30
0.0
 10
168.8972
 20
-124.0175
 30
0.0
 10
168.8972
 20
-124.1799
 30
0.0
 10
168.8972
 20
-124.1799
 30
0.0
  0
SPLINE
  5
89
330
1F
100
AcDbEntity
  8
Capa 1
370
    15
100
AcDbSpline
210
0.0
220
0.0
230
1.0
 70
     8
 71
     3
 72
     8
 73
     4
 74
     0
 42
0.000000001
 43
0.0000000001
 40
0.0
 40
0.0
 40
0.0
 40
0.0
 40
1.0
 40
1.0
 40
1.0
 40
1.0
 10
170.3763
 20
-122.7675
 30
0.0
 10
169.6443
 20
-122.7675
 30
0.0
 10
169.0192
 20
-123.2957
 30
0.0
 10
168.8972
 20
-124.0174
 30
0.0
  0
SPLINE
  5
8A
330
1F
100
AcDbEntity
  8
Capa 1
370
    15
100
AcDbSpline
210
0.0
220
0.0
230
1.0
 70
    24
 71
     3
 72
     8
 73
     4
 74
     0
 42
0.000000001
 43
0.0000000001
 40
0.0
 40
0.0
 40
0.0
 40
0.0
 40
1.0
 40
1.0
 40
1.0
 40
1.0
 10
171.7763
 20
-122.7675
 30
0.0
 10
171.7763
 20
-122.7675
 30
0.0
 10
170.3763
 20
-122.7675
 30
0.0
 10
170.3763
 20
-122.7675
 30
0.0
  0
SPLINE
  5
8B
330
1F
100
AcDbEntity
  8
Capa 1
370
    15
100
AcDbSpline
210
0.0
220
0.0
230
1.0
 70
     8
 71
     3
 72
     8
 73
     4
 74
     0
 42
0.000000001
 43
0.0000000001
 40
0.0
 40
0.0
 40
0.0
 40
0.0
 40
1.0
 40
1.0
 40
1.0
 40
1.0
 10
173.2553
 20
-124.0174
 30
0.0
 10
173.1333
 20
-123.2957
 30
0.0
 10
172.5082
 20
-122.7675
 30
0.0
 10
171.7763
 20
-122.7675
 30
0.0
  0
SPLINE
  5
8C
330
1F
100
AcDbEntity
  8
Capa 1
370
    15
100
AcDbSpline
210
0.0
220
0.0
230
1.0
 70
    24
 71
     3
 72
     8
 73
     4
 74
     0
 42
0.000000001
 43
0.0000000001
 40
0.0
 40
0.0
 40
0.0
 40
0.0
 40
1.0
 40
1.0
 40
1.0
 40
1.0
 10
179.2534
 20
-124.0175
 30
0.0
 10
179.2534
 20
-124.0175
 30
0.0
 10
173.2284
 20
-124.0175
 30
0.0
 10
173.2284
 20
-124.0175
 30
0.0
  0
SPLINE
  5
8D
330
1F
100
AcDbEntity
  8
Capa 1
370
    15
100
AcDbSpline
210
0.0
220
0.0
230
1.0
 70
    24
 71
     3
 72
     8
 73
     4
 74
     0
 42
0.000000001
 43
0.0000000001
 40
0.0
 40
0.0
 40
0.0
 40
0.0
 40
1.0
 40
1.0
 40
1.0
 40
1.0
 10
179.5763
 20
-124.0175
 30
0.0
 10
179.5763
 20
-124.0175
 30
0.0
 10
179.5763
 20
-107.0057
 30
0.0
 10
179.5763
 20
-107.0057
 30
0.0
  0
SPLINE
  5
8E
330
1F
100
AcDbEntity
  8
Capa 1
370
    15
100
AcDbSpline
210
0.0
220
0.0
230
1.0
 70
     8
 71
     3
 72
     8
 73
     4
 74
     0
 42
0.000000001
 43
0.0000000001
 40
0.0
 40
0.0
 40
0.0
 40
0.0
 40
1.0
 40
1.0
 40
1.0
 40
1.0
 10
181.0239
 20
-105.5066
 30
0.0
 10
180.2163
 20
-105.5348
 30
0.0
 10
179.5763
 20
-106.1976
 30
0.0
 10
179.5763
 20
-107.0057
 30
0.0
  0
SPLINE
  5
8F
330
1F
100
AcDbEntity
  8
Capa 1
370
    15
100
AcDbSpline
210
0.0
220
0.0
230
1.0
 70
    24
 71
     3
 72
     8
 73
     4
 74
     0
 42
0.000000001
 43
0.0000000001
 40
0.0
 40
0.0
 40
0.0
 40
0.0
 40
1.0
 40
1.0
 40
1.0
 40
1.0
 10
183.5763
 20
-105.4175
 30
0.0
 10
183.5763
 20
-105.4175
 30
0.0
 10
181.0239
 20
-105.5066
 30
0.0
 10
181.0239
 20
-105.5066
 30
0.0
  0
SPLINE
  5
90
330
1F
100
AcDbEntity
  8
Capa 1
370
    15
100
AcDbSpline
210
0.0
220
0.0
230
1.0
 70
    24
 71
     3
 72
     8
 73
     4
 74
     0
 42
0.000000001
 43
0.0000000001
 40
0.0
 40
0.0
 40
0.0
 40
0.0
 40
1.0
 40
1.0
 40
1.0
 40
1.0
 10
183.5763
 20
-105.4175
 30
0.0
 10
183.5763
 20
-105.4175
 30
0.0
 10
183.5763
 20
-95.4175
 30
0.0
 10
183.5763
 20
-95.4175
 30
0.0
  0
SPLINE
  5
91
330
1F
100
AcDbEntity
  8
Capa 1
370
    15
100
AcDbSpline
210
0.0
220
0.0
230
1.0
 70
    24
 71
     3
 72
     8
 73
     4
 74
     0
 42
0.000000001
 43
0.0000000001
 40
0.0
 40
0.0
 40
0.0
 40
0.0
 40
1.0
 40
1.0
 40
1.0
 40
1.0
 10
181.0239
 20
-95.3283
 30
0.0
 10
181.0239
 20
-95.3283
 30
0.0
 10
183.5763
 20
-95.4175
 30
0.0
 10
183.5763
 20
-95.4175
 30
0.0
  0
SPLINE
  5
92
330
1F
100
AcDbEntity
  8
Capa 1
370
    15
100
AcDbSpline
210
0.0
220
0.0
230
1.0
 70
     8
 71
     3
 72
     8
 73
     4
 74
     0
 42
0.000000001
 43
0.0000000001
 40
0.0
 40
0.0
 40
0.0
 40
0.0
 40
1.0
 40
1.0
 40
1.0
 40
1.0
 10
179.5762
 20
-93.8292
 30
0.0
 10
179.5762
 20
-94.6373
 30
0.0
 10
180.2163
 20
-95.3001
 30
0.0
 10
181.0239
 20
-95.3283
 30
0.0
  0
SPLINE
  5
93
330
1F
100
AcDbEntity
  8
Capa 1
370
    15
100
AcDbSpline
210
0.0
220
0.0
230
1.0
 70
    24
 71
     3
 72
     8
 73
     4
 74
     0
 42
0.000000001
 43
0.0000000001
 40
0.0
 40
0.0
 40
0.0
 40
0.0
 40
1.0
 40
1.0
 40
1.0
 40
1.0
 10
179.5763
 20
-93.8292
 30
0.0
 10
179.5763
 20
-93.8292
 30
0.0
 10
179.5763
 20
-25.3057
 30
0.0
 10
179.5763
 20
-25.3057
 30
0.0
  0
SPLINE
  5
94
330
1F
100
AcDbEntity
  8
Capa 1
370
    15
100
AcDbSpline
210
0.0
220
0.0
230
1.0
 70
     8
 71
     3
 72
     8
 73
     4
 74
     0
 42
0.000000001
 43
0.0000000001
 40
0.0
 40
0.0
 40
0.0
 40
0.0
 40
1.0
 40
1.0
 40
1.0
 40
1.0
 10
181.0239
 20
-23.8066
 30
0.0
 10
180.2163
 20
-23.8348
 30
0.0
 10
179.5763
 20
-24.4976
 30
0.0
 10
179.5763
 20
-25.3057
 30
0.0
  0
SPLINE
  5
95
330
1F
100
AcDbEntity
  8
Capa 1
370
    15
100
AcDbSpline
210
0.0
220
0.0
230
1.0
 70
    24
 71
     3
 72
     8
 73
     4
 74
     0
 42
0.000000001
 43
0.0000000001
 40
0.0
 40
0.0
 40
0.0
 40
0.0
 40
1.0
 40
1.0
 40
1.0
 40
1.0
 10
183.5763
 20
-23.7175
 30
0.0
 10
183.5763
 20
-23.7175
 30
0.0
 10
181.0239
 20
-23.8066
 30
0.0
 10
181.0239
 20
-23.8066
 30
0.0
  0
SPLINE
  5
96
330
1F
100
AcDbEntity
  8
Capa 1
370
    15
100
AcDbSpline
210
0.0
220
0.0
230
1.0
 70
    24
 71
     3
 72
     8
 73
     4
 74
     0
 42
0.000000001
 43
0.0000000001
 40
0.0
 40
0.0
 40
0.0
 40
0.0
 40
1.0
 40
1.0
 40
1.0
 40
1.0
 10
183.5763
 20
-23.7175
 30
0.0
 10
183.5763
 20
-23.7175
 30
0.0
 10
183.5763
 20
-13.7175
 30
0.0
 10
183.5763
 20
-13.7175
 30
0.0
  0
SPLINE
  5
97
330
1F
100
AcDbEntity
  8
Capa 1
370
    15
100
AcDbSpline
210
0.0
220
0.0
230
1.0
 70
    24
 71
     3
 72
     8
 73
     4
 74
     0
 42
0.000000001
 43
0.0000000001
 40
0.0
 40
0.0
 40
0.0
 40
0.0
 40
1.0
 40
1.0
 40
1.0
 40
1.0
 10
181.0239
 20
-13.6283
 30
0.0
 10
181.0239
 20
-13.6283
 30
0.0
 10
183.5763
 20
-13.7175
 30
0.0
 10
183.5763
 20
-13.7175
 30
0.0
  0
SPLINE
  5
98
330
1F
100
AcDbEntity
  8
Capa 1
370
    15
100
AcDbSpline
210
0.0
220
0.0
230
1.0
 70
     8
 71
     3
 72
     8
 73
     4
 74
     0
 42
0.000000001
 43
0.0000000001
 40
0.0
 40
0.0
 40
0.0
 40
0.0
 40
1.0
 40
1.0
 40
1.0
 40
1.0
 10
179.5762
 20
-12.1292
 30
0.0
 10
179.5762
 20
-12.9373
 30
0.0
 10
180.2163
 20
-13.6001
 30
0.0
 10
181.0239
 20
-13.6283
 30
0.0
  0
SPLINE
  5
99
330
1F
100
AcDbEntity
  8
Capa 1
370
    15
100
AcDbSpline
210
0.0
220
0.0
230
1.0
 70
    24
 71
     3
 72
     8
 73
     4
 74
     0
 42
0.000000001
 43
0.0000000001
 40
0.0
 40
0.0
 40
0.0
 40
0.0
 40
1.0
 40
1.0
 40
1.0
 40
1.0
 10
179.5763
 20
-12.1292
 30
0.0
 10
179.5763
 20
-12.1292
 30
0.0
 10
179.5763
 20
4.8825
 30
0.0
 10
179.5763
 20
4.8825
 30
0.0
  0
SPLINE
  5
9A
330
1F
100
AcDbEntity
  8
Capa 1
370
    15
100
AcDbSpline
210
0.0
220
0.0
230
1.0
 70
    24
 71
     3
 72
     8
 73
     4
 74
     0
 42
0.000000001
 43
0.0000000001
 40
0.0
 40
0.0
 40
0.0
 40
0.0
 40
1.0
 40
1.0
 40
1.0
 40
1.0
 10
173.2553
 20
4.8825
 30
0.0
 10
173.2553
 20
4.8825
 30
0.0
 10
179.36
 20
4.8825
 30
0.0
 10
179.36
 20
4.8825
 30
0.0
  0
SPLINE
  5
9B
330
1F
100
AcDbEntity
  8
Capa 1
370
    15
100
AcDbSpline
210
0.0
220
0.0
230
1.0
 70
     8
 71
     3
 72
     8
 73
     4
 74
     0
 42
0.000000001
 43
0.0000000001
 40
0.0
 40
0.0
 40
0.0
 40
0.0
 40
1.0
 40
1.0
 40
1.0
 40
1.0
 10
171.7763
 20
3.6325
 30
0.0
 10
172.5082
 20
3.6325
 30
0.0
 10
173.1333
 20
4.1607
 30
0.0
 10
173.2553
 20
4.8824
 30
0.0
  0
SPLINE
  5
9C
330
1F
100
AcDbEntity
  8
Capa 1
370
    15
100
AcDbSpline
210
0.0
220
0.0
230
1.0
 70
    24
 71
     3
 72
     8
 73
     4
 74
     0
 42
0.000000001
 43
0.0000000001
 40
0.0
 40
0.0
 40
0.0
 40
0.0
 40
1.0
 40
1.0
 40
1.0
 40
1.0
 10
170.3763
 20
3.6325
 30
0.0
 10
170.3763
 20
3.6325
 30
0.0
 10
171.7763
 20
3.6325
 30
0.0
 10
171.7763
 20
3.6325
 30
0.0
  0
SPLINE
  5
9D
330
1F
100
AcDbEntity
  8
Capa 1
370
    15
100
AcDbSpline
210
0.0
220
0.0
230
1.0
 70
     8
 71
     3
 72
     8
 73
     4
 74
     0
 42
0.000000001
 43
0.0000000001
 40
0.0
 40
0.0
 40
0.0
 40
0.0
 40
1.0
 40
1.0
 40
1.0
 40
1.0
 10
168.8972
 20
4.8824
 30
0.0
 10
169.0192
 20
4.1607
 30
0.0
 10
169.6443
 20
3.6325
 30
0.0
 10
170.3763
 20
3.6325
 30
0.0
  0
SPLINE
  5
9E
330
1F
100
AcDbEntity
  8
Capa 1
370
    15
100
AcDbSpline
210
0.0
220
0.0
230
1.0
 70
    24
 71
     3
 72
     8
 73
     4
 74
     0
 42
0.000000001
 43
0.0000000001
 40
0.0
 40
0.0
 40
0.0
 40
0.0
 40
1.0
 40
1.0
 40
1.0
 40
1.0
 10
168.8972
 20
5.0449
 30
0.0
 10
168.8972
 20
5.0449
 30
0.0
 10
168.8972
 20
4.8825
 30
0.0
 10
168.8972
 20
4.8825
 30
0.0
  0
SPLINE
  5
9F
330
1F
100
AcDbEntity
  8
Capa 1
370
    15
100
AcDbSpline
210
0.0
220
0.0
230
1.0
 70
     8
 71
     3
 72
    12
 73
     8
 74
     0
 42
0.000000001
 43
0.0000000001
 40
0.0
 40
0.0
 40
0.0
 40
0.0
 40
0.3333333333333333
 40
0.3333333333333333
 40
0.3333333333333333
 40
0.3333333333333333
 40
1.0
 40
1.0
 40
1.0
 40
1.0
 10
168.8972
 20
7.72
 30
0.0
 10
168.3936
 20
7.4643
 30
0.0
 10
168.0763
 20
6.9473
 30
0.0
 10
168.0763
 20
6.3825
 30
0.0
 10
168.0763
 20
6.3825
 30
0.0
 10
168.0763
 20
5.8176
 30
0.0
 10
168.3936
 20
5.3006
 30
0.0
 10
168.8972
 20
5.0449
 30
0.0
  0
SPLINE
  5
A0
330
1F
100
AcDbEntity
  8
Capa 1
370
    15
100
AcDbSpline
210
0.0
220
0.0
230
1.0
 70
    24
 71
     3
 72
     8
 73
     4
 74
     0
 42
0.000000001
 43
0.0000000001
 40
0.0
 40
0.0
 40
0.0
 40
0.0
 40
1.0
 40
1.0
 40
1.0
 40
1.0
 10
168.8972
 20
7.8825
 30
0.0
 10
168.8972
 20
7.8825
 30
0.0
 10
168.8972
 20
7.72
 30
0.0
 10
168.8972
 20
7.72
 30
0.0
  0
SPLINE
  5
A1
330
1F
100
AcDbEntity
  8
Capa 1
370
    15
100
AcDbSpline
210
0.0
220
0.0
230
1.0
 70
     8
 71
     3
 72
     8
 73
     4
 74
     0
 42
0.000000001
 43
0.0000000001
 40
0.0
 40
0.0
 40
0.0
 40
0.0
 40
1.0
 40
1.0
 40
1.0
 40
1.0
 10
170.3763
 20
9.1324
 30
0.0
 10
169.6443
 20
9.1324
 30
0.0
 10
169.0192
 20
8.6042
 30
0.0
 10
168.8972
 20
7.8825
 30
0.0
  0
SPLINE
  5
A2
330
1F
100
AcDbEntity
  8
Capa 1
370
    15
100
AcDbSpline
210
0.0
220
0.0
230
1.0
 70
    24
 71
     3
 72
     8
 73
     4
 74
     0
 42
0.000000001
 43
0.0000000001
 40
0.0
 40
0.0
 40
0.0
 40
0.0
 40
1.0
 40
1.0
 40
1.0
 40
1.0
 10
171.7763
 20
9.1325
 30
0.0
 10
171.7763
 20
9.1325
 30
0.0
 10
170.3763
 20
9.1325
 30
0.0
 10
170.3763
 20
9.1325
 30
0.0
  0
SPLINE
  5
A3
330
1F
100
AcDbEntity
  8
Capa 1
370
    15
100
AcDbSpline
210
0.0
220
0.0
230
1.0
 70
     8
 71
     3
 72
     8
 73
     4
 74
     0
 42
0.000000001
 43
0.0000000001
 40
0.0
 40
0.0
 40
0.0
 40
0.0
 40
1.0
 40
1.0
 40
1.0
 40
1.0
 10
173.2553
 20
7.8825
 30
0.0
 10
173.1333
 20
8.6042
 30
0.0
 10
172.5082
 20
9.1324
 30
0.0
 10
171.7763
 20
9.1324
 30
0.0
  0
SPLINE
  5
A4
330
1F
100
AcDbEntity
  8
Capa 1
370
    15
100
AcDbSpline
210
0.0
220
0.0
230
1.0
 70
    24
 71
     3
 72
     8
 73
     4
 74
     0
 42
0.000000001
 43
0.0000000001
 40
0.0
 40
0.0
 40
0.0
 40
0.0
 40
1.0
 40
1.0
 40
1.0
 40
1.0
 10
179.3666
 20
7.8825
 30
0.0
 10
179.3666
 20
7.8825
 30
0.0
 10
173.2553
 20
7.8825
 30
0.0
 10
173.2553
 20
7.8825
 30
0.0
  0
SPLINE
  5
A5
330
1F
100
AcDbEntity
  8
Capa 1
370
    15
100
AcDbSpline
210
0.0
220
0.0
230
1.0
 70
    24
 71
     3
 72
     8
 73
     4
 74
     0
 42
0.000000001
 43
0.0000000001
 40
0.0
 40
0.0
 40
0.0
 40
0.0
 40
1.0
 40
1.0
 40
1.0
 40
1.0
 10
179.5763
 20
7.8825
 30
0.0
 10
179.5763
 20
7.8825
 30
0.0
 10
179.5763
 20
24.6942
 30
0.0
 10
179.5763
 20
24.6942
 30
0.0
  0
SPLINE
  5
A6
330
1F
100
AcDbEntity
  8
Capa 1
370
    15
100
AcDbSpline
210
0.0
220
0.0
230
1.0
 70
     8
 71
     3
 72
     8
 73
     4
 74
     0
 42
0.000000001
 43
0.0000000001
 40
0.0
 40
0.0
 40
0.0
 40
0.0
 40
1.0
 40
1.0
 40
1.0
 40
1.0
 10
181.0239
 20
26.1933
 30
0.0
 10
180.2163
 20
26.1651
 30
0.0
 10
179.5763
 20
25.5023
 30
0.0
 10
179.5763
 20
24.6942
 30
0.0
  0
SPLINE
  5
A7
330
1F
100
AcDbEntity
  8
Capa 1
370
    15
100
AcDbSpline
210
0.0
220
0.0
230
1.0
 70
    24
 71
     3
 72
     8
 73
     4
 74
     0
 42
0.000000001
 43
0.0000000001
 40
0.0
 40
0.0
 40
0.0
 40
0.0
 40
1.0
 40
1.0
 40
1.0
 40
1.0
 10
183.5763
 20
26.2825
 30
0.0
 10
183.5763
 20
26.2825
 30
0.0
 10
181.0239
 20
26.1933
 30
0.0
 10
181.0239
 20
26.1933
 30
0.0
  0
SPLINE
  5
A8
330
1F
100
AcDbEntity
  8
Capa 1
370
    15
100
AcDbSpline
210
0.0
220
0.0
230
1.0
 70
    24
 71
     3
 72
     8
 73
     4
 74
     0
 42
0.000000001
 43
0.0000000001
 40
0.0
 40
0.0
 40
0.0
 40
0.0
 40
1.0
 40
1.0
 40
1.0
 40
1.0
 10
183.5763
 20
26.2825
 30
0.0
 10
183.5763
 20
26.2825
 30
0.0
 10
183.5763
 20
36.2825
 30
0.0
 10
183.5763
 20
36.2825
 30
0.0
  0
SPLINE
  5
A9
330
1F
100
AcDbEntity
  8
Capa 1
370
    15
100
AcDbSpline
210
0.0
220
0.0
230
1.0
 70
    24
 71
     3
 72
     8
 73
     4
 74
     0
 42
0.000000001
 43
0.0000000001
 40
0.0
 40
0.0
 40
0.0
 40
0.0
 40
1.0
 40
1.0
 40
1.0
 40
1.0
 10
181.0239
 20
36.3716
 30
0.0
 10
181.0239
 20
36.3716
 30
0.0
 10
183.5763
 20
36.2825
 30
0.0
 10
183.5763
 20
36.2825
 30
0.0
  0
SPLINE
  5
AA
330
1F
100
AcDbEntity
  8
Capa 1
370
    15
100
AcDbSpline
210
0.0
220
0.0
230
1.0
 70
     8
 71
     3
 72
     8
 73
     4
 74
     0
 42
0.000000001
 43
0.0000000001
 40
0.0
 40
0.0
 40
0.0
 40
0.0
 40
1.0
 40
1.0
 40
1.0
 40
1.0
 10
179.5763
 20
37.8707
 30
0.0
 10
179.5763
 20
37.0626
 30
0.0
 10
180.2163
 20
36.3998
 30
0.0
 10
181.0239
 20
36.3716
 30
0.0
  0
SPLINE
  5
AB
330
1F
100
AcDbEntity
  8
Capa 1
370
    15
100
AcDbSpline
210
0.0
220
0.0
230
1.0
 70
    24
 71
     3
 72
     8
 73
     4
 74
     0
 42
0.000000001
 43
0.0000000001
 40
0.0
 40
0.0
 40
0.0
 40
0.0
 40
1.0
 40
1.0
 40
1.0
 40
1.0
 10
179.5763
 20
37.8707
 30
0.0
 10
179.5763
 20
37.8707
 30
0.0
 10
179.5763
 20
108.8942
 30
0.0
 10
179.5763
 20
108.8942
 30
0.0
  0
SPLINE
  5
AC
330
1F
100
AcDbEntity
  8
Capa 1
370
    15
100
AcDbSpline
210
0.0
220
0.0
230
1.0
 70
     8
 71
     3
 72
     8
 73
     4
 74
     0
 42
0.000000001
 43
0.0000000001
 40
0.0
 40
0.0
 40
0.0
 40
0.0
 40
1.0
 40
1.0
 40
1.0
 40
1.0
 10
181.0239
 20
110.3933
 30
0.0
 10
180.2163
 20
110.3651
 30
0.0
 10
179.5762
 20
109.7023
 30
0.0
 10
179.5762
 20
108.8942
 30
0.0
  0
SPLINE
  5
AD
330
1F
100
AcDbEntity
  8
Capa 1
370
    15
100
AcDbSpline
210
0.0
220
0.0
230
1.0
 70
    24
 71
     3
 72
     8
 73
     4
 74
     0
 42
0.000000001
 43
0.0000000001
 40
0.0
 40
0.0
 40
0.0
 40
0.0
 40
1.0
 40
1.0
 40
1.0
 40
1.0
 10
183.5763
 20
110.4825
 30
0.0
 10
183.5763
 20
110.4825
 30
0.0
 10
181.0239
 20
110.3933
 30
0.0
 10
181.0239
 20
110.3933
 30
0.0
  0
SPLINE
  5
AE
330
1F
100
AcDbEntity
  8
Capa 1
370
    15
100
AcDbSpline
210
0.0
220
0.0
230
1.0
 70
    24
 71
     3
 72
     8
 73
     4
 74
     0
 42
0.000000001
 43
0.0000000001
 40
0.0
 40
0.0
 40
0.0
 40
0.0
 40
1.0
 40
1.0
 40
1.0
 40
1.0
 10
183.5763
 20
110.4825
 30
0.0
 10
183.5763
 20
110.4825
 30
0.0
 10
183.5763
 20
120.4825
 30
0.0
 10
183.5763
 20
120.4825
 30
0.0
  0
SPLINE
  5
AF
330
1F
100
AcDbEntity
  8
Capa 1
370
    15
100
AcDbSpline
210
0.0
220
0.0
230
1.0
 70
    24
 71
     3
 72
     8
 73
     4
 74
     0
 42
0.000000001
 43
0.0000000001
 40
0.0
 40
0.0
 40
0.0
 40
0.0
 40
1.0
 40
1.0
 40
1.0
 40
1.0
 10
181.0239
 20
120.5716
 30
0.0
 10
181.0239
 20
120.5716
 30
0.0
 10
183.5763
 20
120.4825
 30
0.0
 10
183.5763
 20
120.4825
 30
0.0
  0
SPLINE
  5
B0
330
1F
100
AcDbEntity
  8
Capa 1
370
    15
100
AcDbSpline
210
0.0
220
0.0
230
1.0
 70
     8
 71
     3
 72
     8
 73
     4
 74
     0
 42
0.000000001
 43
0.0000000001
 40
0.0
 40
0.0
 40
0.0
 40
0.0
 40
1.0
 40
1.0
 40
1.0
 40
1.0
 10
179.5762
 20
122.0707
 30
0.0
 10
179.5762
 20
121.2626
 30
0.0
 10
180.2163
 20
120.5998
 30
0.0
 10
181.0239
 20
120.5716
 30
0.0
  0
SPLINE
  5
B1
330
1F
100
AcDbEntity
  8
Capa 1
370
    15
100
AcDbSpline
210
0.0
220
0.0
230
1.0
 70
    24
 71
     3
 72
     8
 73
     4
 74
     0
 42
0.000000001
 43
0.0000000001
 40
0.0
 40
0.0
 40
0.0
 40
0.0
 40
1.0
 40
1.0
 40
1.0
 40
1.0
 10
179.5763
 20
122.0707
 30
0.0
 10
179.5763
 20
122.0707
 30
0.0
 10
179.5763
 20
138.9825
 30
0.0
 10
179.5763
 20
138.9825
 30
0.0
  0
SPLINE
  5
B2
330
1F
100
AcDbEntity
  8
Capa 1
370
    15
100
AcDbSpline
210
0.0
220
0.0
230
1.0
 70
    24
 71
     3
 72
     8
 73
     4
 74
     0
 42
0.000000001
 43
0.0000000001
 40
0.0
 40
0.0
 40
0.0
 40
0.0
 40
1.0
 40
1.0
 40
1.0
 40
1.0
 10
173.2553
 20
138.9825
 30
0.0
 10
173.2553
 20
138.9825
 30
0.0
 10
179.3174
 20
138.9825
 30
0.0
 10
179.3174
 20
138.9825
 30
0.0
  0
SPLINE
  5
B3
330
1F
100
AcDbEntity
  8
Capa 1
370
    15
100
AcDbSpline
210
0.0
220
0.0
230
1.0
 70
     8
 71
     3
 72
     8
 73
     4
 74
     0
 42
0.000000001
 43
0.0000000001
 40
0.0
 40
0.0
 40
0.0
 40
0.0
 40
1.0
 40
1.0
 40
1.0
 40
1.0
 10
171.7763
 20
137.7325
 30
0.0
 10
172.5082
 20
137.7325
 30
0.0
 10
173.1333
 20
138.2607
 30
0.0
 10
173.2553
 20
138.9824
 30
0.0
  0
SPLINE
  5
B4
330
1F
100
AcDbEntity
  8
Capa 1
370
    15
100
AcDbSpline
210
0.0
220
0.0
230
1.0
 70
    24
 71
     3
 72
     8
 73
     4
 74
     0
 42
0.000000001
 43
0.0000000001
 40
0.0
 40
0.0
 40
0.0
 40
0.0
 40
1.0
 40
1.0
 40
1.0
 40
1.0
 10
170.3763
 20
137.7325
 30
0.0
 10
170.3763
 20
137.7325
 30
0.0
 10
171.7763
 20
137.7325
 30
0.0
 10
171.7763
 20
137.7325
 30
0.0
  0
SPLINE
  5
B5
330
1F
100
AcDbEntity
  8
Capa 1
370
    15
100
AcDbSpline
210
0.0
220
0.0
230
1.0
 70
     8
 71
     3
 72
     8
 73
     4
 74
     0
 42
0.000000001
 43
0.0000000001
 40
0.0
 40
0.0
 40
0.0
 40
0.0
 40
1.0
 40
1.0
 40
1.0
 40
1.0
 10
168.8972
 20
138.9824
 30
0.0
 10
169.0192
 20
138.2607
 30
0.0
 10
169.6443
 20
137.7325
 30
0.0
 10
170.3763
 20
137.7325
 30
0.0
  0
SPLINE
  5
B6
330
1F
100
AcDbEntity
  8
Capa 1
370
    15
100
AcDbSpline
210
0.0
220
0.0
230
1.0
 70
    24
 71
     3
 72
     8
 73
     4
 74
     0
 42
0.000000001
 43
0.0000000001
 40
0.0
 40
0.0
 40
0.0
 40
0.0
 40
1.0
 40
1.0
 40
1.0
 40
1.0
 10
168.8972
 20
139.1449
 30
0.0
 10
168.8972
 20
139.1449
 30
0.0
 10
168.8972
 20
138.9825
 30
0.0
 10
168.8972
 20
138.9825
 30
0.0
  0
SPLINE
  5
B7
330
1F
100
AcDbEntity
  8
Capa 1
370
    15
100
AcDbSpline
210
0.0
220
0.0
230
1.0
 70
     8
 71
     3
 72
    12
 73
     8
 74
     0
 42
0.000000001
 43
0.0000000001
 40
0.0
 40
0.0
 40
0.0
 40
0.0
 40
0.3333333333333333
 40
0.3333333333333333
 40
0.3333333333333333
 40
0.3333333333333333
 40
1.0
 40
1.0
 40
1.0
 40
1.0
 10
168.8972
 20
141.82
 30
0.0
 10
168.3936
 20
141.5643
 30
0.0
 10
168.0763
 20
141.0473
 30
0.0
 10
168.0763
 20
140.4825
 30
0.0
 10
168.0763
 20
140.4825
 30
0.0
 10
168.0763
 20
139.9176
 30
0.0
 10
168.3936
 20
139.4006
 30
0.0
 10
168.8972
 20
139.1449
 30
0.0
  0
SPLINE
  5
B8
330
1F
100
AcDbEntity
  8
Capa 1
370
    15
100
AcDbSpline
210
0.0
220
0.0
230
1.0
 70
    24
 71
     3
 72
     8
 73
     4
 74
     0
 42
0.000000001
 43
0.0000000001
 40
0.0
 40
0.0
 40
0.0
 40
0.0
 40
1.0
 40
1.0
 40
1.0
 40
1.0
 10
168.8972
 20
141.9825
 30
0.0
 10
168.8972
 20
141.9825
 30
0.0
 10
168.8972
 20
141.82
 30
0.0
 10
168.8972
 20
141.82
 30
0.0
  0
SPLINE
  5
B9
330
1F
100
AcDbEntity
  8
Capa 1
370
    15
100
AcDbSpline
210
0.0
220
0.0
230
1.0
 70
     8
 71
     3
 72
     8
 73
     4
 74
     0
 42
0.000000001
 43
0.0000000001
 40
0.0
 40
0.0
 40
0.0
 40
0.0
 40
1.0
 40
1.0
 40
1.0
 40
1.0
 10
170.3763
 20
143.2324
 30
0.0
 10
169.6443
 20
143.2324
 30
0.0
 10
169.0192
 20
142.7042
 30
0.0
 10
168.8972
 20
141.9825
 30
0.0
  0
SPLINE
  5
BA
330
1F
100
AcDbEntity
  8
Capa 1
370
    15
100
AcDbSpline
210
0.0
220
0.0
230
1.0
 70
    24
 71
     3
 72
     8
 73
     4
 74
     0
 42
0.000000001
 43
0.0000000001
 40
0.0
 40
0.0
 40
0.0
 40
0.0
 40
1.0
 40
1.0
 40
1.0
 40
1.0
 10
171.7763
 20
143.2325
 30
0.0
 10
171.7763
 20
143.2325
 30
0.0
 10
170.3763
 20
143.2325
 30
0.0
 10
170.3763
 20
143.2325
 30
0.0
  0
SPLINE
  5
BB
330
1F
100
AcDbEntity
  8
Capa 1
370
    15
100
AcDbSpline
210
0.0
220
0.0
230
1.0
 70
     8
 71
     3
 72
     8
 73
     4
 74
     0
 42
0.000000001
 43
0.0000000001
 40
0.0
 40
0.0
 40
0.0
 40
0.0
 40
1.0
 40
1.0
 40
1.0
 40
1.0
 10
173.2553
 20
141.9825
 30
0.0
 10
173.1333
 20
142.7042
 30
0.0
 10
172.5082
 20
143.2324
 30
0.0
 10
171.7763
 20
143.2324
 30
0.0
  0
SPLINE
  5
BC
330
1F
100
AcDbEntity
  8
Capa 1
370
    15
100
AcDbSpline
210
0.0
220
0.0
230
1.0
 70
    24
 71
     3
 72
     8
 73
     4
 74
     0
 42
0.000000001
 43
0.0000000001
 40
0.0
 40
0.0
 40
0.0
 40
0.0
 40
1.0
 40
1.0
 40
1.0
 40
1.0
 10
179.3174
 20
141.9825
 30
0.0
 10
179.3174
 20
141.9825
 30
0.0
 10
173.2553
 20
141.9825
 30
0.0
 10
173.2553
 20
141.9825
 30
0.0
  0
SPLINE
  5
BD
330
1F
100
AcDbEntity
  8
Capa 1
370
    15
100
AcDbSpline
210
0.0
220
0.0
230
1.0
 70
    24
 71
     3
 72
     8
 73
     4
 74
     0
 42
0.000000001
 43
0.0000000001
 40
0.0
 40
0.0
 40
0.0
 40
0.0
 40
1.0
 40
1.0
 40
1.0
 40
1.0
 10
179.5763
 20
141.9825
 30
0.0
 10
179.5763
 20
141.9825
 30
0.0
 10
179.5763
 20
158.8942
 30
0.0
 10
179.5763
 20
158.8942
 30
0.0
  0
SPLINE
  5
BE
330
1F
100
AcDbEntity
  8
Capa 1
370
    15
100
AcDbSpline
210
0.0
220
0.0
230
1.0
 70
     8
 71
     3
 72
     8
 73
     4
 74
     0
 42
0.000000001
 43
0.0000000001
 40
0.0
 40
0.0
 40
0.0
 40
0.0
 40
1.0
 40
1.0
 40
1.0
 40
1.0
 10
181.0239
 20
160.3933
 30
0.0
 10
180.2163
 20
160.3651
 30
0.0
 10
179.5763
 20
159.7023
 30
0.0
 10
179.5763
 20
158.8942
 30
0.0
  0
SPLINE
  5
BF
330
1F
100
AcDbEntity
  8
Capa 1
370
    15
100
AcDbSpline
210
0.0
220
0.0
230
1.0
 70
    24
 71
     3
 72
     8
 73
     4
 74
     0
 42
0.000000001
 43
0.0000000001
 40
0.0
 40
0.0
 40
0.0
 40
0.0
 40
1.0
 40
1.0
 40
1.0
 40
1.0
 10
183.5763
 20
160.4825
 30
0.0
 10
183.5763
 20
160.4825
 30
0.0
 10
181.0239
 20
160.3933
 30
0.0
 10
181.0239
 20
160.3933
 30
0.0
  0
SPLINE
  5
C0
330
1F
100
AcDbEntity
  8
Capa 1
370
    15
100
AcDbSpline
210
0.0
220
0.0
230
1.0
 70
    24
 71
     3
 72
     8
 73
     4
 74
     0
 42
0.000000001
 43
0.0000000001
 40
0.0
 40
0.0
 40
0.0
 40
0.0
 40
1.0
 40
1.0
 40
1.0
 40
1.0
 10
183.5763
 20
160.4825
 30
0.0
 10
183.5763
 20
160.4825
 30
0.0
 10
183.5763
 20
170.4825
 30
0.0
 10
183.5763
 20
170.4825
 30
0.0
  0
SPLINE
  5
C1
330
1F
100
AcDbEntity
  8
Capa 1
370
    15
100
AcDbSpline
210
0.0
220
0.0
230
1.0
 70
    24
 71
     3
 72
     8
 73
     4
 74
     0
 42
0.000000001
 43
0.0000000001
 40
0.0
 40
0.0
 40
0.0
 40
0.0
 40
1.0
 40
1.0
 40
1.0
 40
1.0
 10
181.0239
 20
170.5716
 30
0.0
 10
181.0239
 20
170.5716
 30
0.0
 10
183.5763
 20
170.4825
 30
0.0
 10
183.5763
 20
170.4825
 30
0.0
  0
SPLINE
  5
C2
330
1F
100
AcDbEntity
  8
Capa 1
370
    15
100
AcDbSpline
210
0.0
220
0.0
230
1.0
 70
     8
 71
     3
 72
     8
 73
     4
 74
     0
 42
0.000000001
 43
0.0000000001
 40
0.0
 40
0.0
 40
0.0
 40
0.0
 40
1.0
 40
1.0
 40
1.0
 40
1.0
 10
179.5763
 20
172.0707
 30
0.0
 10
179.5763
 20
171.2626
 30
0.0
 10
180.2163
 20
170.5998
 30
0.0
 10
181.0239
 20
170.5716
 30
0.0
  0
SPLINE
  5
C3
330
1F
100
AcDbEntity
  8
Capa 1
370
    15
100
AcDbSpline
210
0.0
220
0.0
230
1.0
 70
    24
 71
     3
 72
     8
 73
     4
 74
     0
 42
0.000000001
 43
0.0000000001
 40
0.0
 40
0.0
 40
0.0
 40
0.0
 40
1.0
 40
1.0
 40
1.0
 40
1.0
 10
179.5763
 20
172.0707
 30
0.0
 10
179.5763
 20
172.0707
 30
0.0
 10
179.5763
 20
182.2825
 30
0.0
 10
179.5763
 20
182.2825
 30
0.0
  0
SPLINE
  5
C4
330
1F
100
AcDbEntity
  8
Capa 1
370
    15
100
AcDbSpline
210
0.0
220
0.0
230
1.0
 70
    24
 71
     3
 72
     8
 73
     4
 74
     0
 42
0.000000001
 43
0.0000000001
 40
0.0
 40
0.0
 40
0.0
 40
0.0
 40
1.0
 40
1.0
 40
1.0
 40
1.0
 10
156.3194
 20
182.2825
 30
0.0
 10
156.3194
 20
182.2825
 30
0.0
 10
179.5763
 20
182.2825
 30
0.0
 10
179.5763
 20
182.2825
 30
0.0
  0
SPLINE
  5
C5
330
1F
100
AcDbEntity
  8
Capa 1
370
    15
100
AcDbSpline
210
0.0
220
0.0
230
1.0
 70
     8
 71
     3
 72
     8
 73
     4
 74
     0
 42
0.000000001
 43
0.0000000001
 40
0.0
 40
0.0
 40
0.0
 40
0.0
 40
1.0
 40
1.0
 40
1.0
 40
1.0
 10
149.6802
 20
185.2061
 30
0.0
 10
151.3851
 20
183.3433
 30
0.0
 10
153.7942
 20
182.2825
 30
0.0
 10
156.3194
 20
182.2825
 30
0.0
  0
SPLINE
  5
C6
330
1F
100
AcDbEntity
  8
Capa 1
370
    15
100
AcDbSpline
210
0.0
220
0.0
230
1.0
 70
    24
 71
     3
 72
     8
 73
     4
 74
     0
 42
0.000000001
 43
0.0000000001
 40
0.0
 40
0.0
 40
0.0
 40
0.0
 40
1.0
 40
1.0
 40
1.0
 40
1.0
 10
145.5823
 20
189.6836
 30
0.0
 10
145.5823
 20
189.6836
 30
0.0
 10
149.6802
 20
185.2061
 30
0.0
 10
149.6802
 20
185.2061
 30
0.0
  0
SPLINE
  5
C7
330
1F
100
AcDbEntity
  8
Capa 1
370
    15
100
AcDbSpline
210
0.0
220
0.0
230
1.0
 70
     8
 71
     3
 72
     8
 73
     4
 74
     0
 42
0.000000001
 43
0.0000000001
 40
0.0
 40
0.0
 40
0.0
 40
0.0
 40
1.0
 40
1.0
 40
1.0
 40
1.0
 10
145.5823
 20
189.6836
 30
0.0
 10
144.0669
 20
191.3394
 30
0.0
 10
141.9255
 20
192.2824
 30
0.0
 10
139.6809
 20
192.2824
 30
0.0
  0
SPLINE
  5
C8
330
1F
100
AcDbEntity
  8
Capa 1
370
    15
100
AcDbSpline
210
0.0
220
0.0
230
1.0
 70
     8
 71
     3
 72
     8
 73
     4
 74
     0
 42
0.000000001
 43
0.0000000001
 40
0.0
 40
0.0
 40
0.0
 40
0.0
 40
1.0
 40
1.0
 40
1.0
 40
1.0
 10
-136.7283
 20
192.2824
 30
0.0
 10
-138.9729
 20
192.2824
 30
0.0
 10
-141.1143
 20
191.3394
 30
0.0
 10
-142.6297
 20
189.6836
 30
0.0
  0
SPLINE
  5
C9
330
1F
100
AcDbEntity
  8
Capa 1
370
    15
100
AcDbSpline
210
0.0
220
0.0
230
1.0
 70
    24
 71
     3
 72
     8
 73
     4
 74
     0
 42
0.000000001
 43
0.0000000001
 40
0.0
 40
0.0
 40
0.0
 40
0.0
 40
1.0
 40
1.0
 40
1.0
 40
1.0
 10
-146.7276
 20
185.2061
 30
0.0
 10
-146.7276
 20
185.2061
 30
0.0
 10
-142.6297
 20
189.6836
 30
0.0
 10
-142.6297
 20
189.6836
 30
0.0
  0
SPLINE
  5
CA
330
1F
100
AcDbEntity
  8
Capa 1
370
    15
100
AcDbSpline
210
0.0
220
0.0
230
1.0
 70
     8
 71
     3
 72
     8
 73
     4
 74
     0
 42
0.000000001
 43
0.0000000001
 40
0.0
 40
0.0
 40
0.0
 40
0.0
 40
1.0
 40
1.0
 40
1.0
 40
1.0
 10
-153.3668
 20
182.2825
 30
0.0
 10
-150.8416
 20
182.2825
 30
0.0
 10
-148.4325
 20
183.3433
 30
0.0
 10
-146.7276
 20
185.2061
 30
0.0
  0
SPLINE
  5
CB
330
1F
100
AcDbEntity
  8
Capa 1
370
    15
100
AcDbSpline
210
0.0
220
0.0
230
1.0
 70
    24
 71
     3
 72
     8
 73
     4
 74
     0
 42
0.000000001
 43
0.0000000001
 40
0.0
 40
0.0
 40
0.0
 40
0.0
 40
1.0
 40
1.0
 40
1.0
 40
1.0
 10
-175.6237
 20
182.2825
 30
0.0
 10
-175.6237
 20
182.2825
 30
0.0
 10
-153.3668
 20
182.2825
 30
0.0
 10
-153.3668
 20
182.2825
 30
0.0
  0
SPLINE
  5
CC
330
1F
100
AcDbEntity
  8
Capa 1
370
    15
100
AcDbSpline
210
0.0
220
0.0
230
1.0
 70
     8
 71
     3
 72
    12
 73
     8
 74
     0
 42
0.000000001
 43
0.0000000001
 40
0.0
 40
0.0
 40
0.0
 40
0.0
 40
0.3333333333333333
 40
0.3333333333333333
 40
0.3333333333333333
 40
0.3333333333333333
 40
1.0
 40
1.0
 40
1.0
 40
1.0
 10
-175.6237
 20
182.2825
 30
0.0
 10
-175.7563
 20
182.2825
 30
0.0
 10
-175.8834
 20
182.2298
 30
0.0
 10
-175.9772
 20
182.136
 30
0.0
 10
-175.9772
 20
182.136
 30
0.0
 10
-176.071
 20
182.0422
 30
0.0
 10
-176.1237
 20
181.9151
 30
0.0
 10
-176.1237
 20
181.7824
 30
0.0
  0
SPLINE
  5
CD
330
1F
100
AcDbEntity
  8
Capa 1
370
    15
100
AcDbSpline
210
0.0
220
0.0
230
1.0
 70
    24
 71
     3
 72
     8
 73
     4
 74
     0
 42
0.000000001
 43
0.0000000001
 40
0.0
 40
0.0
 40
0.0
 40
0.0
 40
1.0
 40
1.0
 40
1.0
 40
1.0
 10
-176.1237
 20
172.0707
 30
0.0
 10
-176.1237
 20
172.0707
 30
0.0
 10
-176.1237
 20
181.7825
 30
0.0
 10
-176.1237
 20
181.7825
 30
0.0
  0
SPLINE
  5
CE
330
1F
100
AcDbEntity
  8
Capa 1
370
    15
100
AcDbSpline
210
0.0
220
0.0
230
1.0
 70
     8
 71
     3
 72
     8
 73
     4
 74
     0
 42
0.000000001
 43
0.0000000001
 40
0.0
 40
0.0
 40
0.0
 40
0.0
 40
1.0
 40
1.0
 40
1.0
 40
1.0
 10
-178.0539
 20
170.0719
 30
0.0
 10
-176.9771
 20
170.1095
 30
0.0
 10
-176.1237
 20
170.9933
 30
0.0
 10
-176.1237
 20
172.0707
 30
0.0
  0
SPLINE
  5
CF
330
1F
100
AcDbEntity
  8
Capa 1
370
    15
100
AcDbSpline
210
0.0
220
0.0
230
1.0
 70
    24
 71
     3
 72
     8
 73
     4
 74
     0
 42
0.000000001
 43
0.0000000001
 40
0.0
 40
0.0
 40
0.0
 40
0.0
 40
1.0
 40
1.0
 40
1.0
 40
1.0
 10
-180.6237
 20
169.9821
 30
0.0
 10
-180.6237
 20
169.9821
 30
0.0
 10
-178.0539
 20
170.0719
 30
0.0
 10
-178.0539
 20
170.0719
 30
0.0
  0
SPLINE
  5
D0
330
1F
100
AcDbEntity
  8
Capa 1
370
    15
100
AcDbSpline
210
0.0
220
0.0
230
1.0
 70
    24
 71
     3
 72
     8
 73
     4
 74
     0
 42
0.000000001
 43
0.0000000001
 40
0.0
 40
0.0
 40
0.0
 40
0.0
 40
1.0
 40
1.0
 40
1.0
 40
1.0
 10
-180.6237
 20
169.9821
 30
0.0
 10
-180.6237
 20
169.9821
 30
0.0
 10
-180.6237
 20
160.4825
 30
0.0
 10
-180.6237
 20
160.4825
 30
0.0
  0
SPLINE
  5
D1
330
1F
100
AcDbEntity
  8
Capa 1
370
    15
100
AcDbSpline
210
0.0
220
0.0
230
1.0
 70
    24
 71
     3
 72
     8
 73
     4
 74
     0
 42
0.000000001
 43
0.0000000001
 40
0.0
 40
0.0
 40
0.0
 40
0.0
 40
1.0
 40
1.0
 40
1.0
 40
1.0
 10
-178.0713
 20
160.3933
 30
0.0
 10
-178.0713
 20
160.3933
 30
0.0
 10
-180.6237
 20
160.4825
 30
0.0
 10
-180.6237
 20
160.4825
 30
0.0
  0
SPLINE
  5
D2
330
1F
100
AcDbEntity
  8
Capa 1
370
    15
100
AcDbSpline
210
0.0
220
0.0
230
1.0
 70
     8
 71
     3
 72
     8
 73
     4
 74
     0
 42
0.000000001
 43
0.0000000001
 40
0.0
 40
0.0
 40
0.0
 40
0.0
 40
1.0
 40
1.0
 40
1.0
 40
1.0
 10
-176.6236
 20
158.8942
 30
0.0
 10
-176.6236
 20
159.7023
 30
0.0
 10
-177.2637
 20
160.3651
 30
0.0
 10
-178.0713
 20
160.3933
 30
0.0
  0
SPLINE
  5
D3
330
1F
100
AcDbEntity
  8
Capa 1
370
    15
100
AcDbSpline
210
0.0
220
0.0
230
1.0
 70
    24
 71
     3
 72
     8
 73
     4
 74
     0
 42
0.000000001
 43
0.0000000001
 40
0.0
 40
0.0
 40
0.0
 40
0.0
 40
1.0
 40
1.0
 40
1.0
 40
1.0
 10
-176.6237
 20
158.8942
 30
0.0
 10
-176.6237
 20
158.8942
 30
0.0
 10
-176.6237
 20
141.9825
 30
0.0
 10
-176.6237
 20
141.9825
 30
0.0
  0
SPLINE
  5
D4
330
1F
100
AcDbEntity
  8
Capa 1
370
    15
100
AcDbSpline
210
0.0
220
0.0
230
1.0
 70
    24
 71
     3
 72
     8
 73
     4
 74
     0
 42
0.000000001
 43
0.0000000001
 40
0.0
 40
0.0
 40
0.0
 40
0.0
 40
1.0
 40
1.0
 40
1.0
 40
1.0
 10
-170.3027
 20
141.9825
 30
0.0
 10
-170.3027
 20
141.9825
 30
0.0
 10
-176.4003
 20
141.9825
 30
0.0
 10
-176.4003
 20
141.9825
 30
0.0
  0
SPLINE
  5
D5
330
1F
100
AcDbEntity
  8
Capa 1
370
    15
100
AcDbSpline
210
0.0
220
0.0
230
1.0
 70
     8
 71
     3
 72
     8
 73
     4
 74
     0
 42
0.000000001
 43
0.0000000001
 40
0.0
 40
0.0
 40
0.0
 40
0.0
 40
1.0
 40
1.0
 40
1.0
 40
1.0
 10
-168.8237
 20
143.2324
 30
0.0
 10
-169.5556
 20
143.2324
 30
0.0
 10
-170.1807
 20
142.7042
 30
0.0
 10
-170.3027
 20
141.9825
 30
0.0
  0
SPLINE
  5
D6
330
1F
100
AcDbEntity
  8
Capa 1
370
    15
100
AcDbSpline
210
0.0
220
0.0
230
1.0
 70
    24
 71
     3
 72
     8
 73
     4
 74
     0
 42
0.000000001
 43
0.0000000001
 40
0.0
 40
0.0
 40
0.0
 40
0.0
 40
1.0
 40
1.0
 40
1.0
 40
1.0
 10
-167.4237
 20
143.2325
 30
0.0
 10
-167.4237
 20
143.2325
 30
0.0
 10
-168.8237
 20
143.2325
 30
0.0
 10
-168.8237
 20
143.2325
 30
0.0
  0
SPLINE
  5
D7
330
1F
100
AcDbEntity
  8
Capa 1
370
    15
100
AcDbSpline
210
0.0
220
0.0
230
1.0
 70
     8
 71
     3
 72
     8
 73
     4
 74
     0
 42
0.000000001
 43
0.0000000001
 40
0.0
 40
0.0
 40
0.0
 40
0.0
 40
1.0
 40
1.0
 40
1.0
 40
1.0
 10
-165.9446
 20
141.9825
 30
0.0
 10
-166.0666
 20
142.7042
 30
0.0
 10
-166.6917
 20
143.2324
 30
0.0
 10
-167.4237
 20
143.2324
 30
0.0
  0
SPLINE
  5
D8
330
1F
100
AcDbEntity
  8
Capa 1
370
    15
100
AcDbSpline
210
0.0
220
0.0
230
1.0
 70
    24
 71
     3
 72
     8
 73
     4
 74
     0
 42
0.000000001
 43
0.0000000001
 40
0.0
 40
0.0
 40
0.0
 40
0.0
 40
1.0
 40
1.0
 40
1.0
 40
1.0
 10
-165.9446
 20
141.82
 30
0.0
 10
-165.9446
 20
141.82
 30
0.0
 10
-165.9446
 20
141.9825
 30
0.0
 10
-165.9446
 20
141.9825
 30
0.0
  0
SPLINE
  5
D9
330
1F
100
AcDbEntity
  8
Capa 1
370
    15
100
AcDbSpline
210
0.0
220
0.0
230
1.0
 70
     8
 71
     3
 72
    12
 73
     8
 74
     0
 42
0.000000001
 43
0.0000000001
 40
0.0
 40
0.0
 40
0.0
 40
0.0
 40
0.3333333333333333
 40
0.3333333333333333
 40
0.3333333333333333
 40
0.3333333333333333
 40
1.0
 40
1.0
 40
1.0
 40
1.0
 10
-165.9446
 20
139.1449
 30
0.0
 10
-165.441
 20
139.4006
 30
0.0
 10
-165.1237
 20
139.9176
 30
0.0
 10
-165.1237
 20
140.4824
 30
0.0
 10
-165.1237
 20
140.4824
 30
0.0
 10
-165.1236
 20
141.0473
 30
0.0
 10
-165.441
 20
141.5643
 30
0.0
 10
-165.9446
 20
141.82
 30
0.0
  0
SPLINE
  5
DA
330
1F
100
AcDbEntity
  8
Capa 1
370
    15
100
AcDbSpline
210
0.0
220
0.0
230
1.0
 70
    24
 71
     3
 72
     8
 73
     4
 74
     0
 42
0.000000001
 43
0.0000000001
 40
0.0
 40
0.0
 40
0.0
 40
0.0
 40
1.0
 40
1.0
 40
1.0
 40
1.0
 10
-165.9446
 20
138.9825
 30
0.0
 10
-165.9446
 20
138.9825
 30
0.0
 10
-165.9446
 20
139.1449
 30
0.0
 10
-165.9446
 20
139.1449
 30
0.0
  0
SPLINE
  5
DB
330
1F
100
AcDbEntity
  8
Capa 1
370
    15
100
AcDbSpline
210
0.0
220
0.0
230
1.0
 70
     8
 71
     3
 72
     8
 73
     4
 74
     0
 42
0.000000001
 43
0.0000000001
 40
0.0
 40
0.0
 40
0.0
 40
0.0
 40
1.0
 40
1.0
 40
1.0
 40
1.0
 10
-167.4237
 20
137.7325
 30
0.0
 10
-166.6917
 20
137.7325
 30
0.0
 10
-166.0666
 20
138.2607
 30
0.0
 10
-165.9446
 20
138.9824
 30
0.0
  0
SPLINE
  5
DC
330
1F
100
AcDbEntity
  8
Capa 1
370
    15
100
AcDbSpline
210
0.0
220
0.0
230
1.0
 70
    24
 71
     3
 72
     8
 73
     4
 74
     0
 42
0.000000001
 43
0.0000000001
 40
0.0
 40
0.0
 40
0.0
 40
0.0
 40
1.0
 40
1.0
 40
1.0
 40
1.0
 10
-168.8237
 20
137.7325
 30
0.0
 10
-168.8237
 20
137.7325
 30
0.0
 10
-167.4237
 20
137.7325
 30
0.0
 10
-167.4237
 20
137.7325
 30
0.0
  0
SPLINE
  5
DD
330
1F
100
AcDbEntity
  8
Capa 1
370
    15
100
AcDbSpline
210
0.0
220
0.0
230
1.0
 70
     8
 71
     3
 72
     8
 73
     4
 74
     0
 42
0.000000001
 43
0.0000000001
 40
0.0
 40
0.0
 40
0.0
 40
0.0
 40
1.0
 40
1.0
 40
1.0
 40
1.0
 10
-170.3027
 20
138.9824
 30
0.0
 10
-170.1807
 20
138.2607
 30
0.0
 10
-169.5556
 20
137.7325
 30
0.0
 10
-168.8237
 20
137.7325
 30
0.0
  0
SPLINE
  5
DE
330
1F
100
AcDbEntity
  8
Capa 1
370
    15
100
AcDbSpline
210
0.0
220
0.0
230
1.0
 70
    24
 71
     3
 72
     8
 73
     4
 74
     0
 42
0.000000001
 43
0.0000000001
 40
0.0
 40
0.0
 40
0.0
 40
0.0
 40
1.0
 40
1.0
 40
1.0
 40
1.0
 10
-176.387
 20
138.9825
 30
0.0
 10
-176.387
 20
138.9825
 30
0.0
 10
-170.3027
 20
138.9825
 30
0.0
 10
-170.3027
 20
138.9825
 30
0.0
  0
SPLINE
  5
DF
330
1F
100
AcDbEntity
  8
Capa 1
370
    15
100
AcDbSpline
210
0.0
220
0.0
230
1.0
 70
    24
 71
     3
 72
     8
 73
     4
 74
     0
 42
0.000000001
 43
0.0000000001
 40
0.0
 40
0.0
 40
0.0
 40
0.0
 40
1.0
 40
1.0
 40
1.0
 40
1.0
 10
-176.6237
 20
138.9474
 30
0.0
 10
-176.6237
 20
138.9474
 30
0.0
 10
-176.6237
 20
122.0356
 30
0.0
 10
-176.6237
 20
122.0356
 30
0.0
  0
SPLINE
  5
E0
330
1F
100
AcDbEntity
  8
Capa 1
370
    15
100
AcDbSpline
210
0.0
220
0.0
230
1.0
 70
     8
 71
     3
 72
     8
 73
     4
 74
     0
 42
0.000000001
 43
0.0000000001
 40
0.0
 40
0.0
 40
0.0
 40
0.0
 40
1.0
 40
1.0
 40
1.0
 40
1.0
 10
-178.0713
 20
120.5716
 30
0.0
 10
-177.2637
 20
120.5998
 30
0.0
 10
-176.6237
 20
121.2626
 30
0.0
 10
-176.6237
 20
122.0707
 30
0.0
  0
SPLINE
  5
E1
330
1F
100
AcDbEntity
  8
Capa 1
370
    15
100
AcDbSpline
210
0.0
220
0.0
230
1.0
 70
    24
 71
     3
 72
     8
 73
     4
 74
     0
 42
0.000000001
 43
0.0000000001
 40
0.0
 40
0.0
 40
0.0
 40
0.0
 40
1.0
 40
1.0
 40
1.0
 40
1.0
 10
-180.6237
 20
120.4825
 30
0.0
 10
-180.6237
 20
120.4825
 30
0.0
 10
-178.0713
 20
120.5716
 30
0.0
 10
-178.0713
 20
120.5716
 30
0.0
  0
SPLINE
  5
E2
330
1F
100
AcDbEntity
  8
Capa 1
370
    15
100
AcDbSpline
210
0.0
220
0.0
230
1.0
 70
    24
 71
     3
 72
     8
 73
     4
 74
     0
 42
0.000000001
 43
0.0000000001
 40
0.0
 40
0.0
 40
0.0
 40
0.0
 40
1.0
 40
1.0
 40
1.0
 40
1.0
 10
-180.6237
 20
120.4825
 30
0.0
 10
-180.6237
 20
120.4825
 30
0.0
 10
-180.6237
 20
110.4825
 30
0.0
 10
-180.6237
 20
110.4825
 30
0.0
  0
SPLINE
  5
E3
330
1F
100
AcDbEntity
  8
Capa 1
370
    15
100
AcDbSpline
210
0.0
220
0.0
230
1.0
 70
    24
 71
     3
 72
     8
 73
     4
 74
     0
 42
0.000000001
 43
0.0000000001
 40
0.0
 40
0.0
 40
0.0
 40
0.0
 40
1.0
 40
1.0
 40
1.0
 40
1.0
 10
-178.0713
 20
110.3933
 30
0.0
 10
-178.0713
 20
110.3933
 30
0.0
 10
-180.6237
 20
110.4825
 30
0.0
 10
-180.6237
 20
110.4825
 30
0.0
  0
SPLINE
  5
E4
330
1F
100
AcDbEntity
  8
Capa 1
370
    15
100
AcDbSpline
210
0.0
220
0.0
230
1.0
 70
     8
 71
     3
 72
     8
 73
     4
 74
     0
 42
0.000000001
 43
0.0000000001
 40
0.0
 40
0.0
 40
0.0
 40
0.0
 40
1.0
 40
1.0
 40
1.0
 40
1.0
 10
-176.6236
 20
108.8942
 30
0.0
 10
-176.6236
 20
109.7023
 30
0.0
 10
-177.2637
 20
110.3651
 30
0.0
 10
-178.0713
 20
110.3933
 30
0.0
  0
SPLINE
  5
E5
330
1F
100
AcDbEntity
  8
Capa 1
370
    15
100
AcDbSpline
210
0.0
220
0.0
230
1.0
 70
    24
 71
     3
 72
     8
 73
     4
 74
     0
 42
0.000000001
 43
0.0000000001
 40
0.0
 40
0.0
 40
0.0
 40
0.0
 40
1.0
 40
1.0
 40
1.0
 40
1.0
 10
-176.6237
 20
108.8942
 30
0.0
 10
-176.6237
 20
108.8942
 30
0.0
 10
-176.6237
 20
37.8707
 30
0.0
 10
-176.6237
 20
37.8707
 30
0.0
  0
SPLINE
  5
E6
330
1F
100
AcDbEntity
  8
Capa 1
370
    15
100
AcDbSpline
210
0.0
220
0.0
230
1.0
 70
     8
 71
     3
 72
     8
 73
     4
 74
     0
 42
0.000000001
 43
0.0000000001
 40
0.0
 40
0.0
 40
0.0
 40
0.0
 40
1.0
 40
1.0
 40
1.0
 40
1.0
 10
-178.0713
 20
36.3716
 30
0.0
 10
-177.2637
 20
36.3998
 30
0.0
 10
-176.6237
 20
37.0626
 30
0.0
 10
-176.6237
 20
37.8707
 30
0.0
  0
SPLINE
  5
E7
330
1F
100
AcDbEntity
  8
Capa 1
370
    15
100
AcDbSpline
210
0.0
220
0.0
230
1.0
 70
    24
 71
     3
 72
     8
 73
     4
 74
     0
 42
0.000000001
 43
0.0000000001
 40
0.0
 40
0.0
 40
0.0
 40
0.0
 40
1.0
 40
1.0
 40
1.0
 40
1.0
 10
-180.6237
 20
36.2825
 30
0.0
 10
-180.6237
 20
36.2825
 30
0.0
 10
-178.0713
 20
36.3716
 30
0.0
 10
-178.0713
 20
36.3716
 30
0.0
  0
SPLINE
  5
E8
330
1F
100
AcDbEntity
  8
Capa 1
370
    15
100
AcDbSpline
210
0.0
220
0.0
230
1.0
 70
    24
 71
     3
 72
     8
 73
     4
 74
     0
 42
0.000000001
 43
0.0000000001
 40
0.0
 40
0.0
 40
0.0
 40
0.0
 40
1.0
 40
1.0
 40
1.0
 40
1.0
 10
-180.6237
 20
36.2825
 30
0.0
 10
-180.6237
 20
36.2825
 30
0.0
 10
-180.6237
 20
26.2825
 30
0.0
 10
-180.6237
 20
26.2825
 30
0.0
  0
SPLINE
  5
E9
330
1F
100
AcDbEntity
  8
Capa 1
370
    15
100
AcDbSpline
210
0.0
220
0.0
230
1.0
 70
    24
 71
     3
 72
     8
 73
     4
 74
     0
 42
0.000000001
 43
0.0000000001
 40
0.0
 40
0.0
 40
0.0
 40
0.0
 40
1.0
 40
1.0
 40
1.0
 40
1.0
 10
-178.0713
 20
26.1933
 30
0.0
 10
-178.0713
 20
26.1933
 30
0.0
 10
-180.6237
 20
26.2825
 30
0.0
 10
-180.6237
 20
26.2825
 30
0.0
  0
SPLINE
  5
EA
330
1F
100
AcDbEntity
  8
Capa 1
370
    15
100
AcDbSpline
210
0.0
220
0.0
230
1.0
 70
     8
 71
     3
 72
     8
 73
     4
 74
     0
 42
0.000000001
 43
0.0000000001
 40
0.0
 40
0.0
 40
0.0
 40
0.0
 40
1.0
 40
1.0
 40
1.0
 40
1.0
 10
-176.6236
 20
24.6942
 30
0.0
 10
-176.6236
 20
25.5023
 30
0.0
 10
-177.2637
 20
26.1651
 30
0.0
 10
-178.0713
 20
26.1933
 30
0.0
  0
SPLINE
  5
EB
330
1F
100
AcDbEntity
  8
Capa 1
370
    15
100
AcDbSpline
210
0.0
220
0.0
230
1.0
 70
    24
 71
     3
 72
     8
 73
     4
 74
     0
 42
0.000000001
 43
0.0000000001
 40
0.0
 40
0.0
 40
0.0
 40
0.0
 40
1.0
 40
1.0
 40
1.0
 40
1.0
 10
-176.6237
 20
24.6942
 30
0.0
 10
-176.6237
 20
24.6942
 30
0.0
 10
-176.6237
 20
7.8825
 30
0.0
 10
-176.6237
 20
7.8825
 30
0.0
  0
SPLINE
  5
EC
330
1F
100
AcDbEntity
  8
Capa 1
370
    15
100
AcDbSpline
210
0.0
220
0.0
230
1.0
 70
    24
 71
     3
 72
     8
 73
     4
 74
     0
 42
0.000000001
 43
0.0000000001
 40
0.0
 40
0.0
 40
0.0
 40
0.0
 40
1.0
 40
1.0
 40
1.0
 40
1.0
 10
-170.3027
 20
7.8825
 30
0.0
 10
-170.3027
 20
7.8825
 30
0.0
 10
-176.3874
 20
7.8825
 30
0.0
 10
-176.3874
 20
7.8825
 30
0.0
  0
SPLINE
  5
ED
330
1F
100
AcDbEntity
  8
Capa 1
370
    15
100
AcDbSpline
210
0.0
220
0.0
230
1.0
 70
     8
 71
     3
 72
     8
 73
     4
 74
     0
 42
0.000000001
 43
0.0000000001
 40
0.0
 40
0.0
 40
0.0
 40
0.0
 40
1.0
 40
1.0
 40
1.0
 40
1.0
 10
-168.8237
 20
9.1324
 30
0.0
 10
-169.5556
 20
9.1324
 30
0.0
 10
-170.1807
 20
8.6042
 30
0.0
 10
-170.3027
 20
7.8825
 30
0.0
  0
SPLINE
  5
EE
330
1F
100
AcDbEntity
  8
Capa 1
370
    15
100
AcDbSpline
210
0.0
220
0.0
230
1.0
 70
    24
 71
     3
 72
     8
 73
     4
 74
     0
 42
0.000000001
 43
0.0000000001
 40
0.0
 40
0.0
 40
0.0
 40
0.0
 40
1.0
 40
1.0
 40
1.0
 40
1.0
 10
-167.4237
 20
9.1325
 30
0.0
 10
-167.4237
 20
9.1325
 30
0.0
 10
-168.8237
 20
9.1325
 30
0.0
 10
-168.8237
 20
9.1325
 30
0.0
  0
SPLINE
  5
EF
330
1F
100
AcDbEntity
  8
Capa 1
370
    15
100
AcDbSpline
210
0.0
220
0.0
230
1.0
 70
     8
 71
     3
 72
     8
 73
     4
 74
     0
 42
0.000000001
 43
0.0000000001
 40
0.0
 40
0.0
 40
0.0
 40
0.0
 40
1.0
 40
1.0
 40
1.0
 40
1.0
 10
-165.9446
 20
7.8825
 30
0.0
 10
-166.0666
 20
8.6042
 30
0.0
 10
-166.6917
 20
9.1324
 30
0.0
 10
-167.4237
 20
9.1324
 30
0.0
  0
SPLINE
  5
F0
330
1F
100
AcDbEntity
  8
Capa 1
370
    15
100
AcDbSpline
210
0.0
220
0.0
230
1.0
 70
    24
 71
     3
 72
     8
 73
     4
 74
     0
 42
0.000000001
 43
0.0000000001
 40
0.0
 40
0.0
 40
0.0
 40
0.0
 40
1.0
 40
1.0
 40
1.0
 40
1.0
 10
-165.9446
 20
7.72
 30
0.0
 10
-165.9446
 20
7.72
 30
0.0
 10
-165.9446
 20
7.8825
 30
0.0
 10
-165.9446
 20
7.8825
 30
0.0
  0
SPLINE
  5
F1
330
1F
100
AcDbEntity
  8
Capa 1
370
    15
100
AcDbSpline
210
0.0
220
0.0
230
1.0
 70
     8
 71
     3
 72
    12
 73
     8
 74
     0
 42
0.000000001
 43
0.0000000001
 40
0.0
 40
0.0
 40
0.0
 40
0.0
 40
0.3333333333333333
 40
0.3333333333333333
 40
0.3333333333333333
 40
0.3333333333333333
 40
1.0
 40
1.0
 40
1.0
 40
1.0
 10
-165.9446
 20
5.0449
 30
0.0
 10
-165.441
 20
5.3006
 30
0.0
 10
-165.1237
 20
5.8176
 30
0.0
 10
-165.1237
 20
6.3824
 30
0.0
 10
-165.1237
 20
6.3824
 30
0.0
 10
-165.1236
 20
6.9473
 30
0.0
 10
-165.441
 20
7.4643
 30
0.0
 10
-165.9446
 20
7.72
 30
0.0
  0
SPLINE
  5
F2
330
1F
100
AcDbEntity
  8
Capa 1
370
    15
100
AcDbSpline
210
0.0
220
0.0
230
1.0
 70
    24
 71
     3
 72
     8
 73
     4
 74
     0
 42
0.000000001
 43
0.0000000001
 40
0.0
 40
0.0
 40
0.0
 40
0.0
 40
1.0
 40
1.0
 40
1.0
 40
1.0
 10
-165.9446
 20
4.8825
 30
0.0
 10
-165.9446
 20
4.8825
 30
0.0
 10
-165.9446
 20
5.0449
 30
0.0
 10
-165.9446
 20
5.0449
 30
0.0
  0
SPLINE
  5
F3
330
1F
100
AcDbEntity
  8
Capa 1
370
    15
100
AcDbSpline
210
0.0
220
0.0
230
1.0
 70
     8
 71
     3
 72
     8
 73
     4
 74
     0
 42
0.000000001
 43
0.0000000001
 40
0.0
 40
0.0
 40
0.0
 40
0.0
 40
1.0
 40
1.0
 40
1.0
 40
1.0
 10
-167.4237
 20
3.6325
 30
0.0
 10
-166.6917
 20
3.6325
 30
0.0
 10
-166.0666
 20
4.1607
 30
0.0
 10
-165.9446
 20
4.8824
 30
0.0
  0
SPLINE
  5
F4
330
1F
100
AcDbEntity
  8
Capa 1
370
    15
100
AcDbSpline
210
0.0
220
0.0
230
1.0
 70
    24
 71
     3
 72
     8
 73
     4
 74
     0
 42
0.000000001
 43
0.0000000001
 40
0.0
 40
0.0
 40
0.0
 40
0.0
 40
1.0
 40
1.0
 40
1.0
 40
1.0
 10
-168.8237
 20
3.6325
 30
0.0
 10
-168.8237
 20
3.6325
 30
0.0
 10
-167.4237
 20
3.6325
 30
0.0
 10
-167.4237
 20
3.6325
 30
0.0
  0
SPLINE
  5
F5
330
1F
100
AcDbEntity
  8
Capa 1
370
    15
100
AcDbSpline
210
0.0
220
0.0
230
1.0
 70
     8
 71
     3
 72
     8
 73
     4
 74
     0
 42
0.000000001
 43
0.0000000001
 40
0.0
 40
0.0
 40
0.0
 40
0.0
 40
1.0
 40
1.0
 40
1.0
 40
1.0
 10
-170.3027
 20
4.8824
 30
0.0
 10
-170.1807
 20
4.1607
 30
0.0
 10
-169.5556
 20
3.6325
 30
0.0
 10
-168.8237
 20
3.6325
 30
0.0
  0
SPLINE
  5
F6
330
1F
100
AcDbEntity
  8
Capa 1
370
    15
100
AcDbSpline
210
0.0
220
0.0
230
1.0
 70
    24
 71
     3
 72
     8
 73
     4
 74
     0
 42
0.000000001
 43
0.0000000001
 40
0.0
 40
0.0
 40
0.0
 40
0.0
 40
1.0
 40
1.0
 40
1.0
 40
1.0
 10
-176.3874
 20
4.8825
 30
0.0
 10
-176.3874
 20
4.8825
 30
0.0
 10
-170.3027
 20
4.8825
 30
0.0
 10
-170.3027
 20
4.8825
 30
0.0
  0
SPLINE
  5
F7
330
1F
100
AcDbEntity
  8
Capa 1
370
    15
100
AcDbSpline
210
0.0
220
0.0
230
1.0
 70
    24
 71
     3
 72
     8
 73
     4
 74
     0
 42
0.000000001
 43
0.0000000001
 40
0.0
 40
0.0
 40
0.0
 40
0.0
 40
1.0
 40
1.0
 40
1.0
 40
1.0
 10
-176.6237
 20
4.8825
 30
0.0
 10
-176.6237
 20
4.8825
 30
0.0
 10
-176.6237
 20
-12.1292
 30
0.0
 10
-176.6237
 20
-12.1292
 30
0.0
  0
SPLINE
  5
F8
330
1F
100
AcDbEntity
  8
Capa 1
370
    15
100
AcDbSpline
210
0.0
220
0.0
230
1.0
 70
     8
 71
     3
 72
     8
 73
     4
 74
     0
 42
0.000000001
 43
0.0000000001
 40
0.0
 40
0.0
 40
0.0
 40
0.0
 40
1.0
 40
1.0
 40
1.0
 40
1.0
 10
-178.0713
 20
-13.6283
 30
0.0
 10
-177.2637
 20
-13.6001
 30
0.0
 10
-176.6237
 20
-12.9373
 30
0.0
 10
-176.6237
 20
-12.1292
 30
0.0
  0
SPLINE
  5
F9
330
1F
100
AcDbEntity
  8
Capa 1
370
    15
100
AcDbSpline
210
0.0
220
0.0
230
1.0
 70
    24
 71
     3
 72
     8
 73
     4
 74
     0
 42
0.000000001
 43
0.0000000001
 40
0.0
 40
0.0
 40
0.0
 40
0.0
 40
1.0
 40
1.0
 40
1.0
 40
1.0
 10
-180.6237
 20
-13.7175
 30
0.0
 10
-180.6237
 20
-13.7175
 30
0.0
 10
-178.0713
 20
-13.6283
 30
0.0
 10
-178.0713
 20
-13.6283
 30
0.0
  0
SPLINE
  5
FA
330
1F
100
AcDbEntity
  8
Capa 1
370
    15
100
AcDbSpline
210
0.0
220
0.0
230
1.0
 70
    24
 71
     3
 72
     8
 73
     4
 74
     0
 42
0.000000001
 43
0.0000000001
 40
0.0
 40
0.0
 40
0.0
 40
0.0
 40
1.0
 40
1.0
 40
1.0
 40
1.0
 10
-180.6237
 20
-13.7175
 30
0.0
 10
-180.6237
 20
-13.7175
 30
0.0
 10
-180.6237
 20
-23.7175
 30
0.0
 10
-180.6237
 20
-23.7175
 30
0.0
  0
SPLINE
  5
FB
330
1F
100
AcDbEntity
  8
Capa 1
370
    15
100
AcDbSpline
210
0.0
220
0.0
230
1.0
 70
    24
 71
     3
 72
     8
 73
     4
 74
     0
 42
0.000000001
 43
0.0000000001
 40
0.0
 40
0.0
 40
0.0
 40
0.0
 40
1.0
 40
1.0
 40
1.0
 40
1.0
 10
-178.0713
 20
-23.8066
 30
0.0
 10
-178.0713
 20
-23.8066
 30
0.0
 10
-180.6237
 20
-23.7175
 30
0.0
 10
-180.6237
 20
-23.7175
 30
0.0
  0
SPLINE
  5
FC
330
1F
100
AcDbEntity
  8
Capa 1
370
    15
100
AcDbSpline
210
0.0
220
0.0
230
1.0
 70
     8
 71
     3
 72
     8
 73
     4
 74
     0
 42
0.000000001
 43
0.0000000001
 40
0.0
 40
0.0
 40
0.0
 40
0.0
 40
1.0
 40
1.0
 40
1.0
 40
1.0
 10
-176.6236
 20
-25.3057
 30
0.0
 10
-176.6236
 20
-24.4976
 30
0.0
 10
-177.2637
 20
-23.8348
 30
0.0
 10
-178.0713
 20
-23.8066
 30
0.0
  0
SPLINE
  5
FD
330
1F
100
AcDbEntity
  8
Capa 1
370
    15
100
AcDbSpline
210
0.0
220
0.0
230
1.0
 70
    24
 71
     3
 72
     8
 73
     4
 74
     0
 42
0.000000001
 43
0.0000000001
 40
0.0
 40
0.0
 40
0.0
 40
0.0
 40
1.0
 40
1.0
 40
1.0
 40
1.0
 10
-176.6237
 20
-25.3057
 30
0.0
 10
-176.6237
 20
-25.3057
 30
0.0
 10
-176.6237
 20
-93.8292
 30
0.0
 10
-176.6237
 20
-93.8292
 30
0.0
  0
SPLINE
  5
FE
330
1F
100
AcDbEntity
  8
Capa 1
370
    15
100
AcDbSpline
210
0.0
220
0.0
230
1.0
 70
     8
 71
     3
 72
     8
 73
     4
 74
     0
 42
0.000000001
 43
0.0000000001
 40
0.0
 40
0.0
 40
0.0
 40
0.0
 40
1.0
 40
1.0
 40
1.0
 40
1.0
 10
-178.0713
 20
-95.3283
 30
0.0
 10
-177.2637
 20
-95.3001
 30
0.0
 10
-176.6237
 20
-94.6373
 30
0.0
 10
-176.6237
 20
-93.8292
 30
0.0
  0
SPLINE
  5
FF
330
1F
100
AcDbEntity
  8
Capa 1
370
    15
100
AcDbSpline
210
0.0
220
0.0
230
1.0
 70
    24
 71
     3
 72
     8
 73
     4
 74
     0
 42
0.000000001
 43
0.0000000001
 40
0.0
 40
0.0
 40
0.0
 40
0.0
 40
1.0
 40
1.0
 40
1.0
 40
1.0
 10
-180.6237
 20
-95.4175
 30
0.0
 10
-180.6237
 20
-95.4175
 30
0.0
 10
-178.0713
 20
-95.3283
 30
0.0
 10
-178.0713
 20
-95.3283
 30
0.0
  0
SPLINE
  5
100
330
1F
100
AcDbEntity
  8
Capa 1
370
    15
100
AcDbSpline
210
0.0
220
0.0
230
1.0
 70
    24
 71
     3
 72
     8
 73
     4
 74
     0
 42
0.000000001
 43
0.0000000001
 40
0.0
 40
0.0
 40
0.0
 40
0.0
 40
1.0
 40
1.0
 40
1.0
 40
1.0
 10
-180.6237
 20
-95.4175
 30
0.0
 10
-180.6237
 20
-95.4175
 30
0.0
 10
-180.6237
 20
-105.4175
 30
0.0
 10
-180.6237
 20
-105.4175
 30
0.0
  0
SPLINE
  5
101
330
1F
100
AcDbEntity
  8
Capa 1
370
    15
100
AcDbSpline
210
0.0
220
0.0
230
1.0
 70
    24
 71
     3
 72
     8
 73
     4
 74
     0
 42
0.000000001
 43
0.0000000001
 40
0.0
 40
0.0
 40
0.0
 40
0.0
 40
1.0
 40
1.0
 40
1.0
 40
1.0
 10
-178.0713
 20
-105.5066
 30
0.0
 10
-178.0713
 20
-105.5066
 30
0.0
 10
-180.6237
 20
-105.4175
 30
0.0
 10
-180.6237
 20
-105.4175
 30
0.0
  0
SPLINE
  5
102
330
1F
100
AcDbEntity
  8
Capa 1
370
    15
100
AcDbSpline
210
0.0
220
0.0
230
1.0
 70
     8
 71
     3
 72
     8
 73
     4
 74
     0
 42
0.000000001
 43
0.0000000001
 40
0.0
 40
0.0
 40
0.0
 40
0.0
 40
1.0
 40
1.0
 40
1.0
 40
1.0
 10
-176.6237
 20
-107.0057
 30
0.0
 10
-176.6237
 20
-106.1976
 30
0.0
 10
-177.2637
 20
-105.5348
 30
0.0
 10
-178.0713
 20
-105.5066
 30
0.0
  0
SPLINE
  5
103
330
1F
100
AcDbEntity
  8
Capa 1
370
    15
100
AcDbSpline
210
0.0
220
0.0
230
1.0
 70
    24
 71
     3
 72
     8
 73
     4
 74
     0
 42
0.000000001
 43
0.0000000001
 40
0.0
 40
0.0
 40
0.0
 40
0.0
 40
1.0
 40
1.0
 40
1.0
 40
1.0
 10
-176.6237
 20
-107.0057
 30
0.0
 10
-176.6237
 20
-107.0057
 30
0.0
 10
-176.6237
 20
-124.0175
 30
0.0
 10
-176.6237
 20
-124.0175
 30
0.0
  0
SPLINE
  5
104
330
1F
100
AcDbEntity
  8
Capa 1
370
    15
100
AcDbSpline
210
0.0
220
0.0
230
1.0
 70
    24
 71
     3
 72
     8
 73
     4
 74
     0
 42
0.000000001
 43
0.0000000001
 40
0.0
 40
0.0
 40
0.0
 40
0.0
 40
1.0
 40
1.0
 40
1.0
 40
1.0
 10
-170.2836
 20
-124.0175
 30
0.0
 10
-170.2836
 20
-124.0175
 30
0.0
 10
-176.3836
 20
-124.0175
 30
0.0
 10
-176.3836
 20
-124.0175
 30
0.0
  0
SPLINE
  5
105
330
1F
100
AcDbEntity
  8
Capa 1
370
    15
100
AcDbSpline
210
0.0
220
0.0
230
1.0
 70
     8
 71
     3
 72
     8
 73
     4
 74
     0
 42
0.000000001
 43
0.0000000001
 40
0.0
 40
0.0
 40
0.0
 40
0.0
 40
1.0
 40
1.0
 40
1.0
 40
1.0
 10
-168.8237
 20
-122.7675
 30
0.0
 10
-169.5556
 20
-122.7675
 30
0.0
 10
-170.1807
 20
-123.2957
 30
0.0
 10
-170.3027
 20
-124.0174
 30
0.0
  0
SPLINE
  5
106
330
1F
100
AcDbEntity
  8
Capa 1
370
    15
100
AcDbSpline
210
0.0
220
0.0
230
1.0
 70
    24
 71
     3
 72
     8
 73
     4
 74
     0
 42
0.000000001
 43
0.0000000001
 40
0.0
 40
0.0
 40
0.0
 40
0.0
 40
1.0
 40
1.0
 40
1.0
 40
1.0
 10
-167.4237
 20
-122.7675
 30
0.0
 10
-167.4237
 20
-122.7675
 30
0.0
 10
-168.8237
 20
-122.7675
 30
0.0
 10
-168.8237
 20
-122.7675
 30
0.0
  0
SPLINE
  5
107
330
1F
100
AcDbEntity
  8
Capa 1
370
    15
100
AcDbSpline
210
0.0
220
0.0
230
1.0
 70
     8
 71
     3
 72
     8
 73
     4
 74
     0
 42
0.000000001
 43
0.0000000001
 40
0.0
 40
0.0
 40
0.0
 40
0.0
 40
1.0
 40
1.0
 40
1.0
 40
1.0
 10
-165.9446
 20
-124.0174
 30
0.0
 10
-166.0666
 20
-123.2957
 30
0.0
 10
-166.6917
 20
-122.7675
 30
0.0
 10
-167.4237
 20
-122.7675
 30
0.0
  0
SPLINE
  5
108
330
1F
100
AcDbEntity
  8
Capa 1
370
    15
100
AcDbSpline
210
0.0
220
0.0
230
1.0
 70
    24
 71
     3
 72
     8
 73
     4
 74
     0
 42
0.000000001
 43
0.0000000001
 40
0.0
 40
0.0
 40
0.0
 40
0.0
 40
1.0
 40
1.0
 40
1.0
 40
1.0
 10
-165.9446
 20
-124.1799
 30
0.0
 10
-165.9446
 20
-124.1799
 30
0.0
 10
-165.9446
 20
-124.0175
 30
0.0
 10
-165.9446
 20
-124.0175
 30
0.0
  0
SPLINE
  5
109
330
1F
100
AcDbEntity
  8
Capa 1
370
    15
100
AcDbSpline
210
0.0
220
0.0
230
1.0
 70
     8
 71
     3
 72
    12
 73
     8
 74
     0
 42
0.000000001
 43
0.0000000001
 40
0.0
 40
0.0
 40
0.0
 40
0.0
 40
0.3333333333333333
 40
0.3333333333333333
 40
0.3333333333333333
 40
0.3333333333333333
 40
1.0
 40
1.0
 40
1.0
 40
1.0
 10
-165.9446
 20
-126.855
 30
0.0
 10
-165.441
 20
-126.5993
 30
0.0
 10
-165.1237
 20
-126.0823
 30
0.0
 10
-165.1237
 20
-125.5175
 30
0.0
 10
-165.1237
 20
-125.5175
 30
0.0
 10
-165.1236
 20
-124.9526
 30
0.0
 10
-165.441
 20
-124.4356
 30
0.0
 10
-165.9446
 20
-124.1799
 30
0.0
  0
SPLINE
  5
10A
330
1F
100
AcDbEntity
  8
Capa 1
370
    15
100
AcDbSpline
210
0.0
220
0.0
230
1.0
 70
    24
 71
     3
 72
     8
 73
     4
 74
     0
 42
0.000000001
 43
0.0000000001
 40
0.0
 40
0.0
 40
0.0
 40
0.0
 40
1.0
 40
1.0
 40
1.0
 40
1.0
 10
-165.9446
 20
-127.0175
 30
0.0
 10
-165.9446
 20
-127.0175
 30
0.0
 10
-165.9446
 20
-126.855
 30
0.0
 10
-165.9446
 20
-126.855
 30
0.0
  0
SPLINE
  5
10B
330
1F
100
AcDbEntity
  8
Capa 1
370
    15
100
AcDbSpline
210
0.0
220
0.0
230
1.0
 70
     8
 71
     3
 72
     8
 73
     4
 74
     0
 42
0.000000001
 43
0.0000000001
 40
0.0
 40
0.0
 40
0.0
 40
0.0
 40
1.0
 40
1.0
 40
1.0
 40
1.0
 10
-167.4237
 20
-128.2674
 30
0.0
 10
-166.6917
 20
-128.2674
 30
0.0
 10
-166.0666
 20
-127.7392
 30
0.0
 10
-165.9446
 20
-127.0175
 30
0.0
  0
SPLINE
  5
10C
330
1F
100
AcDbEntity
  8
Capa 1
370
    15
100
AcDbSpline
210
0.0
220
0.0
230
1.0
 70
    24
 71
     3
 72
     8
 73
     4
 74
     0
 42
0.000000001
 43
0.0000000001
 40
0.0
 40
0.0
 40
0.0
 40
0.0
 40
1.0
 40
1.0
 40
1.0
 40
1.0
 10
-168.8237
 20
-128.2675
 30
0.0
 10
-168.8237
 20
-128.2675
 30
0.0
 10
-167.4237
 20
-128.2675
 30
0.0
 10
-167.4237
 20
-128.2675
 30
0.0
  0
SPLINE
  5
10D
330
1F
100
AcDbEntity
  8
Capa 1
370
    15
100
AcDbSpline
210
0.0
220
0.0
230
1.0
 70
     8
 71
     3
 72
     8
 73
     4
 74
     0
 42
0.000000001
 43
0.0000000001
 40
0.0
 40
0.0
 40
0.0
 40
0.0
 40
1.0
 40
1.0
 40
1.0
 40
1.0
 10
-170.3027
 20
-127.0175
 30
0.0
 10
-170.1807
 20
-127.7392
 30
0.0
 10
-169.5556
 20
-128.2674
 30
0.0
 10
-168.8237
 20
-128.2674
 30
0.0
  0
SPLINE
  5
10E
330
1F
100
AcDbEntity
  8
Capa 1
370
    15
100
AcDbSpline
210
0.0
220
0.0
230
1.0
 70
    24
 71
     3
 72
     8
 73
     4
 74
     0
 42
0.000000001
 43
0.0000000001
 40
0.0
 40
0.0
 40
0.0
 40
0.0
 40
1.0
 40
1.0
 40
1.0
 40
1.0
 10
-176.4034
 20
-127.0175
 30
0.0
 10
-176.4034
 20
-127.0175
 30
0.0
 10
-170.3034
 20
-127.0175
 30
0.0
 10
-170.3034
 20
-127.0175
 30
0.0
  0
SPLINE
  5
10F
330
1F
100
AcDbEntity
  8
Capa 1
370
    15
100
AcDbSpline
210
0.0
220
0.0
230
1.0
 70
    24
 71
     3
 72
     8
 73
     4
 74
     0
 42
0.000000001
 43
0.0000000001
 40
0.0
 40
0.0
 40
0.0
 40
0.0
 40
1.0
 40
1.0
 40
1.0
 40
1.0
 10
-176.6237
 20
-127.0175
 30
0.0
 10
-176.6237
 20
-127.0175
 30
0.0
 10
-176.6237
 20
-143.8292
 30
0.0
 10
-176.6237
 20
-143.8292
 30
0.0
  0
SPLINE
  5
110
330
1F
100
AcDbEntity
  8
Capa 1
370
    15
100
AcDbSpline
210
0.0
220
0.0
230
1.0
 70
     8
 71
     3
 72
     8
 73
     4
 74
     0
 42
0.000000001
 43
0.0000000001
 40
0.0
 40
0.0
 40
0.0
 40
0.0
 40
1.0
 40
1.0
 40
1.0
 40
1.0
 10
-178.0713
 20
-145.3283
 30
0.0
 10
-177.2637
 20
-145.3001
 30
0.0
 10
-176.6237
 20
-144.6373
 30
0.0
 10
-176.6237
 20
-143.8292
 30
0.0
  0
SPLINE
  5
111
330
1F
100
AcDbEntity
  8
Capa 1
370
    15
100
AcDbSpline
210
0.0
220
0.0
230
1.0
 70
    24
 71
     3
 72
     8
 73
     4
 74
     0
 42
0.000000001
 43
0.0000000001
 40
0.0
 40
0.0
 40
0.0
 40
0.0
 40
1.0
 40
1.0
 40
1.0
 40
1.0
 10
-180.6237
 20
-145.4175
 30
0.0
 10
-180.6237
 20
-145.4175
 30
0.0
 10
-178.0713
 20
-145.3283
 30
0.0
 10
-178.0713
 20
-145.3283
 30
0.0
  0
SPLINE
  5
112
330
1F
100
AcDbEntity
  8
Capa 1
370
    15
100
AcDbSpline
210
0.0
220
0.0
230
1.0
 70
    24
 71
     3
 72
     8
 73
     4
 74
     0
 42
0.000000001
 43
0.0000000001
 40
0.0
 40
0.0
 40
0.0
 40
0.0
 40
1.0
 40
1.0
 40
1.0
 40
1.0
 10
-180.6237
 20
-145.4175
 30
0.0
 10
-180.6237
 20
-145.4175
 30
0.0
 10
-180.6237
 20
-155.4175
 30
0.0
 10
-180.6237
 20
-155.4175
 30
0.0
  0
SPLINE
  5
113
330
1F
100
AcDbEntity
  8
Capa 1
370
    15
100
AcDbSpline
210
0.0
220
0.0
230
1.0
 70
    24
 71
     3
 72
     8
 73
     4
 74
     0
 42
0.000000001
 43
0.0000000001
 40
0.0
 40
0.0
 40
0.0
 40
0.0
 40
1.0
 40
1.0
 40
1.0
 40
1.0
 10
-178.0713
 20
-155.5066
 30
0.0
 10
-178.0713
 20
-155.5066
 30
0.0
 10
-180.6237
 20
-155.4175
 30
0.0
 10
-180.6237
 20
-155.4175
 30
0.0
  0
SPLINE
  5
114
330
1F
100
AcDbEntity
  8
Capa 1
370
    15
100
AcDbSpline
210
0.0
220
0.0
230
1.0
 70
     8
 71
     3
 72
     8
 73
     4
 74
     0
 42
0.000000001
 43
0.0000000001
 40
0.0
 40
0.0
 40
0.0
 40
0.0
 40
1.0
 40
1.0
 40
1.0
 40
1.0
 10
-176.6237
 20
-157.0057
 30
0.0
 10
-176.6237
 20
-156.1976
 30
0.0
 10
-177.2637
 20
-155.5348
 30
0.0
 10
-178.0713
 20
-155.5066
 30
0.0
  0
SPLINE
  5
115
330
1F
100
AcDbEntity
  8
Capa 1
370
    15
100
AcDbSpline
210
0.0
220
0.0
230
1.0
 70
    24
 71
     3
 72
     8
 73
     4
 74
     0
 42
0.000000001
 43
0.0000000001
 40
0.0
 40
0.0
 40
0.0
 40
0.0
 40
1.0
 40
1.0
 40
1.0
 40
1.0
 10
-176.6237
 20
-157.0057
 30
0.0
 10
-176.6237
 20
-157.0057
 30
0.0
 10
-176.6237
 20
-230.0102
 30
0.0
 10
-176.6237
 20
-230.0102
 30
0.0
  0
SPLINE
  5
116
330
1F
100
AcDbEntity
  8
Capa 1
 62
   250
370
    20
100
AcDbSpline
210
0.0
220
0.0
230
1.0
 70
    24
 71
     3
 72
     8
 73
     4
 74
     0
 42
0.000000001
 43
0.0000000001
 40
0.0
 40
0.0
 40
0.0
 40
0.0
 40
1.0
 40
1.0
 40
1.0
 40
1.0
 10
103.2763
 20
-151.3174
 30
0.0
 10
103.2763
 20
-151.3174
 30
0.0
 10
113.2763
 20
-151.3174
 30
0.0
 10
113.2763
 20
-151.3174
 30
0.0
  0
SPLINE
  5
117
330
1F
100
AcDbEntity
  8
Capa 1
 62
   250
370
    20
100
AcDbSpline
210
0.0
220
0.0
230
1.0
 70
    24
 71
     3
 72
     8
 73
     4
 74
     0
 42
0.000000001
 43
0.0000000001
 40
0.0
 40
0.0
 40
0.0
 40
0.0
 40
1.0
 40
1.0
 40
1.0
 40
1.0
 10
-21.5234
 20
182.6825
 30
0.0
 10
-21.5234
 20
182.6825
 30
0.0
 10
-11.5234
 20
182.6825
 30
0.0
 10
-11.5234
 20
182.6825
 30
0.0
  0
SPLINE
  5
118
330
1F
100
AcDbEntity
  8
Capa 1
 62
   250
370
    20
100
AcDbSpline
210
0.0
220
0.0
230
1.0
 70
    24
 71
     3
 72
     8
 73
     4
 74
     0
 42
0.000000001
 43
0.0000000001
 40
0.0
 40
0.0
 40
0.0
 40
0.0
 40
1.0
 40
1.0
 40
1.0
 40
1.0
 10
14.4766
 20
182.6825
 30
0.0
 10
14.4766
 20
182.6825
 30
0.0
 10
24.4766
 20
182.6825
 30
0.0
 10
24.4766
 20
182.6825
 30
0.0
  0
SPLINE
  5
119
330
1F
100
AcDbEntity
  8
Capa 1
 62
   250
370
    20
100
AcDbSpline
210
0.0
220
0.0
230
1.0
 70
    24
 71
     3
 72
     8
 73
     4
 74
     0
 42
0.000000001
 43
0.0000000001
 40
0.0
 40
0.0
 40
0.0
 40
0.0
 40
1.0
 40
1.0
 40
1.0
 40
1.0
 10
-136.7283
 20
192.2824
 30
0.0
 10
-136.7283
 20
192.2824
 30
0.0
 10
139.6809
 20
192.2824
 30
0.0
 10
139.6809
 20
192.2824
 30
0.0
  0
SPLINE
  5
11A
330
1F
100
AcDbEntity
  8
Capa 1
 62
   250
370
    20
100
AcDbSpline
210
0.0
220
0.0
230
1.0
 70
    24
 71
     3
 72
     8
 73
     4
 74
     0
 42
0.000000001
 43
0.0000000001
 40
0.0
 40
0.0
 40
0.0
 40
0.0
 40
1.0
 40
1.0
 40
1.0
 40
1.0
 10
-137.0237
 20
157.7824
 30
0.0
 10
-137.0237
 20
157.7824
 30
0.0
 10
139.9763
 20
157.7824
 30
0.0
 10
139.9763
 20
157.7824
 30
0.0
  0
SPLINE
  5
11B
330
1F
100
AcDbEntity
  8
Capa 1
 62
   250
370
    20
100
AcDbSpline
210
0.0
220
0.0
230
1.0
 70
    24
 71
     3
 72
     8
 73
     4
 74
     0
 42
0.000000001
 43
0.0000000001
 40
0.0
 40
0.0
 40
0.0
 40
0.0
 40
1.0
 40
1.0
 40
1.0
 40
1.0
 10
-136.402
 20
-219.0527
 30
0.0
 10
-136.402
 20
-219.0527
 30
0.0
 10
139.5662
 20
-219.0527
 30
0.0
 10
139.5662
 20
-219.0527
 30
0.0
  0
SPLINE
  5
11C
330
1F
100
AcDbEntity
  8
Capa 1
 62
   250
370
    20
100
AcDbSpline
210
0.0
220
0.0
230
1.0
 70
     8
 71
     3
 72
     8
 73
     4
 74
     0
 42
0.000000001
 43
0.0000000001
 40
0.0
 40
0.0
 40
0.0
 40
0.0
 40
1.0
 40
1.0
 40
1.0
 40
1.0
 10
-140.2837
 20
-113.9351
 30
0.0
 10
-46.8395
 20
-138.0121
 30
0.0
 10
47.6672
 20
-138.0121
 30
0.0
 10
143.2363
 20
-113.9351
 30
0.0
  0
ELLIPSE
  5
11D
330
1F
100
AcDbEntity
  8
Capa 1
 62
   250
370
    20
100
AcDbEllipse
 10
1.4243
 20
-163.4767
 30
0.0
 11
0.0
 21
1.5
 31
0.0
210
0.0
220
0.0
230
1.0
 40
1.0
 41
0.0
 42
6.283185307179586
  0
ELLIPSE
  5
11E
330
1F
100
AcDbEntity
  8
Capa 1
 62
   250
370
    20
100
AcDbEllipse
 10
-42.0758
 20
-163.4768
 30
0.0
 11
0.0
 21
1.5
 31
0.0
210
0.0
220
0.0
230
1.0
 40
1.0
 41
0.0
 42
6.283185307179586
  0
ELLIPSE
  5
11F
330
1F
100
AcDbEntity
  8
Capa 1
 62
   250
370
    20
100
AcDbEllipse
 10
44.9242
 20
-163.4768
 30
0.0
 11
0.0
 21
1.5
 31
0.0
210
0.0
220
0.0
230
1.0
 40
1.0
 41
0.0
 42
6.283185307179586
  0
ENDSEC
  0
SECTION
  2
OBJECTS
  0
DICTIONARY
  5
C
330
0
100
AcDbDictionary
281
     1
  3
ACAD_DETAILVIEWSTYLE
350
178
  3
ACAD_GROUP
350
D
  3
ACAD_LAYOUT
350
1A
  3
ACAD_MATERIAL
350
3B
  3
ACAD_MLEADERSTYLE
350
141
  3
ACAD_MLINESTYLE
350
17
  3
ACAD_PLOTSETTINGS
350
19
  3
ACAD_PLOTSTYLENAME
350
E
  3
ACAD_SCALELIST
350
142
  3
ACAD_SECTIONVIEWSTYLE
350
179
  3
ACAD_TABLESTYLE
350
140
  3
ACAD_VISUALSTYLE
350
2A
  3
ACDB_RECOMPOSE_DATA
350
174
  3
AcDbVariableDictionary
350
170
  0
DICTIONARY
  5
178
102
{ACAD_REACTORS
330
C
102
}
330
C
100
AcDbDictionary
281
     1
  0
DICTIONARY
  5
D
102
{ACAD_REACTORS
330
C
102
}
330
C
100
AcDbDictionary
281
     1
  0
DICTIONARY
  5
1A
102
{ACAD_REACTORS
330
C
102
}
330
C
100
AcDbDictionary
281
     1
  3
Layout1
350
1E
  3
Layout2
350
26
  3
Model
350
22
  0
DICTIONARY
  5
3B
102
{ACAD_REACTORS
330
C
102
}
330
C
100
AcDbDictionary
281
     1
  3
ByBlock
350
3D
  3
ByLayer
350
3C
  3
Global
350
3E
  0
DICTIONARY
  5
141
102
{ACAD_REACTORS
330
C
102
}
330
C
100
AcDbDictionary
281
     1
  3
Standard
350
16F
  0
DICTIONARY
  5
17
102
{ACAD_REACTORS
330
C
102
}
330
C
100
AcDbDictionary
281
     1
  3
Standard
350
18
  0
DICTIONARY
  5
19
102
{ACAD_REACTORS
330
C
102
}
330
C
100
AcDbDictionary
281
     1
  0
ACDBDICTIONARYWDFLT
  5
E
102
{ACAD_REACTORS
330
C
102
}
330
C
100
AcDbDictionary
281
     1
  3
Normal
350
F
100
AcDbDictionaryWithDefault
340
F
  0
DICTIONARY
  5
142
102
{ACAD_REACTORS
330
C
102
}
330
C
100
AcDbDictionary
281
     1
  3
A0
350
143
  3
A1
350
144
  3
A2
350
145
  3
A3
350
146
  3
A4
350
147
  3
A5
350
148
  3
A6
350
149
  3
A7
350
14A
  3
A8
350
14B
  3
A9
350
14C
  3
B0
350
14D
  3
B1
350
14E
  3
B2
350
14F
  3
B3
350
150
  3
B4
350
151
  3
B5
350
152
  3
B6
350
153
  3
B7
350
154
  3
B8
350
155
  3
B9
350
156
  3
C0
350
157
  3
C1
350
158
  3
C2
350
159
  3
C3
350
15A
  3
C4
350
15B
  3
C5
350
15C
  3
C6
350
15D
  3
C7
350
15E
  3
C8
350
15F
  3
C9
350
160
  3
D0
350
161
  3
D1
350
162
  3
D2
350
163
  0
DICTIONARY
  5
179
102
{ACAD_REACTORS
330
C
102
}
330
C
100
AcDbDictionary
281
     1
  0
DICTIONARY
  5
140
102
{ACAD_REACTORS
330
C
102
}
330
C
100
AcDbDictionary
281
     1
  3
Standard
350
16E
  0
DICTIONARY
  5
2A
102
{ACAD_REACTORS
330
C
102
}
330
C
100
AcDbDictionary
281
     1
  3
2dWireframe
350
2F
  3
3D Hidden
350
31
  3
3dWireframe
350
30
  3
Basic
350
32
  3
Brighten
350
36
  3
ColorChange
350
3A
  3
Conceptual
350
34
  3
Dim
350
35
  3
EdgeColorOff
350
168
  3
Facepattern
350
39
  3
Flat
350
2B
  3
FlatWithEdges
350
2C
  3
Gouraud
350
2D
  3
GouraudWithEdges
350
2E
  3
Hidden
350
165
  3
JitterOff
350
166
  3
Linepattern
350
38
  3
OverhangOff
350
167
  3
Realistic
350
33
  3
Shaded
350
16D
  3
Shaded with edges
350
16C
  3
Shades of Gray
350
169
  3
Sketchy
350
16A
  3
Thicken
350
37
  3
Wireframe
350
164
  3
X-Ray
350
16B
  0
XRECORD
  5
174
102
{ACAD_REACTORS
330
C
102
}
330
C
100
AcDbXrecord
280
     1
 90
        1
330
16E
  0
DICTIONARY
  5
170
102
{ACAD_REACTORS
330
C
102
}
330
C
100
AcDbDictionary
281
     1
  3
CANNOSCALE
350
171
  3
CMLEADERSTYLE
350
176
  3
CTABLESTYLE
350
175
  3
XCLIPFRAME
350
177
  0
LAYOUT
  5
1E
102
{ACAD_REACTORS
330
1A
102
}
330
1A
100
AcDbPlotSettings
  1

  2
none_device
  4

  6

 40
0.0
 41
0.0
 42
0.0
 43
0.0
 44
0.0
 45
0.0
 46
0.0
 47
0.0
 48
0.0
 49
0.0
140
0.0
141
0.0
142
1.0
143
1.0
 70
   688
 72
     0
 73
     0
 74
     5
  7

 75
    16
 76
     0
 77
     2
 78
   300
147
1.0
148
0.0
149
0.0
100
AcDbLayout
  1
Layout1
 70
     1
 71
     1
 10
0.0
 20
0.0
 11
12.0
 21
9.0
 12
0.0
 22
0.0
 32
0.0
 14
1.000000000000000E+20
 24
1.000000000000000E+20
 34
1.000000000000000E+20
 15
-1.000000000000000E+20
 25
-1.000000000000000E+20
 35
-1.000000000000000E+20
146
0.0
 13
0.0
 23
0.0
 33
0.0
 16
1.0
 26
0.0
 36
0.0
 17
0.0
 27
1.0
 37
0.0
 76
     0
330
1B
  0
LAYOUT
  5
26
102
{ACAD_REACTORS
330
1A
102
}
330
1A
100
AcDbPlotSettings
  1

  2
none_device
  4

  6

 40
0.0
 41
0.0
 42
0.0
 43
0.0
 44
0.0
 45
0.0
 46
0.0
 47
0.0
 48
0.0
 49
0.0
140
0.0
141
0.0
142
1.0
143
1.0
 70
   688
 72
     0
 73
     0
 74
     5
  7

 75
    16
 76
     0
 77
     2
 78
   300
147
1.0
148
0.0
149
0.0
100
AcDbLayout
  1
Layout2
 70
     1
 71
     2
 10
0.0
 20
0.0
 11
0.0
 21
0.0
 12
0.0
 22
0.0
 32
0.0
 14
0.0
 24
0.0
 34
0.0
 15
0.0
 25
0.0
 35
0.0
146
0.0
 13
0.0
 23
0.0
 33
0.0
 16
1.0
 26
0.0
 36
0.0
 17
0.0
 27
1.0
 37
0.0
 76
     0
330
23
  0
LAYOUT
  5
22
102
{ACAD_REACTORS
330
1A
102
}
330
1A
100
AcDbPlotSettings
  1

  2
none_device
  4

  6

 40
0.0
 41
0.0
 42
0.0
 43
0.0
 44
0.0
 45
0.0
 46
0.0
 47
0.0
 48
0.0
 49
0.0
140
0.0
141
0.0
142
1.0
143
1.0
 70
  1712
 72
     0
 73
     0
 74
     0
  7

 75
     0
 76
     0
 77
     2
 78
   300
147
1.0
148
0.0
149
0.0
100
AcDbLayout
  1
Model
 70
     1
 71
     0
 10
0.0
 20
0.0
 11
12.0
 21
9.0
 12
0.0
 22
0.0
 32
0.0
 14
-180.6987
 24
-230.035
 34
0.0
 15
183.6513
 25
192.3824
 35
0.0
146
0.0
 13
0.0
 23
0.0
 33
0.0
 16
1.0
 26
0.0
 36
0.0
 17
0.0
 27
1.0
 37
0.0
 76
     0
330
1F
331
29
  0
MATERIAL
  5
3D
102
{ACAD_REACTORS
330
3B
102
}
330
3B
100
AcDbMaterial
  1
ByBlock
 72
     1
 94
      127
  0
MATERIAL
  5
3C
102
{ACAD_REACTORS
330
3B
102
}
330
3B
100
AcDbMaterial
  1
ByLayer
 72
     1
 94
      127
  0
MATERIAL
  5
3E
102
{ACAD_REACTORS
330
3B
102
}
330
3B
100
AcDbMaterial
  1
Global
 72
     1
 94
      127
  0
MLEADERSTYLE
  5
16F
102
{ACAD_REACTORS
330
141
102
}
330
141
100
AcDbMLeaderStyle
179
     2
170
     2
171
     1
172
     0
 90
        2
 40
0.0
 41
0.0
173
     1
 91
-1056964608
340
14
 92
       -2
290
     1
 42
0.09
291
     1
 43
0.36
  3
Standard
341
0
 44
0.18
300

342
11
174
     1
178
     6
175
     1
176
     0
 93
-1056964608
 45
0.18
292
     0
297
     0
 46
0.18
343
0
 94
-1056964608
 47
1.0
 49
1.0
140
1.0
293
     1
141
0.0
294
     1
177
     0
142
1.0
295
     0
296
     0
143
0.125
271
     0
272
     9
273
     9
298
     0
  0
MLINESTYLE
  5
18
102
{ACAD_REACTORS
330
17
102
}
330
17
100
AcDbMlineStyle
  2
Standard
 70
     0
  3

 62
   256
 51
90.0
 52
90.0
 71
     2
 49
0.5
 62
   256
  6
BYLAYER
 49
-0.5
 62
   256
  6
BYLAYER
  0
ACDBPLACEHOLDER
  5
F
102
{ACAD_REACTORS
330
E
102
}
330
E
  0
SCALE
  5
143
102
{ACAD_REACTORS
330
142
102
}
330
142
100
AcDbScale
 70
     0
300
1:1
140
1.0
141
1.0
290
     1
  0
SCALE
  5
144
102
{ACAD_REACTORS
330
142
102
}
330
142
100
AcDbScale
 70
     0
300
1:2
140
1.0
141
2.0
290
     0
  0
SCALE
  5
145
102
{ACAD_REACTORS
330
142
102
}
330
142
100
AcDbScale
 70
     0
300
1:4
140
1.0
141
4.0
290
     0
  0
SCALE
  5
146
102
{ACAD_REACTORS
330
142
102
}
330
142
100
AcDbScale
 70
     0
300
1:5
140
1.0
141
5.0
290
     0
  0
SCALE
  5
147
102
{ACAD_REACTORS
330
142
102
}
330
142
100
AcDbScale
 70
     0
300
1:8
140
1.0
141
8.0
290
     0
  0
SCALE
  5
148
102
{ACAD_REACTORS
330
142
102
}
330
142
100
AcDbScale
 70
     0
300
1:10
140
1.0
141
10.0
290
     0
  0
SCALE
  5
149
102
{ACAD_REACTORS
330
142
102
}
330
142
100
AcDbScale
 70
     0
300
1:16
140
1.0
141
16.0
290
     0
  0
SCALE
  5
14A
102
{ACAD_REACTORS
330
142
102
}
330
142
100
AcDbScale
 70
     0
300
1:20
140
1.0
141
20.0
290
     0
  0
SCALE
  5
14B
102
{ACAD_REACTORS
330
142
102
}
330
142
100
AcDbScale
 70
     0
300
1:30
140
1.0
141
30.0
290
     0
  0
SCALE
  5
14C
102
{ACAD_REACTORS
330
142
102
}
330
142
100
AcDbScale
 70
     0
300
1:40
140
1.0
141
40.0
290
     0
  0
SCALE
  5
14D
102
{ACAD_REACTORS
330
142
102
}
330
142
100
AcDbScale
 70
     0
300
1:50
140
1.0
141
50.0
290
     0
  0
SCALE
  5
14E
102
{ACAD_REACTORS
330
142
102
}
330
142
100
AcDbScale
 70
     0
300
1:100
140
1.0
141
100.0
290
     0
  0
SCALE
  5
14F
102
{ACAD_REACTORS
330
142
102
}
330
142
100
AcDbScale
 70
     0
300
2:1
140
2.0
141
1.0
290
     0
  0
SCALE
  5
150
102
{ACAD_REACTORS
330
142
102
}
330
142
100
AcDbScale
 70
     0
300
4:1
140
4.0
141
1.0
290
     0
  0
SCALE
  5
151
102
{ACAD_REACTORS
330
142
102
}
330
142
100
AcDbScale
 70
     0
300
8:1
140
8.0
141
1.0
290
     0
  0
SCALE
  5
152
102
{ACAD_REACTORS
330
142
102
}
330
142
100
AcDbScale
 70
     0
300
10:1
140
10.0
141
1.0
290
     0
  0
SCALE
  5
153
102
{ACAD_REACTORS
330
142
102
}
330
142
100
AcDbScale
 70
     0
300
100:1
140
100.0
141
1.0
290
     0
  0
SCALE
  5
154
102
{ACAD_REACTORS
330
142
102
}
330
142
100
AcDbScale
 70
     0
300
1/128" = 1'-0"
140
0.0078125
141
12.0
290
     0
  0
SCALE
  5
155
102
{ACAD_REACTORS
330
142
102
}
330
142
100
AcDbScale
 70
     0
300
1/64" = 1'-0"
140
0.015625
141
12.0
290
     0
  0
SCALE
  5
156
102
{ACAD_REACTORS
330
142
102
}
330
142
100
AcDbScale
 70
     0
300
1/32" = 1'-0"
140
0.03125
141
12.0
290
     0
  0
SCALE
  5
157
102
{ACAD_REACTORS
330
142
102
}
330
142
100
AcDbScale
 70
     0
300
1/16" = 1'-0"
140
0.0625
141
12.0
290
     0
  0
SCALE
  5
158
102
{ACAD_REACTORS
330
142
102
}
330
142
100
AcDbScale
 70
     0
300
3/32" = 1'-0"
140
0.09375
141
12.0
290
     0
  0
SCALE
  5
159
102
{ACAD_REACTORS
330
142
102
}
330
142
100
AcDbScale
 70
     0
300
1/8" = 1'-0"
140
0.125
141
12.0
290
     0
  0
SCALE
  5
15A
102
{ACAD_REACTORS
330
142
102
}
330
142
100
AcDbScale
 70
     0
300
3/16" = 1'-0"
140
0.1875
141
12.0
290
     0
  0
SCALE
  5
15B
102
{ACAD_REACTORS
330
142
102
}
330
142
100
AcDbScale
 70
     0
300
1/4" = 1'-0"
140
0.25
141
12.0
290
     0
  0
SCALE
  5
15C
102
{ACAD_REACTORS
330
142
102
}
330
142
100
AcDbScale
 70
     0
300
3/8" = 1'-0"
140
0.375
141
12.0
290
     0
  0
SCALE
  5
15D
102
{ACAD_REACTORS
330
142
102
}
330
142
100
AcDbScale
 70
     0
300
1/2" = 1'-0"
140
0.5
141
12.0
290
     0
  0
SCALE
  5
15E
102
{ACAD_REACTORS
330
142
102
}
330
142
100
AcDbScale
 70
     0
300
3/4" = 1'-0"
140
0.75
141
12.0
290
     0
  0
SCALE
  5
15F
102
{ACAD_REACTORS
330
142
102
}
330
142
100
AcDbScale
 70
     0
300
1" = 1'-0"
140
1.0
141
12.0
290
     0
  0
SCALE
  5
160
102
{ACAD_REACTORS
330
142
102
}
330
142
100
AcDbScale
 70
     0
300
1-1/2" = 1'-0"
140
1.5
141
12.0
290
     0
  0
SCALE
  5
161
102
{ACAD_REACTORS
330
142
102
}
330
142
100
AcDbScale
 70
     0
300
3" = 1'-0"
140
3.0
141
12.0
290
     0
  0
SCALE
  5
162
102
{ACAD_REACTORS
330
142
102
}
330
142
100
AcDbScale
 70
     0
300
6" = 1'-0"
140
6.0
141
12.0
290
     0
  0
SCALE
  5
163
102
{ACAD_REACTORS
330
142
102
}
330
142
100
AcDbScale
 70
     0
300
1'-0" = 1'-0"
140
12.0
141
12.0
290
     0
  0
TABLESTYLE
  5
16E
102
{ACAD_REACTORS
330
140
102
}
102
{ACAD_XDICTIONARY
360
172
102
}
330
140
100
AcDbTableStyle
  3
Standard
 70
     0
 71
     0
 40
0.06
 41
0.06
280
     0
281
     0
  7
Standard
140
0.18
170
     2
 62
     0
 63
   257
283
     0
 90
        4
 91
        0
  1

274
    -2
284
     1
 64
     0
275
    -2
285
     1
 65
     0
276
    -2
286
     1
 66
     0
277
    -2
287
     1
 67
     0
278
    -2
288
     1
 68
     0
279
    -2
289
     1
 69
     0
  7
Standard
140
0.25
170
     5
 62
     0
 63
   257
283
     0
 90
        4
 91
        0
  1

274
    -2
284
     1
 64
     0
275
    -2
285
     1
 65
     0
276
    -2
286
     1
 66
     0
277
    -2
287
     1
 67
     0
278
    -2
288
     1
 68
     0
279
    -2
289
     1
 69
     0
  7
Standard
140
0.18
170
     5
 62
     0
 63
   257
283
     0
 90
        4
 91
        0
  1

274
    -2
284
     1
 64
     0
275
    -2
285
     1
 65
     0
276
    -2
286
     1
 66
     0
277
    -2
287
     1
 67
     0
278
    -2
288
     1
 68
     0
279
    -2
289
     1
 69
     0
  0
VISUALSTYLE
  5
2F
102
{ACAD_REACTORS
330
2A
102
}
330
2A
100
AcDbVisualStyle
  2
2dWireframe
 70
     4
177
     3
291
     0
 70
    58
 90
        0
176
     1
 90
        2
176
     1
 90
        0
176
     1
 90
        0
176
     1
 40
-0.6
176
     1
 40
-30.0
176
     1
 62
     7
420
 16777215
176
     1
 90
        1
176
     1
 90
        4
176
     1
 62
     7
176
     1
 62
   257
176
     1
 90
        1
176
     1
 90
        1
176
     1
 40
1.0
176
     1
 90
        0
176
     1
 62
   257
176
     1
 40
1.0
176
     1
 90
        1
176
     1
 90
        6
176
     1
 90
        2
176
     1
 62
     7
176
     1
 90
        5
176
     1
 90
        0
176
     1
 90
        0
176
     1
290
     0
176
     1
 90
        1
176
     1
 40
0.0
176
     1
 90
        0
176
     1
290
     1
176
     1
290
     1
176
     1
290
     0
176
     1
290
     0
176
     1
290
     0
176
     1
290
     0
176
     1
290
     0
176
     1
290
     0
176
     1
290
     0
176
     1
 90
       50
176
     1
 40
0.0
176
     1
 40
1.0
176
     1
 90
        0
176
     1
 62
   178
420
        0
176
     1
 90
       50
176
     1
 90
        3
176
     1
 62
     5
420
      255
176
     1
290
     0
176
     1
 90
       50
176
     1
 90
       50
176
     1
 90
       50
176
     1
290
     0
176
     1
 90
       50
176
     1
 62
   256
176
     0
 40
1.0
176
     0
 90
        2
176
     1
  1
strokes_ogs.tif
176
     1
290
     0
176
     1
 40
1.0
176
     1
 40
1.0
176
     1
  0
VISUALSTYLE
  5
31
102
{ACAD_REACTORS
330
2A
102
}
330
2A
100
AcDbVisualStyle
  2
3D Hidden
 70
     6
177
     3
291
     0
 70
    58
 90
        1
176
     1
 90
        2
176
     1
 90
        2
176
     1
 90
        0
176
     1
 40
-0.6
176
     1
 40
-30.0
176
     1
 62
     7
420
 16777215
176
     1
 90
        2
176
     1
 90
        2
176
     1
 62
     7
176
     1
 62
   257
176
     1
 90
        2
176
     1
 90
        1
176
     1
 40
40.0
176
     1
 90
        0
176
     1
 62
   257
176
     1
 40
1.0
176
     1
 90
        1
176
     1
 90
        6
176
     1
 90
        2
176
     1
 62
     7
176
     1
 90
        3
176
     1
 90
        0
176
     1
 90
        0
176
     1
290
     0
176
     1
 90
        1
176
     1
 40
0.0
176
     1
 90
        0
176
     1
290
     0
176
     1
290
     1
176
     1
290
     1
176
     1
290
     0
176
     1
290
     0
176
     1
290
     0
176
     1
290
     0
176
     1
290
     0
176
     1
290
     0
176
     1
 90
       50
176
     1
 40
0.0
176
     1
 40
1.0
176
     1
 90
        0
176
     1
 62
   178
420
        0
176
     1
 90
       50
176
     1
 90
        3
176
     1
 62
     5
420
      255
176
     1
290
     0
176
     1
 90
       50
176
     1
 90
       50
176
     1
 90
       50
176
     1
290
     0
176
     1
 90
       50
176
     1
 62
   256
176
     0
 40
1.0
176
     0
 90
        2
176
     1
  1
strokes_ogs.tif
176
     1
290
     0
176
     1
 40
1.0
176
     1
 40
1.0
176
     1
  0
VISUALSTYLE
  5
30
102
{ACAD_REACTORS
330
2A
102
}
330
2A
100
AcDbVisualStyle
  2
3dWireframe
 70
     5
177
     3
291
     0
 70
    58
 90
        0
176
     1
 90
        2
176
     1
 90
        0
176
     1
 90
        0
176
     1
 40
-0.6
176
     1
 40
-30.0
176
     1
 62
     7
420
 16777215
176
     1
 90
        1
176
     1
 90
        4
176
     1
 62
     7
176
     1
 62
   257
176
     1
 90
        1
176
     1
 90
        1
176
     1
 40
1.0
176
     1
 90
        0
176
     1
 62
   257
176
     1
 40
1.0
176
     1
 90
        1
176
     1
 90
        6
176
     1
 90
        2
176
     1
 62
     7
176
     1
 90
        5
176
     1
 90
        0
176
     1
 90
        0
176
     1
290
     0
176
     1
 90
        1
176
     1
 40
0.0
176
     1
 90
        0
176
     1
290
     0
176
     1
290
     1
176
     1
290
     1
176
     1
290
     0
176
     1
290
     0
176
     1
290
     0
176
     1
290
     0
176
     1
290
     0
176
     1
290
     0
176
     1
 90
       50
176
     1
 40
0.0
176
     1
 40
1.0
176
     1
 90
        0
176
     1
 62
   178
420
        0
176
     1
 90
       50
176
     1
 90
        3
176
     1
 62
     5
420
      255
176
     1
290
     0
176
     1
 90
       50
176
     1
 90
       50
176
     1
 90
       50
176
     1
290
     0
176
     1
 90
       50
176
     1
 62
   256
176
     0
 40
1.0
176
     0
 90
        2
176
     1
  1
strokes_ogs.tif
176
     1
290
     0
176
     1
 40
1.0
176
     1
 40
1.0
176
     1
  0
VISUALSTYLE
  5
32
102
{ACAD_REACTORS
330
2A
102
}
330
2A
100
AcDbVisualStyle
  2
Basic
 70
     7
177
     3
291
     1
 70
    58
 90
        1
176
     1
 90
        0
176
     1
 90
        1
176
     1
 90
        0
176
     1
 40
-0.6
176
     1
 40
-30.0
176
     1
 62
     7
420
 16777215
176
     1
 90
        0
176
     1
 90
        4
176
     1
 62
     7
176
     1
 62
   257
176
     1
 90
        1
176
     1
 90
        1
176
     1
 40
1.0
176
     1
 90
        8
176
     1
 62
     7
176
     1
 40
1.0
176
     1
 90
        1
176
     1
 90
        6
176
     1
 90
        2
176
     1
 62
     7
176
     1
 90
        5
176
     1
 90
        0
176
     1
 90
        0
176
     1
290
     0
176
     1
 90
        1
176
     1
 40
0.0
176
     1
 90
        0
176
     1
290
     0
176
     1
290
     1
176
     1
290
     1
176
     1
290
     0
176
     1
290
     0
176
     1
290
     0
176
     1
290
     0
176
     1
290
     0
176
     1
290
     0
176
     1
 90
       50
176
     1
 40
0.0
176
     1
 40
1.0
176
     1
 90
        0
176
     1
 62
   178
420
        0
176
     1
 90
       50
176
     1
 90
        3
176
     1
 62
     5
420
      255
176
     1
290
     0
176
     1
 90
       50
176
     1
 90
       50
176
     1
 90
       50
176
     1
290
     0
176
     1
 90
       50
176
     1
 62
   256
176
     0
 40
1.0
176
     0
 90
        2
176
     1
  1
strokes_ogs.tif
176
     1
290
     0
176
     1
 40
1.0
176
     1
 40
1.0
176
     1
  0
VISUALSTYLE
  5
36
102
{ACAD_REACTORS
330
2A
102
}
330
2A
100
AcDbVisualStyle
  2
Brighten
 70
    12
177
     3
291
     1
 70
    58
 90
        2
176
     1
 90
        2
176
     1
 90
        0
176
     1
 90
        0
176
     1
 40
-0.6
176
     1
 40
-30.0
176
     1
 62
     7
420
 16777215
176
     1
 90
        1
176
     1
 90
        4
176
     1
 62
     7
176
     1
 62
   257
176
     1
 90
        1
176
     1
 90
        1
176
     1
 40
1.0
176
     1
 90
        8
176
     1
 62
     7
176
     1
 40
1.0
176
     1
 90
        1
176
     1
 90
        6
176
     1
 90
        2
176
     1
 62
     7
176
     1
 90
        5
176
     1
 90
        0
176
     1
 90
        0
176
     1
290
     0
176
     1
 90
        1
176
     1
 40
50.0
176
     1
 90
        0
176
     1
290
     0
176
     1
290
     1
176
     1
290
     1
176
     1
290
     0
176
     1
290
     0
176
     1
290
     0
176
     1
290
     0
176
     1
290
     0
176
     1
290
     0
176
     1
 90
       50
176
     1
 40
0.0
176
     1
 40
1.0
176
     1
 90
        0
176
     1
 62
   178
420
        0
176
     1
 90
       50
176
     1
 90
        3
176
     1
 62
     5
420
      255
176
     1
290
     0
176
     1
 90
       50
176
     1
 90
       50
176
     1
 90
       50
176
     1
290
     0
176
     1
 90
       50
176
     1
 62
   256
176
     0
 40
1.0
176
     0
 90
        2
176
     1
  1
strokes_ogs.tif
176
     1
290
     0
176
     1
 40
1.0
176
     1
 40
1.0
176
     1
  0
VISUALSTYLE
  5
3A
102
{ACAD_REACTORS
330
2A
102
}
330
2A
100
AcDbVisualStyle
  2
ColorChange
 70
    16
177
     3
291
     1
 70
    58
 90
        2
176
     1
 90
        2
176
     1
 90
        3
176
     1
 90
        0
176
     1
 40
-0.6
176
     1
 40
-30.0
176
     1
 62
     8
420
  8421504
176
     1
 90
        1
176
     1
 90
        4
176
     1
 62
     7
176
     1
 62
   257
176
     1
 90
        1
176
     1
 90
        1
176
     1
 40
1.0
176
     1
 90
        8
176
     1
 62
     8
420
  8421504
176
     1
 40
1.0
176
     1
 90
        1
176
     1
 90
        6
176
     1
 90
        2
176
     1
 62
     7
176
     1
 90
        5
176
     1
 90
        0
176
     1
 90
        0
176
     1
290
     0
176
     1
 90
        1
176
     1
 40
0.0
176
     1
 90
        0
176
     1
290
     0
176
     1
290
     1
176
     1
290
     1
176
     1
290
     0
176
     1
290
     0
176
     1
290
     0
176
     1
290
     0
176
     1
290
     0
176
     1
290
     0
176
     1
 90
       50
176
     1
 40
0.0
176
     1
 40
1.0
176
     1
 90
        0
176
     1
 62
   178
420
        0
176
     1
 90
       50
176
     1
 90
        3
176
     1
 62
     5
420
      255
176
     1
290
     0
176
     1
 90
       50
176
     1
 90
       50
176
     1
 90
       50
176
     1
290
     0
176
     1
 90
       50
176
     1
 62
   256
176
     0
 40
1.0
176
     0
 90
        2
176
     1
  1
strokes_ogs.tif
176
     1
290
     0
176
     1
 40
1.0
176
     1
 40
1.0
176
     1
  0
VISUALSTYLE
  5
34
102
{ACAD_REACTORS
330
2A
102
}
330
2A
100
AcDbVisualStyle
  2
Conceptual
 70
     9
177
     3
291
     0
 70
    58
 90
        3
176
     1
 90
        2
176
     1
 90
        0
176
     1
 90
        0
176
     1
 40
-0.6
176
     1
 40
-30.0
176
     1
 62
     7
420
 16777215
176
     1
 90
        2
176
     1
 90
        2
176
     1
 62
     7
176
     1
 62
   257
176
     1
 90
        1
176
     1
 90
        1
176
     1
 40
40.0
176
     1
 90
        8
176
     1
 62
     7
176
     1
 40
1.0
176
     1
 90
        1
176
     1
 90
        6
176
     1
 90
        2
176
     1
 62
     7
176
     1
 90
        3
176
     1
 90
        0
176
     1
 90
        0
176
     1
290
     0
176
     1
 90
        1
176
     1
 40
0.0
176
     1
 90
        0
176
     1
290
     0
176
     1
290
     1
176
     1
290
     1
176
     1
290
     0
176
     1
290
     0
176
     1
290
     0
176
     1
290
     0
176
     1
290
     0
176
     1
290
     0
176
     1
 90
       50
176
     1
 40
0.0
176
     1
 40
1.0
176
     1
 90
        0
176
     1
 62
   178
420
        0
176
     1
 90
       50
176
     1
 90
        3
176
     1
 62
     5
420
      255
176
     1
290
     0
176
     1
 90
       50
176
     1
 90
       50
176
     1
 90
       50
176
     1
290
     0
176
     1
 90
       50
176
     1
 62
   256
176
     0
 40
1.0
176
     0
 90
        2
176
     1
  1
strokes_ogs.tif
176
     1
290
     0
176
     1
 40
1.0
176
     1
 40
1.0
176
     1
  0
VISUALSTYLE
  5
35
102
{ACAD_REACTORS
330
2A
102
}
330
2A
100
AcDbVisualStyle
  2
Dim
 70
    11
177
     3
291
     1
 70
    58
 90
        2
176
     1
 90
        2
176
     1
 90
        0
176
     1
 90
        0
176
     1
 40
-0.6
176
     1
 40
-30.0
176
     1
 62
     7
420
 16777215
176
     1
 90
        1
176
     1
 90
        4
176
     1
 62
     7
176
     1
 62
   257
176
     1
 90
        1
176
     1
 90
        1
176
     1
 40
1.0
176
     1
 90
        8
176
     1
 62
     7
176
     1
 40
1.0
176
     1
 90
        1
176
     1
 90
        6
176
     1
 90
        2
176
     1
 62
     7
176
     1
 90
        5
176
     1
 90
        0
176
     1
 90
        0
176
     1
290
     0
176
     1
 90
        1
176
     1
 40
-50.0
176
     1
 90
        0
176
     1
290
     0
176
     1
290
     1
176
     1
290
     1
176
     1
290
     0
176
     1
290
     0
176
     1
290
     0
176
     1
290
     0
176
     1
290
     0
176
     1
290
     0
176
     1
 90
       50
176
     1
 40
0.0
176
     1
 40
1.0
176
     1
 90
        0
176
     1
 62
   178
420
        0
176
     1
 90
       50
176
     1
 90
        3
176
     1
 62
     5
420
      255
176
     1
290
     0
176
     1
 90
       50
176
     1
 90
       50
176
     1
 90
       50
176
     1
290
     0
176
     1
 90
       50
176
     1
 62
   256
176
     0
 40
1.0
176
     0
 90
        2
176
     1
  1
strokes_ogs.tif
176
     1
290
     0
176
     1
 40
1.0
176
     1
 40
1.0
176
     1
  0
VISUALSTYLE
  5
168
102
{ACAD_REACTORS
330
2A
102
}
330
2A
100
AcDbVisualStyle
  2
EdgeColorOff
 70
    22
177
     3
291
     1
 70
    58
 90
        2
176
     0
 90
        2
176
     0
 90
        0
176
     0
 90
        0
176
     0
 40
0.6
176
     0
 40
30.0
176
     0
 62
     7
420
 16777215
176
     0
 90
        1
176
     0
 90
        4
176
     0
 62
     7
176
     0
 62
   257
176
     0
 90
        1
176
     0
 90
        1
176
     0
 40
1.0
176
     0
 90
        8
176
     2
 62
     7
176
     0
 40
1.0
176
     0
 90
        1
176
     0
 90
        6
176
     0
 90
        2
176
     0
 62
     7
176
     0
 90
        5
176
     0
 90
        0
176
     0
 90
        0
176
     0
290
     0
176
     0
 90
        1
176
     0
 40
0.0
176
     0
 90
        0
176
     0
290
     0
176
     0
290
     1
176
     0
290
     1
176
     0
290
     0
176
     0
290
     0
176
     0
290
     0
176
     0
290
     0
176
     0
290
     0
176
     0
290
     0
176
     0
 90
       50
176
     0
 40
0.0
176
     0
 40
1.0
176
     0
 90
        0
176
     0
 62
   178
420
        0
176
     0
 90
       50
176
     0
 90
        3
176
     0
 62
     5
420
      255
176
     0
290
     0
176
     0
 90
       50
176
     0
 90
       50
176
     0
 90
       50
176
     0
290
     0
176
     0
 90
       50
176
     0
 62
   256
176
     0
 40
1.0
176
     0
 90
        2
176
     0
  1
strokes_ogs.tif
176
     0
290
     0
176
     0
 40
1.0
176
     0
 40
1.0
176
     0
  0
VISUALSTYLE
  5
39
102
{ACAD_REACTORS
330
2A
102
}
330
2A
100
AcDbVisualStyle
  2
Facepattern
 70
    15
177
     3
291
     1
 70
    58
 90
        2
176
     1
 90
        2
176
     1
 90
        0
176
     1
 90
        0
176
     1
 40
-0.6
176
     1
 40
-30.0
176
     1
 62
     7
420
 16777215
176
     1
 90
        1
176
     1
 90
        4
176
     1
 62
     7
176
     1
 62
   257
176
     1
 90
        1
176
     1
 90
        1
176
     1
 40
1.0
176
     1
 90
        8
176
     1
 62
     7
176
     1
 40
1.0
176
     1
 90
        1
176
     1
 90
        6
176
     1
 90
        2
176
     1
 62
     7
176
     1
 90
        5
176
     1
 90
        0
176
     1
 90
        0
176
     1
290
     0
176
     1
 90
        1
176
     1
 40
0.0
176
     1
 90
        0
176
     1
290
     0
176
     1
290
     1
176
     1
290
     1
176
     1
290
     0
176
     1
290
     0
176
     1
290
     0
176
     1
290
     0
176
     1
290
     0
176
     1
290
     0
176
     1
 90
       50
176
     1
 40
0.0
176
     1
 40
1.0
176
     1
 90
        0
176
     1
 62
   178
420
        0
176
     1
 90
       50
176
     1
 90
        3
176
     1
 62
     5
420
      255
176
     1
290
     0
176
     1
 90
       50
176
     1
 90
       50
176
     1
 90
       50
176
     1
290
     0
176
     1
 90
       50
176
     1
 62
   256
176
     0
 40
1.0
176
     0
 90
        2
176
     1
  1
strokes_ogs.tif
176
     1
290
     0
176
     1
 40
1.0
176
     1
 40
1.0
176
     1
  0
VISUALSTYLE
  5
2B
102
{ACAD_REACTORS
330
2A
102
}
330
2A
100
AcDbVisualStyle
  2
Flat
 70
     0
177
     3
291
     1
 70
    58
 90
        2
176
     1
 90
        1
176
     1
 90
        1
176
     1
 90
        2
176
     1
 40
-0.6
176
     1
 40
30.0
176
     1
 62
     7
420
 16777215
176
     1
 90
        0
176
     1
 90
        4
176
     1
 62
     7
176
     1
 62
   257
176
     1
 90
        1
176
     1
 90
        1
176
     1
 40
1.0
176
     1
 90
        8
176
     1
 62
     7
176
     1
 40
1.0
176
     1
 90
        1
176
     1
 90
        6
176
     1
 90
        2
176
     1
 62
     7
176
     1
 90
        5
176
     1
 90
        0
176
     1
 90
        0
176
     1
290
     0
176
     1
 90
       13
176
     1
 40
0.0
176
     1
 90
        0
176
     1
290
     0
176
     1
290
     1
176
     1
290
     1
176
     1
290
     0
176
     1
290
     0
176
     1
290
     0
176
     1
290
     0
176
     1
290
     0
176
     1
290
     0
176
     1
 90
       50
176
     1
 40
0.0
176
     1
 40
1.0
176
     1
 90
        0
176
     1
 62
   178
420
        0
176
     1
 90
       50
176
     1
 90
        3
176
     1
 62
     5
420
      255
176
     1
290
     0
176
     1
 90
       50
176
     1
 90
       50
176
     1
 90
       50
176
     1
290
     0
176
     1
 90
       50
176
     1
 62
   256
176
     0
 40
1.0
176
     0
 90
        2
176
     1
  1
strokes_ogs.tif
176
     1
290
     0
176
     1
 40
1.0
176
     1
 40
1.0
176
     1
  0
VISUALSTYLE
  5
2C
102
{ACAD_REACTORS
330
2A
102
}
330
2A
100
AcDbVisualStyle
  2
FlatWithEdges
 70
     1
177
     3
291
     1
 70
    58
 90
        2
176
     1
 90
        1
176
     1
 90
        1
176
     1
 90
        2
176
     1
 40
-0.6
176
     1
 40
30.0
176
     1
 62
     7
420
 16777215
176
     1
 90
        1
176
     1
 90
        4
176
     1
 62
     7
176
     1
 62
   257
176
     1
 90
        1
176
     1
 90
        1
176
     1
 40
1.0
176
     1
 90
        0
176
     1
 62
   257
176
     1
 40
1.0
176
     1
 90
        1
176
     1
 90
        6
176
     1
 90
        2
176
     1
 62
     7
176
     1
 90
        5
176
     1
 90
        0
176
     1
 90
        0
176
     1
290
     0
176
     1
 90
       13
176
     1
 40
0.0
176
     1
 90
        0
176
     1
290
     0
176
     1
290
     1
176
     1
290
     1
176
     1
290
     0
176
     1
290
     0
176
     1
290
     0
176
     1
290
     0
176
     1
290
     0
176
     1
290
     0
176
     1
 90
       50
176
     1
 40
0.0
176
     1
 40
1.0
176
     1
 90
        0
176
     1
 62
   178
420
        0
176
     1
 90
       50
176
     1
 90
        3
176
     1
 62
     5
420
      255
176
     1
290
     0
176
     1
 90
       50
176
     1
 90
       50
176
     1
 90
       50
176
     1
290
     0
176
     1
 90
       50
176
     1
 62
   256
176
     0
 40
1.0
176
     0
 90
        2
176
     1
  1
strokes_ogs.tif
176
     1
290
     0
176
     1
 40
1.0
176
     1
 40
1.0
176
     1
  0
VISUALSTYLE
  5
2D
102
{ACAD_REACTORS
330
2A
102
}
330
2A
100
AcDbVisualStyle
  2
Gouraud
 70
     2
177
     3
291
     1
 70
    58
 90
        2
176
     1
 90
        2
176
     1
 90
        1
176
     1
 90
        2
176
     1
 40
-0.6
176
     1
 40
30.0
176
     1
 62
     7
420
 16777215
176
     1
 90
        0
176
     1
 90
        4
176
     1
 62
     7
176
     1
 62
   257
176
     1
 90
        1
176
     1
 90
        1
176
     1
 40
1.0
176
     1
 90
        0
176
     1
 62
     7
176
     1
 40
1.0
176
     1
 90
        1
176
     1
 90
        6
176
     1
 90
        2
176
     1
 62
     7
176
     1
 90
        5
176
     1
 90
        0
176
     1
 90
        0
176
     1
290
     0
176
     1
 90
       13
176
     1
 40
0.0
176
     1
 90
        0
176
     1
290
     0
176
     1
290
     1
176
     1
290
     1
176
     1
290
     0
176
     1
290
     0
176
     1
290
     0
176
     1
290
     0
176
     1
290
     0
176
     1
290
     0
176
     1
 90
       50
176
     1
 40
0.0
176
     1
 40
1.0
176
     1
 90
        0
176
     1
 62
   178
420
        0
176
     1
 90
       50
176
     1
 90
        3
176
     1
 62
     5
420
      255
176
     1
290
     0
176
     1
 90
       50
176
     1
 90
       50
176
     1
 90
       50
176
     1
290
     0
176
     1
 90
       50
176
     1
 62
   256
176
     0
 40
1.0
176
     0
 90
        2
176
     1
  1
strokes_ogs.tif
176
     1
290
     0
176
     1
 40
1.0
176
     1
 40
1.0
176
     1
  0
VISUALSTYLE
  5
2E
102
{ACAD_REACTORS
330
2A
102
}
330
2A
100
AcDbVisualStyle
  2
GouraudWithEdges
 70
     3
177
     3
291
     1
 70
    58
 90
        2
176
     1
 90
        2
176
     1
 90
        1
176
     1
 90
        2
176
     1
 40
-0.6
176
     1
 40
30.0
176
     1
 62
     7
420
 16777215
176
     1
 90
        1
176
     1
 90
        4
176
     1
 62
     7
176
     1
 62
   257
176
     1
 90
        1
176
     1
 90
        1
176
     1
 40
1.0
176
     1
 90
        0
176
     1
 62
   257
176
     1
 40
1.0
176
     1
 90
        1
176
     1
 90
        6
176
     1
 90
        2
176
     1
 62
     7
176
     1
 90
        5
176
     1
 90
        0
176
     1
 90
        0
176
     1
290
     0
176
     1
 90
       13
176
     1
 40
0.0
176
     1
 90
        0
176
     1
290
     0
176
     1
290
     1
176
     1
290
     1
176
     1
290
     0
176
     1
290
     0
176
     1
290
     0
176
     1
290
     0
176
     1
290
     0
176
     1
290
     0
176
     1
 90
       50
176
     1
 40
0.0
176
     1
 40
1.0
176
     1
 90
        0
176
     1
 62
   178
420
        0
176
     1
 90
       50
176
     1
 90
        3
176
     1
 62
     5
420
      255
176
     1
290
     0
176
     1
 90
       50
176
     1
 90
       50
176
     1
 90
       50
176
     1
290
     0
176
     1
 90
       50
176
     1
 62
   256
176
     0
 40
1.0
176
     0
 90
        2
176
     1
  1
strokes_ogs.tif
176
     1
290
     0
176
     1
 40
1.0
176
     1
 40
1.0
176
     1
  0
VISUALSTYLE
  5
165
102
{ACAD_REACTORS
330
2A
102
}
330
2A
100
AcDbVisualStyle
  2
Hidden
 70
     6
177
     3
291
     0
 70
    58
 90
        1
176
     1
 90
        2
176
     1
 90
        2
176
     1
 90
        0
176
     1
 40
0.6
176
     1
 40
30.0
176
     1
 62
     7
420
 16777215
176
     1
 90
        2
176
     1
 90
        2
176
     1
 62
     7
176
     1
 62
   257
176
     1
 90
        2
176
     1
 90
        1
176
     1
 40
40.0
176
     1
 90
        0
176
     1
 62
   257
176
     1
 40
1.0
176
     1
 90
        1
176
     1
 90
        6
176
     1
 90
        2
176
     1
 62
     7
176
     1
 90
        3
176
     1
 90
        0
176
     1
 90
        0
176
     1
290
     0
176
     1
 90
        1
176
     1
 40
0.0
176
     1
 90
        0
176
     1
290
     0
176
     1
290
     1
176
     1
290
     1
176
     1
290
     0
176
     1
290
     0
176
     1
290
     0
176
     1
290
     0
176
     1
290
     0
176
     1
290
     0
176
     1
 90
       50
176
     1
 40
0.0
176
     1
 40
1.0
176
     1
 90
        0
176
     1
 62
   178
420
        0
176
     1
 90
       50
176
     1
 90
        3
176
     1
 62
     5
420
      255
176
     1
290
     0
176
     1
 90
       50
176
     1
 90
       50
176
     1
 90
       50
176
     1
290
     0
176
     1
 90
       50
176
     1
 62
   256
176
     0
 40
1.0
176
     0
 90
        2
176
     1
  1
strokes_ogs.tif
176
     1
290
     0
176
     1
 40
1.0
176
     1
 40
1.0
176
     1
  0
VISUALSTYLE
  5
166
102
{ACAD_REACTORS
330
2A
102
}
330
2A
100
AcDbVisualStyle
  2
JitterOff
 70
    20
177
     3
291
     1
 70
    58
 90
        2
176
     0
 90
        2
176
     0
 90
        0
176
     0
 90
        0
176
     0
 40
0.6
176
     0
 40
30.0
176
     0
 62
     7
420
 16777215
176
     0
 90
        1
176
     0
 90
        4
176
     0
 62
     7
176
     0
 62
   257
176
     0
 90
        1
176
     0
 90
        1
176
     0
 40
1.0
176
     0
 90
       10
176
     2
 62
     7
176
     0
 40
1.0
176
     0
 90
        1
176
     0
 90
        6
176
     0
 90
        2
176
     0
 62
     7
176
     0
 90
        5
176
     0
 90
        0
176
     0
 90
        0
176
     0
290
     0
176
     0
 90
        1
176
     0
 40
0.0
176
     0
 90
        0
176
     0
290
     0
176
     0
290
     1
176
     0
290
     1
176
     0
290
     0
176
     0
290
     0
176
     0
290
     0
176
     0
290
     0
176
     0
290
     0
176
     0
290
     0
176
     0
 90
       50
176
     0
 40
0.0
176
     0
 40
1.0
176
     0
 90
        0
176
     0
 62
   178
420
        0
176
     0
 90
       50
176
     0
 90
        3
176
     0
 62
     5
420
      255
176
     0
290
     0
176
     0
 90
       50
176
     0
 90
       50
176
     0
 90
       50
176
     0
290
     0
176
     0
 90
       50
176
     0
 62
   256
176
     0
 40
1.0
176
     0
 90
        2
176
     0
  1
strokes_ogs.tif
176
     0
290
     0
176
     0
 40
1.0
176
     0
 40
1.0
176
     0
  0
VISUALSTYLE
  5
38
102
{ACAD_REACTORS
330
2A
102
}
330
2A
100
AcDbVisualStyle
  2
Linepattern
 70
    14
177
     3
291
     1
 70
    58
 90
        2
176
     1
 90
        2
176
     1
 90
        0
176
     1
 90
        0
176
     1
 40
-0.6
176
     1
 40
-30.0
176
     1
 62
     7
420
 16777215
176
     1
 90
        1
176
     1
 90
        4
176
     1
 62
     7
176
     1
 62
   257
176
     1
 90
        7
176
     1
 90
        7
176
     1
 40
1.0
176
     1
 90
        8
176
     1
 62
     7
176
     1
 40
1.0
176
     1
 90
        1
176
     1
 90
        6
176
     1
 90
        2
176
     1
 62
     7
176
     1
 90
        5
176
     1
 90
        0
176
     1
 90
        0
176
     1
290
     0
176
     1
 90
        1
176
     1
 40
0.0
176
     1
 90
        0
176
     1
290
     0
176
     1
290
     1
176
     1
290
     1
176
     1
290
     0
176
     1
290
     0
176
     1
290
     0
176
     1
290
     0
176
     1
290
     0
176
     1
290
     0
176
     1
 90
       50
176
     1
 40
0.0
176
     1
 40
1.0
176
     1
 90
        0
176
     1
 62
   178
420
        0
176
     1
 90
       50
176
     1
 90
        3
176
     1
 62
     5
420
      255
176
     1
290
     0
176
     1
 90
       50
176
     1
 90
       50
176
     1
 90
       50
176
     1
290
     0
176
     1
 90
       50
176
     1
 62
   256
176
     0
 40
1.0
176
     0
 90
        2
176
     1
  1
strokes_ogs.tif
176
     1
290
     0
176
     1
 40
1.0
176
     1
 40
1.0
176
     1
  0
VISUALSTYLE
  5
167
102
{ACAD_REACTORS
330
2A
102
}
330
2A
100
AcDbVisualStyle
  2
OverhangOff
 70
    21
177
     3
291
     1
 70
    58
 90
        2
176
     0
 90
        2
176
     0
 90
        0
176
     0
 90
        0
176
     0
 40
0.6
176
     0
 40
30.0
176
     0
 62
     7
420
 16777215
176
     0
 90
        1
176
     0
 90
        4
176
     0
 62
     7
176
     0
 62
   257
176
     0
 90
        1
176
     0
 90
        1
176
     0
 40
1.0
176
     0
 90
        9
176
     2
 62
     7
176
     0
 40
1.0
176
     0
 90
        1
176
     0
 90
        6
176
     0
 90
        2
176
     0
 62
     7
176
     0
 90
        5
176
     0
 90
        0
176
     0
 90
        0
176
     0
290
     0
176
     0
 90
        1
176
     0
 40
0.0
176
     0
 90
        0
176
     0
290
     0
176
     0
290
     1
176
     0
290
     1
176
     0
290
     0
176
     0
290
     0
176
     0
290
     0
176
     0
290
     0
176
     0
290
     0
176
     0
290
     0
176
     0
 90
       50
176
     0
 40
0.0
176
     0
 40
1.0
176
     0
 90
        0
176
     0
 62
   178
420
        0
176
     0
 90
       50
176
     0
 90
        3
176
     0
 62
     5
420
      255
176
     0
290
     0
176
     0
 90
       50
176
     0
 90
       50
176
     0
 90
       50
176
     0
290
     0
176
     0
 90
       50
176
     0
 62
   256
176
     0
 40
1.0
176
     0
 90
        2
176
     0
  1
strokes_ogs.tif
176
     0
290
     0
176
     0
 40
1.0
176
     0
 40
1.0
176
     0
  0
VISUALSTYLE
  5
33
102
{ACAD_REACTORS
330
2A
102
}
330
2A
100
AcDbVisualStyle
  2
Realistic
 70
     8
177
     3
291
     0
 70
    58
 90
        2
176
     1
 90
        2
176
     1
 90
        0
176
     1
 90
        0
176
     1
 40
-0.6
176
     1
 40
-30.0
176
     1
 62
     7
420
 16777215
176
     1
 90
        1
176
     1
 90
        0
176
     1
 62
     7
176
     1
 62
   257
176
     1
 90
        1
176
     1
 90
        1
176
     1
 40
1.0
176
     1
 90
        8
176
     1
 62
     8
420
  7895160
176
     1
 40
1.0
176
     1
 90
        1
176
     1
 90
        6
176
     1
 90
        2
176
     1
 62
     7
176
     1
 90
        5
176
     1
 90
        0
176
     1
 90
        0
176
     1
290
     0
176
     1
 90
       13
176
     1
 40
0.0
176
     1
 90
        0
176
     1
290
     0
176
     1
290
     1
176
     1
290
     1
176
     1
290
     0
176
     1
290
     0
176
     1
290
     0
176
     1
290
     0
176
     1
290
     0
176
     1
290
     0
176
     1
 90
       50
176
     1
 40
0.0
176
     1
 40
1.0
176
     1
 90
        0
176
     1
 62
   178
420
        0
176
     1
 90
       50
176
     1
 90
        3
176
     1
 62
     5
420
      255
176
     1
290
     0
176
     1
 90
       50
176
     1
 90
       50
176
     1
 90
       50
176
     1
290
     0
176
     1
 90
       50
176
     1
 62
   256
176
     0
 40
1.0
176
     0
 90
        2
176
     1
  1
strokes_ogs.tif
176
     1
290
     0
176
     1
 40
1.0
176
     1
 40
1.0
176
     1
  0
VISUALSTYLE
  5
16D
102
{ACAD_REACTORS
330
2A
102
}
330
2A
100
AcDbVisualStyle
  2
Shaded
 70
    27
177
     3
291
     0
 70
    58
 90
        2
176
     1
 90
        2
176
     1
 90
        1
176
     1
 90
        2
176
     1
 40
0.6
176
     1
 40
30.0
176
     1
 62
     7
420
 16777215
176
     1
 90
        0
176
     1
 90
        4
176
     1
 62
     7
176
     1
 62
   257
176
     1
 90
        1
176
     1
 90
        1
176
     1
 40
1.0
176
     1
 90
        8
176
     1
 62
   257
176
     1
 40
1.0
176
     1
 90
        1
176
     1
 90
        6
176
     1
 90
        2
176
     1
 62
     8
420
  7895160
176
     1
 90
        3
176
     1
 90
        0
176
     1
 90
        0
176
     1
290
     0
176
     1
 90
        5
176
     1
 40
0.0
176
     1
 90
        0
176
     1
290
     0
176
     1
290
     1
176
     1
290
     1
176
     1
290
     0
176
     1
290
     0
176
     1
290
     0
176
     1
290
     0
176
     1
290
     0
176
     1
290
     0
176
     1
 90
       50
176
     1
 40
0.0
176
     1
 40
1.0
176
     1
 90
        0
176
     1
 62
   178
420
        0
176
     1
 90
       50
176
     1
 90
        3
176
     1
 62
     5
420
      255
176
     1
290
     0
176
     1
 90
       50
176
     1
 90
       50
176
     1
 90
       50
176
     1
290
     0
176
     1
 90
       50
176
     1
 62
   256
176
     0
 40
1.0
176
     0
 90
        2
176
     1
  1
strokes_ogs.tif
176
     1
290
     0
176
     1
 40
1.0
176
     1
 40
1.0
176
     1
  0
VISUALSTYLE
  5
16C
102
{ACAD_REACTORS
330
2A
102
}
330
2A
100
AcDbVisualStyle
  2
Shaded with edges
 70
    26
177
     3
291
     0
 70
    58
 90
        2
176
     1
 90
        2
176
     1
 90
        1
176
     1
 90
        2
176
     1
 40
0.6
176
     1
 40
30.0
176
     1
 62
     7
420
 16777215
176
     1
 90
        1
176
     1
 90
       10
176
     1
 62
     7
176
     1
 62
   257
176
     1
 90
        2
176
     1
 90
        1
176
     1
 40
1.0
176
     1
 90
        8
176
     1
 62
   257
176
     1
 40
1.0
176
     1
 90
        1
176
     1
 90
        6
176
     1
 90
        2
176
     1
 62
     7
176
     1
 90
        3
176
     1
 90
        0
176
     1
 90
        0
176
     1
290
     0
176
     1
 90
        5
176
     1
 40
0.0
176
     1
 90
        0
176
     1
290
     0
176
     1
290
     1
176
     1
290
     1
176
     1
290
     0
176
     1
290
     0
176
     1
290
     0
176
     1
290
     0
176
     1
290
     0
176
     1
290
     0
176
     1
 90
       50
176
     1
 40
0.0
176
     1
 40
1.0
176
     1
 90
        0
176
     1
 62
   178
420
        0
176
     1
 90
       50
176
     1
 90
        3
176
     1
 62
     5
420
      255
176
     1
290
     0
176
     1
 90
       50
176
     1
 90
       50
176
     1
 90
       50
176
     1
290
     0
176
     1
 90
       50
176
     1
 62
   256
176
     0
 40
1.0
176
     0
 90
        2
176
     1
  1
strokes_ogs.tif
176
     1
290
     0
176
     1
 40
1.0
176
     1
 40
1.0
176
     1
  0
VISUALSTYLE
  5
169
102
{ACAD_REACTORS
330
2A
102
}
330
2A
100
AcDbVisualStyle
  2
Shades of Gray
 70
    23
177
     3
291
     0
 70
    58
 90
        2
176
     1
 90
        2
176
     1
 90
        3
176
     1
 90
        0
176
     1
 40
0.6
176
     1
 40
30.0
176
     1
 62
     7
420
 16777215
176
     1
 90
        2
176
     1
 90
        2
176
     1
 62
     7
176
     1
 62
     7
176
     1
 90
        1
176
     1
 90
        1
176
     1
 40
40.0
176
     1
 90
        8
176
     1
 62
     7
176
     1
 40
1.0
176
     1
 90
        1
176
     1
 90
        6
176
     1
 90
        2
176
     1
 62
     7
176
     1
 90
        3
176
     1
 90
        0
176
     1
 90
        0
176
     1
290
     0
176
     1
 90
        1
176
     1
 40
0.0
176
     1
 90
        0
176
     1
290
     0
176
     1
290
     1
176
     1
290
     1
176
     1
290
     0
176
     1
290
     0
176
     1
290
     0
176
     1
290
     0
176
     1
290
     0
176
     1
290
     0
176
     1
 90
       50
176
     1
 40
0.0
176
     1
 40
1.0
176
     1
 90
        0
176
     1
 62
   178
420
        0
176
     1
 90
       50
176
     1
 90
        3
176
     1
 62
     5
420
      255
176
     1
290
     0
176
     1
 90
       50
176
     1
 90
       50
176
     1
 90
       50
176
     1
290
     0
176
     1
 90
       50
176
     1
 62
   256
176
     0
 40
1.0
176
     0
 90
        2
176
     1
  1
strokes_ogs.tif
176
     1
290
     0
176
     1
 40
1.0
176
     1
 40
1.0
176
     1
  0
VISUALSTYLE
  5
16A
102
{ACAD_REACTORS
330
2A
102
}
330
2A
100
AcDbVisualStyle
  2
Sketchy
 70
    24
177
     3
291
     0
 70
    58
 90
        1
176
     1
 90
        2
176
     1
 90
        2
176
     1
 90
        0
176
     1
 40
0.6
176
     1
 40
30.0
176
     1
 62
     7
420
 16777215
176
     1
 90
        2
176
     1
 90
        2
176
     1
 62
     7
176
     1
 62
     7
176
     1
 90
        1
176
     1
 90
        1
176
     1
 40
40.0
176
     1
 90
       11
176
     1
 62
     7
176
     1
 40
1.0
176
     1
 90
        1
176
     1
 90
        6
176
     1
 90
        2
176
     1
 62
     7
176
     1
 90
        6
176
     1
 90
        0
176
     1
 90
        0
176
     1
290
     0
176
     1
 90
        1
176
     1
 40
0.0
176
     1
 90
        0
176
     1
290
     0
176
     1
290
     1
176
     1
290
     1
176
     1
290
     0
176
     1
290
     0
176
     1
290
     0
176
     1
290
     0
176
     1
290
     0
176
     1
290
     0
176
     1
 90
       50
176
     1
 40
0.0
176
     1
 40
1.0
176
     1
 90
        0
176
     1
 62
   178
420
        0
176
     1
 90
       50
176
     1
 90
        3
176
     1
 62
     5
420
      255
176
     1
290
     0
176
     1
 90
       50
176
     1
 90
       50
176
     1
 90
       50
176
     1
290
     0
176
     1
 90
       50
176
     1
 62
   256
176
     0
 40
1.0
176
     0
 90
        2
176
     1
  1
strokes_ogs.tif
176
     1
290
     0
176
     1
 40
1.0
176
     1
 40
1.0
176
     1
  0
VISUALSTYLE
  5
37
102
{ACAD_REACTORS
330
2A
102
}
330
2A
100
AcDbVisualStyle
  2
Thicken
 70
    13
177
     3
291
     1
 70
    58
 90
        2
176
     1
 90
        2
176
     1
 90
        0
176
     1
 90
        0
176
     1
 40
-0.6
176
     1
 40
-30.0
176
     1
 62
     7
420
 16777215
176
     1
 90
        1
176
     1
 90
        4
176
     1
 62
     7
176
     1
 62
   257
176
     1
 90
        1
176
     1
 90
        1
176
     1
 40
1.0
176
     1
 90
       12
176
     1
 62
     7
176
     1
 40
1.0
176
     1
 90
        1
176
     1
 90
        6
176
     1
 90
        2
176
     1
 62
     7
176
     1
 90
        5
176
     1
 90
        0
176
     1
 90
        0
176
     1
290
     0
176
     1
 90
        1
176
     1
 40
0.0
176
     1
 90
        0
176
     1
290
     0
176
     1
290
     1
176
     1
290
     1
176
     1
290
     0
176
     1
290
     0
176
     1
290
     0
176
     1
290
     0
176
     1
290
     0
176
     1
290
     0
176
     1
 90
       50
176
     1
 40
0.0
176
     1
 40
1.0
176
     1
 90
        0
176
     1
 62
   178
420
        0
176
     1
 90
       50
176
     1
 90
        3
176
     1
 62
     5
420
      255
176
     1
290
     0
176
     1
 90
       50
176
     1
 90
       50
176
     1
 90
       50
176
     1
290
     0
176
     1
 90
       50
176
     1
 62
   256
176
     0
 40
1.0
176
     0
 90
        2
176
     1
  1
strokes_ogs.tif
176
     1
290
     0
176
     1
 40
1.0
176
     1
 40
1.0
176
     1
  0
VISUALSTYLE
  5
164
102
{ACAD_REACTORS
330
2A
102
}
330
2A
100
AcDbVisualStyle
  2
Wireframe
 70
     5
177
     3
291
     0
 70
    58
 90
        0
176
     1
 90
        2
176
     1
 90
        0
176
     1
 90
        0
176
     1
 40
0.6
176
     1
 40
30.0
176
     1
 62
     7
420
 16777215
176
     1
 90
        1
176
     1
 90
        4
176
     1
 62
     7
176
     1
 62
   257
176
     1
 90
        1
176
     1
 90
        1
176
     1
 40
1.0
176
     1
 90
        0
176
     1
 62
   257
176
     1
 40
1.0
176
     1
 90
        1
176
     1
 90
        6
176
     1
 90
        2
176
     1
 62
     7
176
     1
 90
        3
176
     1
 90
        0
176
     1
 90
        0
176
     1
290
     0
176
     1
 90
        1
176
     1
 40
0.0
176
     1
 90
        0
176
     1
290
     0
176
     1
290
     1
176
     1
290
     1
176
     1
290
     0
176
     1
290
     0
176
     1
290
     0
176
     1
290
     0
176
     1
290
     0
176
     1
290
     0
176
     1
 90
       50
176
     1
 40
0.0
176
     1
 40
1.0
176
     1
 90
        0
176
     1
 62
   178
420
        0
176
     1
 90
       50
176
     1
 90
        3
176
     1
 62
     5
420
      255
176
     1
290
     0
176
     1
 90
       50
176
     1
 90
       50
176
     1
 90
       50
176
     1
290
     0
176
     1
 90
       50
176
     1
 62
   256
176
     0
 40
1.0
176
     0
 90
        2
176
     1
  1
strokes_ogs.tif
176
     1
290
     0
176
     1
 40
1.0
176
     1
 40
1.0
176
     1
  0
VISUALSTYLE
  5
16B
102
{ACAD_REACTORS
330
2A
102
}
330
2A
100
AcDbVisualStyle
  2
X-Ray
 70
    25
177
     3
291
     0
 70
    58
 90
        2
176
     1
 90
        2
176
     1
 90
        1
176
     1
 90
        1
176
     1
 40
0.5
176
     1
 40
30.0
176
     1
 62
     7
420
 16777215
176
     1
 90
        1
176
     1
 90
        0
176
     1
 62
     7
176
     1
 62
   257
176
     1
 90
        1
176
     1
 90
        1
176
     1
 40
1.0
176
     1
 90
        8
176
     1
 62
     7
176
     1
 40
1.0
176
     1
 90
        1
176
     1
 90
        6
176
     1
 90
        2
176
     1
 62
     7
176
     1
 90
        3
176
     1
 90
        0
176
     1
 90
        0
176
     1
290
     0
176
     1
 90
       13
176
     1
 40
0.0
176
     1
 90
        0
176
     1
290
     0
176
     1
290
     1
176
     1
290
     1
176
     1
290
     0
176
     1
290
     0
176
     1
290
     0
176
     1
290
     0
176
     1
290
     0
176
     1
290
     0
176
     1
 90
       50
176
     1
 40
0.0
176
     1
 40
1.0
176
     1
 90
        0
176
     1
 62
   178
420
        0
176
     1
 90
       50
176
     1
 90
        3
176
     1
 62
     5
420
      255
176
     1
290
     0
176
     1
 90
       50
176
     1
 90
       50
176
     1
 90
       50
176
     1
290
     0
176
     1
 90
       50
176
     1
 62
   256
176
     0
 40
1.0
176
     0
 90
        2
176
     1
  1
strokes_ogs.tif
176
     1
290
     0
176
     1
 40
1.0
176
     1
 40
1.0
176
     1
  0
DICTIONARYVAR
  5
171
102
{ACAD_REACTORS
330
170
102
}
330
170
100
DictionaryVariables
280
     0
  1
1:1
  0
DICTIONARYVAR
  5
176
102
{ACAD_REACTORS
330
170
102
}
330
170
100
DictionaryVariables
280
     0
  1
Standard
  0
DICTIONARYVAR
  5
175
102
{ACAD_REACTORS
330
170
102
}
330
170
100
DictionaryVariables
280
     0
  1
Standard
  0
DICTIONARYVAR
  5
177
102
{ACAD_REACTORS
330
170
102
}
330
170
100
DictionaryVariables
280
     0
  1
0
  0
DICTIONARY
  5
172
330
16E
100
AcDbDictionary
280
     1
281
     1
  3
ACAD_ROUNDTRIP_2008_TABLESTYLE_CELLSTYLEMAP
360
173
  0
CELLSTYLEMAP
  5
173
102
{ACAD_REACTORS
330
172
102
}
330
172
100
AcDbCellStyleMap
 90
        3
300
CELLSTYLE
  1
TABLEFORMAT_BEGIN
 90
        5
170
     1
 91
        0
 92
    32768
 62
   257
 93
        1
300
CONTENTFORMAT
  1
CONTENTFORMAT_BEGIN
 90
        0
 91
        0
 92
        4
 93
        0
300

 40
0.0
140
1.0
 94
        5
 62
     0
340
11
144
0.25
309
CONTENTFORMAT_END
171
     1
301
MARGIN
  1
CELLMARGIN_BEGIN
 40
0.06
 40
0.06
 40
0.06
 40
0.06
 40
0.06
 40
0.06
309
CELLMARGIN_END
 94
        6
 95
        1
302
GRIDFORMAT
  1
GRIDFORMAT_BEGIN
 90
        0
 91
        1
 62
     0
 92
       -2
340
14
 93
        0
 40
0.045
309
GRIDFORMAT_END
 95
        2
302
GRIDFORMAT
  1
GRIDFORMAT_BEGIN
 90
        0
 91
        1
 62
     0
 92
       -2
340
14
 93
        0
 40
0.045
309
GRIDFORMAT_END
 95
        4
302
GRIDFORMAT
  1
GRIDFORMAT_BEGIN
 90
        0
 91
        1
 62
     0
 92
       -2
340
14
 93
        0
 40
0.045
309
GRIDFORMAT_END
 95
        8
302
GRIDFORMAT
  1
GRIDFORMAT_BEGIN
 90
        0
 91
        1
 62
     0
 92
       -2
340
14
 93
        0
 40
0.045
309
GRIDFORMAT_END
 95
       16
302
GRIDFORMAT
  1
GRIDFORMAT_BEGIN
 90
        0
 91
        1
 62
     0
 92
       -2
340
14
 93
        0
 40
0.045
309
GRIDFORMAT_END
 95
       32
302
GRIDFORMAT
  1
GRIDFORMAT_BEGIN
 90
        0
 91
        1
 62
     0
 92
       -2
340
14
 93
        0
 40
0.045
309
GRIDFORMAT_END
309
TABLEFORMAT_END
  1
CELLSTYLE_BEGIN
 90
        1
 91
        1
300
_TITLE
309
CELLSTYLE_END
300
CELLSTYLE
  1
TABLEFORMAT_BEGIN
 90
        5
170
     1
 91
        0
 92
        0
 62
   257
 93
        1
300
CONTENTFORMAT
  1
CONTENTFORMAT_BEGIN
 90
        0
 91
        0
 92
        4
 93
        0
300

 40
0.0
140
1.0
 94
        5
 62
     0
340
11
144
0.18
309
CONTENTFORMAT_END
171
     1
301
MARGIN
  1
CELLMARGIN_BEGIN
 40
0.06
 40
0.06
 40
0.06
 40
0.06
 40
0.06
 40
0.06
309
CELLMARGIN_END
 94
        6
 95
        1
302
GRIDFORMAT
  1
GRIDFORMAT_BEGIN
 90
        0
 91
        1
 62
     0
 92
       -2
340
14
 93
        0
 40
0.045
309
GRIDFORMAT_END
 95
        2
302
GRIDFORMAT
  1
GRIDFORMAT_BEGIN
 90
        0
 91
        1
 62
     0
 92
       -2
340
14
 93
        0
 40
0.045
309
GRIDFORMAT_END
 95
        4
302
GRIDFORMAT
  1
GRIDFORMAT_BEGIN
 90
        0
 91
        1
 62
     0
 92
       -2
340
14
 93
        0
 40
0.045
309
GRIDFORMAT_END
 95
        8
302
GRIDFORMAT
  1
GRIDFORMAT_BEGIN
 90
        0
 91
        1
 62
     0
 92
       -2
340
14
 93
        0
 40
0.045
309
GRIDFORMAT_END
 95
       16
302
GRIDFORMAT
  1
GRIDFORMAT_BEGIN
 90
        0
 91
        1
 62
     0
 92
       -2
340
14
 93
        0
 40
0.045
309
GRIDFORMAT_END
 95
       32
302
GRIDFORMAT
  1
GRIDFORMAT_BEGIN
 90
        0
 91
        1
 62
     0
 92
       -2
340
14
 93
        0
 40
0.045
309
GRIDFORMAT_END
309
TABLEFORMAT_END
  1
CELLSTYLE_BEGIN
 90
        2
 91
        1
300
_HEADER
309
CELLSTYLE_END
300
CELLSTYLE
  1
TABLEFORMAT_BEGIN
 90
        5
170
     1
 91
        0
 92
        0
 62
   257
 93
        1
300
CONTENTFORMAT
  1
CONTENTFORMAT_BEGIN
 90
        0
 91
        0
 92
        4
 93
        0
300

 40
0.0
140
1.0
 94
        2
 62
     0
340
11
144
0.18
309
CONTENTFORMAT_END
171
     1
301
MARGIN
  1
CELLMARGIN_BEGIN
 40
0.06
 40
0.06
 40
0.06
 40
0.06
 40
0.06
 40
0.06
309
CELLMARGIN_END
 94
        6
 95
        1
302
GRIDFORMAT
  1
GRIDFORMAT_BEGIN
 90
        0
 91
        1
 62
     0
 92
       -2
340
14
 93
        0
 40
0.045
309
GRIDFORMAT_END
 95
        2
302
GRIDFORMAT
  1
GRIDFORMAT_BEGIN
 90
        0
 91
        1
 62
     0
 92
       -2
340
14
 93
        0
 40
0.045
309
GRIDFORMAT_END
 95
        4
302
GRIDFORMAT
  1
GRIDFORMAT_BEGIN
 90
        0
 91
        1
 62
     0
 92
       -2
340
14
 93
        0
 40
0.045
309
GRIDFORMAT_END
 95
        8
302
GRIDFORMAT
  1
GRIDFORMAT_BEGIN
 90
        0
 91
        1
 62
     0
 92
       -2
340
14
 93
        0
 40
0.045
309
GRIDFORMAT_END
 95
       16
302
GRIDFORMAT
  1
GRIDFORMAT_BEGIN
 90
        0
 91
        1
 62
     0
 92
       -2
340
14
 93
        0
 40
0.045
309
GRIDFORMAT_END
 95
       32
302
GRIDFORMAT
  1
GRIDFORMAT_BEGIN
 90
        0
 91
        1
 62
     0
 92
       -2
340
14
 93
        0
 40
0.045
309
GRIDFORMAT_END
309
TABLEFORMAT_END
  1
CELLSTYLE_BEGIN
 90
        3
 91
        2
300
_DATA
309
CELLSTYLE_END
  0
ENDSEC
  0
EOF
