  0
SECTION
  2
HEADER
  9
$ACADVER
  1
AC1027
  9
$ACADMAINTVER
 70
     8
  9
$DWGCODEPAGE
  3
ANSI_1252
  9
$REQUIREDVERSIONS
160
                 0
  9
$INSBASE
 10
0.0
 20
0.0
 30
0.0
  9
$EXTMIN
 10
-176.2967
 20
-186.9824
 30
0.0
  9
$EXTMAX
 10
188.0533
 20
188.7677
 30
0.0
  9
$LIMMIN
 10
0.0
 20
0.0
  9
$LIMMAX
 10
12.0
 20
9.0
  9
$ORTHOMODE
 70
     0
  9
$REGENMODE
 70
     1
  9
$FILLMODE
 70
     1
  9
$QTEXTMODE
 70
     0
  9
$MIRRTEXT
 70
     1
  9
$LTSCALE
 40
1.0
  9
$ATTMODE
 70
     1
  9
$TEXTSIZE
 40
0.2
  9
$TRACEWID
 40
0.05
  9
$TEXTSTYLE
  7
Standard
  9
$CLAYER
  8
0
  9
$CELTYPE
  6
ByLayer
  9
$CECOLOR
 62
   256
  9
$CELTSCALE
 40
1.0
  9
$DISPSILH
 70
     0
  9
$DIMSCALE
 40
1.0
  9
$DIMASZ
 40
0.18
  9
$DIMEXO
 40
0.0625
  9
$DIMDLI
 40
0.38
  9
$DIMRND
 40
0.0
  9
$DIMDLE
 40
0.0
  9
$DIMEXE
 40
0.18
  9
$DIMTP
 40
0.0
  9
$DIMTM
 40
0.0
  9
$DIMTXT
 40
0.18
  9
$DIMCEN
 40
0.09
  9
$DIMTSZ
 40
0.0
  9
$DIMTOL
 70
     0
  9
$DIMLIM
 70
     0
  9
$DIMTIH
 70
     1
  9
$DIMTOH
 70
     1
  9
$DIMSE1
 70
     0
  9
$DIMSE2
 70
     0
  9
$DIMTAD
 70
     0
  9
$DIMZIN
 70
     0
  9
$DIMBLK
  1

  9
$DIMASO
 70
     1
  9
$DIMSHO
 70
     1
  9
$DIMPOST
  1

  9
$DIMAPOST
  1

  9
$DIMALT
 70
     0
  9
$DIMALTD
 70
     2
  9
$DIMALTF
 40
25.4
  9
$DIMLFAC
 40
1.0
  9
$DIMTOFL
 70
     0
  9
$DIMTVP
 40
0.0
  9
$DIMTIX
 70
     0
  9
$DIMSOXD
 70
     0
  9
$DIMSAH
 70
     0
  9
$DIMBLK1
  1

  9
$DIMBLK2
  1

  9
$DIMSTYLE
  2
Standard
  9
$DIMCLRD
 70
     0
  9
$DIMCLRE
 70
     0
  9
$DIMCLRT
 70
     0
  9
$DIMTFAC
 40
1.0
  9
$DIMGAP
 40
0.09
  9
$DIMJUST
 70
     0
  9
$DIMSD1
 70
     0
  9
$DIMSD2
 70
     0
  9
$DIMTOLJ
 70
     1
  9
$DIMTZIN
 70
     0
  9
$DIMALTZ
 70
     0
  9
$DIMALTTZ
 70
     0
  9
$DIMUPT
 70
     0
  9
$DIMDEC
 70
     4
  9
$DIMTDEC
 70
     4
  9
$DIMALTU
 70
     2
  9
$DIMALTTD
 70
     2
  9
$DIMTXSTY
  7
Standard
  9
$DIMAUNIT
 70
     0
  9
$DIMADEC
 70
     0
  9
$DIMALTRND
 40
0.0
  9
$DIMAZIN
 70
     0
  9
$DIMDSEP
 70
    46
  9
$DIMATFIT
 70
     3
  9
$DIMFRAC
 70
     0
  9
$DIMLDRBLK
  1

  9
$DIMLUNIT
 70
     2
  9
$DIMLWD
 70
    -2
  9
$DIMLWE
 70
    -2
  9
$DIMTMOVE
 70
     0
  9
$DIMFXL
 40
1.0
  9
$DIMFXLON
 70
     0
  9
$DIMJOGANG
 40
0.7853981633974483
  9
$DIMTFILL
 70
     0
  9
$DIMTFILLCLR
 70
     0
  9
$DIMARCSYM
 70
     0
  9
$DIMLTYPE
  6

  9
$DIMLTEX1
  6

  9
$DIMLTEX2
  6

  9
$DIMTXTDIRECTION
 70
     0
  9
$LUNITS
 70
     2
  9
$LUPREC
 70
     4
  9
$SKETCHINC
 40
0.1
  9
$FILLETRAD
 40
0.5
  9
$AUNITS
 70
     0
  9
$AUPREC
 70
     0
  9
$MENU
  1
.
  9
$ELEVATION
 40
0.0
  9
$PELEVATION
 40
0.0
  9
$THICKNESS
 40
0.0
  9
$LIMCHECK
 70
     0
  9
$CHAMFERA
 40
0.5
  9
$CHAMFERB
 40
0.5
  9
$CHAMFERC
 40
1.0
  9
$CHAMFERD
 40
0.0
  9
$SKPOLY
 70
     0
  9
$TDCREATE
 40
2457007.068697396
  9
$TDUCREATE
 40
2457007.027030729
  9
$TDUPDATE
 40
2457171.862268519
  9
$TDUUPDATE
 40
2457171.820601852
  9
$TDINDWG
 40
0.0000000116
  9
$TDUSRTIMER
 40
0.0000000116
  9
$USRTIMER
 70
     1
  9
$ANGBASE
 50
0.0
  9
$ANGDIR
 70
     0
  9
$PDMODE
 70
     0
  9
$PDSIZE
 40
0.0
  9
$PLINEWID
 40
0.0
  9
$SPLFRAME
 70
     0
  9
$SPLINETYPE
 70
     6
  9
$SPLINESEGS
 70
     8
  9
$HANDSEED
  5
1C9
  9
$SURFTAB1
 70
     6
  9
$SURFTAB2
 70
     6
  9
$SURFTYPE
 70
     6
  9
$SURFU
 70
     6
  9
$SURFV
 70
     6
  9
$UCSBASE
  2

  9
$UCSNAME
  2

  9
$UCSORG
 10
0.0
 20
0.0
 30
0.0
  9
$UCSXDIR
 10
1.0
 20
0.0
 30
0.0
  9
$UCSYDIR
 10
0.0
 20
1.0
 30
0.0
  9
$UCSORTHOREF
  2

  9
$UCSORTHOVIEW
 70
     0
  9
$UCSORGTOP
 10
0.0
 20
0.0
 30
0.0
  9
$UCSORGBOTTOM
 10
0.0
 20
0.0
 30
0.0
  9
$UCSORGLEFT
 10
0.0
 20
0.0
 30
0.0
  9
$UCSORGRIGHT
 10
0.0
 20
0.0
 30
0.0
  9
$UCSORGFRONT
 10
0.0
 20
0.0
 30
0.0
  9
$UCSORGBACK
 10
0.0
 20
0.0
 30
0.0
  9
$PUCSBASE
  2

  9
$PUCSNAME
  2

  9
$PUCSORG
 10
0.0
 20
0.0
 30
0.0
  9
$PUCSXDIR
 10
1.0
 20
0.0
 30
0.0
  9
$PUCSYDIR
 10
0.0
 20
1.0
 30
0.0
  9
$PUCSORTHOREF
  2

  9
$PUCSORTHOVIEW
 70
     0
  9
$PUCSORGTOP
 10
0.0
 20
0.0
 30
0.0
  9
$PUCSORGBOTTOM
 10
0.0
 20
0.0
 30
0.0
  9
$PUCSORGLEFT
 10
0.0
 20
0.0
 30
0.0
  9
$PUCSORGRIGHT
 10
0.0
 20
0.0
 30
0.0
  9
$PUCSORGFRONT
 10
0.0
 20
0.0
 30
0.0
  9
$PUCSORGBACK
 10
0.0
 20
0.0
 30
0.0
  9
$USERI1
 70
     0
  9
$USERI2
 70
     0
  9
$USERI3
 70
     0
  9
$USERI4
 70
     0
  9
$USERI5
 70
     0
  9
$USERR1
 40
0.0
  9
$USERR2
 40
0.0
  9
$USERR3
 40
0.0
  9
$USERR4
 40
0.0
  9
$USERR5
 40
0.0
  9
$WORLDVIEW
 70
     1
  9
$SHADEDGE
 70
     3
  9
$SHADEDIF
 70
    70
  9
$TILEMODE
 70
     1
  9
$MAXACTVP
 70
    64
  9
$PINSBASE
 10
0.0
 20
0.0
 30
0.0
  9
$PLIMCHECK
 70
     0
  9
$PEXTMIN
 10
1.000000000000000E+20
 20
1.000000000000000E+20
 30
1.000000000000000E+20
  9
$PEXTMAX
 10
-1.000000000000000E+20
 20
-1.000000000000000E+20
 30
-1.000000000000000E+20
  9
$PLIMMIN
 10
0.0
 20
0.0
  9
$PLIMMAX
 10
12.0
 20
9.0
  9
$UNITMODE
 70
     0
  9
$VISRETAIN
 70
     1
  9
$PLINEGEN
 70
     0
  9
$PSLTSCALE
 70
     1
  9
$TREEDEPTH
 70
  3020
  9
$CMLSTYLE
  2
Standard
  9
$CMLJUST
 70
     0
  9
$CMLSCALE
 40
1.0
  9
$PROXYGRAPHICS
 70
     1
  9
$MEASUREMENT
 70
     0
  9
$CELWEIGHT
370
    -1
  9
$ENDCAPS
280
     0
  9
$JOINSTYLE
280
     0
  9
$LWDISPLAY
290
     0
  9
$INSUNITS
 70
     4
  9
$HYPERLINKBASE
  1

  9
$STYLESHEET
  1

  9
$XEDIT
290
     1
  9
$CEPSNTYPE
380
     0
  9
$PSTYLEMODE
290
     1
  9
$FINGERPRINTGUID
  2
{E8B119D8-AD7B-4B09-90EB-3ADA8908E046}
  9
$VERSIONGUID
  2
{FAEB1C32-E019-11D5-929B-00C0DF256EC4}
  9
$EXTNAMES
290
     1
  9
$PSVPSCALE
 40
0.0
  9
$OLESTARTUP
290
     0
  9
$SORTENTS
280
   127
  9
$INDEXCTL
280
     0
  9
$HIDETEXT
280
     1
  9
$XCLIPFRAME
280
     0
  9
$HALOGAP
280
     0
  9
$OBSCOLOR
 70
   257
  9
$OBSLTYPE
280
     0
  9
$INTERSECTIONDISPLAY
280
     0
  9
$INTERSECTIONCOLOR
 70
   257
  9
$DIMASSOC
280
     2
  9
$PROJECTNAME
  1

  9
$CAMERADISPLAY
290
     0
  9
$LENSLENGTH
 40
50.0
  9
$CAMERAHEIGHT
 40
0.0
  9
$STEPSPERSEC
 40
2.0
  9
$STEPSIZE
 40
6.0
  9
$3DDWFPREC
 40
2.0
  9
$PSOLWIDTH
 40
0.25
  9
$PSOLHEIGHT
 40
4.0
  9
$LOFTANG1
 40
1.570796326794897
  9
$LOFTANG2
 40
1.570796326794897
  9
$LOFTMAG1
 40
0.0
  9
$LOFTMAG2
 40
0.0
  9
$LOFTPARAM
 70
     7
  9
$LOFTNORMALS
280
     1
  9
$LATITUDE
 40
37.795
  9
$LONGITUDE
 40
-122.394
  9
$NORTHDIRECTION
 40
0.0
  9
$TIMEZONE
 70
 -8000
  9
$LIGHTGLYPHDISPLAY
280
     1
  9
$TILEMODELIGHTSYNCH
280
     1
  9
$SOLIDHIST
280
     1
  9
$SHOWHIST
280
     1
  9
$DWFFRAME
280
     2
  9
$DGNFRAME
280
     2
  9
$REALWORLDSCALE
290
     1
  9
$INTERFERECOLOR
 62
   256
  9
$CSHADOW
280
     0
  9
$SHADOWPLANELOCATION
 40
0.0
  0
ENDSEC
  0
SECTION
  2
CLASSES
  0
CLASS
  1
ACDBDICTIONARYWDFLT
  2
AcDbDictionaryWithDefault
  3
ObjectDBX Classes
 90
        0
 91
        4
280
     0
281
     0
  0
CLASS
  1
VISUALSTYLE
  2
AcDbVisualStyle
  3
ObjectDBX Classes
 90
     4095
 91
        4
280
     0
281
     0
  0
CLASS
  1
MATERIAL
  2
AcDbMaterial
  3
ObjectDBX Classes
 90
     1153
 91
        4
280
     0
281
     0
  0
CLASS
  1
SCALE
  2
AcDbScale
  3
ObjectDBX Classes
 90
     1153
 91
        4
280
     0
281
     0
  0
CLASS
  1
TABLESTYLE
  2
AcDbTableStyle
  3
ObjectDBX Classes
 90
     4095
 91
        4
280
     0
281
     0
  0
CLASS
  1
MLEADERSTYLE
  2
AcDbMLeaderStyle
  3
ACDB_MLEADERSTYLE_CLASS
 90
     4095
 91
        4
280
     0
281
     0
  0
CLASS
  1
DICTIONARYVAR
  2
AcDbDictionaryVar
  3
ObjectDBX Classes
 90
        0
 91
        4
280
     0
281
     0
  0
CLASS
  1
CELLSTYLEMAP
  2
AcDbCellStyleMap
  3
ObjectDBX Classes
 90
     1152
 91
        4
280
     0
281
     0
  0
ENDSEC
  0
SECTION
  2
TABLES
  0
TABLE
  2
VPORT
  5
8
330
0
100
AcDbSymbolTable
 70
     1
  0
VPORT
  5
29
330
8
100
AcDbSymbolTableRecord
100
AcDbViewportTableRecord
  2
*Active
 70
     0
 10
0.0
 20
0.0
 11
1.0
 21
1.0
 12
10.42990654205607
 22
4.5
 13
0.0
 23
0.0
 14
0.5
 24
0.5
 15
0.5
 25
0.5
 16
0.0
 26
0.0
 36
1.0
 17
0.0
 27
0.0
 37
0.0
 40
9.0
 41
1.972972972850329
 42
50.0
 43
0.0
 44
0.0
 50
0.0
 51
0.0
 71
     0
 72
   100
 73
     1
 74
     3
 75
     0
 76
     0
 77
     0
 78
     0
281
     0
 65
     1
110
0.0
120
0.0
130
0.0
111
1.0
121
0.0
131
0.0
112
0.0
122
1.0
132
0.0
 79
     0
146
0.0
348
2F
 60
     3
 61
     5
292
     1
282
     1
141
0.0
142
0.0
 63
   250
  0
ENDTAB
  0
TABLE
  2
LTYPE
  5
5
330
0
100
AcDbSymbolTable
 70
     1
  0
LTYPE
  5
14
330
5
100
AcDbSymbolTableRecord
100
AcDbLinetypeTableRecord
  2
ByBlock
 70
     0
  3

 72
    65
 73
     0
 40
0.0
  0
LTYPE
  5
15
330
5
100
AcDbSymbolTableRecord
100
AcDbLinetypeTableRecord
  2
ByLayer
 70
     0
  3

 72
    65
 73
     0
 40
0.0
  0
LTYPE
  5
16
330
5
100
AcDbSymbolTableRecord
100
AcDbLinetypeTableRecord
  2
Continuous
 70
     0
  3
Solid line
 72
    65
 73
     0
 40
0.0
  0
ENDTAB
  0
TABLE
  2
LAYER
  5
2
330
0
100
AcDbSymbolTable
 70
     2
  0
LAYER
  5
10
330
2
100
AcDbSymbolTableRecord
100
AcDbLayerTableRecord
  2
0
 70
     0
 62
     7
  6
Continuous
370
    -3
390
F
347
3E
348
0
  0
LAYER
  5
40
330
2
100
AcDbSymbolTableRecord
100
AcDbLayerTableRecord
  2
Capa 1
 70
     0
 62
     7
  6
Continuous
370
    -3
390
F
347
3E
348
0
  0
ENDTAB
  0
TABLE
  2
STYLE
  5
3
330
0
100
AcDbSymbolTable
 70
     1
  0
STYLE
  5
11
330
3
100
AcDbSymbolTableRecord
100
AcDbTextStyleTableRecord
  2
Standard
 70
     0
 40
0.0
 41
1.0
 50
0.0
 71
     0
 42
0.2
  3
txt
  4

  0
ENDTAB
  0
TABLE
  2
VIEW
  5
6
330
0
100
AcDbSymbolTable
 70
     0
  0
ENDTAB
  0
TABLE
  2
UCS
  5
7
330
0
100
AcDbSymbolTable
 70
     0
  0
ENDTAB
  0
TABLE
  2
APPID
  5
9
330
0
100
AcDbSymbolTable
 70
     2
  0
APPID
  5
12
330
9
100
AcDbSymbolTableRecord
100
AcDbRegAppTableRecord
  2
ACAD
 70
     0
  0
APPID
  5
3F
330
9
100
AcDbSymbolTableRecord
100
AcDbRegAppTableRecord
  2
ODA
 70
     0
  0
ENDTAB
  0
TABLE
  2
DIMSTYLE
  5
A
330
0
100
AcDbSymbolTable
 70
     1
100
AcDbDimStyleTable
  0
DIMSTYLE
105
27
330
A
100
AcDbSymbolTableRecord
100
AcDbDimStyleTableRecord
  2
Standard
 70
     0
178
     0
340
11
  0
ENDTAB
  0
TABLE
  2
BLOCK_RECORD
  5
1
330
0
100
AcDbSymbolTable
 70
     1
  0
BLOCK_RECORD
  5
1F
330
1
100
AcDbSymbolTableRecord
100
AcDbBlockTableRecord
  2
*Model_Space
340
22
 70
     0
280
     1
281
     0
  0
BLOCK_RECORD
  5
1B
330
1
100
AcDbSymbolTableRecord
100
AcDbBlockTableRecord
  2
*Paper_Space
340
1E
 70
     0
280
     1
281
     0
  0
BLOCK_RECORD
  5
23
330
1
100
AcDbSymbolTableRecord
100
AcDbBlockTableRecord
  2
*Paper_Space0
340
26
 70
     0
280
     1
281
     0
  0
ENDTAB
  0
ENDSEC
  0
SECTION
  2
BLOCKS
  0
BLOCK
  5
20
330
1F
100
AcDbEntity
  8
0
100
AcDbBlockBegin
  2
*Model_Space
 70
     0
 10
0.0
 20
0.0
 30
0.0
  3
*Model_Space
  1

  0
ENDBLK
  5
21
330
1F
100
AcDbEntity
  8
0
100
AcDbBlockEnd
  0
BLOCK
  5
1C
330
1B
100
AcDbEntity
 67
     1
  8
0
100
AcDbBlockBegin
  2
*Paper_Space
 70
     0
 10
0.0
 20
0.0
 30
0.0
  3
*Paper_Space
  1

  0
ENDBLK
  5
1D
330
1B
100
AcDbEntity
 67
     1
  8
0
100
AcDbBlockEnd
  0
BLOCK
  5
24
330
23
100
AcDbEntity
  8
0
100
AcDbBlockBegin
  2
*Paper_Space0
 70
     0
 10
0.0
 20
0.0
 30
0.0
  3
*Paper_Space0
  1

  0
ENDBLK
  5
25
330
23
100
AcDbEntity
  8
0
100
AcDbBlockEnd
  0
ENDSEC
  0
SECTION
  2
ENTITIES
  0
SPLINE
  5
41
330
1F
100
AcDbEntity
  8
Capa 1
 62
   250
370
    20
100
AcDbSpline
210
0.0
220
0.0
230
1.0
 70
    24
 71
     3
 72
     8
 73
     4
 74
     0
 42
0.000000001
 43
0.0000000001
 40
0.0
 40
0.0
 40
0.0
 40
0.0
 40
1.0
 40
1.0
 40
1.0
 40
1.0
 10
77.7783
 20
-182.9074
 30
0.0
 10
77.7783
 20
-182.9074
 30
0.0
 10
80.9996
 20
-182.9074
 30
0.0
 10
80.9996
 20
-182.9074
 30
0.0
  0
SPLINE
  5
42
330
1F
100
AcDbEntity
  8
Capa 1
 62
   250
370
    20
100
AcDbSpline
210
0.0
220
0.0
230
1.0
 70
    24
 71
     3
 72
     8
 73
     4
 74
     0
 42
0.000000001
 43
0.0000000001
 40
0.0
 40
0.0
 40
0.0
 40
0.0
 40
1.0
 40
1.0
 40
1.0
 40
1.0
 10
80.7783
 20
-182.596
 30
0.0
 10
80.7783
 20
-182.596
 30
0.0
 10
77.7783
 20
-182.5563
 30
0.0
 10
77.7783
 20
-182.5563
 30
0.0
  0
SPLINE
  5
43
330
1F
100
AcDbEntity
  8
Capa 1
 62
   250
370
    20
100
AcDbSpline
210
0.0
220
0.0
230
1.0
 70
    24
 71
     3
 72
     8
 73
     4
 74
     0
 42
0.000000001
 43
0.0000000001
 40
0.0
 40
0.0
 40
0.0
 40
0.0
 40
1.0
 40
1.0
 40
1.0
 40
1.0
 10
136.1783
 20
-182.6356
 30
0.0
 10
136.1783
 20
-182.6356
 30
0.0
 10
139.1783
 20
-182.6489
 30
0.0
 10
139.1783
 20
-182.6489
 30
0.0
  0
SPLINE
  5
44
330
1F
100
AcDbEntity
  8
Capa 1
 62
   250
370
    20
100
AcDbSpline
210
0.0
220
0.0
230
1.0
 70
    24
 71
     3
 72
     8
 73
     4
 74
     0
 42
0.000000001
 43
0.0000000001
 40
0.0
 40
0.0
 40
0.0
 40
0.0
 40
1.0
 40
1.0
 40
1.0
 40
1.0
 10
139.1783
 20
-182.9074
 30
0.0
 10
139.1783
 20
-182.9074
 30
0.0
 10
136.1783
 20
-182.9074
 30
0.0
 10
136.1783
 20
-182.9074
 30
0.0
  0
SPLINE
  5
45
330
1F
100
AcDbEntity
  8
Capa 1
 62
   250
370
    20
100
AcDbSpline
210
0.0
220
0.0
230
1.0
 70
    24
 71
     3
 72
     8
 73
     4
 74
     0
 42
0.000000001
 43
0.0000000001
 40
0.0
 40
0.0
 40
0.0
 40
0.0
 40
1.0
 40
1.0
 40
1.0
 40
1.0
 10
183.9783
 20
-138.6074
 30
0.0
 10
183.9783
 20
-138.6074
 30
0.0
 10
183.9783
 20
-141.6074
 30
0.0
 10
183.9783
 20
-141.6074
 30
0.0
  0
SPLINE
  5
46
330
1F
100
AcDbEntity
  8
Capa 1
 62
   250
370
    20
100
AcDbSpline
210
0.0
220
0.0
230
1.0
 70
    24
 71
     3
 72
     8
 73
     4
 74
     0
 42
0.000000001
 43
0.0000000001
 40
0.0
 40
0.0
 40
0.0
 40
0.0
 40
1.0
 40
1.0
 40
1.0
 40
1.0
 10
183.6842
 20
-138.6074
 30
0.0
 10
183.6842
 20
-138.6074
 30
0.0
 10
183.6975
 20
-141.6074
 30
0.0
 10
183.6975
 20
-141.6074
 30
0.0
  0
SPLINE
  5
47
330
1F
100
AcDbEntity
  8
Capa 1
 62
   250
370
    20
100
AcDbSpline
210
0.0
220
0.0
230
1.0
 70
    24
 71
     3
 72
     8
 73
     4
 74
     0
 42
0.000000001
 43
0.0000000001
 40
0.0
 40
0.0
 40
0.0
 40
0.0
 40
1.0
 40
1.0
 40
1.0
 40
1.0
 10
183.9783
 20
-0.6077
 30
0.0
 10
183.9783
 20
-0.6077
 30
0.0
 10
183.9783
 20
2.3923
 30
0.0
 10
183.9783
 20
2.3923
 30
0.0
  0
SPLINE
  5
48
330
1F
100
AcDbEntity
  8
Capa 1
 62
   250
370
    20
100
AcDbSpline
210
0.0
220
0.0
230
1.0
 70
    24
 71
     3
 72
     8
 73
     4
 74
     0
 42
0.000000001
 43
0.0000000001
 40
0.0
 40
0.0
 40
0.0
 40
0.0
 40
1.0
 40
1.0
 40
1.0
 40
1.0
 10
183.6447
 20
2.3923
 30
0.0
 10
183.6447
 20
2.3923
 30
0.0
 10
183.6315
 20
-0.6077
 30
0.0
 10
183.6315
 20
-0.6077
 30
0.0
  0
SPLINE
  5
49
330
1F
100
AcDbEntity
  8
Capa 1
 62
   250
370
    20
100
AcDbSpline
210
0.0
220
0.0
230
1.0
 70
    24
 71
     3
 72
     8
 73
     4
 74
     0
 42
0.000000001
 43
0.0000000001
 40
0.0
 40
0.0
 40
0.0
 40
0.0
 40
1.0
 40
1.0
 40
1.0
 40
1.0
 10
183.9783
 20
143.3927
 30
0.0
 10
183.9783
 20
143.3927
 30
0.0
 10
183.9783
 20
140.3927
 30
0.0
 10
183.9783
 20
140.3927
 30
0.0
  0
SPLINE
  5
4A
330
1F
100
AcDbEntity
  8
Capa 1
 62
   250
370
    20
100
AcDbSpline
210
0.0
220
0.0
230
1.0
 70
    24
 71
     3
 72
     8
 73
     4
 74
     0
 42
0.000000001
 43
0.0000000001
 40
0.0
 40
0.0
 40
0.0
 40
0.0
 40
1.0
 40
1.0
 40
1.0
 40
1.0
 10
183.711
 20
143.3927
 30
0.0
 10
183.711
 20
143.3927
 30
0.0
 10
183.6713
 20
140.3927
 30
0.0
 10
183.6713
 20
140.3927
 30
0.0
  0
SPLINE
  5
4B
330
1F
100
AcDbEntity
  8
Capa 1
 62
   250
370
    20
100
AcDbSpline
210
0.0
220
0.0
230
1.0
 70
    24
 71
     3
 72
     8
 73
     4
 74
     0
 42
0.000000001
 43
0.0000000001
 40
0.0
 40
0.0
 40
0.0
 40
0.0
 40
1.0
 40
1.0
 40
1.0
 40
1.0
 10
136.1783
 20
184.4346
 30
0.0
 10
136.1783
 20
184.4346
 30
0.0
 10
139.1783
 20
184.3949
 30
0.0
 10
139.1783
 20
184.3949
 30
0.0
  0
SPLINE
  5
4C
330
1F
100
AcDbEntity
  8
Capa 1
 62
   250
370
    20
100
AcDbSpline
210
0.0
220
0.0
230
1.0
 70
    24
 71
     3
 72
     8
 73
     4
 74
     0
 42
0.000000001
 43
0.0000000001
 40
0.0
 40
0.0
 40
0.0
 40
0.0
 40
1.0
 40
1.0
 40
1.0
 40
1.0
 10
139.1783
 20
184.6927
 30
0.0
 10
139.1783
 20
184.6927
 30
0.0
 10
136.1783
 20
184.6927
 30
0.0
 10
136.1783
 20
184.6927
 30
0.0
  0
SPLINE
  5
4D
330
1F
100
AcDbEntity
  8
Capa 1
 62
   250
370
    20
100
AcDbSpline
210
0.0
220
0.0
230
1.0
 70
    24
 71
     3
 72
     8
 73
     4
 74
     0
 42
0.000000001
 43
0.0000000001
 40
0.0
 40
0.0
 40
0.0
 40
0.0
 40
1.0
 40
1.0
 40
1.0
 40
1.0
 10
4.3788
 20
184.4147
 30
0.0
 10
4.3788
 20
184.4147
 30
0.0
 10
7.3788
 20
184.3882
 30
0.0
 10
7.3788
 20
184.3882
 30
0.0
  0
SPLINE
  5
4E
330
1F
100
AcDbEntity
  8
Capa 1
 62
   250
370
    20
100
AcDbSpline
210
0.0
220
0.0
230
1.0
 70
    24
 71
     3
 72
     8
 73
     4
 74
     0
 42
0.000000001
 43
0.0000000001
 40
0.0
 40
0.0
 40
0.0
 40
0.0
 40
1.0
 40
1.0
 40
1.0
 40
1.0
 10
7.3788
 20
184.6927
 30
0.0
 10
7.3788
 20
184.6927
 30
0.0
 10
4.3788
 20
184.6927
 30
0.0
 10
4.3788
 20
184.6927
 30
0.0
  0
SPLINE
  5
4F
330
1F
100
AcDbEntity
  8
Capa 1
 62
   250
370
    20
100
AcDbSpline
210
0.0
220
0.0
230
1.0
 70
    24
 71
     3
 72
     8
 73
     4
 74
     0
 42
0.000000001
 43
0.0000000001
 40
0.0
 40
0.0
 40
0.0
 40
0.0
 40
1.0
 40
1.0
 40
1.0
 40
1.0
 10
-127.4217
 20
184.2557
 30
0.0
 10
-127.4217
 20
184.2557
 30
0.0
 10
-124.4217
 20
184.2821
 30
0.0
 10
-124.4217
 20
184.2821
 30
0.0
  0
SPLINE
  5
50
330
1F
100
AcDbEntity
  8
Capa 1
 62
   250
370
    20
100
AcDbSpline
210
0.0
220
0.0
230
1.0
 70
    24
 71
     3
 72
     8
 73
     4
 74
     0
 42
0.000000001
 43
0.0000000001
 40
0.0
 40
0.0
 40
0.0
 40
0.0
 40
1.0
 40
1.0
 40
1.0
 40
1.0
 10
-124.4217
 20
184.6927
 30
0.0
 10
-124.4217
 20
184.6927
 30
0.0
 10
-127.4217
 20
184.6927
 30
0.0
 10
-127.4217
 20
184.6927
 30
0.0
  0
SPLINE
  5
51
330
1F
100
AcDbEntity
  8
Capa 1
 62
   250
370
    20
100
AcDbSpline
210
0.0
220
0.0
230
1.0
 70
    24
 71
     3
 72
     8
 73
     4
 74
     0
 42
0.000000001
 43
0.0000000001
 40
0.0
 40
0.0
 40
0.0
 40
0.0
 40
1.0
 40
1.0
 40
1.0
 40
1.0
 10
-171.9196
 20
143.3927
 30
0.0
 10
-171.9196
 20
143.3927
 30
0.0
 10
-171.9329
 20
140.3927
 30
0.0
 10
-171.9329
 20
140.3927
 30
0.0
  0
SPLINE
  5
52
330
1F
100
AcDbEntity
  8
Capa 1
 62
   250
370
    20
100
AcDbSpline
210
0.0
220
0.0
230
1.0
 70
    24
 71
     3
 72
     8
 73
     4
 74
     0
 42
0.000000001
 43
0.0000000001
 40
0.0
 40
0.0
 40
0.0
 40
0.0
 40
1.0
 40
1.0
 40
1.0
 40
1.0
 10
-172.2217
 20
143.3927
 30
0.0
 10
-172.2217
 20
143.3927
 30
0.0
 10
-172.2217
 20
140.3927
 30
0.0
 10
-172.2217
 20
140.3927
 30
0.0
  0
SPLINE
  5
53
330
1F
100
AcDbEntity
  8
Capa 1
 62
   250
370
    20
100
AcDbSpline
210
0.0
220
0.0
230
1.0
 70
    24
 71
     3
 72
     8
 73
     4
 74
     0
 42
0.000000001
 43
0.0000000001
 40
0.0
 40
0.0
 40
0.0
 40
0.0
 40
1.0
 40
1.0
 40
1.0
 40
1.0
 10
-171.9323
 20
2.3923
 30
0.0
 10
-171.9323
 20
2.3923
 30
0.0
 10
-171.9058
 20
-0.6077
 30
0.0
 10
-171.9058
 20
-0.6077
 30
0.0
  0
SPLINE
  5
54
330
1F
100
AcDbEntity
  8
Capa 1
 62
   250
370
    20
100
AcDbSpline
210
0.0
220
0.0
230
1.0
 70
    24
 71
     3
 72
     8
 73
     4
 74
     0
 42
0.000000001
 43
0.0000000001
 40
0.0
 40
0.0
 40
0.0
 40
0.0
 40
1.0
 40
1.0
 40
1.0
 40
1.0
 10
-172.2217
 20
2.3923
 30
0.0
 10
-172.2217
 20
2.3923
 30
0.0
 10
-172.2217
 20
-0.6077
 30
0.0
 10
-172.2217
 20
-0.6077
 30
0.0
  0
SPLINE
  5
55
330
1F
100
AcDbEntity
  8
Capa 1
 62
   250
370
    20
100
AcDbSpline
210
0.0
220
0.0
230
1.0
 70
    24
 71
     3
 72
     8
 73
     4
 74
     0
 42
0.000000001
 43
0.0000000001
 40
0.0
 40
0.0
 40
0.0
 40
0.0
 40
1.0
 40
1.0
 40
1.0
 40
1.0
 10
-171.9714
 20
-138.6074
 30
0.0
 10
-171.9714
 20
-138.6074
 30
0.0
 10
-172.0045
 20
-141.6074
 30
0.0
 10
-172.0045
 20
-141.6074
 30
0.0
  0
SPLINE
  5
56
330
1F
100
AcDbEntity
  8
Capa 1
 62
   250
370
    20
100
AcDbSpline
210
0.0
220
0.0
230
1.0
 70
    24
 71
     3
 72
     8
 73
     4
 74
     0
 42
0.000000001
 43
0.0000000001
 40
0.0
 40
0.0
 40
0.0
 40
0.0
 40
1.0
 40
1.0
 40
1.0
 40
1.0
 10
-172.2217
 20
-138.6074
 30
0.0
 10
-172.2217
 20
-138.6074
 30
0.0
 10
-172.2217
 20
-141.6074
 30
0.0
 10
-172.2217
 20
-141.6074
 30
0.0
  0
SPLINE
  5
57
330
1F
100
AcDbEntity
  8
Capa 1
 62
   250
370
    20
100
AcDbSpline
210
0.0
220
0.0
230
1.0
 70
    24
 71
     3
 72
     8
 73
     4
 74
     0
 42
0.000000001
 43
0.0000000001
 40
0.0
 40
0.0
 40
0.0
 40
0.0
 40
1.0
 40
1.0
 40
1.0
 40
1.0
 10
-127.4217
 20
-182.5602
 30
0.0
 10
-127.4217
 20
-182.5602
 30
0.0
 10
-124.4217
 20
-182.5602
 30
0.0
 10
-124.4217
 20
-182.5602
 30
0.0
  0
SPLINE
  5
58
330
1F
100
AcDbEntity
  8
Capa 1
 62
   250
370
    20
100
AcDbSpline
210
0.0
220
0.0
230
1.0
 70
    24
 71
     3
 72
     8
 73
     4
 74
     0
 42
0.000000001
 43
0.0000000001
 40
0.0
 40
0.0
 40
0.0
 40
0.0
 40
1.0
 40
1.0
 40
1.0
 40
1.0
 10
-124.4217
 20
-182.9074
 30
0.0
 10
-124.4217
 20
-182.9074
 30
0.0
 10
-127.4217
 20
-182.9074
 30
0.0
 10
-127.4217
 20
-182.9074
 30
0.0
  0
SPLINE
  5
59
330
1F
100
AcDbEntity
  8
Capa 1
 62
   250
370
    20
100
AcDbSpline
210
0.0
220
0.0
230
1.0
 70
    24
 71
     3
 72
     8
 73
     4
 74
     0
 42
0.000000001
 43
0.0000000001
 40
0.0
 40
0.0
 40
0.0
 40
0.0
 40
1.0
 40
1.0
 40
1.0
 40
1.0
 10
-69.0217
 20
-182.5868
 30
0.0
 10
-69.0217
 20
-182.5868
 30
0.0
 10
-66.0217
 20
-182.6133
 30
0.0
 10
-66.0217
 20
-182.6133
 30
0.0
  0
SPLINE
  5
5A
330
1F
100
AcDbEntity
  8
Capa 1
 62
   250
370
    20
100
AcDbSpline
210
0.0
220
0.0
230
1.0
 70
    24
 71
     3
 72
     8
 73
     4
 74
     0
 42
0.000000001
 43
0.0000000001
 40
0.0
 40
0.0
 40
0.0
 40
0.0
 40
1.0
 40
1.0
 40
1.0
 40
1.0
 10
-66.0217
 20
-182.9074
 30
0.0
 10
-66.0217
 20
-182.9074
 30
0.0
 10
-69.0217
 20
-182.9074
 30
0.0
 10
-69.0217
 20
-182.9074
 30
0.0
  0
SPLINE
  5
5B
330
1F
100
AcDbEntity
  8
Capa 1
370
    15
100
AcDbSpline
210
0.0
220
0.0
230
1.0
 70
     8
 71
     3
 72
    20
 73
    16
 74
     0
 42
0.000000001
 43
0.0000000001
 40
0.0
 40
0.0
 40
0.0
 40
0.0
 40
0.2
 40
0.2
 40
0.2
 40
0.2
 40
0.4
 40
0.4
 40
0.4
 40
0.4
 40
0.6
 40
0.6
 40
0.6
 40
0.6
 40
1.0
 40
1.0
 40
1.0
 40
1.0
 10
106.8783
 20
-162.1074
 30
0.0
 10
106.8783
 20
-158.7936
 30
0.0
 10
104.192
 20
-156.1074
 30
0.0
 10
100.8783
 20
-156.1074
 30
0.0
 10
100.8783
 20
-156.1074
 30
0.0
 10
97.5646
 20
-156.1073
 30
0.0
 10
94.8783
 20
-158.7936
 30
0.0
 10
94.8783
 20
-162.1073
 30
0.0
 10
94.8783
 20
-162.1073
 30
0.0
 10
94.8782
 20
-165.421
 30
0.0
 10
97.5645
 20
-168.1073
 30
0.0
 10
100.8782
 20
-168.1073
 30
0.0
 10
100.8782
 20
-168.1073
 30
0.0
 10
104.1919
 20
-168.1074
 30
0.0
 10
106.8782
 20
-165.4211
 30
0.0
 10
106.8782
 20
-162.1074
 30
0.0
  0
SPLINE
  5
5C
330
1F
100
AcDbEntity
  8
Capa 1
370
    15
100
AcDbSpline
210
0.0
220
0.0
230
1.0
 70
    11
 71
     3
 72
    20
 73
    16
 74
     0
 42
0.000000001
 43
0.0000000001
 40
0.0
 40
0.0
 40
0.0
 40
0.0
 40
0.2
 40
0.2
 40
0.2
 40
0.2
 40
0.4
 40
0.4
 40
0.4
 40
0.4
 40
0.6
 40
0.6
 40
0.6
 40
0.6
 40
1.0
 40
1.0
 40
1.0
 40
1.0
 10
-83.1217
 20
-162.1074
 30
0.0
 10
-83.1217
 20
-158.7936
 30
0.0
 10
-85.8079
 20
-156.1074
 30
0.0
 10
-89.1216
 20
-156.1074
 30
0.0
 10
-89.1216
 20
-156.1074
 30
0.0
 10
-92.4353
 20
-156.1073
 30
0.0
 10
-95.1216
 20
-158.7936
 30
0.0
 10
-95.1216
 20
-162.1073
 30
0.0
 10
-95.1216
 20
-162.1073
 30
0.0
 10
-95.1217
 20
-165.421
 30
0.0
 10
-92.4354
 20
-168.1073
 30
0.0
 10
-89.1217
 20
-168.1073
 30
0.0
 10
-89.1217
 20
-168.1073
 30
0.0
 10
-85.808
 20
-168.1074
 30
0.0
 10
-83.1217
 20
-165.4211
 30
0.0
 10
-83.1217
 20
-162.1074
 30
0.0
  0
SPLINE
  5
5D
330
1F
100
AcDbEntity
  8
Capa 1
370
    15
100
AcDbSpline
210
0.0
220
0.0
230
1.0
 70
    24
 71
     3
 72
     8
 73
     4
 74
     0
 42
0.000000001
 43
0.0000000001
 40
0.0
 40
0.0
 40
0.0
 40
0.0
 40
1.0
 40
1.0
 40
1.0
 40
1.0
 10
-70.2717
 20
-173.7074
 30
0.0
 10
-70.2717
 20
-173.7074
 30
0.0
 10
-70.2717
 20
-175.1074
 30
0.0
 10
-70.2717
 20
-175.1074
 30
0.0
  0
SPLINE
  5
5E
330
1F
100
AcDbEntity
  8
Capa 1
370
    15
100
AcDbSpline
210
0.0
220
0.0
230
1.0
 70
     8
 71
     3
 72
     8
 73
     4
 74
     0
 42
0.000000001
 43
0.0000000001
 40
0.0
 40
0.0
 40
0.0
 40
0.0
 40
1.0
 40
1.0
 40
1.0
 40
1.0
 10
-70.2716
 20
-175.1074
 30
0.0
 10
-70.2716
 20
-175.8393
 30
0.0
 10
-69.7434
 20
-176.4644
 30
0.0
 10
-69.0217
 20
-176.5864
 30
0.0
  0
SPLINE
  5
5F
330
1F
100
AcDbEntity
  8
Capa 1
370
    15
100
AcDbSpline
210
0.0
220
0.0
230
1.0
 70
    24
 71
     3
 72
     8
 73
     4
 74
     0
 42
0.000000001
 43
0.0000000001
 40
0.0
 40
0.0
 40
0.0
 40
0.0
 40
1.0
 40
1.0
 40
1.0
 40
1.0
 10
-69.0217
 20
-176.5864
 30
0.0
 10
-69.0217
 20
-176.5864
 30
0.0
 10
-69.0217
 20
-182.5868
 30
0.0
 10
-69.0217
 20
-182.5868
 30
0.0
  0
SPLINE
  5
60
330
1F
100
AcDbEntity
  8
Capa 1
370
    15
100
AcDbSpline
210
0.0
220
0.0
230
1.0
 70
    24
 71
     3
 72
     8
 73
     4
 74
     0
 42
0.000000001
 43
0.0000000001
 40
0.0
 40
0.0
 40
0.0
 40
0.0
 40
1.0
 40
1.0
 40
1.0
 40
1.0
 10
-69.0217
 20
-182.9074
 30
0.0
 10
-69.0217
 20
-182.9074
 30
0.0
 10
-94.2834
 20
-182.9074
 30
0.0
 10
-94.2834
 20
-182.9074
 30
0.0
  0
SPLINE
  5
61
330
1F
100
AcDbEntity
  8
Capa 1
370
    15
100
AcDbSpline
210
0.0
220
0.0
230
1.0
 70
     8
 71
     3
 72
     8
 73
     4
 74
     0
 42
0.000000001
 43
0.0000000001
 40
0.0
 40
0.0
 40
0.0
 40
0.0
 40
1.0
 40
1.0
 40
1.0
 40
1.0
 10
-94.2834
 20
-182.9074
 30
0.0
 10
-95.0915
 20
-182.9074
 30
0.0
 10
-95.7543
 20
-183.5474
 30
0.0
 10
-95.7825
 20
-184.355
 30
0.0
  0
SPLINE
  5
62
330
1F
100
AcDbEntity
  8
Capa 1
370
    15
100
AcDbSpline
210
0.0
220
0.0
230
1.0
 70
    24
 71
     3
 72
     8
 73
     4
 74
     0
 42
0.000000001
 43
0.0000000001
 40
0.0
 40
0.0
 40
0.0
 40
0.0
 40
1.0
 40
1.0
 40
1.0
 40
1.0
 10
-95.8717
 20
-186.9074
 30
0.0
 10
-95.8717
 20
-186.9074
 30
0.0
 10
-95.7825
 20
-184.355
 30
0.0
 10
-95.7825
 20
-184.355
 30
0.0
  0
SPLINE
  5
63
330
1F
100
AcDbEntity
  8
Capa 1
370
    15
100
AcDbSpline
210
0.0
220
0.0
230
1.0
 70
    24
 71
     3
 72
     8
 73
     4
 74
     0
 42
0.000000001
 43
0.0000000001
 40
0.0
 40
0.0
 40
0.0
 40
0.0
 40
1.0
 40
1.0
 40
1.0
 40
1.0
 10
-95.8717
 20
-186.9074
 30
0.0
 10
-95.8717
 20
-186.9074
 30
0.0
 10
-105.8717
 20
-186.9074
 30
0.0
 10
-105.8717
 20
-186.9074
 30
0.0
  0
SPLINE
  5
64
330
1F
100
AcDbEntity
  8
Capa 1
370
    15
100
AcDbSpline
210
0.0
220
0.0
230
1.0
 70
    24
 71
     3
 72
     8
 73
     4
 74
     0
 42
0.000000001
 43
0.0000000001
 40
0.0
 40
0.0
 40
0.0
 40
0.0
 40
1.0
 40
1.0
 40
1.0
 40
1.0
 10
-105.9608
 20
-184.355
 30
0.0
 10
-105.9608
 20
-184.355
 30
0.0
 10
-105.8717
 20
-186.9074
 30
0.0
 10
-105.8717
 20
-186.9074
 30
0.0
  0
SPLINE
  5
65
330
1F
100
AcDbEntity
  8
Capa 1
370
    15
100
AcDbSpline
210
0.0
220
0.0
230
1.0
 70
     8
 71
     3
 72
     8
 73
     4
 74
     0
 42
0.000000001
 43
0.0000000001
 40
0.0
 40
0.0
 40
0.0
 40
0.0
 40
1.0
 40
1.0
 40
1.0
 40
1.0
 10
-105.9608
 20
-184.355
 30
0.0
 10
-105.989
 20
-183.5474
 30
0.0
 10
-106.6518
 20
-182.9074
 30
0.0
 10
-107.4599
 20
-182.9074
 30
0.0
  0
SPLINE
  5
66
330
1F
100
AcDbEntity
  8
Capa 1
370
    15
100
AcDbSpline
210
0.0
220
0.0
230
1.0
 70
    24
 71
     3
 72
     8
 73
     4
 74
     0
 42
0.000000001
 43
0.0000000001
 40
0.0
 40
0.0
 40
0.0
 40
0.0
 40
1.0
 40
1.0
 40
1.0
 40
1.0
 10
-107.4599
 20
-182.9074
 30
0.0
 10
-107.4599
 20
-182.9074
 30
0.0
 10
-124.4217
 20
-182.9074
 30
0.0
 10
-124.4217
 20
-182.9074
 30
0.0
  0
SPLINE
  5
67
330
1F
100
AcDbEntity
  8
Capa 1
370
    15
100
AcDbSpline
210
0.0
220
0.0
230
1.0
 70
    24
 71
     3
 72
     8
 73
     4
 74
     0
 42
0.000000001
 43
0.0000000001
 40
0.0
 40
0.0
 40
0.0
 40
0.0
 40
1.0
 40
1.0
 40
1.0
 40
1.0
 10
-124.4217
 20
-182.5602
 30
0.0
 10
-124.4217
 20
-182.5602
 30
0.0
 10
-124.4217
 20
-176.5864
 30
0.0
 10
-124.4217
 20
-176.5864
 30
0.0
  0
SPLINE
  5
68
330
1F
100
AcDbEntity
  8
Capa 1
370
    15
100
AcDbSpline
210
0.0
220
0.0
230
1.0
 70
     8
 71
     3
 72
     8
 73
     4
 74
     0
 42
0.000000001
 43
0.0000000001
 40
0.0
 40
0.0
 40
0.0
 40
0.0
 40
1.0
 40
1.0
 40
1.0
 40
1.0
 10
-124.4216
 20
-176.5864
 30
0.0
 10
-123.6999
 20
-176.4644
 30
0.0
 10
-123.1717
 20
-175.8393
 30
0.0
 10
-123.1717
 20
-175.1074
 30
0.0
  0
SPLINE
  5
69
330
1F
100
AcDbEntity
  8
Capa 1
370
    15
100
AcDbSpline
210
0.0
220
0.0
230
1.0
 70
    24
 71
     3
 72
     8
 73
     4
 74
     0
 42
0.000000001
 43
0.0000000001
 40
0.0
 40
0.0
 40
0.0
 40
0.0
 40
1.0
 40
1.0
 40
1.0
 40
1.0
 10
-123.1717
 20
-175.1074
 30
0.0
 10
-123.1717
 20
-175.1074
 30
0.0
 10
-123.1717
 20
-173.7074
 30
0.0
 10
-123.1717
 20
-173.7074
 30
0.0
  0
SPLINE
  5
6A
330
1F
100
AcDbEntity
  8
Capa 1
370
    15
100
AcDbSpline
210
0.0
220
0.0
230
1.0
 70
     8
 71
     3
 72
     8
 73
     4
 74
     0
 42
0.000000001
 43
0.0000000001
 40
0.0
 40
0.0
 40
0.0
 40
0.0
 40
1.0
 40
1.0
 40
1.0
 40
1.0
 10
-123.1716
 20
-173.7074
 30
0.0
 10
-123.1716
 20
-172.9754
 30
0.0
 10
-123.6999
 20
-172.3503
 30
0.0
 10
-124.4216
 20
-172.2283
 30
0.0
  0
SPLINE
  5
6B
330
1F
100
AcDbEntity
  8
Capa 1
370
    15
100
AcDbSpline
210
0.0
220
0.0
230
1.0
 70
    24
 71
     3
 72
     8
 73
     4
 74
     0
 42
0.000000001
 43
0.0000000001
 40
0.0
 40
0.0
 40
0.0
 40
0.0
 40
1.0
 40
1.0
 40
1.0
 40
1.0
 10
-124.4217
 20
-172.2283
 30
0.0
 10
-124.4217
 20
-172.2283
 30
0.0
 10
-124.5841
 20
-172.2283
 30
0.0
 10
-124.5841
 20
-172.2283
 30
0.0
  0
SPLINE
  5
6C
330
1F
100
AcDbEntity
  8
Capa 1
370
    15
100
AcDbSpline
210
0.0
220
0.0
230
1.0
 70
     8
 71
     3
 72
    12
 73
     8
 74
     0
 42
0.000000001
 43
0.0000000001
 40
0.0
 40
0.0
 40
0.0
 40
0.0
 40
0.3333333333333333
 40
0.3333333333333333
 40
0.3333333333333333
 40
0.3333333333333333
 40
1.0
 40
1.0
 40
1.0
 40
1.0
 10
-124.5841
 20
-172.2283
 30
0.0
 10
-124.8398
 20
-171.7247
 30
0.0
 10
-125.3568
 20
-171.4074
 30
0.0
 10
-125.9217
 20
-171.4074
 30
0.0
 10
-125.9217
 20
-171.4074
 30
0.0
 10
-126.4865
 20
-171.4074
 30
0.0
 10
-127.0035
 20
-171.7247
 30
0.0
 10
-127.2592
 20
-172.2283
 30
0.0
  0
SPLINE
  5
6D
330
1F
100
AcDbEntity
  8
Capa 1
370
    15
100
AcDbSpline
210
0.0
220
0.0
230
1.0
 70
    24
 71
     3
 72
     8
 73
     4
 74
     0
 42
0.000000001
 43
0.0000000001
 40
0.0
 40
0.0
 40
0.0
 40
0.0
 40
1.0
 40
1.0
 40
1.0
 40
1.0
 10
-127.2592
 20
-172.2283
 30
0.0
 10
-127.2592
 20
-172.2283
 30
0.0
 10
-127.4217
 20
-172.2283
 30
0.0
 10
-127.4217
 20
-172.2283
 30
0.0
  0
SPLINE
  5
6E
330
1F
100
AcDbEntity
  8
Capa 1
370
    15
100
AcDbSpline
210
0.0
220
0.0
230
1.0
 70
     8
 71
     3
 72
     8
 73
     4
 74
     0
 42
0.000000001
 43
0.0000000001
 40
0.0
 40
0.0
 40
0.0
 40
0.0
 40
1.0
 40
1.0
 40
1.0
 40
1.0
 10
-127.4217
 20
-172.2283
 30
0.0
 10
-128.1434
 20
-172.3503
 30
0.0
 10
-128.6717
 20
-172.9754
 30
0.0
 10
-128.6717
 20
-173.7074
 30
0.0
  0
SPLINE
  5
6F
330
1F
100
AcDbEntity
  8
Capa 1
370
    15
100
AcDbSpline
210
0.0
220
0.0
230
1.0
 70
    24
 71
     3
 72
     8
 73
     4
 74
     0
 42
0.000000001
 43
0.0000000001
 40
0.0
 40
0.0
 40
0.0
 40
0.0
 40
1.0
 40
1.0
 40
1.0
 40
1.0
 10
-128.6717
 20
-173.7074
 30
0.0
 10
-128.6717
 20
-173.7074
 30
0.0
 10
-128.6717
 20
-175.1074
 30
0.0
 10
-128.6717
 20
-175.1074
 30
0.0
  0
SPLINE
  5
70
330
1F
100
AcDbEntity
  8
Capa 1
370
    15
100
AcDbSpline
210
0.0
220
0.0
230
1.0
 70
     8
 71
     3
 72
     8
 73
     4
 74
     0
 42
0.000000001
 43
0.0000000001
 40
0.0
 40
0.0
 40
0.0
 40
0.0
 40
1.0
 40
1.0
 40
1.0
 40
1.0
 10
-128.6716
 20
-175.1074
 30
0.0
 10
-128.6716
 20
-175.8393
 30
0.0
 10
-128.1434
 20
-176.4644
 30
0.0
 10
-127.4217
 20
-176.5864
 30
0.0
  0
SPLINE
  5
71
330
1F
100
AcDbEntity
  8
Capa 1
370
    15
100
AcDbSpline
210
0.0
220
0.0
230
1.0
 70
    24
 71
     3
 72
     8
 73
     4
 74
     0
 42
0.000000001
 43
0.0000000001
 40
0.0
 40
0.0
 40
0.0
 40
0.0
 40
1.0
 40
1.0
 40
1.0
 40
1.0
 10
-127.4217
 20
-176.5864
 30
0.0
 10
-127.4217
 20
-176.5864
 30
0.0
 10
-127.4217
 20
-182.5602
 30
0.0
 10
-127.4217
 20
-182.5602
 30
0.0
  0
SPLINE
  5
72
330
1F
100
AcDbEntity
  8
Capa 1
370
    15
100
AcDbSpline
210
0.0
220
0.0
230
1.0
 70
    24
 71
     3
 72
     8
 73
     4
 74
     0
 42
0.000000001
 43
0.0000000001
 40
0.0
 40
0.0
 40
0.0
 40
0.0
 40
1.0
 40
1.0
 40
1.0
 40
1.0
 10
-127.4217
 20
-182.9074
 30
0.0
 10
-127.4217
 20
-182.9074
 30
0.0
 10
-166.2217
 20
-182.9074
 30
0.0
 10
-166.2217
 20
-182.9074
 30
0.0
  0
SPLINE
  5
73
330
1F
100
AcDbEntity
  8
Capa 1
370
    15
100
AcDbSpline
210
0.0
220
0.0
230
1.0
 70
     8
 71
     3
 72
    12
 73
     8
 74
     0
 42
0.000000001
 43
0.0000000001
 40
0.0
 40
0.0
 40
0.0
 40
0.0
 40
0.3333333333333333
 40
0.3333333333333333
 40
0.3333333333333333
 40
0.3333333333333333
 40
1.0
 40
1.0
 40
1.0
 40
1.0
 10
-172.2217
 20
-176.9074
 30
0.0
 10
-172.2217
 20
-178.4986
 30
0.0
 10
-171.5895
 20
-180.0248
 30
0.0
 10
-170.4643
 20
-181.15
 30
0.0
 10
-170.4643
 20
-181.15
 30
0.0
 10
-169.3391
 20
-182.2752
 30
0.0
 10
-167.8129
 20
-182.9073
 30
0.0
 10
-166.2217
 20
-182.9073
 30
0.0
  0
SPLINE
  5
74
330
1F
100
AcDbEntity
  8
Capa 1
370
    15
100
AcDbSpline
210
0.0
220
0.0
230
1.0
 70
    24
 71
     3
 72
     8
 73
     4
 74
     0
 42
0.000000001
 43
0.0000000001
 40
0.0
 40
0.0
 40
0.0
 40
0.0
 40
1.0
 40
1.0
 40
1.0
 40
1.0
 10
-172.2217
 20
-176.9074
 30
0.0
 10
-172.2217
 20
-176.9074
 30
0.0
 10
-172.2217
 20
-141.6074
 30
0.0
 10
-172.2217
 20
-141.6074
 30
0.0
  0
SPLINE
  5
75
330
1F
100
AcDbEntity
  8
Capa 1
370
    15
100
AcDbSpline
210
0.0
220
0.0
230
1.0
 70
    24
 71
     3
 72
     8
 73
     4
 74
     0
 42
0.000000001
 43
0.0000000001
 40
0.0
 40
0.0
 40
0.0
 40
0.0
 40
1.0
 40
1.0
 40
1.0
 40
1.0
 10
-172.0045
 20
-141.6074
 30
0.0
 10
-172.0045
 20
-141.6074
 30
0.0
 10
-165.9007
 20
-141.6074
 30
0.0
 10
-165.9007
 20
-141.6074
 30
0.0
  0
SPLINE
  5
76
330
1F
100
AcDbEntity
  8
Capa 1
370
    15
100
AcDbSpline
210
0.0
220
0.0
230
1.0
 70
     8
 71
     3
 72
     8
 73
     4
 74
     0
 42
0.000000001
 43
0.0000000001
 40
0.0
 40
0.0
 40
0.0
 40
0.0
 40
1.0
 40
1.0
 40
1.0
 40
1.0
 10
-165.9007
 20
-141.6074
 30
0.0
 10
-165.7787
 20
-142.3291
 30
0.0
 10
-165.1536
 20
-142.8573
 30
0.0
 10
-164.4217
 20
-142.8573
 30
0.0
  0
SPLINE
  5
77
330
1F
100
AcDbEntity
  8
Capa 1
370
    15
100
AcDbSpline
210
0.0
220
0.0
230
1.0
 70
    24
 71
     3
 72
     8
 73
     4
 74
     0
 42
0.000000001
 43
0.0000000001
 40
0.0
 40
0.0
 40
0.0
 40
0.0
 40
1.0
 40
1.0
 40
1.0
 40
1.0
 10
-164.4217
 20
-142.8574
 30
0.0
 10
-164.4217
 20
-142.8574
 30
0.0
 10
-163.0217
 20
-142.8574
 30
0.0
 10
-163.0217
 20
-142.8574
 30
0.0
  0
SPLINE
  5
78
330
1F
100
AcDbEntity
  8
Capa 1
370
    15
100
AcDbSpline
210
0.0
220
0.0
230
1.0
 70
     8
 71
     3
 72
     8
 73
     4
 74
     0
 42
0.000000001
 43
0.0000000001
 40
0.0
 40
0.0
 40
0.0
 40
0.0
 40
1.0
 40
1.0
 40
1.0
 40
1.0
 10
-163.0217
 20
-142.8573
 30
0.0
 10
-162.2897
 20
-142.8573
 30
0.0
 10
-161.6646
 20
-142.3291
 30
0.0
 10
-161.5426
 20
-141.6074
 30
0.0
  0
SPLINE
  5
79
330
1F
100
AcDbEntity
  8
Capa 1
370
    15
100
AcDbSpline
210
0.0
220
0.0
230
1.0
 70
    24
 71
     3
 72
     8
 73
     4
 74
     0
 42
0.000000001
 43
0.0000000001
 40
0.0
 40
0.0
 40
0.0
 40
0.0
 40
1.0
 40
1.0
 40
1.0
 40
1.0
 10
-161.5426
 20
-141.6074
 30
0.0
 10
-161.5426
 20
-141.6074
 30
0.0
 10
-161.5426
 20
-141.4449
 30
0.0
 10
-161.5426
 20
-141.4449
 30
0.0
  0
SPLINE
  5
7A
330
1F
100
AcDbEntity
  8
Capa 1
370
    15
100
AcDbSpline
210
0.0
220
0.0
230
1.0
 70
     8
 71
     3
 72
    12
 73
     8
 74
     0
 42
0.000000001
 43
0.0000000001
 40
0.0
 40
0.0
 40
0.0
 40
0.0
 40
0.3333333333333333
 40
0.3333333333333333
 40
0.3333333333333333
 40
0.3333333333333333
 40
1.0
 40
1.0
 40
1.0
 40
1.0
 10
-161.5426
 20
-141.4449
 30
0.0
 10
-161.039
 20
-141.1892
 30
0.0
 10
-160.7217
 20
-140.6722
 30
0.0
 10
-160.7217
 20
-140.1074
 30
0.0
 10
-160.7217
 20
-140.1074
 30
0.0
 10
-160.7216
 20
-139.5425
 30
0.0
 10
-161.039
 20
-139.0255
 30
0.0
 10
-161.5426
 20
-138.7698
 30
0.0
  0
SPLINE
  5
7B
330
1F
100
AcDbEntity
  8
Capa 1
370
    15
100
AcDbSpline
210
0.0
220
0.0
230
1.0
 70
    24
 71
     3
 72
     8
 73
     4
 74
     0
 42
0.000000001
 43
0.0000000001
 40
0.0
 40
0.0
 40
0.0
 40
0.0
 40
1.0
 40
1.0
 40
1.0
 40
1.0
 10
-161.5426
 20
-138.7698
 30
0.0
 10
-161.5426
 20
-138.7698
 30
0.0
 10
-161.5426
 20
-138.6074
 30
0.0
 10
-161.5426
 20
-138.6074
 30
0.0
  0
SPLINE
  5
7C
330
1F
100
AcDbEntity
  8
Capa 1
370
    15
100
AcDbSpline
210
0.0
220
0.0
230
1.0
 70
     8
 71
     3
 72
     8
 73
     4
 74
     0
 42
0.000000001
 43
0.0000000001
 40
0.0
 40
0.0
 40
0.0
 40
0.0
 40
1.0
 40
1.0
 40
1.0
 40
1.0
 10
-161.5426
 20
-138.6073
 30
0.0
 10
-161.6646
 20
-137.8856
 30
0.0
 10
-162.2897
 20
-137.3574
 30
0.0
 10
-163.0217
 20
-137.3574
 30
0.0
  0
SPLINE
  5
7D
330
1F
100
AcDbEntity
  8
Capa 1
370
    15
100
AcDbSpline
210
0.0
220
0.0
230
1.0
 70
    24
 71
     3
 72
     8
 73
     4
 74
     0
 42
0.000000001
 43
0.0000000001
 40
0.0
 40
0.0
 40
0.0
 40
0.0
 40
1.0
 40
1.0
 40
1.0
 40
1.0
 10
-163.0217
 20
-137.3574
 30
0.0
 10
-163.0217
 20
-137.3574
 30
0.0
 10
-164.4217
 20
-137.3574
 30
0.0
 10
-164.4217
 20
-137.3574
 30
0.0
  0
SPLINE
  5
7E
330
1F
100
AcDbEntity
  8
Capa 1
370
    15
100
AcDbSpline
210
0.0
220
0.0
230
1.0
 70
     8
 71
     3
 72
     8
 73
     4
 74
     0
 42
0.000000001
 43
0.0000000001
 40
0.0
 40
0.0
 40
0.0
 40
0.0
 40
1.0
 40
1.0
 40
1.0
 40
1.0
 10
-164.4217
 20
-137.3574
 30
0.0
 10
-165.1536
 20
-137.3574
 30
0.0
 10
-165.7787
 20
-137.8856
 30
0.0
 10
-165.9007
 20
-138.6073
 30
0.0
  0
SPLINE
  5
7F
330
1F
100
AcDbEntity
  8
Capa 1
370
    15
100
AcDbSpline
210
0.0
220
0.0
230
1.0
 70
    24
 71
     3
 72
     8
 73
     4
 74
     0
 42
0.000000001
 43
0.0000000001
 40
0.0
 40
0.0
 40
0.0
 40
0.0
 40
1.0
 40
1.0
 40
1.0
 40
1.0
 10
-165.9007
 20
-138.6074
 30
0.0
 10
-165.9007
 20
-138.6074
 30
0.0
 10
-171.9714
 20
-138.6074
 30
0.0
 10
-171.9714
 20
-138.6074
 30
0.0
  0
SPLINE
  5
80
330
1F
100
AcDbEntity
  8
Capa 1
370
    15
100
AcDbSpline
210
0.0
220
0.0
230
1.0
 70
    24
 71
     3
 72
     8
 73
     4
 74
     0
 42
0.000000001
 43
0.0000000001
 40
0.0
 40
0.0
 40
0.0
 40
0.0
 40
1.0
 40
1.0
 40
1.0
 40
1.0
 10
-172.2217
 20
-138.6074
 30
0.0
 10
-172.2217
 20
-138.6074
 30
0.0
 10
-172.2217
 20
-121.6956
 30
0.0
 10
-172.2217
 20
-121.6956
 30
0.0
  0
SPLINE
  5
81
330
1F
100
AcDbEntity
  8
Capa 1
370
    15
100
AcDbSpline
210
0.0
220
0.0
230
1.0
 70
     8
 71
     3
 72
     8
 73
     4
 74
     0
 42
0.000000001
 43
0.0000000001
 40
0.0
 40
0.0
 40
0.0
 40
0.0
 40
1.0
 40
1.0
 40
1.0
 40
1.0
 10
-172.2216
 20
-121.6956
 30
0.0
 10
-172.2216
 20
-120.8875
 30
0.0
 10
-172.8617
 20
-120.2247
 30
0.0
 10
-173.6693
 20
-120.1965
 30
0.0
  0
SPLINE
  5
82
330
1F
100
AcDbEntity
  8
Capa 1
370
    15
100
AcDbSpline
210
0.0
220
0.0
230
1.0
 70
    24
 71
     3
 72
     8
 73
     4
 74
     0
 42
0.000000001
 43
0.0000000001
 40
0.0
 40
0.0
 40
0.0
 40
0.0
 40
1.0
 40
1.0
 40
1.0
 40
1.0
 10
-176.2217
 20
-120.1074
 30
0.0
 10
-176.2217
 20
-120.1074
 30
0.0
 10
-173.6693
 20
-120.1965
 30
0.0
 10
-173.6693
 20
-120.1965
 30
0.0
  0
SPLINE
  5
83
330
1F
100
AcDbEntity
  8
Capa 1
370
    15
100
AcDbSpline
210
0.0
220
0.0
230
1.0
 70
    24
 71
     3
 72
     8
 73
     4
 74
     0
 42
0.000000001
 43
0.0000000001
 40
0.0
 40
0.0
 40
0.0
 40
0.0
 40
1.0
 40
1.0
 40
1.0
 40
1.0
 10
-176.2217
 20
-120.1074
 30
0.0
 10
-176.2217
 20
-120.1074
 30
0.0
 10
-176.2217
 20
-110.1074
 30
0.0
 10
-176.2217
 20
-110.1074
 30
0.0
  0
SPLINE
  5
84
330
1F
100
AcDbEntity
  8
Capa 1
370
    15
100
AcDbSpline
210
0.0
220
0.0
230
1.0
 70
    24
 71
     3
 72
     8
 73
     4
 74
     0
 42
0.000000001
 43
0.0000000001
 40
0.0
 40
0.0
 40
0.0
 40
0.0
 40
1.0
 40
1.0
 40
1.0
 40
1.0
 10
-173.6693
 20
-110.0182
 30
0.0
 10
-173.6693
 20
-110.0182
 30
0.0
 10
-176.2217
 20
-110.1074
 30
0.0
 10
-176.2217
 20
-110.1074
 30
0.0
  0
SPLINE
  5
85
330
1F
100
AcDbEntity
  8
Capa 1
370
    15
100
AcDbSpline
210
0.0
220
0.0
230
1.0
 70
     8
 71
     3
 72
     8
 73
     4
 74
     0
 42
0.000000001
 43
0.0000000001
 40
0.0
 40
0.0
 40
0.0
 40
0.0
 40
1.0
 40
1.0
 40
1.0
 40
1.0
 10
-173.6693
 20
-110.0182
 30
0.0
 10
-172.8617
 20
-109.99
 30
0.0
 10
-172.2217
 20
-109.3272
 30
0.0
 10
-172.2217
 20
-108.5191
 30
0.0
  0
SPLINE
  5
86
330
1F
100
AcDbEntity
  8
Capa 1
370
    15
100
AcDbSpline
210
0.0
220
0.0
230
1.0
 70
     8
 71
     3
 72
     8
 73
     4
 74
     0
 42
0.000000001
 43
0.0000000001
 40
0.0
 40
0.0
 40
0.0
 40
0.0
 40
1.0
 40
1.0
 40
1.0
 40
1.0
 10
-172.2217
 20
-30.6959
 30
0.0
 10
-172.2217
 20
-29.8878
 30
0.0
 10
-172.8617
 20
-29.225
 30
0.0
 10
-173.6693
 20
-29.1968
 30
0.0
  0
SPLINE
  5
87
330
1F
100
AcDbEntity
  8
Capa 1
370
    15
100
AcDbSpline
210
0.0
220
0.0
230
1.0
 70
    24
 71
     3
 72
     8
 73
     4
 74
     0
 42
0.000000001
 43
0.0000000001
 40
0.0
 40
0.0
 40
0.0
 40
0.0
 40
1.0
 40
1.0
 40
1.0
 40
1.0
 10
-176.2217
 20
-29.1077
 30
0.0
 10
-176.2217
 20
-29.1077
 30
0.0
 10
-173.6693
 20
-29.1968
 30
0.0
 10
-173.6693
 20
-29.1968
 30
0.0
  0
SPLINE
  5
88
330
1F
100
AcDbEntity
  8
Capa 1
370
    15
100
AcDbSpline
210
0.0
220
0.0
230
1.0
 70
    24
 71
     3
 72
     8
 73
     4
 74
     0
 42
0.000000001
 43
0.0000000001
 40
0.0
 40
0.0
 40
0.0
 40
0.0
 40
1.0
 40
1.0
 40
1.0
 40
1.0
 10
-176.2217
 20
-29.1077
 30
0.0
 10
-176.2217
 20
-29.1077
 30
0.0
 10
-176.2217
 20
-19.1077
 30
0.0
 10
-176.2217
 20
-19.1077
 30
0.0
  0
SPLINE
  5
89
330
1F
100
AcDbEntity
  8
Capa 1
370
    15
100
AcDbSpline
210
0.0
220
0.0
230
1.0
 70
    24
 71
     3
 72
     8
 73
     4
 74
     0
 42
0.000000001
 43
0.0000000001
 40
0.0
 40
0.0
 40
0.0
 40
0.0
 40
1.0
 40
1.0
 40
1.0
 40
1.0
 10
-173.6693
 20
-19.0185
 30
0.0
 10
-173.6693
 20
-19.0185
 30
0.0
 10
-176.2217
 20
-19.1077
 30
0.0
 10
-176.2217
 20
-19.1077
 30
0.0
  0
SPLINE
  5
8A
330
1F
100
AcDbEntity
  8
Capa 1
370
    15
100
AcDbSpline
210
0.0
220
0.0
230
1.0
 70
     8
 71
     3
 72
     8
 73
     4
 74
     0
 42
0.000000001
 43
0.0000000001
 40
0.0
 40
0.0
 40
0.0
 40
0.0
 40
1.0
 40
1.0
 40
1.0
 40
1.0
 10
-173.6693
 20
-19.0185
 30
0.0
 10
-172.8617
 20
-18.9903
 30
0.0
 10
-172.2217
 20
-18.3275
 30
0.0
 10
-172.2217
 20
-17.5194
 30
0.0
  0
SPLINE
  5
8B
330
1F
100
AcDbEntity
  8
Capa 1
370
    15
100
AcDbSpline
210
0.0
220
0.0
230
1.0
 70
    24
 71
     3
 72
     8
 73
     4
 74
     0
 42
0.000000001
 43
0.0000000001
 40
0.0
 40
0.0
 40
0.0
 40
0.0
 40
1.0
 40
1.0
 40
1.0
 40
1.0
 10
-172.2217
 20
-17.5194
 30
0.0
 10
-172.2217
 20
-17.5194
 30
0.0
 10
-172.2217
 20
-0.6077
 30
0.0
 10
-172.2217
 20
-0.6077
 30
0.0
  0
SPLINE
  5
8C
330
1F
100
AcDbEntity
  8
Capa 1
370
    15
100
AcDbSpline
210
0.0
220
0.0
230
1.0
 70
    24
 71
     3
 72
     8
 73
     4
 74
     0
 42
0.000000001
 43
0.0000000001
 40
0.0
 40
0.0
 40
0.0
 40
0.0
 40
1.0
 40
1.0
 40
1.0
 40
1.0
 10
-171.9058
 20
-0.6077
 30
0.0
 10
-171.9058
 20
-0.6077
 30
0.0
 10
-165.9007
 20
-0.6077
 30
0.0
 10
-165.9007
 20
-0.6077
 30
0.0
  0
SPLINE
  5
8D
330
1F
100
AcDbEntity
  8
Capa 1
370
    15
100
AcDbSpline
210
0.0
220
0.0
230
1.0
 70
     8
 71
     3
 72
     8
 73
     4
 74
     0
 42
0.000000001
 43
0.0000000001
 40
0.0
 40
0.0
 40
0.0
 40
0.0
 40
1.0
 40
1.0
 40
1.0
 40
1.0
 10
-165.9007
 20
-0.6077
 30
0.0
 10
-165.7787
 20
-1.3294
 30
0.0
 10
-165.1536
 20
-1.8576
 30
0.0
 10
-164.4217
 20
-1.8576
 30
0.0
  0
SPLINE
  5
8E
330
1F
100
AcDbEntity
  8
Capa 1
370
    15
100
AcDbSpline
210
0.0
220
0.0
230
1.0
 70
    24
 71
     3
 72
     8
 73
     4
 74
     0
 42
0.000000001
 43
0.0000000001
 40
0.0
 40
0.0
 40
0.0
 40
0.0
 40
1.0
 40
1.0
 40
1.0
 40
1.0
 10
-164.4217
 20
-1.8577
 30
0.0
 10
-164.4217
 20
-1.8577
 30
0.0
 10
-163.0217
 20
-1.8577
 30
0.0
 10
-163.0217
 20
-1.8577
 30
0.0
  0
SPLINE
  5
8F
330
1F
100
AcDbEntity
  8
Capa 1
370
    15
100
AcDbSpline
210
0.0
220
0.0
230
1.0
 70
     8
 71
     3
 72
     8
 73
     4
 74
     0
 42
0.000000001
 43
0.0000000001
 40
0.0
 40
0.0
 40
0.0
 40
0.0
 40
1.0
 40
1.0
 40
1.0
 40
1.0
 10
-163.0217
 20
-1.8576
 30
0.0
 10
-162.2897
 20
-1.8576
 30
0.0
 10
-161.6646
 20
-1.3294
 30
0.0
 10
-161.5426
 20
-0.6077
 30
0.0
  0
SPLINE
  5
90
330
1F
100
AcDbEntity
  8
Capa 1
370
    15
100
AcDbSpline
210
0.0
220
0.0
230
1.0
 70
    24
 71
     3
 72
     8
 73
     4
 74
     0
 42
0.000000001
 43
0.0000000001
 40
0.0
 40
0.0
 40
0.0
 40
0.0
 40
1.0
 40
1.0
 40
1.0
 40
1.0
 10
-161.5426
 20
-0.6077
 30
0.0
 10
-161.5426
 20
-0.6077
 30
0.0
 10
-161.5426
 20
-0.4452
 30
0.0
 10
-161.5426
 20
-0.4452
 30
0.0
  0
SPLINE
  5
91
330
1F
100
AcDbEntity
  8
Capa 1
370
    15
100
AcDbSpline
210
0.0
220
0.0
230
1.0
 70
     8
 71
     3
 72
    12
 73
     8
 74
     0
 42
0.000000001
 43
0.0000000001
 40
0.0
 40
0.0
 40
0.0
 40
0.0
 40
0.3333333333333333
 40
0.3333333333333333
 40
0.3333333333333333
 40
0.3333333333333333
 40
1.0
 40
1.0
 40
1.0
 40
1.0
 10
-161.5426
 20
-0.4452
 30
0.0
 10
-161.039
 20
-0.1895
 30
0.0
 10
-160.7217
 20
0.3275
 30
0.0
 10
-160.7217
 20
0.8923
 30
0.0
 10
-160.7217
 20
0.8923
 30
0.0
 10
-160.7216
 20
1.4571
 30
0.0
 10
-161.039
 20
1.9741
 30
0.0
 10
-161.5426
 20
2.2298
 30
0.0
  0
SPLINE
  5
92
330
1F
100
AcDbEntity
  8
Capa 1
370
    15
100
AcDbSpline
210
0.0
220
0.0
230
1.0
 70
    24
 71
     3
 72
     8
 73
     4
 74
     0
 42
0.000000001
 43
0.0000000001
 40
0.0
 40
0.0
 40
0.0
 40
0.0
 40
1.0
 40
1.0
 40
1.0
 40
1.0
 10
-161.5426
 20
2.2298
 30
0.0
 10
-161.5426
 20
2.2298
 30
0.0
 10
-161.5426
 20
2.3923
 30
0.0
 10
-161.5426
 20
2.3923
 30
0.0
  0
SPLINE
  5
93
330
1F
100
AcDbEntity
  8
Capa 1
370
    15
100
AcDbSpline
210
0.0
220
0.0
230
1.0
 70
     8
 71
     3
 72
     8
 73
     4
 74
     0
 42
0.000000001
 43
0.0000000001
 40
0.0
 40
0.0
 40
0.0
 40
0.0
 40
1.0
 40
1.0
 40
1.0
 40
1.0
 10
-161.5426
 20
2.3923
 30
0.0
 10
-161.6646
 20
3.114
 30
0.0
 10
-162.2897
 20
3.6422
 30
0.0
 10
-163.0217
 20
3.6422
 30
0.0
  0
SPLINE
  5
94
330
1F
100
AcDbEntity
  8
Capa 1
370
    15
100
AcDbSpline
210
0.0
220
0.0
230
1.0
 70
    24
 71
     3
 72
     8
 73
     4
 74
     0
 42
0.000000001
 43
0.0000000001
 40
0.0
 40
0.0
 40
0.0
 40
0.0
 40
1.0
 40
1.0
 40
1.0
 40
1.0
 10
-163.0217
 20
3.6423
 30
0.0
 10
-163.0217
 20
3.6423
 30
0.0
 10
-164.4217
 20
3.6423
 30
0.0
 10
-164.4217
 20
3.6423
 30
0.0
  0
SPLINE
  5
95
330
1F
100
AcDbEntity
  8
Capa 1
370
    15
100
AcDbSpline
210
0.0
220
0.0
230
1.0
 70
     8
 71
     3
 72
     8
 73
     4
 74
     0
 42
0.000000001
 43
0.0000000001
 40
0.0
 40
0.0
 40
0.0
 40
0.0
 40
1.0
 40
1.0
 40
1.0
 40
1.0
 10
-164.4217
 20
3.6422
 30
0.0
 10
-165.1536
 20
3.6422
 30
0.0
 10
-165.7787
 20
3.114
 30
0.0
 10
-165.9007
 20
2.3923
 30
0.0
  0
SPLINE
  5
96
330
1F
100
AcDbEntity
  8
Capa 1
370
    15
100
AcDbSpline
210
0.0
220
0.0
230
1.0
 70
    24
 71
     3
 72
     8
 73
     4
 74
     0
 42
0.000000001
 43
0.0000000001
 40
0.0
 40
0.0
 40
0.0
 40
0.0
 40
1.0
 40
1.0
 40
1.0
 40
1.0
 10
-165.9007
 20
2.3923
 30
0.0
 10
-165.9007
 20
2.3923
 30
0.0
 10
-171.9323
 20
2.3923
 30
0.0
 10
-171.9323
 20
2.3923
 30
0.0
  0
SPLINE
  5
97
330
1F
100
AcDbEntity
  8
Capa 1
370
    15
100
AcDbSpline
210
0.0
220
0.0
230
1.0
 70
    24
 71
     3
 72
     8
 73
     4
 74
     0
 42
0.000000001
 43
0.0000000001
 40
0.0
 40
0.0
 40
0.0
 40
0.0
 40
1.0
 40
1.0
 40
1.0
 40
1.0
 10
-172.2217
 20
2.3923
 30
0.0
 10
-172.2217
 20
2.3923
 30
0.0
 10
-172.2217
 20
19.304
 30
0.0
 10
-172.2217
 20
19.304
 30
0.0
  0
SPLINE
  5
98
330
1F
100
AcDbEntity
  8
Capa 1
370
    15
100
AcDbSpline
210
0.0
220
0.0
230
1.0
 70
     8
 71
     3
 72
     8
 73
     4
 74
     0
 42
0.000000001
 43
0.0000000001
 40
0.0
 40
0.0
 40
0.0
 40
0.0
 40
1.0
 40
1.0
 40
1.0
 40
1.0
 10
-172.2217
 20
19.304
 30
0.0
 10
-172.2217
 20
20.1121
 30
0.0
 10
-172.8617
 20
20.7749
 30
0.0
 10
-173.6693
 20
20.8031
 30
0.0
  0
SPLINE
  5
99
330
1F
100
AcDbEntity
  8
Capa 1
370
    15
100
AcDbSpline
210
0.0
220
0.0
230
1.0
 70
    24
 71
     3
 72
     8
 73
     4
 74
     0
 42
0.000000001
 43
0.0000000001
 40
0.0
 40
0.0
 40
0.0
 40
0.0
 40
1.0
 40
1.0
 40
1.0
 40
1.0
 10
-176.2217
 20
20.8923
 30
0.0
 10
-176.2217
 20
20.8923
 30
0.0
 10
-173.6693
 20
20.8031
 30
0.0
 10
-173.6693
 20
20.8031
 30
0.0
  0
SPLINE
  5
9A
330
1F
100
AcDbEntity
  8
Capa 1
370
    15
100
AcDbSpline
210
0.0
220
0.0
230
1.0
 70
    24
 71
     3
 72
     8
 73
     4
 74
     0
 42
0.000000001
 43
0.0000000001
 40
0.0
 40
0.0
 40
0.0
 40
0.0
 40
1.0
 40
1.0
 40
1.0
 40
1.0
 10
-176.2217
 20
20.8923
 30
0.0
 10
-176.2217
 20
20.8923
 30
0.0
 10
-176.2217
 20
30.8923
 30
0.0
 10
-176.2217
 20
30.8923
 30
0.0
  0
SPLINE
  5
9B
330
1F
100
AcDbEntity
  8
Capa 1
370
    15
100
AcDbSpline
210
0.0
220
0.0
230
1.0
 70
    24
 71
     3
 72
     8
 73
     4
 74
     0
 42
0.000000001
 43
0.0000000001
 40
0.0
 40
0.0
 40
0.0
 40
0.0
 40
1.0
 40
1.0
 40
1.0
 40
1.0
 10
-173.6693
 20
30.9814
 30
0.0
 10
-173.6693
 20
30.9814
 30
0.0
 10
-176.2217
 20
30.8923
 30
0.0
 10
-176.2217
 20
30.8923
 30
0.0
  0
SPLINE
  5
9C
330
1F
100
AcDbEntity
  8
Capa 1
370
    15
100
AcDbSpline
210
0.0
220
0.0
230
1.0
 70
     8
 71
     3
 72
     8
 73
     4
 74
     0
 42
0.000000001
 43
0.0000000001
 40
0.0
 40
0.0
 40
0.0
 40
0.0
 40
1.0
 40
1.0
 40
1.0
 40
1.0
 10
-173.6693
 20
30.9814
 30
0.0
 10
-172.8617
 20
31.0096
 30
0.0
 10
-172.2217
 20
31.6724
 30
0.0
 10
-172.2217
 20
32.4805
 30
0.0
  0
SPLINE
  5
9D
330
1F
100
AcDbEntity
  8
Capa 1
370
    15
100
AcDbSpline
210
0.0
220
0.0
230
1.0
 70
     8
 71
     3
 72
     8
 73
     4
 74
     0
 42
0.000000001
 43
0.0000000001
 40
0.0
 40
0.0
 40
0.0
 40
0.0
 40
1.0
 40
1.0
 40
1.0
 40
1.0
 10
-172.2216
 20
110.3044
 30
0.0
 10
-172.2216
 20
111.1125
 30
0.0
 10
-172.8617
 20
111.7753
 30
0.0
 10
-173.6693
 20
111.8035
 30
0.0
  0
SPLINE
  5
9E
330
1F
100
AcDbEntity
  8
Capa 1
370
    15
100
AcDbSpline
210
0.0
220
0.0
230
1.0
 70
    24
 71
     3
 72
     8
 73
     4
 74
     0
 42
0.000000001
 43
0.0000000001
 40
0.0
 40
0.0
 40
0.0
 40
0.0
 40
1.0
 40
1.0
 40
1.0
 40
1.0
 10
-176.2217
 20
111.8927
 30
0.0
 10
-176.2217
 20
111.8927
 30
0.0
 10
-173.6693
 20
111.8035
 30
0.0
 10
-173.6693
 20
111.8035
 30
0.0
  0
SPLINE
  5
9F
330
1F
100
AcDbEntity
  8
Capa 1
370
    15
100
AcDbSpline
210
0.0
220
0.0
230
1.0
 70
    24
 71
     3
 72
     8
 73
     4
 74
     0
 42
0.000000001
 43
0.0000000001
 40
0.0
 40
0.0
 40
0.0
 40
0.0
 40
1.0
 40
1.0
 40
1.0
 40
1.0
 10
-176.2217
 20
111.8927
 30
0.0
 10
-176.2217
 20
111.8927
 30
0.0
 10
-176.2217
 20
121.8927
 30
0.0
 10
-176.2217
 20
121.8927
 30
0.0
  0
SPLINE
  5
A0
330
1F
100
AcDbEntity
  8
Capa 1
370
    15
100
AcDbSpline
210
0.0
220
0.0
230
1.0
 70
    24
 71
     3
 72
     8
 73
     4
 74
     0
 42
0.000000001
 43
0.0000000001
 40
0.0
 40
0.0
 40
0.0
 40
0.0
 40
1.0
 40
1.0
 40
1.0
 40
1.0
 10
-173.6693
 20
121.9818
 30
0.0
 10
-173.6693
 20
121.9818
 30
0.0
 10
-176.2217
 20
121.8927
 30
0.0
 10
-176.2217
 20
121.8927
 30
0.0
  0
SPLINE
  5
A1
330
1F
100
AcDbEntity
  8
Capa 1
370
    15
100
AcDbSpline
210
0.0
220
0.0
230
1.0
 70
     8
 71
     3
 72
     8
 73
     4
 74
     0
 42
0.000000001
 43
0.0000000001
 40
0.0
 40
0.0
 40
0.0
 40
0.0
 40
1.0
 40
1.0
 40
1.0
 40
1.0
 10
-173.6693
 20
121.9818
 30
0.0
 10
-172.8617
 20
122.01
 30
0.0
 10
-172.2217
 20
122.6728
 30
0.0
 10
-172.2217
 20
123.4809
 30
0.0
  0
SPLINE
  5
A2
330
1F
100
AcDbEntity
  8
Capa 1
370
    15
100
AcDbSpline
210
0.0
220
0.0
230
1.0
 70
    24
 71
     3
 72
     8
 73
     4
 74
     0
 42
0.000000001
 43
0.0000000001
 40
0.0
 40
0.0
 40
0.0
 40
0.0
 40
1.0
 40
1.0
 40
1.0
 40
1.0
 10
-172.2217
 20
123.4809
 30
0.0
 10
-172.2217
 20
123.4809
 30
0.0
 10
-172.2217
 20
140.3927
 30
0.0
 10
-172.2217
 20
140.3927
 30
0.0
  0
SPLINE
  5
A3
330
1F
100
AcDbEntity
  8
Capa 1
370
    15
100
AcDbSpline
210
0.0
220
0.0
230
1.0
 70
    24
 71
     3
 72
     8
 73
     4
 74
     0
 42
0.000000001
 43
0.0000000001
 40
0.0
 40
0.0
 40
0.0
 40
0.0
 40
1.0
 40
1.0
 40
1.0
 40
1.0
 10
-171.9329
 20
140.3927
 30
0.0
 10
-171.9329
 20
140.3927
 30
0.0
 10
-165.9007
 20
140.3927
 30
0.0
 10
-165.9007
 20
140.3927
 30
0.0
  0
SPLINE
  5
A4
330
1F
100
AcDbEntity
  8
Capa 1
370
    15
100
AcDbSpline
210
0.0
220
0.0
230
1.0
 70
     8
 71
     3
 72
     8
 73
     4
 74
     0
 42
0.000000001
 43
0.0000000001
 40
0.0
 40
0.0
 40
0.0
 40
0.0
 40
1.0
 40
1.0
 40
1.0
 40
1.0
 10
-165.9007
 20
140.3926
 30
0.0
 10
-165.7787
 20
139.6709
 30
0.0
 10
-165.1536
 20
139.1427
 30
0.0
 10
-164.4217
 20
139.1427
 30
0.0
  0
SPLINE
  5
A5
330
1F
100
AcDbEntity
  8
Capa 1
370
    15
100
AcDbSpline
210
0.0
220
0.0
230
1.0
 70
    24
 71
     3
 72
     8
 73
     4
 74
     0
 42
0.000000001
 43
0.0000000001
 40
0.0
 40
0.0
 40
0.0
 40
0.0
 40
1.0
 40
1.0
 40
1.0
 40
1.0
 10
-164.4217
 20
139.1427
 30
0.0
 10
-164.4217
 20
139.1427
 30
0.0
 10
-163.0217
 20
139.1427
 30
0.0
 10
-163.0217
 20
139.1427
 30
0.0
  0
SPLINE
  5
A6
330
1F
100
AcDbEntity
  8
Capa 1
370
    15
100
AcDbSpline
210
0.0
220
0.0
230
1.0
 70
     8
 71
     3
 72
     8
 73
     4
 74
     0
 42
0.000000001
 43
0.0000000001
 40
0.0
 40
0.0
 40
0.0
 40
0.0
 40
1.0
 40
1.0
 40
1.0
 40
1.0
 10
-163.0217
 20
139.1427
 30
0.0
 10
-162.2897
 20
139.1427
 30
0.0
 10
-161.6646
 20
139.6709
 30
0.0
 10
-161.5426
 20
140.3926
 30
0.0
  0
SPLINE
  5
A7
330
1F
100
AcDbEntity
  8
Capa 1
370
    15
100
AcDbSpline
210
0.0
220
0.0
230
1.0
 70
    24
 71
     3
 72
     8
 73
     4
 74
     0
 42
0.000000001
 43
0.0000000001
 40
0.0
 40
0.0
 40
0.0
 40
0.0
 40
1.0
 40
1.0
 40
1.0
 40
1.0
 10
-161.5426
 20
140.3927
 30
0.0
 10
-161.5426
 20
140.3927
 30
0.0
 10
-161.5426
 20
140.5551
 30
0.0
 10
-161.5426
 20
140.5551
 30
0.0
  0
SPLINE
  5
A8
330
1F
100
AcDbEntity
  8
Capa 1
370
    15
100
AcDbSpline
210
0.0
220
0.0
230
1.0
 70
     8
 71
     3
 72
    12
 73
     8
 74
     0
 42
0.000000001
 43
0.0000000001
 40
0.0
 40
0.0
 40
0.0
 40
0.0
 40
0.3333333333333333
 40
0.3333333333333333
 40
0.3333333333333333
 40
0.3333333333333333
 40
1.0
 40
1.0
 40
1.0
 40
1.0
 10
-161.5426
 20
140.5551
 30
0.0
 10
-161.039
 20
140.8108
 30
0.0
 10
-160.7217
 20
141.3278
 30
0.0
 10
-160.7217
 20
141.8926
 30
0.0
 10
-160.7217
 20
141.8926
 30
0.0
 10
-160.7216
 20
142.4575
 30
0.0
 10
-161.039
 20
142.9745
 30
0.0
 10
-161.5426
 20
143.2302
 30
0.0
  0
SPLINE
  5
A9
330
1F
100
AcDbEntity
  8
Capa 1
370
    15
100
AcDbSpline
210
0.0
220
0.0
230
1.0
 70
    24
 71
     3
 72
     8
 73
     4
 74
     0
 42
0.000000001
 43
0.0000000001
 40
0.0
 40
0.0
 40
0.0
 40
0.0
 40
1.0
 40
1.0
 40
1.0
 40
1.0
 10
-161.5426
 20
143.2302
 30
0.0
 10
-161.5426
 20
143.2302
 30
0.0
 10
-161.5426
 20
143.3927
 30
0.0
 10
-161.5426
 20
143.3927
 30
0.0
  0
SPLINE
  5
AA
330
1F
100
AcDbEntity
  8
Capa 1
370
    15
100
AcDbSpline
210
0.0
220
0.0
230
1.0
 70
     8
 71
     3
 72
     8
 73
     4
 74
     0
 42
0.000000001
 43
0.0000000001
 40
0.0
 40
0.0
 40
0.0
 40
0.0
 40
1.0
 40
1.0
 40
1.0
 40
1.0
 10
-161.5426
 20
143.3927
 30
0.0
 10
-161.6646
 20
144.1144
 30
0.0
 10
-162.2897
 20
144.6426
 30
0.0
 10
-163.0217
 20
144.6426
 30
0.0
  0
SPLINE
  5
AB
330
1F
100
AcDbEntity
  8
Capa 1
370
    15
100
AcDbSpline
210
0.0
220
0.0
230
1.0
 70
    24
 71
     3
 72
     8
 73
     4
 74
     0
 42
0.000000001
 43
0.0000000001
 40
0.0
 40
0.0
 40
0.0
 40
0.0
 40
1.0
 40
1.0
 40
1.0
 40
1.0
 10
-163.0217
 20
144.6427
 30
0.0
 10
-163.0217
 20
144.6427
 30
0.0
 10
-164.4217
 20
144.6427
 30
0.0
 10
-164.4217
 20
144.6427
 30
0.0
  0
SPLINE
  5
AC
330
1F
100
AcDbEntity
  8
Capa 1
370
    15
100
AcDbSpline
210
0.0
220
0.0
230
1.0
 70
     8
 71
     3
 72
     8
 73
     4
 74
     0
 42
0.000000001
 43
0.0000000001
 40
0.0
 40
0.0
 40
0.0
 40
0.0
 40
1.0
 40
1.0
 40
1.0
 40
1.0
 10
-164.4217
 20
144.6426
 30
0.0
 10
-165.1536
 20
144.6426
 30
0.0
 10
-165.7787
 20
144.1144
 30
0.0
 10
-165.9007
 20
143.3927
 30
0.0
  0
SPLINE
  5
AD
330
1F
100
AcDbEntity
  8
Capa 1
370
    15
100
AcDbSpline
210
0.0
220
0.0
230
1.0
 70
    24
 71
     3
 72
     8
 73
     4
 74
     0
 42
0.000000001
 43
0.0000000001
 40
0.0
 40
0.0
 40
0.0
 40
0.0
 40
1.0
 40
1.0
 40
1.0
 40
1.0
 10
-165.9007
 20
143.3927
 30
0.0
 10
-165.9007
 20
143.3927
 30
0.0
 10
-171.9196
 20
143.3927
 30
0.0
 10
-171.9196
 20
143.3927
 30
0.0
  0
SPLINE
  5
AE
330
1F
100
AcDbEntity
  8
Capa 1
370
    15
100
AcDbSpline
210
0.0
220
0.0
230
1.0
 70
    24
 71
     3
 72
     8
 73
     4
 74
     0
 42
0.000000001
 43
0.0000000001
 40
0.0
 40
0.0
 40
0.0
 40
0.0
 40
1.0
 40
1.0
 40
1.0
 40
1.0
 10
-172.2217
 20
143.3927
 30
0.0
 10
-172.2217
 20
143.3927
 30
0.0
 10
-172.2217
 20
178.6927
 30
0.0
 10
-172.2217
 20
178.6927
 30
0.0
  0
SPLINE
  5
AF
330
1F
100
AcDbEntity
  8
Capa 1
370
    15
100
AcDbSpline
210
0.0
220
0.0
230
1.0
 70
     8
 71
     3
 72
    12
 73
     8
 74
     0
 42
0.000000001
 43
0.0000000001
 40
0.0
 40
0.0
 40
0.0
 40
0.0
 40
0.3333333333333333
 40
0.3333333333333333
 40
0.3333333333333333
 40
0.3333333333333333
 40
1.0
 40
1.0
 40
1.0
 40
1.0
 10
-166.2217
 20
184.6926
 30
0.0
 10
-167.8129
 20
184.6926
 30
0.0
 10
-169.3391
 20
184.0605
 30
0.0
 10
-170.4643
 20
182.9353
 30
0.0
 10
-170.4643
 20
182.9353
 30
0.0
 10
-171.5895
 20
181.8101
 30
0.0
 10
-172.2217
 20
180.2839
 30
0.0
 10
-172.2217
 20
178.6927
 30
0.0
  0
SPLINE
  5
B0
330
1F
100
AcDbEntity
  8
Capa 1
370
    15
100
AcDbSpline
210
0.0
220
0.0
230
1.0
 70
    24
 71
     3
 72
     8
 73
     4
 74
     0
 42
0.000000001
 43
0.0000000001
 40
0.0
 40
0.0
 40
0.0
 40
0.0
 40
1.0
 40
1.0
 40
1.0
 40
1.0
 10
-166.2217
 20
184.6927
 30
0.0
 10
-166.2217
 20
184.6927
 30
0.0
 10
-127.4217
 20
184.6927
 30
0.0
 10
-127.4217
 20
184.6927
 30
0.0
  0
SPLINE
  5
B1
330
1F
100
AcDbEntity
  8
Capa 1
370
    15
100
AcDbSpline
210
0.0
220
0.0
230
1.0
 70
    24
 71
     3
 72
     8
 73
     4
 74
     0
 42
0.000000001
 43
0.0000000001
 40
0.0
 40
0.0
 40
0.0
 40
0.0
 40
1.0
 40
1.0
 40
1.0
 40
1.0
 10
-127.4217
 20
184.2557
 30
0.0
 10
-127.4217
 20
184.2557
 30
0.0
 10
-127.4217
 20
178.3717
 30
0.0
 10
-127.4217
 20
178.3717
 30
0.0
  0
SPLINE
  5
B2
330
1F
100
AcDbEntity
  8
Capa 1
370
    15
100
AcDbSpline
210
0.0
220
0.0
230
1.0
 70
     8
 71
     3
 72
     8
 73
     4
 74
     0
 42
0.000000001
 43
0.0000000001
 40
0.0
 40
0.0
 40
0.0
 40
0.0
 40
1.0
 40
1.0
 40
1.0
 40
1.0
 10
-127.4217
 20
178.3717
 30
0.0
 10
-128.1434
 20
178.2497
 30
0.0
 10
-128.6717
 20
177.6246
 30
0.0
 10
-128.6717
 20
176.8927
 30
0.0
  0
SPLINE
  5
B3
330
1F
100
AcDbEntity
  8
Capa 1
370
    15
100
AcDbSpline
210
0.0
220
0.0
230
1.0
 70
    24
 71
     3
 72
     8
 73
     4
 74
     0
 42
0.000000001
 43
0.0000000001
 40
0.0
 40
0.0
 40
0.0
 40
0.0
 40
1.0
 40
1.0
 40
1.0
 40
1.0
 10
-128.6717
 20
176.8927
 30
0.0
 10
-128.6717
 20
176.8927
 30
0.0
 10
-128.6717
 20
175.4927
 30
0.0
 10
-128.6717
 20
175.4927
 30
0.0
  0
SPLINE
  5
B4
330
1F
100
AcDbEntity
  8
Capa 1
370
    15
100
AcDbSpline
210
0.0
220
0.0
230
1.0
 70
     8
 71
     3
 72
     8
 73
     4
 74
     0
 42
0.000000001
 43
0.0000000001
 40
0.0
 40
0.0
 40
0.0
 40
0.0
 40
1.0
 40
1.0
 40
1.0
 40
1.0
 10
-128.6717
 20
175.4927
 30
0.0
 10
-128.6717
 20
174.7607
 30
0.0
 10
-128.1434
 20
174.1356
 30
0.0
 10
-127.4217
 20
174.0136
 30
0.0
  0
SPLINE
  5
B5
330
1F
100
AcDbEntity
  8
Capa 1
370
    15
100
AcDbSpline
210
0.0
220
0.0
230
1.0
 70
    24
 71
     3
 72
     8
 73
     4
 74
     0
 42
0.000000001
 43
0.0000000001
 40
0.0
 40
0.0
 40
0.0
 40
0.0
 40
1.0
 40
1.0
 40
1.0
 40
1.0
 10
-127.4217
 20
174.0136
 30
0.0
 10
-127.4217
 20
174.0136
 30
0.0
 10
-127.2592
 20
174.0136
 30
0.0
 10
-127.2592
 20
174.0136
 30
0.0
  0
SPLINE
  5
B6
330
1F
100
AcDbEntity
  8
Capa 1
370
    15
100
AcDbSpline
210
0.0
220
0.0
230
1.0
 70
     8
 71
     3
 72
    12
 73
     8
 74
     0
 42
0.000000001
 43
0.0000000001
 40
0.0
 40
0.0
 40
0.0
 40
0.0
 40
0.3333333333333333
 40
0.3333333333333333
 40
0.3333333333333333
 40
0.3333333333333333
 40
1.0
 40
1.0
 40
1.0
 40
1.0
 10
-127.2592
 20
174.0136
 30
0.0
 10
-127.0035
 20
173.51
 30
0.0
 10
-126.4865
 20
173.1927
 30
0.0
 10
-125.9217
 20
173.1927
 30
0.0
 10
-125.9217
 20
173.1927
 30
0.0
 10
-125.3568
 20
173.1927
 30
0.0
 10
-124.8398
 20
173.51
 30
0.0
 10
-124.5841
 20
174.0136
 30
0.0
  0
SPLINE
  5
B7
330
1F
100
AcDbEntity
  8
Capa 1
370
    15
100
AcDbSpline
210
0.0
220
0.0
230
1.0
 70
    24
 71
     3
 72
     8
 73
     4
 74
     0
 42
0.000000001
 43
0.0000000001
 40
0.0
 40
0.0
 40
0.0
 40
0.0
 40
1.0
 40
1.0
 40
1.0
 40
1.0
 10
-124.5841
 20
174.0136
 30
0.0
 10
-124.5841
 20
174.0136
 30
0.0
 10
-124.4217
 20
174.0136
 30
0.0
 10
-124.4217
 20
174.0136
 30
0.0
  0
SPLINE
  5
B8
330
1F
100
AcDbEntity
  8
Capa 1
370
    15
100
AcDbSpline
210
0.0
220
0.0
230
1.0
 70
     8
 71
     3
 72
     8
 73
     4
 74
     0
 42
0.000000001
 43
0.0000000001
 40
0.0
 40
0.0
 40
0.0
 40
0.0
 40
1.0
 40
1.0
 40
1.0
 40
1.0
 10
-124.4216
 20
174.0136
 30
0.0
 10
-123.6999
 20
174.1356
 30
0.0
 10
-123.1717
 20
174.7607
 30
0.0
 10
-123.1717
 20
175.4926
 30
0.0
  0
SPLINE
  5
B9
330
1F
100
AcDbEntity
  8
Capa 1
370
    15
100
AcDbSpline
210
0.0
220
0.0
230
1.0
 70
    24
 71
     3
 72
     8
 73
     4
 74
     0
 42
0.000000001
 43
0.0000000001
 40
0.0
 40
0.0
 40
0.0
 40
0.0
 40
1.0
 40
1.0
 40
1.0
 40
1.0
 10
-123.1717
 20
175.4927
 30
0.0
 10
-123.1717
 20
175.4927
 30
0.0
 10
-123.1717
 20
176.8927
 30
0.0
 10
-123.1717
 20
176.8927
 30
0.0
  0
SPLINE
  5
BA
330
1F
100
AcDbEntity
  8
Capa 1
370
    15
100
AcDbSpline
210
0.0
220
0.0
230
1.0
 70
     8
 71
     3
 72
     8
 73
     4
 74
     0
 42
0.000000001
 43
0.0000000001
 40
0.0
 40
0.0
 40
0.0
 40
0.0
 40
1.0
 40
1.0
 40
1.0
 40
1.0
 10
-123.1716
 20
176.8927
 30
0.0
 10
-123.1716
 20
177.6246
 30
0.0
 10
-123.6999
 20
178.2497
 30
0.0
 10
-124.4216
 20
178.3717
 30
0.0
  0
SPLINE
  5
BB
330
1F
100
AcDbEntity
  8
Capa 1
370
    15
100
AcDbSpline
210
0.0
220
0.0
230
1.0
 70
    24
 71
     3
 72
     8
 73
     4
 74
     0
 42
0.000000001
 43
0.0000000001
 40
0.0
 40
0.0
 40
0.0
 40
0.0
 40
1.0
 40
1.0
 40
1.0
 40
1.0
 10
-124.4217
 20
178.3717
 30
0.0
 10
-124.4217
 20
178.3717
 30
0.0
 10
-124.4217
 20
184.2821
 30
0.0
 10
-124.4217
 20
184.2821
 30
0.0
  0
SPLINE
  5
BC
330
1F
100
AcDbEntity
  8
Capa 1
370
    15
100
AcDbSpline
210
0.0
220
0.0
230
1.0
 70
    24
 71
     3
 72
     8
 73
     4
 74
     0
 42
0.000000001
 43
0.0000000001
 40
0.0
 40
0.0
 40
0.0
 40
0.0
 40
1.0
 40
1.0
 40
1.0
 40
1.0
 10
-124.4217
 20
184.6927
 30
0.0
 10
-124.4217
 20
184.6927
 30
0.0
 10
-107.4599
 20
184.6927
 30
0.0
 10
-107.4599
 20
184.6927
 30
0.0
  0
SPLINE
  5
BD
330
1F
100
AcDbEntity
  8
Capa 1
370
    15
100
AcDbSpline
210
0.0
220
0.0
230
1.0
 70
     8
 71
     3
 72
     8
 73
     4
 74
     0
 42
0.000000001
 43
0.0000000001
 40
0.0
 40
0.0
 40
0.0
 40
0.0
 40
1.0
 40
1.0
 40
1.0
 40
1.0
 10
-107.4599
 20
184.6927
 30
0.0
 10
-106.6518
 20
184.6927
 30
0.0
 10
-105.989
 20
185.3327
 30
0.0
 10
-105.9608
 20
186.1403
 30
0.0
  0
SPLINE
  5
BE
330
1F
100
AcDbEntity
  8
Capa 1
370
    15
100
AcDbSpline
210
0.0
220
0.0
230
1.0
 70
    24
 71
     3
 72
     8
 73
     4
 74
     0
 42
0.000000001
 43
0.0000000001
 40
0.0
 40
0.0
 40
0.0
 40
0.0
 40
1.0
 40
1.0
 40
1.0
 40
1.0
 10
-105.8717
 20
188.6927
 30
0.0
 10
-105.8717
 20
188.6927
 30
0.0
 10
-105.9608
 20
186.1403
 30
0.0
 10
-105.9608
 20
186.1403
 30
0.0
  0
SPLINE
  5
BF
330
1F
100
AcDbEntity
  8
Capa 1
370
    15
100
AcDbSpline
210
0.0
220
0.0
230
1.0
 70
    24
 71
     3
 72
     8
 73
     4
 74
     0
 42
0.000000001
 43
0.0000000001
 40
0.0
 40
0.0
 40
0.0
 40
0.0
 40
1.0
 40
1.0
 40
1.0
 40
1.0
 10
-105.8717
 20
188.6927
 30
0.0
 10
-105.8717
 20
188.6927
 30
0.0
 10
-95.8717
 20
188.6927
 30
0.0
 10
-95.8717
 20
188.6927
 30
0.0
  0
SPLINE
  5
C0
330
1F
100
AcDbEntity
  8
Capa 1
370
    15
100
AcDbSpline
210
0.0
220
0.0
230
1.0
 70
    24
 71
     3
 72
     8
 73
     4
 74
     0
 42
0.000000001
 43
0.0000000001
 40
0.0
 40
0.0
 40
0.0
 40
0.0
 40
1.0
 40
1.0
 40
1.0
 40
1.0
 10
-95.7825
 20
186.1403
 30
0.0
 10
-95.7825
 20
186.1403
 30
0.0
 10
-95.8717
 20
188.6927
 30
0.0
 10
-95.8717
 20
188.6927
 30
0.0
  0
SPLINE
  5
C1
330
1F
100
AcDbEntity
  8
Capa 1
370
    15
100
AcDbSpline
210
0.0
220
0.0
230
1.0
 70
     8
 71
     3
 72
     8
 73
     4
 74
     0
 42
0.000000001
 43
0.0000000001
 40
0.0
 40
0.0
 40
0.0
 40
0.0
 40
1.0
 40
1.0
 40
1.0
 40
1.0
 10
-95.7825
 20
186.1403
 30
0.0
 10
-95.7543
 20
185.3327
 30
0.0
 10
-95.0915
 20
184.6927
 30
0.0
 10
-94.2834
 20
184.6927
 30
0.0
  0
SPLINE
  5
C2
330
1F
100
AcDbEntity
  8
Capa 1
370
    15
100
AcDbSpline
210
0.0
220
0.0
230
1.0
 70
     8
 71
     3
 72
     8
 73
     4
 74
     0
 42
0.000000001
 43
0.0000000001
 40
0.0
 40
0.0
 40
0.0
 40
0.0
 40
1.0
 40
1.0
 40
1.0
 40
1.0
 10
-18.7094
 20
184.6927
 30
0.0
 10
-17.9013
 20
184.6927
 30
0.0
 10
-17.2385
 20
185.3327
 30
0.0
 10
-17.2103
 20
186.1403
 30
0.0
  0
SPLINE
  5
C3
330
1F
100
AcDbEntity
  8
Capa 1
370
    15
100
AcDbSpline
210
0.0
220
0.0
230
1.0
 70
    24
 71
     3
 72
     8
 73
     4
 74
     0
 42
0.000000001
 43
0.0000000001
 40
0.0
 40
0.0
 40
0.0
 40
0.0
 40
1.0
 40
1.0
 40
1.0
 40
1.0
 10
-17.1212
 20
188.6927
 30
0.0
 10
-17.1212
 20
188.6927
 30
0.0
 10
-17.2103
 20
186.1403
 30
0.0
 10
-17.2103
 20
186.1403
 30
0.0
  0
SPLINE
  5
C4
330
1F
100
AcDbEntity
  8
Capa 1
370
    15
100
AcDbSpline
210
0.0
220
0.0
230
1.0
 70
    24
 71
     3
 72
     8
 73
     4
 74
     0
 42
0.000000001
 43
0.0000000001
 40
0.0
 40
0.0
 40
0.0
 40
0.0
 40
1.0
 40
1.0
 40
1.0
 40
1.0
 10
-17.1212
 20
188.6927
 30
0.0
 10
-17.1212
 20
188.6927
 30
0.0
 10
-7.1212
 20
188.6927
 30
0.0
 10
-7.1212
 20
188.6927
 30
0.0
  0
SPLINE
  5
C5
330
1F
100
AcDbEntity
  8
Capa 1
370
    15
100
AcDbSpline
210
0.0
220
0.0
230
1.0
 70
    24
 71
     3
 72
     8
 73
     4
 74
     0
 42
0.000000001
 43
0.0000000001
 40
0.0
 40
0.0
 40
0.0
 40
0.0
 40
1.0
 40
1.0
 40
1.0
 40
1.0
 10
-7.032
 20
186.1403
 30
0.0
 10
-7.032
 20
186.1403
 30
0.0
 10
-7.1212
 20
188.6927
 30
0.0
 10
-7.1212
 20
188.6927
 30
0.0
  0
SPLINE
  5
C6
330
1F
100
AcDbEntity
  8
Capa 1
370
    15
100
AcDbSpline
210
0.0
220
0.0
230
1.0
 70
     8
 71
     3
 72
     8
 73
     4
 74
     0
 42
0.000000001
 43
0.0000000001
 40
0.0
 40
0.0
 40
0.0
 40
0.0
 40
1.0
 40
1.0
 40
1.0
 40
1.0
 10
-7.032
 20
186.1403
 30
0.0
 10
-7.0038
 20
185.3327
 30
0.0
 10
-6.341
 20
184.6927
 30
0.0
 10
-5.5329
 20
184.6927
 30
0.0
  0
SPLINE
  5
C7
330
1F
100
AcDbEntity
  8
Capa 1
370
    15
100
AcDbSpline
210
0.0
220
0.0
230
1.0
 70
    24
 71
     3
 72
     8
 73
     4
 74
     0
 42
0.000000001
 43
0.0000000001
 40
0.0
 40
0.0
 40
0.0
 40
0.0
 40
1.0
 40
1.0
 40
1.0
 40
1.0
 10
-5.5329
 20
184.6927
 30
0.0
 10
-5.5329
 20
184.6927
 30
0.0
 10
4.3788
 20
184.6927
 30
0.0
 10
4.3788
 20
184.6927
 30
0.0
  0
SPLINE
  5
C8
330
1F
100
AcDbEntity
  8
Capa 1
370
    15
100
AcDbSpline
210
0.0
220
0.0
230
1.0
 70
    24
 71
     3
 72
     8
 73
     4
 74
     0
 42
0.000000001
 43
0.0000000001
 40
0.0
 40
0.0
 40
0.0
 40
0.0
 40
1.0
 40
1.0
 40
1.0
 40
1.0
 10
4.3788
 20
184.4147
 30
0.0
 10
4.3788
 20
184.4147
 30
0.0
 10
4.3788
 20
178.3717
 30
0.0
 10
4.3788
 20
178.3717
 30
0.0
  0
SPLINE
  5
C9
330
1F
100
AcDbEntity
  8
Capa 1
370
    15
100
AcDbSpline
210
0.0
220
0.0
230
1.0
 70
     8
 71
     3
 72
     8
 73
     4
 74
     0
 42
0.000000001
 43
0.0000000001
 40
0.0
 40
0.0
 40
0.0
 40
0.0
 40
1.0
 40
1.0
 40
1.0
 40
1.0
 10
4.3788
 20
178.3717
 30
0.0
 10
3.6571
 20
178.2497
 30
0.0
 10
3.1289
 20
177.6246
 30
0.0
 10
3.1289
 20
176.8927
 30
0.0
  0
SPLINE
  5
CA
330
1F
100
AcDbEntity
  8
Capa 1
370
    15
100
AcDbSpline
210
0.0
220
0.0
230
1.0
 70
    24
 71
     3
 72
     8
 73
     4
 74
     0
 42
0.000000001
 43
0.0000000001
 40
0.0
 40
0.0
 40
0.0
 40
0.0
 40
1.0
 40
1.0
 40
1.0
 40
1.0
 10
3.1288
 20
176.8927
 30
0.0
 10
3.1288
 20
176.8927
 30
0.0
 10
3.1288
 20
175.4927
 30
0.0
 10
3.1288
 20
175.4927
 30
0.0
  0
SPLINE
  5
CB
330
1F
100
AcDbEntity
  8
Capa 1
370
    15
100
AcDbSpline
210
0.0
220
0.0
230
1.0
 70
     8
 71
     3
 72
     8
 73
     4
 74
     0
 42
0.000000001
 43
0.0000000001
 40
0.0
 40
0.0
 40
0.0
 40
0.0
 40
1.0
 40
1.0
 40
1.0
 40
1.0
 10
3.1288
 20
175.4927
 30
0.0
 10
3.1288
 20
174.7607
 30
0.0
 10
3.6571
 20
174.1356
 30
0.0
 10
4.3788
 20
174.0136
 30
0.0
  0
SPLINE
  5
CC
330
1F
100
AcDbEntity
  8
Capa 1
370
    15
100
AcDbSpline
210
0.0
220
0.0
230
1.0
 70
    24
 71
     3
 72
     8
 73
     4
 74
     0
 42
0.000000001
 43
0.0000000001
 40
0.0
 40
0.0
 40
0.0
 40
0.0
 40
1.0
 40
1.0
 40
1.0
 40
1.0
 10
4.3788
 20
174.0136
 30
0.0
 10
4.3788
 20
174.0136
 30
0.0
 10
4.5413
 20
174.0136
 30
0.0
 10
4.5413
 20
174.0136
 30
0.0
  0
SPLINE
  5
CD
330
1F
100
AcDbEntity
  8
Capa 1
370
    15
100
AcDbSpline
210
0.0
220
0.0
230
1.0
 70
     8
 71
     3
 72
    12
 73
     8
 74
     0
 42
0.000000001
 43
0.0000000001
 40
0.0
 40
0.0
 40
0.0
 40
0.0
 40
0.3333333333333333
 40
0.3333333333333333
 40
0.3333333333333333
 40
0.3333333333333333
 40
1.0
 40
1.0
 40
1.0
 40
1.0
 10
4.5413
 20
174.0136
 30
0.0
 10
4.797
 20
173.51
 30
0.0
 10
5.314
 20
173.1927
 30
0.0
 10
5.8788
 20
173.1927
 30
0.0
 10
5.8788
 20
173.1927
 30
0.0
 10
6.4436
 20
173.1927
 30
0.0
 10
6.9606
 20
173.51
 30
0.0
 10
7.2163
 20
174.0136
 30
0.0
  0
SPLINE
  5
CE
330
1F
100
AcDbEntity
  8
Capa 1
370
    15
100
AcDbSpline
210
0.0
220
0.0
230
1.0
 70
    24
 71
     3
 72
     8
 73
     4
 74
     0
 42
0.000000001
 43
0.0000000001
 40
0.0
 40
0.0
 40
0.0
 40
0.0
 40
1.0
 40
1.0
 40
1.0
 40
1.0
 10
7.2163
 20
174.0136
 30
0.0
 10
7.2163
 20
174.0136
 30
0.0
 10
7.3788
 20
174.0136
 30
0.0
 10
7.3788
 20
174.0136
 30
0.0
  0
SPLINE
  5
CF
330
1F
100
AcDbEntity
  8
Capa 1
370
    15
100
AcDbSpline
210
0.0
220
0.0
230
1.0
 70
     8
 71
     3
 72
     8
 73
     4
 74
     0
 42
0.000000001
 43
0.0000000001
 40
0.0
 40
0.0
 40
0.0
 40
0.0
 40
1.0
 40
1.0
 40
1.0
 40
1.0
 10
7.3788
 20
174.0136
 30
0.0
 10
8.1005
 20
174.1356
 30
0.0
 10
8.6287
 20
174.7607
 30
0.0
 10
8.6287
 20
175.4926
 30
0.0
  0
SPLINE
  5
D0
330
1F
100
AcDbEntity
  8
Capa 1
370
    15
100
AcDbSpline
210
0.0
220
0.0
230
1.0
 70
    24
 71
     3
 72
     8
 73
     4
 74
     0
 42
0.000000001
 43
0.0000000001
 40
0.0
 40
0.0
 40
0.0
 40
0.0
 40
1.0
 40
1.0
 40
1.0
 40
1.0
 10
8.6288
 20
175.4927
 30
0.0
 10
8.6288
 20
175.4927
 30
0.0
 10
8.6288
 20
176.8927
 30
0.0
 10
8.6288
 20
176.8927
 30
0.0
  0
SPLINE
  5
D1
330
1F
100
AcDbEntity
  8
Capa 1
370
    15
100
AcDbSpline
210
0.0
220
0.0
230
1.0
 70
     8
 71
     3
 72
     8
 73
     4
 74
     0
 42
0.000000001
 43
0.0000000001
 40
0.0
 40
0.0
 40
0.0
 40
0.0
 40
1.0
 40
1.0
 40
1.0
 40
1.0
 10
8.6287
 20
176.8927
 30
0.0
 10
8.6287
 20
177.6246
 30
0.0
 10
8.1005
 20
178.2497
 30
0.0
 10
7.3788
 20
178.3717
 30
0.0
  0
SPLINE
  5
D2
330
1F
100
AcDbEntity
  8
Capa 1
370
    15
100
AcDbSpline
210
0.0
220
0.0
230
1.0
 70
    24
 71
     3
 72
     8
 73
     4
 74
     0
 42
0.000000001
 43
0.0000000001
 40
0.0
 40
0.0
 40
0.0
 40
0.0
 40
1.0
 40
1.0
 40
1.0
 40
1.0
 10
7.3788
 20
178.3717
 30
0.0
 10
7.3788
 20
178.3717
 30
0.0
 10
7.3788
 20
184.3882
 30
0.0
 10
7.3788
 20
184.3882
 30
0.0
  0
SPLINE
  5
D3
330
1F
100
AcDbEntity
  8
Capa 1
370
    15
100
AcDbSpline
210
0.0
220
0.0
230
1.0
 70
    24
 71
     3
 72
     8
 73
     4
 74
     0
 42
0.000000001
 43
0.0000000001
 40
0.0
 40
0.0
 40
0.0
 40
0.0
 40
1.0
 40
1.0
 40
1.0
 40
1.0
 10
7.3788
 20
184.6927
 30
0.0
 10
7.3788
 20
184.6927
 30
0.0
 10
17.2905
 20
184.6927
 30
0.0
 10
17.2905
 20
184.6927
 30
0.0
  0
SPLINE
  5
D4
330
1F
100
AcDbEntity
  8
Capa 1
370
    15
100
AcDbSpline
210
0.0
220
0.0
230
1.0
 70
     8
 71
     3
 72
     8
 73
     4
 74
     0
 42
0.000000001
 43
0.0000000001
 40
0.0
 40
0.0
 40
0.0
 40
0.0
 40
1.0
 40
1.0
 40
1.0
 40
1.0
 10
17.2905
 20
184.6927
 30
0.0
 10
18.0986
 20
184.6927
 30
0.0
 10
18.7614
 20
185.3327
 30
0.0
 10
18.7896
 20
186.1403
 30
0.0
  0
SPLINE
  5
D5
330
1F
100
AcDbEntity
  8
Capa 1
370
    15
100
AcDbSpline
210
0.0
220
0.0
230
1.0
 70
    24
 71
     3
 72
     8
 73
     4
 74
     0
 42
0.000000001
 43
0.0000000001
 40
0.0
 40
0.0
 40
0.0
 40
0.0
 40
1.0
 40
1.0
 40
1.0
 40
1.0
 10
18.8788
 20
188.6927
 30
0.0
 10
18.8788
 20
188.6927
 30
0.0
 10
18.7896
 20
186.1403
 30
0.0
 10
18.7896
 20
186.1403
 30
0.0
  0
SPLINE
  5
D6
330
1F
100
AcDbEntity
  8
Capa 1
370
    15
100
AcDbSpline
210
0.0
220
0.0
230
1.0
 70
    24
 71
     3
 72
     8
 73
     4
 74
     0
 42
0.000000001
 43
0.0000000001
 40
0.0
 40
0.0
 40
0.0
 40
0.0
 40
1.0
 40
1.0
 40
1.0
 40
1.0
 10
18.8788
 20
188.6927
 30
0.0
 10
18.8788
 20
188.6927
 30
0.0
 10
28.8788
 20
188.6927
 30
0.0
 10
28.8788
 20
188.6927
 30
0.0
  0
SPLINE
  5
D7
330
1F
100
AcDbEntity
  8
Capa 1
370
    15
100
AcDbSpline
210
0.0
220
0.0
230
1.0
 70
    24
 71
     3
 72
     8
 73
     4
 74
     0
 42
0.000000001
 43
0.0000000001
 40
0.0
 40
0.0
 40
0.0
 40
0.0
 40
1.0
 40
1.0
 40
1.0
 40
1.0
 10
28.9679
 20
186.1403
 30
0.0
 10
28.9679
 20
186.1403
 30
0.0
 10
28.8788
 20
188.6927
 30
0.0
 10
28.8788
 20
188.6927
 30
0.0
  0
SPLINE
  5
D8
330
1F
100
AcDbEntity
  8
Capa 1
370
    15
100
AcDbSpline
210
0.0
220
0.0
230
1.0
 70
     8
 71
     3
 72
     8
 73
     4
 74
     0
 42
0.000000001
 43
0.0000000001
 40
0.0
 40
0.0
 40
0.0
 40
0.0
 40
1.0
 40
1.0
 40
1.0
 40
1.0
 10
28.9679
 20
186.1403
 30
0.0
 10
28.9961
 20
185.3327
 30
0.0
 10
29.6589
 20
184.6927
 30
0.0
 10
30.467
 20
184.6927
 30
0.0
  0
SPLINE
  5
D9
330
1F
100
AcDbEntity
  8
Capa 1
370
    15
100
AcDbSpline
210
0.0
220
0.0
230
1.0
 70
     8
 71
     3
 72
     8
 73
     4
 74
     0
 42
0.000000001
 43
0.0000000001
 40
0.0
 40
0.0
 40
0.0
 40
0.0
 40
1.0
 40
1.0
 40
1.0
 40
1.0
 10
106.04
 20
184.6927
 30
0.0
 10
106.8481
 20
184.6927
 30
0.0
 10
107.5109
 20
185.3327
 30
0.0
 10
107.5391
 20
186.1403
 30
0.0
  0
SPLINE
  5
DA
330
1F
100
AcDbEntity
  8
Capa 1
370
    15
100
AcDbSpline
210
0.0
220
0.0
230
1.0
 70
    24
 71
     3
 72
     8
 73
     4
 74
     0
 42
0.000000001
 43
0.0000000001
 40
0.0
 40
0.0
 40
0.0
 40
0.0
 40
1.0
 40
1.0
 40
1.0
 40
1.0
 10
107.6283
 20
188.6927
 30
0.0
 10
107.6283
 20
188.6927
 30
0.0
 10
107.5391
 20
186.1403
 30
0.0
 10
107.5391
 20
186.1403
 30
0.0
  0
SPLINE
  5
DB
330
1F
100
AcDbEntity
  8
Capa 1
370
    15
100
AcDbSpline
210
0.0
220
0.0
230
1.0
 70
    24
 71
     3
 72
     8
 73
     4
 74
     0
 42
0.000000001
 43
0.0000000001
 40
0.0
 40
0.0
 40
0.0
 40
0.0
 40
1.0
 40
1.0
 40
1.0
 40
1.0
 10
107.6283
 20
188.6927
 30
0.0
 10
107.6283
 20
188.6927
 30
0.0
 10
117.6283
 20
188.6927
 30
0.0
 10
117.6283
 20
188.6927
 30
0.0
  0
SPLINE
  5
DC
330
1F
100
AcDbEntity
  8
Capa 1
370
    15
100
AcDbSpline
210
0.0
220
0.0
230
1.0
 70
    24
 71
     3
 72
     8
 73
     4
 74
     0
 42
0.000000001
 43
0.0000000001
 40
0.0
 40
0.0
 40
0.0
 40
0.0
 40
1.0
 40
1.0
 40
1.0
 40
1.0
 10
117.7174
 20
186.1403
 30
0.0
 10
117.7174
 20
186.1403
 30
0.0
 10
117.6283
 20
188.6927
 30
0.0
 10
117.6283
 20
188.6927
 30
0.0
  0
SPLINE
  5
DD
330
1F
100
AcDbEntity
  8
Capa 1
370
    15
100
AcDbSpline
210
0.0
220
0.0
230
1.0
 70
     8
 71
     3
 72
     8
 73
     4
 74
     0
 42
0.000000001
 43
0.0000000001
 40
0.0
 40
0.0
 40
0.0
 40
0.0
 40
1.0
 40
1.0
 40
1.0
 40
1.0
 10
117.7174
 20
186.1403
 30
0.0
 10
117.7456
 20
185.3327
 30
0.0
 10
118.4084
 20
184.6927
 30
0.0
 10
119.2165
 20
184.6927
 30
0.0
  0
SPLINE
  5
DE
330
1F
100
AcDbEntity
  8
Capa 1
370
    15
100
AcDbSpline
210
0.0
220
0.0
230
1.0
 70
    24
 71
     3
 72
     8
 73
     4
 74
     0
 42
0.000000001
 43
0.0000000001
 40
0.0
 40
0.0
 40
0.0
 40
0.0
 40
1.0
 40
1.0
 40
1.0
 40
1.0
 10
119.2165
 20
184.6927
 30
0.0
 10
119.2165
 20
184.6927
 30
0.0
 10
136.1783
 20
184.6927
 30
0.0
 10
136.1783
 20
184.6927
 30
0.0
  0
SPLINE
  5
DF
330
1F
100
AcDbEntity
  8
Capa 1
370
    15
100
AcDbSpline
210
0.0
220
0.0
230
1.0
 70
    24
 71
     3
 72
     8
 73
     4
 74
     0
 42
0.000000001
 43
0.0000000001
 40
0.0
 40
0.0
 40
0.0
 40
0.0
 40
1.0
 40
1.0
 40
1.0
 40
1.0
 10
136.1783
 20
184.4346
 30
0.0
 10
136.1783
 20
184.4346
 30
0.0
 10
136.1783
 20
178.3717
 30
0.0
 10
136.1783
 20
178.3717
 30
0.0
  0
SPLINE
  5
E0
330
1F
100
AcDbEntity
  8
Capa 1
370
    15
100
AcDbSpline
210
0.0
220
0.0
230
1.0
 70
     8
 71
     3
 72
     8
 73
     4
 74
     0
 42
0.000000001
 43
0.0000000001
 40
0.0
 40
0.0
 40
0.0
 40
0.0
 40
1.0
 40
1.0
 40
1.0
 40
1.0
 10
136.1782
 20
178.3717
 30
0.0
 10
135.4565
 20
178.2497
 30
0.0
 10
134.9282
 20
177.6246
 30
0.0
 10
134.9282
 20
176.8927
 30
0.0
  0
SPLINE
  5
E1
330
1F
100
AcDbEntity
  8
Capa 1
370
    15
100
AcDbSpline
210
0.0
220
0.0
230
1.0
 70
    24
 71
     3
 72
     8
 73
     4
 74
     0
 42
0.000000001
 43
0.0000000001
 40
0.0
 40
0.0
 40
0.0
 40
0.0
 40
1.0
 40
1.0
 40
1.0
 40
1.0
 10
134.9283
 20
176.8927
 30
0.0
 10
134.9283
 20
176.8927
 30
0.0
 10
134.9283
 20
175.4927
 30
0.0
 10
134.9283
 20
175.4927
 30
0.0
  0
SPLINE
  5
E2
330
1F
100
AcDbEntity
  8
Capa 1
370
    15
100
AcDbSpline
210
0.0
220
0.0
230
1.0
 70
     8
 71
     3
 72
     8
 73
     4
 74
     0
 42
0.000000001
 43
0.0000000001
 40
0.0
 40
0.0
 40
0.0
 40
0.0
 40
1.0
 40
1.0
 40
1.0
 40
1.0
 10
134.9282
 20
175.4927
 30
0.0
 10
134.9282
 20
174.7607
 30
0.0
 10
135.4565
 20
174.1356
 30
0.0
 10
136.1782
 20
174.0136
 30
0.0
  0
SPLINE
  5
E3
330
1F
100
AcDbEntity
  8
Capa 1
370
    15
100
AcDbSpline
210
0.0
220
0.0
230
1.0
 70
    24
 71
     3
 72
     8
 73
     4
 74
     0
 42
0.000000001
 43
0.0000000001
 40
0.0
 40
0.0
 40
0.0
 40
0.0
 40
1.0
 40
1.0
 40
1.0
 40
1.0
 10
136.1783
 20
174.0136
 30
0.0
 10
136.1783
 20
174.0136
 30
0.0
 10
136.3407
 20
174.0136
 30
0.0
 10
136.3407
 20
174.0136
 30
0.0
  0
SPLINE
  5
E4
330
1F
100
AcDbEntity
  8
Capa 1
370
    15
100
AcDbSpline
210
0.0
220
0.0
230
1.0
 70
     8
 71
     3
 72
    12
 73
     8
 74
     0
 42
0.000000001
 43
0.0000000001
 40
0.0
 40
0.0
 40
0.0
 40
0.0
 40
0.3333333333333333
 40
0.3333333333333333
 40
0.3333333333333333
 40
0.3333333333333333
 40
1.0
 40
1.0
 40
1.0
 40
1.0
 10
136.3407
 20
174.0136
 30
0.0
 10
136.5964
 20
173.51
 30
0.0
 10
137.1134
 20
173.1927
 30
0.0
 10
137.6783
 20
173.1927
 30
0.0
 10
137.6783
 20
173.1927
 30
0.0
 10
138.2431
 20
173.1927
 30
0.0
 10
138.7601
 20
173.51
 30
0.0
 10
139.0158
 20
174.0136
 30
0.0
  0
SPLINE
  5
E5
330
1F
100
AcDbEntity
  8
Capa 1
370
    15
100
AcDbSpline
210
0.0
220
0.0
230
1.0
 70
    24
 71
     3
 72
     8
 73
     4
 74
     0
 42
0.000000001
 43
0.0000000001
 40
0.0
 40
0.0
 40
0.0
 40
0.0
 40
1.0
 40
1.0
 40
1.0
 40
1.0
 10
139.0158
 20
174.0136
 30
0.0
 10
139.0158
 20
174.0136
 30
0.0
 10
139.1783
 20
174.0136
 30
0.0
 10
139.1783
 20
174.0136
 30
0.0
  0
SPLINE
  5
E6
330
1F
100
AcDbEntity
  8
Capa 1
370
    15
100
AcDbSpline
210
0.0
220
0.0
230
1.0
 70
     8
 71
     3
 72
     8
 73
     4
 74
     0
 42
0.000000001
 43
0.0000000001
 40
0.0
 40
0.0
 40
0.0
 40
0.0
 40
1.0
 40
1.0
 40
1.0
 40
1.0
 10
139.1783
 20
174.0136
 30
0.0
 10
139.9
 20
174.1356
 30
0.0
 10
140.4282
 20
174.7607
 30
0.0
 10
140.4282
 20
175.4926
 30
0.0
  0
SPLINE
  5
E7
330
1F
100
AcDbEntity
  8
Capa 1
370
    15
100
AcDbSpline
210
0.0
220
0.0
230
1.0
 70
    24
 71
     3
 72
     8
 73
     4
 74
     0
 42
0.000000001
 43
0.0000000001
 40
0.0
 40
0.0
 40
0.0
 40
0.0
 40
1.0
 40
1.0
 40
1.0
 40
1.0
 10
140.4283
 20
175.4927
 30
0.0
 10
140.4283
 20
175.4927
 30
0.0
 10
140.4283
 20
176.8927
 30
0.0
 10
140.4283
 20
176.8927
 30
0.0
  0
SPLINE
  5
E8
330
1F
100
AcDbEntity
  8
Capa 1
370
    15
100
AcDbSpline
210
0.0
220
0.0
230
1.0
 70
     8
 71
     3
 72
     8
 73
     4
 74
     0
 42
0.000000001
 43
0.0000000001
 40
0.0
 40
0.0
 40
0.0
 40
0.0
 40
1.0
 40
1.0
 40
1.0
 40
1.0
 10
140.4283
 20
176.8927
 30
0.0
 10
140.4283
 20
177.6246
 30
0.0
 10
139.9
 20
178.2497
 30
0.0
 10
139.1783
 20
178.3717
 30
0.0
  0
SPLINE
  5
E9
330
1F
100
AcDbEntity
  8
Capa 1
370
    15
100
AcDbSpline
210
0.0
220
0.0
230
1.0
 70
    24
 71
     3
 72
     8
 73
     4
 74
     0
 42
0.000000001
 43
0.0000000001
 40
0.0
 40
0.0
 40
0.0
 40
0.0
 40
1.0
 40
1.0
 40
1.0
 40
1.0
 10
139.1783
 20
178.3717
 30
0.0
 10
139.1783
 20
178.3717
 30
0.0
 10
139.1783
 20
184.3949
 30
0.0
 10
139.1783
 20
184.3949
 30
0.0
  0
SPLINE
  5
EA
330
1F
100
AcDbEntity
  8
Capa 1
370
    15
100
AcDbSpline
210
0.0
220
0.0
230
1.0
 70
    24
 71
     3
 72
     8
 73
     4
 74
     0
 42
0.000000001
 43
0.0000000001
 40
0.0
 40
0.0
 40
0.0
 40
0.0
 40
1.0
 40
1.0
 40
1.0
 40
1.0
 10
139.1783
 20
184.6927
 30
0.0
 10
139.1783
 20
184.6927
 30
0.0
 10
177.9783
 20
184.6927
 30
0.0
 10
177.9783
 20
184.6927
 30
0.0
  0
SPLINE
  5
EB
330
1F
100
AcDbEntity
  8
Capa 1
370
    15
100
AcDbSpline
210
0.0
220
0.0
230
1.0
 70
     8
 71
     3
 72
    12
 73
     8
 74
     0
 42
0.000000001
 43
0.0000000001
 40
0.0
 40
0.0
 40
0.0
 40
0.0
 40
0.3333333333333333
 40
0.3333333333333333
 40
0.3333333333333333
 40
0.3333333333333333
 40
1.0
 40
1.0
 40
1.0
 40
1.0
 10
183.9782
 20
178.6927
 30
0.0
 10
183.9782
 20
180.2839
 30
0.0
 10
183.3461
 20
181.8101
 30
0.0
 10
182.2209
 20
182.9353
 30
0.0
 10
182.2209
 20
182.9353
 30
0.0
 10
181.0957
 20
184.0605
 30
0.0
 10
179.5695
 20
184.6926
 30
0.0
 10
177.9783
 20
184.6926
 30
0.0
  0
SPLINE
  5
EC
330
1F
100
AcDbEntity
  8
Capa 1
370
    15
100
AcDbSpline
210
0.0
220
0.0
230
1.0
 70
    24
 71
     3
 72
     8
 73
     4
 74
     0
 42
0.000000001
 43
0.0000000001
 40
0.0
 40
0.0
 40
0.0
 40
0.0
 40
1.0
 40
1.0
 40
1.0
 40
1.0
 10
183.9783
 20
178.6927
 30
0.0
 10
183.9783
 20
178.6927
 30
0.0
 10
183.9783
 20
143.3927
 30
0.0
 10
183.9783
 20
143.3927
 30
0.0
  0
SPLINE
  5
ED
330
1F
100
AcDbEntity
  8
Capa 1
370
    15
100
AcDbSpline
210
0.0
220
0.0
230
1.0
 70
    24
 71
     3
 72
     8
 73
     4
 74
     0
 42
0.000000001
 43
0.0000000001
 40
0.0
 40
0.0
 40
0.0
 40
0.0
 40
1.0
 40
1.0
 40
1.0
 40
1.0
 10
183.711
 20
143.3927
 30
0.0
 10
183.711
 20
143.3927
 30
0.0
 10
177.6573
 20
143.3927
 30
0.0
 10
177.6573
 20
143.3927
 30
0.0
  0
SPLINE
  5
EE
330
1F
100
AcDbEntity
  8
Capa 1
370
    15
100
AcDbSpline
210
0.0
220
0.0
230
1.0
 70
     8
 71
     3
 72
     8
 73
     4
 74
     0
 42
0.000000001
 43
0.0000000001
 40
0.0
 40
0.0
 40
0.0
 40
0.0
 40
1.0
 40
1.0
 40
1.0
 40
1.0
 10
177.6573
 20
143.3927
 30
0.0
 10
177.5353
 20
144.1144
 30
0.0
 10
176.9102
 20
144.6426
 30
0.0
 10
176.1783
 20
144.6426
 30
0.0
  0
SPLINE
  5
EF
330
1F
100
AcDbEntity
  8
Capa 1
370
    15
100
AcDbSpline
210
0.0
220
0.0
230
1.0
 70
    24
 71
     3
 72
     8
 73
     4
 74
     0
 42
0.000000001
 43
0.0000000001
 40
0.0
 40
0.0
 40
0.0
 40
0.0
 40
1.0
 40
1.0
 40
1.0
 40
1.0
 10
176.1783
 20
144.6427
 30
0.0
 10
176.1783
 20
144.6427
 30
0.0
 10
174.7783
 20
144.6427
 30
0.0
 10
174.7783
 20
144.6427
 30
0.0
  0
SPLINE
  5
F0
330
1F
100
AcDbEntity
  8
Capa 1
370
    15
100
AcDbSpline
210
0.0
220
0.0
230
1.0
 70
     8
 71
     3
 72
     8
 73
     4
 74
     0
 42
0.000000001
 43
0.0000000001
 40
0.0
 40
0.0
 40
0.0
 40
0.0
 40
1.0
 40
1.0
 40
1.0
 40
1.0
 10
174.7783
 20
144.6426
 30
0.0
 10
174.0463
 20
144.6426
 30
0.0
 10
173.4212
 20
144.1144
 30
0.0
 10
173.2992
 20
143.3927
 30
0.0
  0
SPLINE
  5
F1
330
1F
100
AcDbEntity
  8
Capa 1
370
    15
100
AcDbSpline
210
0.0
220
0.0
230
1.0
 70
    24
 71
     3
 72
     8
 73
     4
 74
     0
 42
0.000000001
 43
0.0000000001
 40
0.0
 40
0.0
 40
0.0
 40
0.0
 40
1.0
 40
1.0
 40
1.0
 40
1.0
 10
173.2992
 20
143.3927
 30
0.0
 10
173.2992
 20
143.3927
 30
0.0
 10
173.2992
 20
143.2302
 30
0.0
 10
173.2992
 20
143.2302
 30
0.0
  0
SPLINE
  5
F2
330
1F
100
AcDbEntity
  8
Capa 1
370
    15
100
AcDbSpline
210
0.0
220
0.0
230
1.0
 70
     8
 71
     3
 72
    12
 73
     8
 74
     0
 42
0.000000001
 43
0.0000000001
 40
0.0
 40
0.0
 40
0.0
 40
0.0
 40
0.3333333333333333
 40
0.3333333333333333
 40
0.3333333333333333
 40
0.3333333333333333
 40
1.0
 40
1.0
 40
1.0
 40
1.0
 10
173.2992
 20
143.2302
 30
0.0
 10
172.7956
 20
142.9745
 30
0.0
 10
172.4783
 20
142.4575
 30
0.0
 10
172.4783
 20
141.8927
 30
0.0
 10
172.4783
 20
141.8927
 30
0.0
 10
172.4783
 20
141.3278
 30
0.0
 10
172.7956
 20
140.8108
 30
0.0
 10
173.2992
 20
140.5551
 30
0.0
  0
SPLINE
  5
F3
330
1F
100
AcDbEntity
  8
Capa 1
370
    15
100
AcDbSpline
210
0.0
220
0.0
230
1.0
 70
    24
 71
     3
 72
     8
 73
     4
 74
     0
 42
0.000000001
 43
0.0000000001
 40
0.0
 40
0.0
 40
0.0
 40
0.0
 40
1.0
 40
1.0
 40
1.0
 40
1.0
 10
173.2992
 20
140.5551
 30
0.0
 10
173.2992
 20
140.5551
 30
0.0
 10
173.2992
 20
140.3927
 30
0.0
 10
173.2992
 20
140.3927
 30
0.0
  0
SPLINE
  5
F4
330
1F
100
AcDbEntity
  8
Capa 1
370
    15
100
AcDbSpline
210
0.0
220
0.0
230
1.0
 70
     8
 71
     3
 72
     8
 73
     4
 74
     0
 42
0.000000001
 43
0.0000000001
 40
0.0
 40
0.0
 40
0.0
 40
0.0
 40
1.0
 40
1.0
 40
1.0
 40
1.0
 10
173.2992
 20
140.3926
 30
0.0
 10
173.4212
 20
139.6709
 30
0.0
 10
174.0463
 20
139.1427
 30
0.0
 10
174.7783
 20
139.1427
 30
0.0
  0
SPLINE
  5
F5
330
1F
100
AcDbEntity
  8
Capa 1
370
    15
100
AcDbSpline
210
0.0
220
0.0
230
1.0
 70
    24
 71
     3
 72
     8
 73
     4
 74
     0
 42
0.000000001
 43
0.0000000001
 40
0.0
 40
0.0
 40
0.0
 40
0.0
 40
1.0
 40
1.0
 40
1.0
 40
1.0
 10
174.7783
 20
139.1427
 30
0.0
 10
174.7783
 20
139.1427
 30
0.0
 10
176.1783
 20
139.1427
 30
0.0
 10
176.1783
 20
139.1427
 30
0.0
  0
SPLINE
  5
F6
330
1F
100
AcDbEntity
  8
Capa 1
370
    15
100
AcDbSpline
210
0.0
220
0.0
230
1.0
 70
     8
 71
     3
 72
     8
 73
     4
 74
     0
 42
0.000000001
 43
0.0000000001
 40
0.0
 40
0.0
 40
0.0
 40
0.0
 40
1.0
 40
1.0
 40
1.0
 40
1.0
 10
176.1783
 20
139.1427
 30
0.0
 10
176.9102
 20
139.1427
 30
0.0
 10
177.5353
 20
139.6709
 30
0.0
 10
177.6573
 20
140.3926
 30
0.0
  0
SPLINE
  5
F7
330
1F
100
AcDbEntity
  8
Capa 1
370
    15
100
AcDbSpline
210
0.0
220
0.0
230
1.0
 70
    24
 71
     3
 72
     8
 73
     4
 74
     0
 42
0.000000001
 43
0.0000000001
 40
0.0
 40
0.0
 40
0.0
 40
0.0
 40
1.0
 40
1.0
 40
1.0
 40
1.0
 10
177.6573
 20
140.3927
 30
0.0
 10
177.6573
 20
140.3927
 30
0.0
 10
183.6713
 20
140.3927
 30
0.0
 10
183.6713
 20
140.3927
 30
0.0
  0
SPLINE
  5
F8
330
1F
100
AcDbEntity
  8
Capa 1
370
    15
100
AcDbSpline
210
0.0
220
0.0
230
1.0
 70
    24
 71
     3
 72
     8
 73
     4
 74
     0
 42
0.000000001
 43
0.0000000001
 40
0.0
 40
0.0
 40
0.0
 40
0.0
 40
1.0
 40
1.0
 40
1.0
 40
1.0
 10
183.9783
 20
140.3927
 30
0.0
 10
183.9783
 20
140.3927
 30
0.0
 10
183.9783
 20
123.4809
 30
0.0
 10
183.9783
 20
123.4809
 30
0.0
  0
SPLINE
  5
F9
330
1F
100
AcDbEntity
  8
Capa 1
370
    15
100
AcDbSpline
210
0.0
220
0.0
230
1.0
 70
     8
 71
     3
 72
     8
 73
     4
 74
     0
 42
0.000000001
 43
0.0000000001
 40
0.0
 40
0.0
 40
0.0
 40
0.0
 40
1.0
 40
1.0
 40
1.0
 40
1.0
 10
183.9782
 20
123.4809
 30
0.0
 10
183.9782
 20
122.6728
 30
0.0
 10
184.6183
 20
122.01
 30
0.0
 10
185.4259
 20
121.9818
 30
0.0
  0
SPLINE
  5
FA
330
1F
100
AcDbEntity
  8
Capa 1
370
    15
100
AcDbSpline
210
0.0
220
0.0
230
1.0
 70
    24
 71
     3
 72
     8
 73
     4
 74
     0
 42
0.000000001
 43
0.0000000001
 40
0.0
 40
0.0
 40
0.0
 40
0.0
 40
1.0
 40
1.0
 40
1.0
 40
1.0
 10
187.9783
 20
121.8927
 30
0.0
 10
187.9783
 20
121.8927
 30
0.0
 10
185.4259
 20
121.9818
 30
0.0
 10
185.4259
 20
121.9818
 30
0.0
  0
SPLINE
  5
FB
330
1F
100
AcDbEntity
  8
Capa 1
370
    15
100
AcDbSpline
210
0.0
220
0.0
230
1.0
 70
    24
 71
     3
 72
     8
 73
     4
 74
     0
 42
0.000000001
 43
0.0000000001
 40
0.0
 40
0.0
 40
0.0
 40
0.0
 40
1.0
 40
1.0
 40
1.0
 40
1.0
 10
187.9783
 20
121.8927
 30
0.0
 10
187.9783
 20
121.8927
 30
0.0
 10
187.9783
 20
111.8927
 30
0.0
 10
187.9783
 20
111.8927
 30
0.0
  0
SPLINE
  5
FC
330
1F
100
AcDbEntity
  8
Capa 1
370
    15
100
AcDbSpline
210
0.0
220
0.0
230
1.0
 70
    24
 71
     3
 72
     8
 73
     4
 74
     0
 42
0.000000001
 43
0.0000000001
 40
0.0
 40
0.0
 40
0.0
 40
0.0
 40
1.0
 40
1.0
 40
1.0
 40
1.0
 10
185.4259
 20
111.8035
 30
0.0
 10
185.4259
 20
111.8035
 30
0.0
 10
187.9783
 20
111.8927
 30
0.0
 10
187.9783
 20
111.8927
 30
0.0
  0
SPLINE
  5
FD
330
1F
100
AcDbEntity
  8
Capa 1
370
    15
100
AcDbSpline
210
0.0
220
0.0
230
1.0
 70
     8
 71
     3
 72
     8
 73
     4
 74
     0
 42
0.000000001
 43
0.0000000001
 40
0.0
 40
0.0
 40
0.0
 40
0.0
 40
1.0
 40
1.0
 40
1.0
 40
1.0
 10
185.4259
 20
111.8035
 30
0.0
 10
184.6183
 20
111.7753
 30
0.0
 10
183.9782
 20
111.1125
 30
0.0
 10
183.9782
 20
110.3044
 30
0.0
  0
SPLINE
  5
FE
330
1F
100
AcDbEntity
  8
Capa 1
370
    15
100
AcDbSpline
210
0.0
220
0.0
230
1.0
 70
     8
 71
     3
 72
     8
 73
     4
 74
     0
 42
0.000000001
 43
0.0000000001
 40
0.0
 40
0.0
 40
0.0
 40
0.0
 40
1.0
 40
1.0
 40
1.0
 40
1.0
 10
183.9783
 20
32.4805
 30
0.0
 10
183.9783
 20
31.6724
 30
0.0
 10
184.6183
 20
31.0096
 30
0.0
 10
185.4259
 20
30.9814
 30
0.0
  0
SPLINE
  5
FF
330
1F
100
AcDbEntity
  8
Capa 1
370
    15
100
AcDbSpline
210
0.0
220
0.0
230
1.0
 70
    24
 71
     3
 72
     8
 73
     4
 74
     0
 42
0.000000001
 43
0.0000000001
 40
0.0
 40
0.0
 40
0.0
 40
0.0
 40
1.0
 40
1.0
 40
1.0
 40
1.0
 10
187.9783
 20
30.8923
 30
0.0
 10
187.9783
 20
30.8923
 30
0.0
 10
185.4259
 20
30.9814
 30
0.0
 10
185.4259
 20
30.9814
 30
0.0
  0
SPLINE
  5
100
330
1F
100
AcDbEntity
  8
Capa 1
370
    15
100
AcDbSpline
210
0.0
220
0.0
230
1.0
 70
    24
 71
     3
 72
     8
 73
     4
 74
     0
 42
0.000000001
 43
0.0000000001
 40
0.0
 40
0.0
 40
0.0
 40
0.0
 40
1.0
 40
1.0
 40
1.0
 40
1.0
 10
187.9783
 20
30.8923
 30
0.0
 10
187.9783
 20
30.8923
 30
0.0
 10
187.9783
 20
20.8923
 30
0.0
 10
187.9783
 20
20.8923
 30
0.0
  0
SPLINE
  5
101
330
1F
100
AcDbEntity
  8
Capa 1
370
    15
100
AcDbSpline
210
0.0
220
0.0
230
1.0
 70
    24
 71
     3
 72
     8
 73
     4
 74
     0
 42
0.000000001
 43
0.0000000001
 40
0.0
 40
0.0
 40
0.0
 40
0.0
 40
1.0
 40
1.0
 40
1.0
 40
1.0
 10
185.4259
 20
20.8031
 30
0.0
 10
185.4259
 20
20.8031
 30
0.0
 10
187.9783
 20
20.8923
 30
0.0
 10
187.9783
 20
20.8923
 30
0.0
  0
SPLINE
  5
102
330
1F
100
AcDbEntity
  8
Capa 1
370
    15
100
AcDbSpline
210
0.0
220
0.0
230
1.0
 70
     8
 71
     3
 72
     8
 73
     4
 74
     0
 42
0.000000001
 43
0.0000000001
 40
0.0
 40
0.0
 40
0.0
 40
0.0
 40
1.0
 40
1.0
 40
1.0
 40
1.0
 10
185.4259
 20
20.8031
 30
0.0
 10
184.6183
 20
20.7749
 30
0.0
 10
183.9783
 20
20.1121
 30
0.0
 10
183.9783
 20
19.304
 30
0.0
  0
SPLINE
  5
103
330
1F
100
AcDbEntity
  8
Capa 1
370
    15
100
AcDbSpline
210
0.0
220
0.0
230
1.0
 70
    24
 71
     3
 72
     8
 73
     4
 74
     0
 42
0.000000001
 43
0.0000000001
 40
0.0
 40
0.0
 40
0.0
 40
0.0
 40
1.0
 40
1.0
 40
1.0
 40
1.0
 10
183.9783
 20
19.304
 30
0.0
 10
183.9783
 20
19.304
 30
0.0
 10
183.9783
 20
2.3923
 30
0.0
 10
183.9783
 20
2.3923
 30
0.0
  0
SPLINE
  5
104
330
1F
100
AcDbEntity
  8
Capa 1
370
    15
100
AcDbSpline
210
0.0
220
0.0
230
1.0
 70
    24
 71
     3
 72
     8
 73
     4
 74
     0
 42
0.000000001
 43
0.0000000001
 40
0.0
 40
0.0
 40
0.0
 40
0.0
 40
1.0
 40
1.0
 40
1.0
 40
1.0
 10
183.6447
 20
2.3923
 30
0.0
 10
183.6447
 20
2.3923
 30
0.0
 10
177.6573
 20
2.3923
 30
0.0
 10
177.6573
 20
2.3923
 30
0.0
  0
SPLINE
  5
105
330
1F
100
AcDbEntity
  8
Capa 1
370
    15
100
AcDbSpline
210
0.0
220
0.0
230
1.0
 70
     8
 71
     3
 72
     8
 73
     4
 74
     0
 42
0.000000001
 43
0.0000000001
 40
0.0
 40
0.0
 40
0.0
 40
0.0
 40
1.0
 40
1.0
 40
1.0
 40
1.0
 10
177.6573
 20
2.3923
 30
0.0
 10
177.5353
 20
3.114
 30
0.0
 10
176.9102
 20
3.6422
 30
0.0
 10
176.1783
 20
3.6422
 30
0.0
  0
SPLINE
  5
106
330
1F
100
AcDbEntity
  8
Capa 1
370
    15
100
AcDbSpline
210
0.0
220
0.0
230
1.0
 70
    24
 71
     3
 72
     8
 73
     4
 74
     0
 42
0.000000001
 43
0.0000000001
 40
0.0
 40
0.0
 40
0.0
 40
0.0
 40
1.0
 40
1.0
 40
1.0
 40
1.0
 10
176.1783
 20
3.6423
 30
0.0
 10
176.1783
 20
3.6423
 30
0.0
 10
174.7783
 20
3.6423
 30
0.0
 10
174.7783
 20
3.6423
 30
0.0
  0
SPLINE
  5
107
330
1F
100
AcDbEntity
  8
Capa 1
370
    15
100
AcDbSpline
210
0.0
220
0.0
230
1.0
 70
     8
 71
     3
 72
     8
 73
     4
 74
     0
 42
0.000000001
 43
0.0000000001
 40
0.0
 40
0.0
 40
0.0
 40
0.0
 40
1.0
 40
1.0
 40
1.0
 40
1.0
 10
174.7783
 20
3.6422
 30
0.0
 10
174.0463
 20
3.6422
 30
0.0
 10
173.4212
 20
3.114
 30
0.0
 10
173.2992
 20
2.3923
 30
0.0
  0
SPLINE
  5
108
330
1F
100
AcDbEntity
  8
Capa 1
370
    15
100
AcDbSpline
210
0.0
220
0.0
230
1.0
 70
    24
 71
     3
 72
     8
 73
     4
 74
     0
 42
0.000000001
 43
0.0000000001
 40
0.0
 40
0.0
 40
0.0
 40
0.0
 40
1.0
 40
1.0
 40
1.0
 40
1.0
 10
173.2992
 20
2.3923
 30
0.0
 10
173.2992
 20
2.3923
 30
0.0
 10
173.2992
 20
2.2298
 30
0.0
 10
173.2992
 20
2.2298
 30
0.0
  0
SPLINE
  5
109
330
1F
100
AcDbEntity
  8
Capa 1
370
    15
100
AcDbSpline
210
0.0
220
0.0
230
1.0
 70
     8
 71
     3
 72
    12
 73
     8
 74
     0
 42
0.000000001
 43
0.0000000001
 40
0.0
 40
0.0
 40
0.0
 40
0.0
 40
0.3333333333333333
 40
0.3333333333333333
 40
0.3333333333333333
 40
0.3333333333333333
 40
1.0
 40
1.0
 40
1.0
 40
1.0
 10
173.2992
 20
2.2298
 30
0.0
 10
172.7956
 20
1.9741
 30
0.0
 10
172.4783
 20
1.4571
 30
0.0
 10
172.4783
 20
0.8923
 30
0.0
 10
172.4783
 20
0.8923
 30
0.0
 10
172.4783
 20
0.3275
 30
0.0
 10
172.7956
 20
-0.1895
 30
0.0
 10
173.2992
 20
-0.4452
 30
0.0
  0
SPLINE
  5
10A
330
1F
100
AcDbEntity
  8
Capa 1
370
    15
100
AcDbSpline
210
0.0
220
0.0
230
1.0
 70
    24
 71
     3
 72
     8
 73
     4
 74
     0
 42
0.000000001
 43
0.0000000001
 40
0.0
 40
0.0
 40
0.0
 40
0.0
 40
1.0
 40
1.0
 40
1.0
 40
1.0
 10
173.2992
 20
-0.4452
 30
0.0
 10
173.2992
 20
-0.4452
 30
0.0
 10
173.2992
 20
-0.6077
 30
0.0
 10
173.2992
 20
-0.6077
 30
0.0
  0
SPLINE
  5
10B
330
1F
100
AcDbEntity
  8
Capa 1
370
    15
100
AcDbSpline
210
0.0
220
0.0
230
1.0
 70
     8
 71
     3
 72
     8
 73
     4
 74
     0
 42
0.000000001
 43
0.0000000001
 40
0.0
 40
0.0
 40
0.0
 40
0.0
 40
1.0
 40
1.0
 40
1.0
 40
1.0
 10
173.2992
 20
-0.6077
 30
0.0
 10
173.4212
 20
-1.3294
 30
0.0
 10
174.0463
 20
-1.8576
 30
0.0
 10
174.7783
 20
-1.8576
 30
0.0
  0
SPLINE
  5
10C
330
1F
100
AcDbEntity
  8
Capa 1
370
    15
100
AcDbSpline
210
0.0
220
0.0
230
1.0
 70
    24
 71
     3
 72
     8
 73
     4
 74
     0
 42
0.000000001
 43
0.0000000001
 40
0.0
 40
0.0
 40
0.0
 40
0.0
 40
1.0
 40
1.0
 40
1.0
 40
1.0
 10
174.7783
 20
-1.8577
 30
0.0
 10
174.7783
 20
-1.8577
 30
0.0
 10
176.1783
 20
-1.8577
 30
0.0
 10
176.1783
 20
-1.8577
 30
0.0
  0
SPLINE
  5
10D
330
1F
100
AcDbEntity
  8
Capa 1
370
    15
100
AcDbSpline
210
0.0
220
0.0
230
1.0
 70
     8
 71
     3
 72
     8
 73
     4
 74
     0
 42
0.000000001
 43
0.0000000001
 40
0.0
 40
0.0
 40
0.0
 40
0.0
 40
1.0
 40
1.0
 40
1.0
 40
1.0
 10
176.1783
 20
-1.8576
 30
0.0
 10
176.9102
 20
-1.8576
 30
0.0
 10
177.5353
 20
-1.3294
 30
0.0
 10
177.6573
 20
-0.6077
 30
0.0
  0
SPLINE
  5
10E
330
1F
100
AcDbEntity
  8
Capa 1
370
    15
100
AcDbSpline
210
0.0
220
0.0
230
1.0
 70
    24
 71
     3
 72
     8
 73
     4
 74
     0
 42
0.000000001
 43
0.0000000001
 40
0.0
 40
0.0
 40
0.0
 40
0.0
 40
1.0
 40
1.0
 40
1.0
 40
1.0
 10
177.6573
 20
-0.6077
 30
0.0
 10
177.6573
 20
-0.6077
 30
0.0
 10
183.6315
 20
-0.6077
 30
0.0
 10
183.6315
 20
-0.6077
 30
0.0
  0
SPLINE
  5
10F
330
1F
100
AcDbEntity
  8
Capa 1
370
    15
100
AcDbSpline
210
0.0
220
0.0
230
1.0
 70
    24
 71
     3
 72
     8
 73
     4
 74
     0
 42
0.000000001
 43
0.0000000001
 40
0.0
 40
0.0
 40
0.0
 40
0.0
 40
1.0
 40
1.0
 40
1.0
 40
1.0
 10
183.9783
 20
-0.6077
 30
0.0
 10
183.9783
 20
-0.6077
 30
0.0
 10
183.9783
 20
-17.5194
 30
0.0
 10
183.9783
 20
-17.5194
 30
0.0
  0
SPLINE
  5
110
330
1F
100
AcDbEntity
  8
Capa 1
370
    15
100
AcDbSpline
210
0.0
220
0.0
230
1.0
 70
     8
 71
     3
 72
     8
 73
     4
 74
     0
 42
0.000000001
 43
0.0000000001
 40
0.0
 40
0.0
 40
0.0
 40
0.0
 40
1.0
 40
1.0
 40
1.0
 40
1.0
 10
183.9783
 20
-17.5194
 30
0.0
 10
183.9783
 20
-18.3275
 30
0.0
 10
184.6183
 20
-18.9903
 30
0.0
 10
185.4259
 20
-19.0185
 30
0.0
  0
SPLINE
  5
111
330
1F
100
AcDbEntity
  8
Capa 1
370
    15
100
AcDbSpline
210
0.0
220
0.0
230
1.0
 70
    24
 71
     3
 72
     8
 73
     4
 74
     0
 42
0.000000001
 43
0.0000000001
 40
0.0
 40
0.0
 40
0.0
 40
0.0
 40
1.0
 40
1.0
 40
1.0
 40
1.0
 10
187.9783
 20
-19.1077
 30
0.0
 10
187.9783
 20
-19.1077
 30
0.0
 10
185.4259
 20
-19.0185
 30
0.0
 10
185.4259
 20
-19.0185
 30
0.0
  0
SPLINE
  5
112
330
1F
100
AcDbEntity
  8
Capa 1
370
    15
100
AcDbSpline
210
0.0
220
0.0
230
1.0
 70
    24
 71
     3
 72
     8
 73
     4
 74
     0
 42
0.000000001
 43
0.0000000001
 40
0.0
 40
0.0
 40
0.0
 40
0.0
 40
1.0
 40
1.0
 40
1.0
 40
1.0
 10
187.9783
 20
-19.1077
 30
0.0
 10
187.9783
 20
-19.1077
 30
0.0
 10
187.9783
 20
-29.1077
 30
0.0
 10
187.9783
 20
-29.1077
 30
0.0
  0
SPLINE
  5
113
330
1F
100
AcDbEntity
  8
Capa 1
370
    15
100
AcDbSpline
210
0.0
220
0.0
230
1.0
 70
    24
 71
     3
 72
     8
 73
     4
 74
     0
 42
0.000000001
 43
0.0000000001
 40
0.0
 40
0.0
 40
0.0
 40
0.0
 40
1.0
 40
1.0
 40
1.0
 40
1.0
 10
185.4259
 20
-29.1968
 30
0.0
 10
185.4259
 20
-29.1968
 30
0.0
 10
187.9783
 20
-29.1077
 30
0.0
 10
187.9783
 20
-29.1077
 30
0.0
  0
SPLINE
  5
114
330
1F
100
AcDbEntity
  8
Capa 1
370
    15
100
AcDbSpline
210
0.0
220
0.0
230
1.0
 70
     8
 71
     3
 72
     8
 73
     4
 74
     0
 42
0.000000001
 43
0.0000000001
 40
0.0
 40
0.0
 40
0.0
 40
0.0
 40
1.0
 40
1.0
 40
1.0
 40
1.0
 10
185.4259
 20
-29.1968
 30
0.0
 10
184.6183
 20
-29.225
 30
0.0
 10
183.9783
 20
-29.8878
 30
0.0
 10
183.9783
 20
-30.6959
 30
0.0
  0
SPLINE
  5
115
330
1F
100
AcDbEntity
  8
Capa 1
370
    15
100
AcDbSpline
210
0.0
220
0.0
230
1.0
 70
     8
 71
     3
 72
     8
 73
     4
 74
     0
 42
0.000000001
 43
0.0000000001
 40
0.0
 40
0.0
 40
0.0
 40
0.0
 40
1.0
 40
1.0
 40
1.0
 40
1.0
 10
183.9782
 20
-108.5191
 30
0.0
 10
183.9782
 20
-109.3272
 30
0.0
 10
184.6183
 20
-109.99
 30
0.0
 10
185.4259
 20
-110.0182
 30
0.0
  0
SPLINE
  5
116
330
1F
100
AcDbEntity
  8
Capa 1
370
    15
100
AcDbSpline
210
0.0
220
0.0
230
1.0
 70
    24
 71
     3
 72
     8
 73
     4
 74
     0
 42
0.000000001
 43
0.0000000001
 40
0.0
 40
0.0
 40
0.0
 40
0.0
 40
1.0
 40
1.0
 40
1.0
 40
1.0
 10
187.9783
 20
-110.1074
 30
0.0
 10
187.9783
 20
-110.1074
 30
0.0
 10
185.4259
 20
-110.0182
 30
0.0
 10
185.4259
 20
-110.0182
 30
0.0
  0
SPLINE
  5
117
330
1F
100
AcDbEntity
  8
Capa 1
370
    15
100
AcDbSpline
210
0.0
220
0.0
230
1.0
 70
    24
 71
     3
 72
     8
 73
     4
 74
     0
 42
0.000000001
 43
0.0000000001
 40
0.0
 40
0.0
 40
0.0
 40
0.0
 40
1.0
 40
1.0
 40
1.0
 40
1.0
 10
187.9783
 20
-110.1074
 30
0.0
 10
187.9783
 20
-110.1074
 30
0.0
 10
187.9783
 20
-120.1074
 30
0.0
 10
187.9783
 20
-120.1074
 30
0.0
  0
SPLINE
  5
118
330
1F
100
AcDbEntity
  8
Capa 1
370
    15
100
AcDbSpline
210
0.0
220
0.0
230
1.0
 70
    24
 71
     3
 72
     8
 73
     4
 74
     0
 42
0.000000001
 43
0.0000000001
 40
0.0
 40
0.0
 40
0.0
 40
0.0
 40
1.0
 40
1.0
 40
1.0
 40
1.0
 10
185.4259
 20
-120.1965
 30
0.0
 10
185.4259
 20
-120.1965
 30
0.0
 10
187.9783
 20
-120.1074
 30
0.0
 10
187.9783
 20
-120.1074
 30
0.0
  0
SPLINE
  5
119
330
1F
100
AcDbEntity
  8
Capa 1
370
    15
100
AcDbSpline
210
0.0
220
0.0
230
1.0
 70
     8
 71
     3
 72
     8
 73
     4
 74
     0
 42
0.000000001
 43
0.0000000001
 40
0.0
 40
0.0
 40
0.0
 40
0.0
 40
1.0
 40
1.0
 40
1.0
 40
1.0
 10
185.4259
 20
-120.1965
 30
0.0
 10
184.6183
 20
-120.2247
 30
0.0
 10
183.9783
 20
-120.8875
 30
0.0
 10
183.9783
 20
-121.6956
 30
0.0
  0
SPLINE
  5
11A
330
1F
100
AcDbEntity
  8
Capa 1
370
    15
100
AcDbSpline
210
0.0
220
0.0
230
1.0
 70
    24
 71
     3
 72
     8
 73
     4
 74
     0
 42
0.000000001
 43
0.0000000001
 40
0.0
 40
0.0
 40
0.0
 40
0.0
 40
1.0
 40
1.0
 40
1.0
 40
1.0
 10
183.9783
 20
-121.6956
 30
0.0
 10
183.9783
 20
-121.6956
 30
0.0
 10
183.9783
 20
-138.6074
 30
0.0
 10
183.9783
 20
-138.6074
 30
0.0
  0
SPLINE
  5
11B
330
1F
100
AcDbEntity
  8
Capa 1
370
    15
100
AcDbSpline
210
0.0
220
0.0
230
1.0
 70
    24
 71
     3
 72
     8
 73
     4
 74
     0
 42
0.000000001
 43
0.0000000001
 40
0.0
 40
0.0
 40
0.0
 40
0.0
 40
1.0
 40
1.0
 40
1.0
 40
1.0
 10
183.6842
 20
-138.6074
 30
0.0
 10
183.6842
 20
-138.6074
 30
0.0
 10
177.6573
 20
-138.6074
 30
0.0
 10
177.6573
 20
-138.6074
 30
0.0
  0
SPLINE
  5
11C
330
1F
100
AcDbEntity
  8
Capa 1
370
    15
100
AcDbSpline
210
0.0
220
0.0
230
1.0
 70
     8
 71
     3
 72
     8
 73
     4
 74
     0
 42
0.000000001
 43
0.0000000001
 40
0.0
 40
0.0
 40
0.0
 40
0.0
 40
1.0
 40
1.0
 40
1.0
 40
1.0
 10
177.6573
 20
-138.6073
 30
0.0
 10
177.5353
 20
-137.8856
 30
0.0
 10
176.9102
 20
-137.3574
 30
0.0
 10
176.1783
 20
-137.3574
 30
0.0
  0
SPLINE
  5
11D
330
1F
100
AcDbEntity
  8
Capa 1
370
    15
100
AcDbSpline
210
0.0
220
0.0
230
1.0
 70
    24
 71
     3
 72
     8
 73
     4
 74
     0
 42
0.000000001
 43
0.0000000001
 40
0.0
 40
0.0
 40
0.0
 40
0.0
 40
1.0
 40
1.0
 40
1.0
 40
1.0
 10
176.1783
 20
-137.3574
 30
0.0
 10
176.1783
 20
-137.3574
 30
0.0
 10
174.7783
 20
-137.3574
 30
0.0
 10
174.7783
 20
-137.3574
 30
0.0
  0
SPLINE
  5
11E
330
1F
100
AcDbEntity
  8
Capa 1
370
    15
100
AcDbSpline
210
0.0
220
0.0
230
1.0
 70
     8
 71
     3
 72
     8
 73
     4
 74
     0
 42
0.000000001
 43
0.0000000001
 40
0.0
 40
0.0
 40
0.0
 40
0.0
 40
1.0
 40
1.0
 40
1.0
 40
1.0
 10
174.7783
 20
-137.3574
 30
0.0
 10
174.0463
 20
-137.3574
 30
0.0
 10
173.4212
 20
-137.8856
 30
0.0
 10
173.2992
 20
-138.6073
 30
0.0
  0
SPLINE
  5
11F
330
1F
100
AcDbEntity
  8
Capa 1
370
    15
100
AcDbSpline
210
0.0
220
0.0
230
1.0
 70
    24
 71
     3
 72
     8
 73
     4
 74
     0
 42
0.000000001
 43
0.0000000001
 40
0.0
 40
0.0
 40
0.0
 40
0.0
 40
1.0
 40
1.0
 40
1.0
 40
1.0
 10
173.2992
 20
-138.6074
 30
0.0
 10
173.2992
 20
-138.6074
 30
0.0
 10
173.2992
 20
-138.7698
 30
0.0
 10
173.2992
 20
-138.7698
 30
0.0
  0
SPLINE
  5
120
330
1F
100
AcDbEntity
  8
Capa 1
370
    15
100
AcDbSpline
210
0.0
220
0.0
230
1.0
 70
     8
 71
     3
 72
    12
 73
     8
 74
     0
 42
0.000000001
 43
0.0000000001
 40
0.0
 40
0.0
 40
0.0
 40
0.0
 40
0.3333333333333333
 40
0.3333333333333333
 40
0.3333333333333333
 40
0.3333333333333333
 40
1.0
 40
1.0
 40
1.0
 40
1.0
 10
173.2992
 20
-138.7698
 30
0.0
 10
172.7956
 20
-139.0255
 30
0.0
 10
172.4783
 20
-139.5425
 30
0.0
 10
172.4783
 20
-140.1074
 30
0.0
 10
172.4783
 20
-140.1074
 30
0.0
 10
172.4783
 20
-140.6722
 30
0.0
 10
172.7956
 20
-141.1892
 30
0.0
 10
173.2992
 20
-141.4449
 30
0.0
  0
SPLINE
  5
121
330
1F
100
AcDbEntity
  8
Capa 1
370
    15
100
AcDbSpline
210
0.0
220
0.0
230
1.0
 70
    24
 71
     3
 72
     8
 73
     4
 74
     0
 42
0.000000001
 43
0.0000000001
 40
0.0
 40
0.0
 40
0.0
 40
0.0
 40
1.0
 40
1.0
 40
1.0
 40
1.0
 10
173.2992
 20
-141.4449
 30
0.0
 10
173.2992
 20
-141.4449
 30
0.0
 10
173.2992
 20
-141.6074
 30
0.0
 10
173.2992
 20
-141.6074
 30
0.0
  0
SPLINE
  5
122
330
1F
100
AcDbEntity
  8
Capa 1
370
    15
100
AcDbSpline
210
0.0
220
0.0
230
1.0
 70
     8
 71
     3
 72
     8
 73
     4
 74
     0
 42
0.000000001
 43
0.0000000001
 40
0.0
 40
0.0
 40
0.0
 40
0.0
 40
1.0
 40
1.0
 40
1.0
 40
1.0
 10
173.2992
 20
-141.6074
 30
0.0
 10
173.4212
 20
-142.3291
 30
0.0
 10
174.0463
 20
-142.8573
 30
0.0
 10
174.7783
 20
-142.8573
 30
0.0
  0
SPLINE
  5
123
330
1F
100
AcDbEntity
  8
Capa 1
370
    15
100
AcDbSpline
210
0.0
220
0.0
230
1.0
 70
    24
 71
     3
 72
     8
 73
     4
 74
     0
 42
0.000000001
 43
0.0000000001
 40
0.0
 40
0.0
 40
0.0
 40
0.0
 40
1.0
 40
1.0
 40
1.0
 40
1.0
 10
174.7783
 20
-142.8574
 30
0.0
 10
174.7783
 20
-142.8574
 30
0.0
 10
176.1783
 20
-142.8574
 30
0.0
 10
176.1783
 20
-142.8574
 30
0.0
  0
SPLINE
  5
124
330
1F
100
AcDbEntity
  8
Capa 1
370
    15
100
AcDbSpline
210
0.0
220
0.0
230
1.0
 70
     8
 71
     3
 72
     8
 73
     4
 74
     0
 42
0.000000001
 43
0.0000000001
 40
0.0
 40
0.0
 40
0.0
 40
0.0
 40
1.0
 40
1.0
 40
1.0
 40
1.0
 10
176.1783
 20
-142.8573
 30
0.0
 10
176.9102
 20
-142.8573
 30
0.0
 10
177.5353
 20
-142.3291
 30
0.0
 10
177.6573
 20
-141.6074
 30
0.0
  0
SPLINE
  5
125
330
1F
100
AcDbEntity
  8
Capa 1
370
    15
100
AcDbSpline
210
0.0
220
0.0
230
1.0
 70
    24
 71
     3
 72
     8
 73
     4
 74
     0
 42
0.000000001
 43
0.0000000001
 40
0.0
 40
0.0
 40
0.0
 40
0.0
 40
1.0
 40
1.0
 40
1.0
 40
1.0
 10
177.6573
 20
-141.6074
 30
0.0
 10
177.6573
 20
-141.6074
 30
0.0
 10
183.6975
 20
-141.6074
 30
0.0
 10
183.6975
 20
-141.6074
 30
0.0
  0
SPLINE
  5
126
330
1F
100
AcDbEntity
  8
Capa 1
370
    15
100
AcDbSpline
210
0.0
220
0.0
230
1.0
 70
    24
 71
     3
 72
     8
 73
     4
 74
     0
 42
0.000000001
 43
0.0000000001
 40
0.0
 40
0.0
 40
0.0
 40
0.0
 40
1.0
 40
1.0
 40
1.0
 40
1.0
 10
183.9783
 20
-141.6074
 30
0.0
 10
183.9783
 20
-141.6074
 30
0.0
 10
183.9783
 20
-176.9074
 30
0.0
 10
183.9783
 20
-176.9074
 30
0.0
  0
SPLINE
  5
127
330
1F
100
AcDbEntity
  8
Capa 1
370
    15
100
AcDbSpline
210
0.0
220
0.0
230
1.0
 70
     8
 71
     3
 72
     8
 73
     4
 74
     0
 42
0.000000001
 43
0.0000000001
 40
0.0
 40
0.0
 40
0.0
 40
0.0
 40
1.0
 40
1.0
 40
1.0
 40
1.0
 10
177.9783
 20
-182.9073
 30
0.0
 10
181.2919
 20
-182.9073
 30
0.0
 10
183.9782
 20
-180.2211
 30
0.0
 10
183.9782
 20
-176.9074
 30
0.0
  0
SPLINE
  5
128
330
1F
100
AcDbEntity
  8
Capa 1
370
    15
100
AcDbSpline
210
0.0
220
0.0
230
1.0
 70
    24
 71
     3
 72
     8
 73
     4
 74
     0
 42
0.000000001
 43
0.0000000001
 40
0.0
 40
0.0
 40
0.0
 40
0.0
 40
1.0
 40
1.0
 40
1.0
 40
1.0
 10
177.9783
 20
-182.9074
 30
0.0
 10
177.9783
 20
-182.9074
 30
0.0
 10
139.1783
 20
-182.9074
 30
0.0
 10
139.1783
 20
-182.9074
 30
0.0
  0
SPLINE
  5
129
330
1F
100
AcDbEntity
  8
Capa 1
370
    15
100
AcDbSpline
210
0.0
220
0.0
230
1.0
 70
    24
 71
     3
 72
     8
 73
     4
 74
     0
 42
0.000000001
 43
0.0000000001
 40
0.0
 40
0.0
 40
0.0
 40
0.0
 40
1.0
 40
1.0
 40
1.0
 40
1.0
 10
139.1783
 20
-182.6489
 30
0.0
 10
139.1783
 20
-182.6489
 30
0.0
 10
139.1783
 20
-176.5864
 30
0.0
 10
139.1783
 20
-176.5864
 30
0.0
  0
SPLINE
  5
12A
330
1F
100
AcDbEntity
  8
Capa 1
370
    15
100
AcDbSpline
210
0.0
220
0.0
230
1.0
 70
     8
 71
     3
 72
     8
 73
     4
 74
     0
 42
0.000000001
 43
0.0000000001
 40
0.0
 40
0.0
 40
0.0
 40
0.0
 40
1.0
 40
1.0
 40
1.0
 40
1.0
 10
139.1783
 20
-176.5864
 30
0.0
 10
139.9
 20
-176.4644
 30
0.0
 10
140.4282
 20
-175.8393
 30
0.0
 10
140.4282
 20
-175.1074
 30
0.0
  0
SPLINE
  5
12B
330
1F
100
AcDbEntity
  8
Capa 1
370
    15
100
AcDbSpline
210
0.0
220
0.0
230
1.0
 70
    24
 71
     3
 72
     8
 73
     4
 74
     0
 42
0.000000001
 43
0.0000000001
 40
0.0
 40
0.0
 40
0.0
 40
0.0
 40
1.0
 40
1.0
 40
1.0
 40
1.0
 10
140.4283
 20
-175.1074
 30
0.0
 10
140.4283
 20
-175.1074
 30
0.0
 10
140.4283
 20
-173.7074
 30
0.0
 10
140.4283
 20
-173.7074
 30
0.0
  0
SPLINE
  5
12C
330
1F
100
AcDbEntity
  8
Capa 1
370
    15
100
AcDbSpline
210
0.0
220
0.0
230
1.0
 70
     8
 71
     3
 72
     8
 73
     4
 74
     0
 42
0.000000001
 43
0.0000000001
 40
0.0
 40
0.0
 40
0.0
 40
0.0
 40
1.0
 40
1.0
 40
1.0
 40
1.0
 10
140.4283
 20
-173.7074
 30
0.0
 10
140.4283
 20
-172.9754
 30
0.0
 10
139.9
 20
-172.3503
 30
0.0
 10
139.1783
 20
-172.2283
 30
0.0
  0
SPLINE
  5
12D
330
1F
100
AcDbEntity
  8
Capa 1
370
    15
100
AcDbSpline
210
0.0
220
0.0
230
1.0
 70
    24
 71
     3
 72
     8
 73
     4
 74
     0
 42
0.000000001
 43
0.0000000001
 40
0.0
 40
0.0
 40
0.0
 40
0.0
 40
1.0
 40
1.0
 40
1.0
 40
1.0
 10
139.1783
 20
-172.2283
 30
0.0
 10
139.1783
 20
-172.2283
 30
0.0
 10
139.0158
 20
-172.2283
 30
0.0
 10
139.0158
 20
-172.2283
 30
0.0
  0
SPLINE
  5
12E
330
1F
100
AcDbEntity
  8
Capa 1
370
    15
100
AcDbSpline
210
0.0
220
0.0
230
1.0
 70
     8
 71
     3
 72
    12
 73
     8
 74
     0
 42
0.000000001
 43
0.0000000001
 40
0.0
 40
0.0
 40
0.0
 40
0.0
 40
0.3333333333333333
 40
0.3333333333333333
 40
0.3333333333333333
 40
0.3333333333333333
 40
1.0
 40
1.0
 40
1.0
 40
1.0
 10
139.0158
 20
-172.2283
 30
0.0
 10
138.7601
 20
-171.7247
 30
0.0
 10
138.2431
 20
-171.4074
 30
0.0
 10
137.6783
 20
-171.4074
 30
0.0
 10
137.6783
 20
-171.4074
 30
0.0
 10
137.1134
 20
-171.4074
 30
0.0
 10
136.5964
 20
-171.7247
 30
0.0
 10
136.3407
 20
-172.2283
 30
0.0
  0
SPLINE
  5
12F
330
1F
100
AcDbEntity
  8
Capa 1
370
    15
100
AcDbSpline
210
0.0
220
0.0
230
1.0
 70
    24
 71
     3
 72
     8
 73
     4
 74
     0
 42
0.000000001
 43
0.0000000001
 40
0.0
 40
0.0
 40
0.0
 40
0.0
 40
1.0
 40
1.0
 40
1.0
 40
1.0
 10
136.3407
 20
-172.2283
 30
0.0
 10
136.3407
 20
-172.2283
 30
0.0
 10
136.1783
 20
-172.2283
 30
0.0
 10
136.1783
 20
-172.2283
 30
0.0
  0
SPLINE
  5
130
330
1F
100
AcDbEntity
  8
Capa 1
370
    15
100
AcDbSpline
210
0.0
220
0.0
230
1.0
 70
     8
 71
     3
 72
     8
 73
     4
 74
     0
 42
0.000000001
 43
0.0000000001
 40
0.0
 40
0.0
 40
0.0
 40
0.0
 40
1.0
 40
1.0
 40
1.0
 40
1.0
 10
136.1782
 20
-172.2283
 30
0.0
 10
135.4565
 20
-172.3503
 30
0.0
 10
134.9282
 20
-172.9754
 30
0.0
 10
134.9282
 20
-173.7074
 30
0.0
  0
SPLINE
  5
131
330
1F
100
AcDbEntity
  8
Capa 1
370
    15
100
AcDbSpline
210
0.0
220
0.0
230
1.0
 70
    24
 71
     3
 72
     8
 73
     4
 74
     0
 42
0.000000001
 43
0.0000000001
 40
0.0
 40
0.0
 40
0.0
 40
0.0
 40
1.0
 40
1.0
 40
1.0
 40
1.0
 10
134.9283
 20
-173.7074
 30
0.0
 10
134.9283
 20
-173.7074
 30
0.0
 10
134.9283
 20
-175.1074
 30
0.0
 10
134.9283
 20
-175.1074
 30
0.0
  0
SPLINE
  5
132
330
1F
100
AcDbEntity
  8
Capa 1
370
    15
100
AcDbSpline
210
0.0
220
0.0
230
1.0
 70
     8
 71
     3
 72
     8
 73
     4
 74
     0
 42
0.000000001
 43
0.0000000001
 40
0.0
 40
0.0
 40
0.0
 40
0.0
 40
1.0
 40
1.0
 40
1.0
 40
1.0
 10
134.9282
 20
-175.1074
 30
0.0
 10
134.9282
 20
-175.8393
 30
0.0
 10
135.4565
 20
-176.4644
 30
0.0
 10
136.1782
 20
-176.5864
 30
0.0
  0
SPLINE
  5
133
330
1F
100
AcDbEntity
  8
Capa 1
370
    15
100
AcDbSpline
210
0.0
220
0.0
230
1.0
 70
    24
 71
     3
 72
     8
 73
     4
 74
     0
 42
0.000000001
 43
0.0000000001
 40
0.0
 40
0.0
 40
0.0
 40
0.0
 40
1.0
 40
1.0
 40
1.0
 40
1.0
 10
136.1783
 20
-176.5864
 30
0.0
 10
136.1783
 20
-176.5864
 30
0.0
 10
136.1783
 20
-182.6356
 30
0.0
 10
136.1783
 20
-182.6356
 30
0.0
  0
SPLINE
  5
134
330
1F
100
AcDbEntity
  8
Capa 1
370
    15
100
AcDbSpline
210
0.0
220
0.0
230
1.0
 70
    24
 71
     3
 72
     8
 73
     4
 74
     0
 42
0.000000001
 43
0.0000000001
 40
0.0
 40
0.0
 40
0.0
 40
0.0
 40
1.0
 40
1.0
 40
1.0
 40
1.0
 10
136.1783
 20
-182.9074
 30
0.0
 10
136.1783
 20
-182.9074
 30
0.0
 10
119.2165
 20
-182.9074
 30
0.0
 10
119.2165
 20
-182.9074
 30
0.0
  0
SPLINE
  5
135
330
1F
100
AcDbEntity
  8
Capa 1
370
    15
100
AcDbSpline
210
0.0
220
0.0
230
1.0
 70
     8
 71
     3
 72
     8
 73
     4
 74
     0
 42
0.000000001
 43
0.0000000001
 40
0.0
 40
0.0
 40
0.0
 40
0.0
 40
1.0
 40
1.0
 40
1.0
 40
1.0
 10
119.2165
 20
-182.9074
 30
0.0
 10
118.4084
 20
-182.9074
 30
0.0
 10
117.7456
 20
-183.5474
 30
0.0
 10
117.7174
 20
-184.355
 30
0.0
  0
SPLINE
  5
136
330
1F
100
AcDbEntity
  8
Capa 1
370
    15
100
AcDbSpline
210
0.0
220
0.0
230
1.0
 70
    24
 71
     3
 72
     8
 73
     4
 74
     0
 42
0.000000001
 43
0.0000000001
 40
0.0
 40
0.0
 40
0.0
 40
0.0
 40
1.0
 40
1.0
 40
1.0
 40
1.0
 10
117.6283
 20
-186.9074
 30
0.0
 10
117.6283
 20
-186.9074
 30
0.0
 10
117.7174
 20
-184.355
 30
0.0
 10
117.7174
 20
-184.355
 30
0.0
  0
SPLINE
  5
137
330
1F
100
AcDbEntity
  8
Capa 1
370
    15
100
AcDbSpline
210
0.0
220
0.0
230
1.0
 70
    24
 71
     3
 72
     8
 73
     4
 74
     0
 42
0.000000001
 43
0.0000000001
 40
0.0
 40
0.0
 40
0.0
 40
0.0
 40
1.0
 40
1.0
 40
1.0
 40
1.0
 10
117.6283
 20
-186.9074
 30
0.0
 10
117.6283
 20
-186.9074
 30
0.0
 10
107.6283
 20
-186.9074
 30
0.0
 10
107.6283
 20
-186.9074
 30
0.0
  0
SPLINE
  5
138
330
1F
100
AcDbEntity
  8
Capa 1
370
    15
100
AcDbSpline
210
0.0
220
0.0
230
1.0
 70
    24
 71
     3
 72
     8
 73
     4
 74
     0
 42
0.000000001
 43
0.0000000001
 40
0.0
 40
0.0
 40
0.0
 40
0.0
 40
1.0
 40
1.0
 40
1.0
 40
1.0
 10
107.5391
 20
-184.355
 30
0.0
 10
107.5391
 20
-184.355
 30
0.0
 10
107.6283
 20
-186.9074
 30
0.0
 10
107.6283
 20
-186.9074
 30
0.0
  0
SPLINE
  5
139
330
1F
100
AcDbEntity
  8
Capa 1
370
    15
100
AcDbSpline
210
0.0
220
0.0
230
1.0
 70
     8
 71
     3
 72
     8
 73
     4
 74
     0
 42
0.000000001
 43
0.0000000001
 40
0.0
 40
0.0
 40
0.0
 40
0.0
 40
1.0
 40
1.0
 40
1.0
 40
1.0
 10
107.5391
 20
-184.355
 30
0.0
 10
107.5109
 20
-183.5474
 30
0.0
 10
106.8481
 20
-182.9074
 30
0.0
 10
106.04
 20
-182.9074
 30
0.0
  0
SPLINE
  5
13A
330
1F
100
AcDbEntity
  8
Capa 1
370
    15
100
AcDbSpline
210
0.0
220
0.0
230
1.0
 70
    24
 71
     3
 72
     8
 73
     4
 74
     0
 42
0.000000001
 43
0.0000000001
 40
0.0
 40
0.0
 40
0.0
 40
0.0
 40
1.0
 40
1.0
 40
1.0
 40
1.0
 10
106.04
 20
-182.9074
 30
0.0
 10
106.04
 20
-182.9074
 30
0.0
 10
80.7783
 20
-182.9074
 30
0.0
 10
80.7783
 20
-182.9074
 30
0.0
  0
SPLINE
  5
13B
330
1F
100
AcDbEntity
  8
Capa 1
370
    15
100
AcDbSpline
210
0.0
220
0.0
230
1.0
 70
    24
 71
     3
 72
     8
 73
     4
 74
     0
 42
0.000000001
 43
0.0000000001
 40
0.0
 40
0.0
 40
0.0
 40
0.0
 40
1.0
 40
1.0
 40
1.0
 40
1.0
 10
80.7783
 20
-182.596
 30
0.0
 10
80.7783
 20
-182.596
 30
0.0
 10
80.7783
 20
-176.5864
 30
0.0
 10
80.7783
 20
-176.5864
 30
0.0
  0
SPLINE
  5
13C
330
1F
100
AcDbEntity
  8
Capa 1
370
    15
100
AcDbSpline
210
0.0
220
0.0
230
1.0
 70
     8
 71
     3
 72
     8
 73
     4
 74
     0
 42
0.000000001
 43
0.0000000001
 40
0.0
 40
0.0
 40
0.0
 40
0.0
 40
1.0
 40
1.0
 40
1.0
 40
1.0
 10
80.7783
 20
-176.5864
 30
0.0
 10
81.5
 20
-176.4644
 30
0.0
 10
82.0282
 20
-175.8393
 30
0.0
 10
82.0282
 20
-175.1074
 30
0.0
  0
SPLINE
  5
13D
330
1F
100
AcDbEntity
  8
Capa 1
370
    15
100
AcDbSpline
210
0.0
220
0.0
230
1.0
 70
    24
 71
     3
 72
     8
 73
     4
 74
     0
 42
0.000000001
 43
0.0000000001
 40
0.0
 40
0.0
 40
0.0
 40
0.0
 40
1.0
 40
1.0
 40
1.0
 40
1.0
 10
82.0283
 20
-175.1074
 30
0.0
 10
82.0283
 20
-175.1074
 30
0.0
 10
82.0283
 20
-173.7074
 30
0.0
 10
82.0283
 20
-173.7074
 30
0.0
  0
SPLINE
  5
13E
330
1F
100
AcDbEntity
  8
Capa 1
370
    15
100
AcDbSpline
210
0.0
220
0.0
230
1.0
 70
     8
 71
     3
 72
     8
 73
     4
 74
     0
 42
0.000000001
 43
0.0000000001
 40
0.0
 40
0.0
 40
0.0
 40
0.0
 40
1.0
 40
1.0
 40
1.0
 40
1.0
 10
82.0283
 20
-173.7074
 30
0.0
 10
82.0283
 20
-172.9754
 30
0.0
 10
81.5
 20
-172.3503
 30
0.0
 10
80.7783
 20
-172.2283
 30
0.0
  0
SPLINE
  5
13F
330
1F
100
AcDbEntity
  8
Capa 1
370
    15
100
AcDbSpline
210
0.0
220
0.0
230
1.0
 70
    24
 71
     3
 72
     8
 73
     4
 74
     0
 42
0.000000001
 43
0.0000000001
 40
0.0
 40
0.0
 40
0.0
 40
0.0
 40
1.0
 40
1.0
 40
1.0
 40
1.0
 10
80.7783
 20
-172.2283
 30
0.0
 10
80.7783
 20
-172.2283
 30
0.0
 10
80.6158
 20
-172.2283
 30
0.0
 10
80.6158
 20
-172.2283
 30
0.0
  0
SPLINE
  5
140
330
1F
100
AcDbEntity
  8
Capa 1
370
    15
100
AcDbSpline
210
0.0
220
0.0
230
1.0
 70
     8
 71
     3
 72
    12
 73
     8
 74
     0
 42
0.000000001
 43
0.0000000001
 40
0.0
 40
0.0
 40
0.0
 40
0.0
 40
0.3333333333333333
 40
0.3333333333333333
 40
0.3333333333333333
 40
0.3333333333333333
 40
1.0
 40
1.0
 40
1.0
 40
1.0
 10
80.6158
 20
-172.2283
 30
0.0
 10
80.3601
 20
-171.7247
 30
0.0
 10
79.8431
 20
-171.4074
 30
0.0
 10
79.2783
 20
-171.4074
 30
0.0
 10
79.2783
 20
-171.4074
 30
0.0
 10
78.7134
 20
-171.4074
 30
0.0
 10
78.1964
 20
-171.7247
 30
0.0
 10
77.9407
 20
-172.2283
 30
0.0
  0
SPLINE
  5
141
330
1F
100
AcDbEntity
  8
Capa 1
370
    15
100
AcDbSpline
210
0.0
220
0.0
230
1.0
 70
    24
 71
     3
 72
     8
 73
     4
 74
     0
 42
0.000000001
 43
0.0000000001
 40
0.0
 40
0.0
 40
0.0
 40
0.0
 40
1.0
 40
1.0
 40
1.0
 40
1.0
 10
77.9407
 20
-172.2283
 30
0.0
 10
77.9407
 20
-172.2283
 30
0.0
 10
77.7783
 20
-172.2283
 30
0.0
 10
77.7783
 20
-172.2283
 30
0.0
  0
SPLINE
  5
142
330
1F
100
AcDbEntity
  8
Capa 1
370
    15
100
AcDbSpline
210
0.0
220
0.0
230
1.0
 70
     8
 71
     3
 72
     8
 73
     4
 74
     0
 42
0.000000001
 43
0.0000000001
 40
0.0
 40
0.0
 40
0.0
 40
0.0
 40
1.0
 40
1.0
 40
1.0
 40
1.0
 10
77.7782
 20
-172.2283
 30
0.0
 10
77.0565
 20
-172.3503
 30
0.0
 10
76.5282
 20
-172.9754
 30
0.0
 10
76.5282
 20
-173.7074
 30
0.0
  0
SPLINE
  5
143
330
1F
100
AcDbEntity
  8
Capa 1
370
    15
100
AcDbSpline
210
0.0
220
0.0
230
1.0
 70
    24
 71
     3
 72
     8
 73
     4
 74
     0
 42
0.000000001
 43
0.0000000001
 40
0.0
 40
0.0
 40
0.0
 40
0.0
 40
1.0
 40
1.0
 40
1.0
 40
1.0
 10
76.5283
 20
-173.7074
 30
0.0
 10
76.5283
 20
-173.7074
 30
0.0
 10
76.5283
 20
-175.1074
 30
0.0
 10
76.5283
 20
-175.1074
 30
0.0
  0
SPLINE
  5
144
330
1F
100
AcDbEntity
  8
Capa 1
370
    15
100
AcDbSpline
210
0.0
220
0.0
230
1.0
 70
     8
 71
     3
 72
     8
 73
     4
 74
     0
 42
0.000000001
 43
0.0000000001
 40
0.0
 40
0.0
 40
0.0
 40
0.0
 40
1.0
 40
1.0
 40
1.0
 40
1.0
 10
76.5283
 20
-175.1074
 30
0.0
 10
76.5283
 20
-175.8393
 30
0.0
 10
77.0565
 20
-176.4644
 30
0.0
 10
77.7782
 20
-176.5864
 30
0.0
  0
SPLINE
  5
145
330
1F
100
AcDbEntity
  8
Capa 1
370
    15
100
AcDbSpline
210
0.0
220
0.0
230
1.0
 70
    24
 71
     3
 72
     8
 73
     4
 74
     0
 42
0.000000001
 43
0.0000000001
 40
0.0
 40
0.0
 40
0.0
 40
0.0
 40
1.0
 40
1.0
 40
1.0
 40
1.0
 10
77.7783
 20
-176.5864
 30
0.0
 10
77.7783
 20
-176.5864
 30
0.0
 10
77.7783
 20
-182.5563
 30
0.0
 10
77.7783
 20
-182.5563
 30
0.0
  0
SPLINE
  5
146
330
1F
100
AcDbEntity
  8
Capa 1
370
    15
100
AcDbSpline
210
0.0
220
0.0
230
1.0
 70
     8
 71
     3
 72
     8
 73
     4
 74
     0
 42
0.000000001
 43
0.0000000001
 40
0.0
 40
0.0
 40
0.0
 40
0.0
 40
1.0
 40
1.0
 40
1.0
 40
1.0
 10
37.467
 20
-182.9074
 30
0.0
 10
36.6589
 20
-182.9074
 30
0.0
 10
35.9961
 20
-183.5474
 30
0.0
 10
35.9679
 20
-184.355
 30
0.0
  0
SPLINE
  5
147
330
1F
100
AcDbEntity
  8
Capa 1
370
    15
100
AcDbSpline
210
0.0
220
0.0
230
1.0
 70
    24
 71
     3
 72
     8
 73
     4
 74
     0
 42
0.000000001
 43
0.0000000001
 40
0.0
 40
0.0
 40
0.0
 40
0.0
 40
1.0
 40
1.0
 40
1.0
 40
1.0
 10
35.8788
 20
-186.9074
 30
0.0
 10
35.8788
 20
-186.9074
 30
0.0
 10
35.9679
 20
-184.355
 30
0.0
 10
35.9679
 20
-184.355
 30
0.0
  0
SPLINE
  5
148
330
1F
100
AcDbEntity
  8
Capa 1
370
    15
100
AcDbSpline
210
0.0
220
0.0
230
1.0
 70
    24
 71
     3
 72
     8
 73
     4
 74
     0
 42
0.000000001
 43
0.0000000001
 40
0.0
 40
0.0
 40
0.0
 40
0.0
 40
1.0
 40
1.0
 40
1.0
 40
1.0
 10
35.8788
 20
-186.9074
 30
0.0
 10
35.8788
 20
-186.9074
 30
0.0
 10
25.8788
 20
-186.9074
 30
0.0
 10
25.8788
 20
-186.9074
 30
0.0
  0
SPLINE
  5
149
330
1F
100
AcDbEntity
  8
Capa 1
370
    15
100
AcDbSpline
210
0.0
220
0.0
230
1.0
 70
    24
 71
     3
 72
     8
 73
     4
 74
     0
 42
0.000000001
 43
0.0000000001
 40
0.0
 40
0.0
 40
0.0
 40
0.0
 40
1.0
 40
1.0
 40
1.0
 40
1.0
 10
25.7896
 20
-184.355
 30
0.0
 10
25.7896
 20
-184.355
 30
0.0
 10
25.8788
 20
-186.9074
 30
0.0
 10
25.8788
 20
-186.9074
 30
0.0
  0
SPLINE
  5
14A
330
1F
100
AcDbEntity
  8
Capa 1
370
    15
100
AcDbSpline
210
0.0
220
0.0
230
1.0
 70
     8
 71
     3
 72
     8
 73
     4
 74
     0
 42
0.000000001
 43
0.0000000001
 40
0.0
 40
0.0
 40
0.0
 40
0.0
 40
1.0
 40
1.0
 40
1.0
 40
1.0
 10
25.7896
 20
-184.355
 30
0.0
 10
25.7614
 20
-183.5474
 30
0.0
 10
25.0986
 20
-182.9074
 30
0.0
 10
24.2905
 20
-182.9074
 30
0.0
  0
SPLINE
  5
14B
330
1F
100
AcDbEntity
  8
Capa 1
370
    15
100
AcDbSpline
210
0.0
220
0.0
230
1.0
 70
    24
 71
     3
 72
     8
 73
     4
 74
     0
 42
0.000000001
 43
0.0000000001
 40
0.0
 40
0.0
 40
0.0
 40
0.0
 40
1.0
 40
1.0
 40
1.0
 40
1.0
 10
24.2905
 20
-182.9074
 30
0.0
 10
24.2905
 20
-182.9074
 30
0.0
 10
-12.5329
 20
-182.9074
 30
0.0
 10
-12.5329
 20
-182.9074
 30
0.0
  0
SPLINE
  5
14C
330
1F
100
AcDbEntity
  8
Capa 1
370
    15
100
AcDbSpline
210
0.0
220
0.0
230
1.0
 70
     8
 71
     3
 72
     8
 73
     4
 74
     0
 42
0.000000001
 43
0.0000000001
 40
0.0
 40
0.0
 40
0.0
 40
0.0
 40
1.0
 40
1.0
 40
1.0
 40
1.0
 10
-12.5329
 20
-182.9074
 30
0.0
 10
-13.341
 20
-182.9074
 30
0.0
 10
-14.0038
 20
-183.5474
 30
0.0
 10
-14.032
 20
-184.355
 30
0.0
  0
SPLINE
  5
14D
330
1F
100
AcDbEntity
  8
Capa 1
370
    15
100
AcDbSpline
210
0.0
220
0.0
230
1.0
 70
    24
 71
     3
 72
     8
 73
     4
 74
     0
 42
0.000000001
 43
0.0000000001
 40
0.0
 40
0.0
 40
0.0
 40
0.0
 40
1.0
 40
1.0
 40
1.0
 40
1.0
 10
-14.1212
 20
-186.9074
 30
0.0
 10
-14.1212
 20
-186.9074
 30
0.0
 10
-14.032
 20
-184.355
 30
0.0
 10
-14.032
 20
-184.355
 30
0.0
  0
SPLINE
  5
14E
330
1F
100
AcDbEntity
  8
Capa 1
370
    15
100
AcDbSpline
210
0.0
220
0.0
230
1.0
 70
    24
 71
     3
 72
     8
 73
     4
 74
     0
 42
0.000000001
 43
0.0000000001
 40
0.0
 40
0.0
 40
0.0
 40
0.0
 40
1.0
 40
1.0
 40
1.0
 40
1.0
 10
-14.1212
 20
-186.9074
 30
0.0
 10
-14.1212
 20
-186.9074
 30
0.0
 10
-24.1212
 20
-186.9074
 30
0.0
 10
-24.1212
 20
-186.9074
 30
0.0
  0
SPLINE
  5
14F
330
1F
100
AcDbEntity
  8
Capa 1
370
    15
100
AcDbSpline
210
0.0
220
0.0
230
1.0
 70
    24
 71
     3
 72
     8
 73
     4
 74
     0
 42
0.000000001
 43
0.0000000001
 40
0.0
 40
0.0
 40
0.0
 40
0.0
 40
1.0
 40
1.0
 40
1.0
 40
1.0
 10
-24.2103
 20
-184.355
 30
0.0
 10
-24.2103
 20
-184.355
 30
0.0
 10
-24.1212
 20
-186.9074
 30
0.0
 10
-24.1212
 20
-186.9074
 30
0.0
  0
SPLINE
  5
150
330
1F
100
AcDbEntity
  8
Capa 1
370
    15
100
AcDbSpline
210
0.0
220
0.0
230
1.0
 70
     8
 71
     3
 72
     8
 73
     4
 74
     0
 42
0.000000001
 43
0.0000000001
 40
0.0
 40
0.0
 40
0.0
 40
0.0
 40
1.0
 40
1.0
 40
1.0
 40
1.0
 10
-24.2103
 20
-184.355
 30
0.0
 10
-24.2385
 20
-183.5474
 30
0.0
 10
-24.9013
 20
-182.9074
 30
0.0
 10
-25.7094
 20
-182.9074
 30
0.0
  0
SPLINE
  5
151
330
1F
100
AcDbEntity
  8
Capa 1
370
    15
100
AcDbSpline
210
0.0
220
0.0
230
1.0
 70
    24
 71
     3
 72
     8
 73
     4
 74
     0
 42
0.000000001
 43
0.0000000001
 40
0.0
 40
0.0
 40
0.0
 40
0.0
 40
1.0
 40
1.0
 40
1.0
 40
1.0
 10
-66.0217
 20
-182.6133
 30
0.0
 10
-66.0217
 20
-182.6133
 30
0.0
 10
-66.0217
 20
-176.5864
 30
0.0
 10
-66.0217
 20
-176.5864
 30
0.0
  0
SPLINE
  5
152
330
1F
100
AcDbEntity
  8
Capa 1
370
    15
100
AcDbSpline
210
0.0
220
0.0
230
1.0
 70
     8
 71
     3
 72
     8
 73
     4
 74
     0
 42
0.000000001
 43
0.0000000001
 40
0.0
 40
0.0
 40
0.0
 40
0.0
 40
1.0
 40
1.0
 40
1.0
 40
1.0
 10
-66.0216
 20
-176.5864
 30
0.0
 10
-65.2999
 20
-176.4644
 30
0.0
 10
-64.7717
 20
-175.8393
 30
0.0
 10
-64.7717
 20
-175.1074
 30
0.0
  0
SPLINE
  5
153
330
1F
100
AcDbEntity
  8
Capa 1
370
    15
100
AcDbSpline
210
0.0
220
0.0
230
1.0
 70
    24
 71
     3
 72
     8
 73
     4
 74
     0
 42
0.000000001
 43
0.0000000001
 40
0.0
 40
0.0
 40
0.0
 40
0.0
 40
1.0
 40
1.0
 40
1.0
 40
1.0
 10
-64.7717
 20
-175.1074
 30
0.0
 10
-64.7717
 20
-175.1074
 30
0.0
 10
-64.7717
 20
-173.7074
 30
0.0
 10
-64.7717
 20
-173.7074
 30
0.0
  0
SPLINE
  5
154
330
1F
100
AcDbEntity
  8
Capa 1
370
    15
100
AcDbSpline
210
0.0
220
0.0
230
1.0
 70
     8
 71
     3
 72
     8
 73
     4
 74
     0
 42
0.000000001
 43
0.0000000001
 40
0.0
 40
0.0
 40
0.0
 40
0.0
 40
1.0
 40
1.0
 40
1.0
 40
1.0
 10
-64.7716
 20
-173.7074
 30
0.0
 10
-64.7716
 20
-172.9754
 30
0.0
 10
-65.2999
 20
-172.3503
 30
0.0
 10
-66.0216
 20
-172.2283
 30
0.0
  0
SPLINE
  5
155
330
1F
100
AcDbEntity
  8
Capa 1
370
    15
100
AcDbSpline
210
0.0
220
0.0
230
1.0
 70
    24
 71
     3
 72
     8
 73
     4
 74
     0
 42
0.000000001
 43
0.0000000001
 40
0.0
 40
0.0
 40
0.0
 40
0.0
 40
1.0
 40
1.0
 40
1.0
 40
1.0
 10
-66.0217
 20
-172.2283
 30
0.0
 10
-66.0217
 20
-172.2283
 30
0.0
 10
-66.1841
 20
-172.2283
 30
0.0
 10
-66.1841
 20
-172.2283
 30
0.0
  0
SPLINE
  5
156
330
1F
100
AcDbEntity
  8
Capa 1
370
    15
100
AcDbSpline
210
0.0
220
0.0
230
1.0
 70
     8
 71
     3
 72
    12
 73
     8
 74
     0
 42
0.000000001
 43
0.0000000001
 40
0.0
 40
0.0
 40
0.0
 40
0.0
 40
0.3333333333333333
 40
0.3333333333333333
 40
0.3333333333333333
 40
0.3333333333333333
 40
1.0
 40
1.0
 40
1.0
 40
1.0
 10
-66.1841
 20
-172.2283
 30
0.0
 10
-66.4398
 20
-171.7247
 30
0.0
 10
-66.9568
 20
-171.4074
 30
0.0
 10
-67.5217
 20
-171.4074
 30
0.0
 10
-67.5217
 20
-171.4074
 30
0.0
 10
-68.0865
 20
-171.4074
 30
0.0
 10
-68.6035
 20
-171.7247
 30
0.0
 10
-68.8592
 20
-172.2283
 30
0.0
  0
SPLINE
  5
157
330
1F
100
AcDbEntity
  8
Capa 1
370
    15
100
AcDbSpline
210
0.0
220
0.0
230
1.0
 70
    24
 71
     3
 72
     8
 73
     4
 74
     0
 42
0.000000001
 43
0.0000000001
 40
0.0
 40
0.0
 40
0.0
 40
0.0
 40
1.0
 40
1.0
 40
1.0
 40
1.0
 10
-68.8592
 20
-172.2283
 30
0.0
 10
-68.8592
 20
-172.2283
 30
0.0
 10
-69.0217
 20
-172.2283
 30
0.0
 10
-69.0217
 20
-172.2283
 30
0.0
  0
SPLINE
  5
158
330
1F
100
AcDbEntity
  8
Capa 1
370
    15
100
AcDbSpline
210
0.0
220
0.0
230
1.0
 70
     8
 71
     3
 72
     8
 73
     4
 74
     0
 42
0.000000001
 43
0.0000000001
 40
0.0
 40
0.0
 40
0.0
 40
0.0
 40
1.0
 40
1.0
 40
1.0
 40
1.0
 10
-69.0217
 20
-172.2283
 30
0.0
 10
-69.7434
 20
-172.3503
 30
0.0
 10
-70.2717
 20
-172.9754
 30
0.0
 10
-70.2717
 20
-173.7074
 30
0.0
  0
SPLINE
  5
159
330
1F
100
AcDbEntity
  8
Capa 1
370
    15
100
AcDbSpline
210
0.0
220
0.0
230
1.0
 70
     8
 71
     3
 72
     8
 73
     4
 74
     0
 42
0.000000001
 43
0.0000000001
 40
0.0
 40
0.0
 40
0.0
 40
0.0
 40
1.0
 40
1.0
 40
1.0
 40
1.0
 10
150.0283
 20
-139.7991
 30
0.0
 10
153.6181
 20
-139.7991
 30
0.0
 10
156.5282
 20
-136.8889
 30
0.0
 10
156.5282
 20
-133.2991
 30
0.0
  0
SPLINE
  5
15A
330
1F
100
AcDbEntity
  8
Capa 1
370
    15
100
AcDbSpline
210
0.0
220
0.0
230
1.0
 70
     8
 71
     3
 72
    12
 73
     8
 74
     0
 42
0.000000001
 43
0.0000000001
 40
0.0
 40
0.0
 40
0.0
 40
0.0
 40
0.3333333333333333
 40
0.3333333333333333
 40
0.3333333333333333
 40
0.3333333333333333
 40
1.0
 40
1.0
 40
1.0
 40
1.0
 10
156.5282
 20
154.9527
 30
0.0
 10
156.5282
 20
156.6766
 30
0.0
 10
155.8434
 20
158.3299
 30
0.0
 10
154.6244
 20
159.5488
 30
0.0
 10
154.6244
 20
159.5488
 30
0.0
 10
153.4055
 20
160.7678
 30
0.0
 10
151.7522
 20
161.4526
 30
0.0
 10
150.0283
 20
161.4526
 30
0.0
  0
SPLINE
  5
15B
330
1F
100
AcDbEntity
  8
Capa 1
370
    15
100
AcDbSpline
210
0.0
220
0.0
230
1.0
 70
     8
 71
     3
 72
    12
 73
     8
 74
     0
 42
0.000000001
 43
0.0000000001
 40
0.0
 40
0.0
 40
0.0
 40
0.0
 40
0.3333333333333333
 40
0.3333333333333333
 40
0.3333333333333333
 40
0.3333333333333333
 40
1.0
 40
1.0
 40
1.0
 40
1.0
 10
-138.2717
 20
161.4527
 30
0.0
 10
-139.9956
 20
161.4527
 30
0.0
 10
-141.6489
 20
160.7678
 30
0.0
 10
-142.8678
 20
159.5488
 30
0.0
 10
-142.8678
 20
159.5488
 30
0.0
 10
-144.0868
 20
158.3299
 30
0.0
 10
-144.7717
 20
156.6766
 30
0.0
 10
-144.7717
 20
154.9527
 30
0.0
  0
SPLINE
  5
15C
330
1F
100
AcDbEntity
  8
Capa 1
370
    15
100
AcDbSpline
210
0.0
220
0.0
230
1.0
 70
     8
 71
     3
 72
    12
 73
     8
 74
     0
 42
0.000000001
 43
0.0000000001
 40
0.0
 40
0.0
 40
0.0
 40
0.0
 40
0.3333333333333333
 40
0.3333333333333333
 40
0.3333333333333333
 40
0.3333333333333333
 40
1.0
 40
1.0
 40
1.0
 40
1.0
 10
-144.7716
 20
-133.2991
 30
0.0
 10
-144.7716
 20
-135.023
 30
0.0
 10
-144.0868
 20
-136.6763
 30
0.0
 10
-142.8678
 20
-137.8953
 30
0.0
 10
-142.8678
 20
-137.8953
 30
0.0
 10
-141.6489
 20
-139.1143
 30
0.0
 10
-139.9956
 20
-139.7991
 30
0.0
 10
-138.2717
 20
-139.7991
 30
0.0
  0
SPLINE
  5
15D
330
1F
100
AcDbEntity
  8
Capa 1
 62
   250
370
    20
100
AcDbSpline
210
0.0
220
0.0
230
1.0
 70
    24
 71
     3
 72
     8
 73
     4
 74
     0
 42
0.000000001
 43
0.0000000001
 40
0.0
 40
0.0
 40
0.0
 40
0.0
 40
1.0
 40
1.0
 40
1.0
 40
1.0
 10
183.9783
 20
-30.6959
 30
0.0
 10
183.9783
 20
-30.6959
 30
0.0
 10
183.9782
 20
-108.5191
 30
0.0
 10
183.9782
 20
-108.5191
 30
0.0
  0
SPLINE
  5
15E
330
1F
100
AcDbEntity
  8
Capa 1
 62
   250
370
    20
100
AcDbSpline
210
0.0
220
0.0
230
1.0
 70
    24
 71
     3
 72
     8
 73
     4
 74
     0
 42
0.000000001
 43
0.0000000001
 40
0.0
 40
0.0
 40
0.0
 40
0.0
 40
1.0
 40
1.0
 40
1.0
 40
1.0
 10
-172.2217
 20
-30.6959
 30
0.0
 10
-172.2217
 20
-30.6959
 30
0.0
 10
-172.2217
 20
-108.5191
 30
0.0
 10
-172.2217
 20
-108.5191
 30
0.0
  0
SPLINE
  5
15F
330
1F
100
AcDbEntity
  8
Capa 1
 62
   250
370
    20
100
AcDbSpline
210
0.0
220
0.0
230
1.0
 70
    24
 71
     3
 72
     8
 73
     4
 74
     0
 42
0.000000001
 43
0.0000000001
 40
0.0
 40
0.0
 40
0.0
 40
0.0
 40
1.0
 40
1.0
 40
1.0
 40
1.0
 10
-172.2216
 20
110.3044
 30
0.0
 10
-172.2216
 20
110.3044
 30
0.0
 10
-172.2217
 20
32.4805
 30
0.0
 10
-172.2217
 20
32.4805
 30
0.0
  0
SPLINE
  5
160
330
1F
100
AcDbEntity
  8
Capa 1
 62
   250
370
    20
100
AcDbSpline
210
0.0
220
0.0
230
1.0
 70
    24
 71
     3
 72
     8
 73
     4
 74
     0
 42
0.000000001
 43
0.0000000001
 40
0.0
 40
0.0
 40
0.0
 40
0.0
 40
1.0
 40
1.0
 40
1.0
 40
1.0
 10
183.9782
 20
110.3044
 30
0.0
 10
183.9782
 20
110.3044
 30
0.0
 10
183.9783
 20
32.4805
 30
0.0
 10
183.9783
 20
32.4805
 30
0.0
  0
SPLINE
  5
161
330
1F
100
AcDbEntity
  8
Capa 1
 62
   250
370
    20
100
AcDbSpline
210
0.0
220
0.0
230
1.0
 70
    24
 71
     3
 72
     8
 73
     4
 74
     0
 42
0.000000001
 43
0.0000000001
 40
0.0
 40
0.0
 40
0.0
 40
0.0
 40
1.0
 40
1.0
 40
1.0
 40
1.0
 10
156.5282
 20
154.9527
 30
0.0
 10
156.5282
 20
154.9527
 30
0.0
 10
156.5282
 20
-133.2991
 30
0.0
 10
156.5282
 20
-133.2991
 30
0.0
  0
SPLINE
  5
162
330
1F
100
AcDbEntity
  8
Capa 1
 62
   250
370
    20
100
AcDbSpline
210
0.0
220
0.0
230
1.0
 70
    24
 71
     3
 72
     8
 73
     4
 74
     0
 42
0.000000001
 43
0.0000000001
 40
0.0
 40
0.0
 40
0.0
 40
0.0
 40
1.0
 40
1.0
 40
1.0
 40
1.0
 10
-144.7716
 20
-133.2991
 30
0.0
 10
-144.7716
 20
-133.2991
 30
0.0
 10
-144.7717
 20
154.9527
 30
0.0
 10
-144.7717
 20
154.9527
 30
0.0
  0
SPLINE
  5
163
330
1F
100
AcDbEntity
  8
Capa 1
 62
   250
370
    20
100
AcDbSpline
210
0.0
220
0.0
230
1.0
 70
    24
 71
     3
 72
     8
 73
     4
 74
     0
 42
0.000000001
 43
0.0000000001
 40
0.0
 40
0.0
 40
0.0
 40
0.0
 40
1.0
 40
1.0
 40
1.0
 40
1.0
 10
-94.2834
 20
184.6927
 30
0.0
 10
-94.2834
 20
184.6927
 30
0.0
 10
-18.7094
 20
184.6927
 30
0.0
 10
-18.7094
 20
184.6927
 30
0.0
  0
SPLINE
  5
164
330
1F
100
AcDbEntity
  8
Capa 1
 62
   250
370
    20
100
AcDbSpline
210
0.0
220
0.0
230
1.0
 70
    24
 71
     3
 72
     8
 73
     4
 74
     0
 42
0.000000001
 43
0.0000000001
 40
0.0
 40
0.0
 40
0.0
 40
0.0
 40
1.0
 40
1.0
 40
1.0
 40
1.0
 10
30.467
 20
184.6927
 30
0.0
 10
30.467
 20
184.6927
 30
0.0
 10
106.04
 20
184.6927
 30
0.0
 10
106.04
 20
184.6927
 30
0.0
  0
SPLINE
  5
165
330
1F
100
AcDbEntity
  8
Capa 1
 62
   250
370
    20
100
AcDbSpline
210
0.0
220
0.0
230
1.0
 70
    24
 71
     3
 72
     8
 73
     4
 74
     0
 42
0.000000001
 43
0.0000000001
 40
0.0
 40
0.0
 40
0.0
 40
0.0
 40
1.0
 40
1.0
 40
1.0
 40
1.0
 10
-138.2717
 20
161.4527
 30
0.0
 10
-138.2717
 20
161.4527
 30
0.0
 10
150.0283
 20
161.4526
 30
0.0
 10
150.0283
 20
161.4526
 30
0.0
  0
SPLINE
  5
166
330
1F
100
AcDbEntity
  8
Capa 1
 62
   250
370
    20
100
AcDbSpline
210
0.0
220
0.0
230
1.0
 70
    24
 71
     3
 72
     8
 73
     4
 74
     0
 42
0.000000001
 43
0.0000000001
 40
0.0
 40
0.0
 40
0.0
 40
0.0
 40
1.0
 40
1.0
 40
1.0
 40
1.0
 10
-138.2717
 20
-139.7991
 30
0.0
 10
-138.2717
 20
-139.7991
 30
0.0
 10
150.0283
 20
-139.7991
 30
0.0
 10
150.0283
 20
-139.7991
 30
0.0
  0
SPLINE
  5
167
330
1F
100
AcDbEntity
  8
Capa 1
 62
   250
370
    20
100
AcDbSpline
210
0.0
220
0.0
230
1.0
 70
    24
 71
     3
 72
     8
 73
     4
 74
     0
 42
0.000000001
 43
0.0000000001
 40
0.0
 40
0.0
 40
0.0
 40
0.0
 40
1.0
 40
1.0
 40
1.0
 40
1.0
 10
37.467
 20
-182.9074
 30
0.0
 10
37.467
 20
-182.9074
 30
0.0
 10
77.7783
 20
-182.9074
 30
0.0
 10
77.7783
 20
-182.9074
 30
0.0
  0
SPLINE
  5
168
330
1F
100
AcDbEntity
  8
Capa 1
 62
   250
370
    20
100
AcDbSpline
210
0.0
220
0.0
230
1.0
 70
    24
 71
     3
 72
     8
 73
     4
 74
     0
 42
0.000000001
 43
0.0000000001
 40
0.0
 40
0.0
 40
0.0
 40
0.0
 40
1.0
 40
1.0
 40
1.0
 40
1.0
 10
-25.7094
 20
-182.9074
 30
0.0
 10
-25.7094
 20
-182.9074
 30
0.0
 10
-66.0217
 20
-182.9074
 30
0.0
 10
-66.0217
 20
-182.9074
 30
0.0
  0
ELLIPSE
  5
169
330
1F
100
AcDbEntity
  8
Capa 1
 62
   250
370
    20
100
AcDbEllipse
 10
5.8782
 20
-162.1074
 30
0.0
 11
0.0
 21
1.5001
 31
0.0
210
0.0
220
0.0
230
1.0
 40
0.9999333377774815
 41
0.0
 42
6.283185307179586
  0
SPLINE
  5
16A
330
1F
100
AcDbEntity
  8
Capa 1
 62
   250
370
     9
100
AcDbSpline
210
0.0
220
0.0
230
1.0
 70
    11
 71
     3
 72
    36
 73
    32
 74
     0
 42
0.000000001
 43
0.0000000001
 40
0.0
 40
0.0
 40
0.0
 40
0.0
 40
0.1111111111111111
 40
0.1111111111111111
 40
0.1111111111111111
 40
0.1111111111111111
 40
0.2222222222222222
 40
0.2222222222222222
 40
0.2222222222222222
 40
0.2222222222222222
 40
0.3333333333333333
 40
0.3333333333333333
 40
0.3333333333333333
 40
0.3333333333333333
 40
0.4444444444444444
 40
0.4444444444444444
 40
0.4444444444444444
 40
0.4444444444444444
 40
0.5555555555555556
 40
0.5555555555555556
 40
0.5555555555555556
 40
0.5555555555555556
 40
0.6666666666666666
 40
0.6666666666666666
 40
0.6666666666666666
 40
0.6666666666666666
 40
0.7777777777777778
 40
0.7777777777777778
 40
0.7777777777777778
 40
0.7777777777777778
 40
1.0
 40
1.0
 40
1.0
 40
1.0
 10
-125.6029
 20
143.0309
 30
0.0
 10
-125.6029
 20
143.0309
 30
0.0
 10
128.7973
 20
143.0309
 30
0.0
 10
128.7973
 20
143.0309
 30
0.0
 10
128.7973
 20
143.0309
 30
0.0
 10
131.7123
 20
143.0309
 30
0.0
 10
134.0972
 20
140.6459
 30
0.0
 10
134.0972
 20
137.731
 30
0.0
 10
134.0972
 20
137.731
 30
0.0
 10
134.0972
 20
137.731
 30
0.0
 10
134.0972
 20
-116.6693
 30
0.0
 10
134.0972
 20
-116.6693
 30
0.0
 10
134.0972
 20
-116.6693
 30
0.0
 10
134.0972
 20
-119.5843
 30
0.0
 10
131.7123
 20
-121.9691
 30
0.0
 10
128.7973
 20
-121.9691
 30
0.0
 10
128.7973
 20
-121.9691
 30
0.0
 10
128.7973
 20
-121.9691
 30
0.0
 10
-125.6029
 20
-121.9691
 30
0.0
 10
-125.6029
 20
-121.9691
 30
0.0
 10
-125.6029
 20
-121.9691
 30
0.0
 10
-128.5179
 20
-121.9691
 30
0.0
 10
-130.9028
 20
-119.5843
 30
0.0
 10
-130.9028
 20
-116.6693
 30
0.0
 10
-130.9028
 20
-116.6693
 30
0.0
 10
-130.9028
 20
-116.6693
 30
0.0
 10
-130.9028
 20
137.731
 30
0.0
 10
-130.9028
 20
137.731
 30
0.0
 10
-130.9028
 20
137.731
 30
0.0
 10
-130.9028
 20
140.6459
 30
0.0
 10
-128.5179
 20
143.0309
 30
0.0
 10
-125.6029
 20
143.0309
 30
0.0
  0
ELLIPSE
  5
16B
330
1F
100
AcDbEntity
  8
Capa 1
 62
   250
370
     9
100
AcDbEllipse
 10
129.0969
 20
137.8736
 30
0.0
 11
0.0
 21
1.5
 31
0.0
210
0.0
220
0.0
230
1.0
 40
1.0
 41
0.0
 42
6.283185307179586
  0
ELLIPSE
  5
16C
330
1F
100
AcDbEntity
  8
Capa 1
 62
   250
370
     9
100
AcDbEllipse
 10
-125.9031
 20
137.8736
 30
0.0
 11
0.0
 21
1.5
 31
0.0
210
0.0
220
0.0
230
1.0
 40
1.0
 41
0.0
 42
6.283185307179586
  0
ELLIPSE
  5
16D
330
1F
100
AcDbEntity
  8
Capa 1
 62
   250
370
     9
100
AcDbEllipse
 10
-125.9031
 20
-116.8125
 30
0.0
 11
0.0
 21
1.5
 31
0.0
210
0.0
220
0.0
230
1.0
 40
1.0
 41
0.0
 42
6.283185307179586
  0
ELLIPSE
  5
16E
330
1F
100
AcDbEntity
  8
Capa 1
 62
   250
370
     9
100
AcDbEllipse
 10
129.0969
 20
-116.8125
 30
0.0
 11
0.0
 21
1.5
 31
0.0
210
0.0
220
0.0
230
1.0
 40
1.0
 41
0.0
 42
6.283185307179586
  0
ENDSEC
  0
SECTION
  2
OBJECTS
  0
DICTIONARY
  5
C
330
0
100
AcDbDictionary
281
     1
  3
ACAD_DETAILVIEWSTYLE
350
1C7
  3
ACAD_GROUP
350
D
  3
ACAD_LAYOUT
350
1A
  3
ACAD_MATERIAL
350
3B
  3
ACAD_MLEADERSTYLE
350
190
  3
ACAD_MLINESTYLE
350
17
  3
ACAD_PLOTSETTINGS
350
19
  3
ACAD_PLOTSTYLENAME
350
E
  3
ACAD_SCALELIST
350
191
  3
ACAD_SECTIONVIEWSTYLE
350
1C8
  3
ACAD_TABLESTYLE
350
18F
  3
ACAD_VISUALSTYLE
350
2A
  3
ACDB_RECOMPOSE_DATA
350
1C3
  3
AcDbVariableDictionary
350
1BF
  0
DICTIONARY
  5
1C7
102
{ACAD_REACTORS
330
C
102
}
330
C
100
AcDbDictionary
281
     1
  0
DICTIONARY
  5
D
102
{ACAD_REACTORS
330
C
102
}
330
C
100
AcDbDictionary
281
     1
  0
DICTIONARY
  5
1A
102
{ACAD_REACTORS
330
C
102
}
330
C
100
AcDbDictionary
281
     1
  3
Layout1
350
1E
  3
Layout2
350
26
  3
Model
350
22
  0
DICTIONARY
  5
3B
102
{ACAD_REACTORS
330
C
102
}
330
C
100
AcDbDictionary
281
     1
  3
ByBlock
350
3D
  3
ByLayer
350
3C
  3
Global
350
3E
  0
DICTIONARY
  5
190
102
{ACAD_REACTORS
330
C
102
}
330
C
100
AcDbDictionary
281
     1
  3
Standard
350
1BE
  0
DICTIONARY
  5
17
102
{ACAD_REACTORS
330
C
102
}
330
C
100
AcDbDictionary
281
     1
  3
Standard
350
18
  0
DICTIONARY
  5
19
102
{ACAD_REACTORS
330
C
102
}
330
C
100
AcDbDictionary
281
     1
  0
ACDBDICTIONARYWDFLT
  5
E
102
{ACAD_REACTORS
330
C
102
}
330
C
100
AcDbDictionary
281
     1
  3
Normal
350
F
100
AcDbDictionaryWithDefault
340
F
  0
DICTIONARY
  5
191
102
{ACAD_REACTORS
330
C
102
}
330
C
100
AcDbDictionary
281
     1
  3
A0
350
192
  3
A1
350
193
  3
A2
350
194
  3
A3
350
195
  3
A4
350
196
  3
A5
350
197
  3
A6
350
198
  3
A7
350
199
  3
A8
350
19A
  3
A9
350
19B
  3
B0
350
19C
  3
B1
350
19D
  3
B2
350
19E
  3
B3
350
19F
  3
B4
350
1A0
  3
B5
350
1A1
  3
B6
350
1A2
  3
B7
350
1A3
  3
B8
350
1A4
  3
B9
350
1A5
  3
C0
350
1A6
  3
C1
350
1A7
  3
C2
350
1A8
  3
C3
350
1A9
  3
C4
350
1AA
  3
C5
350
1AB
  3
C6
350
1AC
  3
C7
350
1AD
  3
C8
350
1AE
  3
C9
350
1AF
  3
D0
350
1B0
  3
D1
350
1B1
  3
D2
350
1B2
  0
DICTIONARY
  5
1C8
102
{ACAD_REACTORS
330
C
102
}
330
C
100
AcDbDictionary
281
     1
  0
DICTIONARY
  5
18F
102
{ACAD_REACTORS
330
C
102
}
330
C
100
AcDbDictionary
281
     1
  3
Standard
350
1BD
  0
DICTIONARY
  5
2A
102
{ACAD_REACTORS
330
C
102
}
330
C
100
AcDbDictionary
281
     1
  3
2dWireframe
350
2F
  3
3D Hidden
350
31
  3
3dWireframe
350
30
  3
Basic
350
32
  3
Brighten
350
36
  3
ColorChange
350
3A
  3
Conceptual
350
34
  3
Dim
350
35
  3
EdgeColorOff
350
1B7
  3
Facepattern
350
39
  3
Flat
350
2B
  3
FlatWithEdges
350
2C
  3
Gouraud
350
2D
  3
GouraudWithEdges
350
2E
  3
Hidden
350
1B4
  3
JitterOff
350
1B5
  3
Linepattern
350
38
  3
OverhangOff
350
1B6
  3
Realistic
350
33
  3
Shaded
350
1BC
  3
Shaded with edges
350
1BB
  3
Shades of Gray
350
1B8
  3
Sketchy
350
1B9
  3
Thicken
350
37
  3
Wireframe
350
1B3
  3
X-Ray
350
1BA
  0
XRECORD
  5
1C3
102
{ACAD_REACTORS
330
C
102
}
330
C
100
AcDbXrecord
280
     1
 90
        1
330
1BD
  0
DICTIONARY
  5
1BF
102
{ACAD_REACTORS
330
C
102
}
330
C
100
AcDbDictionary
281
     1
  3
CANNOSCALE
350
1C0
  3
CMLEADERSTYLE
350
1C5
  3
CTABLESTYLE
350
1C4
  3
XCLIPFRAME
350
1C6
  0
LAYOUT
  5
1E
102
{ACAD_REACTORS
330
1A
102
}
330
1A
100
AcDbPlotSettings
  1

  2
none_device
  4

  6

 40
0.0
 41
0.0
 42
0.0
 43
0.0
 44
0.0
 45
0.0
 46
0.0
 47
0.0
 48
0.0
 49
0.0
140
0.0
141
0.0
142
1.0
143
1.0
 70
   688
 72
     0
 73
     0
 74
     5
  7

 75
    16
 76
     0
 77
     2
 78
   300
147
1.0
148
0.0
149
0.0
100
AcDbLayout
  1
Layout1
 70
     1
 71
     1
 10
0.0
 20
0.0
 11
12.0
 21
9.0
 12
0.0
 22
0.0
 32
0.0
 14
1.000000000000000E+20
 24
1.000000000000000E+20
 34
1.000000000000000E+20
 15
-1.000000000000000E+20
 25
-1.000000000000000E+20
 35
-1.000000000000000E+20
146
0.0
 13
0.0
 23
0.0
 33
0.0
 16
1.0
 26
0.0
 36
0.0
 17
0.0
 27
1.0
 37
0.0
 76
     0
330
1B
  0
LAYOUT
  5
26
102
{ACAD_REACTORS
330
1A
102
}
330
1A
100
AcDbPlotSettings
  1

  2
none_device
  4

  6

 40
0.0
 41
0.0
 42
0.0
 43
0.0
 44
0.0
 45
0.0
 46
0.0
 47
0.0
 48
0.0
 49
0.0
140
0.0
141
0.0
142
1.0
143
1.0
 70
   688
 72
     0
 73
     0
 74
     5
  7

 75
    16
 76
     0
 77
     2
 78
   300
147
1.0
148
0.0
149
0.0
100
AcDbLayout
  1
Layout2
 70
     1
 71
     2
 10
0.0
 20
0.0
 11
0.0
 21
0.0
 12
0.0
 22
0.0
 32
0.0
 14
0.0
 24
0.0
 34
0.0
 15
0.0
 25
0.0
 35
0.0
146
0.0
 13
0.0
 23
0.0
 33
0.0
 16
1.0
 26
0.0
 36
0.0
 17
0.0
 27
1.0
 37
0.0
 76
     0
330
23
  0
LAYOUT
  5
22
102
{ACAD_REACTORS
330
1A
102
}
330
1A
100
AcDbPlotSettings
  1

  2
none_device
  4

  6

 40
0.0
 41
0.0
 42
0.0
 43
0.0
 44
0.0
 45
0.0
 46
0.0
 47
0.0
 48
0.0
 49
0.0
140
0.0
141
0.0
142
1.0
143
1.0
 70
  1712
 72
     0
 73
     0
 74
     0
  7

 75
     0
 76
     0
 77
     2
 78
   300
147
1.0
148
0.0
149
0.0
100
AcDbLayout
  1
Model
 70
     1
 71
     0
 10
0.0
 20
0.0
 11
12.0
 21
9.0
 12
0.0
 22
0.0
 32
0.0
 14
-176.2967
 24
-186.9824
 34
0.0
 15
188.0533
 25
188.7677
 35
0.0
146
0.0
 13
0.0
 23
0.0
 33
0.0
 16
1.0
 26
0.0
 36
0.0
 17
0.0
 27
1.0
 37
0.0
 76
     0
330
1F
331
29
  0
MATERIAL
  5
3D
102
{ACAD_REACTORS
330
3B
102
}
330
3B
100
AcDbMaterial
  1
ByBlock
 72
     1
 94
      127
  0
MATERIAL
  5
3C
102
{ACAD_REACTORS
330
3B
102
}
330
3B
100
AcDbMaterial
  1
ByLayer
 72
     1
 94
      127
  0
MATERIAL
  5
3E
102
{ACAD_REACTORS
330
3B
102
}
330
3B
100
AcDbMaterial
  1
Global
 72
     1
 94
      127
  0
MLEADERSTYLE
  5
1BE
102
{ACAD_REACTORS
330
190
102
}
330
190
100
AcDbMLeaderStyle
179
     2
170
     2
171
     1
172
     0
 90
        2
 40
0.0
 41
0.0
173
     1
 91
-1056964608
340
14
 92
       -2
290
     1
 42
0.09
291
     1
 43
0.36
  3
Standard
341
0
 44
0.18
300

342
11
174
     1
178
     6
175
     1
176
     0
 93
-1056964608
 45
0.18
292
     0
297
     0
 46
0.18
343
0
 94
-1056964608
 47
1.0
 49
1.0
140
1.0
293
     1
141
0.0
294
     1
177
     0
142
1.0
295
     0
296
     0
143
0.125
271
     0
272
     9
273
     9
298
     0
  0
MLINESTYLE
  5
18
102
{ACAD_REACTORS
330
17
102
}
330
17
100
AcDbMlineStyle
  2
Standard
 70
     0
  3

 62
   256
 51
90.0
 52
90.0
 71
     2
 49
0.5
 62
   256
  6
BYLAYER
 49
-0.5
 62
   256
  6
BYLAYER
  0
ACDBPLACEHOLDER
  5
F
102
{ACAD_REACTORS
330
E
102
}
330
E
  0
SCALE
  5
192
102
{ACAD_REACTORS
330
191
102
}
330
191
100
AcDbScale
 70
     0
300
1:1
140
1.0
141
1.0
290
     1
  0
SCALE
  5
193
102
{ACAD_REACTORS
330
191
102
}
330
191
100
AcDbScale
 70
     0
300
1:2
140
1.0
141
2.0
290
     0
  0
SCALE
  5
194
102
{ACAD_REACTORS
330
191
102
}
330
191
100
AcDbScale
 70
     0
300
1:4
140
1.0
141
4.0
290
     0
  0
SCALE
  5
195
102
{ACAD_REACTORS
330
191
102
}
330
191
100
AcDbScale
 70
     0
300
1:5
140
1.0
141
5.0
290
     0
  0
SCALE
  5
196
102
{ACAD_REACTORS
330
191
102
}
330
191
100
AcDbScale
 70
     0
300
1:8
140
1.0
141
8.0
290
     0
  0
SCALE
  5
197
102
{ACAD_REACTORS
330
191
102
}
330
191
100
AcDbScale
 70
     0
300
1:10
140
1.0
141
10.0
290
     0
  0
SCALE
  5
198
102
{ACAD_REACTORS
330
191
102
}
330
191
100
AcDbScale
 70
     0
300
1:16
140
1.0
141
16.0
290
     0
  0
SCALE
  5
199
102
{ACAD_REACTORS
330
191
102
}
330
191
100
AcDbScale
 70
     0
300
1:20
140
1.0
141
20.0
290
     0
  0
SCALE
  5
19A
102
{ACAD_REACTORS
330
191
102
}
330
191
100
AcDbScale
 70
     0
300
1:30
140
1.0
141
30.0
290
     0
  0
SCALE
  5
19B
102
{ACAD_REACTORS
330
191
102
}
330
191
100
AcDbScale
 70
     0
300
1:40
140
1.0
141
40.0
290
     0
  0
SCALE
  5
19C
102
{ACAD_REACTORS
330
191
102
}
330
191
100
AcDbScale
 70
     0
300
1:50
140
1.0
141
50.0
290
     0
  0
SCALE
  5
19D
102
{ACAD_REACTORS
330
191
102
}
330
191
100
AcDbScale
 70
     0
300
1:100
140
1.0
141
100.0
290
     0
  0
SCALE
  5
19E
102
{ACAD_REACTORS
330
191
102
}
330
191
100
AcDbScale
 70
     0
300
2:1
140
2.0
141
1.0
290
     0
  0
SCALE
  5
19F
102
{ACAD_REACTORS
330
191
102
}
330
191
100
AcDbScale
 70
     0
300
4:1
140
4.0
141
1.0
290
     0
  0
SCALE
  5
1A0
102
{ACAD_REACTORS
330
191
102
}
330
191
100
AcDbScale
 70
     0
300
8:1
140
8.0
141
1.0
290
     0
  0
SCALE
  5
1A1
102
{ACAD_REACTORS
330
191
102
}
330
191
100
AcDbScale
 70
     0
300
10:1
140
10.0
141
1.0
290
     0
  0
SCALE
  5
1A2
102
{ACAD_REACTORS
330
191
102
}
330
191
100
AcDbScale
 70
     0
300
100:1
140
100.0
141
1.0
290
     0
  0
SCALE
  5
1A3
102
{ACAD_REACTORS
330
191
102
}
330
191
100
AcDbScale
 70
     0
300
1/128" = 1'-0"
140
0.0078125
141
12.0
290
     0
  0
SCALE
  5
1A4
102
{ACAD_REACTORS
330
191
102
}
330
191
100
AcDbScale
 70
     0
300
1/64" = 1'-0"
140
0.015625
141
12.0
290
     0
  0
SCALE
  5
1A5
102
{ACAD_REACTORS
330
191
102
}
330
191
100
AcDbScale
 70
     0
300
1/32" = 1'-0"
140
0.03125
141
12.0
290
     0
  0
SCALE
  5
1A6
102
{ACAD_REACTORS
330
191
102
}
330
191
100
AcDbScale
 70
     0
300
1/16" = 1'-0"
140
0.0625
141
12.0
290
     0
  0
SCALE
  5
1A7
102
{ACAD_REACTORS
330
191
102
}
330
191
100
AcDbScale
 70
     0
300
3/32" = 1'-0"
140
0.09375
141
12.0
290
     0
  0
SCALE
  5
1A8
102
{ACAD_REACTORS
330
191
102
}
330
191
100
AcDbScale
 70
     0
300
1/8" = 1'-0"
140
0.125
141
12.0
290
     0
  0
SCALE
  5
1A9
102
{ACAD_REACTORS
330
191
102
}
330
191
100
AcDbScale
 70
     0
300
3/16" = 1'-0"
140
0.1875
141
12.0
290
     0
  0
SCALE
  5
1AA
102
{ACAD_REACTORS
330
191
102
}
330
191
100
AcDbScale
 70
     0
300
1/4" = 1'-0"
140
0.25
141
12.0
290
     0
  0
SCALE
  5
1AB
102
{ACAD_REACTORS
330
191
102
}
330
191
100
AcDbScale
 70
     0
300
3/8" = 1'-0"
140
0.375
141
12.0
290
     0
  0
SCALE
  5
1AC
102
{ACAD_REACTORS
330
191
102
}
330
191
100
AcDbScale
 70
     0
300
1/2" = 1'-0"
140
0.5
141
12.0
290
     0
  0
SCALE
  5
1AD
102
{ACAD_REACTORS
330
191
102
}
330
191
100
AcDbScale
 70
     0
300
3/4" = 1'-0"
140
0.75
141
12.0
290
     0
  0
SCALE
  5
1AE
102
{ACAD_REACTORS
330
191
102
}
330
191
100
AcDbScale
 70
     0
300
1" = 1'-0"
140
1.0
141
12.0
290
     0
  0
SCALE
  5
1AF
102
{ACAD_REACTORS
330
191
102
}
330
191
100
AcDbScale
 70
     0
300
1-1/2" = 1'-0"
140
1.5
141
12.0
290
     0
  0
SCALE
  5
1B0
102
{ACAD_REACTORS
330
191
102
}
330
191
100
AcDbScale
 70
     0
300
3" = 1'-0"
140
3.0
141
12.0
290
     0
  0
SCALE
  5
1B1
102
{ACAD_REACTORS
330
191
102
}
330
191
100
AcDbScale
 70
     0
300
6" = 1'-0"
140
6.0
141
12.0
290
     0
  0
SCALE
  5
1B2
102
{ACAD_REACTORS
330
191
102
}
330
191
100
AcDbScale
 70
     0
300
1'-0" = 1'-0"
140
12.0
141
12.0
290
     0
  0
TABLESTYLE
  5
1BD
102
{ACAD_REACTORS
330
18F
102
}
102
{ACAD_XDICTIONARY
360
1C1
102
}
330
18F
100
AcDbTableStyle
  3
Standard
 70
     0
 71
     0
 40
0.06
 41
0.06
280
     0
281
     0
  7
Standard
140
0.18
170
     2
 62
     0
 63
   257
283
     0
 90
        4
 91
        0
  1

274
    -2
284
     1
 64
     0
275
    -2
285
     1
 65
     0
276
    -2
286
     1
 66
     0
277
    -2
287
     1
 67
     0
278
    -2
288
     1
 68
     0
279
    -2
289
     1
 69
     0
  7
Standard
140
0.25
170
     5
 62
     0
 63
   257
283
     0
 90
        4
 91
        0
  1

274
    -2
284
     1
 64
     0
275
    -2
285
     1
 65
     0
276
    -2
286
     1
 66
     0
277
    -2
287
     1
 67
     0
278
    -2
288
     1
 68
     0
279
    -2
289
     1
 69
     0
  7
Standard
140
0.18
170
     5
 62
     0
 63
   257
283
     0
 90
        4
 91
        0
  1

274
    -2
284
     1
 64
     0
275
    -2
285
     1
 65
     0
276
    -2
286
     1
 66
     0
277
    -2
287
     1
 67
     0
278
    -2
288
     1
 68
     0
279
    -2
289
     1
 69
     0
  0
VISUALSTYLE
  5
2F
102
{ACAD_REACTORS
330
2A
102
}
330
2A
100
AcDbVisualStyle
  2
2dWireframe
 70
     4
177
     3
291
     0
 70
    58
 90
        0
176
     1
 90
        2
176
     1
 90
        0
176
     1
 90
        0
176
     1
 40
-0.6
176
     1
 40
-30.0
176
     1
 62
     7
420
 16777215
176
     1
 90
        1
176
     1
 90
        4
176
     1
 62
     7
176
     1
 62
   257
176
     1
 90
        1
176
     1
 90
        1
176
     1
 40
1.0
176
     1
 90
        0
176
     1
 62
   257
176
     1
 40
1.0
176
     1
 90
        1
176
     1
 90
        6
176
     1
 90
        2
176
     1
 62
     7
176
     1
 90
        5
176
     1
 90
        0
176
     1
 90
        0
176
     1
290
     0
176
     1
 90
        1
176
     1
 40
0.0
176
     1
 90
        0
176
     1
290
     1
176
     1
290
     1
176
     1
290
     0
176
     1
290
     0
176
     1
290
     0
176
     1
290
     0
176
     1
290
     0
176
     1
290
     0
176
     1
290
     0
176
     1
 90
       50
176
     1
 40
0.0
176
     1
 40
1.0
176
     1
 90
        0
176
     1
 62
   178
420
        0
176
     1
 90
       50
176
     1
 90
        3
176
     1
 62
     5
420
      255
176
     1
290
     0
176
     1
 90
       50
176
     1
 90
       50
176
     1
 90
       50
176
     1
290
     0
176
     1
 90
       50
176
     1
 62
   256
176
     0
 40
1.0
176
     0
 90
        2
176
     1
  1
strokes_ogs.tif
176
     1
290
     0
176
     1
 40
1.0
176
     1
 40
1.0
176
     1
  0
VISUALSTYLE
  5
31
102
{ACAD_REACTORS
330
2A
102
}
330
2A
100
AcDbVisualStyle
  2
3D Hidden
 70
     6
177
     3
291
     0
 70
    58
 90
        1
176
     1
 90
        2
176
     1
 90
        2
176
     1
 90
        0
176
     1
 40
-0.6
176
     1
 40
-30.0
176
     1
 62
     7
420
 16777215
176
     1
 90
        2
176
     1
 90
        2
176
     1
 62
     7
176
     1
 62
   257
176
     1
 90
        2
176
     1
 90
        1
176
     1
 40
40.0
176
     1
 90
        0
176
     1
 62
   257
176
     1
 40
1.0
176
     1
 90
        1
176
     1
 90
        6
176
     1
 90
        2
176
     1
 62
     7
176
     1
 90
        3
176
     1
 90
        0
176
     1
 90
        0
176
     1
290
     0
176
     1
 90
        1
176
     1
 40
0.0
176
     1
 90
        0
176
     1
290
     0
176
     1
290
     1
176
     1
290
     1
176
     1
290
     0
176
     1
290
     0
176
     1
290
     0
176
     1
290
     0
176
     1
290
     0
176
     1
290
     0
176
     1
 90
       50
176
     1
 40
0.0
176
     1
 40
1.0
176
     1
 90
        0
176
     1
 62
   178
420
        0
176
     1
 90
       50
176
     1
 90
        3
176
     1
 62
     5
420
      255
176
     1
290
     0
176
     1
 90
       50
176
     1
 90
       50
176
     1
 90
       50
176
     1
290
     0
176
     1
 90
       50
176
     1
 62
   256
176
     0
 40
1.0
176
     0
 90
        2
176
     1
  1
strokes_ogs.tif
176
     1
290
     0
176
     1
 40
1.0
176
     1
 40
1.0
176
     1
  0
VISUALSTYLE
  5
30
102
{ACAD_REACTORS
330
2A
102
}
330
2A
100
AcDbVisualStyle
  2
3dWireframe
 70
     5
177
     3
291
     0
 70
    58
 90
        0
176
     1
 90
        2
176
     1
 90
        0
176
     1
 90
        0
176
     1
 40
-0.6
176
     1
 40
-30.0
176
     1
 62
     7
420
 16777215
176
     1
 90
        1
176
     1
 90
        4
176
     1
 62
     7
176
     1
 62
   257
176
     1
 90
        1
176
     1
 90
        1
176
     1
 40
1.0
176
     1
 90
        0
176
     1
 62
   257
176
     1
 40
1.0
176
     1
 90
        1
176
     1
 90
        6
176
     1
 90
        2
176
     1
 62
     7
176
     1
 90
        5
176
     1
 90
        0
176
     1
 90
        0
176
     1
290
     0
176
     1
 90
        1
176
     1
 40
0.0
176
     1
 90
        0
176
     1
290
     0
176
     1
290
     1
176
     1
290
     1
176
     1
290
     0
176
     1
290
     0
176
     1
290
     0
176
     1
290
     0
176
     1
290
     0
176
     1
290
     0
176
     1
 90
       50
176
     1
 40
0.0
176
     1
 40
1.0
176
     1
 90
        0
176
     1
 62
   178
420
        0
176
     1
 90
       50
176
     1
 90
        3
176
     1
 62
     5
420
      255
176
     1
290
     0
176
     1
 90
       50
176
     1
 90
       50
176
     1
 90
       50
176
     1
290
     0
176
     1
 90
       50
176
     1
 62
   256
176
     0
 40
1.0
176
     0
 90
        2
176
     1
  1
strokes_ogs.tif
176
     1
290
     0
176
     1
 40
1.0
176
     1
 40
1.0
176
     1
  0
VISUALSTYLE
  5
32
102
{ACAD_REACTORS
330
2A
102
}
330
2A
100
AcDbVisualStyle
  2
Basic
 70
     7
177
     3
291
     1
 70
    58
 90
        1
176
     1
 90
        0
176
     1
 90
        1
176
     1
 90
        0
176
     1
 40
-0.6
176
     1
 40
-30.0
176
     1
 62
     7
420
 16777215
176
     1
 90
        0
176
     1
 90
        4
176
     1
 62
     7
176
     1
 62
   257
176
     1
 90
        1
176
     1
 90
        1
176
     1
 40
1.0
176
     1
 90
        8
176
     1
 62
     7
176
     1
 40
1.0
176
     1
 90
        1
176
     1
 90
        6
176
     1
 90
        2
176
     1
 62
     7
176
     1
 90
        5
176
     1
 90
        0
176
     1
 90
        0
176
     1
290
     0
176
     1
 90
        1
176
     1
 40
0.0
176
     1
 90
        0
176
     1
290
     0
176
     1
290
     1
176
     1
290
     1
176
     1
290
     0
176
     1
290
     0
176
     1
290
     0
176
     1
290
     0
176
     1
290
     0
176
     1
290
     0
176
     1
 90
       50
176
     1
 40
0.0
176
     1
 40
1.0
176
     1
 90
        0
176
     1
 62
   178
420
        0
176
     1
 90
       50
176
     1
 90
        3
176
     1
 62
     5
420
      255
176
     1
290
     0
176
     1
 90
       50
176
     1
 90
       50
176
     1
 90
       50
176
     1
290
     0
176
     1
 90
       50
176
     1
 62
   256
176
     0
 40
1.0
176
     0
 90
        2
176
     1
  1
strokes_ogs.tif
176
     1
290
     0
176
     1
 40
1.0
176
     1
 40
1.0
176
     1
  0
VISUALSTYLE
  5
36
102
{ACAD_REACTORS
330
2A
102
}
330
2A
100
AcDbVisualStyle
  2
Brighten
 70
    12
177
     3
291
     1
 70
    58
 90
        2
176
     1
 90
        2
176
     1
 90
        0
176
     1
 90
        0
176
     1
 40
-0.6
176
     1
 40
-30.0
176
     1
 62
     7
420
 16777215
176
     1
 90
        1
176
     1
 90
        4
176
     1
 62
     7
176
     1
 62
   257
176
     1
 90
        1
176
     1
 90
        1
176
     1
 40
1.0
176
     1
 90
        8
176
     1
 62
     7
176
     1
 40
1.0
176
     1
 90
        1
176
     1
 90
        6
176
     1
 90
        2
176
     1
 62
     7
176
     1
 90
        5
176
     1
 90
        0
176
     1
 90
        0
176
     1
290
     0
176
     1
 90
        1
176
     1
 40
50.0
176
     1
 90
        0
176
     1
290
     0
176
     1
290
     1
176
     1
290
     1
176
     1
290
     0
176
     1
290
     0
176
     1
290
     0
176
     1
290
     0
176
     1
290
     0
176
     1
290
     0
176
     1
 90
       50
176
     1
 40
0.0
176
     1
 40
1.0
176
     1
 90
        0
176
     1
 62
   178
420
        0
176
     1
 90
       50
176
     1
 90
        3
176
     1
 62
     5
420
      255
176
     1
290
     0
176
     1
 90
       50
176
     1
 90
       50
176
     1
 90
       50
176
     1
290
     0
176
     1
 90
       50
176
     1
 62
   256
176
     0
 40
1.0
176
     0
 90
        2
176
     1
  1
strokes_ogs.tif
176
     1
290
     0
176
     1
 40
1.0
176
     1
 40
1.0
176
     1
  0
VISUALSTYLE
  5
3A
102
{ACAD_REACTORS
330
2A
102
}
330
2A
100
AcDbVisualStyle
  2
ColorChange
 70
    16
177
     3
291
     1
 70
    58
 90
        2
176
     1
 90
        2
176
     1
 90
        3
176
     1
 90
        0
176
     1
 40
-0.6
176
     1
 40
-30.0
176
     1
 62
     8
420
  8421504
176
     1
 90
        1
176
     1
 90
        4
176
     1
 62
     7
176
     1
 62
   257
176
     1
 90
        1
176
     1
 90
        1
176
     1
 40
1.0
176
     1
 90
        8
176
     1
 62
     8
420
  8421504
176
     1
 40
1.0
176
     1
 90
        1
176
     1
 90
        6
176
     1
 90
        2
176
     1
 62
     7
176
     1
 90
        5
176
     1
 90
        0
176
     1
 90
        0
176
     1
290
     0
176
     1
 90
        1
176
     1
 40
0.0
176
     1
 90
        0
176
     1
290
     0
176
     1
290
     1
176
     1
290
     1
176
     1
290
     0
176
     1
290
     0
176
     1
290
     0
176
     1
290
     0
176
     1
290
     0
176
     1
290
     0
176
     1
 90
       50
176
     1
 40
0.0
176
     1
 40
1.0
176
     1
 90
        0
176
     1
 62
   178
420
        0
176
     1
 90
       50
176
     1
 90
        3
176
     1
 62
     5
420
      255
176
     1
290
     0
176
     1
 90
       50
176
     1
 90
       50
176
     1
 90
       50
176
     1
290
     0
176
     1
 90
       50
176
     1
 62
   256
176
     0
 40
1.0
176
     0
 90
        2
176
     1
  1
strokes_ogs.tif
176
     1
290
     0
176
     1
 40
1.0
176
     1
 40
1.0
176
     1
  0
VISUALSTYLE
  5
34
102
{ACAD_REACTORS
330
2A
102
}
330
2A
100
AcDbVisualStyle
  2
Conceptual
 70
     9
177
     3
291
     0
 70
    58
 90
        3
176
     1
 90
        2
176
     1
 90
        0
176
     1
 90
        0
176
     1
 40
-0.6
176
     1
 40
-30.0
176
     1
 62
     7
420
 16777215
176
     1
 90
        2
176
     1
 90
        2
176
     1
 62
     7
176
     1
 62
   257
176
     1
 90
        1
176
     1
 90
        1
176
     1
 40
40.0
176
     1
 90
        8
176
     1
 62
     7
176
     1
 40
1.0
176
     1
 90
        1
176
     1
 90
        6
176
     1
 90
        2
176
     1
 62
     7
176
     1
 90
        3
176
     1
 90
        0
176
     1
 90
        0
176
     1
290
     0
176
     1
 90
        1
176
     1
 40
0.0
176
     1
 90
        0
176
     1
290
     0
176
     1
290
     1
176
     1
290
     1
176
     1
290
     0
176
     1
290
     0
176
     1
290
     0
176
     1
290
     0
176
     1
290
     0
176
     1
290
     0
176
     1
 90
       50
176
     1
 40
0.0
176
     1
 40
1.0
176
     1
 90
        0
176
     1
 62
   178
420
        0
176
     1
 90
       50
176
     1
 90
        3
176
     1
 62
     5
420
      255
176
     1
290
     0
176
     1
 90
       50
176
     1
 90
       50
176
     1
 90
       50
176
     1
290
     0
176
     1
 90
       50
176
     1
 62
   256
176
     0
 40
1.0
176
     0
 90
        2
176
     1
  1
strokes_ogs.tif
176
     1
290
     0
176
     1
 40
1.0
176
     1
 40
1.0
176
     1
  0
VISUALSTYLE
  5
35
102
{ACAD_REACTORS
330
2A
102
}
330
2A
100
AcDbVisualStyle
  2
Dim
 70
    11
177
     3
291
     1
 70
    58
 90
        2
176
     1
 90
        2
176
     1
 90
        0
176
     1
 90
        0
176
     1
 40
-0.6
176
     1
 40
-30.0
176
     1
 62
     7
420
 16777215
176
     1
 90
        1
176
     1
 90
        4
176
     1
 62
     7
176
     1
 62
   257
176
     1
 90
        1
176
     1
 90
        1
176
     1
 40
1.0
176
     1
 90
        8
176
     1
 62
     7
176
     1
 40
1.0
176
     1
 90
        1
176
     1
 90
        6
176
     1
 90
        2
176
     1
 62
     7
176
     1
 90
        5
176
     1
 90
        0
176
     1
 90
        0
176
     1
290
     0
176
     1
 90
        1
176
     1
 40
-50.0
176
     1
 90
        0
176
     1
290
     0
176
     1
290
     1
176
     1
290
     1
176
     1
290
     0
176
     1
290
     0
176
     1
290
     0
176
     1
290
     0
176
     1
290
     0
176
     1
290
     0
176
     1
 90
       50
176
     1
 40
0.0
176
     1
 40
1.0
176
     1
 90
        0
176
     1
 62
   178
420
        0
176
     1
 90
       50
176
     1
 90
        3
176
     1
 62
     5
420
      255
176
     1
290
     0
176
     1
 90
       50
176
     1
 90
       50
176
     1
 90
       50
176
     1
290
     0
176
     1
 90
       50
176
     1
 62
   256
176
     0
 40
1.0
176
     0
 90
        2
176
     1
  1
strokes_ogs.tif
176
     1
290
     0
176
     1
 40
1.0
176
     1
 40
1.0
176
     1
  0
VISUALSTYLE
  5
1B7
102
{ACAD_REACTORS
330
2A
102
}
330
2A
100
AcDbVisualStyle
  2
EdgeColorOff
 70
    22
177
     3
291
     1
 70
    58
 90
        2
176
     0
 90
        2
176
     0
 90
        0
176
     0
 90
        0
176
     0
 40
0.6
176
     0
 40
30.0
176
     0
 62
     7
420
 16777215
176
     0
 90
        1
176
     0
 90
        4
176
     0
 62
     7
176
     0
 62
   257
176
     0
 90
        1
176
     0
 90
        1
176
     0
 40
1.0
176
     0
 90
        8
176
     2
 62
     7
176
     0
 40
1.0
176
     0
 90
        1
176
     0
 90
        6
176
     0
 90
        2
176
     0
 62
     7
176
     0
 90
        5
176
     0
 90
        0
176
     0
 90
        0
176
     0
290
     0
176
     0
 90
        1
176
     0
 40
0.0
176
     0
 90
        0
176
     0
290
     0
176
     0
290
     1
176
     0
290
     1
176
     0
290
     0
176
     0
290
     0
176
     0
290
     0
176
     0
290
     0
176
     0
290
     0
176
     0
290
     0
176
     0
 90
       50
176
     0
 40
0.0
176
     0
 40
1.0
176
     0
 90
        0
176
     0
 62
   178
420
        0
176
     0
 90
       50
176
     0
 90
        3
176
     0
 62
     5
420
      255
176
     0
290
     0
176
     0
 90
       50
176
     0
 90
       50
176
     0
 90
       50
176
     0
290
     0
176
     0
 90
       50
176
     0
 62
   256
176
     0
 40
1.0
176
     0
 90
        2
176
     0
  1
strokes_ogs.tif
176
     0
290
     0
176
     0
 40
1.0
176
     0
 40
1.0
176
     0
  0
VISUALSTYLE
  5
39
102
{ACAD_REACTORS
330
2A
102
}
330
2A
100
AcDbVisualStyle
  2
Facepattern
 70
    15
177
     3
291
     1
 70
    58
 90
        2
176
     1
 90
        2
176
     1
 90
        0
176
     1
 90
        0
176
     1
 40
-0.6
176
     1
 40
-30.0
176
     1
 62
     7
420
 16777215
176
     1
 90
        1
176
     1
 90
        4
176
     1
 62
     7
176
     1
 62
   257
176
     1
 90
        1
176
     1
 90
        1
176
     1
 40
1.0
176
     1
 90
        8
176
     1
 62
     7
176
     1
 40
1.0
176
     1
 90
        1
176
     1
 90
        6
176
     1
 90
        2
176
     1
 62
     7
176
     1
 90
        5
176
     1
 90
        0
176
     1
 90
        0
176
     1
290
     0
176
     1
 90
        1
176
     1
 40
0.0
176
     1
 90
        0
176
     1
290
     0
176
     1
290
     1
176
     1
290
     1
176
     1
290
     0
176
     1
290
     0
176
     1
290
     0
176
     1
290
     0
176
     1
290
     0
176
     1
290
     0
176
     1
 90
       50
176
     1
 40
0.0
176
     1
 40
1.0
176
     1
 90
        0
176
     1
 62
   178
420
        0
176
     1
 90
       50
176
     1
 90
        3
176
     1
 62
     5
420
      255
176
     1
290
     0
176
     1
 90
       50
176
     1
 90
       50
176
     1
 90
       50
176
     1
290
     0
176
     1
 90
       50
176
     1
 62
   256
176
     0
 40
1.0
176
     0
 90
        2
176
     1
  1
strokes_ogs.tif
176
     1
290
     0
176
     1
 40
1.0
176
     1
 40
1.0
176
     1
  0
VISUALSTYLE
  5
2B
102
{ACAD_REACTORS
330
2A
102
}
330
2A
100
AcDbVisualStyle
  2
Flat
 70
     0
177
     3
291
     1
 70
    58
 90
        2
176
     1
 90
        1
176
     1
 90
        1
176
     1
 90
        2
176
     1
 40
-0.6
176
     1
 40
30.0
176
     1
 62
     7
420
 16777215
176
     1
 90
        0
176
     1
 90
        4
176
     1
 62
     7
176
     1
 62
   257
176
     1
 90
        1
176
     1
 90
        1
176
     1
 40
1.0
176
     1
 90
        8
176
     1
 62
     7
176
     1
 40
1.0
176
     1
 90
        1
176
     1
 90
        6
176
     1
 90
        2
176
     1
 62
     7
176
     1
 90
        5
176
     1
 90
        0
176
     1
 90
        0
176
     1
290
     0
176
     1
 90
       13
176
     1
 40
0.0
176
     1
 90
        0
176
     1
290
     0
176
     1
290
     1
176
     1
290
     1
176
     1
290
     0
176
     1
290
     0
176
     1
290
     0
176
     1
290
     0
176
     1
290
     0
176
     1
290
     0
176
     1
 90
       50
176
     1
 40
0.0
176
     1
 40
1.0
176
     1
 90
        0
176
     1
 62
   178
420
        0
176
     1
 90
       50
176
     1
 90
        3
176
     1
 62
     5
420
      255
176
     1
290
     0
176
     1
 90
       50
176
     1
 90
       50
176
     1
 90
       50
176
     1
290
     0
176
     1
 90
       50
176
     1
 62
   256
176
     0
 40
1.0
176
     0
 90
        2
176
     1
  1
strokes_ogs.tif
176
     1
290
     0
176
     1
 40
1.0
176
     1
 40
1.0
176
     1
  0
VISUALSTYLE
  5
2C
102
{ACAD_REACTORS
330
2A
102
}
330
2A
100
AcDbVisualStyle
  2
FlatWithEdges
 70
     1
177
     3
291
     1
 70
    58
 90
        2
176
     1
 90
        1
176
     1
 90
        1
176
     1
 90
        2
176
     1
 40
-0.6
176
     1
 40
30.0
176
     1
 62
     7
420
 16777215
176
     1
 90
        1
176
     1
 90
        4
176
     1
 62
     7
176
     1
 62
   257
176
     1
 90
        1
176
     1
 90
        1
176
     1
 40
1.0
176
     1
 90
        0
176
     1
 62
   257
176
     1
 40
1.0
176
     1
 90
        1
176
     1
 90
        6
176
     1
 90
        2
176
     1
 62
     7
176
     1
 90
        5
176
     1
 90
        0
176
     1
 90
        0
176
     1
290
     0
176
     1
 90
       13
176
     1
 40
0.0
176
     1
 90
        0
176
     1
290
     0
176
     1
290
     1
176
     1
290
     1
176
     1
290
     0
176
     1
290
     0
176
     1
290
     0
176
     1
290
     0
176
     1
290
     0
176
     1
290
     0
176
     1
 90
       50
176
     1
 40
0.0
176
     1
 40
1.0
176
     1
 90
        0
176
     1
 62
   178
420
        0
176
     1
 90
       50
176
     1
 90
        3
176
     1
 62
     5
420
      255
176
     1
290
     0
176
     1
 90
       50
176
     1
 90
       50
176
     1
 90
       50
176
     1
290
     0
176
     1
 90
       50
176
     1
 62
   256
176
     0
 40
1.0
176
     0
 90
        2
176
     1
  1
strokes_ogs.tif
176
     1
290
     0
176
     1
 40
1.0
176
     1
 40
1.0
176
     1
  0
VISUALSTYLE
  5
2D
102
{ACAD_REACTORS
330
2A
102
}
330
2A
100
AcDbVisualStyle
  2
Gouraud
 70
     2
177
     3
291
     1
 70
    58
 90
        2
176
     1
 90
        2
176
     1
 90
        1
176
     1
 90
        2
176
     1
 40
-0.6
176
     1
 40
30.0
176
     1
 62
     7
420
 16777215
176
     1
 90
        0
176
     1
 90
        4
176
     1
 62
     7
176
     1
 62
   257
176
     1
 90
        1
176
     1
 90
        1
176
     1
 40
1.0
176
     1
 90
        0
176
     1
 62
     7
176
     1
 40
1.0
176
     1
 90
        1
176
     1
 90
        6
176
     1
 90
        2
176
     1
 62
     7
176
     1
 90
        5
176
     1
 90
        0
176
     1
 90
        0
176
     1
290
     0
176
     1
 90
       13
176
     1
 40
0.0
176
     1
 90
        0
176
     1
290
     0
176
     1
290
     1
176
     1
290
     1
176
     1
290
     0
176
     1
290
     0
176
     1
290
     0
176
     1
290
     0
176
     1
290
     0
176
     1
290
     0
176
     1
 90
       50
176
     1
 40
0.0
176
     1
 40
1.0
176
     1
 90
        0
176
     1
 62
   178
420
        0
176
     1
 90
       50
176
     1
 90
        3
176
     1
 62
     5
420
      255
176
     1
290
     0
176
     1
 90
       50
176
     1
 90
       50
176
     1
 90
       50
176
     1
290
     0
176
     1
 90
       50
176
     1
 62
   256
176
     0
 40
1.0
176
     0
 90
        2
176
     1
  1
strokes_ogs.tif
176
     1
290
     0
176
     1
 40
1.0
176
     1
 40
1.0
176
     1
  0
VISUALSTYLE
  5
2E
102
{ACAD_REACTORS
330
2A
102
}
330
2A
100
AcDbVisualStyle
  2
GouraudWithEdges
 70
     3
177
     3
291
     1
 70
    58
 90
        2
176
     1
 90
        2
176
     1
 90
        1
176
     1
 90
        2
176
     1
 40
-0.6
176
     1
 40
30.0
176
     1
 62
     7
420
 16777215
176
     1
 90
        1
176
     1
 90
        4
176
     1
 62
     7
176
     1
 62
   257
176
     1
 90
        1
176
     1
 90
        1
176
     1
 40
1.0
176
     1
 90
        0
176
     1
 62
   257
176
     1
 40
1.0
176
     1
 90
        1
176
     1
 90
        6
176
     1
 90
        2
176
     1
 62
     7
176
     1
 90
        5
176
     1
 90
        0
176
     1
 90
        0
176
     1
290
     0
176
     1
 90
       13
176
     1
 40
0.0
176
     1
 90
        0
176
     1
290
     0
176
     1
290
     1
176
     1
290
     1
176
     1
290
     0
176
     1
290
     0
176
     1
290
     0
176
     1
290
     0
176
     1
290
     0
176
     1
290
     0
176
     1
 90
       50
176
     1
 40
0.0
176
     1
 40
1.0
176
     1
 90
        0
176
     1
 62
   178
420
        0
176
     1
 90
       50
176
     1
 90
        3
176
     1
 62
     5
420
      255
176
     1
290
     0
176
     1
 90
       50
176
     1
 90
       50
176
     1
 90
       50
176
     1
290
     0
176
     1
 90
       50
176
     1
 62
   256
176
     0
 40
1.0
176
     0
 90
        2
176
     1
  1
strokes_ogs.tif
176
     1
290
     0
176
     1
 40
1.0
176
     1
 40
1.0
176
     1
  0
VISUALSTYLE
  5
1B4
102
{ACAD_REACTORS
330
2A
102
}
330
2A
100
AcDbVisualStyle
  2
Hidden
 70
     6
177
     3
291
     0
 70
    58
 90
        1
176
     1
 90
        2
176
     1
 90
        2
176
     1
 90
        0
176
     1
 40
0.6
176
     1
 40
30.0
176
     1
 62
     7
420
 16777215
176
     1
 90
        2
176
     1
 90
        2
176
     1
 62
     7
176
     1
 62
   257
176
     1
 90
        2
176
     1
 90
        1
176
     1
 40
40.0
176
     1
 90
        0
176
     1
 62
   257
176
     1
 40
1.0
176
     1
 90
        1
176
     1
 90
        6
176
     1
 90
        2
176
     1
 62
     7
176
     1
 90
        3
176
     1
 90
        0
176
     1
 90
        0
176
     1
290
     0
176
     1
 90
        1
176
     1
 40
0.0
176
     1
 90
        0
176
     1
290
     0
176
     1
290
     1
176
     1
290
     1
176
     1
290
     0
176
     1
290
     0
176
     1
290
     0
176
     1
290
     0
176
     1
290
     0
176
     1
290
     0
176
     1
 90
       50
176
     1
 40
0.0
176
     1
 40
1.0
176
     1
 90
        0
176
     1
 62
   178
420
        0
176
     1
 90
       50
176
     1
 90
        3
176
     1
 62
     5
420
      255
176
     1
290
     0
176
     1
 90
       50
176
     1
 90
       50
176
     1
 90
       50
176
     1
290
     0
176
     1
 90
       50
176
     1
 62
   256
176
     0
 40
1.0
176
     0
 90
        2
176
     1
  1
strokes_ogs.tif
176
     1
290
     0
176
     1
 40
1.0
176
     1
 40
1.0
176
     1
  0
VISUALSTYLE
  5
1B5
102
{ACAD_REACTORS
330
2A
102
}
330
2A
100
AcDbVisualStyle
  2
JitterOff
 70
    20
177
     3
291
     1
 70
    58
 90
        2
176
     0
 90
        2
176
     0
 90
        0
176
     0
 90
        0
176
     0
 40
0.6
176
     0
 40
30.0
176
     0
 62
     7
420
 16777215
176
     0
 90
        1
176
     0
 90
        4
176
     0
 62
     7
176
     0
 62
   257
176
     0
 90
        1
176
     0
 90
        1
176
     0
 40
1.0
176
     0
 90
       10
176
     2
 62
     7
176
     0
 40
1.0
176
     0
 90
        1
176
     0
 90
        6
176
     0
 90
        2
176
     0
 62
     7
176
     0
 90
        5
176
     0
 90
        0
176
     0
 90
        0
176
     0
290
     0
176
     0
 90
        1
176
     0
 40
0.0
176
     0
 90
        0
176
     0
290
     0
176
     0
290
     1
176
     0
290
     1
176
     0
290
     0
176
     0
290
     0
176
     0
290
     0
176
     0
290
     0
176
     0
290
     0
176
     0
290
     0
176
     0
 90
       50
176
     0
 40
0.0
176
     0
 40
1.0
176
     0
 90
        0
176
     0
 62
   178
420
        0
176
     0
 90
       50
176
     0
 90
        3
176
     0
 62
     5
420
      255
176
     0
290
     0
176
     0
 90
       50
176
     0
 90
       50
176
     0
 90
       50
176
     0
290
     0
176
     0
 90
       50
176
     0
 62
   256
176
     0
 40
1.0
176
     0
 90
        2
176
     0
  1
strokes_ogs.tif
176
     0
290
     0
176
     0
 40
1.0
176
     0
 40
1.0
176
     0
  0
VISUALSTYLE
  5
38
102
{ACAD_REACTORS
330
2A
102
}
330
2A
100
AcDbVisualStyle
  2
Linepattern
 70
    14
177
     3
291
     1
 70
    58
 90
        2
176
     1
 90
        2
176
     1
 90
        0
176
     1
 90
        0
176
     1
 40
-0.6
176
     1
 40
-30.0
176
     1
 62
     7
420
 16777215
176
     1
 90
        1
176
     1
 90
        4
176
     1
 62
     7
176
     1
 62
   257
176
     1
 90
        7
176
     1
 90
        7
176
     1
 40
1.0
176
     1
 90
        8
176
     1
 62
     7
176
     1
 40
1.0
176
     1
 90
        1
176
     1
 90
        6
176
     1
 90
        2
176
     1
 62
     7
176
     1
 90
        5
176
     1
 90
        0
176
     1
 90
        0
176
     1
290
     0
176
     1
 90
        1
176
     1
 40
0.0
176
     1
 90
        0
176
     1
290
     0
176
     1
290
     1
176
     1
290
     1
176
     1
290
     0
176
     1
290
     0
176
     1
290
     0
176
     1
290
     0
176
     1
290
     0
176
     1
290
     0
176
     1
 90
       50
176
     1
 40
0.0
176
     1
 40
1.0
176
     1
 90
        0
176
     1
 62
   178
420
        0
176
     1
 90
       50
176
     1
 90
        3
176
     1
 62
     5
420
      255
176
     1
290
     0
176
     1
 90
       50
176
     1
 90
       50
176
     1
 90
       50
176
     1
290
     0
176
     1
 90
       50
176
     1
 62
   256
176
     0
 40
1.0
176
     0
 90
        2
176
     1
  1
strokes_ogs.tif
176
     1
290
     0
176
     1
 40
1.0
176
     1
 40
1.0
176
     1
  0
VISUALSTYLE
  5
1B6
102
{ACAD_REACTORS
330
2A
102
}
330
2A
100
AcDbVisualStyle
  2
OverhangOff
 70
    21
177
     3
291
     1
 70
    58
 90
        2
176
     0
 90
        2
176
     0
 90
        0
176
     0
 90
        0
176
     0
 40
0.6
176
     0
 40
30.0
176
     0
 62
     7
420
 16777215
176
     0
 90
        1
176
     0
 90
        4
176
     0
 62
     7
176
     0
 62
   257
176
     0
 90
        1
176
     0
 90
        1
176
     0
 40
1.0
176
     0
 90
        9
176
     2
 62
     7
176
     0
 40
1.0
176
     0
 90
        1
176
     0
 90
        6
176
     0
 90
        2
176
     0
 62
     7
176
     0
 90
        5
176
     0
 90
        0
176
     0
 90
        0
176
     0
290
     0
176
     0
 90
        1
176
     0
 40
0.0
176
     0
 90
        0
176
     0
290
     0
176
     0
290
     1
176
     0
290
     1
176
     0
290
     0
176
     0
290
     0
176
     0
290
     0
176
     0
290
     0
176
     0
290
     0
176
     0
290
     0
176
     0
 90
       50
176
     0
 40
0.0
176
     0
 40
1.0
176
     0
 90
        0
176
     0
 62
   178
420
        0
176
     0
 90
       50
176
     0
 90
        3
176
     0
 62
     5
420
      255
176
     0
290
     0
176
     0
 90
       50
176
     0
 90
       50
176
     0
 90
       50
176
     0
290
     0
176
     0
 90
       50
176
     0
 62
   256
176
     0
 40
1.0
176
     0
 90
        2
176
     0
  1
strokes_ogs.tif
176
     0
290
     0
176
     0
 40
1.0
176
     0
 40
1.0
176
     0
  0
VISUALSTYLE
  5
33
102
{ACAD_REACTORS
330
2A
102
}
330
2A
100
AcDbVisualStyle
  2
Realistic
 70
     8
177
     3
291
     0
 70
    58
 90
        2
176
     1
 90
        2
176
     1
 90
        0
176
     1
 90
        0
176
     1
 40
-0.6
176
     1
 40
-30.0
176
     1
 62
     7
420
 16777215
176
     1
 90
        1
176
     1
 90
        0
176
     1
 62
     7
176
     1
 62
   257
176
     1
 90
        1
176
     1
 90
        1
176
     1
 40
1.0
176
     1
 90
        8
176
     1
 62
     8
420
  7895160
176
     1
 40
1.0
176
     1
 90
        1
176
     1
 90
        6
176
     1
 90
        2
176
     1
 62
     7
176
     1
 90
        5
176
     1
 90
        0
176
     1
 90
        0
176
     1
290
     0
176
     1
 90
       13
176
     1
 40
0.0
176
     1
 90
        0
176
     1
290
     0
176
     1
290
     1
176
     1
290
     1
176
     1
290
     0
176
     1
290
     0
176
     1
290
     0
176
     1
290
     0
176
     1
290
     0
176
     1
290
     0
176
     1
 90
       50
176
     1
 40
0.0
176
     1
 40
1.0
176
     1
 90
        0
176
     1
 62
   178
420
        0
176
     1
 90
       50
176
     1
 90
        3
176
     1
 62
     5
420
      255
176
     1
290
     0
176
     1
 90
       50
176
     1
 90
       50
176
     1
 90
       50
176
     1
290
     0
176
     1
 90
       50
176
     1
 62
   256
176
     0
 40
1.0
176
     0
 90
        2
176
     1
  1
strokes_ogs.tif
176
     1
290
     0
176
     1
 40
1.0
176
     1
 40
1.0
176
     1
  0
VISUALSTYLE
  5
1BC
102
{ACAD_REACTORS
330
2A
102
}
330
2A
100
AcDbVisualStyle
  2
Shaded
 70
    27
177
     3
291
     0
 70
    58
 90
        2
176
     1
 90
        2
176
     1
 90
        1
176
     1
 90
        2
176
     1
 40
0.6
176
     1
 40
30.0
176
     1
 62
     7
420
 16777215
176
     1
 90
        0
176
     1
 90
        4
176
     1
 62
     7
176
     1
 62
   257
176
     1
 90
        1
176
     1
 90
        1
176
     1
 40
1.0
176
     1
 90
        8
176
     1
 62
   257
176
     1
 40
1.0
176
     1
 90
        1
176
     1
 90
        6
176
     1
 90
        2
176
     1
 62
     8
420
  7895160
176
     1
 90
        3
176
     1
 90
        0
176
     1
 90
        0
176
     1
290
     0
176
     1
 90
        5
176
     1
 40
0.0
176
     1
 90
        0
176
     1
290
     0
176
     1
290
     1
176
     1
290
     1
176
     1
290
     0
176
     1
290
     0
176
     1
290
     0
176
     1
290
     0
176
     1
290
     0
176
     1
290
     0
176
     1
 90
       50
176
     1
 40
0.0
176
     1
 40
1.0
176
     1
 90
        0
176
     1
 62
   178
420
        0
176
     1
 90
       50
176
     1
 90
        3
176
     1
 62
     5
420
      255
176
     1
290
     0
176
     1
 90
       50
176
     1
 90
       50
176
     1
 90
       50
176
     1
290
     0
176
     1
 90
       50
176
     1
 62
   256
176
     0
 40
1.0
176
     0
 90
        2
176
     1
  1
strokes_ogs.tif
176
     1
290
     0
176
     1
 40
1.0
176
     1
 40
1.0
176
     1
  0
VISUALSTYLE
  5
1BB
102
{ACAD_REACTORS
330
2A
102
}
330
2A
100
AcDbVisualStyle
  2
Shaded with edges
 70
    26
177
     3
291
     0
 70
    58
 90
        2
176
     1
 90
        2
176
     1
 90
        1
176
     1
 90
        2
176
     1
 40
0.6
176
     1
 40
30.0
176
     1
 62
     7
420
 16777215
176
     1
 90
        1
176
     1
 90
       10
176
     1
 62
     7
176
     1
 62
   257
176
     1
 90
        2
176
     1
 90
        1
176
     1
 40
1.0
176
     1
 90
        8
176
     1
 62
   257
176
     1
 40
1.0
176
     1
 90
        1
176
     1
 90
        6
176
     1
 90
        2
176
     1
 62
     7
176
     1
 90
        3
176
     1
 90
        0
176
     1
 90
        0
176
     1
290
     0
176
     1
 90
        5
176
     1
 40
0.0
176
     1
 90
        0
176
     1
290
     0
176
     1
290
     1
176
     1
290
     1
176
     1
290
     0
176
     1
290
     0
176
     1
290
     0
176
     1
290
     0
176
     1
290
     0
176
     1
290
     0
176
     1
 90
       50
176
     1
 40
0.0
176
     1
 40
1.0
176
     1
 90
        0
176
     1
 62
   178
420
        0
176
     1
 90
       50
176
     1
 90
        3
176
     1
 62
     5
420
      255
176
     1
290
     0
176
     1
 90
       50
176
     1
 90
       50
176
     1
 90
       50
176
     1
290
     0
176
     1
 90
       50
176
     1
 62
   256
176
     0
 40
1.0
176
     0
 90
        2
176
     1
  1
strokes_ogs.tif
176
     1
290
     0
176
     1
 40
1.0
176
     1
 40
1.0
176
     1
  0
VISUALSTYLE
  5
1B8
102
{ACAD_REACTORS
330
2A
102
}
330
2A
100
AcDbVisualStyle
  2
Shades of Gray
 70
    23
177
     3
291
     0
 70
    58
 90
        2
176
     1
 90
        2
176
     1
 90
        3
176
     1
 90
        0
176
     1
 40
0.6
176
     1
 40
30.0
176
     1
 62
     7
420
 16777215
176
     1
 90
        2
176
     1
 90
        2
176
     1
 62
     7
176
     1
 62
     7
176
     1
 90
        1
176
     1
 90
        1
176
     1
 40
40.0
176
     1
 90
        8
176
     1
 62
     7
176
     1
 40
1.0
176
     1
 90
        1
176
     1
 90
        6
176
     1
 90
        2
176
     1
 62
     7
176
     1
 90
        3
176
     1
 90
        0
176
     1
 90
        0
176
     1
290
     0
176
     1
 90
        1
176
     1
 40
0.0
176
     1
 90
        0
176
     1
290
     0
176
     1
290
     1
176
     1
290
     1
176
     1
290
     0
176
     1
290
     0
176
     1
290
     0
176
     1
290
     0
176
     1
290
     0
176
     1
290
     0
176
     1
 90
       50
176
     1
 40
0.0
176
     1
 40
1.0
176
     1
 90
        0
176
     1
 62
   178
420
        0
176
     1
 90
       50
176
     1
 90
        3
176
     1
 62
     5
420
      255
176
     1
290
     0
176
     1
 90
       50
176
     1
 90
       50
176
     1
 90
       50
176
     1
290
     0
176
     1
 90
       50
176
     1
 62
   256
176
     0
 40
1.0
176
     0
 90
        2
176
     1
  1
strokes_ogs.tif
176
     1
290
     0
176
     1
 40
1.0
176
     1
 40
1.0
176
     1
  0
VISUALSTYLE
  5
1B9
102
{ACAD_REACTORS
330
2A
102
}
330
2A
100
AcDbVisualStyle
  2
Sketchy
 70
    24
177
     3
291
     0
 70
    58
 90
        1
176
     1
 90
        2
176
     1
 90
        2
176
     1
 90
        0
176
     1
 40
0.6
176
     1
 40
30.0
176
     1
 62
     7
420
 16777215
176
     1
 90
        2
176
     1
 90
        2
176
     1
 62
     7
176
     1
 62
     7
176
     1
 90
        1
176
     1
 90
        1
176
     1
 40
40.0
176
     1
 90
       11
176
     1
 62
     7
176
     1
 40
1.0
176
     1
 90
        1
176
     1
 90
        6
176
     1
 90
        2
176
     1
 62
     7
176
     1
 90
        6
176
     1
 90
        0
176
     1
 90
        0
176
     1
290
     0
176
     1
 90
        1
176
     1
 40
0.0
176
     1
 90
        0
176
     1
290
     0
176
     1
290
     1
176
     1
290
     1
176
     1
290
     0
176
     1
290
     0
176
     1
290
     0
176
     1
290
     0
176
     1
290
     0
176
     1
290
     0
176
     1
 90
       50
176
     1
 40
0.0
176
     1
 40
1.0
176
     1
 90
        0
176
     1
 62
   178
420
        0
176
     1
 90
       50
176
     1
 90
        3
176
     1
 62
     5
420
      255
176
     1
290
     0
176
     1
 90
       50
176
     1
 90
       50
176
     1
 90
       50
176
     1
290
     0
176
     1
 90
       50
176
     1
 62
   256
176
     0
 40
1.0
176
     0
 90
        2
176
     1
  1
strokes_ogs.tif
176
     1
290
     0
176
     1
 40
1.0
176
     1
 40
1.0
176
     1
  0
VISUALSTYLE
  5
37
102
{ACAD_REACTORS
330
2A
102
}
330
2A
100
AcDbVisualStyle
  2
Thicken
 70
    13
177
     3
291
     1
 70
    58
 90
        2
176
     1
 90
        2
176
     1
 90
        0
176
     1
 90
        0
176
     1
 40
-0.6
176
     1
 40
-30.0
176
     1
 62
     7
420
 16777215
176
     1
 90
        1
176
     1
 90
        4
176
     1
 62
     7
176
     1
 62
   257
176
     1
 90
        1
176
     1
 90
        1
176
     1
 40
1.0
176
     1
 90
       12
176
     1
 62
     7
176
     1
 40
1.0
176
     1
 90
        1
176
     1
 90
        6
176
     1
 90
        2
176
     1
 62
     7
176
     1
 90
        5
176
     1
 90
        0
176
     1
 90
        0
176
     1
290
     0
176
     1
 90
        1
176
     1
 40
0.0
176
     1
 90
        0
176
     1
290
     0
176
     1
290
     1
176
     1
290
     1
176
     1
290
     0
176
     1
290
     0
176
     1
290
     0
176
     1
290
     0
176
     1
290
     0
176
     1
290
     0
176
     1
 90
       50
176
     1
 40
0.0
176
     1
 40
1.0
176
     1
 90
        0
176
     1
 62
   178
420
        0
176
     1
 90
       50
176
     1
 90
        3
176
     1
 62
     5
420
      255
176
     1
290
     0
176
     1
 90
       50
176
     1
 90
       50
176
     1
 90
       50
176
     1
290
     0
176
     1
 90
       50
176
     1
 62
   256
176
     0
 40
1.0
176
     0
 90
        2
176
     1
  1
strokes_ogs.tif
176
     1
290
     0
176
     1
 40
1.0
176
     1
 40
1.0
176
     1
  0
VISUALSTYLE
  5
1B3
102
{ACAD_REACTORS
330
2A
102
}
330
2A
100
AcDbVisualStyle
  2
Wireframe
 70
     5
177
     3
291
     0
 70
    58
 90
        0
176
     1
 90
        2
176
     1
 90
        0
176
     1
 90
        0
176
     1
 40
0.6
176
     1
 40
30.0
176
     1
 62
     7
420
 16777215
176
     1
 90
        1
176
     1
 90
        4
176
     1
 62
     7
176
     1
 62
   257
176
     1
 90
        1
176
     1
 90
        1
176
     1
 40
1.0
176
     1
 90
        0
176
     1
 62
   257
176
     1
 40
1.0
176
     1
 90
        1
176
     1
 90
        6
176
     1
 90
        2
176
     1
 62
     7
176
     1
 90
        3
176
     1
 90
        0
176
     1
 90
        0
176
     1
290
     0
176
     1
 90
        1
176
     1
 40
0.0
176
     1
 90
        0
176
     1
290
     0
176
     1
290
     1
176
     1
290
     1
176
     1
290
     0
176
     1
290
     0
176
     1
290
     0
176
     1
290
     0
176
     1
290
     0
176
     1
290
     0
176
     1
 90
       50
176
     1
 40
0.0
176
     1
 40
1.0
176
     1
 90
        0
176
     1
 62
   178
420
        0
176
     1
 90
       50
176
     1
 90
        3
176
     1
 62
     5
420
      255
176
     1
290
     0
176
     1
 90
       50
176
     1
 90
       50
176
     1
 90
       50
176
     1
290
     0
176
     1
 90
       50
176
     1
 62
   256
176
     0
 40
1.0
176
     0
 90
        2
176
     1
  1
strokes_ogs.tif
176
     1
290
     0
176
     1
 40
1.0
176
     1
 40
1.0
176
     1
  0
VISUALSTYLE
  5
1BA
102
{ACAD_REACTORS
330
2A
102
}
330
2A
100
AcDbVisualStyle
  2
X-Ray
 70
    25
177
     3
291
     0
 70
    58
 90
        2
176
     1
 90
        2
176
     1
 90
        1
176
     1
 90
        1
176
     1
 40
0.5
176
     1
 40
30.0
176
     1
 62
     7
420
 16777215
176
     1
 90
        1
176
     1
 90
        0
176
     1
 62
     7
176
     1
 62
   257
176
     1
 90
        1
176
     1
 90
        1
176
     1
 40
1.0
176
     1
 90
        8
176
     1
 62
     7
176
     1
 40
1.0
176
     1
 90
        1
176
     1
 90
        6
176
     1
 90
        2
176
     1
 62
     7
176
     1
 90
        3
176
     1
 90
        0
176
     1
 90
        0
176
     1
290
     0
176
     1
 90
       13
176
     1
 40
0.0
176
     1
 90
        0
176
     1
290
     0
176
     1
290
     1
176
     1
290
     1
176
     1
290
     0
176
     1
290
     0
176
     1
290
     0
176
     1
290
     0
176
     1
290
     0
176
     1
290
     0
176
     1
 90
       50
176
     1
 40
0.0
176
     1
 40
1.0
176
     1
 90
        0
176
     1
 62
   178
420
        0
176
     1
 90
       50
176
     1
 90
        3
176
     1
 62
     5
420
      255
176
     1
290
     0
176
     1
 90
       50
176
     1
 90
       50
176
     1
 90
       50
176
     1
290
     0
176
     1
 90
       50
176
     1
 62
   256
176
     0
 40
1.0
176
     0
 90
        2
176
     1
  1
strokes_ogs.tif
176
     1
290
     0
176
     1
 40
1.0
176
     1
 40
1.0
176
     1
  0
DICTIONARYVAR
  5
1C0
102
{ACAD_REACTORS
330
1BF
102
}
330
1BF
100
DictionaryVariables
280
     0
  1
1:1
  0
DICTIONARYVAR
  5
1C5
102
{ACAD_REACTORS
330
1BF
102
}
330
1BF
100
DictionaryVariables
280
     0
  1
Standard
  0
DICTIONARYVAR
  5
1C4
102
{ACAD_REACTORS
330
1BF
102
}
330
1BF
100
DictionaryVariables
280
     0
  1
Standard
  0
DICTIONARYVAR
  5
1C6
102
{ACAD_REACTORS
330
1BF
102
}
330
1BF
100
DictionaryVariables
280
     0
  1
0
  0
DICTIONARY
  5
1C1
330
1BD
100
AcDbDictionary
280
     1
281
     1
  3
ACAD_ROUNDTRIP_2008_TABLESTYLE_CELLSTYLEMAP
360
1C2
  0
CELLSTYLEMAP
  5
1C2
102
{ACAD_REACTORS
330
1C1
102
}
330
1C1
100
AcDbCellStyleMap
 90
        3
300
CELLSTYLE
  1
TABLEFORMAT_BEGIN
 90
        5
170
     1
 91
        0
 92
    32768
 62
   257
 93
        1
300
CONTENTFORMAT
  1
CONTENTFORMAT_BEGIN
 90
        0
 91
        0
 92
        4
 93
        0
300

 40
0.0
140
1.0
 94
        5
 62
     0
340
11
144
0.25
309
CONTENTFORMAT_END
171
     1
301
MARGIN
  1
CELLMARGIN_BEGIN
 40
0.06
 40
0.06
 40
0.06
 40
0.06
 40
0.06
 40
0.06
309
CELLMARGIN_END
 94
        6
 95
        1
302
GRIDFORMAT
  1
GRIDFORMAT_BEGIN
 90
        0
 91
        1
 62
     0
 92
       -2
340
14
 93
        0
 40
0.045
309
GRIDFORMAT_END
 95
        2
302
GRIDFORMAT
  1
GRIDFORMAT_BEGIN
 90
        0
 91
        1
 62
     0
 92
       -2
340
14
 93
        0
 40
0.045
309
GRIDFORMAT_END
 95
        4
302
GRIDFORMAT
  1
GRIDFORMAT_BEGIN
 90
        0
 91
        1
 62
     0
 92
       -2
340
14
 93
        0
 40
0.045
309
GRIDFORMAT_END
 95
        8
302
GRIDFORMAT
  1
GRIDFORMAT_BEGIN
 90
        0
 91
        1
 62
     0
 92
       -2
340
14
 93
        0
 40
0.045
309
GRIDFORMAT_END
 95
       16
302
GRIDFORMAT
  1
GRIDFORMAT_BEGIN
 90
        0
 91
        1
 62
     0
 92
       -2
340
14
 93
        0
 40
0.045
309
GRIDFORMAT_END
 95
       32
302
GRIDFORMAT
  1
GRIDFORMAT_BEGIN
 90
        0
 91
        1
 62
     0
 92
       -2
340
14
 93
        0
 40
0.045
309
GRIDFORMAT_END
309
TABLEFORMAT_END
  1
CELLSTYLE_BEGIN
 90
        1
 91
        1
300
_TITLE
309
CELLSTYLE_END
300
CELLSTYLE
  1
TABLEFORMAT_BEGIN
 90
        5
170
     1
 91
        0
 92
        0
 62
   257
 93
        1
300
CONTENTFORMAT
  1
CONTENTFORMAT_BEGIN
 90
        0
 91
        0
 92
        4
 93
        0
300

 40
0.0
140
1.0
 94
        5
 62
     0
340
11
144
0.18
309
CONTENTFORMAT_END
171
     1
301
MARGIN
  1
CELLMARGIN_BEGIN
 40
0.06
 40
0.06
 40
0.06
 40
0.06
 40
0.06
 40
0.06
309
CELLMARGIN_END
 94
        6
 95
        1
302
GRIDFORMAT
  1
GRIDFORMAT_BEGIN
 90
        0
 91
        1
 62
     0
 92
       -2
340
14
 93
        0
 40
0.045
309
GRIDFORMAT_END
 95
        2
302
GRIDFORMAT
  1
GRIDFORMAT_BEGIN
 90
        0
 91
        1
 62
     0
 92
       -2
340
14
 93
        0
 40
0.045
309
GRIDFORMAT_END
 95
        4
302
GRIDFORMAT
  1
GRIDFORMAT_BEGIN
 90
        0
 91
        1
 62
     0
 92
       -2
340
14
 93
        0
 40
0.045
309
GRIDFORMAT_END
 95
        8
302
GRIDFORMAT
  1
GRIDFORMAT_BEGIN
 90
        0
 91
        1
 62
     0
 92
       -2
340
14
 93
        0
 40
0.045
309
GRIDFORMAT_END
 95
       16
302
GRIDFORMAT
  1
GRIDFORMAT_BEGIN
 90
        0
 91
        1
 62
     0
 92
       -2
340
14
 93
        0
 40
0.045
309
GRIDFORMAT_END
 95
       32
302
GRIDFORMAT
  1
GRIDFORMAT_BEGIN
 90
        0
 91
        1
 62
     0
 92
       -2
340
14
 93
        0
 40
0.045
309
GRIDFORMAT_END
309
TABLEFORMAT_END
  1
CELLSTYLE_BEGIN
 90
        2
 91
        1
300
_HEADER
309
CELLSTYLE_END
300
CELLSTYLE
  1
TABLEFORMAT_BEGIN
 90
        5
170
     1
 91
        0
 92
        0
 62
   257
 93
        1
300
CONTENTFORMAT
  1
CONTENTFORMAT_BEGIN
 90
        0
 91
        0
 92
        4
 93
        0
300

 40
0.0
140
1.0
 94
        2
 62
     0
340
11
144
0.18
309
CONTENTFORMAT_END
171
     1
301
MARGIN
  1
CELLMARGIN_BEGIN
 40
0.06
 40
0.06
 40
0.06
 40
0.06
 40
0.06
 40
0.06
309
CELLMARGIN_END
 94
        6
 95
        1
302
GRIDFORMAT
  1
GRIDFORMAT_BEGIN
 90
        0
 91
        1
 62
     0
 92
       -2
340
14
 93
        0
 40
0.045
309
GRIDFORMAT_END
 95
        2
302
GRIDFORMAT
  1
GRIDFORMAT_BEGIN
 90
        0
 91
        1
 62
     0
 92
       -2
340
14
 93
        0
 40
0.045
309
GRIDFORMAT_END
 95
        4
302
GRIDFORMAT
  1
GRIDFORMAT_BEGIN
 90
        0
 91
        1
 62
     0
 92
       -2
340
14
 93
        0
 40
0.045
309
GRIDFORMAT_END
 95
        8
302
GRIDFORMAT
  1
GRIDFORMAT_BEGIN
 90
        0
 91
        1
 62
     0
 92
       -2
340
14
 93
        0
 40
0.045
309
GRIDFORMAT_END
 95
       16
302
GRIDFORMAT
  1
GRIDFORMAT_BEGIN
 90
        0
 91
        1
 62
     0
 92
       -2
340
14
 93
        0
 40
0.045
309
GRIDFORMAT_END
 95
       32
302
GRIDFORMAT
  1
GRIDFORMAT_BEGIN
 90
        0
 91
        1
 62
     0
 92
       -2
340
14
 93
        0
 40
0.045
309
GRIDFORMAT_END
309
TABLEFORMAT_END
  1
CELLSTYLE_BEGIN
 90
        3
 91
        2
300
_DATA
309
CELLSTYLE_END
  0
ENDSEC
  0
EOF
