  0
SECTION
  2
HEADER
  9
$ACADVER
  1
AC1027
  9
$ACADMAINTVER
 70
     8
  9
$DWGCODEPAGE
  3
ANSI_1252
  9
$REQUIREDVERSIONS
160
                 0
  9
$INSBASE
 10
0.0
 20
0.0
 30
0.0
  9
$EXTMIN
 10
-183.7009
 20
-238.3281
 30
0.0
  9
$EXTMAX
 10
180.6489
 20
184.0893
 30
0.0
  9
$LIMMIN
 10
0.0
 20
0.0
  9
$LIMMAX
 10
12.0
 20
9.0
  9
$ORTHOMODE
 70
     0
  9
$REGENMODE
 70
     1
  9
$FILLMODE
 70
     1
  9
$QTEXTMODE
 70
     0
  9
$MIRRTEXT
 70
     1
  9
$LTSCALE
 40
1.0
  9
$ATTMODE
 70
     1
  9
$TEXTSIZE
 40
0.2
  9
$TRACEWID
 40
0.05
  9
$TEXTSTYLE
  7
Standard
  9
$CLAYER
  8
0
  9
$CELTYPE
  6
ByLayer
  9
$CECOLOR
 62
   256
  9
$CELTSCALE
 40
1.0
  9
$DISPSILH
 70
     0
  9
$DIMSCALE
 40
1.0
  9
$DIMASZ
 40
0.18
  9
$DIMEXO
 40
0.0625
  9
$DIMDLI
 40
0.38
  9
$DIMRND
 40
0.0
  9
$DIMDLE
 40
0.0
  9
$DIMEXE
 40
0.18
  9
$DIMTP
 40
0.0
  9
$DIMTM
 40
0.0
  9
$DIMTXT
 40
0.18
  9
$DIMCEN
 40
0.09
  9
$DIMTSZ
 40
0.0
  9
$DIMTOL
 70
     0
  9
$DIMLIM
 70
     0
  9
$DIMTIH
 70
     1
  9
$DIMTOH
 70
     1
  9
$DIMSE1
 70
     0
  9
$DIMSE2
 70
     0
  9
$DIMTAD
 70
     0
  9
$DIMZIN
 70
     0
  9
$DIMBLK
  1

  9
$DIMASO
 70
     1
  9
$DIMSHO
 70
     1
  9
$DIMPOST
  1

  9
$DIMAPOST
  1

  9
$DIMALT
 70
     0
  9
$DIMALTD
 70
     2
  9
$DIMALTF
 40
25.4
  9
$DIMLFAC
 40
1.0
  9
$DIMTOFL
 70
     0
  9
$DIMTVP
 40
0.0
  9
$DIMTIX
 70
     0
  9
$DIMSOXD
 70
     0
  9
$DIMSAH
 70
     0
  9
$DIMBLK1
  1

  9
$DIMBLK2
  1

  9
$DIMSTYLE
  2
Standard
  9
$DIMCLRD
 70
     0
  9
$DIMCLRE
 70
     0
  9
$DIMCLRT
 70
     0
  9
$DIMTFAC
 40
1.0
  9
$DIMGAP
 40
0.09
  9
$DIMJUST
 70
     0
  9
$DIMSD1
 70
     0
  9
$DIMSD2
 70
     0
  9
$DIMTOLJ
 70
     1
  9
$DIMTZIN
 70
     0
  9
$DIMALTZ
 70
     0
  9
$DIMALTTZ
 70
     0
  9
$DIMUPT
 70
     0
  9
$DIMDEC
 70
     4
  9
$DIMTDEC
 70
     4
  9
$DIMALTU
 70
     2
  9
$DIMALTTD
 70
     2
  9
$DIMTXSTY
  7
Standard
  9
$DIMAUNIT
 70
     0
  9
$DIMADEC
 70
     0
  9
$DIMALTRND
 40
0.0
  9
$DIMAZIN
 70
     0
  9
$DIMDSEP
 70
    46
  9
$DIMATFIT
 70
     3
  9
$DIMFRAC
 70
     0
  9
$DIMLDRBLK
  1

  9
$DIMLUNIT
 70
     2
  9
$DIMLWD
 70
    -2
  9
$DIMLWE
 70
    -2
  9
$DIMTMOVE
 70
     0
  9
$DIMFXL
 40
1.0
  9
$DIMFXLON
 70
     0
  9
$DIMJOGANG
 40
0.7853981633974483
  9
$DIMTFILL
 70
     0
  9
$DIMTFILLCLR
 70
     0
  9
$DIMARCSYM
 70
     0
  9
$DIMLTYPE
  6

  9
$DIMLTEX1
  6

  9
$DIMLTEX2
  6

  9
$DIMTXTDIRECTION
 70
     0
  9
$LUNITS
 70
     2
  9
$LUPREC
 70
     4
  9
$SKETCHINC
 40
0.1
  9
$FILLETRAD
 40
0.5
  9
$AUNITS
 70
     0
  9
$AUPREC
 70
     0
  9
$MENU
  1
.
  9
$ELEVATION
 40
0.0
  9
$PELEVATION
 40
0.0
  9
$THICKNESS
 40
0.0
  9
$LIMCHECK
 70
     0
  9
$CHAMFERA
 40
0.5
  9
$CHAMFERB
 40
0.5
  9
$CHAMFERC
 40
1.0
  9
$CHAMFERD
 40
0.0
  9
$SKPOLY
 70
     0
  9
$TDCREATE
 40
2457051.902718449
  9
$TDUCREATE
 40
2457051.861051782
  9
$TDUPDATE
 40
2457171.862280093
  9
$TDUUPDATE
 40
2457171.820613426
  9
$TDINDWG
 40
0.0000000116
  9
$TDUSRTIMER
 40
0.0000000116
  9
$USRTIMER
 70
     1
  9
$ANGBASE
 50
0.0
  9
$ANGDIR
 70
     0
  9
$PDMODE
 70
     0
  9
$PDSIZE
 40
0.0
  9
$PLINEWID
 40
0.0
  9
$SPLFRAME
 70
     0
  9
$SPLINETYPE
 70
     6
  9
$SPLINESEGS
 70
     8
  9
$HANDSEED
  5
1A9
  9
$SURFTAB1
 70
     6
  9
$SURFTAB2
 70
     6
  9
$SURFTYPE
 70
     6
  9
$SURFU
 70
     6
  9
$SURFV
 70
     6
  9
$UCSBASE
  2

  9
$UCSNAME
  2

  9
$UCSORG
 10
0.0
 20
0.0
 30
0.0
  9
$UCSXDIR
 10
1.0
 20
0.0
 30
0.0
  9
$UCSYDIR
 10
0.0
 20
1.0
 30
0.0
  9
$UCSORTHOREF
  2

  9
$UCSORTHOVIEW
 70
     0
  9
$UCSORGTOP
 10
0.0
 20
0.0
 30
0.0
  9
$UCSORGBOTTOM
 10
0.0
 20
0.0
 30
0.0
  9
$UCSORGLEFT
 10
0.0
 20
0.0
 30
0.0
  9
$UCSORGRIGHT
 10
0.0
 20
0.0
 30
0.0
  9
$UCSORGFRONT
 10
0.0
 20
0.0
 30
0.0
  9
$UCSORGBACK
 10
0.0
 20
0.0
 30
0.0
  9
$PUCSBASE
  2

  9
$PUCSNAME
  2

  9
$PUCSORG
 10
0.0
 20
0.0
 30
0.0
  9
$PUCSXDIR
 10
1.0
 20
0.0
 30
0.0
  9
$PUCSYDIR
 10
0.0
 20
1.0
 30
0.0
  9
$PUCSORTHOREF
  2

  9
$PUCSORTHOVIEW
 70
     0
  9
$PUCSORGTOP
 10
0.0
 20
0.0
 30
0.0
  9
$PUCSORGBOTTOM
 10
0.0
 20
0.0
 30
0.0
  9
$PUCSORGLEFT
 10
0.0
 20
0.0
 30
0.0
  9
$PUCSORGRIGHT
 10
0.0
 20
0.0
 30
0.0
  9
$PUCSORGFRONT
 10
0.0
 20
0.0
 30
0.0
  9
$PUCSORGBACK
 10
0.0
 20
0.0
 30
0.0
  9
$USERI1
 70
     0
  9
$USERI2
 70
     0
  9
$USERI3
 70
     0
  9
$USERI4
 70
     0
  9
$USERI5
 70
     0
  9
$USERR1
 40
0.0
  9
$USERR2
 40
0.0
  9
$USERR3
 40
0.0
  9
$USERR4
 40
0.0
  9
$USERR5
 40
0.0
  9
$WORLDVIEW
 70
     1
  9
$SHADEDGE
 70
     3
  9
$SHADEDIF
 70
    70
  9
$TILEMODE
 70
     1
  9
$MAXACTVP
 70
    64
  9
$PINSBASE
 10
0.0
 20
0.0
 30
0.0
  9
$PLIMCHECK
 70
     0
  9
$PEXTMIN
 10
1.000000000000000E+20
 20
1.000000000000000E+20
 30
1.000000000000000E+20
  9
$PEXTMAX
 10
-1.000000000000000E+20
 20
-1.000000000000000E+20
 30
-1.000000000000000E+20
  9
$PLIMMIN
 10
0.0
 20
0.0
  9
$PLIMMAX
 10
12.0
 20
9.0
  9
$UNITMODE
 70
     0
  9
$VISRETAIN
 70
     1
  9
$PLINEGEN
 70
     0
  9
$PSLTSCALE
 70
     1
  9
$TREEDEPTH
 70
  3020
  9
$CMLSTYLE
  2
Standard
  9
$CMLJUST
 70
     0
  9
$CMLSCALE
 40
1.0
  9
$PROXYGRAPHICS
 70
     1
  9
$MEASUREMENT
 70
     0
  9
$CELWEIGHT
370
    -1
  9
$ENDCAPS
280
     0
  9
$JOINSTYLE
280
     0
  9
$LWDISPLAY
290
     0
  9
$INSUNITS
 70
     4
  9
$HYPERLINKBASE
  1

  9
$STYLESHEET
  1

  9
$XEDIT
290
     1
  9
$CEPSNTYPE
380
     0
  9
$PSTYLEMODE
290
     1
  9
$FINGERPRINTGUID
  2
{7BDEEFF3-2212-44C7-8B36-D48C46FCE726}
  9
$VERSIONGUID
  2
{FAEB1C32-E019-11D5-929B-00C0DF256EC4}
  9
$EXTNAMES
290
     1
  9
$PSVPSCALE
 40
0.0
  9
$OLESTARTUP
290
     0
  9
$SORTENTS
280
   127
  9
$INDEXCTL
280
     0
  9
$HIDETEXT
280
     1
  9
$XCLIPFRAME
280
     0
  9
$HALOGAP
280
     0
  9
$OBSCOLOR
 70
   257
  9
$OBSLTYPE
280
     0
  9
$INTERSECTIONDISPLAY
280
     0
  9
$INTERSECTIONCOLOR
 70
   257
  9
$DIMASSOC
280
     2
  9
$PROJECTNAME
  1

  9
$CAMERADISPLAY
290
     0
  9
$LENSLENGTH
 40
50.0
  9
$CAMERAHEIGHT
 40
0.0
  9
$STEPSPERSEC
 40
2.0
  9
$STEPSIZE
 40
6.0
  9
$3DDWFPREC
 40
2.0
  9
$PSOLWIDTH
 40
0.25
  9
$PSOLHEIGHT
 40
4.0
  9
$LOFTANG1
 40
1.570796326794897
  9
$LOFTANG2
 40
1.570796326794897
  9
$LOFTMAG1
 40
0.0
  9
$LOFTMAG2
 40
0.0
  9
$LOFTPARAM
 70
     7
  9
$LOFTNORMALS
280
     1
  9
$LATITUDE
 40
37.795
  9
$LONGITUDE
 40
-122.394
  9
$NORTHDIRECTION
 40
0.0
  9
$TIMEZONE
 70
 -8000
  9
$LIGHTGLYPHDISPLAY
280
     1
  9
$TILEMODELIGHTSYNCH
280
     1
  9
$SOLIDHIST
280
     1
  9
$SHOWHIST
280
     1
  9
$DWFFRAME
280
     2
  9
$DGNFRAME
280
     2
  9
$REALWORLDSCALE
290
     1
  9
$INTERFERECOLOR
 62
   256
  9
$CSHADOW
280
     0
  9
$SHADOWPLANELOCATION
 40
0.0
  0
ENDSEC
  0
SECTION
  2
CLASSES
  0
CLASS
  1
ACDBDICTIONARYWDFLT
  2
AcDbDictionaryWithDefault
  3
ObjectDBX Classes
 90
        0
 91
        4
280
     0
281
     0
  0
CLASS
  1
VISUALSTYLE
  2
AcDbVisualStyle
  3
ObjectDBX Classes
 90
     4095
 91
        4
280
     0
281
     0
  0
CLASS
  1
MATERIAL
  2
AcDbMaterial
  3
ObjectDBX Classes
 90
     1153
 91
        4
280
     0
281
     0
  0
CLASS
  1
SCALE
  2
AcDbScale
  3
ObjectDBX Classes
 90
     1153
 91
        4
280
     0
281
     0
  0
CLASS
  1
TABLESTYLE
  2
AcDbTableStyle
  3
ObjectDBX Classes
 90
     4095
 91
        4
280
     0
281
     0
  0
CLASS
  1
MLEADERSTYLE
  2
AcDbMLeaderStyle
  3
ACDB_MLEADERSTYLE_CLASS
 90
     4095
 91
        4
280
     0
281
     0
  0
CLASS
  1
DICTIONARYVAR
  2
AcDbDictionaryVar
  3
ObjectDBX Classes
 90
        0
 91
        4
280
     0
281
     0
  0
CLASS
  1
CELLSTYLEMAP
  2
AcDbCellStyleMap
  3
ObjectDBX Classes
 90
     1152
 91
        4
280
     0
281
     0
  0
ENDSEC
  0
SECTION
  2
TABLES
  0
TABLE
  2
VPORT
  5
8
330
0
100
AcDbSymbolTable
 70
     1
  0
VPORT
  5
29
330
8
100
AcDbSymbolTableRecord
100
AcDbViewportTableRecord
  2
*Active
 70
     0
 10
0.0
 20
0.0
 11
1.0
 21
1.0
 12
10.42990654205607
 22
4.5
 13
0.0
 23
0.0
 14
0.5
 24
0.5
 15
0.5
 25
0.5
 16
0.0
 26
0.0
 36
1.0
 17
0.0
 27
0.0
 37
0.0
 40
9.0
 41
1.972972972850329
 42
50.0
 43
0.0
 44
0.0
 50
0.0
 51
0.0
 71
     0
 72
   100
 73
     1
 74
     3
 75
     0
 76
     0
 77
     0
 78
     0
281
     0
 65
     1
110
0.0
120
0.0
130
0.0
111
1.0
121
0.0
131
0.0
112
0.0
122
1.0
132
0.0
 79
     0
146
0.0
348
2F
 60
     3
 61
     5
292
     1
282
     1
141
0.0
142
0.0
 63
   250
  0
ENDTAB
  0
TABLE
  2
LTYPE
  5
5
330
0
100
AcDbSymbolTable
 70
     1
  0
LTYPE
  5
14
330
5
100
AcDbSymbolTableRecord
100
AcDbLinetypeTableRecord
  2
ByBlock
 70
     0
  3

 72
    65
 73
     0
 40
0.0
  0
LTYPE
  5
15
330
5
100
AcDbSymbolTableRecord
100
AcDbLinetypeTableRecord
  2
ByLayer
 70
     0
  3

 72
    65
 73
     0
 40
0.0
  0
LTYPE
  5
16
330
5
100
AcDbSymbolTableRecord
100
AcDbLinetypeTableRecord
  2
Continuous
 70
     0
  3
Solid line
 72
    65
 73
     0
 40
0.0
  0
ENDTAB
  0
TABLE
  2
LAYER
  5
2
330
0
100
AcDbSymbolTable
 70
     2
  0
LAYER
  5
10
330
2
100
AcDbSymbolTableRecord
100
AcDbLayerTableRecord
  2
0
 70
     0
 62
     7
  6
Continuous
370
    -3
390
F
347
3E
348
0
  0
LAYER
  5
40
330
2
100
AcDbSymbolTableRecord
100
AcDbLayerTableRecord
  2
Capa 1
 70
     0
 62
     7
  6
Continuous
370
    -3
390
F
347
3E
348
0
  0
ENDTAB
  0
TABLE
  2
STYLE
  5
3
330
0
100
AcDbSymbolTable
 70
     1
  0
STYLE
  5
11
330
3
100
AcDbSymbolTableRecord
100
AcDbTextStyleTableRecord
  2
Standard
 70
     0
 40
0.0
 41
1.0
 50
0.0
 71
     0
 42
0.2
  3
txt
  4

  0
ENDTAB
  0
TABLE
  2
VIEW
  5
6
330
0
100
AcDbSymbolTable
 70
     0
  0
ENDTAB
  0
TABLE
  2
UCS
  5
7
330
0
100
AcDbSymbolTable
 70
     0
  0
ENDTAB
  0
TABLE
  2
APPID
  5
9
330
0
100
AcDbSymbolTable
 70
     2
  0
APPID
  5
12
330
9
100
AcDbSymbolTableRecord
100
AcDbRegAppTableRecord
  2
ACAD
 70
     0
  0
APPID
  5
3F
330
9
100
AcDbSymbolTableRecord
100
AcDbRegAppTableRecord
  2
ODA
 70
     0
  0
ENDTAB
  0
TABLE
  2
DIMSTYLE
  5
A
330
0
100
AcDbSymbolTable
 70
     1
100
AcDbDimStyleTable
  0
DIMSTYLE
105
27
330
A
100
AcDbSymbolTableRecord
100
AcDbDimStyleTableRecord
  2
Standard
 70
     0
178
     0
340
11
  0
ENDTAB
  0
TABLE
  2
BLOCK_RECORD
  5
1
330
0
100
AcDbSymbolTable
 70
     1
  0
BLOCK_RECORD
  5
1F
330
1
100
AcDbSymbolTableRecord
100
AcDbBlockTableRecord
  2
*Model_Space
340
22
 70
     0
280
     1
281
     0
  0
BLOCK_RECORD
  5
1B
330
1
100
AcDbSymbolTableRecord
100
AcDbBlockTableRecord
  2
*Paper_Space
340
1E
 70
     0
280
     1
281
     0
  0
BLOCK_RECORD
  5
23
330
1
100
AcDbSymbolTableRecord
100
AcDbBlockTableRecord
  2
*Paper_Space0
340
26
 70
     0
280
     1
281
     0
  0
ENDTAB
  0
ENDSEC
  0
SECTION
  2
BLOCKS
  0
BLOCK
  5
20
330
1F
100
AcDbEntity
  8
0
100
AcDbBlockBegin
  2
*Model_Space
 70
     0
 10
0.0
 20
0.0
 30
0.0
  3
*Model_Space
  1

  0
ENDBLK
  5
21
330
1F
100
AcDbEntity
  8
0
100
AcDbBlockEnd
  0
BLOCK
  5
1C
330
1B
100
AcDbEntity
 67
     1
  8
0
100
AcDbBlockBegin
  2
*Paper_Space
 70
     0
 10
0.0
 20
0.0
 30
0.0
  3
*Paper_Space
  1

  0
ENDBLK
  5
1D
330
1B
100
AcDbEntity
 67
     1
  8
0
100
AcDbBlockEnd
  0
BLOCK
  5
24
330
23
100
AcDbEntity
  8
0
100
AcDbBlockBegin
  2
*Paper_Space0
 70
     0
 10
0.0
 20
0.0
 30
0.0
  3
*Paper_Space0
  1

  0
ENDBLK
  5
25
330
23
100
AcDbEntity
  8
0
100
AcDbBlockEnd
  0
ENDSEC
  0
SECTION
  2
ENTITIES
  0
SPLINE
  5
41
330
1F
100
AcDbEntity
  8
Capa 1
 62
   250
370
    20
100
AcDbSpline
210
0.0
220
0.0
230
1.0
 70
    11
 71
     3
 72
    20
 73
    16
 74
     0
 42
0.000000001
 43
0.0000000001
 40
0.0
 40
0.0
 40
0.0
 40
0.0
 40
0.2
 40
0.2
 40
0.2
 40
0.2
 40
0.4
 40
0.4
 40
0.4
 40
0.4
 40
0.6
 40
0.6
 40
0.6
 40
0.6
 40
1.0
 40
1.0
 40
1.0
 40
1.0
 10
-158.2758
 20
147.7393
 30
0.0
 10
-160.623
 20
147.7393
 30
0.0
 10
-162.5258
 20
145.8364
 30
0.0
 10
-162.5258
 20
143.4893
 30
0.0
 10
-162.5258
 20
143.4893
 30
0.0
 10
-162.5258
 20
141.1422
 30
0.0
 10
-160.623
 20
139.2393
 30
0.0
 10
-158.2758
 20
139.2393
 30
0.0
 10
-158.2758
 20
139.2393
 30
0.0
 10
-155.9286
 20
139.2393
 30
0.0
 10
-154.0258
 20
141.1422
 30
0.0
 10
-154.0258
 20
143.4893
 30
0.0
 10
-154.0258
 20
143.4893
 30
0.0
 10
-154.0258
 20
145.8364
 30
0.0
 10
-155.9286
 20
147.7393
 30
0.0
 10
-158.2758
 20
147.7393
 30
0.0
  0
SPLINE
  5
42
330
1F
100
AcDbEntity
  8
Capa 1
 62
   250
370
    20
100
AcDbSpline
210
0.0
220
0.0
230
1.0
 70
    11
 71
     3
 72
    20
 73
    16
 74
     0
 42
0.000000001
 43
0.0000000001
 40
0.0
 40
0.0
 40
0.0
 40
0.0
 40
0.2
 40
0.2
 40
0.2
 40
0.2
 40
0.4
 40
0.4
 40
0.4
 40
0.4
 40
0.6
 40
0.6
 40
0.6
 40
0.6
 40
1.0
 40
1.0
 40
1.0
 40
1.0
 10
155.2238
 20
147.7393
 30
0.0
 10
157.5709
 20
147.7393
 30
0.0
 10
159.4738
 20
145.8366
 30
0.0
 10
159.4738
 20
143.4893
 30
0.0
 10
159.4738
 20
143.4893
 30
0.0
 10
159.4738
 20
141.142
 30
0.0
 10
157.5709
 20
139.2393
 30
0.0
 10
155.2238
 20
139.2393
 30
0.0
 10
155.2238
 20
139.2393
 30
0.0
 10
152.8767
 20
139.2393
 30
0.0
 10
150.9738
 20
141.142
 30
0.0
 10
150.9738
 20
143.4893
 30
0.0
 10
150.9738
 20
143.4893
 30
0.0
 10
150.9738
 20
145.8366
 30
0.0
 10
152.8767
 20
147.7393
 30
0.0
 10
155.2238
 20
147.7393
 30
0.0
  0
SPLINE
  5
43
330
1F
100
AcDbEntity
  8
Capa 1
 62
   250
370
    20
100
AcDbSpline
210
0.0
220
0.0
230
1.0
 70
    24
 71
     3
 72
     8
 73
     4
 74
     0
 42
0.000000001
 43
0.0000000001
 40
0.0
 40
0.0
 40
0.0
 40
0.0
 40
1.0
 40
1.0
 40
1.0
 40
1.0
 10
176.3569
 20
-132.3106
 30
0.0
 10
176.3569
 20
-132.3106
 30
0.0
 10
176.3434
 20
-135.3107
 30
0.0
 10
176.3434
 20
-135.3107
 30
0.0
  0
SPLINE
  5
44
330
1F
100
AcDbEntity
  8
Capa 1
 62
   250
370
    20
100
AcDbSpline
210
0.0
220
0.0
230
1.0
 70
    24
 71
     3
 72
     8
 73
     4
 74
     0
 42
0.000000001
 43
0.0000000001
 40
0.0
 40
0.0
 40
0.0
 40
0.0
 40
1.0
 40
1.0
 40
1.0
 40
1.0
 10
176.5739
 20
-132.3106
 30
0.0
 10
176.5739
 20
-132.3106
 30
0.0
 10
176.5739
 20
-135.3106
 30
0.0
 10
176.5739
 20
-135.3106
 30
0.0
  0
SPLINE
  5
45
330
1F
100
AcDbEntity
  8
Capa 1
 62
   250
370
    20
100
AcDbSpline
210
0.0
220
0.0
230
1.0
 70
    24
 71
     3
 72
     8
 73
     4
 74
     0
 42
0.000000001
 43
0.0000000001
 40
0.0
 40
0.0
 40
0.0
 40
0.0
 40
1.0
 40
1.0
 40
1.0
 40
1.0
 10
176.2382
 20
-0.4106
 30
0.0
 10
176.2382
 20
-0.4106
 30
0.0
 10
176.2515
 20
-3.4106
 30
0.0
 10
176.2515
 20
-3.4106
 30
0.0
  0
SPLINE
  5
46
330
1F
100
AcDbEntity
  8
Capa 1
 62
   250
370
    20
100
AcDbSpline
210
0.0
220
0.0
230
1.0
 70
    24
 71
     3
 72
     8
 73
     4
 74
     0
 42
0.000000001
 43
0.0000000001
 40
0.0
 40
0.0
 40
0.0
 40
0.0
 40
1.0
 40
1.0
 40
1.0
 40
1.0
 10
176.5739
 20
-0.4106
 30
0.0
 10
176.5739
 20
-0.4106
 30
0.0
 10
176.5739
 20
-3.4106
 30
0.0
 10
176.5739
 20
-3.4106
 30
0.0
  0
SPLINE
  5
47
330
1F
100
AcDbEntity
  8
Capa 1
 62
   250
370
    20
100
AcDbSpline
210
0.0
220
0.0
230
1.0
 70
    24
 71
     3
 72
     8
 73
     4
 74
     0
 42
0.000000001
 43
0.0000000001
 40
0.0
 40
0.0
 40
0.0
 40
0.0
 40
1.0
 40
1.0
 40
1.0
 40
1.0
 10
176.2257
 20
133.6894
 30
0.0
 10
176.2257
 20
133.6894
 30
0.0
 10
176.2258
 20
130.6894
 30
0.0
 10
176.2258
 20
130.6894
 30
0.0
  0
SPLINE
  5
48
330
1F
100
AcDbEntity
  8
Capa 1
 62
   250
370
    20
100
AcDbSpline
210
0.0
220
0.0
230
1.0
 70
    24
 71
     3
 72
     8
 73
     4
 74
     0
 42
0.000000001
 43
0.0000000001
 40
0.0
 40
0.0
 40
0.0
 40
0.0
 40
1.0
 40
1.0
 40
1.0
 40
1.0
 10
176.5739
 20
133.6894
 30
0.0
 10
176.5739
 20
133.6894
 30
0.0
 10
176.5739
 20
130.6894
 30
0.0
 10
176.5739
 20
130.6894
 30
0.0
  0
SPLINE
  5
49
330
1F
100
AcDbEntity
  8
Capa 1
 62
   250
370
    20
100
AcDbSpline
210
0.0
220
0.0
230
1.0
 70
    24
 71
     3
 72
     8
 73
     4
 74
     0
 42
0.000000001
 43
0.0000000001
 40
0.0
 40
0.0
 40
0.0
 40
0.0
 40
1.0
 40
1.0
 40
1.0
 40
1.0
 10
-179.2845
 20
133.6894
 30
0.0
 10
-179.2845
 20
133.6894
 30
0.0
 10
-179.2845
 20
130.6894
 30
0.0
 10
-179.2845
 20
130.6894
 30
0.0
  0
SPLINE
  5
4A
330
1F
100
AcDbEntity
  8
Capa 1
 62
   250
370
    20
100
AcDbSpline
210
0.0
220
0.0
230
1.0
 70
    24
 71
     3
 72
     8
 73
     4
 74
     0
 42
0.000000001
 43
0.0000000001
 40
0.0
 40
0.0
 40
0.0
 40
0.0
 40
1.0
 40
1.0
 40
1.0
 40
1.0
 10
-179.6259
 20
133.6894
 30
0.0
 10
-179.6259
 20
133.6894
 30
0.0
 10
-179.6259
 20
130.6894
 30
0.0
 10
-179.6259
 20
130.6894
 30
0.0
  0
SPLINE
  5
4B
330
1F
100
AcDbEntity
  8
Capa 1
 62
   250
370
    20
100
AcDbSpline
210
0.0
220
0.0
230
1.0
 70
    24
 71
     3
 72
     8
 73
     4
 74
     0
 42
0.000000001
 43
0.0000000001
 40
0.0
 40
0.0
 40
0.0
 40
0.0
 40
1.0
 40
1.0
 40
1.0
 40
1.0
 10
-179.6259
 20
-0.4106
 30
0.0
 10
-179.6259
 20
-0.4106
 30
0.0
 10
-179.6259
 20
-3.537
 30
0.0
 10
-179.6259
 20
-3.537
 30
0.0
  0
SPLINE
  5
4C
330
1F
100
AcDbEntity
  8
Capa 1
 62
   250
370
    20
100
AcDbSpline
210
0.0
220
0.0
230
1.0
 70
    24
 71
     3
 72
     8
 73
     4
 74
     0
 42
0.000000001
 43
0.0000000001
 40
0.0
 40
0.0
 40
0.0
 40
0.0
 40
1.0
 40
1.0
 40
1.0
 40
1.0
 10
-179.2112
 20
-0.4106
 30
0.0
 10
-179.2112
 20
-0.4106
 30
0.0
 10
-179.1979
 20
-3.4106
 30
0.0
 10
-179.1979
 20
-3.4106
 30
0.0
  0
SPLINE
  5
4D
330
1F
100
AcDbEntity
  8
Capa 1
 62
   250
370
    20
100
AcDbSpline
210
0.0
220
0.0
230
1.0
 70
    24
 71
     3
 72
     8
 73
     4
 74
     0
 42
0.000000001
 43
0.0000000001
 40
0.0
 40
0.0
 40
0.0
 40
0.0
 40
1.0
 40
1.0
 40
1.0
 40
1.0
 10
-179.6259
 20
-132.3106
 30
0.0
 10
-179.6259
 20
-132.3106
 30
0.0
 10
-179.6259
 20
-135.3106
 30
0.0
 10
-179.6259
 20
-135.3106
 30
0.0
  0
SPLINE
  5
4E
330
1F
100
AcDbEntity
  8
Capa 1
 62
   250
370
    20
100
AcDbSpline
210
0.0
220
0.0
230
1.0
 70
    24
 71
     3
 72
     8
 73
     4
 74
     0
 42
0.000000001
 43
0.0000000001
 40
0.0
 40
0.0
 40
0.0
 40
0.0
 40
1.0
 40
1.0
 40
1.0
 40
1.0
 10
-179.2903
 20
-132.3106
 30
0.0
 10
-179.2903
 20
-132.3106
 30
0.0
 10
-179.277
 20
-135.3106
 30
0.0
 10
-179.277
 20
-135.3106
 30
0.0
  0
SPLINE
  5
4F
330
1F
100
AcDbEntity
  8
Capa 1
370
    15
100
AcDbSpline
210
0.0
220
0.0
230
1.0
 70
     8
 71
     3
 72
    20
 73
    16
 74
     0
 42
0.000000001
 43
0.0000000001
 40
0.0
 40
0.0
 40
0.0
 40
0.0
 40
0.2
 40
0.2
 40
0.2
 40
0.2
 40
0.4
 40
0.4
 40
0.4
 40
0.4
 40
0.6
 40
0.6
 40
0.6
 40
0.6
 40
1.0
 40
1.0
 40
1.0
 40
1.0
 10
167.3704
 20
-8.5106
 30
0.0
 10
167.3704
 20
-7.627
 30
0.0
 10
166.654
 20
-6.9107
 30
0.0
 10
165.7704
 20
-6.9107
 30
0.0
 10
165.7704
 20
-6.9107
 30
0.0
 10
164.8867
 20
-6.9106
 30
0.0
 10
164.1704
 20
-7.627
 30
0.0
 10
164.1704
 20
-8.5106
 30
0.0
 10
164.1704
 20
-8.5106
 30
0.0
 10
164.1704
 20
-9.3943
 30
0.0
 10
164.8867
 20
-10.1105
 30
0.0
 10
165.7704
 20
-10.1105
 30
0.0
 10
165.7704
 20
-10.1105
 30
0.0
 10
166.654
 20
-10.1106
 30
0.0
 10
167.3704
 20
-9.3943
 30
0.0
 10
167.3704
 20
-8.5107
 30
0.0
  0
SPLINE
  5
50
330
1F
100
AcDbEntity
  8
Capa 1
370
    15
100
AcDbSpline
210
0.0
220
0.0
230
1.0
 70
     8
 71
     3
 72
    20
 73
    16
 74
     0
 42
0.000000001
 43
0.0000000001
 40
0.0
 40
0.0
 40
0.0
 40
0.0
 40
0.2
 40
0.2
 40
0.2
 40
0.2
 40
0.4
 40
0.4
 40
0.4
 40
0.4
 40
0.6
 40
0.6
 40
0.6
 40
0.6
 40
1.0
 40
1.0
 40
1.0
 40
1.0
 10
136.3704
 20
22.4894
 30
0.0
 10
136.3704
 20
23.373
 30
0.0
 10
135.654
 20
24.0893
 30
0.0
 10
134.7704
 20
24.0893
 30
0.0
 10
134.7704
 20
24.0893
 30
0.0
 10
133.8867
 20
24.0894
 30
0.0
 10
133.1704
 20
23.373
 30
0.0
 10
133.1704
 20
22.4894
 30
0.0
 10
133.1704
 20
22.4894
 30
0.0
 10
133.1704
 20
21.6057
 30
0.0
 10
133.8867
 20
20.8894
 30
0.0
 10
134.7704
 20
20.8894
 30
0.0
 10
134.7704
 20
20.8894
 30
0.0
 10
135.654
 20
20.8893
 30
0.0
 10
136.3704
 20
21.6057
 30
0.0
 10
136.3704
 20
22.4893
 30
0.0
  0
SPLINE
  5
51
330
1F
100
AcDbEntity
  8
Capa 1
370
    15
100
AcDbSpline
210
0.0
220
0.0
230
1.0
 70
     8
 71
     3
 72
    20
 73
    16
 74
     0
 42
0.000000001
 43
0.0000000001
 40
0.0
 40
0.0
 40
0.0
 40
0.0
 40
0.2
 40
0.2
 40
0.2
 40
0.2
 40
0.4
 40
0.4
 40
0.4
 40
0.4
 40
0.6
 40
0.6
 40
0.6
 40
0.6
 40
1.0
 40
1.0
 40
1.0
 40
1.0
 10
161.3704
 20
6.9894
 30
0.0
 10
161.3704
 20
13.1197
 30
0.0
 10
156.4008
 20
18.0893
 30
0.0
 10
150.2704
 20
18.0893
 30
0.0
 10
150.2704
 20
18.0893
 30
0.0
 10
144.14
 20
18.0894
 30
0.0
 10
139.1704
 20
13.1197
 30
0.0
 10
139.1704
 20
6.9894
 30
0.0
 10
139.1704
 20
6.9894
 30
0.0
 10
139.1704
 20
0.859
 30
0.0
 10
144.14
 20
-4.1106
 30
0.0
 10
150.2703
 20
-4.1106
 30
0.0
 10
150.2703
 20
-4.1106
 30
0.0
 10
156.4007
 20
-4.1107
 30
0.0
 10
161.3703
 20
0.8589
 30
0.0
 10
161.3704
 20
6.9893
 30
0.0
  0
SPLINE
  5
52
330
1F
100
AcDbEntity
  8
Capa 1
370
    15
100
AcDbSpline
210
0.0
220
0.0
230
1.0
 70
     8
 71
     3
 72
    20
 73
    16
 74
     0
 42
0.000000001
 43
0.0000000001
 40
0.0
 40
0.0
 40
0.0
 40
0.0
 40
0.2
 40
0.2
 40
0.2
 40
0.2
 40
0.4
 40
0.4
 40
0.4
 40
0.4
 40
0.6
 40
0.6
 40
0.6
 40
0.6
 40
1.0
 40
1.0
 40
1.0
 40
1.0
 10
-136.4259
 20
-8.5106
 30
0.0
 10
-136.4259
 20
-7.627
 30
0.0
 10
-137.1422
 20
-6.9107
 30
0.0
 10
-138.0258
 20
-6.9107
 30
0.0
 10
-138.0258
 20
-6.9107
 30
0.0
 10
-138.9095
 20
-6.9106
 30
0.0
 10
-139.6258
 20
-7.627
 30
0.0
 10
-139.6258
 20
-8.5106
 30
0.0
 10
-139.6258
 20
-8.5106
 30
0.0
 10
-139.6259
 20
-9.3943
 30
0.0
 10
-138.9095
 20
-10.1105
 30
0.0
 10
-138.0259
 20
-10.1105
 30
0.0
 10
-138.0259
 20
-10.1105
 30
0.0
 10
-137.1422
 20
-10.1106
 30
0.0
 10
-136.4259
 20
-9.3943
 30
0.0
 10
-136.4259
 20
-8.5107
 30
0.0
  0
SPLINE
  5
53
330
1F
100
AcDbEntity
  8
Capa 1
370
    15
100
AcDbSpline
210
0.0
220
0.0
230
1.0
 70
     8
 71
     3
 72
    20
 73
    16
 74
     0
 42
0.000000001
 43
0.0000000001
 40
0.0
 40
0.0
 40
0.0
 40
0.0
 40
0.2
 40
0.2
 40
0.2
 40
0.2
 40
0.4
 40
0.4
 40
0.4
 40
0.4
 40
0.6
 40
0.6
 40
0.6
 40
0.6
 40
1.0
 40
1.0
 40
1.0
 40
1.0
 10
-167.4259
 20
-8.5106
 30
0.0
 10
-167.4259
 20
-7.627
 30
0.0
 10
-168.1422
 20
-6.9107
 30
0.0
 10
-169.0258
 20
-6.9107
 30
0.0
 10
-169.0258
 20
-6.9107
 30
0.0
 10
-169.9095
 20
-6.9106
 30
0.0
 10
-170.6258
 20
-7.627
 30
0.0
 10
-170.6258
 20
-8.5106
 30
0.0
 10
-170.6258
 20
-8.5106
 30
0.0
 10
-170.6259
 20
-9.3943
 30
0.0
 10
-169.9095
 20
-10.1105
 30
0.0
 10
-169.0259
 20
-10.1105
 30
0.0
 10
-169.0259
 20
-10.1105
 30
0.0
 10
-168.1422
 20
-10.1106
 30
0.0
 10
-167.4259
 20
-9.3943
 30
0.0
 10
-167.4259
 20
-8.5107
 30
0.0
  0
SPLINE
  5
54
330
1F
100
AcDbEntity
  8
Capa 1
370
    15
100
AcDbSpline
210
0.0
220
0.0
230
1.0
 70
     8
 71
     3
 72
    20
 73
    16
 74
     0
 42
0.000000001
 43
0.0000000001
 40
0.0
 40
0.0
 40
0.0
 40
0.0
 40
0.2
 40
0.2
 40
0.2
 40
0.2
 40
0.4
 40
0.4
 40
0.4
 40
0.4
 40
0.6
 40
0.6
 40
0.6
 40
0.6
 40
1.0
 40
1.0
 40
1.0
 40
1.0
 10
-167.4259
 20
22.4894
 30
0.0
 10
-167.4259
 20
23.373
 30
0.0
 10
-168.1422
 20
24.0893
 30
0.0
 10
-169.0258
 20
24.0893
 30
0.0
 10
-169.0258
 20
24.0893
 30
0.0
 10
-169.9095
 20
24.0894
 30
0.0
 10
-170.6258
 20
23.373
 30
0.0
 10
-170.6258
 20
22.4894
 30
0.0
 10
-170.6258
 20
22.4894
 30
0.0
 10
-170.6259
 20
21.6057
 30
0.0
 10
-169.9095
 20
20.8894
 30
0.0
 10
-169.0259
 20
20.8894
 30
0.0
 10
-169.0259
 20
20.8894
 30
0.0
 10
-168.1422
 20
20.8893
 30
0.0
 10
-167.4259
 20
21.6057
 30
0.0
 10
-167.4259
 20
22.4893
 30
0.0
  0
SPLINE
  5
55
330
1F
100
AcDbEntity
  8
Capa 1
370
    15
100
AcDbSpline
210
0.0
220
0.0
230
1.0
 70
     8
 71
     3
 72
    20
 73
    16
 74
     0
 42
0.000000001
 43
0.0000000001
 40
0.0
 40
0.0
 40
0.0
 40
0.0
 40
0.2
 40
0.2
 40
0.2
 40
0.2
 40
0.4
 40
0.4
 40
0.4
 40
0.4
 40
0.6
 40
0.6
 40
0.6
 40
0.6
 40
1.0
 40
1.0
 40
1.0
 40
1.0
 10
-136.4259
 20
22.4894
 30
0.0
 10
-136.4259
 20
23.373
 30
0.0
 10
-137.1422
 20
24.0893
 30
0.0
 10
-138.0258
 20
24.0893
 30
0.0
 10
-138.0258
 20
24.0893
 30
0.0
 10
-138.9095
 20
24.0894
 30
0.0
 10
-139.6258
 20
23.373
 30
0.0
 10
-139.6258
 20
22.4894
 30
0.0
 10
-139.6258
 20
22.4894
 30
0.0
 10
-139.6259
 20
21.6057
 30
0.0
 10
-138.9095
 20
20.8894
 30
0.0
 10
-138.0259
 20
20.8894
 30
0.0
 10
-138.0259
 20
20.8894
 30
0.0
 10
-137.1422
 20
20.8893
 30
0.0
 10
-136.4259
 20
21.6057
 30
0.0
 10
-136.4259
 20
22.4893
 30
0.0
  0
SPLINE
  5
56
330
1F
100
AcDbEntity
  8
Capa 1
370
    15
100
AcDbSpline
210
0.0
220
0.0
230
1.0
 70
     8
 71
     3
 72
    20
 73
    16
 74
     0
 42
0.000000001
 43
0.0000000001
 40
0.0
 40
0.0
 40
0.0
 40
0.0
 40
0.2
 40
0.2
 40
0.2
 40
0.2
 40
0.4
 40
0.4
 40
0.4
 40
0.4
 40
0.6
 40
0.6
 40
0.6
 40
0.6
 40
1.0
 40
1.0
 40
1.0
 40
1.0
 10
-142.4259
 20
6.9894
 30
0.0
 10
-142.4259
 20
13.1197
 30
0.0
 10
-147.3955
 20
18.0893
 30
0.0
 10
-153.5258
 20
18.0893
 30
0.0
 10
-153.5258
 20
18.0893
 30
0.0
 10
-159.6562
 20
18.0894
 30
0.0
 10
-164.6258
 20
13.1197
 30
0.0
 10
-164.6258
 20
6.9894
 30
0.0
 10
-164.6258
 20
6.9894
 30
0.0
 10
-164.6259
 20
0.859
 30
0.0
 10
-159.6562
 20
-4.1106
 30
0.0
 10
-153.5259
 20
-4.1106
 30
0.0
 10
-153.5259
 20
-4.1106
 30
0.0
 10
-147.3955
 20
-4.1107
 30
0.0
 10
-142.4259
 20
0.8589
 30
0.0
 10
-142.4259
 20
6.9893
 30
0.0
  0
SPLINE
  5
57
330
1F
100
AcDbEntity
  8
Capa 1
370
    15
100
AcDbSpline
210
0.0
220
0.0
230
1.0
 70
     8
 71
     3
 72
    20
 73
    16
 74
     0
 42
0.000000001
 43
0.0000000001
 40
0.0
 40
0.0
 40
0.0
 40
0.0
 40
0.2
 40
0.2
 40
0.2
 40
0.2
 40
0.4
 40
0.4
 40
0.4
 40
0.4
 40
0.6
 40
0.6
 40
0.6
 40
0.6
 40
1.0
 40
1.0
 40
1.0
 40
1.0
 10
-73.3649
 20
175.9394
 30
0.0
 10
-73.3649
 20
176.823
 30
0.0
 10
-74.0812
 20
177.5393
 30
0.0
 10
-74.9649
 20
177.5393
 30
0.0
 10
-74.9649
 20
177.5393
 30
0.0
 10
-75.8485
 20
177.5394
 30
0.0
 10
-76.5649
 20
176.823
 30
0.0
 10
-76.5649
 20
175.9394
 30
0.0
 10
-76.5649
 20
175.9394
 30
0.0
 10
-76.5649
 20
175.0557
 30
0.0
 10
-75.8485
 20
174.3394
 30
0.0
 10
-74.9649
 20
174.3394
 30
0.0
 10
-74.9649
 20
174.3394
 30
0.0
 10
-74.0812
 20
174.3393
 30
0.0
 10
-73.3649
 20
175.0557
 30
0.0
 10
-73.3649
 20
175.9393
 30
0.0
  0
SPLINE
  5
58
330
1F
100
AcDbEntity
  8
Capa 1
370
    15
100
AcDbSpline
210
0.0
220
0.0
230
1.0
 70
    24
 71
     3
 72
     8
 73
     4
 74
     0
 42
0.000000001
 43
0.0000000001
 40
0.0
 40
0.0
 40
0.0
 40
0.0
 40
1.0
 40
1.0
 40
1.0
 40
1.0
 10
-156.5895
 20
-238.2531
 30
0.0
 10
-156.5895
 20
-238.2531
 30
0.0
 10
-179.4919
 20
-238.2531
 30
0.0
 10
-179.4919
 20
-238.2531
 30
0.0
  0
SPLINE
  5
59
330
1F
100
AcDbEntity
  8
Capa 1
370
    15
100
AcDbSpline
210
0.0
220
0.0
230
1.0
 70
     8
 71
     3
 72
     8
 73
     4
 74
     0
 42
0.000000001
 43
0.0000000001
 40
0.0
 40
0.0
 40
0.0
 40
0.0
 40
1.0
 40
1.0
 40
1.0
 40
1.0
 10
-156.5895
 20
-238.253
 30
0.0
 10
-154.2247
 20
-238.253
 30
0.0
 10
-151.9811
 20
-237.2068
 30
0.0
 10
-150.4611
 20
-235.3954
 30
0.0
  0
SPLINE
  5
5A
330
1F
100
AcDbEntity
  8
Capa 1
370
    15
100
AcDbSpline
210
0.0
220
0.0
230
1.0
 70
    24
 71
     3
 72
     8
 73
     4
 74
     0
 42
0.000000001
 43
0.0000000001
 40
0.0
 40
0.0
 40
0.0
 40
0.0
 40
1.0
 40
1.0
 40
1.0
 40
1.0
 10
-146.4044
 20
-230.5608
 30
0.0
 10
-146.4044
 20
-230.5608
 30
0.0
 10
-150.4611
 20
-235.3954
 30
0.0
 10
-150.4611
 20
-235.3954
 30
0.0
  0
SPLINE
  5
5B
330
1F
100
AcDbEntity
  8
Capa 1
370
    15
100
AcDbSpline
210
0.0
220
0.0
230
1.0
 70
     8
 71
     3
 72
     8
 73
     4
 74
     0
 42
0.000000001
 43
0.0000000001
 40
0.0
 40
0.0
 40
0.0
 40
0.0
 40
1.0
 40
1.0
 40
1.0
 40
1.0
 10
-139.51
 20
-227.3458
 30
0.0
 10
-142.1703
 20
-227.3458
 30
0.0
 10
-144.6944
 20
-228.5228
 30
0.0
 10
-146.4044
 20
-230.5608
 30
0.0
  0
SPLINE
  5
5C
330
1F
100
AcDbEntity
  8
Capa 1
370
    15
100
AcDbSpline
210
0.0
220
0.0
230
1.0
 70
     8
 71
     3
 72
     8
 73
     4
 74
     0
 42
0.000000001
 43
0.0000000001
 40
0.0
 40
0.0
 40
0.0
 40
0.0
 40
1.0
 40
1.0
 40
1.0
 40
1.0
 10
143.3524
 20
-230.5608
 30
0.0
 10
141.6424
 20
-228.5228
 30
0.0
 10
139.1183
 20
-227.3458
 30
0.0
 10
136.458
 20
-227.3458
 30
0.0
  0
SPLINE
  5
5D
330
1F
100
AcDbEntity
  8
Capa 1
370
    15
100
AcDbSpline
210
0.0
220
0.0
230
1.0
 70
    24
 71
     3
 72
     8
 73
     4
 74
     0
 42
0.000000001
 43
0.0000000001
 40
0.0
 40
0.0
 40
0.0
 40
0.0
 40
1.0
 40
1.0
 40
1.0
 40
1.0
 10
147.4091
 20
-235.3954
 30
0.0
 10
147.4091
 20
-235.3954
 30
0.0
 10
143.3524
 20
-230.5608
 30
0.0
 10
143.3524
 20
-230.5608
 30
0.0
  0
SPLINE
  5
5E
330
1F
100
AcDbEntity
  8
Capa 1
370
    15
100
AcDbSpline
210
0.0
220
0.0
230
1.0
 70
     8
 71
     3
 72
     8
 73
     4
 74
     0
 42
0.000000001
 43
0.0000000001
 40
0.0
 40
0.0
 40
0.0
 40
0.0
 40
1.0
 40
1.0
 40
1.0
 40
1.0
 10
147.4091
 20
-235.3954
 30
0.0
 10
148.9291
 20
-237.2068
 30
0.0
 10
151.1727
 20
-238.253
 30
0.0
 10
153.5375
 20
-238.253
 30
0.0
  0
SPLINE
  5
5F
330
1F
100
AcDbEntity
  8
Capa 1
370
    15
100
AcDbSpline
210
0.0
220
0.0
230
1.0
 70
    24
 71
     3
 72
     8
 73
     4
 74
     0
 42
0.000000001
 43
0.0000000001
 40
0.0
 40
0.0
 40
0.0
 40
0.0
 40
1.0
 40
1.0
 40
1.0
 40
1.0
 10
176.4399
 20
-238.2531
 30
0.0
 10
176.4399
 20
-238.2531
 30
0.0
 10
153.5375
 20
-238.2531
 30
0.0
 10
153.5375
 20
-238.2531
 30
0.0
  0
SPLINE
  5
60
330
1F
100
AcDbEntity
  8
Capa 1
370
    15
100
AcDbSpline
210
0.0
220
0.0
230
1.0
 70
     8
 71
     3
 72
     8
 73
     4
 74
     0
 42
0.000000001
 43
0.0000000001
 40
0.0
 40
0.0
 40
0.0
 40
0.0
 40
1.0
 40
1.0
 40
1.0
 40
1.0
 10
176.4399
 20
-238.253
 30
0.0
 10
176.5276
 20
-238.101
 30
0.0
 10
176.5738
 20
-237.9286
 30
0.0
 10
176.5738
 20
-237.7531
 30
0.0
  0
SPLINE
  5
61
330
1F
100
AcDbEntity
  8
Capa 1
370
    15
100
AcDbSpline
210
0.0
220
0.0
230
1.0
 70
    24
 71
     3
 72
     8
 73
     4
 74
     0
 42
0.000000001
 43
0.0000000001
 40
0.0
 40
0.0
 40
0.0
 40
0.0
 40
1.0
 40
1.0
 40
1.0
 40
1.0
 10
176.5739
 20
-237.7531
 30
0.0
 10
176.5739
 20
-237.7531
 30
0.0
 10
176.5739
 20
-165.2988
 30
0.0
 10
176.5739
 20
-165.2988
 30
0.0
  0
SPLINE
  5
62
330
1F
100
AcDbEntity
  8
Capa 1
370
    15
100
AcDbSpline
210
0.0
220
0.0
230
1.0
 70
     8
 71
     3
 72
     8
 73
     4
 74
     0
 42
0.000000001
 43
0.0000000001
 40
0.0
 40
0.0
 40
0.0
 40
0.0
 40
1.0
 40
1.0
 40
1.0
 40
1.0
 10
178.0215
 20
-163.7997
 30
0.0
 10
177.2139
 20
-163.8279
 30
0.0
 10
176.5739
 20
-164.4907
 30
0.0
 10
176.5739
 20
-165.2988
 30
0.0
  0
SPLINE
  5
63
330
1F
100
AcDbEntity
  8
Capa 1
370
    15
100
AcDbSpline
210
0.0
220
0.0
230
1.0
 70
    24
 71
     3
 72
     8
 73
     4
 74
     0
 42
0.000000001
 43
0.0000000001
 40
0.0
 40
0.0
 40
0.0
 40
0.0
 40
1.0
 40
1.0
 40
1.0
 40
1.0
 10
180.5739
 20
-163.7106
 30
0.0
 10
180.5739
 20
-163.7106
 30
0.0
 10
178.0215
 20
-163.7997
 30
0.0
 10
178.0215
 20
-163.7997
 30
0.0
  0
SPLINE
  5
64
330
1F
100
AcDbEntity
  8
Capa 1
370
    15
100
AcDbSpline
210
0.0
220
0.0
230
1.0
 70
    24
 71
     3
 72
     8
 73
     4
 74
     0
 42
0.000000001
 43
0.0000000001
 40
0.0
 40
0.0
 40
0.0
 40
0.0
 40
1.0
 40
1.0
 40
1.0
 40
1.0
 10
180.5739
 20
-163.7106
 30
0.0
 10
180.5739
 20
-163.7106
 30
0.0
 10
180.5739
 20
-153.7106
 30
0.0
 10
180.5739
 20
-153.7106
 30
0.0
  0
SPLINE
  5
65
330
1F
100
AcDbEntity
  8
Capa 1
370
    15
100
AcDbSpline
210
0.0
220
0.0
230
1.0
 70
    24
 71
     3
 72
     8
 73
     4
 74
     0
 42
0.000000001
 43
0.0000000001
 40
0.0
 40
0.0
 40
0.0
 40
0.0
 40
1.0
 40
1.0
 40
1.0
 40
1.0
 10
178.0215
 20
-153.6214
 30
0.0
 10
178.0215
 20
-153.6214
 30
0.0
 10
180.5739
 20
-153.7106
 30
0.0
 10
180.5739
 20
-153.7106
 30
0.0
  0
SPLINE
  5
66
330
1F
100
AcDbEntity
  8
Capa 1
370
    15
100
AcDbSpline
210
0.0
220
0.0
230
1.0
 70
     8
 71
     3
 72
     8
 73
     4
 74
     0
 42
0.000000001
 43
0.0000000001
 40
0.0
 40
0.0
 40
0.0
 40
0.0
 40
1.0
 40
1.0
 40
1.0
 40
1.0
 10
176.5739
 20
-152.1223
 30
0.0
 10
176.5739
 20
-152.9304
 30
0.0
 10
177.2139
 20
-153.5932
 30
0.0
 10
178.0215
 20
-153.6214
 30
0.0
  0
SPLINE
  5
67
330
1F
100
AcDbEntity
  8
Capa 1
370
    15
100
AcDbSpline
210
0.0
220
0.0
230
1.0
 70
    24
 71
     3
 72
     8
 73
     4
 74
     0
 42
0.000000001
 43
0.0000000001
 40
0.0
 40
0.0
 40
0.0
 40
0.0
 40
1.0
 40
1.0
 40
1.0
 40
1.0
 10
176.5739
 20
-152.1223
 30
0.0
 10
176.5739
 20
-152.1223
 30
0.0
 10
176.5739
 20
-135.3106
 30
0.0
 10
176.5739
 20
-135.3106
 30
0.0
  0
SPLINE
  5
68
330
1F
100
AcDbEntity
  8
Capa 1
370
    15
100
AcDbSpline
210
0.0
220
0.0
230
1.0
 70
    24
 71
     3
 72
     8
 73
     4
 74
     0
 42
0.000000001
 43
0.0000000001
 40
0.0
 40
0.0
 40
0.0
 40
0.0
 40
1.0
 40
1.0
 40
1.0
 40
1.0
 10
170.2529
 20
-135.3107
 30
0.0
 10
170.2529
 20
-135.3107
 30
0.0
 10
176.3434
 20
-135.3107
 30
0.0
 10
176.3434
 20
-135.3107
 30
0.0
  0
SPLINE
  5
69
330
1F
100
AcDbEntity
  8
Capa 1
370
    15
100
AcDbSpline
210
0.0
220
0.0
230
1.0
 70
     8
 71
     3
 72
     8
 73
     4
 74
     0
 42
0.000000001
 43
0.0000000001
 40
0.0
 40
0.0
 40
0.0
 40
0.0
 40
1.0
 40
1.0
 40
1.0
 40
1.0
 10
168.7739
 20
-136.5605
 30
0.0
 10
169.5058
 20
-136.5605
 30
0.0
 10
170.1309
 20
-136.0323
 30
0.0
 10
170.2529
 20
-135.3106
 30
0.0
  0
SPLINE
  5
6A
330
1F
100
AcDbEntity
  8
Capa 1
370
    15
100
AcDbSpline
210
0.0
220
0.0
230
1.0
 70
    24
 71
     3
 72
     8
 73
     4
 74
     0
 42
0.000000001
 43
0.0000000001
 40
0.0
 40
0.0
 40
0.0
 40
0.0
 40
1.0
 40
1.0
 40
1.0
 40
1.0
 10
168.7739
 20
-136.5606
 30
0.0
 10
168.7739
 20
-136.5606
 30
0.0
 10
167.3739
 20
-136.5606
 30
0.0
 10
167.3739
 20
-136.5606
 30
0.0
  0
SPLINE
  5
6B
330
1F
100
AcDbEntity
  8
Capa 1
370
    15
100
AcDbSpline
210
0.0
220
0.0
230
1.0
 70
     8
 71
     3
 72
     8
 73
     4
 74
     0
 42
0.000000001
 43
0.0000000001
 40
0.0
 40
0.0
 40
0.0
 40
0.0
 40
1.0
 40
1.0
 40
1.0
 40
1.0
 10
165.8948
 20
-135.3106
 30
0.0
 10
166.0168
 20
-136.0323
 30
0.0
 10
166.6419
 20
-136.5605
 30
0.0
 10
167.3739
 20
-136.5605
 30
0.0
  0
SPLINE
  5
6C
330
1F
100
AcDbEntity
  8
Capa 1
370
    15
100
AcDbSpline
210
0.0
220
0.0
230
1.0
 70
    24
 71
     3
 72
     8
 73
     4
 74
     0
 42
0.000000001
 43
0.0000000001
 40
0.0
 40
0.0
 40
0.0
 40
0.0
 40
1.0
 40
1.0
 40
1.0
 40
1.0
 10
165.8948
 20
-135.3106
 30
0.0
 10
165.8948
 20
-135.3106
 30
0.0
 10
165.8948
 20
-135.1481
 30
0.0
 10
165.8948
 20
-135.1481
 30
0.0
  0
SPLINE
  5
6D
330
1F
100
AcDbEntity
  8
Capa 1
370
    15
100
AcDbSpline
210
0.0
220
0.0
230
1.0
 70
     8
 71
     3
 72
    12
 73
     8
 74
     0
 42
0.000000001
 43
0.0000000001
 40
0.0
 40
0.0
 40
0.0
 40
0.0
 40
0.3333333333333333
 40
0.3333333333333333
 40
0.3333333333333333
 40
0.3333333333333333
 40
1.0
 40
1.0
 40
1.0
 40
1.0
 10
165.8948
 20
-132.473
 30
0.0
 10
165.3912
 20
-132.7287
 30
0.0
 10
165.0739
 20
-133.2457
 30
0.0
 10
165.0739
 20
-133.8106
 30
0.0
 10
165.0739
 20
-133.8106
 30
0.0
 10
165.0739
 20
-134.3754
 30
0.0
 10
165.3912
 20
-134.8924
 30
0.0
 10
165.8948
 20
-135.1481
 30
0.0
  0
SPLINE
  5
6E
330
1F
100
AcDbEntity
  8
Capa 1
370
    15
100
AcDbSpline
210
0.0
220
0.0
230
1.0
 70
    24
 71
     3
 72
     8
 73
     4
 74
     0
 42
0.000000001
 43
0.0000000001
 40
0.0
 40
0.0
 40
0.0
 40
0.0
 40
1.0
 40
1.0
 40
1.0
 40
1.0
 10
165.8948
 20
-132.473
 30
0.0
 10
165.8948
 20
-132.473
 30
0.0
 10
165.8948
 20
-132.3106
 30
0.0
 10
165.8948
 20
-132.3106
 30
0.0
  0
SPLINE
  5
6F
330
1F
100
AcDbEntity
  8
Capa 1
370
    15
100
AcDbSpline
210
0.0
220
0.0
230
1.0
 70
     8
 71
     3
 72
     8
 73
     4
 74
     0
 42
0.000000001
 43
0.0000000001
 40
0.0
 40
0.0
 40
0.0
 40
0.0
 40
1.0
 40
1.0
 40
1.0
 40
1.0
 10
167.3739
 20
-131.0606
 30
0.0
 10
166.6419
 20
-131.0606
 30
0.0
 10
166.0168
 20
-131.5888
 30
0.0
 10
165.8948
 20
-132.3105
 30
0.0
  0
SPLINE
  5
70
330
1F
100
AcDbEntity
  8
Capa 1
370
    15
100
AcDbSpline
210
0.0
220
0.0
230
1.0
 70
    24
 71
     3
 72
     8
 73
     4
 74
     0
 42
0.000000001
 43
0.0000000001
 40
0.0
 40
0.0
 40
0.0
 40
0.0
 40
1.0
 40
1.0
 40
1.0
 40
1.0
 10
167.3739
 20
-131.0606
 30
0.0
 10
167.3739
 20
-131.0606
 30
0.0
 10
168.7739
 20
-131.0606
 30
0.0
 10
168.7739
 20
-131.0606
 30
0.0
  0
SPLINE
  5
71
330
1F
100
AcDbEntity
  8
Capa 1
370
    15
100
AcDbSpline
210
0.0
220
0.0
230
1.0
 70
     8
 71
     3
 72
     8
 73
     4
 74
     0
 42
0.000000001
 43
0.0000000001
 40
0.0
 40
0.0
 40
0.0
 40
0.0
 40
1.0
 40
1.0
 40
1.0
 40
1.0
 10
170.2529
 20
-132.3105
 30
0.0
 10
170.1309
 20
-131.5888
 30
0.0
 10
169.5058
 20
-131.0606
 30
0.0
 10
168.7739
 20
-131.0606
 30
0.0
  0
SPLINE
  5
72
330
1F
100
AcDbEntity
  8
Capa 1
370
    15
100
AcDbSpline
210
0.0
220
0.0
230
1.0
 70
    24
 71
     3
 72
     8
 73
     4
 74
     0
 42
0.000000001
 43
0.0000000001
 40
0.0
 40
0.0
 40
0.0
 40
0.0
 40
1.0
 40
1.0
 40
1.0
 40
1.0
 10
176.3569
 20
-132.3106
 30
0.0
 10
176.3569
 20
-132.3106
 30
0.0
 10
170.2529
 20
-132.3106
 30
0.0
 10
170.2529
 20
-132.3106
 30
0.0
  0
SPLINE
  5
73
330
1F
100
AcDbEntity
  8
Capa 1
370
    15
100
AcDbSpline
210
0.0
220
0.0
230
1.0
 70
    24
 71
     3
 72
     8
 73
     4
 74
     0
 42
0.000000001
 43
0.0000000001
 40
0.0
 40
0.0
 40
0.0
 40
0.0
 40
1.0
 40
1.0
 40
1.0
 40
1.0
 10
176.5739
 20
-132.3106
 30
0.0
 10
176.5739
 20
-132.3106
 30
0.0
 10
176.5739
 20
-115.2988
 30
0.0
 10
176.5739
 20
-115.2988
 30
0.0
  0
SPLINE
  5
74
330
1F
100
AcDbEntity
  8
Capa 1
370
    15
100
AcDbSpline
210
0.0
220
0.0
230
1.0
 70
     8
 71
     3
 72
     8
 73
     4
 74
     0
 42
0.000000001
 43
0.0000000001
 40
0.0
 40
0.0
 40
0.0
 40
0.0
 40
1.0
 40
1.0
 40
1.0
 40
1.0
 10
178.0215
 20
-113.7997
 30
0.0
 10
177.2139
 20
-113.8279
 30
0.0
 10
176.5738
 20
-114.4907
 30
0.0
 10
176.5738
 20
-115.2988
 30
0.0
  0
SPLINE
  5
75
330
1F
100
AcDbEntity
  8
Capa 1
370
    15
100
AcDbSpline
210
0.0
220
0.0
230
1.0
 70
    24
 71
     3
 72
     8
 73
     4
 74
     0
 42
0.000000001
 43
0.0000000001
 40
0.0
 40
0.0
 40
0.0
 40
0.0
 40
1.0
 40
1.0
 40
1.0
 40
1.0
 10
180.5739
 20
-113.7106
 30
0.0
 10
180.5739
 20
-113.7106
 30
0.0
 10
178.0215
 20
-113.7997
 30
0.0
 10
178.0215
 20
-113.7997
 30
0.0
  0
SPLINE
  5
76
330
1F
100
AcDbEntity
  8
Capa 1
370
    15
100
AcDbSpline
210
0.0
220
0.0
230
1.0
 70
    24
 71
     3
 72
     8
 73
     4
 74
     0
 42
0.000000001
 43
0.0000000001
 40
0.0
 40
0.0
 40
0.0
 40
0.0
 40
1.0
 40
1.0
 40
1.0
 40
1.0
 10
180.5739
 20
-113.7106
 30
0.0
 10
180.5739
 20
-113.7106
 30
0.0
 10
180.5739
 20
-103.7106
 30
0.0
 10
180.5739
 20
-103.7106
 30
0.0
  0
SPLINE
  5
77
330
1F
100
AcDbEntity
  8
Capa 1
370
    15
100
AcDbSpline
210
0.0
220
0.0
230
1.0
 70
    24
 71
     3
 72
     8
 73
     4
 74
     0
 42
0.000000001
 43
0.0000000001
 40
0.0
 40
0.0
 40
0.0
 40
0.0
 40
1.0
 40
1.0
 40
1.0
 40
1.0
 10
178.0215
 20
-103.6214
 30
0.0
 10
178.0215
 20
-103.6214
 30
0.0
 10
180.5739
 20
-103.7106
 30
0.0
 10
180.5739
 20
-103.7106
 30
0.0
  0
SPLINE
  5
78
330
1F
100
AcDbEntity
  8
Capa 1
370
    15
100
AcDbSpline
210
0.0
220
0.0
230
1.0
 70
     8
 71
     3
 72
     8
 73
     4
 74
     0
 42
0.000000001
 43
0.0000000001
 40
0.0
 40
0.0
 40
0.0
 40
0.0
 40
1.0
 40
1.0
 40
1.0
 40
1.0
 10
176.5738
 20
-102.1223
 30
0.0
 10
176.5738
 20
-102.9304
 30
0.0
 10
177.2139
 20
-103.5932
 30
0.0
 10
178.0215
 20
-103.6214
 30
0.0
  0
SPLINE
  5
79
330
1F
100
AcDbEntity
  8
Capa 1
370
    15
100
AcDbSpline
210
0.0
220
0.0
230
1.0
 70
    24
 71
     3
 72
     8
 73
     4
 74
     0
 42
0.000000001
 43
0.0000000001
 40
0.0
 40
0.0
 40
0.0
 40
0.0
 40
1.0
 40
1.0
 40
1.0
 40
1.0
 10
176.5739
 20
-102.1223
 30
0.0
 10
176.5739
 20
-102.1223
 30
0.0
 10
176.5739
 20
-33.5988
 30
0.0
 10
176.5739
 20
-33.5988
 30
0.0
  0
SPLINE
  5
7A
330
1F
100
AcDbEntity
  8
Capa 1
370
    15
100
AcDbSpline
210
0.0
220
0.0
230
1.0
 70
     8
 71
     3
 72
     8
 73
     4
 74
     0
 42
0.000000001
 43
0.0000000001
 40
0.0
 40
0.0
 40
0.0
 40
0.0
 40
1.0
 40
1.0
 40
1.0
 40
1.0
 10
178.0215
 20
-32.0997
 30
0.0
 10
177.2139
 20
-32.1279
 30
0.0
 10
176.5739
 20
-32.7907
 30
0.0
 10
176.5739
 20
-33.5988
 30
0.0
  0
SPLINE
  5
7B
330
1F
100
AcDbEntity
  8
Capa 1
370
    15
100
AcDbSpline
210
0.0
220
0.0
230
1.0
 70
    24
 71
     3
 72
     8
 73
     4
 74
     0
 42
0.000000001
 43
0.0000000001
 40
0.0
 40
0.0
 40
0.0
 40
0.0
 40
1.0
 40
1.0
 40
1.0
 40
1.0
 10
180.5739
 20
-32.0106
 30
0.0
 10
180.5739
 20
-32.0106
 30
0.0
 10
178.0215
 20
-32.0997
 30
0.0
 10
178.0215
 20
-32.0997
 30
0.0
  0
SPLINE
  5
7C
330
1F
100
AcDbEntity
  8
Capa 1
370
    15
100
AcDbSpline
210
0.0
220
0.0
230
1.0
 70
    24
 71
     3
 72
     8
 73
     4
 74
     0
 42
0.000000001
 43
0.0000000001
 40
0.0
 40
0.0
 40
0.0
 40
0.0
 40
1.0
 40
1.0
 40
1.0
 40
1.0
 10
180.5739
 20
-32.0106
 30
0.0
 10
180.5739
 20
-32.0106
 30
0.0
 10
180.5739
 20
-22.0106
 30
0.0
 10
180.5739
 20
-22.0106
 30
0.0
  0
SPLINE
  5
7D
330
1F
100
AcDbEntity
  8
Capa 1
370
    15
100
AcDbSpline
210
0.0
220
0.0
230
1.0
 70
    24
 71
     3
 72
     8
 73
     4
 74
     0
 42
0.000000001
 43
0.0000000001
 40
0.0
 40
0.0
 40
0.0
 40
0.0
 40
1.0
 40
1.0
 40
1.0
 40
1.0
 10
178.0215
 20
-21.9214
 30
0.0
 10
178.0215
 20
-21.9214
 30
0.0
 10
180.5739
 20
-22.0106
 30
0.0
 10
180.5739
 20
-22.0106
 30
0.0
  0
SPLINE
  5
7E
330
1F
100
AcDbEntity
  8
Capa 1
370
    15
100
AcDbSpline
210
0.0
220
0.0
230
1.0
 70
     8
 71
     3
 72
     8
 73
     4
 74
     0
 42
0.000000001
 43
0.0000000001
 40
0.0
 40
0.0
 40
0.0
 40
0.0
 40
1.0
 40
1.0
 40
1.0
 40
1.0
 10
176.5739
 20
-20.4223
 30
0.0
 10
176.5739
 20
-21.2304
 30
0.0
 10
177.2139
 20
-21.8932
 30
0.0
 10
178.0215
 20
-21.9214
 30
0.0
  0
SPLINE
  5
7F
330
1F
100
AcDbEntity
  8
Capa 1
370
    15
100
AcDbSpline
210
0.0
220
0.0
230
1.0
 70
    24
 71
     3
 72
     8
 73
     4
 74
     0
 42
0.000000001
 43
0.0000000001
 40
0.0
 40
0.0
 40
0.0
 40
0.0
 40
1.0
 40
1.0
 40
1.0
 40
1.0
 10
176.5739
 20
-20.4223
 30
0.0
 10
176.5739
 20
-20.4223
 30
0.0
 10
176.5739
 20
-3.4106
 30
0.0
 10
176.5739
 20
-3.4106
 30
0.0
  0
SPLINE
  5
80
330
1F
100
AcDbEntity
  8
Capa 1
370
    15
100
AcDbSpline
210
0.0
220
0.0
230
1.0
 70
    24
 71
     3
 72
     8
 73
     4
 74
     0
 42
0.000000001
 43
0.0000000001
 40
0.0
 40
0.0
 40
0.0
 40
0.0
 40
1.0
 40
1.0
 40
1.0
 40
1.0
 10
170.2533
 20
-3.4106
 30
0.0
 10
170.2533
 20
-3.4106
 30
0.0
 10
176.2515
 20
-3.4106
 30
0.0
 10
176.2515
 20
-3.4106
 30
0.0
  0
SPLINE
  5
81
330
1F
100
AcDbEntity
  8
Capa 1
370
    15
100
AcDbSpline
210
0.0
220
0.0
230
1.0
 70
     8
 71
     3
 72
     8
 73
     4
 74
     0
 42
0.000000001
 43
0.0000000001
 40
0.0
 40
0.0
 40
0.0
 40
0.0
 40
1.0
 40
1.0
 40
1.0
 40
1.0
 10
168.7743
 20
-4.6606
 30
0.0
 10
169.5062
 20
-4.6606
 30
0.0
 10
170.1313
 20
-4.1324
 30
0.0
 10
170.2533
 20
-3.4107
 30
0.0
  0
SPLINE
  5
82
330
1F
100
AcDbEntity
  8
Capa 1
370
    15
100
AcDbSpline
210
0.0
220
0.0
230
1.0
 70
    24
 71
     3
 72
     8
 73
     4
 74
     0
 42
0.000000001
 43
0.0000000001
 40
0.0
 40
0.0
 40
0.0
 40
0.0
 40
1.0
 40
1.0
 40
1.0
 40
1.0
 10
168.7743
 20
-4.6606
 30
0.0
 10
168.7743
 20
-4.6606
 30
0.0
 10
167.3743
 20
-4.6606
 30
0.0
 10
167.3743
 20
-4.6606
 30
0.0
  0
SPLINE
  5
83
330
1F
100
AcDbEntity
  8
Capa 1
370
    15
100
AcDbSpline
210
0.0
220
0.0
230
1.0
 70
     8
 71
     3
 72
     8
 73
     4
 74
     0
 42
0.000000001
 43
0.0000000001
 40
0.0
 40
0.0
 40
0.0
 40
0.0
 40
1.0
 40
1.0
 40
1.0
 40
1.0
 10
165.8953
 20
-3.4107
 30
0.0
 10
166.0173
 20
-4.1324
 30
0.0
 10
166.6423
 20
-4.6606
 30
0.0
 10
167.3743
 20
-4.6606
 30
0.0
  0
SPLINE
  5
84
330
1F
100
AcDbEntity
  8
Capa 1
370
    15
100
AcDbSpline
210
0.0
220
0.0
230
1.0
 70
    24
 71
     3
 72
     8
 73
     4
 74
     0
 42
0.000000001
 43
0.0000000001
 40
0.0
 40
0.0
 40
0.0
 40
0.0
 40
1.0
 40
1.0
 40
1.0
 40
1.0
 10
165.8953
 20
-3.4106
 30
0.0
 10
165.8953
 20
-3.4106
 30
0.0
 10
165.8953
 20
-3.2482
 30
0.0
 10
165.8953
 20
-3.2482
 30
0.0
  0
SPLINE
  5
85
330
1F
100
AcDbEntity
  8
Capa 1
370
    15
100
AcDbSpline
210
0.0
220
0.0
230
1.0
 70
     8
 71
     3
 72
    12
 73
     8
 74
     0
 42
0.000000001
 43
0.0000000001
 40
0.0
 40
0.0
 40
0.0
 40
0.0
 40
0.3333333333333333
 40
0.3333333333333333
 40
0.3333333333333333
 40
0.3333333333333333
 40
1.0
 40
1.0
 40
1.0
 40
1.0
 10
165.8953
 20
-0.5731
 30
0.0
 10
165.3916
 20
-0.8288
 30
0.0
 10
165.0743
 20
-1.3458
 30
0.0
 10
165.0743
 20
-1.9106
 30
0.0
 10
165.0743
 20
-1.9106
 30
0.0
 10
165.0743
 20
-2.4755
 30
0.0
 10
165.3916
 20
-2.9925
 30
0.0
 10
165.8953
 20
-3.2482
 30
0.0
  0
SPLINE
  5
86
330
1F
100
AcDbEntity
  8
Capa 1
370
    15
100
AcDbSpline
210
0.0
220
0.0
230
1.0
 70
    24
 71
     3
 72
     8
 73
     4
 74
     0
 42
0.000000001
 43
0.0000000001
 40
0.0
 40
0.0
 40
0.0
 40
0.0
 40
1.0
 40
1.0
 40
1.0
 40
1.0
 10
165.8953
 20
-0.5731
 30
0.0
 10
165.8953
 20
-0.5731
 30
0.0
 10
165.8953
 20
-0.4106
 30
0.0
 10
165.8953
 20
-0.4106
 30
0.0
  0
SPLINE
  5
87
330
1F
100
AcDbEntity
  8
Capa 1
370
    15
100
AcDbSpline
210
0.0
220
0.0
230
1.0
 70
     8
 71
     3
 72
     8
 73
     4
 74
     0
 42
0.000000001
 43
0.0000000001
 40
0.0
 40
0.0
 40
0.0
 40
0.0
 40
1.0
 40
1.0
 40
1.0
 40
1.0
 10
167.3743
 20
0.8393
 30
0.0
 10
166.6423
 20
0.8393
 30
0.0
 10
166.0173
 20
0.3111
 30
0.0
 10
165.8953
 20
-0.4106
 30
0.0
  0
SPLINE
  5
88
330
1F
100
AcDbEntity
  8
Capa 1
370
    15
100
AcDbSpline
210
0.0
220
0.0
230
1.0
 70
    24
 71
     3
 72
     8
 73
     4
 74
     0
 42
0.000000001
 43
0.0000000001
 40
0.0
 40
0.0
 40
0.0
 40
0.0
 40
1.0
 40
1.0
 40
1.0
 40
1.0
 10
167.3743
 20
0.8394
 30
0.0
 10
167.3743
 20
0.8394
 30
0.0
 10
168.7743
 20
0.8394
 30
0.0
 10
168.7743
 20
0.8394
 30
0.0
  0
SPLINE
  5
89
330
1F
100
AcDbEntity
  8
Capa 1
370
    15
100
AcDbSpline
210
0.0
220
0.0
230
1.0
 70
     8
 71
     3
 72
     8
 73
     4
 74
     0
 42
0.000000001
 43
0.0000000001
 40
0.0
 40
0.0
 40
0.0
 40
0.0
 40
1.0
 40
1.0
 40
1.0
 40
1.0
 10
170.2533
 20
-0.4106
 30
0.0
 10
170.1313
 20
0.3111
 30
0.0
 10
169.5062
 20
0.8393
 30
0.0
 10
168.7743
 20
0.8393
 30
0.0
  0
SPLINE
  5
8A
330
1F
100
AcDbEntity
  8
Capa 1
370
    15
100
AcDbSpline
210
0.0
220
0.0
230
1.0
 70
    24
 71
     3
 72
     8
 73
     4
 74
     0
 42
0.000000001
 43
0.0000000001
 40
0.0
 40
0.0
 40
0.0
 40
0.0
 40
1.0
 40
1.0
 40
1.0
 40
1.0
 10
176.2382
 20
-0.4106
 30
0.0
 10
176.2382
 20
-0.4106
 30
0.0
 10
170.2533
 20
-0.4106
 30
0.0
 10
170.2533
 20
-0.4106
 30
0.0
  0
SPLINE
  5
8B
330
1F
100
AcDbEntity
  8
Capa 1
370
    15
100
AcDbSpline
210
0.0
220
0.0
230
1.0
 70
    24
 71
     3
 72
     8
 73
     4
 74
     0
 42
0.000000001
 43
0.0000000001
 40
0.0
 40
0.0
 40
0.0
 40
0.0
 40
1.0
 40
1.0
 40
1.0
 40
1.0
 10
176.5739
 20
-0.4106
 30
0.0
 10
176.5739
 20
-0.4106
 30
0.0
 10
176.5739
 20
16.4011
 30
0.0
 10
176.5739
 20
16.4011
 30
0.0
  0
SPLINE
  5
8C
330
1F
100
AcDbEntity
  8
Capa 1
370
    15
100
AcDbSpline
210
0.0
220
0.0
230
1.0
 70
     8
 71
     3
 72
     8
 73
     4
 74
     0
 42
0.000000001
 43
0.0000000001
 40
0.0
 40
0.0
 40
0.0
 40
0.0
 40
1.0
 40
1.0
 40
1.0
 40
1.0
 10
178.0215
 20
17.9002
 30
0.0
 10
177.2139
 20
17.872
 30
0.0
 10
176.5739
 20
17.2092
 30
0.0
 10
176.5739
 20
16.4011
 30
0.0
  0
SPLINE
  5
8D
330
1F
100
AcDbEntity
  8
Capa 1
370
    15
100
AcDbSpline
210
0.0
220
0.0
230
1.0
 70
    24
 71
     3
 72
     8
 73
     4
 74
     0
 42
0.000000001
 43
0.0000000001
 40
0.0
 40
0.0
 40
0.0
 40
0.0
 40
1.0
 40
1.0
 40
1.0
 40
1.0
 10
180.5739
 20
17.9894
 30
0.0
 10
180.5739
 20
17.9894
 30
0.0
 10
178.0215
 20
17.9002
 30
0.0
 10
178.0215
 20
17.9002
 30
0.0
  0
SPLINE
  5
8E
330
1F
100
AcDbEntity
  8
Capa 1
370
    15
100
AcDbSpline
210
0.0
220
0.0
230
1.0
 70
    24
 71
     3
 72
     8
 73
     4
 74
     0
 42
0.000000001
 43
0.0000000001
 40
0.0
 40
0.0
 40
0.0
 40
0.0
 40
1.0
 40
1.0
 40
1.0
 40
1.0
 10
180.5739
 20
17.9894
 30
0.0
 10
180.5739
 20
17.9894
 30
0.0
 10
180.5739
 20
27.9894
 30
0.0
 10
180.5739
 20
27.9894
 30
0.0
  0
SPLINE
  5
8F
330
1F
100
AcDbEntity
  8
Capa 1
370
    15
100
AcDbSpline
210
0.0
220
0.0
230
1.0
 70
    24
 71
     3
 72
     8
 73
     4
 74
     0
 42
0.000000001
 43
0.0000000001
 40
0.0
 40
0.0
 40
0.0
 40
0.0
 40
1.0
 40
1.0
 40
1.0
 40
1.0
 10
178.0215
 20
28.0785
 30
0.0
 10
178.0215
 20
28.0785
 30
0.0
 10
180.5739
 20
27.9894
 30
0.0
 10
180.5739
 20
27.9894
 30
0.0
  0
SPLINE
  5
90
330
1F
100
AcDbEntity
  8
Capa 1
370
    15
100
AcDbSpline
210
0.0
220
0.0
230
1.0
 70
     8
 71
     3
 72
     8
 73
     4
 74
     0
 42
0.000000001
 43
0.0000000001
 40
0.0
 40
0.0
 40
0.0
 40
0.0
 40
1.0
 40
1.0
 40
1.0
 40
1.0
 10
176.5739
 20
29.5776
 30
0.0
 10
176.5739
 20
28.7695
 30
0.0
 10
177.2139
 20
28.1067
 30
0.0
 10
178.0215
 20
28.0785
 30
0.0
  0
SPLINE
  5
91
330
1F
100
AcDbEntity
  8
Capa 1
370
    15
100
AcDbSpline
210
0.0
220
0.0
230
1.0
 70
    24
 71
     3
 72
     8
 73
     4
 74
     0
 42
0.000000001
 43
0.0000000001
 40
0.0
 40
0.0
 40
0.0
 40
0.0
 40
1.0
 40
1.0
 40
1.0
 40
1.0
 10
176.5739
 20
29.5776
 30
0.0
 10
176.5739
 20
29.5776
 30
0.0
 10
176.5739
 20
100.6011
 30
0.0
 10
176.5739
 20
100.6011
 30
0.0
  0
SPLINE
  5
92
330
1F
100
AcDbEntity
  8
Capa 1
370
    15
100
AcDbSpline
210
0.0
220
0.0
230
1.0
 70
     8
 71
     3
 72
     8
 73
     4
 74
     0
 42
0.000000001
 43
0.0000000001
 40
0.0
 40
0.0
 40
0.0
 40
0.0
 40
1.0
 40
1.0
 40
1.0
 40
1.0
 10
178.0215
 20
102.1002
 30
0.0
 10
177.2139
 20
102.072
 30
0.0
 10
176.5738
 20
101.4092
 30
0.0
 10
176.5738
 20
100.6011
 30
0.0
  0
SPLINE
  5
93
330
1F
100
AcDbEntity
  8
Capa 1
370
    15
100
AcDbSpline
210
0.0
220
0.0
230
1.0
 70
    24
 71
     3
 72
     8
 73
     4
 74
     0
 42
0.000000001
 43
0.0000000001
 40
0.0
 40
0.0
 40
0.0
 40
0.0
 40
1.0
 40
1.0
 40
1.0
 40
1.0
 10
180.5739
 20
102.1894
 30
0.0
 10
180.5739
 20
102.1894
 30
0.0
 10
178.0215
 20
102.1002
 30
0.0
 10
178.0215
 20
102.1002
 30
0.0
  0
SPLINE
  5
94
330
1F
100
AcDbEntity
  8
Capa 1
370
    15
100
AcDbSpline
210
0.0
220
0.0
230
1.0
 70
    24
 71
     3
 72
     8
 73
     4
 74
     0
 42
0.000000001
 43
0.0000000001
 40
0.0
 40
0.0
 40
0.0
 40
0.0
 40
1.0
 40
1.0
 40
1.0
 40
1.0
 10
180.5739
 20
102.1894
 30
0.0
 10
180.5739
 20
102.1894
 30
0.0
 10
180.5739
 20
112.1894
 30
0.0
 10
180.5739
 20
112.1894
 30
0.0
  0
SPLINE
  5
95
330
1F
100
AcDbEntity
  8
Capa 1
370
    15
100
AcDbSpline
210
0.0
220
0.0
230
1.0
 70
    24
 71
     3
 72
     8
 73
     4
 74
     0
 42
0.000000001
 43
0.0000000001
 40
0.0
 40
0.0
 40
0.0
 40
0.0
 40
1.0
 40
1.0
 40
1.0
 40
1.0
 10
178.0215
 20
112.2785
 30
0.0
 10
178.0215
 20
112.2785
 30
0.0
 10
180.5739
 20
112.1894
 30
0.0
 10
180.5739
 20
112.1894
 30
0.0
  0
SPLINE
  5
96
330
1F
100
AcDbEntity
  8
Capa 1
370
    15
100
AcDbSpline
210
0.0
220
0.0
230
1.0
 70
     8
 71
     3
 72
     8
 73
     4
 74
     0
 42
0.000000001
 43
0.0000000001
 40
0.0
 40
0.0
 40
0.0
 40
0.0
 40
1.0
 40
1.0
 40
1.0
 40
1.0
 10
176.5739
 20
113.7776
 30
0.0
 10
176.5739
 20
112.9695
 30
0.0
 10
177.2139
 20
112.3067
 30
0.0
 10
178.0215
 20
112.2785
 30
0.0
  0
SPLINE
  5
97
330
1F
100
AcDbEntity
  8
Capa 1
370
    15
100
AcDbSpline
210
0.0
220
0.0
230
1.0
 70
    24
 71
     3
 72
     8
 73
     4
 74
     0
 42
0.000000001
 43
0.0000000001
 40
0.0
 40
0.0
 40
0.0
 40
0.0
 40
1.0
 40
1.0
 40
1.0
 40
1.0
 10
176.5739
 20
113.7776
 30
0.0
 10
176.5739
 20
113.7776
 30
0.0
 10
176.5739
 20
130.6894
 30
0.0
 10
176.5739
 20
130.6894
 30
0.0
  0
SPLINE
  5
98
330
1F
100
AcDbEntity
  8
Capa 1
370
    15
100
AcDbSpline
210
0.0
220
0.0
230
1.0
 70
    24
 71
     3
 72
     8
 73
     4
 74
     0
 42
0.000000001
 43
0.0000000001
 40
0.0
 40
0.0
 40
0.0
 40
0.0
 40
1.0
 40
1.0
 40
1.0
 40
1.0
 10
170.2529
 20
130.6894
 30
0.0
 10
170.2529
 20
130.6894
 30
0.0
 10
176.2258
 20
130.6894
 30
0.0
 10
176.2258
 20
130.6894
 30
0.0
  0
SPLINE
  5
99
330
1F
100
AcDbEntity
  8
Capa 1
370
    15
100
AcDbSpline
210
0.0
220
0.0
230
1.0
 70
     8
 71
     3
 72
     8
 73
     4
 74
     0
 42
0.000000001
 43
0.0000000001
 40
0.0
 40
0.0
 40
0.0
 40
0.0
 40
1.0
 40
1.0
 40
1.0
 40
1.0
 10
168.7739
 20
129.4394
 30
0.0
 10
169.5058
 20
129.4394
 30
0.0
 10
170.1309
 20
129.9676
 30
0.0
 10
170.2529
 20
130.6893
 30
0.0
  0
SPLINE
  5
9A
330
1F
100
AcDbEntity
  8
Capa 1
370
    15
100
AcDbSpline
210
0.0
220
0.0
230
1.0
 70
    24
 71
     3
 72
     8
 73
     4
 74
     0
 42
0.000000001
 43
0.0000000001
 40
0.0
 40
0.0
 40
0.0
 40
0.0
 40
1.0
 40
1.0
 40
1.0
 40
1.0
 10
168.7739
 20
129.4394
 30
0.0
 10
168.7739
 20
129.4394
 30
0.0
 10
167.3739
 20
129.4394
 30
0.0
 10
167.3739
 20
129.4394
 30
0.0
  0
SPLINE
  5
9B
330
1F
100
AcDbEntity
  8
Capa 1
370
    15
100
AcDbSpline
210
0.0
220
0.0
230
1.0
 70
     8
 71
     3
 72
     8
 73
     4
 74
     0
 42
0.000000001
 43
0.0000000001
 40
0.0
 40
0.0
 40
0.0
 40
0.0
 40
1.0
 40
1.0
 40
1.0
 40
1.0
 10
165.8948
 20
130.6893
 30
0.0
 10
166.0168
 20
129.9676
 30
0.0
 10
166.6419
 20
129.4394
 30
0.0
 10
167.3739
 20
129.4394
 30
0.0
  0
SPLINE
  5
9C
330
1F
100
AcDbEntity
  8
Capa 1
370
    15
100
AcDbSpline
210
0.0
220
0.0
230
1.0
 70
    24
 71
     3
 72
     8
 73
     4
 74
     0
 42
0.000000001
 43
0.0000000001
 40
0.0
 40
0.0
 40
0.0
 40
0.0
 40
1.0
 40
1.0
 40
1.0
 40
1.0
 10
165.8948
 20
130.6894
 30
0.0
 10
165.8948
 20
130.6894
 30
0.0
 10
165.8948
 20
130.8518
 30
0.0
 10
165.8948
 20
130.8518
 30
0.0
  0
SPLINE
  5
9D
330
1F
100
AcDbEntity
  8
Capa 1
370
    15
100
AcDbSpline
210
0.0
220
0.0
230
1.0
 70
     8
 71
     3
 72
    12
 73
     8
 74
     0
 42
0.000000001
 43
0.0000000001
 40
0.0
 40
0.0
 40
0.0
 40
0.0
 40
0.3333333333333333
 40
0.3333333333333333
 40
0.3333333333333333
 40
0.3333333333333333
 40
1.0
 40
1.0
 40
1.0
 40
1.0
 10
165.8948
 20
133.5269
 30
0.0
 10
165.3912
 20
133.2712
 30
0.0
 10
165.0739
 20
132.7542
 30
0.0
 10
165.0739
 20
132.1894
 30
0.0
 10
165.0739
 20
132.1894
 30
0.0
 10
165.0739
 20
131.6245
 30
0.0
 10
165.3912
 20
131.1075
 30
0.0
 10
165.8948
 20
130.8518
 30
0.0
  0
SPLINE
  5
9E
330
1F
100
AcDbEntity
  8
Capa 1
370
    15
100
AcDbSpline
210
0.0
220
0.0
230
1.0
 70
    24
 71
     3
 72
     8
 73
     4
 74
     0
 42
0.000000001
 43
0.0000000001
 40
0.0
 40
0.0
 40
0.0
 40
0.0
 40
1.0
 40
1.0
 40
1.0
 40
1.0
 10
165.8948
 20
133.5269
 30
0.0
 10
165.8948
 20
133.5269
 30
0.0
 10
165.8948
 20
133.6894
 30
0.0
 10
165.8948
 20
133.6894
 30
0.0
  0
SPLINE
  5
9F
330
1F
100
AcDbEntity
  8
Capa 1
370
    15
100
AcDbSpline
210
0.0
220
0.0
230
1.0
 70
     8
 71
     3
 72
     8
 73
     4
 74
     0
 42
0.000000001
 43
0.0000000001
 40
0.0
 40
0.0
 40
0.0
 40
0.0
 40
1.0
 40
1.0
 40
1.0
 40
1.0
 10
167.3739
 20
134.9393
 30
0.0
 10
166.6419
 20
134.9393
 30
0.0
 10
166.0168
 20
134.4111
 30
0.0
 10
165.8948
 20
133.6894
 30
0.0
  0
SPLINE
  5
A0
330
1F
100
AcDbEntity
  8
Capa 1
370
    15
100
AcDbSpline
210
0.0
220
0.0
230
1.0
 70
    24
 71
     3
 72
     8
 73
     4
 74
     0
 42
0.000000001
 43
0.0000000001
 40
0.0
 40
0.0
 40
0.0
 40
0.0
 40
1.0
 40
1.0
 40
1.0
 40
1.0
 10
167.3739
 20
134.9394
 30
0.0
 10
167.3739
 20
134.9394
 30
0.0
 10
168.7739
 20
134.9394
 30
0.0
 10
168.7739
 20
134.9394
 30
0.0
  0
SPLINE
  5
A1
330
1F
100
AcDbEntity
  8
Capa 1
370
    15
100
AcDbSpline
210
0.0
220
0.0
230
1.0
 70
     8
 71
     3
 72
     8
 73
     4
 74
     0
 42
0.000000001
 43
0.0000000001
 40
0.0
 40
0.0
 40
0.0
 40
0.0
 40
1.0
 40
1.0
 40
1.0
 40
1.0
 10
170.2529
 20
133.6894
 30
0.0
 10
170.1309
 20
134.4111
 30
0.0
 10
169.5058
 20
134.9393
 30
0.0
 10
168.7739
 20
134.9393
 30
0.0
  0
SPLINE
  5
A2
330
1F
100
AcDbEntity
  8
Capa 1
370
    15
100
AcDbSpline
210
0.0
220
0.0
230
1.0
 70
    24
 71
     3
 72
     8
 73
     4
 74
     0
 42
0.000000001
 43
0.0000000001
 40
0.0
 40
0.0
 40
0.0
 40
0.0
 40
1.0
 40
1.0
 40
1.0
 40
1.0
 10
176.2257
 20
133.6894
 30
0.0
 10
176.2257
 20
133.6894
 30
0.0
 10
170.2529
 20
133.6894
 30
0.0
 10
170.2529
 20
133.6894
 30
0.0
  0
SPLINE
  5
A3
330
1F
100
AcDbEntity
  8
Capa 1
370
    15
100
AcDbSpline
210
0.0
220
0.0
230
1.0
 70
    24
 71
     3
 72
     8
 73
     4
 74
     0
 42
0.000000001
 43
0.0000000001
 40
0.0
 40
0.0
 40
0.0
 40
0.0
 40
1.0
 40
1.0
 40
1.0
 40
1.0
 10
176.5739
 20
133.6894
 30
0.0
 10
176.5739
 20
133.6894
 30
0.0
 10
176.5739
 20
150.6011
 30
0.0
 10
176.5739
 20
150.6011
 30
0.0
  0
SPLINE
  5
A4
330
1F
100
AcDbEntity
  8
Capa 1
370
    15
100
AcDbSpline
210
0.0
220
0.0
230
1.0
 70
     8
 71
     3
 72
     8
 73
     4
 74
     0
 42
0.000000001
 43
0.0000000001
 40
0.0
 40
0.0
 40
0.0
 40
0.0
 40
1.0
 40
1.0
 40
1.0
 40
1.0
 10
178.0215
 20
152.1002
 30
0.0
 10
177.2139
 20
152.072
 30
0.0
 10
176.5739
 20
151.4092
 30
0.0
 10
176.5739
 20
150.6011
 30
0.0
  0
SPLINE
  5
A5
330
1F
100
AcDbEntity
  8
Capa 1
370
    15
100
AcDbSpline
210
0.0
220
0.0
230
1.0
 70
    24
 71
     3
 72
     8
 73
     4
 74
     0
 42
0.000000001
 43
0.0000000001
 40
0.0
 40
0.0
 40
0.0
 40
0.0
 40
1.0
 40
1.0
 40
1.0
 40
1.0
 10
180.5739
 20
152.1894
 30
0.0
 10
180.5739
 20
152.1894
 30
0.0
 10
178.0215
 20
152.1002
 30
0.0
 10
178.0215
 20
152.1002
 30
0.0
  0
SPLINE
  5
A6
330
1F
100
AcDbEntity
  8
Capa 1
370
    15
100
AcDbSpline
210
0.0
220
0.0
230
1.0
 70
    24
 71
     3
 72
     8
 73
     4
 74
     0
 42
0.000000001
 43
0.0000000001
 40
0.0
 40
0.0
 40
0.0
 40
0.0
 40
1.0
 40
1.0
 40
1.0
 40
1.0
 10
180.5739
 20
152.1894
 30
0.0
 10
180.5739
 20
152.1894
 30
0.0
 10
180.5739
 20
162.1894
 30
0.0
 10
180.5739
 20
162.1894
 30
0.0
  0
SPLINE
  5
A7
330
1F
100
AcDbEntity
  8
Capa 1
370
    15
100
AcDbSpline
210
0.0
220
0.0
230
1.0
 70
    24
 71
     3
 72
     8
 73
     4
 74
     0
 42
0.000000001
 43
0.0000000001
 40
0.0
 40
0.0
 40
0.0
 40
0.0
 40
1.0
 40
1.0
 40
1.0
 40
1.0
 10
178.0215
 20
162.2785
 30
0.0
 10
178.0215
 20
162.2785
 30
0.0
 10
180.5739
 20
162.1894
 30
0.0
 10
180.5739
 20
162.1894
 30
0.0
  0
SPLINE
  5
A8
330
1F
100
AcDbEntity
  8
Capa 1
370
    15
100
AcDbSpline
210
0.0
220
0.0
230
1.0
 70
     8
 71
     3
 72
     8
 73
     4
 74
     0
 42
0.000000001
 43
0.0000000001
 40
0.0
 40
0.0
 40
0.0
 40
0.0
 40
1.0
 40
1.0
 40
1.0
 40
1.0
 10
176.5739
 20
163.7776
 30
0.0
 10
176.5739
 20
162.9695
 30
0.0
 10
177.2139
 20
162.3067
 30
0.0
 10
178.0215
 20
162.2785
 30
0.0
  0
SPLINE
  5
A9
330
1F
100
AcDbEntity
  8
Capa 1
370
    15
100
AcDbSpline
210
0.0
220
0.0
230
1.0
 70
    24
 71
     3
 72
     8
 73
     4
 74
     0
 42
0.000000001
 43
0.0000000001
 40
0.0
 40
0.0
 40
0.0
 40
0.0
 40
1.0
 40
1.0
 40
1.0
 40
1.0
 10
176.5739
 20
163.7776
 30
0.0
 10
176.5739
 20
163.7776
 30
0.0
 10
176.5739
 20
173.4894
 30
0.0
 10
176.5739
 20
173.4894
 30
0.0
  0
SPLINE
  5
AA
330
1F
100
AcDbEntity
  8
Capa 1
370
    15
100
AcDbSpline
210
0.0
220
0.0
230
1.0
 70
     8
 71
     3
 72
     8
 73
     4
 74
     0
 42
0.000000001
 43
0.0000000001
 40
0.0
 40
0.0
 40
0.0
 40
0.0
 40
1.0
 40
1.0
 40
1.0
 40
1.0
 10
176.5739
 20
173.4894
 30
0.0
 10
176.5739
 20
173.6649
 30
0.0
 10
176.5276
 20
173.8373
 30
0.0
 10
176.4399
 20
173.9893
 30
0.0
  0
SPLINE
  5
AB
330
1F
100
AcDbEntity
  8
Capa 1
370
    15
100
AcDbSpline
210
0.0
220
0.0
230
1.0
 70
    24
 71
     3
 72
     8
 73
     4
 74
     0
 42
0.000000001
 43
0.0000000001
 40
0.0
 40
0.0
 40
0.0
 40
0.0
 40
1.0
 40
1.0
 40
1.0
 40
1.0
 10
153.317
 20
173.9894
 30
0.0
 10
153.317
 20
173.9894
 30
0.0
 10
176.4399
 20
173.9894
 30
0.0
 10
176.4399
 20
173.9894
 30
0.0
  0
SPLINE
  5
AC
330
1F
100
AcDbEntity
  8
Capa 1
370
    15
100
AcDbSpline
210
0.0
220
0.0
230
1.0
 70
     8
 71
     3
 72
     8
 73
     4
 74
     0
 42
0.000000001
 43
0.0000000001
 40
0.0
 40
0.0
 40
0.0
 40
0.0
 40
1.0
 40
1.0
 40
1.0
 40
1.0
 10
146.6778
 20
176.913
 30
0.0
 10
148.3827
 20
175.0502
 30
0.0
 10
150.7918
 20
173.9894
 30
0.0
 10
153.317
 20
173.9894
 30
0.0
  0
SPLINE
  5
AD
330
1F
100
AcDbEntity
  8
Capa 1
370
    15
100
AcDbSpline
210
0.0
220
0.0
230
1.0
 70
    24
 71
     3
 72
     8
 73
     4
 74
     0
 42
0.000000001
 43
0.0000000001
 40
0.0
 40
0.0
 40
0.0
 40
0.0
 40
1.0
 40
1.0
 40
1.0
 40
1.0
 10
142.5799
 20
181.3905
 30
0.0
 10
142.5799
 20
181.3905
 30
0.0
 10
146.6778
 20
176.913
 30
0.0
 10
146.6778
 20
176.913
 30
0.0
  0
SPLINE
  5
AE
330
1F
100
AcDbEntity
  8
Capa 1
370
    15
100
AcDbSpline
210
0.0
220
0.0
230
1.0
 70
     8
 71
     3
 72
     8
 73
     4
 74
     0
 42
0.000000001
 43
0.0000000001
 40
0.0
 40
0.0
 40
0.0
 40
0.0
 40
1.0
 40
1.0
 40
1.0
 40
1.0
 10
142.5799
 20
181.3905
 30
0.0
 10
141.0645
 20
183.0463
 30
0.0
 10
138.9231
 20
183.9893
 30
0.0
 10
136.6785
 20
183.9893
 30
0.0
  0
SPLINE
  5
AF
330
1F
100
AcDbEntity
  8
Capa 1
370
    15
100
AcDbSpline
210
0.0
220
0.0
230
1.0
 70
     8
 71
     3
 72
     8
 73
     4
 74
     0
 42
0.000000001
 43
0.0000000001
 40
0.0
 40
0.0
 40
0.0
 40
0.0
 40
1.0
 40
1.0
 40
1.0
 40
1.0
 10
-139.7305
 20
183.9893
 30
0.0
 10
-141.9751
 20
183.9893
 30
0.0
 10
-144.1165
 20
183.0463
 30
0.0
 10
-145.6319
 20
181.3905
 30
0.0
  0
SPLINE
  5
B0
330
1F
100
AcDbEntity
  8
Capa 1
370
    15
100
AcDbSpline
210
0.0
220
0.0
230
1.0
 70
    24
 71
     3
 72
     8
 73
     4
 74
     0
 42
0.000000001
 43
0.0000000001
 40
0.0
 40
0.0
 40
0.0
 40
0.0
 40
1.0
 40
1.0
 40
1.0
 40
1.0
 10
-149.7298
 20
176.913
 30
0.0
 10
-149.7298
 20
176.913
 30
0.0
 10
-145.6319
 20
181.3905
 30
0.0
 10
-145.6319
 20
181.3905
 30
0.0
  0
SPLINE
  5
B1
330
1F
100
AcDbEntity
  8
Capa 1
370
    15
100
AcDbSpline
210
0.0
220
0.0
230
1.0
 70
     8
 71
     3
 72
     8
 73
     4
 74
     0
 42
0.000000001
 43
0.0000000001
 40
0.0
 40
0.0
 40
0.0
 40
0.0
 40
1.0
 40
1.0
 40
1.0
 40
1.0
 10
-156.369
 20
173.9894
 30
0.0
 10
-153.8438
 20
173.9894
 30
0.0
 10
-151.4347
 20
175.0502
 30
0.0
 10
-149.7298
 20
176.913
 30
0.0
  0
SPLINE
  5
B2
330
1F
100
AcDbEntity
  8
Capa 1
370
    15
100
AcDbSpline
210
0.0
220
0.0
230
1.0
 70
    24
 71
     3
 72
     8
 73
     4
 74
     0
 42
0.000000001
 43
0.0000000001
 40
0.0
 40
0.0
 40
0.0
 40
0.0
 40
1.0
 40
1.0
 40
1.0
 40
1.0
 10
-179.4919
 20
173.9894
 30
0.0
 10
-179.4919
 20
173.9894
 30
0.0
 10
-156.369
 20
173.9894
 30
0.0
 10
-156.369
 20
173.9894
 30
0.0
  0
SPLINE
  5
B3
330
1F
100
AcDbEntity
  8
Capa 1
370
    15
100
AcDbSpline
210
0.0
220
0.0
230
1.0
 70
     8
 71
     3
 72
     8
 73
     4
 74
     0
 42
0.000000001
 43
0.0000000001
 40
0.0
 40
0.0
 40
0.0
 40
0.0
 40
1.0
 40
1.0
 40
1.0
 40
1.0
 10
-179.4919
 20
173.9893
 30
0.0
 10
-179.5796
 20
173.8373
 30
0.0
 10
-179.6259
 20
173.6649
 30
0.0
 10
-179.6259
 20
173.4894
 30
0.0
  0
SPLINE
  5
B4
330
1F
100
AcDbEntity
  8
Capa 1
370
    15
100
AcDbSpline
210
0.0
220
0.0
230
1.0
 70
    24
 71
     3
 72
     8
 73
     4
 74
     0
 42
0.000000001
 43
0.0000000001
 40
0.0
 40
0.0
 40
0.0
 40
0.0
 40
1.0
 40
1.0
 40
1.0
 40
1.0
 10
-179.6259
 20
173.4894
 30
0.0
 10
-179.6259
 20
173.4894
 30
0.0
 10
-179.6259
 20
163.7776
 30
0.0
 10
-179.6259
 20
163.7776
 30
0.0
  0
SPLINE
  5
B5
330
1F
100
AcDbEntity
  8
Capa 1
370
    15
100
AcDbSpline
210
0.0
220
0.0
230
1.0
 70
     8
 71
     3
 72
     8
 73
     4
 74
     0
 42
0.000000001
 43
0.0000000001
 40
0.0
 40
0.0
 40
0.0
 40
0.0
 40
1.0
 40
1.0
 40
1.0
 40
1.0
 10
-181.0735
 20
162.2785
 30
0.0
 10
-180.2659
 20
162.3067
 30
0.0
 10
-179.6259
 20
162.9695
 30
0.0
 10
-179.6259
 20
163.7776
 30
0.0
  0
SPLINE
  5
B6
330
1F
100
AcDbEntity
  8
Capa 1
370
    15
100
AcDbSpline
210
0.0
220
0.0
230
1.0
 70
    24
 71
     3
 72
     8
 73
     4
 74
     0
 42
0.000000001
 43
0.0000000001
 40
0.0
 40
0.0
 40
0.0
 40
0.0
 40
1.0
 40
1.0
 40
1.0
 40
1.0
 10
-183.6259
 20
162.1894
 30
0.0
 10
-183.6259
 20
162.1894
 30
0.0
 10
-181.0735
 20
162.2785
 30
0.0
 10
-181.0735
 20
162.2785
 30
0.0
  0
SPLINE
  5
B7
330
1F
100
AcDbEntity
  8
Capa 1
370
    15
100
AcDbSpline
210
0.0
220
0.0
230
1.0
 70
    24
 71
     3
 72
     8
 73
     4
 74
     0
 42
0.000000001
 43
0.0000000001
 40
0.0
 40
0.0
 40
0.0
 40
0.0
 40
1.0
 40
1.0
 40
1.0
 40
1.0
 10
-183.6259
 20
162.1894
 30
0.0
 10
-183.6259
 20
162.1894
 30
0.0
 10
-183.6259
 20
152.1894
 30
0.0
 10
-183.6259
 20
152.1894
 30
0.0
  0
SPLINE
  5
B8
330
1F
100
AcDbEntity
  8
Capa 1
370
    15
100
AcDbSpline
210
0.0
220
0.0
230
1.0
 70
    24
 71
     3
 72
     8
 73
     4
 74
     0
 42
0.000000001
 43
0.0000000001
 40
0.0
 40
0.0
 40
0.0
 40
0.0
 40
1.0
 40
1.0
 40
1.0
 40
1.0
 10
-181.0735
 20
152.1002
 30
0.0
 10
-181.0735
 20
152.1002
 30
0.0
 10
-183.6259
 20
152.1894
 30
0.0
 10
-183.6259
 20
152.1894
 30
0.0
  0
SPLINE
  5
B9
330
1F
100
AcDbEntity
  8
Capa 1
370
    15
100
AcDbSpline
210
0.0
220
0.0
230
1.0
 70
     8
 71
     3
 72
     8
 73
     4
 74
     0
 42
0.000000001
 43
0.0000000001
 40
0.0
 40
0.0
 40
0.0
 40
0.0
 40
1.0
 40
1.0
 40
1.0
 40
1.0
 10
-179.6259
 20
150.6011
 30
0.0
 10
-179.6259
 20
151.4092
 30
0.0
 10
-180.2659
 20
152.072
 30
0.0
 10
-181.0735
 20
152.1002
 30
0.0
  0
SPLINE
  5
BA
330
1F
100
AcDbEntity
  8
Capa 1
370
    15
100
AcDbSpline
210
0.0
220
0.0
230
1.0
 70
    24
 71
     3
 72
     8
 73
     4
 74
     0
 42
0.000000001
 43
0.0000000001
 40
0.0
 40
0.0
 40
0.0
 40
0.0
 40
1.0
 40
1.0
 40
1.0
 40
1.0
 10
-179.6259
 20
150.6011
 30
0.0
 10
-179.6259
 20
150.6011
 30
0.0
 10
-179.6259
 20
133.6894
 30
0.0
 10
-179.6259
 20
133.6894
 30
0.0
  0
SPLINE
  5
BB
330
1F
100
AcDbEntity
  8
Capa 1
370
    15
100
AcDbSpline
210
0.0
220
0.0
230
1.0
 70
    24
 71
     3
 72
     8
 73
     4
 74
     0
 42
0.000000001
 43
0.0000000001
 40
0.0
 40
0.0
 40
0.0
 40
0.0
 40
1.0
 40
1.0
 40
1.0
 40
1.0
 10
-173.3049
 20
133.6894
 30
0.0
 10
-173.3049
 20
133.6894
 30
0.0
 10
-179.2845
 20
133.6894
 30
0.0
 10
-179.2845
 20
133.6894
 30
0.0
  0
SPLINE
  5
BC
330
1F
100
AcDbEntity
  8
Capa 1
370
    15
100
AcDbSpline
210
0.0
220
0.0
230
1.0
 70
     8
 71
     3
 72
     8
 73
     4
 74
     0
 42
0.000000001
 43
0.0000000001
 40
0.0
 40
0.0
 40
0.0
 40
0.0
 40
1.0
 40
1.0
 40
1.0
 40
1.0
 10
-171.8259
 20
134.9393
 30
0.0
 10
-172.5578
 20
134.9393
 30
0.0
 10
-173.1829
 20
134.4111
 30
0.0
 10
-173.3049
 20
133.6894
 30
0.0
  0
SPLINE
  5
BD
330
1F
100
AcDbEntity
  8
Capa 1
370
    15
100
AcDbSpline
210
0.0
220
0.0
230
1.0
 70
    24
 71
     3
 72
     8
 73
     4
 74
     0
 42
0.000000001
 43
0.0000000001
 40
0.0
 40
0.0
 40
0.0
 40
0.0
 40
1.0
 40
1.0
 40
1.0
 40
1.0
 10
-171.8259
 20
134.9394
 30
0.0
 10
-171.8259
 20
134.9394
 30
0.0
 10
-170.4259
 20
134.9394
 30
0.0
 10
-170.4259
 20
134.9394
 30
0.0
  0
SPLINE
  5
BE
330
1F
100
AcDbEntity
  8
Capa 1
370
    15
100
AcDbSpline
210
0.0
220
0.0
230
1.0
 70
     8
 71
     3
 72
     8
 73
     4
 74
     0
 42
0.000000001
 43
0.0000000001
 40
0.0
 40
0.0
 40
0.0
 40
0.0
 40
1.0
 40
1.0
 40
1.0
 40
1.0
 10
-168.9468
 20
133.6894
 30
0.0
 10
-169.0688
 20
134.4111
 30
0.0
 10
-169.6939
 20
134.9393
 30
0.0
 10
-170.4259
 20
134.9393
 30
0.0
  0
SPLINE
  5
BF
330
1F
100
AcDbEntity
  8
Capa 1
370
    15
100
AcDbSpline
210
0.0
220
0.0
230
1.0
 70
    24
 71
     3
 72
     8
 73
     4
 74
     0
 42
0.000000001
 43
0.0000000001
 40
0.0
 40
0.0
 40
0.0
 40
0.0
 40
1.0
 40
1.0
 40
1.0
 40
1.0
 10
-168.9468
 20
133.6894
 30
0.0
 10
-168.9468
 20
133.6894
 30
0.0
 10
-168.9468
 20
133.5269
 30
0.0
 10
-168.9468
 20
133.5269
 30
0.0
  0
SPLINE
  5
C0
330
1F
100
AcDbEntity
  8
Capa 1
370
    15
100
AcDbSpline
210
0.0
220
0.0
230
1.0
 70
     8
 71
     3
 72
    12
 73
     8
 74
     0
 42
0.000000001
 43
0.0000000001
 40
0.0
 40
0.0
 40
0.0
 40
0.0
 40
0.3333333333333333
 40
0.3333333333333333
 40
0.3333333333333333
 40
0.3333333333333333
 40
1.0
 40
1.0
 40
1.0
 40
1.0
 10
-168.9468
 20
130.8518
 30
0.0
 10
-168.4432
 20
131.1075
 30
0.0
 10
-168.1259
 20
131.6245
 30
0.0
 10
-168.1259
 20
132.1893
 30
0.0
 10
-168.1259
 20
132.1893
 30
0.0
 10
-168.1258
 20
132.7542
 30
0.0
 10
-168.4432
 20
133.2712
 30
0.0
 10
-168.9468
 20
133.5269
 30
0.0
  0
SPLINE
  5
C1
330
1F
100
AcDbEntity
  8
Capa 1
370
    15
100
AcDbSpline
210
0.0
220
0.0
230
1.0
 70
    24
 71
     3
 72
     8
 73
     4
 74
     0
 42
0.000000001
 43
0.0000000001
 40
0.0
 40
0.0
 40
0.0
 40
0.0
 40
1.0
 40
1.0
 40
1.0
 40
1.0
 10
-168.9468
 20
130.8518
 30
0.0
 10
-168.9468
 20
130.8518
 30
0.0
 10
-168.9468
 20
130.6894
 30
0.0
 10
-168.9468
 20
130.6894
 30
0.0
  0
SPLINE
  5
C2
330
1F
100
AcDbEntity
  8
Capa 1
370
    15
100
AcDbSpline
210
0.0
220
0.0
230
1.0
 70
     8
 71
     3
 72
     8
 73
     4
 74
     0
 42
0.000000001
 43
0.0000000001
 40
0.0
 40
0.0
 40
0.0
 40
0.0
 40
1.0
 40
1.0
 40
1.0
 40
1.0
 10
-170.4259
 20
129.4394
 30
0.0
 10
-169.6939
 20
129.4394
 30
0.0
 10
-169.0688
 20
129.9676
 30
0.0
 10
-168.9468
 20
130.6893
 30
0.0
  0
SPLINE
  5
C3
330
1F
100
AcDbEntity
  8
Capa 1
370
    15
100
AcDbSpline
210
0.0
220
0.0
230
1.0
 70
    24
 71
     3
 72
     8
 73
     4
 74
     0
 42
0.000000001
 43
0.0000000001
 40
0.0
 40
0.0
 40
0.0
 40
0.0
 40
1.0
 40
1.0
 40
1.0
 40
1.0
 10
-170.4259
 20
129.4394
 30
0.0
 10
-170.4259
 20
129.4394
 30
0.0
 10
-171.8259
 20
129.4394
 30
0.0
 10
-171.8259
 20
129.4394
 30
0.0
  0
SPLINE
  5
C4
330
1F
100
AcDbEntity
  8
Capa 1
370
    15
100
AcDbSpline
210
0.0
220
0.0
230
1.0
 70
     8
 71
     3
 72
     8
 73
     4
 74
     0
 42
0.000000001
 43
0.0000000001
 40
0.0
 40
0.0
 40
0.0
 40
0.0
 40
1.0
 40
1.0
 40
1.0
 40
1.0
 10
-173.3049
 20
130.6893
 30
0.0
 10
-173.1829
 20
129.9676
 30
0.0
 10
-172.5578
 20
129.4394
 30
0.0
 10
-171.8259
 20
129.4394
 30
0.0
  0
SPLINE
  5
C5
330
1F
100
AcDbEntity
  8
Capa 1
370
    15
100
AcDbSpline
210
0.0
220
0.0
230
1.0
 70
    24
 71
     3
 72
     8
 73
     4
 74
     0
 42
0.000000001
 43
0.0000000001
 40
0.0
 40
0.0
 40
0.0
 40
0.0
 40
1.0
 40
1.0
 40
1.0
 40
1.0
 10
-179.2845
 20
130.6894
 30
0.0
 10
-179.2845
 20
130.6894
 30
0.0
 10
-173.3049
 20
130.6894
 30
0.0
 10
-173.3049
 20
130.6894
 30
0.0
  0
SPLINE
  5
C6
330
1F
100
AcDbEntity
  8
Capa 1
370
    15
100
AcDbSpline
210
0.0
220
0.0
230
1.0
 70
    24
 71
     3
 72
     8
 73
     4
 74
     0
 42
0.000000001
 43
0.0000000001
 40
0.0
 40
0.0
 40
0.0
 40
0.0
 40
1.0
 40
1.0
 40
1.0
 40
1.0
 10
-179.6259
 20
130.6894
 30
0.0
 10
-179.6259
 20
130.6894
 30
0.0
 10
-179.6259
 20
113.7776
 30
0.0
 10
-179.6259
 20
113.7776
 30
0.0
  0
SPLINE
  5
C7
330
1F
100
AcDbEntity
  8
Capa 1
370
    15
100
AcDbSpline
210
0.0
220
0.0
230
1.0
 70
     8
 71
     3
 72
     8
 73
     4
 74
     0
 42
0.000000001
 43
0.0000000001
 40
0.0
 40
0.0
 40
0.0
 40
0.0
 40
1.0
 40
1.0
 40
1.0
 40
1.0
 10
-181.0735
 20
112.2785
 30
0.0
 10
-180.2659
 20
112.3067
 30
0.0
 10
-179.6259
 20
112.9695
 30
0.0
 10
-179.6259
 20
113.7776
 30
0.0
  0
SPLINE
  5
C8
330
1F
100
AcDbEntity
  8
Capa 1
370
    15
100
AcDbSpline
210
0.0
220
0.0
230
1.0
 70
    24
 71
     3
 72
     8
 73
     4
 74
     0
 42
0.000000001
 43
0.0000000001
 40
0.0
 40
0.0
 40
0.0
 40
0.0
 40
1.0
 40
1.0
 40
1.0
 40
1.0
 10
-183.6259
 20
112.1894
 30
0.0
 10
-183.6259
 20
112.1894
 30
0.0
 10
-181.0735
 20
112.2785
 30
0.0
 10
-181.0735
 20
112.2785
 30
0.0
  0
SPLINE
  5
C9
330
1F
100
AcDbEntity
  8
Capa 1
370
    15
100
AcDbSpline
210
0.0
220
0.0
230
1.0
 70
    24
 71
     3
 72
     8
 73
     4
 74
     0
 42
0.000000001
 43
0.0000000001
 40
0.0
 40
0.0
 40
0.0
 40
0.0
 40
1.0
 40
1.0
 40
1.0
 40
1.0
 10
-183.6259
 20
112.1894
 30
0.0
 10
-183.6259
 20
112.1894
 30
0.0
 10
-183.6259
 20
102.1894
 30
0.0
 10
-183.6259
 20
102.1894
 30
0.0
  0
SPLINE
  5
CA
330
1F
100
AcDbEntity
  8
Capa 1
370
    15
100
AcDbSpline
210
0.0
220
0.0
230
1.0
 70
    24
 71
     3
 72
     8
 73
     4
 74
     0
 42
0.000000001
 43
0.0000000001
 40
0.0
 40
0.0
 40
0.0
 40
0.0
 40
1.0
 40
1.0
 40
1.0
 40
1.0
 10
-181.0735
 20
102.1002
 30
0.0
 10
-181.0735
 20
102.1002
 30
0.0
 10
-183.6259
 20
102.1894
 30
0.0
 10
-183.6259
 20
102.1894
 30
0.0
  0
SPLINE
  5
CB
330
1F
100
AcDbEntity
  8
Capa 1
370
    15
100
AcDbSpline
210
0.0
220
0.0
230
1.0
 70
     8
 71
     3
 72
     8
 73
     4
 74
     0
 42
0.000000001
 43
0.0000000001
 40
0.0
 40
0.0
 40
0.0
 40
0.0
 40
1.0
 40
1.0
 40
1.0
 40
1.0
 10
-179.6258
 20
100.6011
 30
0.0
 10
-179.6258
 20
101.4092
 30
0.0
 10
-180.2659
 20
102.072
 30
0.0
 10
-181.0735
 20
102.1002
 30
0.0
  0
SPLINE
  5
CC
330
1F
100
AcDbEntity
  8
Capa 1
370
    15
100
AcDbSpline
210
0.0
220
0.0
230
1.0
 70
    24
 71
     3
 72
     8
 73
     4
 74
     0
 42
0.000000001
 43
0.0000000001
 40
0.0
 40
0.0
 40
0.0
 40
0.0
 40
1.0
 40
1.0
 40
1.0
 40
1.0
 10
-179.6259
 20
100.6011
 30
0.0
 10
-179.6259
 20
100.6011
 30
0.0
 10
-179.6259
 20
29.5776
 30
0.0
 10
-179.6259
 20
29.5776
 30
0.0
  0
SPLINE
  5
CD
330
1F
100
AcDbEntity
  8
Capa 1
370
    15
100
AcDbSpline
210
0.0
220
0.0
230
1.0
 70
     8
 71
     3
 72
     8
 73
     4
 74
     0
 42
0.000000001
 43
0.0000000001
 40
0.0
 40
0.0
 40
0.0
 40
0.0
 40
1.0
 40
1.0
 40
1.0
 40
1.0
 10
-181.0735
 20
28.0785
 30
0.0
 10
-180.2659
 20
28.1067
 30
0.0
 10
-179.6259
 20
28.7695
 30
0.0
 10
-179.6259
 20
29.5776
 30
0.0
  0
SPLINE
  5
CE
330
1F
100
AcDbEntity
  8
Capa 1
370
    15
100
AcDbSpline
210
0.0
220
0.0
230
1.0
 70
    24
 71
     3
 72
     8
 73
     4
 74
     0
 42
0.000000001
 43
0.0000000001
 40
0.0
 40
0.0
 40
0.0
 40
0.0
 40
1.0
 40
1.0
 40
1.0
 40
1.0
 10
-183.6259
 20
27.9894
 30
0.0
 10
-183.6259
 20
27.9894
 30
0.0
 10
-181.0735
 20
28.0785
 30
0.0
 10
-181.0735
 20
28.0785
 30
0.0
  0
SPLINE
  5
CF
330
1F
100
AcDbEntity
  8
Capa 1
370
    15
100
AcDbSpline
210
0.0
220
0.0
230
1.0
 70
    24
 71
     3
 72
     8
 73
     4
 74
     0
 42
0.000000001
 43
0.0000000001
 40
0.0
 40
0.0
 40
0.0
 40
0.0
 40
1.0
 40
1.0
 40
1.0
 40
1.0
 10
-183.6259
 20
27.9894
 30
0.0
 10
-183.6259
 20
27.9894
 30
0.0
 10
-183.6259
 20
17.9894
 30
0.0
 10
-183.6259
 20
17.9894
 30
0.0
  0
SPLINE
  5
D0
330
1F
100
AcDbEntity
  8
Capa 1
370
    15
100
AcDbSpline
210
0.0
220
0.0
230
1.0
 70
    24
 71
     3
 72
     8
 73
     4
 74
     0
 42
0.000000001
 43
0.0000000001
 40
0.0
 40
0.0
 40
0.0
 40
0.0
 40
1.0
 40
1.0
 40
1.0
 40
1.0
 10
-181.0735
 20
17.9002
 30
0.0
 10
-181.0735
 20
17.9002
 30
0.0
 10
-183.6259
 20
17.9894
 30
0.0
 10
-183.6259
 20
17.9894
 30
0.0
  0
SPLINE
  5
D1
330
1F
100
AcDbEntity
  8
Capa 1
370
    15
100
AcDbSpline
210
0.0
220
0.0
230
1.0
 70
     8
 71
     3
 72
     8
 73
     4
 74
     0
 42
0.000000001
 43
0.0000000001
 40
0.0
 40
0.0
 40
0.0
 40
0.0
 40
1.0
 40
1.0
 40
1.0
 40
1.0
 10
-179.6259
 20
16.4011
 30
0.0
 10
-179.6259
 20
17.2092
 30
0.0
 10
-180.2659
 20
17.872
 30
0.0
 10
-181.0735
 20
17.9002
 30
0.0
  0
SPLINE
  5
D2
330
1F
100
AcDbEntity
  8
Capa 1
370
    15
100
AcDbSpline
210
0.0
220
0.0
230
1.0
 70
    24
 71
     3
 72
     8
 73
     4
 74
     0
 42
0.000000001
 43
0.0000000001
 40
0.0
 40
0.0
 40
0.0
 40
0.0
 40
1.0
 40
1.0
 40
1.0
 40
1.0
 10
-179.6259
 20
16.4011
 30
0.0
 10
-179.6259
 20
16.4011
 30
0.0
 10
-179.6259
 20
-0.4106
 30
0.0
 10
-179.6259
 20
-0.4106
 30
0.0
  0
SPLINE
  5
D3
330
1F
100
AcDbEntity
  8
Capa 1
370
    15
100
AcDbSpline
210
0.0
220
0.0
230
1.0
 70
    24
 71
     3
 72
     8
 73
     4
 74
     0
 42
0.000000001
 43
0.0000000001
 40
0.0
 40
0.0
 40
0.0
 40
0.0
 40
1.0
 40
1.0
 40
1.0
 40
1.0
 10
-173.3053
 20
-0.4106
 30
0.0
 10
-173.3053
 20
-0.4106
 30
0.0
 10
-179.2112
 20
-0.4106
 30
0.0
 10
-179.2112
 20
-0.4106
 30
0.0
  0
SPLINE
  5
D4
330
1F
100
AcDbEntity
  8
Capa 1
370
    15
100
AcDbSpline
210
0.0
220
0.0
230
1.0
 70
     8
 71
     3
 72
     8
 73
     4
 74
     0
 42
0.000000001
 43
0.0000000001
 40
0.0
 40
0.0
 40
0.0
 40
0.0
 40
1.0
 40
1.0
 40
1.0
 40
1.0
 10
-171.8263
 20
0.8393
 30
0.0
 10
-172.5582
 20
0.8393
 30
0.0
 10
-173.1833
 20
0.3111
 30
0.0
 10
-173.3053
 20
-0.4106
 30
0.0
  0
SPLINE
  5
D5
330
1F
100
AcDbEntity
  8
Capa 1
370
    15
100
AcDbSpline
210
0.0
220
0.0
230
1.0
 70
    24
 71
     3
 72
     8
 73
     4
 74
     0
 42
0.000000001
 43
0.0000000001
 40
0.0
 40
0.0
 40
0.0
 40
0.0
 40
1.0
 40
1.0
 40
1.0
 40
1.0
 10
-171.8263
 20
0.8394
 30
0.0
 10
-171.8263
 20
0.8394
 30
0.0
 10
-170.4263
 20
0.8394
 30
0.0
 10
-170.4263
 20
0.8394
 30
0.0
  0
SPLINE
  5
D6
330
1F
100
AcDbEntity
  8
Capa 1
370
    15
100
AcDbSpline
210
0.0
220
0.0
230
1.0
 70
     8
 71
     3
 72
     8
 73
     4
 74
     0
 42
0.000000001
 43
0.0000000001
 40
0.0
 40
0.0
 40
0.0
 40
0.0
 40
1.0
 40
1.0
 40
1.0
 40
1.0
 10
-168.9473
 20
-0.4106
 30
0.0
 10
-169.0693
 20
0.3111
 30
0.0
 10
-169.6943
 20
0.8393
 30
0.0
 10
-170.4263
 20
0.8393
 30
0.0
  0
SPLINE
  5
D7
330
1F
100
AcDbEntity
  8
Capa 1
370
    15
100
AcDbSpline
210
0.0
220
0.0
230
1.0
 70
    24
 71
     3
 72
     8
 73
     4
 74
     0
 42
0.000000001
 43
0.0000000001
 40
0.0
 40
0.0
 40
0.0
 40
0.0
 40
1.0
 40
1.0
 40
1.0
 40
1.0
 10
-168.9473
 20
-0.4106
 30
0.0
 10
-168.9473
 20
-0.4106
 30
0.0
 10
-168.9473
 20
-0.5731
 30
0.0
 10
-168.9473
 20
-0.5731
 30
0.0
  0
SPLINE
  5
D8
330
1F
100
AcDbEntity
  8
Capa 1
370
    15
100
AcDbSpline
210
0.0
220
0.0
230
1.0
 70
     8
 71
     3
 72
    12
 73
     8
 74
     0
 42
0.000000001
 43
0.0000000001
 40
0.0
 40
0.0
 40
0.0
 40
0.0
 40
0.3333333333333333
 40
0.3333333333333333
 40
0.3333333333333333
 40
0.3333333333333333
 40
1.0
 40
1.0
 40
1.0
 40
1.0
 10
-168.9473
 20
-3.2482
 30
0.0
 10
-168.4436
 20
-2.9925
 30
0.0
 10
-168.1263
 20
-2.4755
 30
0.0
 10
-168.1263
 20
-1.9107
 30
0.0
 10
-168.1263
 20
-1.9107
 30
0.0
 10
-168.1263
 20
-1.3458
 30
0.0
 10
-168.4436
 20
-0.8288
 30
0.0
 10
-168.9473
 20
-0.5731
 30
0.0
  0
SPLINE
  5
D9
330
1F
100
AcDbEntity
  8
Capa 1
370
    15
100
AcDbSpline
210
0.0
220
0.0
230
1.0
 70
    24
 71
     3
 72
     8
 73
     4
 74
     0
 42
0.000000001
 43
0.0000000001
 40
0.0
 40
0.0
 40
0.0
 40
0.0
 40
1.0
 40
1.0
 40
1.0
 40
1.0
 10
-168.9473
 20
-3.2482
 30
0.0
 10
-168.9473
 20
-3.2482
 30
0.0
 10
-168.9473
 20
-3.4106
 30
0.0
 10
-168.9473
 20
-3.4106
 30
0.0
  0
SPLINE
  5
DA
330
1F
100
AcDbEntity
  8
Capa 1
370
    15
100
AcDbSpline
210
0.0
220
0.0
230
1.0
 70
     8
 71
     3
 72
     8
 73
     4
 74
     0
 42
0.000000001
 43
0.0000000001
 40
0.0
 40
0.0
 40
0.0
 40
0.0
 40
1.0
 40
1.0
 40
1.0
 40
1.0
 10
-170.4263
 20
-4.6606
 30
0.0
 10
-169.6943
 20
-4.6606
 30
0.0
 10
-169.0693
 20
-4.1324
 30
0.0
 10
-168.9473
 20
-3.4107
 30
0.0
  0
SPLINE
  5
DB
330
1F
100
AcDbEntity
  8
Capa 1
370
    15
100
AcDbSpline
210
0.0
220
0.0
230
1.0
 70
    24
 71
     3
 72
     8
 73
     4
 74
     0
 42
0.000000001
 43
0.0000000001
 40
0.0
 40
0.0
 40
0.0
 40
0.0
 40
1.0
 40
1.0
 40
1.0
 40
1.0
 10
-170.4263
 20
-4.6606
 30
0.0
 10
-170.4263
 20
-4.6606
 30
0.0
 10
-171.8263
 20
-4.6606
 30
0.0
 10
-171.8263
 20
-4.6606
 30
0.0
  0
SPLINE
  5
DC
330
1F
100
AcDbEntity
  8
Capa 1
370
    15
100
AcDbSpline
210
0.0
220
0.0
230
1.0
 70
     8
 71
     3
 72
     8
 73
     4
 74
     0
 42
0.000000001
 43
0.0000000001
 40
0.0
 40
0.0
 40
0.0
 40
0.0
 40
1.0
 40
1.0
 40
1.0
 40
1.0
 10
-173.3053
 20
-3.4107
 30
0.0
 10
-173.1833
 20
-4.1324
 30
0.0
 10
-172.5582
 20
-4.6606
 30
0.0
 10
-171.8263
 20
-4.6606
 30
0.0
  0
SPLINE
  5
DD
330
1F
100
AcDbEntity
  8
Capa 1
370
    15
100
AcDbSpline
210
0.0
220
0.0
230
1.0
 70
    24
 71
     3
 72
     8
 73
     4
 74
     0
 42
0.000000001
 43
0.0000000001
 40
0.0
 40
0.0
 40
0.0
 40
0.0
 40
1.0
 40
1.0
 40
1.0
 40
1.0
 10
-179.1979
 20
-3.4106
 30
0.0
 10
-179.1979
 20
-3.4106
 30
0.0
 10
-173.3053
 20
-3.4106
 30
0.0
 10
-173.3053
 20
-3.4106
 30
0.0
  0
SPLINE
  5
DE
330
1F
100
AcDbEntity
  8
Capa 1
370
    15
100
AcDbSpline
210
0.0
220
0.0
230
1.0
 70
    24
 71
     3
 72
     8
 73
     4
 74
     0
 42
0.000000001
 43
0.0000000001
 40
0.0
 40
0.0
 40
0.0
 40
0.0
 40
1.0
 40
1.0
 40
1.0
 40
1.0
 10
-179.6259
 20
-3.4106
 30
0.0
 10
-179.6259
 20
-3.4106
 30
0.0
 10
-179.6259
 20
-20.4223
 30
0.0
 10
-179.6259
 20
-20.4223
 30
0.0
  0
SPLINE
  5
DF
330
1F
100
AcDbEntity
  8
Capa 1
370
    15
100
AcDbSpline
210
0.0
220
0.0
230
1.0
 70
     8
 71
     3
 72
     8
 73
     4
 74
     0
 42
0.000000001
 43
0.0000000001
 40
0.0
 40
0.0
 40
0.0
 40
0.0
 40
1.0
 40
1.0
 40
1.0
 40
1.0
 10
-181.0735
 20
-21.9214
 30
0.0
 10
-180.2659
 20
-21.8932
 30
0.0
 10
-179.6259
 20
-21.2304
 30
0.0
 10
-179.6259
 20
-20.4223
 30
0.0
  0
SPLINE
  5
E0
330
1F
100
AcDbEntity
  8
Capa 1
370
    15
100
AcDbSpline
210
0.0
220
0.0
230
1.0
 70
    24
 71
     3
 72
     8
 73
     4
 74
     0
 42
0.000000001
 43
0.0000000001
 40
0.0
 40
0.0
 40
0.0
 40
0.0
 40
1.0
 40
1.0
 40
1.0
 40
1.0
 10
-183.6259
 20
-22.0106
 30
0.0
 10
-183.6259
 20
-22.0106
 30
0.0
 10
-181.0735
 20
-21.9214
 30
0.0
 10
-181.0735
 20
-21.9214
 30
0.0
  0
SPLINE
  5
E1
330
1F
100
AcDbEntity
  8
Capa 1
370
    15
100
AcDbSpline
210
0.0
220
0.0
230
1.0
 70
    24
 71
     3
 72
     8
 73
     4
 74
     0
 42
0.000000001
 43
0.0000000001
 40
0.0
 40
0.0
 40
0.0
 40
0.0
 40
1.0
 40
1.0
 40
1.0
 40
1.0
 10
-183.6259
 20
-22.0106
 30
0.0
 10
-183.6259
 20
-22.0106
 30
0.0
 10
-183.6259
 20
-32.0106
 30
0.0
 10
-183.6259
 20
-32.0106
 30
0.0
  0
SPLINE
  5
E2
330
1F
100
AcDbEntity
  8
Capa 1
370
    15
100
AcDbSpline
210
0.0
220
0.0
230
1.0
 70
    24
 71
     3
 72
     8
 73
     4
 74
     0
 42
0.000000001
 43
0.0000000001
 40
0.0
 40
0.0
 40
0.0
 40
0.0
 40
1.0
 40
1.0
 40
1.0
 40
1.0
 10
-181.0735
 20
-32.0997
 30
0.0
 10
-181.0735
 20
-32.0997
 30
0.0
 10
-183.6259
 20
-32.0106
 30
0.0
 10
-183.6259
 20
-32.0106
 30
0.0
  0
SPLINE
  5
E3
330
1F
100
AcDbEntity
  8
Capa 1
370
    15
100
AcDbSpline
210
0.0
220
0.0
230
1.0
 70
     8
 71
     3
 72
     8
 73
     4
 74
     0
 42
0.000000001
 43
0.0000000001
 40
0.0
 40
0.0
 40
0.0
 40
0.0
 40
1.0
 40
1.0
 40
1.0
 40
1.0
 10
-179.6258
 20
-33.5988
 30
0.0
 10
-179.6258
 20
-32.7907
 30
0.0
 10
-180.2659
 20
-32.1279
 30
0.0
 10
-181.0735
 20
-32.0997
 30
0.0
  0
SPLINE
  5
E4
330
1F
100
AcDbEntity
  8
Capa 1
370
    15
100
AcDbSpline
210
0.0
220
0.0
230
1.0
 70
    24
 71
     3
 72
     8
 73
     4
 74
     0
 42
0.000000001
 43
0.0000000001
 40
0.0
 40
0.0
 40
0.0
 40
0.0
 40
1.0
 40
1.0
 40
1.0
 40
1.0
 10
-179.6259
 20
-33.5988
 30
0.0
 10
-179.6259
 20
-33.5988
 30
0.0
 10
-179.6259
 20
-102.1223
 30
0.0
 10
-179.6259
 20
-102.1223
 30
0.0
  0
SPLINE
  5
E5
330
1F
100
AcDbEntity
  8
Capa 1
370
    15
100
AcDbSpline
210
0.0
220
0.0
230
1.0
 70
     8
 71
     3
 72
     8
 73
     4
 74
     0
 42
0.000000001
 43
0.0000000001
 40
0.0
 40
0.0
 40
0.0
 40
0.0
 40
1.0
 40
1.0
 40
1.0
 40
1.0
 10
-181.0735
 20
-103.6214
 30
0.0
 10
-180.2659
 20
-103.5932
 30
0.0
 10
-179.6259
 20
-102.9304
 30
0.0
 10
-179.6259
 20
-102.1223
 30
0.0
  0
SPLINE
  5
E6
330
1F
100
AcDbEntity
  8
Capa 1
370
    15
100
AcDbSpline
210
0.0
220
0.0
230
1.0
 70
    24
 71
     3
 72
     8
 73
     4
 74
     0
 42
0.000000001
 43
0.0000000001
 40
0.0
 40
0.0
 40
0.0
 40
0.0
 40
1.0
 40
1.0
 40
1.0
 40
1.0
 10
-183.6259
 20
-103.7106
 30
0.0
 10
-183.6259
 20
-103.7106
 30
0.0
 10
-181.0735
 20
-103.6214
 30
0.0
 10
-181.0735
 20
-103.6214
 30
0.0
  0
SPLINE
  5
E7
330
1F
100
AcDbEntity
  8
Capa 1
370
    15
100
AcDbSpline
210
0.0
220
0.0
230
1.0
 70
    24
 71
     3
 72
     8
 73
     4
 74
     0
 42
0.000000001
 43
0.0000000001
 40
0.0
 40
0.0
 40
0.0
 40
0.0
 40
1.0
 40
1.0
 40
1.0
 40
1.0
 10
-183.6259
 20
-103.7106
 30
0.0
 10
-183.6259
 20
-103.7106
 30
0.0
 10
-183.6259
 20
-113.7106
 30
0.0
 10
-183.6259
 20
-113.7106
 30
0.0
  0
SPLINE
  5
E8
330
1F
100
AcDbEntity
  8
Capa 1
370
    15
100
AcDbSpline
210
0.0
220
0.0
230
1.0
 70
    24
 71
     3
 72
     8
 73
     4
 74
     0
 42
0.000000001
 43
0.0000000001
 40
0.0
 40
0.0
 40
0.0
 40
0.0
 40
1.0
 40
1.0
 40
1.0
 40
1.0
 10
-181.0735
 20
-113.7997
 30
0.0
 10
-181.0735
 20
-113.7997
 30
0.0
 10
-183.6259
 20
-113.7106
 30
0.0
 10
-183.6259
 20
-113.7106
 30
0.0
  0
SPLINE
  5
E9
330
1F
100
AcDbEntity
  8
Capa 1
370
    15
100
AcDbSpline
210
0.0
220
0.0
230
1.0
 70
     8
 71
     3
 72
     8
 73
     4
 74
     0
 42
0.000000001
 43
0.0000000001
 40
0.0
 40
0.0
 40
0.0
 40
0.0
 40
1.0
 40
1.0
 40
1.0
 40
1.0
 10
-179.6258
 20
-115.2988
 30
0.0
 10
-179.6258
 20
-114.4907
 30
0.0
 10
-180.2659
 20
-113.8279
 30
0.0
 10
-181.0735
 20
-113.7997
 30
0.0
  0
SPLINE
  5
EA
330
1F
100
AcDbEntity
  8
Capa 1
370
    15
100
AcDbSpline
210
0.0
220
0.0
230
1.0
 70
    24
 71
     3
 72
     8
 73
     4
 74
     0
 42
0.000000001
 43
0.0000000001
 40
0.0
 40
0.0
 40
0.0
 40
0.0
 40
1.0
 40
1.0
 40
1.0
 40
1.0
 10
-179.6259
 20
-115.2988
 30
0.0
 10
-179.6259
 20
-115.2988
 30
0.0
 10
-179.6259
 20
-132.3106
 30
0.0
 10
-179.6259
 20
-132.3106
 30
0.0
  0
SPLINE
  5
EB
330
1F
100
AcDbEntity
  8
Capa 1
370
    15
100
AcDbSpline
210
0.0
220
0.0
230
1.0
 70
    24
 71
     3
 72
     8
 73
     4
 74
     0
 42
0.000000001
 43
0.0000000001
 40
0.0
 40
0.0
 40
0.0
 40
0.0
 40
1.0
 40
1.0
 40
1.0
 40
1.0
 10
-173.3049
 20
-132.3106
 30
0.0
 10
-173.3049
 20
-132.3106
 30
0.0
 10
-179.2903
 20
-132.3106
 30
0.0
 10
-179.2903
 20
-132.3106
 30
0.0
  0
SPLINE
  5
EC
330
1F
100
AcDbEntity
  8
Capa 1
370
    15
100
AcDbSpline
210
0.0
220
0.0
230
1.0
 70
     8
 71
     3
 72
     8
 73
     4
 74
     0
 42
0.000000001
 43
0.0000000001
 40
0.0
 40
0.0
 40
0.0
 40
0.0
 40
1.0
 40
1.0
 40
1.0
 40
1.0
 10
-171.8259
 20
-131.0606
 30
0.0
 10
-172.5578
 20
-131.0606
 30
0.0
 10
-173.1829
 20
-131.5888
 30
0.0
 10
-173.3049
 20
-132.3105
 30
0.0
  0
SPLINE
  5
ED
330
1F
100
AcDbEntity
  8
Capa 1
370
    15
100
AcDbSpline
210
0.0
220
0.0
230
1.0
 70
    24
 71
     3
 72
     8
 73
     4
 74
     0
 42
0.000000001
 43
0.0000000001
 40
0.0
 40
0.0
 40
0.0
 40
0.0
 40
1.0
 40
1.0
 40
1.0
 40
1.0
 10
-171.8259
 20
-131.0606
 30
0.0
 10
-171.8259
 20
-131.0606
 30
0.0
 10
-170.4259
 20
-131.0606
 30
0.0
 10
-170.4259
 20
-131.0606
 30
0.0
  0
SPLINE
  5
EE
330
1F
100
AcDbEntity
  8
Capa 1
370
    15
100
AcDbSpline
210
0.0
220
0.0
230
1.0
 70
     8
 71
     3
 72
     8
 73
     4
 74
     0
 42
0.000000001
 43
0.0000000001
 40
0.0
 40
0.0
 40
0.0
 40
0.0
 40
1.0
 40
1.0
 40
1.0
 40
1.0
 10
-168.9468
 20
-132.3105
 30
0.0
 10
-169.0688
 20
-131.5888
 30
0.0
 10
-169.6939
 20
-131.0606
 30
0.0
 10
-170.4259
 20
-131.0606
 30
0.0
  0
SPLINE
  5
EF
330
1F
100
AcDbEntity
  8
Capa 1
370
    15
100
AcDbSpline
210
0.0
220
0.0
230
1.0
 70
    24
 71
     3
 72
     8
 73
     4
 74
     0
 42
0.000000001
 43
0.0000000001
 40
0.0
 40
0.0
 40
0.0
 40
0.0
 40
1.0
 40
1.0
 40
1.0
 40
1.0
 10
-168.9468
 20
-132.3106
 30
0.0
 10
-168.9468
 20
-132.3106
 30
0.0
 10
-168.9468
 20
-132.473
 30
0.0
 10
-168.9468
 20
-132.473
 30
0.0
  0
SPLINE
  5
F0
330
1F
100
AcDbEntity
  8
Capa 1
370
    15
100
AcDbSpline
210
0.0
220
0.0
230
1.0
 70
     8
 71
     3
 72
    12
 73
     8
 74
     0
 42
0.000000001
 43
0.0000000001
 40
0.0
 40
0.0
 40
0.0
 40
0.0
 40
0.3333333333333333
 40
0.3333333333333333
 40
0.3333333333333333
 40
0.3333333333333333
 40
1.0
 40
1.0
 40
1.0
 40
1.0
 10
-168.9468
 20
-135.1481
 30
0.0
 10
-168.4432
 20
-134.8924
 30
0.0
 10
-168.1259
 20
-134.3754
 30
0.0
 10
-168.1259
 20
-133.8106
 30
0.0
 10
-168.1259
 20
-133.8106
 30
0.0
 10
-168.1258
 20
-133.2457
 30
0.0
 10
-168.4432
 20
-132.7287
 30
0.0
 10
-168.9468
 20
-132.473
 30
0.0
  0
SPLINE
  5
F1
330
1F
100
AcDbEntity
  8
Capa 1
370
    15
100
AcDbSpline
210
0.0
220
0.0
230
1.0
 70
    24
 71
     3
 72
     8
 73
     4
 74
     0
 42
0.000000001
 43
0.0000000001
 40
0.0
 40
0.0
 40
0.0
 40
0.0
 40
1.0
 40
1.0
 40
1.0
 40
1.0
 10
-168.9468
 20
-135.1481
 30
0.0
 10
-168.9468
 20
-135.1481
 30
0.0
 10
-168.9468
 20
-135.3106
 30
0.0
 10
-168.9468
 20
-135.3106
 30
0.0
  0
SPLINE
  5
F2
330
1F
100
AcDbEntity
  8
Capa 1
370
    15
100
AcDbSpline
210
0.0
220
0.0
230
1.0
 70
     8
 71
     3
 72
     8
 73
     4
 74
     0
 42
0.000000001
 43
0.0000000001
 40
0.0
 40
0.0
 40
0.0
 40
0.0
 40
1.0
 40
1.0
 40
1.0
 40
1.0
 10
-170.4259
 20
-136.5605
 30
0.0
 10
-169.6939
 20
-136.5605
 30
0.0
 10
-169.0688
 20
-136.0323
 30
0.0
 10
-168.9468
 20
-135.3106
 30
0.0
  0
SPLINE
  5
F3
330
1F
100
AcDbEntity
  8
Capa 1
370
    15
100
AcDbSpline
210
0.0
220
0.0
230
1.0
 70
    24
 71
     3
 72
     8
 73
     4
 74
     0
 42
0.000000001
 43
0.0000000001
 40
0.0
 40
0.0
 40
0.0
 40
0.0
 40
1.0
 40
1.0
 40
1.0
 40
1.0
 10
-170.4259
 20
-136.5606
 30
0.0
 10
-170.4259
 20
-136.5606
 30
0.0
 10
-171.8259
 20
-136.5606
 30
0.0
 10
-171.8259
 20
-136.5606
 30
0.0
  0
SPLINE
  5
F4
330
1F
100
AcDbEntity
  8
Capa 1
370
    15
100
AcDbSpline
210
0.0
220
0.0
230
1.0
 70
     8
 71
     3
 72
     8
 73
     4
 74
     0
 42
0.000000001
 43
0.0000000001
 40
0.0
 40
0.0
 40
0.0
 40
0.0
 40
1.0
 40
1.0
 40
1.0
 40
1.0
 10
-173.3049
 20
-135.3106
 30
0.0
 10
-173.1829
 20
-136.0323
 30
0.0
 10
-172.5578
 20
-136.5605
 30
0.0
 10
-171.8259
 20
-136.5605
 30
0.0
  0
SPLINE
  5
F5
330
1F
100
AcDbEntity
  8
Capa 1
370
    15
100
AcDbSpline
210
0.0
220
0.0
230
1.0
 70
    24
 71
     3
 72
     8
 73
     4
 74
     0
 42
0.000000001
 43
0.0000000001
 40
0.0
 40
0.0
 40
0.0
 40
0.0
 40
1.0
 40
1.0
 40
1.0
 40
1.0
 10
-179.277
 20
-135.3106
 30
0.0
 10
-179.277
 20
-135.3106
 30
0.0
 10
-173.3049
 20
-135.3106
 30
0.0
 10
-173.3049
 20
-135.3106
 30
0.0
  0
SPLINE
  5
F6
330
1F
100
AcDbEntity
  8
Capa 1
370
    15
100
AcDbSpline
210
0.0
220
0.0
230
1.0
 70
    24
 71
     3
 72
     8
 73
     4
 74
     0
 42
0.000000001
 43
0.0000000001
 40
0.0
 40
0.0
 40
0.0
 40
0.0
 40
1.0
 40
1.0
 40
1.0
 40
1.0
 10
-179.6259
 20
-135.3106
 30
0.0
 10
-179.6259
 20
-135.3106
 30
0.0
 10
-179.6259
 20
-152.1223
 30
0.0
 10
-179.6259
 20
-152.1223
 30
0.0
  0
SPLINE
  5
F7
330
1F
100
AcDbEntity
  8
Capa 1
370
    15
100
AcDbSpline
210
0.0
220
0.0
230
1.0
 70
     8
 71
     3
 72
     8
 73
     4
 74
     0
 42
0.000000001
 43
0.0000000001
 40
0.0
 40
0.0
 40
0.0
 40
0.0
 40
1.0
 40
1.0
 40
1.0
 40
1.0
 10
-181.0735
 20
-153.6214
 30
0.0
 10
-180.2659
 20
-153.5932
 30
0.0
 10
-179.6259
 20
-152.9304
 30
0.0
 10
-179.6259
 20
-152.1223
 30
0.0
  0
SPLINE
  5
F8
330
1F
100
AcDbEntity
  8
Capa 1
370
    15
100
AcDbSpline
210
0.0
220
0.0
230
1.0
 70
    24
 71
     3
 72
     8
 73
     4
 74
     0
 42
0.000000001
 43
0.0000000001
 40
0.0
 40
0.0
 40
0.0
 40
0.0
 40
1.0
 40
1.0
 40
1.0
 40
1.0
 10
-183.6259
 20
-153.7106
 30
0.0
 10
-183.6259
 20
-153.7106
 30
0.0
 10
-181.0735
 20
-153.6214
 30
0.0
 10
-181.0735
 20
-153.6214
 30
0.0
  0
SPLINE
  5
F9
330
1F
100
AcDbEntity
  8
Capa 1
370
    15
100
AcDbSpline
210
0.0
220
0.0
230
1.0
 70
    24
 71
     3
 72
     8
 73
     4
 74
     0
 42
0.000000001
 43
0.0000000001
 40
0.0
 40
0.0
 40
0.0
 40
0.0
 40
1.0
 40
1.0
 40
1.0
 40
1.0
 10
-183.6259
 20
-153.7106
 30
0.0
 10
-183.6259
 20
-153.7106
 30
0.0
 10
-183.6259
 20
-163.7106
 30
0.0
 10
-183.6259
 20
-163.7106
 30
0.0
  0
SPLINE
  5
FA
330
1F
100
AcDbEntity
  8
Capa 1
370
    15
100
AcDbSpline
210
0.0
220
0.0
230
1.0
 70
    24
 71
     3
 72
     8
 73
     4
 74
     0
 42
0.000000001
 43
0.0000000001
 40
0.0
 40
0.0
 40
0.0
 40
0.0
 40
1.0
 40
1.0
 40
1.0
 40
1.0
 10
-181.0735
 20
-163.7997
 30
0.0
 10
-181.0735
 20
-163.7997
 30
0.0
 10
-183.6259
 20
-163.7106
 30
0.0
 10
-183.6259
 20
-163.7106
 30
0.0
  0
SPLINE
  5
FB
330
1F
100
AcDbEntity
  8
Capa 1
370
    15
100
AcDbSpline
210
0.0
220
0.0
230
1.0
 70
     8
 71
     3
 72
     8
 73
     4
 74
     0
 42
0.000000001
 43
0.0000000001
 40
0.0
 40
0.0
 40
0.0
 40
0.0
 40
1.0
 40
1.0
 40
1.0
 40
1.0
 10
-179.6259
 20
-165.2988
 30
0.0
 10
-179.6259
 20
-164.4907
 30
0.0
 10
-180.2659
 20
-163.8279
 30
0.0
 10
-181.0735
 20
-163.7997
 30
0.0
  0
SPLINE
  5
FC
330
1F
100
AcDbEntity
  8
Capa 1
370
    15
100
AcDbSpline
210
0.0
220
0.0
230
1.0
 70
    24
 71
     3
 72
     8
 73
     4
 74
     0
 42
0.000000001
 43
0.0000000001
 40
0.0
 40
0.0
 40
0.0
 40
0.0
 40
1.0
 40
1.0
 40
1.0
 40
1.0
 10
-179.6259
 20
-165.2988
 30
0.0
 10
-179.6259
 20
-165.2988
 30
0.0
 10
-179.6259
 20
-238.2123
 30
0.0
 10
-179.6259
 20
-238.2123
 30
0.0
  0
SPLINE
  5
FD
330
1F
100
AcDbEntity
  8
Capa 1
370
    15
100
AcDbSpline
210
0.0
220
0.0
230
1.0
 70
     8
 71
     3
 72
     8
 73
     4
 74
     0
 42
0.000000001
 43
0.0000000001
 40
0.0
 40
0.0
 40
0.0
 40
0.0
 40
1.0
 40
1.0
 40
1.0
 40
1.0
 10
-179.6259
 20
-237.7531
 30
0.0
 10
-179.6259
 20
-237.9286
 30
0.0
 10
-179.5796
 20
-238.101
 30
0.0
 10
-179.4919
 20
-238.253
 30
0.0
  0
SPLINE
  5
FE
330
1F
100
AcDbEntity
  8
Capa 1
370
    15
100
AcDbSpline
210
0.0
220
0.0
230
1.0
 70
     8
 71
     3
 72
    20
 73
    16
 74
     0
 42
0.000000001
 43
0.0000000001
 40
0.0
 40
0.0
 40
0.0
 40
0.0
 40
0.2
 40
0.2
 40
0.2
 40
0.2
 40
0.4
 40
0.4
 40
0.4
 40
0.4
 40
0.6
 40
0.6
 40
0.6
 40
0.6
 40
1.0
 40
1.0
 40
1.0
 40
1.0
 10
-131.7259
 20
175.9394
 30
0.0
 10
-131.7259
 20
176.823
 30
0.0
 10
-132.4422
 20
177.5393
 30
0.0
 10
-133.3258
 20
177.5393
 30
0.0
 10
-133.3258
 20
177.5393
 30
0.0
 10
-134.2095
 20
177.5394
 30
0.0
 10
-134.9258
 20
176.823
 30
0.0
 10
-134.9258
 20
175.9394
 30
0.0
 10
-134.9258
 20
175.9394
 30
0.0
 10
-134.9259
 20
175.0557
 30
0.0
 10
-134.2095
 20
174.3394
 30
0.0
 10
-133.3259
 20
174.3394
 30
0.0
 10
-133.3259
 20
174.3394
 30
0.0
 10
-132.4422
 20
174.3393
 30
0.0
 10
-131.7259
 20
175.0557
 30
0.0
 10
-131.7259
 20
175.9393
 30
0.0
  0
SPLINE
  5
FF
330
1F
100
AcDbEntity
  8
Capa 1
370
    15
100
AcDbSpline
210
0.0
220
0.0
230
1.0
 70
     8
 71
     3
 72
    20
 73
    16
 74
     0
 42
0.000000001
 43
0.0000000001
 40
0.0
 40
0.0
 40
0.0
 40
0.0
 40
0.2
 40
0.2
 40
0.2
 40
0.2
 40
0.4
 40
0.4
 40
0.4
 40
0.4
 40
0.6
 40
0.6
 40
0.6
 40
0.6
 40
1.0
 40
1.0
 40
1.0
 40
1.0
 10
-112.9258
 20
-158.0606
 30
0.0
 10
-112.9258
 20
-157.1769
 30
0.0
 10
-113.6422
 20
-156.4606
 30
0.0
 10
-114.5258
 20
-156.4606
 30
0.0
 10
-114.5258
 20
-156.4606
 30
0.0
 10
-115.4095
 20
-156.4605
 30
0.0
 10
-116.1258
 20
-157.1769
 30
0.0
 10
-116.1258
 20
-158.0605
 30
0.0
 10
-116.1258
 20
-158.0605
 30
0.0
 10
-116.1259
 20
-158.9442
 30
0.0
 10
-115.4095
 20
-159.6605
 30
0.0
 10
-114.5259
 20
-159.6605
 30
0.0
 10
-114.5259
 20
-159.6605
 30
0.0
 10
-113.6422
 20
-159.6606
 30
0.0
 10
-112.9259
 20
-158.9442
 30
0.0
 10
-112.9259
 20
-158.0606
 30
0.0
  0
SPLINE
  5
100
330
1F
100
AcDbEntity
  8
Capa 1
370
    15
100
AcDbSpline
210
0.0
220
0.0
230
1.0
 70
    24
 71
     3
 72
     8
 73
     4
 74
     0
 42
0.000000001
 43
0.0000000001
 40
0.0
 40
0.0
 40
0.0
 40
0.0
 40
1.0
 40
1.0
 40
1.0
 40
1.0
 10
-103.2759
 20
180.5894
 30
0.0
 10
-103.2759
 20
180.5894
 30
0.0
 10
-113.2759
 20
180.5894
 30
0.0
 10
-113.2759
 20
180.5894
 30
0.0
  0
SPLINE
  5
101
330
1F
100
AcDbEntity
  8
Capa 1
370
    15
100
AcDbSpline
210
0.0
220
0.0
230
1.0
 70
     8
 71
     3
 72
    12
 73
     8
 74
     0
 42
0.000000001
 43
0.0000000001
 40
0.0
 40
0.0
 40
0.0
 40
0.0
 40
0.3333333333333333
 40
0.3333333333333333
 40
0.3333333333333333
 40
0.3333333333333333
 40
1.0
 40
1.0
 40
1.0
 40
1.0
 10
-103.2759
 20
174.3894
 30
0.0
 10
-101.5638
 20
174.3894
 30
0.0
 10
-100.1759
 20
175.7773
 30
0.0
 10
-100.1759
 20
177.4893
 30
0.0
 10
-100.1759
 20
177.4893
 30
0.0
 10
-100.1758
 20
179.2014
 30
0.0
 10
-101.5638
 20
180.5893
 30
0.0
 10
-103.2758
 20
180.5893
 30
0.0
  0
SPLINE
  5
102
330
1F
100
AcDbEntity
  8
Capa 1
370
    15
100
AcDbSpline
210
0.0
220
0.0
230
1.0
 70
    24
 71
     3
 72
     8
 73
     4
 74
     0
 42
0.000000001
 43
0.0000000001
 40
0.0
 40
0.0
 40
0.0
 40
0.0
 40
1.0
 40
1.0
 40
1.0
 40
1.0
 10
-113.2759
 20
174.3894
 30
0.0
 10
-113.2759
 20
174.3894
 30
0.0
 10
-103.2759
 20
174.3894
 30
0.0
 10
-103.2759
 20
174.3894
 30
0.0
  0
SPLINE
  5
103
330
1F
100
AcDbEntity
  8
Capa 1
370
    15
100
AcDbSpline
210
0.0
220
0.0
230
1.0
 70
     8
 71
     3
 72
    16
 73
    12
 74
     0
 42
0.000000001
 43
0.0000000001
 40
0.0
 40
0.0
 40
0.0
 40
0.0
 40
0.25
 40
0.25
 40
0.25
 40
0.25
 40
0.5
 40
0.5
 40
0.5
 40
0.5
 40
1.0
 40
1.0
 40
1.0
 40
1.0
 10
-113.2759
 20
180.5893
 30
0.0
 10
-114.3834
 20
180.5893
 30
0.0
 10
-115.4068
 20
179.9985
 30
0.0
 10
-115.9605
 20
179.0393
 30
0.0
 10
-115.9605
 20
179.0393
 30
0.0
 10
-116.5143
 20
178.0802
 30
0.0
 10
-116.5143
 20
176.8985
 30
0.0
 10
-115.9605
 20
175.9394
 30
0.0
 10
-115.9605
 20
175.9394
 30
0.0
 10
-115.4068
 20
174.9802
 30
0.0
 10
-114.3834
 20
174.3894
 30
0.0
 10
-113.2759
 20
174.3894
 30
0.0
  0
SPLINE
  5
104
330
1F
100
AcDbEntity
  8
Capa 1
370
    15
100
AcDbSpline
210
0.0
220
0.0
230
1.0
 70
    24
 71
     3
 72
     8
 73
     4
 74
     0
 42
0.000000001
 43
0.0000000001
 40
0.0
 40
0.0
 40
0.0
 40
0.0
 40
1.0
 40
1.0
 40
1.0
 40
1.0
 10
-153.3259
 20
-153.4106
 30
0.0
 10
-153.3259
 20
-153.4106
 30
0.0
 10
-163.3259
 20
-153.4106
 30
0.0
 10
-163.3259
 20
-153.4106
 30
0.0
  0
SPLINE
  5
105
330
1F
100
AcDbEntity
  8
Capa 1
370
    15
100
AcDbSpline
210
0.0
220
0.0
230
1.0
 70
     8
 71
     3
 72
    12
 73
     8
 74
     0
 42
0.000000001
 43
0.0000000001
 40
0.0
 40
0.0
 40
0.0
 40
0.0
 40
0.3333333333333333
 40
0.3333333333333333
 40
0.3333333333333333
 40
0.3333333333333333
 40
1.0
 40
1.0
 40
1.0
 40
1.0
 10
-153.3259
 20
-159.6105
 30
0.0
 10
-151.6138
 20
-159.6105
 30
0.0
 10
-150.2259
 20
-158.2226
 30
0.0
 10
-150.2259
 20
-156.5106
 30
0.0
 10
-150.2259
 20
-156.5106
 30
0.0
 10
-150.2258
 20
-154.7985
 30
0.0
 10
-151.6138
 20
-153.4106
 30
0.0
 10
-153.3258
 20
-153.4106
 30
0.0
  0
SPLINE
  5
106
330
1F
100
AcDbEntity
  8
Capa 1
370
    15
100
AcDbSpline
210
0.0
220
0.0
230
1.0
 70
    24
 71
     3
 72
     8
 73
     4
 74
     0
 42
0.000000001
 43
0.0000000001
 40
0.0
 40
0.0
 40
0.0
 40
0.0
 40
1.0
 40
1.0
 40
1.0
 40
1.0
 10
-163.3259
 20
-159.6106
 30
0.0
 10
-163.3259
 20
-159.6106
 30
0.0
 10
-153.3259
 20
-159.6106
 30
0.0
 10
-153.3259
 20
-159.6106
 30
0.0
  0
SPLINE
  5
107
330
1F
100
AcDbEntity
  8
Capa 1
370
    15
100
AcDbSpline
210
0.0
220
0.0
230
1.0
 70
     8
 71
     3
 72
    16
 73
    12
 74
     0
 42
0.000000001
 43
0.0000000001
 40
0.0
 40
0.0
 40
0.0
 40
0.0
 40
0.25
 40
0.25
 40
0.25
 40
0.25
 40
0.5
 40
0.5
 40
0.5
 40
0.5
 40
1.0
 40
1.0
 40
1.0
 40
1.0
 10
-163.3259
 20
-153.4106
 30
0.0
 10
-164.4334
 20
-153.4106
 30
0.0
 10
-165.4568
 20
-154.0014
 30
0.0
 10
-166.0105
 20
-154.9606
 30
0.0
 10
-166.0105
 20
-154.9606
 30
0.0
 10
-166.5643
 20
-155.9197
 30
0.0
 10
-166.5643
 20
-157.1014
 30
0.0
 10
-166.0105
 20
-158.0605
 30
0.0
 10
-166.0105
 20
-158.0605
 30
0.0
 10
-165.4568
 20
-159.0197
 30
0.0
 10
-164.4334
 20
-159.6105
 30
0.0
 10
-163.3259
 20
-159.6105
 30
0.0
  0
SPLINE
  5
108
330
1F
100
AcDbEntity
  8
Capa 1
370
    15
100
AcDbSpline
210
0.0
220
0.0
230
1.0
 70
    24
 71
     3
 72
     8
 73
     4
 74
     0
 42
0.000000001
 43
0.0000000001
 40
0.0
 40
0.0
 40
0.0
 40
0.0
 40
1.0
 40
1.0
 40
1.0
 40
1.0
 10
-91.5259
 20
-153.4106
 30
0.0
 10
-91.5259
 20
-153.4106
 30
0.0
 10
-101.5259
 20
-153.4106
 30
0.0
 10
-101.5259
 20
-153.4106
 30
0.0
  0
SPLINE
  5
109
330
1F
100
AcDbEntity
  8
Capa 1
370
    15
100
AcDbSpline
210
0.0
220
0.0
230
1.0
 70
     8
 71
     3
 72
    12
 73
     8
 74
     0
 42
0.000000001
 43
0.0000000001
 40
0.0
 40
0.0
 40
0.0
 40
0.0
 40
0.3333333333333333
 40
0.3333333333333333
 40
0.3333333333333333
 40
0.3333333333333333
 40
1.0
 40
1.0
 40
1.0
 40
1.0
 10
-91.5259
 20
-159.6105
 30
0.0
 10
-89.8138
 20
-159.6105
 30
0.0
 10
-88.4259
 20
-158.2226
 30
0.0
 10
-88.4259
 20
-156.5106
 30
0.0
 10
-88.4259
 20
-156.5106
 30
0.0
 10
-88.4258
 20
-154.7985
 30
0.0
 10
-89.8138
 20
-153.4106
 30
0.0
 10
-91.5258
 20
-153.4106
 30
0.0
  0
SPLINE
  5
10A
330
1F
100
AcDbEntity
  8
Capa 1
370
    15
100
AcDbSpline
210
0.0
220
0.0
230
1.0
 70
    24
 71
     3
 72
     8
 73
     4
 74
     0
 42
0.000000001
 43
0.0000000001
 40
0.0
 40
0.0
 40
0.0
 40
0.0
 40
1.0
 40
1.0
 40
1.0
 40
1.0
 10
-101.5259
 20
-159.6106
 30
0.0
 10
-101.5259
 20
-159.6106
 30
0.0
 10
-91.5259
 20
-159.6106
 30
0.0
 10
-91.5259
 20
-159.6106
 30
0.0
  0
SPLINE
  5
10B
330
1F
100
AcDbEntity
  8
Capa 1
370
    15
100
AcDbSpline
210
0.0
220
0.0
230
1.0
 70
     8
 71
     3
 72
    16
 73
    12
 74
     0
 42
0.000000001
 43
0.0000000001
 40
0.0
 40
0.0
 40
0.0
 40
0.0
 40
0.25
 40
0.25
 40
0.25
 40
0.25
 40
0.5
 40
0.5
 40
0.5
 40
0.5
 40
1.0
 40
1.0
 40
1.0
 40
1.0
 10
-101.5259
 20
-153.4106
 30
0.0
 10
-102.6334
 20
-153.4106
 30
0.0
 10
-103.6568
 20
-154.0014
 30
0.0
 10
-104.2105
 20
-154.9606
 30
0.0
 10
-104.2105
 20
-154.9606
 30
0.0
 10
-104.7643
 20
-155.9197
 30
0.0
 10
-104.7643
 20
-157.1014
 30
0.0
 10
-104.2105
 20
-158.0605
 30
0.0
 10
-104.2105
 20
-158.0605
 30
0.0
 10
-103.6568
 20
-159.0197
 30
0.0
 10
-102.6334
 20
-159.6105
 30
0.0
 10
-101.5259
 20
-159.6105
 30
0.0
  0
SPLINE
  5
10C
330
1F
100
AcDbEntity
  8
Capa 1
370
    15
100
AcDbSpline
210
0.0
220
0.0
230
1.0
 70
    24
 71
     3
 72
     8
 73
     4
 74
     0
 42
0.000000001
 43
0.0000000001
 40
0.0
 40
0.0
 40
0.0
 40
0.0
 40
1.0
 40
1.0
 40
1.0
 40
1.0
 10
-21.5261
 20
180.5894
 30
0.0
 10
-21.5261
 20
180.5894
 30
0.0
 10
-31.5261
 20
180.5894
 30
0.0
 10
-31.5261
 20
180.5894
 30
0.0
  0
SPLINE
  5
10D
330
1F
100
AcDbEntity
  8
Capa 1
370
    15
100
AcDbSpline
210
0.0
220
0.0
230
1.0
 70
     8
 71
     3
 72
    12
 73
     8
 74
     0
 42
0.000000001
 43
0.0000000001
 40
0.0
 40
0.0
 40
0.0
 40
0.0
 40
0.3333333333333333
 40
0.3333333333333333
 40
0.3333333333333333
 40
0.3333333333333333
 40
1.0
 40
1.0
 40
1.0
 40
1.0
 10
-21.5261
 20
174.3894
 30
0.0
 10
-19.814
 20
174.3894
 30
0.0
 10
-18.4261
 20
175.7773
 30
0.0
 10
-18.4261
 20
177.4893
 30
0.0
 10
-18.4261
 20
177.4893
 30
0.0
 10
-18.426
 20
179.2014
 30
0.0
 10
-19.814
 20
180.5893
 30
0.0
 10
-21.526
 20
180.5893
 30
0.0
  0
SPLINE
  5
10E
330
1F
100
AcDbEntity
  8
Capa 1
370
    15
100
AcDbSpline
210
0.0
220
0.0
230
1.0
 70
     8
 71
     3
 72
    16
 73
    12
 74
     0
 42
0.000000001
 43
0.0000000001
 40
0.0
 40
0.0
 40
0.0
 40
0.0
 40
0.25
 40
0.25
 40
0.25
 40
0.25
 40
0.5
 40
0.5
 40
0.5
 40
0.5
 40
1.0
 40
1.0
 40
1.0
 40
1.0
 10
-31.5261
 20
180.5893
 30
0.0
 10
-32.6336
 20
180.5893
 30
0.0
 10
-33.657
 20
179.9985
 30
0.0
 10
-34.2107
 20
179.0393
 30
0.0
 10
-34.2107
 20
179.0393
 30
0.0
 10
-34.7645
 20
178.0802
 30
0.0
 10
-34.7645
 20
176.8985
 30
0.0
 10
-34.2107
 20
175.9394
 30
0.0
 10
-34.2107
 20
175.9394
 30
0.0
 10
-33.657
 20
174.9802
 30
0.0
 10
-32.6336
 20
174.3894
 30
0.0
 10
-31.5261
 20
174.3894
 30
0.0
  0
SPLINE
  5
10F
330
1F
100
AcDbEntity
  8
Capa 1
370
    15
100
AcDbSpline
210
0.0
220
0.0
230
1.0
 70
    24
 71
     3
 72
     8
 73
     4
 74
     0
 42
0.000000001
 43
0.0000000001
 40
0.0
 40
0.0
 40
0.0
 40
0.0
 40
1.0
 40
1.0
 40
1.0
 40
1.0
 10
-18.5261
 20
-153.4106
 30
0.0
 10
-18.5261
 20
-153.4106
 30
0.0
 10
-28.5261
 20
-153.4106
 30
0.0
 10
-28.5261
 20
-153.4106
 30
0.0
  0
SPLINE
  5
110
330
1F
100
AcDbEntity
  8
Capa 1
370
    15
100
AcDbSpline
210
0.0
220
0.0
230
1.0
 70
     8
 71
     3
 72
    12
 73
     8
 74
     0
 42
0.000000001
 43
0.0000000001
 40
0.0
 40
0.0
 40
0.0
 40
0.0
 40
0.3333333333333333
 40
0.3333333333333333
 40
0.3333333333333333
 40
0.3333333333333333
 40
1.0
 40
1.0
 40
1.0
 40
1.0
 10
-18.5261
 20
-159.6105
 30
0.0
 10
-16.814
 20
-159.6105
 30
0.0
 10
-15.4261
 20
-158.2226
 30
0.0
 10
-15.4261
 20
-156.5106
 30
0.0
 10
-15.4261
 20
-156.5106
 30
0.0
 10
-15.426
 20
-154.7985
 30
0.0
 10
-16.814
 20
-153.4106
 30
0.0
 10
-18.526
 20
-153.4106
 30
0.0
  0
SPLINE
  5
111
330
1F
100
AcDbEntity
  8
Capa 1
370
    15
100
AcDbSpline
210
0.0
220
0.0
230
1.0
 70
     8
 71
     3
 72
    16
 73
    12
 74
     0
 42
0.000000001
 43
0.0000000001
 40
0.0
 40
0.0
 40
0.0
 40
0.0
 40
0.25
 40
0.25
 40
0.25
 40
0.25
 40
0.5
 40
0.5
 40
0.5
 40
0.5
 40
1.0
 40
1.0
 40
1.0
 40
1.0
 10
-28.5261
 20
-153.4106
 30
0.0
 10
-29.6336
 20
-153.4106
 30
0.0
 10
-30.657
 20
-154.0014
 30
0.0
 10
-31.2107
 20
-154.9606
 30
0.0
 10
-31.2107
 20
-154.9606
 30
0.0
 10
-31.7645
 20
-155.9197
 30
0.0
 10
-31.7645
 20
-157.1014
 30
0.0
 10
-31.2107
 20
-158.0605
 30
0.0
 10
-31.2107
 20
-158.0605
 30
0.0
 10
-30.657
 20
-159.0197
 30
0.0
 10
-29.6336
 20
-159.6105
 30
0.0
 10
-28.5261
 20
-159.6105
 30
0.0
  0
SPLINE
  5
112
330
1F
100
AcDbEntity
  8
Capa 1
370
    15
100
AcDbSpline
210
0.0
220
0.0
230
1.0
 70
     8
 71
     3
 72
    20
 73
    16
 74
     0
 42
0.000000001
 43
0.0000000001
 40
0.0
 40
0.0
 40
0.0
 40
0.0
 40
0.2
 40
0.2
 40
0.2
 40
0.2
 40
0.4
 40
0.4
 40
0.4
 40
0.4
 40
0.6
 40
0.6
 40
0.6
 40
0.6
 40
1.0
 40
1.0
 40
1.0
 40
1.0
 10
73.5129
 20
175.9394
 30
0.0
 10
73.5129
 20
176.823
 30
0.0
 10
72.7965
 20
177.5393
 30
0.0
 10
71.9129
 20
177.5393
 30
0.0
 10
71.9129
 20
177.5393
 30
0.0
 10
71.0292
 20
177.5394
 30
0.0
 10
70.3129
 20
176.823
 30
0.0
 10
70.3129
 20
175.9394
 30
0.0
 10
70.3129
 20
175.9394
 30
0.0
 10
70.3129
 20
175.0557
 30
0.0
 10
71.0292
 20
174.3394
 30
0.0
 10
71.9129
 20
174.3394
 30
0.0
 10
71.9129
 20
174.3394
 30
0.0
 10
72.7965
 20
174.3393
 30
0.0
 10
73.5129
 20
175.0557
 30
0.0
 10
73.5129
 20
175.9393
 30
0.0
  0
SPLINE
  5
113
330
1F
100
AcDbEntity
  8
Capa 1
370
    15
100
AcDbSpline
210
0.0
220
0.0
230
1.0
 70
     8
 71
     3
 72
    20
 73
    16
 74
     0
 42
0.000000001
 43
0.0000000001
 40
0.0
 40
0.0
 40
0.0
 40
0.0
 40
0.2
 40
0.2
 40
0.2
 40
0.2
 40
0.4
 40
0.4
 40
0.4
 40
0.4
 40
0.6
 40
0.6
 40
0.6
 40
0.6
 40
1.0
 40
1.0
 40
1.0
 40
1.0
 10
131.8739
 20
175.9394
 30
0.0
 10
131.8739
 20
176.823
 30
0.0
 10
131.1575
 20
177.5393
 30
0.0
 10
130.2739
 20
177.5393
 30
0.0
 10
130.2739
 20
177.5393
 30
0.0
 10
129.3902
 20
177.5394
 30
0.0
 10
128.6739
 20
176.823
 30
0.0
 10
128.6739
 20
175.9394
 30
0.0
 10
128.6739
 20
175.9394
 30
0.0
 10
128.6738
 20
175.0557
 30
0.0
 10
129.3902
 20
174.3394
 30
0.0
 10
130.2738
 20
174.3394
 30
0.0
 10
130.2738
 20
174.3394
 30
0.0
 10
131.1575
 20
174.3393
 30
0.0
 10
131.8738
 20
175.0557
 30
0.0
 10
131.8738
 20
175.9393
 30
0.0
  0
SPLINE
  5
114
330
1F
100
AcDbEntity
  8
Capa 1
370
    15
100
AcDbSpline
210
0.0
220
0.0
230
1.0
 70
     8
 71
     3
 72
    20
 73
    16
 74
     0
 42
0.000000001
 43
0.0000000001
 40
0.0
 40
0.0
 40
0.0
 40
0.0
 40
0.2
 40
0.2
 40
0.2
 40
0.2
 40
0.4
 40
0.4
 40
0.4
 40
0.4
 40
0.6
 40
0.6
 40
0.6
 40
0.6
 40
1.0
 40
1.0
 40
1.0
 40
1.0
 10
113.0739
 20
-158.0606
 30
0.0
 10
113.0739
 20
-157.1769
 30
0.0
 10
112.3575
 20
-156.4606
 30
0.0
 10
111.4739
 20
-156.4606
 30
0.0
 10
111.4739
 20
-156.4606
 30
0.0
 10
110.5902
 20
-156.4605
 30
0.0
 10
109.8739
 20
-157.1769
 30
0.0
 10
109.8739
 20
-158.0605
 30
0.0
 10
109.8739
 20
-158.0605
 30
0.0
 10
109.8738
 20
-158.9442
 30
0.0
 10
110.5902
 20
-159.6605
 30
0.0
 10
111.4738
 20
-159.6605
 30
0.0
 10
111.4738
 20
-159.6605
 30
0.0
 10
112.3575
 20
-159.6606
 30
0.0
 10
113.0738
 20
-158.9442
 30
0.0
 10
113.0738
 20
-158.0606
 30
0.0
  0
SPLINE
  5
115
330
1F
100
AcDbEntity
  8
Capa 1
370
    15
100
AcDbSpline
210
0.0
220
0.0
230
1.0
 70
    24
 71
     3
 72
     8
 73
     4
 74
     0
 42
0.000000001
 43
0.0000000001
 40
0.0
 40
0.0
 40
0.0
 40
0.0
 40
1.0
 40
1.0
 40
1.0
 40
1.0
 10
100.2239
 20
174.3894
 30
0.0
 10
100.2239
 20
174.3894
 30
0.0
 10
110.2239
 20
174.3894
 30
0.0
 10
110.2239
 20
174.3894
 30
0.0
  0
SPLINE
  5
116
330
1F
100
AcDbEntity
  8
Capa 1
370
    15
100
AcDbSpline
210
0.0
220
0.0
230
1.0
 70
     8
 71
     3
 72
    16
 73
    12
 74
     0
 42
0.000000001
 43
0.0000000001
 40
0.0
 40
0.0
 40
0.0
 40
0.0
 40
0.25
 40
0.25
 40
0.25
 40
0.25
 40
0.5
 40
0.5
 40
0.5
 40
0.5
 40
1.0
 40
1.0
 40
1.0
 40
1.0
 10
100.2239
 20
180.5893
 30
0.0
 10
99.1163
 20
180.5893
 30
0.0
 10
98.0929
 20
179.9985
 30
0.0
 10
97.5392
 20
179.0393
 30
0.0
 10
97.5392
 20
179.0393
 30
0.0
 10
96.9854
 20
178.0802
 30
0.0
 10
96.9854
 20
176.8985
 30
0.0
 10
97.5392
 20
175.9394
 30
0.0
 10
97.5392
 20
175.9394
 30
0.0
 10
98.0929
 20
174.9802
 30
0.0
 10
99.1163
 20
174.3894
 30
0.0
 10
100.2239
 20
174.3894
 30
0.0
  0
SPLINE
  5
117
330
1F
100
AcDbEntity
  8
Capa 1
370
    15
100
AcDbSpline
210
0.0
220
0.0
230
1.0
 70
    24
 71
     3
 72
     8
 73
     4
 74
     0
 42
0.000000001
 43
0.0000000001
 40
0.0
 40
0.0
 40
0.0
 40
0.0
 40
1.0
 40
1.0
 40
1.0
 40
1.0
 10
110.2239
 20
180.5894
 30
0.0
 10
110.2239
 20
180.5894
 30
0.0
 10
100.2239
 20
180.5894
 30
0.0
 10
100.2239
 20
180.5894
 30
0.0
  0
SPLINE
  5
118
330
1F
100
AcDbEntity
  8
Capa 1
370
    15
100
AcDbSpline
210
0.0
220
0.0
230
1.0
 70
     8
 71
     3
 72
    12
 73
     8
 74
     0
 42
0.000000001
 43
0.0000000001
 40
0.0
 40
0.0
 40
0.0
 40
0.0
 40
0.3333333333333333
 40
0.3333333333333333
 40
0.3333333333333333
 40
0.3333333333333333
 40
1.0
 40
1.0
 40
1.0
 40
1.0
 10
110.2239
 20
174.3894
 30
0.0
 10
111.9359
 20
174.3894
 30
0.0
 10
113.3238
 20
175.7773
 30
0.0
 10
113.3238
 20
177.4893
 30
0.0
 10
113.3238
 20
177.4893
 30
0.0
 10
113.3239
 20
179.2014
 30
0.0
 10
111.9359
 20
180.5893
 30
0.0
 10
110.2239
 20
180.5893
 30
0.0
  0
SPLINE
  5
119
330
1F
100
AcDbEntity
  8
Capa 1
370
    15
100
AcDbSpline
210
0.0
220
0.0
230
1.0
 70
    24
 71
     3
 72
     8
 73
     4
 74
     0
 42
0.000000001
 43
0.0000000001
 40
0.0
 40
0.0
 40
0.0
 40
0.0
 40
1.0
 40
1.0
 40
1.0
 40
1.0
 10
150.2739
 20
-159.6106
 30
0.0
 10
150.2739
 20
-159.6106
 30
0.0
 10
160.2739
 20
-159.6106
 30
0.0
 10
160.2739
 20
-159.6106
 30
0.0
  0
SPLINE
  5
11A
330
1F
100
AcDbEntity
  8
Capa 1
370
    15
100
AcDbSpline
210
0.0
220
0.0
230
1.0
 70
     8
 71
     3
 72
    16
 73
    12
 74
     0
 42
0.000000001
 43
0.0000000001
 40
0.0
 40
0.0
 40
0.0
 40
0.0
 40
0.25
 40
0.25
 40
0.25
 40
0.25
 40
0.5
 40
0.5
 40
0.5
 40
0.5
 40
1.0
 40
1.0
 40
1.0
 40
1.0
 10
150.2739
 20
-153.4106
 30
0.0
 10
149.1663
 20
-153.4106
 30
0.0
 10
148.1429
 20
-154.0014
 30
0.0
 10
147.5892
 20
-154.9606
 30
0.0
 10
147.5892
 20
-154.9606
 30
0.0
 10
147.0354
 20
-155.9197
 30
0.0
 10
147.0354
 20
-157.1014
 30
0.0
 10
147.5892
 20
-158.0605
 30
0.0
 10
147.5892
 20
-158.0605
 30
0.0
 10
148.1429
 20
-159.0197
 30
0.0
 10
149.1663
 20
-159.6105
 30
0.0
 10
150.2739
 20
-159.6105
 30
0.0
  0
SPLINE
  5
11B
330
1F
100
AcDbEntity
  8
Capa 1
370
    15
100
AcDbSpline
210
0.0
220
0.0
230
1.0
 70
    24
 71
     3
 72
     8
 73
     4
 74
     0
 42
0.000000001
 43
0.0000000001
 40
0.0
 40
0.0
 40
0.0
 40
0.0
 40
1.0
 40
1.0
 40
1.0
 40
1.0
 10
160.2739
 20
-153.4106
 30
0.0
 10
160.2739
 20
-153.4106
 30
0.0
 10
150.2739
 20
-153.4106
 30
0.0
 10
150.2739
 20
-153.4106
 30
0.0
  0
SPLINE
  5
11C
330
1F
100
AcDbEntity
  8
Capa 1
370
    15
100
AcDbSpline
210
0.0
220
0.0
230
1.0
 70
     8
 71
     3
 72
    12
 73
     8
 74
     0
 42
0.000000001
 43
0.0000000001
 40
0.0
 40
0.0
 40
0.0
 40
0.0
 40
0.3333333333333333
 40
0.3333333333333333
 40
0.3333333333333333
 40
0.3333333333333333
 40
1.0
 40
1.0
 40
1.0
 40
1.0
 10
160.2739
 20
-159.6105
 30
0.0
 10
161.9859
 20
-159.6105
 30
0.0
 10
163.3738
 20
-158.2226
 30
0.0
 10
163.3738
 20
-156.5106
 30
0.0
 10
163.3738
 20
-156.5106
 30
0.0
 10
163.3739
 20
-154.7985
 30
0.0
 10
161.9859
 20
-153.4106
 30
0.0
 10
160.2739
 20
-153.4106
 30
0.0
  0
SPLINE
  5
11D
330
1F
100
AcDbEntity
  8
Capa 1
370
    15
100
AcDbSpline
210
0.0
220
0.0
230
1.0
 70
    24
 71
     3
 72
     8
 73
     4
 74
     0
 42
0.000000001
 43
0.0000000001
 40
0.0
 40
0.0
 40
0.0
 40
0.0
 40
1.0
 40
1.0
 40
1.0
 40
1.0
 10
88.4739
 20
-159.6106
 30
0.0
 10
88.4739
 20
-159.6106
 30
0.0
 10
98.4739
 20
-159.6106
 30
0.0
 10
98.4739
 20
-159.6106
 30
0.0
  0
SPLINE
  5
11E
330
1F
100
AcDbEntity
  8
Capa 1
370
    15
100
AcDbSpline
210
0.0
220
0.0
230
1.0
 70
     8
 71
     3
 72
    16
 73
    12
 74
     0
 42
0.000000001
 43
0.0000000001
 40
0.0
 40
0.0
 40
0.0
 40
0.0
 40
0.25
 40
0.25
 40
0.25
 40
0.25
 40
0.5
 40
0.5
 40
0.5
 40
0.5
 40
1.0
 40
1.0
 40
1.0
 40
1.0
 10
88.4739
 20
-153.4106
 30
0.0
 10
87.3663
 20
-153.4106
 30
0.0
 10
86.3429
 20
-154.0014
 30
0.0
 10
85.7892
 20
-154.9606
 30
0.0
 10
85.7892
 20
-154.9606
 30
0.0
 10
85.2354
 20
-155.9197
 30
0.0
 10
85.2354
 20
-157.1014
 30
0.0
 10
85.7892
 20
-158.0605
 30
0.0
 10
85.7892
 20
-158.0605
 30
0.0
 10
86.3429
 20
-159.0197
 30
0.0
 10
87.3663
 20
-159.6105
 30
0.0
 10
88.4739
 20
-159.6105
 30
0.0
  0
SPLINE
  5
11F
330
1F
100
AcDbEntity
  8
Capa 1
370
    15
100
AcDbSpline
210
0.0
220
0.0
230
1.0
 70
    24
 71
     3
 72
     8
 73
     4
 74
     0
 42
0.000000001
 43
0.0000000001
 40
0.0
 40
0.0
 40
0.0
 40
0.0
 40
1.0
 40
1.0
 40
1.0
 40
1.0
 10
98.4739
 20
-153.4106
 30
0.0
 10
98.4739
 20
-153.4106
 30
0.0
 10
88.4739
 20
-153.4106
 30
0.0
 10
88.4739
 20
-153.4106
 30
0.0
  0
SPLINE
  5
120
330
1F
100
AcDbEntity
  8
Capa 1
370
    15
100
AcDbSpline
210
0.0
220
0.0
230
1.0
 70
     8
 71
     3
 72
    12
 73
     8
 74
     0
 42
0.000000001
 43
0.0000000001
 40
0.0
 40
0.0
 40
0.0
 40
0.0
 40
0.3333333333333333
 40
0.3333333333333333
 40
0.3333333333333333
 40
0.3333333333333333
 40
1.0
 40
1.0
 40
1.0
 40
1.0
 10
98.4739
 20
-159.6105
 30
0.0
 10
100.1859
 20
-159.6105
 30
0.0
 10
101.5738
 20
-158.2226
 30
0.0
 10
101.5738
 20
-156.5106
 30
0.0
 10
101.5738
 20
-156.5106
 30
0.0
 10
101.5739
 20
-154.7985
 30
0.0
 10
100.1859
 20
-153.4106
 30
0.0
 10
98.4739
 20
-153.4106
 30
0.0
  0
SPLINE
  5
121
330
1F
100
AcDbEntity
  8
Capa 1
370
    15
100
AcDbSpline
210
0.0
220
0.0
230
1.0
 70
     8
 71
     3
 72
    16
 73
    12
 74
     0
 42
0.000000001
 43
0.0000000001
 40
0.0
 40
0.0
 40
0.0
 40
0.0
 40
0.25
 40
0.25
 40
0.25
 40
0.25
 40
0.5
 40
0.5
 40
0.5
 40
0.5
 40
1.0
 40
1.0
 40
1.0
 40
1.0
 10
18.4739
 20
180.5893
 30
0.0
 10
17.3663
 20
180.5893
 30
0.0
 10
16.3429
 20
179.9985
 30
0.0
 10
15.7892
 20
179.0393
 30
0.0
 10
15.7892
 20
179.0393
 30
0.0
 10
15.2354
 20
178.0802
 30
0.0
 10
15.2354
 20
176.8985
 30
0.0
 10
15.7892
 20
175.9394
 30
0.0
 10
15.7892
 20
175.9394
 30
0.0
 10
16.3429
 20
174.9802
 30
0.0
 10
17.3663
 20
174.3894
 30
0.0
 10
18.4739
 20
174.3894
 30
0.0
  0
SPLINE
  5
122
330
1F
100
AcDbEntity
  8
Capa 1
370
    15
100
AcDbSpline
210
0.0
220
0.0
230
1.0
 70
    24
 71
     3
 72
     8
 73
     4
 74
     0
 42
0.000000001
 43
0.0000000001
 40
0.0
 40
0.0
 40
0.0
 40
0.0
 40
1.0
 40
1.0
 40
1.0
 40
1.0
 10
28.4739
 20
180.5894
 30
0.0
 10
28.4739
 20
180.5894
 30
0.0
 10
18.4739
 20
180.5894
 30
0.0
 10
18.4739
 20
180.5894
 30
0.0
  0
SPLINE
  5
123
330
1F
100
AcDbEntity
  8
Capa 1
370
    15
100
AcDbSpline
210
0.0
220
0.0
230
1.0
 70
     8
 71
     3
 72
    12
 73
     8
 74
     0
 42
0.000000001
 43
0.0000000001
 40
0.0
 40
0.0
 40
0.0
 40
0.0
 40
0.3333333333333333
 40
0.3333333333333333
 40
0.3333333333333333
 40
0.3333333333333333
 40
1.0
 40
1.0
 40
1.0
 40
1.0
 10
28.4739
 20
174.3894
 30
0.0
 10
30.1859
 20
174.3894
 30
0.0
 10
31.5738
 20
175.7773
 30
0.0
 10
31.5738
 20
177.4893
 30
0.0
 10
31.5738
 20
177.4893
 30
0.0
 10
31.5739
 20
179.2014
 30
0.0
 10
30.1859
 20
180.5893
 30
0.0
 10
28.4739
 20
180.5893
 30
0.0
  0
SPLINE
  5
124
330
1F
100
AcDbEntity
  8
Capa 1
370
    15
100
AcDbSpline
210
0.0
220
0.0
230
1.0
 70
     8
 71
     3
 72
    16
 73
    12
 74
     0
 42
0.000000001
 43
0.0000000001
 40
0.0
 40
0.0
 40
0.0
 40
0.0
 40
0.25
 40
0.25
 40
0.25
 40
0.25
 40
0.5
 40
0.5
 40
0.5
 40
0.5
 40
1.0
 40
1.0
 40
1.0
 40
1.0
 10
15.4739
 20
-153.4106
 30
0.0
 10
14.3663
 20
-153.4106
 30
0.0
 10
13.3429
 20
-154.0014
 30
0.0
 10
12.7892
 20
-154.9606
 30
0.0
 10
12.7892
 20
-154.9606
 30
0.0
 10
12.2354
 20
-155.9197
 30
0.0
 10
12.2354
 20
-157.1014
 30
0.0
 10
12.7892
 20
-158.0605
 30
0.0
 10
12.7892
 20
-158.0605
 30
0.0
 10
13.3429
 20
-159.0197
 30
0.0
 10
14.3663
 20
-159.6105
 30
0.0
 10
15.4739
 20
-159.6105
 30
0.0
  0
SPLINE
  5
125
330
1F
100
AcDbEntity
  8
Capa 1
370
    15
100
AcDbSpline
210
0.0
220
0.0
230
1.0
 70
    24
 71
     3
 72
     8
 73
     4
 74
     0
 42
0.000000001
 43
0.0000000001
 40
0.0
 40
0.0
 40
0.0
 40
0.0
 40
1.0
 40
1.0
 40
1.0
 40
1.0
 10
25.4739
 20
-153.4106
 30
0.0
 10
25.4739
 20
-153.4106
 30
0.0
 10
15.4739
 20
-153.4106
 30
0.0
 10
15.4739
 20
-153.4106
 30
0.0
  0
SPLINE
  5
126
330
1F
100
AcDbEntity
  8
Capa 1
370
    15
100
AcDbSpline
210
0.0
220
0.0
230
1.0
 70
     8
 71
     3
 72
    12
 73
     8
 74
     0
 42
0.000000001
 43
0.0000000001
 40
0.0
 40
0.0
 40
0.0
 40
0.0
 40
0.3333333333333333
 40
0.3333333333333333
 40
0.3333333333333333
 40
0.3333333333333333
 40
1.0
 40
1.0
 40
1.0
 40
1.0
 10
25.4739
 20
-159.6105
 30
0.0
 10
27.1859
 20
-159.6105
 30
0.0
 10
28.5738
 20
-158.2226
 30
0.0
 10
28.5738
 20
-156.5106
 30
0.0
 10
28.5738
 20
-156.5106
 30
0.0
 10
28.5739
 20
-154.7985
 30
0.0
 10
27.1859
 20
-153.4106
 30
0.0
 10
25.4739
 20
-153.4106
 30
0.0
  0
SPLINE
  5
127
330
1F
100
AcDbEntity
  8
Capa 1
370
    15
100
AcDbSpline
210
0.0
220
0.0
230
1.0
 70
     8
 71
     3
 72
    20
 73
    16
 74
     0
 42
0.000000001
 43
0.0000000001
 40
0.0
 40
0.0
 40
0.0
 40
0.0
 40
0.2
 40
0.2
 40
0.2
 40
0.2
 40
0.4
 40
0.4
 40
0.4
 40
0.4
 40
0.6
 40
0.6
 40
0.6
 40
0.6
 40
1.0
 40
1.0
 40
1.0
 40
1.0
 10
167.3704
 20
22.4894
 30
0.0
 10
167.3704
 20
23.373
 30
0.0
 10
166.654
 20
24.0893
 30
0.0
 10
165.7704
 20
24.0893
 30
0.0
 10
165.7704
 20
24.0893
 30
0.0
 10
164.8867
 20
24.0894
 30
0.0
 10
164.1704
 20
23.373
 30
0.0
 10
164.1704
 20
22.4894
 30
0.0
 10
164.1704
 20
22.4894
 30
0.0
 10
164.1704
 20
21.6057
 30
0.0
 10
164.8867
 20
20.8894
 30
0.0
 10
165.7704
 20
20.8894
 30
0.0
 10
165.7704
 20
20.8894
 30
0.0
 10
166.654
 20
20.8893
 30
0.0
 10
167.3704
 20
21.6057
 30
0.0
 10
167.3704
 20
22.4893
 30
0.0
  0
SPLINE
  5
128
330
1F
100
AcDbEntity
  8
Capa 1
370
    15
100
AcDbSpline
210
0.0
220
0.0
230
1.0
 70
     8
 71
     3
 72
    20
 73
    16
 74
     0
 42
0.000000001
 43
0.0000000001
 40
0.0
 40
0.0
 40
0.0
 40
0.0
 40
0.2
 40
0.2
 40
0.2
 40
0.2
 40
0.4
 40
0.4
 40
0.4
 40
0.4
 40
0.6
 40
0.6
 40
0.6
 40
0.6
 40
1.0
 40
1.0
 40
1.0
 40
1.0
 10
136.3704
 20
-8.5106
 30
0.0
 10
136.3704
 20
-7.627
 30
0.0
 10
135.654
 20
-6.9107
 30
0.0
 10
134.7704
 20
-6.9107
 30
0.0
 10
134.7704
 20
-6.9107
 30
0.0
 10
133.8867
 20
-6.9106
 30
0.0
 10
133.1704
 20
-7.627
 30
0.0
 10
133.1704
 20
-8.5106
 30
0.0
 10
133.1704
 20
-8.5106
 30
0.0
 10
133.1704
 20
-9.3943
 30
0.0
 10
133.8867
 20
-10.1105
 30
0.0
 10
134.7704
 20
-10.1105
 30
0.0
 10
134.7704
 20
-10.1105
 30
0.0
 10
135.654
 20
-10.1106
 30
0.0
 10
136.3704
 20
-9.3943
 30
0.0
 10
136.3704
 20
-8.5107
 30
0.0
  0
SPLINE
  5
129
330
1F
100
AcDbEntity
  8
Capa 1
370
    15
100
AcDbSpline
210
0.0
220
0.0
230
1.0
 70
     8
 71
     3
 72
    12
 73
     8
 74
     0
 42
0.000000001
 43
0.0000000001
 40
0.0
 40
0.0
 40
0.0
 40
0.0
 40
0.3333333333333333
 40
0.3333333333333333
 40
0.3333333333333333
 40
0.3333333333333333
 40
1.0
 40
1.0
 40
1.0
 40
1.0
 10
139.2585
 20
61.2394
 30
0.0
 10
139.2585
 20
55.1642
 30
0.0
 10
144.1833
 20
50.2394
 30
0.0
 10
150.2585
 20
50.2394
 30
0.0
 10
150.2585
 20
50.2394
 30
0.0
 10
156.3336
 20
50.2393
 30
0.0
 10
161.2585
 20
55.1642
 30
0.0
 10
161.2585
 20
61.2393
 30
0.0
  0
SPLINE
  5
12A
330
1F
100
AcDbEntity
  8
Capa 1
370
    15
100
AcDbSpline
210
0.0
220
0.0
230
1.0
 70
    24
 71
     3
 72
     8
 73
     4
 74
     0
 42
0.000000001
 43
0.0000000001
 40
0.0
 40
0.0
 40
0.0
 40
0.0
 40
1.0
 40
1.0
 40
1.0
 40
1.0
 10
139.2585
 20
65.7394
 30
0.0
 10
139.2585
 20
65.7394
 30
0.0
 10
139.2585
 20
61.2394
 30
0.0
 10
139.2585
 20
61.2394
 30
0.0
  0
SPLINE
  5
12B
330
1F
100
AcDbEntity
  8
Capa 1
370
    15
100
AcDbSpline
210
0.0
220
0.0
230
1.0
 70
     8
 71
     3
 72
    16
 73
    12
 74
     0
 42
0.000000001
 43
0.0000000001
 40
0.0
 40
0.0
 40
0.0
 40
0.0
 40
0.25
 40
0.25
 40
0.25
 40
0.25
 40
0.5
 40
0.5
 40
0.5
 40
0.5
 40
1.0
 40
1.0
 40
1.0
 40
1.0
 10
161.2585
 20
65.7394
 30
0.0
 10
161.2585
 20
69.6693
 30
0.0
 10
159.1619
 20
73.3007
 30
0.0
 10
155.7585
 20
75.2656
 30
0.0
 10
155.7585
 20
75.2656
 30
0.0
 10
152.3551
 20
77.2306
 30
0.0
 10
148.1619
 20
77.2306
 30
0.0
 10
144.7585
 20
75.2656
 30
0.0
 10
144.7585
 20
75.2656
 30
0.0
 10
141.3551
 20
73.3007
 30
0.0
 10
139.2585
 20
69.6693
 30
0.0
 10
139.2585
 20
65.7394
 30
0.0
  0
SPLINE
  5
12C
330
1F
100
AcDbEntity
  8
Capa 1
370
    15
100
AcDbSpline
210
0.0
220
0.0
230
1.0
 70
    24
 71
     3
 72
     8
 73
     4
 74
     0
 42
0.000000001
 43
0.0000000001
 40
0.0
 40
0.0
 40
0.0
 40
0.0
 40
1.0
 40
1.0
 40
1.0
 40
1.0
 10
161.2585
 20
61.2394
 30
0.0
 10
161.2585
 20
61.2394
 30
0.0
 10
161.2585
 20
65.7394
 30
0.0
 10
161.2585
 20
65.7394
 30
0.0
  0
SPLINE
  5
12D
330
1F
100
AcDbEntity
  8
Capa 1
370
    15
100
AcDbSpline
210
0.0
220
0.0
230
1.0
 70
     8
 71
     3
 72
    12
 73
     8
 74
     0
 42
0.000000001
 43
0.0000000001
 40
0.0
 40
0.0
 40
0.0
 40
0.0
 40
0.3333333333333333
 40
0.3333333333333333
 40
0.3333333333333333
 40
0.3333333333333333
 40
1.0
 40
1.0
 40
1.0
 40
1.0
 10
164.1585
 20
45.7394
 30
0.0
 10
164.1585
 20
44.8557
 30
0.0
 10
164.8748
 20
44.1394
 30
0.0
 10
165.7585
 20
44.1394
 30
0.0
 10
165.7585
 20
44.1394
 30
0.0
 10
166.6421
 20
44.1393
 30
0.0
 10
167.3585
 20
44.8557
 30
0.0
 10
167.3585
 20
45.7393
 30
0.0
  0
SPLINE
  5
12E
330
1F
100
AcDbEntity
  8
Capa 1
370
    15
100
AcDbSpline
210
0.0
220
0.0
230
1.0
 70
    24
 71
     3
 72
     8
 73
     4
 74
     0
 42
0.000000001
 43
0.0000000001
 40
0.0
 40
0.0
 40
0.0
 40
0.0
 40
1.0
 40
1.0
 40
1.0
 40
1.0
 10
164.1585
 20
45.7394
 30
0.0
 10
164.1585
 20
45.7394
 30
0.0
 10
164.1585
 20
50.2394
 30
0.0
 10
164.1585
 20
50.2394
 30
0.0
  0
SPLINE
  5
12F
330
1F
100
AcDbEntity
  8
Capa 1
370
    15
100
AcDbSpline
210
0.0
220
0.0
230
1.0
 70
     8
 71
     3
 72
    16
 73
    12
 74
     0
 42
0.000000001
 43
0.0000000001
 40
0.0
 40
0.0
 40
0.0
 40
0.0
 40
0.25
 40
0.25
 40
0.25
 40
0.25
 40
0.5
 40
0.5
 40
0.5
 40
0.5
 40
1.0
 40
1.0
 40
1.0
 40
1.0
 10
167.3585
 20
50.2394
 30
0.0
 10
167.3585
 20
50.811
 30
0.0
 10
167.0535
 20
51.3392
 30
0.0
 10
166.5585
 20
51.625
 30
0.0
 10
166.5585
 20
51.625
 30
0.0
 10
166.0635
 20
51.9108
 30
0.0
 10
165.4535
 20
51.9108
 30
0.0
 10
164.9585
 20
51.625
 30
0.0
 10
164.9585
 20
51.625
 30
0.0
 10
164.4635
 20
51.3392
 30
0.0
 10
164.1585
 20
50.811
 30
0.0
 10
164.1585
 20
50.2394
 30
0.0
  0
SPLINE
  5
130
330
1F
100
AcDbEntity
  8
Capa 1
370
    15
100
AcDbSpline
210
0.0
220
0.0
230
1.0
 70
    24
 71
     3
 72
     8
 73
     4
 74
     0
 42
0.000000001
 43
0.0000000001
 40
0.0
 40
0.0
 40
0.0
 40
0.0
 40
1.0
 40
1.0
 40
1.0
 40
1.0
 10
167.3585
 20
50.2394
 30
0.0
 10
167.3585
 20
50.2394
 30
0.0
 10
167.3585
 20
45.7394
 30
0.0
 10
167.3585
 20
45.7394
 30
0.0
  0
SPLINE
  5
131
330
1F
100
AcDbEntity
  8
Capa 1
370
    15
100
AcDbSpline
210
0.0
220
0.0
230
1.0
 70
     8
 71
     3
 72
    16
 73
    12
 74
     0
 42
0.000000001
 43
0.0000000001
 40
0.0
 40
0.0
 40
0.0
 40
0.0
 40
0.25
 40
0.25
 40
0.25
 40
0.25
 40
0.5
 40
0.5
 40
0.5
 40
0.5
 40
1.0
 40
1.0
 40
1.0
 40
1.0
 10
167.3585
 20
81.2394
 30
0.0
 10
167.3585
 20
81.811
 30
0.0
 10
167.0535
 20
82.3392
 30
0.0
 10
166.5585
 20
82.625
 30
0.0
 10
166.5585
 20
82.625
 30
0.0
 10
166.0635
 20
82.9108
 30
0.0
 10
165.4535
 20
82.9108
 30
0.0
 10
164.9585
 20
82.625
 30
0.0
 10
164.9585
 20
82.625
 30
0.0
 10
164.4635
 20
82.3392
 30
0.0
 10
164.1585
 20
81.811
 30
0.0
 10
164.1585
 20
81.2394
 30
0.0
  0
SPLINE
  5
132
330
1F
100
AcDbEntity
  8
Capa 1
370
    15
100
AcDbSpline
210
0.0
220
0.0
230
1.0
 70
    24
 71
     3
 72
     8
 73
     4
 74
     0
 42
0.000000001
 43
0.0000000001
 40
0.0
 40
0.0
 40
0.0
 40
0.0
 40
1.0
 40
1.0
 40
1.0
 40
1.0
 10
167.3585
 20
81.2394
 30
0.0
 10
167.3585
 20
81.2394
 30
0.0
 10
167.3585
 20
76.7394
 30
0.0
 10
167.3585
 20
76.7394
 30
0.0
  0
SPLINE
  5
133
330
1F
100
AcDbEntity
  8
Capa 1
370
    15
100
AcDbSpline
210
0.0
220
0.0
230
1.0
 70
     8
 71
     3
 72
    12
 73
     8
 74
     0
 42
0.000000001
 43
0.0000000001
 40
0.0
 40
0.0
 40
0.0
 40
0.0
 40
0.3333333333333333
 40
0.3333333333333333
 40
0.3333333333333333
 40
0.3333333333333333
 40
1.0
 40
1.0
 40
1.0
 40
1.0
 10
164.1585
 20
76.7394
 30
0.0
 10
164.1585
 20
75.8557
 30
0.0
 10
164.8748
 20
75.1394
 30
0.0
 10
165.7585
 20
75.1394
 30
0.0
 10
165.7585
 20
75.1394
 30
0.0
 10
166.6421
 20
75.1393
 30
0.0
 10
167.3585
 20
75.8557
 30
0.0
 10
167.3585
 20
76.7393
 30
0.0
  0
SPLINE
  5
134
330
1F
100
AcDbEntity
  8
Capa 1
370
    15
100
AcDbSpline
210
0.0
220
0.0
230
1.0
 70
    24
 71
     3
 72
     8
 73
     4
 74
     0
 42
0.000000001
 43
0.0000000001
 40
0.0
 40
0.0
 40
0.0
 40
0.0
 40
1.0
 40
1.0
 40
1.0
 40
1.0
 10
164.1585
 20
76.7394
 30
0.0
 10
164.1585
 20
76.7394
 30
0.0
 10
164.1585
 20
81.2394
 30
0.0
 10
164.1585
 20
81.2394
 30
0.0
  0
SPLINE
  5
135
330
1F
100
AcDbEntity
  8
Capa 1
370
    15
100
AcDbSpline
210
0.0
220
0.0
230
1.0
 70
     8
 71
     3
 72
    12
 73
     8
 74
     0
 42
0.000000001
 43
0.0000000001
 40
0.0
 40
0.0
 40
0.0
 40
0.0
 40
0.3333333333333333
 40
0.3333333333333333
 40
0.3333333333333333
 40
0.3333333333333333
 40
1.0
 40
1.0
 40
1.0
 40
1.0
 10
133.1585
 20
45.7394
 30
0.0
 10
133.1585
 20
44.8557
 30
0.0
 10
133.8748
 20
44.1394
 30
0.0
 10
134.7585
 20
44.1394
 30
0.0
 10
134.7585
 20
44.1394
 30
0.0
 10
135.6421
 20
44.1393
 30
0.0
 10
136.3585
 20
44.8557
 30
0.0
 10
136.3585
 20
45.7393
 30
0.0
  0
SPLINE
  5
136
330
1F
100
AcDbEntity
  8
Capa 1
370
    15
100
AcDbSpline
210
0.0
220
0.0
230
1.0
 70
    24
 71
     3
 72
     8
 73
     4
 74
     0
 42
0.000000001
 43
0.0000000001
 40
0.0
 40
0.0
 40
0.0
 40
0.0
 40
1.0
 40
1.0
 40
1.0
 40
1.0
 10
133.1585
 20
45.7394
 30
0.0
 10
133.1585
 20
45.7394
 30
0.0
 10
133.1585
 20
50.2394
 30
0.0
 10
133.1585
 20
50.2394
 30
0.0
  0
SPLINE
  5
137
330
1F
100
AcDbEntity
  8
Capa 1
370
    15
100
AcDbSpline
210
0.0
220
0.0
230
1.0
 70
     8
 71
     3
 72
    16
 73
    12
 74
     0
 42
0.000000001
 43
0.0000000001
 40
0.0
 40
0.0
 40
0.0
 40
0.0
 40
0.25
 40
0.25
 40
0.25
 40
0.25
 40
0.5
 40
0.5
 40
0.5
 40
0.5
 40
1.0
 40
1.0
 40
1.0
 40
1.0
 10
136.3585
 20
50.2394
 30
0.0
 10
136.3585
 20
50.811
 30
0.0
 10
136.0535
 20
51.3392
 30
0.0
 10
135.5585
 20
51.625
 30
0.0
 10
135.5585
 20
51.625
 30
0.0
 10
135.0635
 20
51.9108
 30
0.0
 10
134.4535
 20
51.9108
 30
0.0
 10
133.9585
 20
51.625
 30
0.0
 10
133.9585
 20
51.625
 30
0.0
 10
133.4635
 20
51.3392
 30
0.0
 10
133.1585
 20
50.811
 30
0.0
 10
133.1585
 20
50.2394
 30
0.0
  0
SPLINE
  5
138
330
1F
100
AcDbEntity
  8
Capa 1
370
    15
100
AcDbSpline
210
0.0
220
0.0
230
1.0
 70
    24
 71
     3
 72
     8
 73
     4
 74
     0
 42
0.000000001
 43
0.0000000001
 40
0.0
 40
0.0
 40
0.0
 40
0.0
 40
1.0
 40
1.0
 40
1.0
 40
1.0
 10
136.3585
 20
50.2394
 30
0.0
 10
136.3585
 20
50.2394
 30
0.0
 10
136.3585
 20
45.7394
 30
0.0
 10
136.3585
 20
45.7394
 30
0.0
  0
SPLINE
  5
139
330
1F
100
AcDbEntity
  8
Capa 1
370
    15
100
AcDbSpline
210
0.0
220
0.0
230
1.0
 70
     8
 71
     3
 72
    16
 73
    12
 74
     0
 42
0.000000001
 43
0.0000000001
 40
0.0
 40
0.0
 40
0.0
 40
0.0
 40
0.25
 40
0.25
 40
0.25
 40
0.25
 40
0.5
 40
0.5
 40
0.5
 40
0.5
 40
1.0
 40
1.0
 40
1.0
 40
1.0
 10
136.3585
 20
81.2394
 30
0.0
 10
136.3585
 20
81.811
 30
0.0
 10
136.0535
 20
82.3392
 30
0.0
 10
135.5585
 20
82.625
 30
0.0
 10
135.5585
 20
82.625
 30
0.0
 10
135.0635
 20
82.9108
 30
0.0
 10
134.4535
 20
82.9108
 30
0.0
 10
133.9585
 20
82.625
 30
0.0
 10
133.9585
 20
82.625
 30
0.0
 10
133.4635
 20
82.3392
 30
0.0
 10
133.1585
 20
81.811
 30
0.0
 10
133.1585
 20
81.2394
 30
0.0
  0
SPLINE
  5
13A
330
1F
100
AcDbEntity
  8
Capa 1
370
    15
100
AcDbSpline
210
0.0
220
0.0
230
1.0
 70
    24
 71
     3
 72
     8
 73
     4
 74
     0
 42
0.000000001
 43
0.0000000001
 40
0.0
 40
0.0
 40
0.0
 40
0.0
 40
1.0
 40
1.0
 40
1.0
 40
1.0
 10
136.3585
 20
81.2394
 30
0.0
 10
136.3585
 20
81.2394
 30
0.0
 10
136.3585
 20
76.7394
 30
0.0
 10
136.3585
 20
76.7394
 30
0.0
  0
SPLINE
  5
13B
330
1F
100
AcDbEntity
  8
Capa 1
370
    15
100
AcDbSpline
210
0.0
220
0.0
230
1.0
 70
     8
 71
     3
 72
    12
 73
     8
 74
     0
 42
0.000000001
 43
0.0000000001
 40
0.0
 40
0.0
 40
0.0
 40
0.0
 40
0.3333333333333333
 40
0.3333333333333333
 40
0.3333333333333333
 40
0.3333333333333333
 40
1.0
 40
1.0
 40
1.0
 40
1.0
 10
133.1585
 20
76.7394
 30
0.0
 10
133.1585
 20
75.8557
 30
0.0
 10
133.8748
 20
75.1394
 30
0.0
 10
134.7585
 20
75.1394
 30
0.0
 10
134.7585
 20
75.1394
 30
0.0
 10
135.6421
 20
75.1393
 30
0.0
 10
136.3585
 20
75.8557
 30
0.0
 10
136.3585
 20
76.7393
 30
0.0
  0
SPLINE
  5
13C
330
1F
100
AcDbEntity
  8
Capa 1
370
    15
100
AcDbSpline
210
0.0
220
0.0
230
1.0
 70
    24
 71
     3
 72
     8
 73
     4
 74
     0
 42
0.000000001
 43
0.0000000001
 40
0.0
 40
0.0
 40
0.0
 40
0.0
 40
1.0
 40
1.0
 40
1.0
 40
1.0
 10
133.1585
 20
76.7394
 30
0.0
 10
133.1585
 20
76.7394
 30
0.0
 10
133.1585
 20
81.2394
 30
0.0
 10
133.1585
 20
81.2394
 30
0.0
  0
SPLINE
  5
13D
330
1F
100
AcDbEntity
  8
Capa 1
370
    15
100
AcDbSpline
210
0.0
220
0.0
230
1.0
 70
     8
 71
     3
 72
    16
 73
    12
 74
     0
 42
0.000000001
 43
0.0000000001
 40
0.0
 40
0.0
 40
0.0
 40
0.0
 40
0.25
 40
0.25
 40
0.25
 40
0.25
 40
0.5
 40
0.5
 40
0.5
 40
0.5
 40
1.0
 40
1.0
 40
1.0
 40
1.0
 10
-131.8758
 20
-27.1106
 30
0.0
 10
-131.8758
 20
-23.8058
 30
0.0
 10
-133.6389
 20
-20.7522
 30
0.0
 10
-136.5009
 20
-19.0998
 30
0.0
 10
-136.5009
 20
-19.0998
 30
0.0
 10
-139.3628
 20
-17.4475
 30
0.0
 10
-142.8889
 20
-17.4475
 30
0.0
 10
-145.7509
 20
-19.0998
 30
0.0
 10
-145.7509
 20
-19.0998
 30
0.0
 10
-148.6128
 20
-20.7522
 30
0.0
 10
-150.3759
 20
-23.8058
 30
0.0
 10
-150.3759
 20
-27.1106
 30
0.0
  0
SPLINE
  5
13E
330
1F
100
AcDbEntity
  8
Capa 1
370
    15
100
AcDbSpline
210
0.0
220
0.0
230
1.0
 70
    24
 71
     3
 72
     8
 73
     4
 74
     0
 42
0.000000001
 43
0.0000000001
 40
0.0
 40
0.0
 40
0.0
 40
0.0
 40
1.0
 40
1.0
 40
1.0
 40
1.0
 10
-131.8759
 20
-27.1106
 30
0.0
 10
-131.8759
 20
-27.1106
 30
0.0
 10
-131.8759
 20
-33.1106
 30
0.0
 10
-131.8759
 20
-33.1106
 30
0.0
  0
SPLINE
  5
13F
330
1F
100
AcDbEntity
  8
Capa 1
370
    15
100
AcDbSpline
210
0.0
220
0.0
230
1.0
 70
     8
 71
     3
 72
    12
 73
     8
 74
     0
 42
0.000000001
 43
0.0000000001
 40
0.0
 40
0.0
 40
0.0
 40
0.0
 40
0.3333333333333333
 40
0.3333333333333333
 40
0.3333333333333333
 40
0.3333333333333333
 40
1.0
 40
1.0
 40
1.0
 40
1.0
 10
-150.3759
 20
-33.1106
 30
0.0
 10
-150.3759
 20
-38.2192
 30
0.0
 10
-146.2345
 20
-42.3605
 30
0.0
 10
-141.1259
 20
-42.3605
 30
0.0
 10
-141.1259
 20
-42.3605
 30
0.0
 10
-136.0173
 20
-42.3606
 30
0.0
 10
-131.8759
 20
-38.2192
 30
0.0
 10
-131.8759
 20
-33.1106
 30
0.0
  0
SPLINE
  5
140
330
1F
100
AcDbEntity
  8
Capa 1
370
    15
100
AcDbSpline
210
0.0
220
0.0
230
1.0
 70
    24
 71
     3
 72
     8
 73
     4
 74
     0
 42
0.000000001
 43
0.0000000001
 40
0.0
 40
0.0
 40
0.0
 40
0.0
 40
1.0
 40
1.0
 40
1.0
 40
1.0
 10
-150.3759
 20
-33.1106
 30
0.0
 10
-150.3759
 20
-33.1106
 30
0.0
 10
-150.3759
 20
-27.1106
 30
0.0
 10
-150.3759
 20
-27.1106
 30
0.0
  0
SPLINE
  5
141
330
1F
100
AcDbEntity
  8
Capa 1
370
    15
100
AcDbSpline
210
0.0
220
0.0
230
1.0
 70
     8
 71
     3
 72
    20
 73
    16
 74
     0
 42
0.000000001
 43
0.0000000001
 40
0.0
 40
0.0
 40
0.0
 40
0.0
 40
0.2
 40
0.2
 40
0.2
 40
0.2
 40
0.4
 40
0.4
 40
0.4
 40
0.4
 40
0.6
 40
0.6
 40
0.6
 40
0.6
 40
1.0
 40
1.0
 40
1.0
 40
1.0
 10
-150.2758
 20
143.4894
 30
0.0
 10
-150.2758
 20
147.9076
 30
0.0
 10
-153.8576
 20
151.4893
 30
0.0
 10
-158.2758
 20
151.4893
 30
0.0
 10
-158.2758
 20
151.4893
 30
0.0
 10
-162.6941
 20
151.4894
 30
0.0
 10
-166.2758
 20
147.9076
 30
0.0
 10
-166.2758
 20
143.4894
 30
0.0
 10
-166.2758
 20
143.4894
 30
0.0
 10
-166.2759
 20
139.0711
 30
0.0
 10
-162.6942
 20
135.4894
 30
0.0
 10
-158.2759
 20
135.4894
 30
0.0
 10
-158.2759
 20
135.4894
 30
0.0
 10
-153.8576
 20
135.4893
 30
0.0
 10
-150.2759
 20
139.071
 30
0.0
 10
-150.2759
 20
143.4893
 30
0.0
  0
SPLINE
  5
142
330
1F
100
AcDbEntity
  8
Capa 1
370
    15
100
AcDbSpline
210
0.0
220
0.0
230
1.0
 70
     8
 71
     3
 72
    20
 73
    16
 74
     0
 42
0.000000001
 43
0.0000000001
 40
0.0
 40
0.0
 40
0.0
 40
0.0
 40
0.2
 40
0.2
 40
0.2
 40
0.2
 40
0.4
 40
0.4
 40
0.4
 40
0.4
 40
0.6
 40
0.6
 40
0.6
 40
0.6
 40
1.0
 40
1.0
 40
1.0
 40
1.0
 10
163.2239
 20
143.4894
 30
0.0
 10
163.2239
 20
147.9076
 30
0.0
 10
159.6421
 20
151.4893
 30
0.0
 10
155.2239
 20
151.4893
 30
0.0
 10
155.2239
 20
151.4893
 30
0.0
 10
150.8056
 20
151.4894
 30
0.0
 10
147.2239
 20
147.9076
 30
0.0
 10
147.2239
 20
143.4894
 30
0.0
 10
147.2239
 20
143.4894
 30
0.0
 10
147.2238
 20
139.0711
 30
0.0
 10
150.8055
 20
135.4894
 30
0.0
 10
155.2238
 20
135.4894
 30
0.0
 10
155.2238
 20
135.4894
 30
0.0
 10
159.6421
 20
135.4893
 30
0.0
 10
163.2238
 20
139.071
 30
0.0
 10
163.2238
 20
143.4893
 30
0.0
  0
SPLINE
  5
143
330
1F
100
AcDbEntity
  8
Capa 1
 62
   250
370
    20
100
AcDbSpline
210
0.0
220
0.0
230
1.0
 70
    24
 71
     3
 72
     8
 73
     4
 74
     0
 42
0.000000001
 43
0.0000000001
 40
0.0
 40
0.0
 40
0.0
 40
0.0
 40
1.0
 40
1.0
 40
1.0
 40
1.0
 10
15.4739
 20
-159.6105
 30
0.0
 10
15.4739
 20
-159.6105
 30
0.0
 10
25.4739
 20
-159.6105
 30
0.0
 10
25.4739
 20
-159.6105
 30
0.0
  0
SPLINE
  5
144
330
1F
100
AcDbEntity
  8
Capa 1
 62
   250
370
    20
100
AcDbSpline
210
0.0
220
0.0
230
1.0
 70
    24
 71
     3
 72
     8
 73
     4
 74
     0
 42
0.000000001
 43
0.0000000001
 40
0.0
 40
0.0
 40
0.0
 40
0.0
 40
1.0
 40
1.0
 40
1.0
 40
1.0
 10
-28.5261
 20
-159.6105
 30
0.0
 10
-28.5261
 20
-159.6105
 30
0.0
 10
-18.5261
 20
-159.6105
 30
0.0
 10
-18.5261
 20
-159.6105
 30
0.0
  0
SPLINE
  5
145
330
1F
100
AcDbEntity
  8
Capa 1
 62
   250
370
    20
100
AcDbSpline
210
0.0
220
0.0
230
1.0
 70
    24
 71
     3
 72
     8
 73
     4
 74
     0
 42
0.000000001
 43
0.0000000001
 40
0.0
 40
0.0
 40
0.0
 40
0.0
 40
1.0
 40
1.0
 40
1.0
 40
1.0
 10
-31.5261
 20
174.3894
 30
0.0
 10
-31.5261
 20
174.3894
 30
0.0
 10
-21.5261
 20
174.3894
 30
0.0
 10
-21.5261
 20
174.3894
 30
0.0
  0
SPLINE
  5
146
330
1F
100
AcDbEntity
  8
Capa 1
 62
   250
370
    20
100
AcDbSpline
210
0.0
220
0.0
230
1.0
 70
    24
 71
     3
 72
     8
 73
     4
 74
     0
 42
0.000000001
 43
0.0000000001
 40
0.0
 40
0.0
 40
0.0
 40
0.0
 40
1.0
 40
1.0
 40
1.0
 40
1.0
 10
18.4739
 20
174.3894
 30
0.0
 10
18.4739
 20
174.3894
 30
0.0
 10
28.4739
 20
174.3894
 30
0.0
 10
28.4739
 20
174.3894
 30
0.0
  0
SPLINE
  5
147
330
1F
100
AcDbEntity
  8
Capa 1
 62
   250
370
    20
100
AcDbSpline
210
0.0
220
0.0
230
1.0
 70
    11
 71
     3
 72
    20
 73
    16
 74
     0
 42
0.000000001
 43
0.0000000001
 40
0.0
 40
0.0
 40
0.0
 40
0.0
 40
0.2
 40
0.2
 40
0.2
 40
0.2
 40
0.4
 40
0.4
 40
0.4
 40
0.4
 40
0.6
 40
0.6
 40
0.6
 40
0.6
 40
1.0
 40
1.0
 40
1.0
 40
1.0
 10
-158.8386
 20
-181.4082
 30
0.0
 10
-158.8386
 20
-181.4082
 30
0.0
 10
-109.8386
 20
-181.4082
 30
0.0
 10
-109.8386
 20
-181.4082
 30
0.0
 10
-109.8386
 20
-181.4082
 30
0.0
 10
-109.8386
 20
-181.4082
 30
0.0
 10
-109.8386
 20
-209.4082
 30
0.0
 10
-109.8386
 20
-209.4082
 30
0.0
 10
-109.8386
 20
-209.4082
 30
0.0
 10
-109.8386
 20
-209.4082
 30
0.0
 10
-158.8386
 20
-209.4082
 30
0.0
 10
-158.8386
 20
-209.4082
 30
0.0
 10
-158.8386
 20
-209.4082
 30
0.0
 10
-158.8386
 20
-209.4082
 30
0.0
 10
-158.8386
 20
-181.4082
 30
0.0
 10
-158.8386
 20
-181.4082
 30
0.0
  0
SPLINE
  5
148
330
1F
100
AcDbEntity
  8
Capa 1
 62
   250
370
    20
100
AcDbSpline
210
0.0
220
0.0
230
1.0
 70
    11
 71
     3
 72
    20
 73
    16
 74
     0
 42
0.000000001
 43
0.0000000001
 40
0.0
 40
0.0
 40
0.0
 40
0.0
 40
0.2
 40
0.2
 40
0.2
 40
0.2
 40
0.4
 40
0.4
 40
0.4
 40
0.4
 40
0.6
 40
0.6
 40
0.6
 40
0.6
 40
1.0
 40
1.0
 40
1.0
 40
1.0
 10
-75.3545
 20
-193.4784
 30
0.0
 10
-75.3545
 20
-193.4784
 30
0.0
 10
-63.3545
 20
-193.4784
 30
0.0
 10
-63.3545
 20
-193.4784
 30
0.0
 10
-63.3545
 20
-193.4784
 30
0.0
 10
-63.3545
 20
-193.4784
 30
0.0
 10
-63.3545
 20
-205.4784
 30
0.0
 10
-63.3545
 20
-205.4784
 30
0.0
 10
-63.3545
 20
-205.4784
 30
0.0
 10
-63.3545
 20
-205.4784
 30
0.0
 10
-75.3545
 20
-205.4784
 30
0.0
 10
-75.3545
 20
-205.4784
 30
0.0
 10
-75.3545
 20
-205.4784
 30
0.0
 10
-75.3545
 20
-205.4784
 30
0.0
 10
-75.3545
 20
-193.4784
 30
0.0
 10
-75.3545
 20
-193.4784
 30
0.0
  0
SPLINE
  5
149
330
1F
100
AcDbEntity
  8
Capa 1
 62
   250
370
    20
100
AcDbSpline
210
0.0
220
0.0
230
1.0
 70
    24
 71
     3
 72
     8
 73
     4
 74
     0
 42
0.000000001
 43
0.0000000001
 40
0.0
 40
0.0
 40
0.0
 40
0.0
 40
1.0
 40
1.0
 40
1.0
 40
1.0
 10
-139.7305
 20
183.9893
 30
0.0
 10
-139.7305
 20
183.9893
 30
0.0
 10
136.6785
 20
183.9893
 30
0.0
 10
136.6785
 20
183.9893
 30
0.0
  0
SPLINE
  5
14A
330
1F
100
AcDbEntity
  8
Capa 1
 62
   250
370
    20
100
AcDbSpline
210
0.0
220
0.0
230
1.0
 70
    24
 71
     3
 72
     8
 73
     4
 74
     0
 42
0.000000001
 43
0.0000000001
 40
0.0
 40
0.0
 40
0.0
 40
0.0
 40
1.0
 40
1.0
 40
1.0
 40
1.0
 10
-139.51
 20
-227.3458
 30
0.0
 10
-139.51
 20
-227.3458
 30
0.0
 10
136.458
 20
-227.3458
 30
0.0
 10
136.458
 20
-227.3458
 30
0.0
  0
ELLIPSE
  5
14B
330
1F
100
AcDbEntity
  8
Capa 1
 62
   250
370
    20
100
AcDbEllipse
 10
-134.376
 20
-175.4083
 30
0.0
 11
0.0
 21
1.5
 31
0.0
210
0.0
220
0.0
230
1.0
 40
1.0
 41
0.0
 42
6.283185307179586
  0
ELLIPSE
  5
14C
330
1F
100
AcDbEntity
  8
Capa 1
 62
   250
370
    20
100
AcDbEllipse
 10
-134.3012
 20
-215.4083
 30
0.0
 11
0.0
 21
1.5
 31
0.0
210
0.0
220
0.0
230
1.0
 40
1.0
 41
0.0
 42
6.283185307179586
  0
ELLIPSE
  5
14D
330
1F
100
AcDbEntity
  8
Capa 1
 62
   250
370
    20
100
AcDbEllipse
 10
-54.3596
 20
-199.4223
 30
0.0
 11
0.0
 21
1.5
 31
0.0
210
0.0
220
0.0
230
1.0
 40
1.0
 41
0.0
 42
6.283185307179586
  0
ELLIPSE
  5
14E
330
1F
100
AcDbEntity
  8
Capa 1
 62
   250
370
    20
100
AcDbEllipse
 10
-84.355
 20
-199.4129
 30
0.0
 11
0.0
 21
1.5
 31
0.0
210
0.0
220
0.0
230
1.0
 40
1.0
 41
0.0
 42
6.283185307179586
  0
ENDSEC
  0
SECTION
  2
OBJECTS
  0
DICTIONARY
  5
C
330
0
100
AcDbDictionary
281
     1
  3
ACAD_DETAILVIEWSTYLE
350
1A7
  3
ACAD_GROUP
350
D
  3
ACAD_LAYOUT
350
1A
  3
ACAD_MATERIAL
350
3B
  3
ACAD_MLEADERSTYLE
350
170
  3
ACAD_MLINESTYLE
350
17
  3
ACAD_PLOTSETTINGS
350
19
  3
ACAD_PLOTSTYLENAME
350
E
  3
ACAD_SCALELIST
350
171
  3
ACAD_SECTIONVIEWSTYLE
350
1A8
  3
ACAD_TABLESTYLE
350
16F
  3
ACAD_VISUALSTYLE
350
2A
  3
ACDB_RECOMPOSE_DATA
350
1A3
  3
AcDbVariableDictionary
350
19F
  0
DICTIONARY
  5
1A7
102
{ACAD_REACTORS
330
C
102
}
330
C
100
AcDbDictionary
281
     1
  0
DICTIONARY
  5
D
102
{ACAD_REACTORS
330
C
102
}
330
C
100
AcDbDictionary
281
     1
  0
DICTIONARY
  5
1A
102
{ACAD_REACTORS
330
C
102
}
330
C
100
AcDbDictionary
281
     1
  3
Layout1
350
1E
  3
Layout2
350
26
  3
Model
350
22
  0
DICTIONARY
  5
3B
102
{ACAD_REACTORS
330
C
102
}
330
C
100
AcDbDictionary
281
     1
  3
ByBlock
350
3D
  3
ByLayer
350
3C
  3
Global
350
3E
  0
DICTIONARY
  5
170
102
{ACAD_REACTORS
330
C
102
}
330
C
100
AcDbDictionary
281
     1
  3
Standard
350
19E
  0
DICTIONARY
  5
17
102
{ACAD_REACTORS
330
C
102
}
330
C
100
AcDbDictionary
281
     1
  3
Standard
350
18
  0
DICTIONARY
  5
19
102
{ACAD_REACTORS
330
C
102
}
330
C
100
AcDbDictionary
281
     1
  0
ACDBDICTIONARYWDFLT
  5
E
102
{ACAD_REACTORS
330
C
102
}
330
C
100
AcDbDictionary
281
     1
  3
Normal
350
F
100
AcDbDictionaryWithDefault
340
F
  0
DICTIONARY
  5
171
102
{ACAD_REACTORS
330
C
102
}
330
C
100
AcDbDictionary
281
     1
  3
A0
350
172
  3
A1
350
173
  3
A2
350
174
  3
A3
350
175
  3
A4
350
176
  3
A5
350
177
  3
A6
350
178
  3
A7
350
179
  3
A8
350
17A
  3
A9
350
17B
  3
B0
350
17C
  3
B1
350
17D
  3
B2
350
17E
  3
B3
350
17F
  3
B4
350
180
  3
B5
350
181
  3
B6
350
182
  3
B7
350
183
  3
B8
350
184
  3
B9
350
185
  3
C0
350
186
  3
C1
350
187
  3
C2
350
188
  3
C3
350
189
  3
C4
350
18A
  3
C5
350
18B
  3
C6
350
18C
  3
C7
350
18D
  3
C8
350
18E
  3
C9
350
18F
  3
D0
350
190
  3
D1
350
191
  3
D2
350
192
  0
DICTIONARY
  5
1A8
102
{ACAD_REACTORS
330
C
102
}
330
C
100
AcDbDictionary
281
     1
  0
DICTIONARY
  5
16F
102
{ACAD_REACTORS
330
C
102
}
330
C
100
AcDbDictionary
281
     1
  3
Standard
350
19D
  0
DICTIONARY
  5
2A
102
{ACAD_REACTORS
330
C
102
}
330
C
100
AcDbDictionary
281
     1
  3
2dWireframe
350
2F
  3
3D Hidden
350
31
  3
3dWireframe
350
30
  3
Basic
350
32
  3
Brighten
350
36
  3
ColorChange
350
3A
  3
Conceptual
350
34
  3
Dim
350
35
  3
EdgeColorOff
350
197
  3
Facepattern
350
39
  3
Flat
350
2B
  3
FlatWithEdges
350
2C
  3
Gouraud
350
2D
  3
GouraudWithEdges
350
2E
  3
Hidden
350
194
  3
JitterOff
350
195
  3
Linepattern
350
38
  3
OverhangOff
350
196
  3
Realistic
350
33
  3
Shaded
350
19C
  3
Shaded with edges
350
19B
  3
Shades of Gray
350
198
  3
Sketchy
350
199
  3
Thicken
350
37
  3
Wireframe
350
193
  3
X-Ray
350
19A
  0
XRECORD
  5
1A3
102
{ACAD_REACTORS
330
C
102
}
330
C
100
AcDbXrecord
280
     1
 90
        1
330
19D
  0
DICTIONARY
  5
19F
102
{ACAD_REACTORS
330
C
102
}
330
C
100
AcDbDictionary
281
     1
  3
CANNOSCALE
350
1A0
  3
CMLEADERSTYLE
350
1A5
  3
CTABLESTYLE
350
1A4
  3
XCLIPFRAME
350
1A6
  0
LAYOUT
  5
1E
102
{ACAD_REACTORS
330
1A
102
}
330
1A
100
AcDbPlotSettings
  1

  2
none_device
  4

  6

 40
0.0
 41
0.0
 42
0.0
 43
0.0
 44
0.0
 45
0.0
 46
0.0
 47
0.0
 48
0.0
 49
0.0
140
0.0
141
0.0
142
1.0
143
1.0
 70
   688
 72
     0
 73
     0
 74
     5
  7

 75
    16
 76
     0
 77
     2
 78
   300
147
1.0
148
0.0
149
0.0
100
AcDbLayout
  1
Layout1
 70
     1
 71
     1
 10
0.0
 20
0.0
 11
12.0
 21
9.0
 12
0.0
 22
0.0
 32
0.0
 14
1.000000000000000E+20
 24
1.000000000000000E+20
 34
1.000000000000000E+20
 15
-1.000000000000000E+20
 25
-1.000000000000000E+20
 35
-1.000000000000000E+20
146
0.0
 13
0.0
 23
0.0
 33
0.0
 16
1.0
 26
0.0
 36
0.0
 17
0.0
 27
1.0
 37
0.0
 76
     0
330
1B
  0
LAYOUT
  5
26
102
{ACAD_REACTORS
330
1A
102
}
330
1A
100
AcDbPlotSettings
  1

  2
none_device
  4

  6

 40
0.0
 41
0.0
 42
0.0
 43
0.0
 44
0.0
 45
0.0
 46
0.0
 47
0.0
 48
0.0
 49
0.0
140
0.0
141
0.0
142
1.0
143
1.0
 70
   688
 72
     0
 73
     0
 74
     5
  7

 75
    16
 76
     0
 77
     2
 78
   300
147
1.0
148
0.0
149
0.0
100
AcDbLayout
  1
Layout2
 70
     1
 71
     2
 10
0.0
 20
0.0
 11
0.0
 21
0.0
 12
0.0
 22
0.0
 32
0.0
 14
0.0
 24
0.0
 34
0.0
 15
0.0
 25
0.0
 35
0.0
146
0.0
 13
0.0
 23
0.0
 33
0.0
 16
1.0
 26
0.0
 36
0.0
 17
0.0
 27
1.0
 37
0.0
 76
     0
330
23
  0
LAYOUT
  5
22
102
{ACAD_REACTORS
330
1A
102
}
330
1A
100
AcDbPlotSettings
  1

  2
none_device
  4

  6

 40
0.0
 41
0.0
 42
0.0
 43
0.0
 44
0.0
 45
0.0
 46
0.0
 47
0.0
 48
0.0
 49
0.0
140
0.0
141
0.0
142
1.0
143
1.0
 70
  1712
 72
     0
 73
     0
 74
     0
  7

 75
     0
 76
     0
 77
     2
 78
   300
147
1.0
148
0.0
149
0.0
100
AcDbLayout
  1
Model
 70
     1
 71
     0
 10
0.0
 20
0.0
 11
12.0
 21
9.0
 12
0.0
 22
0.0
 32
0.0
 14
-183.7009
 24
-238.3281
 34
0.0
 15
180.6489
 25
184.0893
 35
0.0
146
0.0
 13
0.0
 23
0.0
 33
0.0
 16
1.0
 26
0.0
 36
0.0
 17
0.0
 27
1.0
 37
0.0
 76
     0
330
1F
331
29
  0
MATERIAL
  5
3D
102
{ACAD_REACTORS
330
3B
102
}
330
3B
100
AcDbMaterial
  1
ByBlock
 72
     1
 94
      127
  0
MATERIAL
  5
3C
102
{ACAD_REACTORS
330
3B
102
}
330
3B
100
AcDbMaterial
  1
ByLayer
 72
     1
 94
      127
  0
MATERIAL
  5
3E
102
{ACAD_REACTORS
330
3B
102
}
330
3B
100
AcDbMaterial
  1
Global
 72
     1
 94
      127
  0
MLEADERSTYLE
  5
19E
102
{ACAD_REACTORS
330
170
102
}
330
170
100
AcDbMLeaderStyle
179
     2
170
     2
171
     1
172
     0
 90
        2
 40
0.0
 41
0.0
173
     1
 91
-1056964608
340
14
 92
       -2
290
     1
 42
0.09
291
     1
 43
0.36
  3
Standard
341
0
 44
0.18
300

342
11
174
     1
178
     6
175
     1
176
     0
 93
-1056964608
 45
0.18
292
     0
297
     0
 46
0.18
343
0
 94
-1056964608
 47
1.0
 49
1.0
140
1.0
293
     1
141
0.0
294
     1
177
     0
142
1.0
295
     0
296
     0
143
0.125
271
     0
272
     9
273
     9
298
     0
  0
MLINESTYLE
  5
18
102
{ACAD_REACTORS
330
17
102
}
330
17
100
AcDbMlineStyle
  2
Standard
 70
     0
  3

 62
   256
 51
90.0
 52
90.0
 71
     2
 49
0.5
 62
   256
  6
BYLAYER
 49
-0.5
 62
   256
  6
BYLAYER
  0
ACDBPLACEHOLDER
  5
F
102
{ACAD_REACTORS
330
E
102
}
330
E
  0
SCALE
  5
172
102
{ACAD_REACTORS
330
171
102
}
330
171
100
AcDbScale
 70
     0
300
1:1
140
1.0
141
1.0
290
     1
  0
SCALE
  5
173
102
{ACAD_REACTORS
330
171
102
}
330
171
100
AcDbScale
 70
     0
300
1:2
140
1.0
141
2.0
290
     0
  0
SCALE
  5
174
102
{ACAD_REACTORS
330
171
102
}
330
171
100
AcDbScale
 70
     0
300
1:4
140
1.0
141
4.0
290
     0
  0
SCALE
  5
175
102
{ACAD_REACTORS
330
171
102
}
330
171
100
AcDbScale
 70
     0
300
1:5
140
1.0
141
5.0
290
     0
  0
SCALE
  5
176
102
{ACAD_REACTORS
330
171
102
}
330
171
100
AcDbScale
 70
     0
300
1:8
140
1.0
141
8.0
290
     0
  0
SCALE
  5
177
102
{ACAD_REACTORS
330
171
102
}
330
171
100
AcDbScale
 70
     0
300
1:10
140
1.0
141
10.0
290
     0
  0
SCALE
  5
178
102
{ACAD_REACTORS
330
171
102
}
330
171
100
AcDbScale
 70
     0
300
1:16
140
1.0
141
16.0
290
     0
  0
SCALE
  5
179
102
{ACAD_REACTORS
330
171
102
}
330
171
100
AcDbScale
 70
     0
300
1:20
140
1.0
141
20.0
290
     0
  0
SCALE
  5
17A
102
{ACAD_REACTORS
330
171
102
}
330
171
100
AcDbScale
 70
     0
300
1:30
140
1.0
141
30.0
290
     0
  0
SCALE
  5
17B
102
{ACAD_REACTORS
330
171
102
}
330
171
100
AcDbScale
 70
     0
300
1:40
140
1.0
141
40.0
290
     0
  0
SCALE
  5
17C
102
{ACAD_REACTORS
330
171
102
}
330
171
100
AcDbScale
 70
     0
300
1:50
140
1.0
141
50.0
290
     0
  0
SCALE
  5
17D
102
{ACAD_REACTORS
330
171
102
}
330
171
100
AcDbScale
 70
     0
300
1:100
140
1.0
141
100.0
290
     0
  0
SCALE
  5
17E
102
{ACAD_REACTORS
330
171
102
}
330
171
100
AcDbScale
 70
     0
300
2:1
140
2.0
141
1.0
290
     0
  0
SCALE
  5
17F
102
{ACAD_REACTORS
330
171
102
}
330
171
100
AcDbScale
 70
     0
300
4:1
140
4.0
141
1.0
290
     0
  0
SCALE
  5
180
102
{ACAD_REACTORS
330
171
102
}
330
171
100
AcDbScale
 70
     0
300
8:1
140
8.0
141
1.0
290
     0
  0
SCALE
  5
181
102
{ACAD_REACTORS
330
171
102
}
330
171
100
AcDbScale
 70
     0
300
10:1
140
10.0
141
1.0
290
     0
  0
SCALE
  5
182
102
{ACAD_REACTORS
330
171
102
}
330
171
100
AcDbScale
 70
     0
300
100:1
140
100.0
141
1.0
290
     0
  0
SCALE
  5
183
102
{ACAD_REACTORS
330
171
102
}
330
171
100
AcDbScale
 70
     0
300
1/128" = 1'-0"
140
0.0078125
141
12.0
290
     0
  0
SCALE
  5
184
102
{ACAD_REACTORS
330
171
102
}
330
171
100
AcDbScale
 70
     0
300
1/64" = 1'-0"
140
0.015625
141
12.0
290
     0
  0
SCALE
  5
185
102
{ACAD_REACTORS
330
171
102
}
330
171
100
AcDbScale
 70
     0
300
1/32" = 1'-0"
140
0.03125
141
12.0
290
     0
  0
SCALE
  5
186
102
{ACAD_REACTORS
330
171
102
}
330
171
100
AcDbScale
 70
     0
300
1/16" = 1'-0"
140
0.0625
141
12.0
290
     0
  0
SCALE
  5
187
102
{ACAD_REACTORS
330
171
102
}
330
171
100
AcDbScale
 70
     0
300
3/32" = 1'-0"
140
0.09375
141
12.0
290
     0
  0
SCALE
  5
188
102
{ACAD_REACTORS
330
171
102
}
330
171
100
AcDbScale
 70
     0
300
1/8" = 1'-0"
140
0.125
141
12.0
290
     0
  0
SCALE
  5
189
102
{ACAD_REACTORS
330
171
102
}
330
171
100
AcDbScale
 70
     0
300
3/16" = 1'-0"
140
0.1875
141
12.0
290
     0
  0
SCALE
  5
18A
102
{ACAD_REACTORS
330
171
102
}
330
171
100
AcDbScale
 70
     0
300
1/4" = 1'-0"
140
0.25
141
12.0
290
     0
  0
SCALE
  5
18B
102
{ACAD_REACTORS
330
171
102
}
330
171
100
AcDbScale
 70
     0
300
3/8" = 1'-0"
140
0.375
141
12.0
290
     0
  0
SCALE
  5
18C
102
{ACAD_REACTORS
330
171
102
}
330
171
100
AcDbScale
 70
     0
300
1/2" = 1'-0"
140
0.5
141
12.0
290
     0
  0
SCALE
  5
18D
102
{ACAD_REACTORS
330
171
102
}
330
171
100
AcDbScale
 70
     0
300
3/4" = 1'-0"
140
0.75
141
12.0
290
     0
  0
SCALE
  5
18E
102
{ACAD_REACTORS
330
171
102
}
330
171
100
AcDbScale
 70
     0
300
1" = 1'-0"
140
1.0
141
12.0
290
     0
  0
SCALE
  5
18F
102
{ACAD_REACTORS
330
171
102
}
330
171
100
AcDbScale
 70
     0
300
1-1/2" = 1'-0"
140
1.5
141
12.0
290
     0
  0
SCALE
  5
190
102
{ACAD_REACTORS
330
171
102
}
330
171
100
AcDbScale
 70
     0
300
3" = 1'-0"
140
3.0
141
12.0
290
     0
  0
SCALE
  5
191
102
{ACAD_REACTORS
330
171
102
}
330
171
100
AcDbScale
 70
     0
300
6" = 1'-0"
140
6.0
141
12.0
290
     0
  0
SCALE
  5
192
102
{ACAD_REACTORS
330
171
102
}
330
171
100
AcDbScale
 70
     0
300
1'-0" = 1'-0"
140
12.0
141
12.0
290
     0
  0
TABLESTYLE
  5
19D
102
{ACAD_REACTORS
330
16F
102
}
102
{ACAD_XDICTIONARY
360
1A1
102
}
330
16F
100
AcDbTableStyle
  3
Standard
 70
     0
 71
     0
 40
0.06
 41
0.06
280
     0
281
     0
  7
Standard
140
0.18
170
     2
 62
     0
 63
   257
283
     0
 90
        4
 91
        0
  1

274
    -2
284
     1
 64
     0
275
    -2
285
     1
 65
     0
276
    -2
286
     1
 66
     0
277
    -2
287
     1
 67
     0
278
    -2
288
     1
 68
     0
279
    -2
289
     1
 69
     0
  7
Standard
140
0.25
170
     5
 62
     0
 63
   257
283
     0
 90
        4
 91
        0
  1

274
    -2
284
     1
 64
     0
275
    -2
285
     1
 65
     0
276
    -2
286
     1
 66
     0
277
    -2
287
     1
 67
     0
278
    -2
288
     1
 68
     0
279
    -2
289
     1
 69
     0
  7
Standard
140
0.18
170
     5
 62
     0
 63
   257
283
     0
 90
        4
 91
        0
  1

274
    -2
284
     1
 64
     0
275
    -2
285
     1
 65
     0
276
    -2
286
     1
 66
     0
277
    -2
287
     1
 67
     0
278
    -2
288
     1
 68
     0
279
    -2
289
     1
 69
     0
  0
VISUALSTYLE
  5
2F
102
{ACAD_REACTORS
330
2A
102
}
330
2A
100
AcDbVisualStyle
  2
2dWireframe
 70
     4
177
     3
291
     0
 70
    58
 90
        0
176
     1
 90
        2
176
     1
 90
        0
176
     1
 90
        0
176
     1
 40
-0.6
176
     1
 40
-30.0
176
     1
 62
     7
420
 16777215
176
     1
 90
        1
176
     1
 90
        4
176
     1
 62
     7
176
     1
 62
   257
176
     1
 90
        1
176
     1
 90
        1
176
     1
 40
1.0
176
     1
 90
        0
176
     1
 62
   257
176
     1
 40
1.0
176
     1
 90
        1
176
     1
 90
        6
176
     1
 90
        2
176
     1
 62
     7
176
     1
 90
        5
176
     1
 90
        0
176
     1
 90
        0
176
     1
290
     0
176
     1
 90
        1
176
     1
 40
0.0
176
     1
 90
        0
176
     1
290
     1
176
     1
290
     1
176
     1
290
     0
176
     1
290
     0
176
     1
290
     0
176
     1
290
     0
176
     1
290
     0
176
     1
290
     0
176
     1
290
     0
176
     1
 90
       50
176
     1
 40
0.0
176
     1
 40
1.0
176
     1
 90
        0
176
     1
 62
   178
420
        0
176
     1
 90
       50
176
     1
 90
        3
176
     1
 62
     5
420
      255
176
     1
290
     0
176
     1
 90
       50
176
     1
 90
       50
176
     1
 90
       50
176
     1
290
     0
176
     1
 90
       50
176
     1
 62
   256
176
     0
 40
1.0
176
     0
 90
        2
176
     1
  1
strokes_ogs.tif
176
     1
290
     0
176
     1
 40
1.0
176
     1
 40
1.0
176
     1
  0
VISUALSTYLE
  5
31
102
{ACAD_REACTORS
330
2A
102
}
330
2A
100
AcDbVisualStyle
  2
3D Hidden
 70
     6
177
     3
291
     0
 70
    58
 90
        1
176
     1
 90
        2
176
     1
 90
        2
176
     1
 90
        0
176
     1
 40
-0.6
176
     1
 40
-30.0
176
     1
 62
     7
420
 16777215
176
     1
 90
        2
176
     1
 90
        2
176
     1
 62
     7
176
     1
 62
   257
176
     1
 90
        2
176
     1
 90
        1
176
     1
 40
40.0
176
     1
 90
        0
176
     1
 62
   257
176
     1
 40
1.0
176
     1
 90
        1
176
     1
 90
        6
176
     1
 90
        2
176
     1
 62
     7
176
     1
 90
        3
176
     1
 90
        0
176
     1
 90
        0
176
     1
290
     0
176
     1
 90
        1
176
     1
 40
0.0
176
     1
 90
        0
176
     1
290
     0
176
     1
290
     1
176
     1
290
     1
176
     1
290
     0
176
     1
290
     0
176
     1
290
     0
176
     1
290
     0
176
     1
290
     0
176
     1
290
     0
176
     1
 90
       50
176
     1
 40
0.0
176
     1
 40
1.0
176
     1
 90
        0
176
     1
 62
   178
420
        0
176
     1
 90
       50
176
     1
 90
        3
176
     1
 62
     5
420
      255
176
     1
290
     0
176
     1
 90
       50
176
     1
 90
       50
176
     1
 90
       50
176
     1
290
     0
176
     1
 90
       50
176
     1
 62
   256
176
     0
 40
1.0
176
     0
 90
        2
176
     1
  1
strokes_ogs.tif
176
     1
290
     0
176
     1
 40
1.0
176
     1
 40
1.0
176
     1
  0
VISUALSTYLE
  5
30
102
{ACAD_REACTORS
330
2A
102
}
330
2A
100
AcDbVisualStyle
  2
3dWireframe
 70
     5
177
     3
291
     0
 70
    58
 90
        0
176
     1
 90
        2
176
     1
 90
        0
176
     1
 90
        0
176
     1
 40
-0.6
176
     1
 40
-30.0
176
     1
 62
     7
420
 16777215
176
     1
 90
        1
176
     1
 90
        4
176
     1
 62
     7
176
     1
 62
   257
176
     1
 90
        1
176
     1
 90
        1
176
     1
 40
1.0
176
     1
 90
        0
176
     1
 62
   257
176
     1
 40
1.0
176
     1
 90
        1
176
     1
 90
        6
176
     1
 90
        2
176
     1
 62
     7
176
     1
 90
        5
176
     1
 90
        0
176
     1
 90
        0
176
     1
290
     0
176
     1
 90
        1
176
     1
 40
0.0
176
     1
 90
        0
176
     1
290
     0
176
     1
290
     1
176
     1
290
     1
176
     1
290
     0
176
     1
290
     0
176
     1
290
     0
176
     1
290
     0
176
     1
290
     0
176
     1
290
     0
176
     1
 90
       50
176
     1
 40
0.0
176
     1
 40
1.0
176
     1
 90
        0
176
     1
 62
   178
420
        0
176
     1
 90
       50
176
     1
 90
        3
176
     1
 62
     5
420
      255
176
     1
290
     0
176
     1
 90
       50
176
     1
 90
       50
176
     1
 90
       50
176
     1
290
     0
176
     1
 90
       50
176
     1
 62
   256
176
     0
 40
1.0
176
     0
 90
        2
176
     1
  1
strokes_ogs.tif
176
     1
290
     0
176
     1
 40
1.0
176
     1
 40
1.0
176
     1
  0
VISUALSTYLE
  5
32
102
{ACAD_REACTORS
330
2A
102
}
330
2A
100
AcDbVisualStyle
  2
Basic
 70
     7
177
     3
291
     1
 70
    58
 90
        1
176
     1
 90
        0
176
     1
 90
        1
176
     1
 90
        0
176
     1
 40
-0.6
176
     1
 40
-30.0
176
     1
 62
     7
420
 16777215
176
     1
 90
        0
176
     1
 90
        4
176
     1
 62
     7
176
     1
 62
   257
176
     1
 90
        1
176
     1
 90
        1
176
     1
 40
1.0
176
     1
 90
        8
176
     1
 62
     7
176
     1
 40
1.0
176
     1
 90
        1
176
     1
 90
        6
176
     1
 90
        2
176
     1
 62
     7
176
     1
 90
        5
176
     1
 90
        0
176
     1
 90
        0
176
     1
290
     0
176
     1
 90
        1
176
     1
 40
0.0
176
     1
 90
        0
176
     1
290
     0
176
     1
290
     1
176
     1
290
     1
176
     1
290
     0
176
     1
290
     0
176
     1
290
     0
176
     1
290
     0
176
     1
290
     0
176
     1
290
     0
176
     1
 90
       50
176
     1
 40
0.0
176
     1
 40
1.0
176
     1
 90
        0
176
     1
 62
   178
420
        0
176
     1
 90
       50
176
     1
 90
        3
176
     1
 62
     5
420
      255
176
     1
290
     0
176
     1
 90
       50
176
     1
 90
       50
176
     1
 90
       50
176
     1
290
     0
176
     1
 90
       50
176
     1
 62
   256
176
     0
 40
1.0
176
     0
 90
        2
176
     1
  1
strokes_ogs.tif
176
     1
290
     0
176
     1
 40
1.0
176
     1
 40
1.0
176
     1
  0
VISUALSTYLE
  5
36
102
{ACAD_REACTORS
330
2A
102
}
330
2A
100
AcDbVisualStyle
  2
Brighten
 70
    12
177
     3
291
     1
 70
    58
 90
        2
176
     1
 90
        2
176
     1
 90
        0
176
     1
 90
        0
176
     1
 40
-0.6
176
     1
 40
-30.0
176
     1
 62
     7
420
 16777215
176
     1
 90
        1
176
     1
 90
        4
176
     1
 62
     7
176
     1
 62
   257
176
     1
 90
        1
176
     1
 90
        1
176
     1
 40
1.0
176
     1
 90
        8
176
     1
 62
     7
176
     1
 40
1.0
176
     1
 90
        1
176
     1
 90
        6
176
     1
 90
        2
176
     1
 62
     7
176
     1
 90
        5
176
     1
 90
        0
176
     1
 90
        0
176
     1
290
     0
176
     1
 90
        1
176
     1
 40
50.0
176
     1
 90
        0
176
     1
290
     0
176
     1
290
     1
176
     1
290
     1
176
     1
290
     0
176
     1
290
     0
176
     1
290
     0
176
     1
290
     0
176
     1
290
     0
176
     1
290
     0
176
     1
 90
       50
176
     1
 40
0.0
176
     1
 40
1.0
176
     1
 90
        0
176
     1
 62
   178
420
        0
176
     1
 90
       50
176
     1
 90
        3
176
     1
 62
     5
420
      255
176
     1
290
     0
176
     1
 90
       50
176
     1
 90
       50
176
     1
 90
       50
176
     1
290
     0
176
     1
 90
       50
176
     1
 62
   256
176
     0
 40
1.0
176
     0
 90
        2
176
     1
  1
strokes_ogs.tif
176
     1
290
     0
176
     1
 40
1.0
176
     1
 40
1.0
176
     1
  0
VISUALSTYLE
  5
3A
102
{ACAD_REACTORS
330
2A
102
}
330
2A
100
AcDbVisualStyle
  2
ColorChange
 70
    16
177
     3
291
     1
 70
    58
 90
        2
176
     1
 90
        2
176
     1
 90
        3
176
     1
 90
        0
176
     1
 40
-0.6
176
     1
 40
-30.0
176
     1
 62
     8
420
  8421504
176
     1
 90
        1
176
     1
 90
        4
176
     1
 62
     7
176
     1
 62
   257
176
     1
 90
        1
176
     1
 90
        1
176
     1
 40
1.0
176
     1
 90
        8
176
     1
 62
     8
420
  8421504
176
     1
 40
1.0
176
     1
 90
        1
176
     1
 90
        6
176
     1
 90
        2
176
     1
 62
     7
176
     1
 90
        5
176
     1
 90
        0
176
     1
 90
        0
176
     1
290
     0
176
     1
 90
        1
176
     1
 40
0.0
176
     1
 90
        0
176
     1
290
     0
176
     1
290
     1
176
     1
290
     1
176
     1
290
     0
176
     1
290
     0
176
     1
290
     0
176
     1
290
     0
176
     1
290
     0
176
     1
290
     0
176
     1
 90
       50
176
     1
 40
0.0
176
     1
 40
1.0
176
     1
 90
        0
176
     1
 62
   178
420
        0
176
     1
 90
       50
176
     1
 90
        3
176
     1
 62
     5
420
      255
176
     1
290
     0
176
     1
 90
       50
176
     1
 90
       50
176
     1
 90
       50
176
     1
290
     0
176
     1
 90
       50
176
     1
 62
   256
176
     0
 40
1.0
176
     0
 90
        2
176
     1
  1
strokes_ogs.tif
176
     1
290
     0
176
     1
 40
1.0
176
     1
 40
1.0
176
     1
  0
VISUALSTYLE
  5
34
102
{ACAD_REACTORS
330
2A
102
}
330
2A
100
AcDbVisualStyle
  2
Conceptual
 70
     9
177
     3
291
     0
 70
    58
 90
        3
176
     1
 90
        2
176
     1
 90
        0
176
     1
 90
        0
176
     1
 40
-0.6
176
     1
 40
-30.0
176
     1
 62
     7
420
 16777215
176
     1
 90
        2
176
     1
 90
        2
176
     1
 62
     7
176
     1
 62
   257
176
     1
 90
        1
176
     1
 90
        1
176
     1
 40
40.0
176
     1
 90
        8
176
     1
 62
     7
176
     1
 40
1.0
176
     1
 90
        1
176
     1
 90
        6
176
     1
 90
        2
176
     1
 62
     7
176
     1
 90
        3
176
     1
 90
        0
176
     1
 90
        0
176
     1
290
     0
176
     1
 90
        1
176
     1
 40
0.0
176
     1
 90
        0
176
     1
290
     0
176
     1
290
     1
176
     1
290
     1
176
     1
290
     0
176
     1
290
     0
176
     1
290
     0
176
     1
290
     0
176
     1
290
     0
176
     1
290
     0
176
     1
 90
       50
176
     1
 40
0.0
176
     1
 40
1.0
176
     1
 90
        0
176
     1
 62
   178
420
        0
176
     1
 90
       50
176
     1
 90
        3
176
     1
 62
     5
420
      255
176
     1
290
     0
176
     1
 90
       50
176
     1
 90
       50
176
     1
 90
       50
176
     1
290
     0
176
     1
 90
       50
176
     1
 62
   256
176
     0
 40
1.0
176
     0
 90
        2
176
     1
  1
strokes_ogs.tif
176
     1
290
     0
176
     1
 40
1.0
176
     1
 40
1.0
176
     1
  0
VISUALSTYLE
  5
35
102
{ACAD_REACTORS
330
2A
102
}
330
2A
100
AcDbVisualStyle
  2
Dim
 70
    11
177
     3
291
     1
 70
    58
 90
        2
176
     1
 90
        2
176
     1
 90
        0
176
     1
 90
        0
176
     1
 40
-0.6
176
     1
 40
-30.0
176
     1
 62
     7
420
 16777215
176
     1
 90
        1
176
     1
 90
        4
176
     1
 62
     7
176
     1
 62
   257
176
     1
 90
        1
176
     1
 90
        1
176
     1
 40
1.0
176
     1
 90
        8
176
     1
 62
     7
176
     1
 40
1.0
176
     1
 90
        1
176
     1
 90
        6
176
     1
 90
        2
176
     1
 62
     7
176
     1
 90
        5
176
     1
 90
        0
176
     1
 90
        0
176
     1
290
     0
176
     1
 90
        1
176
     1
 40
-50.0
176
     1
 90
        0
176
     1
290
     0
176
     1
290
     1
176
     1
290
     1
176
     1
290
     0
176
     1
290
     0
176
     1
290
     0
176
     1
290
     0
176
     1
290
     0
176
     1
290
     0
176
     1
 90
       50
176
     1
 40
0.0
176
     1
 40
1.0
176
     1
 90
        0
176
     1
 62
   178
420
        0
176
     1
 90
       50
176
     1
 90
        3
176
     1
 62
     5
420
      255
176
     1
290
     0
176
     1
 90
       50
176
     1
 90
       50
176
     1
 90
       50
176
     1
290
     0
176
     1
 90
       50
176
     1
 62
   256
176
     0
 40
1.0
176
     0
 90
        2
176
     1
  1
strokes_ogs.tif
176
     1
290
     0
176
     1
 40
1.0
176
     1
 40
1.0
176
     1
  0
VISUALSTYLE
  5
197
102
{ACAD_REACTORS
330
2A
102
}
330
2A
100
AcDbVisualStyle
  2
EdgeColorOff
 70
    22
177
     3
291
     1
 70
    58
 90
        2
176
     0
 90
        2
176
     0
 90
        0
176
     0
 90
        0
176
     0
 40
0.6
176
     0
 40
30.0
176
     0
 62
     7
420
 16777215
176
     0
 90
        1
176
     0
 90
        4
176
     0
 62
     7
176
     0
 62
   257
176
     0
 90
        1
176
     0
 90
        1
176
     0
 40
1.0
176
     0
 90
        8
176
     2
 62
     7
176
     0
 40
1.0
176
     0
 90
        1
176
     0
 90
        6
176
     0
 90
        2
176
     0
 62
     7
176
     0
 90
        5
176
     0
 90
        0
176
     0
 90
        0
176
     0
290
     0
176
     0
 90
        1
176
     0
 40
0.0
176
     0
 90
        0
176
     0
290
     0
176
     0
290
     1
176
     0
290
     1
176
     0
290
     0
176
     0
290
     0
176
     0
290
     0
176
     0
290
     0
176
     0
290
     0
176
     0
290
     0
176
     0
 90
       50
176
     0
 40
0.0
176
     0
 40
1.0
176
     0
 90
        0
176
     0
 62
   178
420
        0
176
     0
 90
       50
176
     0
 90
        3
176
     0
 62
     5
420
      255
176
     0
290
     0
176
     0
 90
       50
176
     0
 90
       50
176
     0
 90
       50
176
     0
290
     0
176
     0
 90
       50
176
     0
 62
   256
176
     0
 40
1.0
176
     0
 90
        2
176
     0
  1
strokes_ogs.tif
176
     0
290
     0
176
     0
 40
1.0
176
     0
 40
1.0
176
     0
  0
VISUALSTYLE
  5
39
102
{ACAD_REACTORS
330
2A
102
}
330
2A
100
AcDbVisualStyle
  2
Facepattern
 70
    15
177
     3
291
     1
 70
    58
 90
        2
176
     1
 90
        2
176
     1
 90
        0
176
     1
 90
        0
176
     1
 40
-0.6
176
     1
 40
-30.0
176
     1
 62
     7
420
 16777215
176
     1
 90
        1
176
     1
 90
        4
176
     1
 62
     7
176
     1
 62
   257
176
     1
 90
        1
176
     1
 90
        1
176
     1
 40
1.0
176
     1
 90
        8
176
     1
 62
     7
176
     1
 40
1.0
176
     1
 90
        1
176
     1
 90
        6
176
     1
 90
        2
176
     1
 62
     7
176
     1
 90
        5
176
     1
 90
        0
176
     1
 90
        0
176
     1
290
     0
176
     1
 90
        1
176
     1
 40
0.0
176
     1
 90
        0
176
     1
290
     0
176
     1
290
     1
176
     1
290
     1
176
     1
290
     0
176
     1
290
     0
176
     1
290
     0
176
     1
290
     0
176
     1
290
     0
176
     1
290
     0
176
     1
 90
       50
176
     1
 40
0.0
176
     1
 40
1.0
176
     1
 90
        0
176
     1
 62
   178
420
        0
176
     1
 90
       50
176
     1
 90
        3
176
     1
 62
     5
420
      255
176
     1
290
     0
176
     1
 90
       50
176
     1
 90
       50
176
     1
 90
       50
176
     1
290
     0
176
     1
 90
       50
176
     1
 62
   256
176
     0
 40
1.0
176
     0
 90
        2
176
     1
  1
strokes_ogs.tif
176
     1
290
     0
176
     1
 40
1.0
176
     1
 40
1.0
176
     1
  0
VISUALSTYLE
  5
2B
102
{ACAD_REACTORS
330
2A
102
}
330
2A
100
AcDbVisualStyle
  2
Flat
 70
     0
177
     3
291
     1
 70
    58
 90
        2
176
     1
 90
        1
176
     1
 90
        1
176
     1
 90
        2
176
     1
 40
-0.6
176
     1
 40
30.0
176
     1
 62
     7
420
 16777215
176
     1
 90
        0
176
     1
 90
        4
176
     1
 62
     7
176
     1
 62
   257
176
     1
 90
        1
176
     1
 90
        1
176
     1
 40
1.0
176
     1
 90
        8
176
     1
 62
     7
176
     1
 40
1.0
176
     1
 90
        1
176
     1
 90
        6
176
     1
 90
        2
176
     1
 62
     7
176
     1
 90
        5
176
     1
 90
        0
176
     1
 90
        0
176
     1
290
     0
176
     1
 90
       13
176
     1
 40
0.0
176
     1
 90
        0
176
     1
290
     0
176
     1
290
     1
176
     1
290
     1
176
     1
290
     0
176
     1
290
     0
176
     1
290
     0
176
     1
290
     0
176
     1
290
     0
176
     1
290
     0
176
     1
 90
       50
176
     1
 40
0.0
176
     1
 40
1.0
176
     1
 90
        0
176
     1
 62
   178
420
        0
176
     1
 90
       50
176
     1
 90
        3
176
     1
 62
     5
420
      255
176
     1
290
     0
176
     1
 90
       50
176
     1
 90
       50
176
     1
 90
       50
176
     1
290
     0
176
     1
 90
       50
176
     1
 62
   256
176
     0
 40
1.0
176
     0
 90
        2
176
     1
  1
strokes_ogs.tif
176
     1
290
     0
176
     1
 40
1.0
176
     1
 40
1.0
176
     1
  0
VISUALSTYLE
  5
2C
102
{ACAD_REACTORS
330
2A
102
}
330
2A
100
AcDbVisualStyle
  2
FlatWithEdges
 70
     1
177
     3
291
     1
 70
    58
 90
        2
176
     1
 90
        1
176
     1
 90
        1
176
     1
 90
        2
176
     1
 40
-0.6
176
     1
 40
30.0
176
     1
 62
     7
420
 16777215
176
     1
 90
        1
176
     1
 90
        4
176
     1
 62
     7
176
     1
 62
   257
176
     1
 90
        1
176
     1
 90
        1
176
     1
 40
1.0
176
     1
 90
        0
176
     1
 62
   257
176
     1
 40
1.0
176
     1
 90
        1
176
     1
 90
        6
176
     1
 90
        2
176
     1
 62
     7
176
     1
 90
        5
176
     1
 90
        0
176
     1
 90
        0
176
     1
290
     0
176
     1
 90
       13
176
     1
 40
0.0
176
     1
 90
        0
176
     1
290
     0
176
     1
290
     1
176
     1
290
     1
176
     1
290
     0
176
     1
290
     0
176
     1
290
     0
176
     1
290
     0
176
     1
290
     0
176
     1
290
     0
176
     1
 90
       50
176
     1
 40
0.0
176
     1
 40
1.0
176
     1
 90
        0
176
     1
 62
   178
420
        0
176
     1
 90
       50
176
     1
 90
        3
176
     1
 62
     5
420
      255
176
     1
290
     0
176
     1
 90
       50
176
     1
 90
       50
176
     1
 90
       50
176
     1
290
     0
176
     1
 90
       50
176
     1
 62
   256
176
     0
 40
1.0
176
     0
 90
        2
176
     1
  1
strokes_ogs.tif
176
     1
290
     0
176
     1
 40
1.0
176
     1
 40
1.0
176
     1
  0
VISUALSTYLE
  5
2D
102
{ACAD_REACTORS
330
2A
102
}
330
2A
100
AcDbVisualStyle
  2
Gouraud
 70
     2
177
     3
291
     1
 70
    58
 90
        2
176
     1
 90
        2
176
     1
 90
        1
176
     1
 90
        2
176
     1
 40
-0.6
176
     1
 40
30.0
176
     1
 62
     7
420
 16777215
176
     1
 90
        0
176
     1
 90
        4
176
     1
 62
     7
176
     1
 62
   257
176
     1
 90
        1
176
     1
 90
        1
176
     1
 40
1.0
176
     1
 90
        0
176
     1
 62
     7
176
     1
 40
1.0
176
     1
 90
        1
176
     1
 90
        6
176
     1
 90
        2
176
     1
 62
     7
176
     1
 90
        5
176
     1
 90
        0
176
     1
 90
        0
176
     1
290
     0
176
     1
 90
       13
176
     1
 40
0.0
176
     1
 90
        0
176
     1
290
     0
176
     1
290
     1
176
     1
290
     1
176
     1
290
     0
176
     1
290
     0
176
     1
290
     0
176
     1
290
     0
176
     1
290
     0
176
     1
290
     0
176
     1
 90
       50
176
     1
 40
0.0
176
     1
 40
1.0
176
     1
 90
        0
176
     1
 62
   178
420
        0
176
     1
 90
       50
176
     1
 90
        3
176
     1
 62
     5
420
      255
176
     1
290
     0
176
     1
 90
       50
176
     1
 90
       50
176
     1
 90
       50
176
     1
290
     0
176
     1
 90
       50
176
     1
 62
   256
176
     0
 40
1.0
176
     0
 90
        2
176
     1
  1
strokes_ogs.tif
176
     1
290
     0
176
     1
 40
1.0
176
     1
 40
1.0
176
     1
  0
VISUALSTYLE
  5
2E
102
{ACAD_REACTORS
330
2A
102
}
330
2A
100
AcDbVisualStyle
  2
GouraudWithEdges
 70
     3
177
     3
291
     1
 70
    58
 90
        2
176
     1
 90
        2
176
     1
 90
        1
176
     1
 90
        2
176
     1
 40
-0.6
176
     1
 40
30.0
176
     1
 62
     7
420
 16777215
176
     1
 90
        1
176
     1
 90
        4
176
     1
 62
     7
176
     1
 62
   257
176
     1
 90
        1
176
     1
 90
        1
176
     1
 40
1.0
176
     1
 90
        0
176
     1
 62
   257
176
     1
 40
1.0
176
     1
 90
        1
176
     1
 90
        6
176
     1
 90
        2
176
     1
 62
     7
176
     1
 90
        5
176
     1
 90
        0
176
     1
 90
        0
176
     1
290
     0
176
     1
 90
       13
176
     1
 40
0.0
176
     1
 90
        0
176
     1
290
     0
176
     1
290
     1
176
     1
290
     1
176
     1
290
     0
176
     1
290
     0
176
     1
290
     0
176
     1
290
     0
176
     1
290
     0
176
     1
290
     0
176
     1
 90
       50
176
     1
 40
0.0
176
     1
 40
1.0
176
     1
 90
        0
176
     1
 62
   178
420
        0
176
     1
 90
       50
176
     1
 90
        3
176
     1
 62
     5
420
      255
176
     1
290
     0
176
     1
 90
       50
176
     1
 90
       50
176
     1
 90
       50
176
     1
290
     0
176
     1
 90
       50
176
     1
 62
   256
176
     0
 40
1.0
176
     0
 90
        2
176
     1
  1
strokes_ogs.tif
176
     1
290
     0
176
     1
 40
1.0
176
     1
 40
1.0
176
     1
  0
VISUALSTYLE
  5
194
102
{ACAD_REACTORS
330
2A
102
}
330
2A
100
AcDbVisualStyle
  2
Hidden
 70
     6
177
     3
291
     0
 70
    58
 90
        1
176
     1
 90
        2
176
     1
 90
        2
176
     1
 90
        0
176
     1
 40
0.6
176
     1
 40
30.0
176
     1
 62
     7
420
 16777215
176
     1
 90
        2
176
     1
 90
        2
176
     1
 62
     7
176
     1
 62
   257
176
     1
 90
        2
176
     1
 90
        1
176
     1
 40
40.0
176
     1
 90
        0
176
     1
 62
   257
176
     1
 40
1.0
176
     1
 90
        1
176
     1
 90
        6
176
     1
 90
        2
176
     1
 62
     7
176
     1
 90
        3
176
     1
 90
        0
176
     1
 90
        0
176
     1
290
     0
176
     1
 90
        1
176
     1
 40
0.0
176
     1
 90
        0
176
     1
290
     0
176
     1
290
     1
176
     1
290
     1
176
     1
290
     0
176
     1
290
     0
176
     1
290
     0
176
     1
290
     0
176
     1
290
     0
176
     1
290
     0
176
     1
 90
       50
176
     1
 40
0.0
176
     1
 40
1.0
176
     1
 90
        0
176
     1
 62
   178
420
        0
176
     1
 90
       50
176
     1
 90
        3
176
     1
 62
     5
420
      255
176
     1
290
     0
176
     1
 90
       50
176
     1
 90
       50
176
     1
 90
       50
176
     1
290
     0
176
     1
 90
       50
176
     1
 62
   256
176
     0
 40
1.0
176
     0
 90
        2
176
     1
  1
strokes_ogs.tif
176
     1
290
     0
176
     1
 40
1.0
176
     1
 40
1.0
176
     1
  0
VISUALSTYLE
  5
195
102
{ACAD_REACTORS
330
2A
102
}
330
2A
100
AcDbVisualStyle
  2
JitterOff
 70
    20
177
     3
291
     1
 70
    58
 90
        2
176
     0
 90
        2
176
     0
 90
        0
176
     0
 90
        0
176
     0
 40
0.6
176
     0
 40
30.0
176
     0
 62
     7
420
 16777215
176
     0
 90
        1
176
     0
 90
        4
176
     0
 62
     7
176
     0
 62
   257
176
     0
 90
        1
176
     0
 90
        1
176
     0
 40
1.0
176
     0
 90
       10
176
     2
 62
     7
176
     0
 40
1.0
176
     0
 90
        1
176
     0
 90
        6
176
     0
 90
        2
176
     0
 62
     7
176
     0
 90
        5
176
     0
 90
        0
176
     0
 90
        0
176
     0
290
     0
176
     0
 90
        1
176
     0
 40
0.0
176
     0
 90
        0
176
     0
290
     0
176
     0
290
     1
176
     0
290
     1
176
     0
290
     0
176
     0
290
     0
176
     0
290
     0
176
     0
290
     0
176
     0
290
     0
176
     0
290
     0
176
     0
 90
       50
176
     0
 40
0.0
176
     0
 40
1.0
176
     0
 90
        0
176
     0
 62
   178
420
        0
176
     0
 90
       50
176
     0
 90
        3
176
     0
 62
     5
420
      255
176
     0
290
     0
176
     0
 90
       50
176
     0
 90
       50
176
     0
 90
       50
176
     0
290
     0
176
     0
 90
       50
176
     0
 62
   256
176
     0
 40
1.0
176
     0
 90
        2
176
     0
  1
strokes_ogs.tif
176
     0
290
     0
176
     0
 40
1.0
176
     0
 40
1.0
176
     0
  0
VISUALSTYLE
  5
38
102
{ACAD_REACTORS
330
2A
102
}
330
2A
100
AcDbVisualStyle
  2
Linepattern
 70
    14
177
     3
291
     1
 70
    58
 90
        2
176
     1
 90
        2
176
     1
 90
        0
176
     1
 90
        0
176
     1
 40
-0.6
176
     1
 40
-30.0
176
     1
 62
     7
420
 16777215
176
     1
 90
        1
176
     1
 90
        4
176
     1
 62
     7
176
     1
 62
   257
176
     1
 90
        7
176
     1
 90
        7
176
     1
 40
1.0
176
     1
 90
        8
176
     1
 62
     7
176
     1
 40
1.0
176
     1
 90
        1
176
     1
 90
        6
176
     1
 90
        2
176
     1
 62
     7
176
     1
 90
        5
176
     1
 90
        0
176
     1
 90
        0
176
     1
290
     0
176
     1
 90
        1
176
     1
 40
0.0
176
     1
 90
        0
176
     1
290
     0
176
     1
290
     1
176
     1
290
     1
176
     1
290
     0
176
     1
290
     0
176
     1
290
     0
176
     1
290
     0
176
     1
290
     0
176
     1
290
     0
176
     1
 90
       50
176
     1
 40
0.0
176
     1
 40
1.0
176
     1
 90
        0
176
     1
 62
   178
420
        0
176
     1
 90
       50
176
     1
 90
        3
176
     1
 62
     5
420
      255
176
     1
290
     0
176
     1
 90
       50
176
     1
 90
       50
176
     1
 90
       50
176
     1
290
     0
176
     1
 90
       50
176
     1
 62
   256
176
     0
 40
1.0
176
     0
 90
        2
176
     1
  1
strokes_ogs.tif
176
     1
290
     0
176
     1
 40
1.0
176
     1
 40
1.0
176
     1
  0
VISUALSTYLE
  5
196
102
{ACAD_REACTORS
330
2A
102
}
330
2A
100
AcDbVisualStyle
  2
OverhangOff
 70
    21
177
     3
291
     1
 70
    58
 90
        2
176
     0
 90
        2
176
     0
 90
        0
176
     0
 90
        0
176
     0
 40
0.6
176
     0
 40
30.0
176
     0
 62
     7
420
 16777215
176
     0
 90
        1
176
     0
 90
        4
176
     0
 62
     7
176
     0
 62
   257
176
     0
 90
        1
176
     0
 90
        1
176
     0
 40
1.0
176
     0
 90
        9
176
     2
 62
     7
176
     0
 40
1.0
176
     0
 90
        1
176
     0
 90
        6
176
     0
 90
        2
176
     0
 62
     7
176
     0
 90
        5
176
     0
 90
        0
176
     0
 90
        0
176
     0
290
     0
176
     0
 90
        1
176
     0
 40
0.0
176
     0
 90
        0
176
     0
290
     0
176
     0
290
     1
176
     0
290
     1
176
     0
290
     0
176
     0
290
     0
176
     0
290
     0
176
     0
290
     0
176
     0
290
     0
176
     0
290
     0
176
     0
 90
       50
176
     0
 40
0.0
176
     0
 40
1.0
176
     0
 90
        0
176
     0
 62
   178
420
        0
176
     0
 90
       50
176
     0
 90
        3
176
     0
 62
     5
420
      255
176
     0
290
     0
176
     0
 90
       50
176
     0
 90
       50
176
     0
 90
       50
176
     0
290
     0
176
     0
 90
       50
176
     0
 62
   256
176
     0
 40
1.0
176
     0
 90
        2
176
     0
  1
strokes_ogs.tif
176
     0
290
     0
176
     0
 40
1.0
176
     0
 40
1.0
176
     0
  0
VISUALSTYLE
  5
33
102
{ACAD_REACTORS
330
2A
102
}
330
2A
100
AcDbVisualStyle
  2
Realistic
 70
     8
177
     3
291
     0
 70
    58
 90
        2
176
     1
 90
        2
176
     1
 90
        0
176
     1
 90
        0
176
     1
 40
-0.6
176
     1
 40
-30.0
176
     1
 62
     7
420
 16777215
176
     1
 90
        1
176
     1
 90
        0
176
     1
 62
     7
176
     1
 62
   257
176
     1
 90
        1
176
     1
 90
        1
176
     1
 40
1.0
176
     1
 90
        8
176
     1
 62
     8
420
  7895160
176
     1
 40
1.0
176
     1
 90
        1
176
     1
 90
        6
176
     1
 90
        2
176
     1
 62
     7
176
     1
 90
        5
176
     1
 90
        0
176
     1
 90
        0
176
     1
290
     0
176
     1
 90
       13
176
     1
 40
0.0
176
     1
 90
        0
176
     1
290
     0
176
     1
290
     1
176
     1
290
     1
176
     1
290
     0
176
     1
290
     0
176
     1
290
     0
176
     1
290
     0
176
     1
290
     0
176
     1
290
     0
176
     1
 90
       50
176
     1
 40
0.0
176
     1
 40
1.0
176
     1
 90
        0
176
     1
 62
   178
420
        0
176
     1
 90
       50
176
     1
 90
        3
176
     1
 62
     5
420
      255
176
     1
290
     0
176
     1
 90
       50
176
     1
 90
       50
176
     1
 90
       50
176
     1
290
     0
176
     1
 90
       50
176
     1
 62
   256
176
     0
 40
1.0
176
     0
 90
        2
176
     1
  1
strokes_ogs.tif
176
     1
290
     0
176
     1
 40
1.0
176
     1
 40
1.0
176
     1
  0
VISUALSTYLE
  5
19C
102
{ACAD_REACTORS
330
2A
102
}
330
2A
100
AcDbVisualStyle
  2
Shaded
 70
    27
177
     3
291
     0
 70
    58
 90
        2
176
     1
 90
        2
176
     1
 90
        1
176
     1
 90
        2
176
     1
 40
0.6
176
     1
 40
30.0
176
     1
 62
     7
420
 16777215
176
     1
 90
        0
176
     1
 90
        4
176
     1
 62
     7
176
     1
 62
   257
176
     1
 90
        1
176
     1
 90
        1
176
     1
 40
1.0
176
     1
 90
        8
176
     1
 62
   257
176
     1
 40
1.0
176
     1
 90
        1
176
     1
 90
        6
176
     1
 90
        2
176
     1
 62
     8
420
  7895160
176
     1
 90
        3
176
     1
 90
        0
176
     1
 90
        0
176
     1
290
     0
176
     1
 90
        5
176
     1
 40
0.0
176
     1
 90
        0
176
     1
290
     0
176
     1
290
     1
176
     1
290
     1
176
     1
290
     0
176
     1
290
     0
176
     1
290
     0
176
     1
290
     0
176
     1
290
     0
176
     1
290
     0
176
     1
 90
       50
176
     1
 40
0.0
176
     1
 40
1.0
176
     1
 90
        0
176
     1
 62
   178
420
        0
176
     1
 90
       50
176
     1
 90
        3
176
     1
 62
     5
420
      255
176
     1
290
     0
176
     1
 90
       50
176
     1
 90
       50
176
     1
 90
       50
176
     1
290
     0
176
     1
 90
       50
176
     1
 62
   256
176
     0
 40
1.0
176
     0
 90
        2
176
     1
  1
strokes_ogs.tif
176
     1
290
     0
176
     1
 40
1.0
176
     1
 40
1.0
176
     1
  0
VISUALSTYLE
  5
19B
102
{ACAD_REACTORS
330
2A
102
}
330
2A
100
AcDbVisualStyle
  2
Shaded with edges
 70
    26
177
     3
291
     0
 70
    58
 90
        2
176
     1
 90
        2
176
     1
 90
        1
176
     1
 90
        2
176
     1
 40
0.6
176
     1
 40
30.0
176
     1
 62
     7
420
 16777215
176
     1
 90
        1
176
     1
 90
       10
176
     1
 62
     7
176
     1
 62
   257
176
     1
 90
        2
176
     1
 90
        1
176
     1
 40
1.0
176
     1
 90
        8
176
     1
 62
   257
176
     1
 40
1.0
176
     1
 90
        1
176
     1
 90
        6
176
     1
 90
        2
176
     1
 62
     7
176
     1
 90
        3
176
     1
 90
        0
176
     1
 90
        0
176
     1
290
     0
176
     1
 90
        5
176
     1
 40
0.0
176
     1
 90
        0
176
     1
290
     0
176
     1
290
     1
176
     1
290
     1
176
     1
290
     0
176
     1
290
     0
176
     1
290
     0
176
     1
290
     0
176
     1
290
     0
176
     1
290
     0
176
     1
 90
       50
176
     1
 40
0.0
176
     1
 40
1.0
176
     1
 90
        0
176
     1
 62
   178
420
        0
176
     1
 90
       50
176
     1
 90
        3
176
     1
 62
     5
420
      255
176
     1
290
     0
176
     1
 90
       50
176
     1
 90
       50
176
     1
 90
       50
176
     1
290
     0
176
     1
 90
       50
176
     1
 62
   256
176
     0
 40
1.0
176
     0
 90
        2
176
     1
  1
strokes_ogs.tif
176
     1
290
     0
176
     1
 40
1.0
176
     1
 40
1.0
176
     1
  0
VISUALSTYLE
  5
198
102
{ACAD_REACTORS
330
2A
102
}
330
2A
100
AcDbVisualStyle
  2
Shades of Gray
 70
    23
177
     3
291
     0
 70
    58
 90
        2
176
     1
 90
        2
176
     1
 90
        3
176
     1
 90
        0
176
     1
 40
0.6
176
     1
 40
30.0
176
     1
 62
     7
420
 16777215
176
     1
 90
        2
176
     1
 90
        2
176
     1
 62
     7
176
     1
 62
     7
176
     1
 90
        1
176
     1
 90
        1
176
     1
 40
40.0
176
     1
 90
        8
176
     1
 62
     7
176
     1
 40
1.0
176
     1
 90
        1
176
     1
 90
        6
176
     1
 90
        2
176
     1
 62
     7
176
     1
 90
        3
176
     1
 90
        0
176
     1
 90
        0
176
     1
290
     0
176
     1
 90
        1
176
     1
 40
0.0
176
     1
 90
        0
176
     1
290
     0
176
     1
290
     1
176
     1
290
     1
176
     1
290
     0
176
     1
290
     0
176
     1
290
     0
176
     1
290
     0
176
     1
290
     0
176
     1
290
     0
176
     1
 90
       50
176
     1
 40
0.0
176
     1
 40
1.0
176
     1
 90
        0
176
     1
 62
   178
420
        0
176
     1
 90
       50
176
     1
 90
        3
176
     1
 62
     5
420
      255
176
     1
290
     0
176
     1
 90
       50
176
     1
 90
       50
176
     1
 90
       50
176
     1
290
     0
176
     1
 90
       50
176
     1
 62
   256
176
     0
 40
1.0
176
     0
 90
        2
176
     1
  1
strokes_ogs.tif
176
     1
290
     0
176
     1
 40
1.0
176
     1
 40
1.0
176
     1
  0
VISUALSTYLE
  5
199
102
{ACAD_REACTORS
330
2A
102
}
330
2A
100
AcDbVisualStyle
  2
Sketchy
 70
    24
177
     3
291
     0
 70
    58
 90
        1
176
     1
 90
        2
176
     1
 90
        2
176
     1
 90
        0
176
     1
 40
0.6
176
     1
 40
30.0
176
     1
 62
     7
420
 16777215
176
     1
 90
        2
176
     1
 90
        2
176
     1
 62
     7
176
     1
 62
     7
176
     1
 90
        1
176
     1
 90
        1
176
     1
 40
40.0
176
     1
 90
       11
176
     1
 62
     7
176
     1
 40
1.0
176
     1
 90
        1
176
     1
 90
        6
176
     1
 90
        2
176
     1
 62
     7
176
     1
 90
        6
176
     1
 90
        0
176
     1
 90
        0
176
     1
290
     0
176
     1
 90
        1
176
     1
 40
0.0
176
     1
 90
        0
176
     1
290
     0
176
     1
290
     1
176
     1
290
     1
176
     1
290
     0
176
     1
290
     0
176
     1
290
     0
176
     1
290
     0
176
     1
290
     0
176
     1
290
     0
176
     1
 90
       50
176
     1
 40
0.0
176
     1
 40
1.0
176
     1
 90
        0
176
     1
 62
   178
420
        0
176
     1
 90
       50
176
     1
 90
        3
176
     1
 62
     5
420
      255
176
     1
290
     0
176
     1
 90
       50
176
     1
 90
       50
176
     1
 90
       50
176
     1
290
     0
176
     1
 90
       50
176
     1
 62
   256
176
     0
 40
1.0
176
     0
 90
        2
176
     1
  1
strokes_ogs.tif
176
     1
290
     0
176
     1
 40
1.0
176
     1
 40
1.0
176
     1
  0
VISUALSTYLE
  5
37
102
{ACAD_REACTORS
330
2A
102
}
330
2A
100
AcDbVisualStyle
  2
Thicken
 70
    13
177
     3
291
     1
 70
    58
 90
        2
176
     1
 90
        2
176
     1
 90
        0
176
     1
 90
        0
176
     1
 40
-0.6
176
     1
 40
-30.0
176
     1
 62
     7
420
 16777215
176
     1
 90
        1
176
     1
 90
        4
176
     1
 62
     7
176
     1
 62
   257
176
     1
 90
        1
176
     1
 90
        1
176
     1
 40
1.0
176
     1
 90
       12
176
     1
 62
     7
176
     1
 40
1.0
176
     1
 90
        1
176
     1
 90
        6
176
     1
 90
        2
176
     1
 62
     7
176
     1
 90
        5
176
     1
 90
        0
176
     1
 90
        0
176
     1
290
     0
176
     1
 90
        1
176
     1
 40
0.0
176
     1
 90
        0
176
     1
290
     0
176
     1
290
     1
176
     1
290
     1
176
     1
290
     0
176
     1
290
     0
176
     1
290
     0
176
     1
290
     0
176
     1
290
     0
176
     1
290
     0
176
     1
 90
       50
176
     1
 40
0.0
176
     1
 40
1.0
176
     1
 90
        0
176
     1
 62
   178
420
        0
176
     1
 90
       50
176
     1
 90
        3
176
     1
 62
     5
420
      255
176
     1
290
     0
176
     1
 90
       50
176
     1
 90
       50
176
     1
 90
       50
176
     1
290
     0
176
     1
 90
       50
176
     1
 62
   256
176
     0
 40
1.0
176
     0
 90
        2
176
     1
  1
strokes_ogs.tif
176
     1
290
     0
176
     1
 40
1.0
176
     1
 40
1.0
176
     1
  0
VISUALSTYLE
  5
193
102
{ACAD_REACTORS
330
2A
102
}
330
2A
100
AcDbVisualStyle
  2
Wireframe
 70
     5
177
     3
291
     0
 70
    58
 90
        0
176
     1
 90
        2
176
     1
 90
        0
176
     1
 90
        0
176
     1
 40
0.6
176
     1
 40
30.0
176
     1
 62
     7
420
 16777215
176
     1
 90
        1
176
     1
 90
        4
176
     1
 62
     7
176
     1
 62
   257
176
     1
 90
        1
176
     1
 90
        1
176
     1
 40
1.0
176
     1
 90
        0
176
     1
 62
   257
176
     1
 40
1.0
176
     1
 90
        1
176
     1
 90
        6
176
     1
 90
        2
176
     1
 62
     7
176
     1
 90
        3
176
     1
 90
        0
176
     1
 90
        0
176
     1
290
     0
176
     1
 90
        1
176
     1
 40
0.0
176
     1
 90
        0
176
     1
290
     0
176
     1
290
     1
176
     1
290
     1
176
     1
290
     0
176
     1
290
     0
176
     1
290
     0
176
     1
290
     0
176
     1
290
     0
176
     1
290
     0
176
     1
 90
       50
176
     1
 40
0.0
176
     1
 40
1.0
176
     1
 90
        0
176
     1
 62
   178
420
        0
176
     1
 90
       50
176
     1
 90
        3
176
     1
 62
     5
420
      255
176
     1
290
     0
176
     1
 90
       50
176
     1
 90
       50
176
     1
 90
       50
176
     1
290
     0
176
     1
 90
       50
176
     1
 62
   256
176
     0
 40
1.0
176
     0
 90
        2
176
     1
  1
strokes_ogs.tif
176
     1
290
     0
176
     1
 40
1.0
176
     1
 40
1.0
176
     1
  0
VISUALSTYLE
  5
19A
102
{ACAD_REACTORS
330
2A
102
}
330
2A
100
AcDbVisualStyle
  2
X-Ray
 70
    25
177
     3
291
     0
 70
    58
 90
        2
176
     1
 90
        2
176
     1
 90
        1
176
     1
 90
        1
176
     1
 40
0.5
176
     1
 40
30.0
176
     1
 62
     7
420
 16777215
176
     1
 90
        1
176
     1
 90
        0
176
     1
 62
     7
176
     1
 62
   257
176
     1
 90
        1
176
     1
 90
        1
176
     1
 40
1.0
176
     1
 90
        8
176
     1
 62
     7
176
     1
 40
1.0
176
     1
 90
        1
176
     1
 90
        6
176
     1
 90
        2
176
     1
 62
     7
176
     1
 90
        3
176
     1
 90
        0
176
     1
 90
        0
176
     1
290
     0
176
     1
 90
       13
176
     1
 40
0.0
176
     1
 90
        0
176
     1
290
     0
176
     1
290
     1
176
     1
290
     1
176
     1
290
     0
176
     1
290
     0
176
     1
290
     0
176
     1
290
     0
176
     1
290
     0
176
     1
290
     0
176
     1
 90
       50
176
     1
 40
0.0
176
     1
 40
1.0
176
     1
 90
        0
176
     1
 62
   178
420
        0
176
     1
 90
       50
176
     1
 90
        3
176
     1
 62
     5
420
      255
176
     1
290
     0
176
     1
 90
       50
176
     1
 90
       50
176
     1
 90
       50
176
     1
290
     0
176
     1
 90
       50
176
     1
 62
   256
176
     0
 40
1.0
176
     0
 90
        2
176
     1
  1
strokes_ogs.tif
176
     1
290
     0
176
     1
 40
1.0
176
     1
 40
1.0
176
     1
  0
DICTIONARYVAR
  5
1A0
102
{ACAD_REACTORS
330
19F
102
}
330
19F
100
DictionaryVariables
280
     0
  1
1:1
  0
DICTIONARYVAR
  5
1A5
102
{ACAD_REACTORS
330
19F
102
}
330
19F
100
DictionaryVariables
280
     0
  1
Standard
  0
DICTIONARYVAR
  5
1A4
102
{ACAD_REACTORS
330
19F
102
}
330
19F
100
DictionaryVariables
280
     0
  1
Standard
  0
DICTIONARYVAR
  5
1A6
102
{ACAD_REACTORS
330
19F
102
}
330
19F
100
DictionaryVariables
280
     0
  1
0
  0
DICTIONARY
  5
1A1
330
19D
100
AcDbDictionary
280
     1
281
     1
  3
ACAD_ROUNDTRIP_2008_TABLESTYLE_CELLSTYLEMAP
360
1A2
  0
CELLSTYLEMAP
  5
1A2
102
{ACAD_REACTORS
330
1A1
102
}
330
1A1
100
AcDbCellStyleMap
 90
        3
300
CELLSTYLE
  1
TABLEFORMAT_BEGIN
 90
        5
170
     1
 91
        0
 92
    32768
 62
   257
 93
        1
300
CONTENTFORMAT
  1
CONTENTFORMAT_BEGIN
 90
        0
 91
        0
 92
        4
 93
        0
300

 40
0.0
140
1.0
 94
        5
 62
     0
340
11
144
0.25
309
CONTENTFORMAT_END
171
     1
301
MARGIN
  1
CELLMARGIN_BEGIN
 40
0.06
 40
0.06
 40
0.06
 40
0.06
 40
0.06
 40
0.06
309
CELLMARGIN_END
 94
        6
 95
        1
302
GRIDFORMAT
  1
GRIDFORMAT_BEGIN
 90
        0
 91
        1
 62
     0
 92
       -2
340
14
 93
        0
 40
0.045
309
GRIDFORMAT_END
 95
        2
302
GRIDFORMAT
  1
GRIDFORMAT_BEGIN
 90
        0
 91
        1
 62
     0
 92
       -2
340
14
 93
        0
 40
0.045
309
GRIDFORMAT_END
 95
        4
302
GRIDFORMAT
  1
GRIDFORMAT_BEGIN
 90
        0
 91
        1
 62
     0
 92
       -2
340
14
 93
        0
 40
0.045
309
GRIDFORMAT_END
 95
        8
302
GRIDFORMAT
  1
GRIDFORMAT_BEGIN
 90
        0
 91
        1
 62
     0
 92
       -2
340
14
 93
        0
 40
0.045
309
GRIDFORMAT_END
 95
       16
302
GRIDFORMAT
  1
GRIDFORMAT_BEGIN
 90
        0
 91
        1
 62
     0
 92
       -2
340
14
 93
        0
 40
0.045
309
GRIDFORMAT_END
 95
       32
302
GRIDFORMAT
  1
GRIDFORMAT_BEGIN
 90
        0
 91
        1
 62
     0
 92
       -2
340
14
 93
        0
 40
0.045
309
GRIDFORMAT_END
309
TABLEFORMAT_END
  1
CELLSTYLE_BEGIN
 90
        1
 91
        1
300
_TITLE
309
CELLSTYLE_END
300
CELLSTYLE
  1
TABLEFORMAT_BEGIN
 90
        5
170
     1
 91
        0
 92
        0
 62
   257
 93
        1
300
CONTENTFORMAT
  1
CONTENTFORMAT_BEGIN
 90
        0
 91
        0
 92
        4
 93
        0
300

 40
0.0
140
1.0
 94
        5
 62
     0
340
11
144
0.18
309
CONTENTFORMAT_END
171
     1
301
MARGIN
  1
CELLMARGIN_BEGIN
 40
0.06
 40
0.06
 40
0.06
 40
0.06
 40
0.06
 40
0.06
309
CELLMARGIN_END
 94
        6
 95
        1
302
GRIDFORMAT
  1
GRIDFORMAT_BEGIN
 90
        0
 91
        1
 62
     0
 92
       -2
340
14
 93
        0
 40
0.045
309
GRIDFORMAT_END
 95
        2
302
GRIDFORMAT
  1
GRIDFORMAT_BEGIN
 90
        0
 91
        1
 62
     0
 92
       -2
340
14
 93
        0
 40
0.045
309
GRIDFORMAT_END
 95
        4
302
GRIDFORMAT
  1
GRIDFORMAT_BEGIN
 90
        0
 91
        1
 62
     0
 92
       -2
340
14
 93
        0
 40
0.045
309
GRIDFORMAT_END
 95
        8
302
GRIDFORMAT
  1
GRIDFORMAT_BEGIN
 90
        0
 91
        1
 62
     0
 92
       -2
340
14
 93
        0
 40
0.045
309
GRIDFORMAT_END
 95
       16
302
GRIDFORMAT
  1
GRIDFORMAT_BEGIN
 90
        0
 91
        1
 62
     0
 92
       -2
340
14
 93
        0
 40
0.045
309
GRIDFORMAT_END
 95
       32
302
GRIDFORMAT
  1
GRIDFORMAT_BEGIN
 90
        0
 91
        1
 62
     0
 92
       -2
340
14
 93
        0
 40
0.045
309
GRIDFORMAT_END
309
TABLEFORMAT_END
  1
CELLSTYLE_BEGIN
 90
        2
 91
        1
300
_HEADER
309
CELLSTYLE_END
300
CELLSTYLE
  1
TABLEFORMAT_BEGIN
 90
        5
170
     1
 91
        0
 92
        0
 62
   257
 93
        1
300
CONTENTFORMAT
  1
CONTENTFORMAT_BEGIN
 90
        0
 91
        0
 92
        4
 93
        0
300

 40
0.0
140
1.0
 94
        2
 62
     0
340
11
144
0.18
309
CONTENTFORMAT_END
171
     1
301
MARGIN
  1
CELLMARGIN_BEGIN
 40
0.06
 40
0.06
 40
0.06
 40
0.06
 40
0.06
 40
0.06
309
CELLMARGIN_END
 94
        6
 95
        1
302
GRIDFORMAT
  1
GRIDFORMAT_BEGIN
 90
        0
 91
        1
 62
     0
 92
       -2
340
14
 93
        0
 40
0.045
309
GRIDFORMAT_END
 95
        2
302
GRIDFORMAT
  1
GRIDFORMAT_BEGIN
 90
        0
 91
        1
 62
     0
 92
       -2
340
14
 93
        0
 40
0.045
309
GRIDFORMAT_END
 95
        4
302
GRIDFORMAT
  1
GRIDFORMAT_BEGIN
 90
        0
 91
        1
 62
     0
 92
       -2
340
14
 93
        0
 40
0.045
309
GRIDFORMAT_END
 95
        8
302
GRIDFORMAT
  1
GRIDFORMAT_BEGIN
 90
        0
 91
        1
 62
     0
 92
       -2
340
14
 93
        0
 40
0.045
309
GRIDFORMAT_END
 95
       16
302
GRIDFORMAT
  1
GRIDFORMAT_BEGIN
 90
        0
 91
        1
 62
     0
 92
       -2
340
14
 93
        0
 40
0.045
309
GRIDFORMAT_END
 95
       32
302
GRIDFORMAT
  1
GRIDFORMAT_BEGIN
 90
        0
 91
        1
 62
     0
 92
       -2
340
14
 93
        0
 40
0.045
309
GRIDFORMAT_END
309
TABLEFORMAT_END
  1
CELLSTYLE_BEGIN
 90
        3
 91
        2
300
_DATA
309
CELLSTYLE_END
  0
ENDSEC
  0
EOF
