  0
SECTION
  2
HEADER
  9
$ACADVER
  1
AC1027
  9
$ACADMAINTVER
 70
     8
  9
$DWGCODEPAGE
  3
ANSI_1252
  9
$REQUIREDVERSIONS
160
                 0
  9
$INSBASE
 10
0.0
 20
0.0
 30
0.0
  9
$EXTMIN
 10
-190.7293
 20
-239.5263
 30
0.0
  9
$EXTMAX
 10
194.4206
 20
182.7624
 30
0.0
  9
$LIMMIN
 10
0.0
 20
0.0
  9
$LIMMAX
 10
12.0
 20
9.0
  9
$ORTHOMODE
 70
     0
  9
$REGENMODE
 70
     1
  9
$FILLMODE
 70
     1
  9
$QTEXTMODE
 70
     0
  9
$MIRRTEXT
 70
     1
  9
$LTSCALE
 40
1.0
  9
$ATTMODE
 70
     1
  9
$TEXTSIZE
 40
0.2
  9
$TRACEWID
 40
0.05
  9
$TEXTSTYLE
  7
Standard
  9
$CLAYER
  8
0
  9
$CELTYPE
  6
ByLayer
  9
$CECOLOR
 62
   256
  9
$CELTSCALE
 40
1.0
  9
$DISPSILH
 70
     0
  9
$DIMSCALE
 40
1.0
  9
$DIMASZ
 40
0.18
  9
$DIMEXO
 40
0.0625
  9
$DIMDLI
 40
0.38
  9
$DIMRND
 40
0.0
  9
$DIMDLE
 40
0.0
  9
$DIMEXE
 40
0.18
  9
$DIMTP
 40
0.0
  9
$DIMTM
 40
0.0
  9
$DIMTXT
 40
0.18
  9
$DIMCEN
 40
0.09
  9
$DIMTSZ
 40
0.0
  9
$DIMTOL
 70
     0
  9
$DIMLIM
 70
     0
  9
$DIMTIH
 70
     1
  9
$DIMTOH
 70
     1
  9
$DIMSE1
 70
     0
  9
$DIMSE2
 70
     0
  9
$DIMTAD
 70
     0
  9
$DIMZIN
 70
     0
  9
$DIMBLK
  1

  9
$DIMASO
 70
     1
  9
$DIMSHO
 70
     1
  9
$DIMPOST
  1

  9
$DIMAPOST
  1

  9
$DIMALT
 70
     0
  9
$DIMALTD
 70
     2
  9
$DIMALTF
 40
25.4
  9
$DIMLFAC
 40
1.0
  9
$DIMTOFL
 70
     0
  9
$DIMTVP
 40
0.0
  9
$DIMTIX
 70
     0
  9
$DIMSOXD
 70
     0
  9
$DIMSAH
 70
     0
  9
$DIMBLK1
  1

  9
$DIMBLK2
  1

  9
$DIMSTYLE
  2
Standard
  9
$DIMCLRD
 70
     0
  9
$DIMCLRE
 70
     0
  9
$DIMCLRT
 70
     0
  9
$DIMTFAC
 40
1.0
  9
$DIMGAP
 40
0.09
  9
$DIMJUST
 70
     0
  9
$DIMSD1
 70
     0
  9
$DIMSD2
 70
     0
  9
$DIMTOLJ
 70
     1
  9
$DIMTZIN
 70
     0
  9
$DIMALTZ
 70
     0
  9
$DIMALTTZ
 70
     0
  9
$DIMUPT
 70
     0
  9
$DIMDEC
 70
     4
  9
$DIMTDEC
 70
     4
  9
$DIMALTU
 70
     2
  9
$DIMALTTD
 70
     2
  9
$DIMTXSTY
  7
Standard
  9
$DIMAUNIT
 70
     0
  9
$DIMADEC
 70
     0
  9
$DIMALTRND
 40
0.0
  9
$DIMAZIN
 70
     0
  9
$DIMDSEP
 70
    46
  9
$DIMATFIT
 70
     3
  9
$DIMFRAC
 70
     0
  9
$DIMLDRBLK
  1

  9
$DIMLUNIT
 70
     2
  9
$DIMLWD
 70
    -2
  9
$DIMLWE
 70
    -2
  9
$DIMTMOVE
 70
     0
  9
$DIMFXL
 40
1.0
  9
$DIMFXLON
 70
     0
  9
$DIMJOGANG
 40
0.7853981633974483
  9
$DIMTFILL
 70
     0
  9
$DIMTFILLCLR
 70
     0
  9
$DIMARCSYM
 70
     0
  9
$DIMLTYPE
  6

  9
$DIMLTEX1
  6

  9
$DIMLTEX2
  6

  9
$DIMTXTDIRECTION
 70
     0
  9
$LUNITS
 70
     2
  9
$LUPREC
 70
     4
  9
$SKETCHINC
 40
0.1
  9
$FILLETRAD
 40
0.5
  9
$AUNITS
 70
     0
  9
$AUPREC
 70
     0
  9
$MENU
  1
.
  9
$ELEVATION
 40
0.0
  9
$PELEVATION
 40
0.0
  9
$THICKNESS
 40
0.0
  9
$LIMCHECK
 70
     0
  9
$CHAMFERA
 40
0.5
  9
$CHAMFERB
 40
0.5
  9
$CHAMFERC
 40
1.0
  9
$CHAMFERD
 40
0.0
  9
$SKPOLY
 70
     0
  9
$TDCREATE
 40
2457051.911725243
  9
$TDUCREATE
 40
2457051.870058577
  9
$TDUPDATE
 40
2457171.862268519
  9
$TDUUPDATE
 40
2457171.820601852
  9
$TDINDWG
 40
0.0000000116
  9
$TDUSRTIMER
 40
0.0000000116
  9
$USRTIMER
 70
     1
  9
$ANGBASE
 50
0.0
  9
$ANGDIR
 70
     0
  9
$PDMODE
 70
     0
  9
$PDSIZE
 40
0.0
  9
$PLINEWID
 40
0.0
  9
$SPLFRAME
 70
     0
  9
$SPLINETYPE
 70
     6
  9
$SPLINESEGS
 70
     8
  9
$HANDSEED
  5
119
  9
$SURFTAB1
 70
     6
  9
$SURFTAB2
 70
     6
  9
$SURFTYPE
 70
     6
  9
$SURFU
 70
     6
  9
$SURFV
 70
     6
  9
$UCSBASE
  2

  9
$UCSNAME
  2

  9
$UCSORG
 10
0.0
 20
0.0
 30
0.0
  9
$UCSXDIR
 10
1.0
 20
0.0
 30
0.0
  9
$UCSYDIR
 10
0.0
 20
1.0
 30
0.0
  9
$UCSORTHOREF
  2

  9
$UCSORTHOVIEW
 70
     0
  9
$UCSORGTOP
 10
0.0
 20
0.0
 30
0.0
  9
$UCSORGBOTTOM
 10
0.0
 20
0.0
 30
0.0
  9
$UCSORGLEFT
 10
0.0
 20
0.0
 30
0.0
  9
$UCSORGRIGHT
 10
0.0
 20
0.0
 30
0.0
  9
$UCSORGFRONT
 10
0.0
 20
0.0
 30
0.0
  9
$UCSORGBACK
 10
0.0
 20
0.0
 30
0.0
  9
$PUCSBASE
  2

  9
$PUCSNAME
  2

  9
$PUCSORG
 10
0.0
 20
0.0
 30
0.0
  9
$PUCSXDIR
 10
1.0
 20
0.0
 30
0.0
  9
$PUCSYDIR
 10
0.0
 20
1.0
 30
0.0
  9
$PUCSORTHOREF
  2

  9
$PUCSORTHOVIEW
 70
     0
  9
$PUCSORGTOP
 10
0.0
 20
0.0
 30
0.0
  9
$PUCSORGBOTTOM
 10
0.0
 20
0.0
 30
0.0
  9
$PUCSORGLEFT
 10
0.0
 20
0.0
 30
0.0
  9
$PUCSORGRIGHT
 10
0.0
 20
0.0
 30
0.0
  9
$PUCSORGFRONT
 10
0.0
 20
0.0
 30
0.0
  9
$PUCSORGBACK
 10
0.0
 20
0.0
 30
0.0
  9
$USERI1
 70
     0
  9
$USERI2
 70
     0
  9
$USERI3
 70
     0
  9
$USERI4
 70
     0
  9
$USERI5
 70
     0
  9
$USERR1
 40
0.0
  9
$USERR2
 40
0.0
  9
$USERR3
 40
0.0
  9
$USERR4
 40
0.0
  9
$USERR5
 40
0.0
  9
$WORLDVIEW
 70
     1
  9
$SHADEDGE
 70
     3
  9
$SHADEDIF
 70
    70
  9
$TILEMODE
 70
     1
  9
$MAXACTVP
 70
    64
  9
$PINSBASE
 10
0.0
 20
0.0
 30
0.0
  9
$PLIMCHECK
 70
     0
  9
$PEXTMIN
 10
1.000000000000000E+20
 20
1.000000000000000E+20
 30
1.000000000000000E+20
  9
$PEXTMAX
 10
-1.000000000000000E+20
 20
-1.000000000000000E+20
 30
-1.000000000000000E+20
  9
$PLIMMIN
 10
0.0
 20
0.0
  9
$PLIMMAX
 10
12.0
 20
9.0
  9
$UNITMODE
 70
     0
  9
$VISRETAIN
 70
     1
  9
$PLINEGEN
 70
     0
  9
$PSLTSCALE
 70
     1
  9
$TREEDEPTH
 70
  3020
  9
$CMLSTYLE
  2
Standard
  9
$CMLJUST
 70
     0
  9
$CMLSCALE
 40
1.0
  9
$PROXYGRAPHICS
 70
     1
  9
$MEASUREMENT
 70
     0
  9
$CELWEIGHT
370
    -1
  9
$ENDCAPS
280
     0
  9
$JOINSTYLE
280
     0
  9
$LWDISPLAY
290
     0
  9
$INSUNITS
 70
     4
  9
$HYPERLINKBASE
  1

  9
$STYLESHEET
  1

  9
$XEDIT
290
     1
  9
$CEPSNTYPE
380
     0
  9
$PSTYLEMODE
290
     1
  9
$FINGERPRINTGUID
  2
{02BF803F-30D5-4C91-9ABE-48EE95387082}
  9
$VERSIONGUID
  2
{FAEB1C32-E019-11D5-929B-00C0DF256EC4}
  9
$EXTNAMES
290
     1
  9
$PSVPSCALE
 40
0.0
  9
$OLESTARTUP
290
     0
  9
$SORTENTS
280
   127
  9
$INDEXCTL
280
     0
  9
$HIDETEXT
280
     1
  9
$XCLIPFRAME
280
     0
  9
$HALOGAP
280
     0
  9
$OBSCOLOR
 70
   257
  9
$OBSLTYPE
280
     0
  9
$INTERSECTIONDISPLAY
280
     0
  9
$INTERSECTIONCOLOR
 70
   257
  9
$DIMASSOC
280
     2
  9
$PROJECTNAME
  1

  9
$CAMERADISPLAY
290
     0
  9
$LENSLENGTH
 40
50.0
  9
$CAMERAHEIGHT
 40
0.0
  9
$STEPSPERSEC
 40
2.0
  9
$STEPSIZE
 40
6.0
  9
$3DDWFPREC
 40
2.0
  9
$PSOLWIDTH
 40
0.25
  9
$PSOLHEIGHT
 40
4.0
  9
$LOFTANG1
 40
1.570796326794897
  9
$LOFTANG2
 40
1.570796326794897
  9
$LOFTMAG1
 40
0.0
  9
$LOFTMAG2
 40
0.0
  9
$LOFTPARAM
 70
     7
  9
$LOFTNORMALS
280
     1
  9
$LATITUDE
 40
37.795
  9
$LONGITUDE
 40
-122.394
  9
$NORTHDIRECTION
 40
0.0
  9
$TIMEZONE
 70
 -8000
  9
$LIGHTGLYPHDISPLAY
280
     1
  9
$TILEMODELIGHTSYNCH
280
     1
  9
$SOLIDHIST
280
     1
  9
$SHOWHIST
280
     1
  9
$DWFFRAME
280
     2
  9
$DGNFRAME
280
     2
  9
$REALWORLDSCALE
290
     1
  9
$INTERFERECOLOR
 62
   256
  9
$CSHADOW
280
     0
  9
$SHADOWPLANELOCATION
 40
0.0
  0
ENDSEC
  0
SECTION
  2
CLASSES
  0
CLASS
  1
ACDBDICTIONARYWDFLT
  2
AcDbDictionaryWithDefault
  3
ObjectDBX Classes
 90
        0
 91
        4
280
     0
281
     0
  0
CLASS
  1
VISUALSTYLE
  2
AcDbVisualStyle
  3
ObjectDBX Classes
 90
     4095
 91
        4
280
     0
281
     0
  0
CLASS
  1
MATERIAL
  2
AcDbMaterial
  3
ObjectDBX Classes
 90
     1153
 91
        4
280
     0
281
     0
  0
CLASS
  1
SCALE
  2
AcDbScale
  3
ObjectDBX Classes
 90
     1153
 91
        4
280
     0
281
     0
  0
CLASS
  1
TABLESTYLE
  2
AcDbTableStyle
  3
ObjectDBX Classes
 90
     4095
 91
        4
280
     0
281
     0
  0
CLASS
  1
MLEADERSTYLE
  2
AcDbMLeaderStyle
  3
ACDB_MLEADERSTYLE_CLASS
 90
     4095
 91
        4
280
     0
281
     0
  0
CLASS
  1
DICTIONARYVAR
  2
AcDbDictionaryVar
  3
ObjectDBX Classes
 90
        0
 91
        4
280
     0
281
     0
  0
CLASS
  1
CELLSTYLEMAP
  2
AcDbCellStyleMap
  3
ObjectDBX Classes
 90
     1152
 91
        4
280
     0
281
     0
  0
ENDSEC
  0
SECTION
  2
TABLES
  0
TABLE
  2
VPORT
  5
8
330
0
100
AcDbSymbolTable
 70
     1
  0
VPORT
  5
29
330
8
100
AcDbSymbolTableRecord
100
AcDbViewportTableRecord
  2
*Active
 70
     0
 10
0.0
 20
0.0
 11
1.0
 21
1.0
 12
10.42990654205607
 22
4.5
 13
0.0
 23
0.0
 14
0.5
 24
0.5
 15
0.5
 25
0.5
 16
0.0
 26
0.0
 36
1.0
 17
0.0
 27
0.0
 37
0.0
 40
9.0
 41
1.972972972850329
 42
50.0
 43
0.0
 44
0.0
 50
0.0
 51
0.0
 71
     0
 72
   100
 73
     1
 74
     3
 75
     0
 76
     0
 77
     0
 78
     0
281
     0
 65
     1
110
0.0
120
0.0
130
0.0
111
1.0
121
0.0
131
0.0
112
0.0
122
1.0
132
0.0
 79
     0
146
0.0
348
2F
 60
     3
 61
     5
292
     1
282
     1
141
0.0
142
0.0
 63
   250
  0
ENDTAB
  0
TABLE
  2
LTYPE
  5
5
330
0
100
AcDbSymbolTable
 70
     1
  0
LTYPE
  5
14
330
5
100
AcDbSymbolTableRecord
100
AcDbLinetypeTableRecord
  2
ByBlock
 70
     0
  3

 72
    65
 73
     0
 40
0.0
  0
LTYPE
  5
15
330
5
100
AcDbSymbolTableRecord
100
AcDbLinetypeTableRecord
  2
ByLayer
 70
     0
  3

 72
    65
 73
     0
 40
0.0
  0
LTYPE
  5
16
330
5
100
AcDbSymbolTableRecord
100
AcDbLinetypeTableRecord
  2
Continuous
 70
     0
  3
Solid line
 72
    65
 73
     0
 40
0.0
  0
ENDTAB
  0
TABLE
  2
LAYER
  5
2
330
0
100
AcDbSymbolTable
 70
     2
  0
LAYER
  5
10
330
2
100
AcDbSymbolTableRecord
100
AcDbLayerTableRecord
  2
0
 70
     0
 62
     7
  6
Continuous
370
    -3
390
F
347
3E
348
0
  0
LAYER
  5
40
330
2
100
AcDbSymbolTableRecord
100
AcDbLayerTableRecord
  2
Capa 1
 70
     0
 62
     7
  6
Continuous
370
    -3
390
F
347
3E
348
0
  0
ENDTAB
  0
TABLE
  2
STYLE
  5
3
330
0
100
AcDbSymbolTable
 70
     1
  0
STYLE
  5
11
330
3
100
AcDbSymbolTableRecord
100
AcDbTextStyleTableRecord
  2
Standard
 70
     0
 40
0.0
 41
1.0
 50
0.0
 71
     0
 42
0.2
  3
txt
  4

  0
ENDTAB
  0
TABLE
  2
VIEW
  5
6
330
0
100
AcDbSymbolTable
 70
     0
  0
ENDTAB
  0
TABLE
  2
UCS
  5
7
330
0
100
AcDbSymbolTable
 70
     0
  0
ENDTAB
  0
TABLE
  2
APPID
  5
9
330
0
100
AcDbSymbolTable
 70
     2
  0
APPID
  5
12
330
9
100
AcDbSymbolTableRecord
100
AcDbRegAppTableRecord
  2
ACAD
 70
     0
  0
APPID
  5
3F
330
9
100
AcDbSymbolTableRecord
100
AcDbRegAppTableRecord
  2
ODA
 70
     0
  0
ENDTAB
  0
TABLE
  2
DIMSTYLE
  5
A
330
0
100
AcDbSymbolTable
 70
     1
100
AcDbDimStyleTable
  0
DIMSTYLE
105
27
330
A
100
AcDbSymbolTableRecord
100
AcDbDimStyleTableRecord
  2
Standard
 70
     0
178
     0
340
11
  0
ENDTAB
  0
TABLE
  2
BLOCK_RECORD
  5
1
330
0
100
AcDbSymbolTable
 70
     1
  0
BLOCK_RECORD
  5
1F
330
1
100
AcDbSymbolTableRecord
100
AcDbBlockTableRecord
  2
*Model_Space
340
22
 70
     0
280
     1
281
     0
  0
BLOCK_RECORD
  5
1B
330
1
100
AcDbSymbolTableRecord
100
AcDbBlockTableRecord
  2
*Paper_Space
340
1E
 70
     0
280
     1
281
     0
  0
BLOCK_RECORD
  5
23
330
1
100
AcDbSymbolTableRecord
100
AcDbBlockTableRecord
  2
*Paper_Space0
340
26
 70
     0
280
     1
281
     0
  0
ENDTAB
  0
ENDSEC
  0
SECTION
  2
BLOCKS
  0
BLOCK
  5
20
330
1F
100
AcDbEntity
  8
0
100
AcDbBlockBegin
  2
*Model_Space
 70
     0
 10
0.0
 20
0.0
 30
0.0
  3
*Model_Space
  1

  0
ENDBLK
  5
21
330
1F
100
AcDbEntity
  8
0
100
AcDbBlockEnd
  0
BLOCK
  5
1C
330
1B
100
AcDbEntity
 67
     1
  8
0
100
AcDbBlockBegin
  2
*Paper_Space
 70
     0
 10
0.0
 20
0.0
 30
0.0
  3
*Paper_Space
  1

  0
ENDBLK
  5
1D
330
1B
100
AcDbEntity
 67
     1
  8
0
100
AcDbBlockEnd
  0
BLOCK
  5
24
330
23
100
AcDbEntity
  8
0
100
AcDbBlockBegin
  2
*Paper_Space0
 70
     0
 10
0.0
 20
0.0
 30
0.0
  3
*Paper_Space0
  1

  0
ENDBLK
  5
25
330
23
100
AcDbEntity
  8
0
100
AcDbBlockEnd
  0
ENDSEC
  0
SECTION
  2
ENTITIES
  0
SPLINE
  5
41
330
1F
100
AcDbEntity
  8
Capa 1
370
    15
100
AcDbSpline
210
0.0
220
0.0
230
1.0
 70
     8
 71
     3
 72
    20
 73
    16
 74
     0
 42
0.000000001
 43
0.0000000001
 40
0.0
 40
0.0
 40
0.0
 40
0.0
 40
0.2
 40
0.2
 40
0.2
 40
0.2
 40
0.4
 40
0.4
 40
0.4
 40
0.4
 40
0.6
 40
0.6
 40
0.6
 40
0.6
 40
1.0
 40
1.0
 40
1.0
 40
1.0
 10
176.6456
 20
160.1624
 30
0.0
 10
176.6456
 20
164.5806
 30
0.0
 10
173.0638
 20
168.1623
 30
0.0
 10
168.6456
 20
168.1624
 30
0.0
 10
168.6456
 20
168.1624
 30
0.0
 10
164.2273
 20
168.1624
 30
0.0
 10
160.6456
 20
164.5806
 30
0.0
 10
160.6456
 20
160.1624
 30
0.0
 10
160.6456
 20
160.1624
 30
0.0
 10
160.6455
 20
155.7441
 30
0.0
 10
164.2272
 20
152.1624
 30
0.0
 10
168.6455
 20
152.1624
 30
0.0
 10
168.6455
 20
152.1624
 30
0.0
 10
173.0638
 20
152.1623
 30
0.0
 10
176.6455
 20
155.744
 30
0.0
 10
176.6455
 20
160.1623
 30
0.0
  0
SPLINE
  5
42
330
1F
100
AcDbEntity
  8
Capa 1
370
    15
100
AcDbSpline
210
0.0
220
0.0
230
1.0
 70
     8
 71
     3
 72
    16
 73
    12
 74
     0
 42
0.000000001
 43
0.0000000001
 40
0.0
 40
0.0
 40
0.0
 40
0.0
 40
0.25
 40
0.25
 40
0.25
 40
0.25
 40
0.5
 40
0.5
 40
0.5
 40
0.5
 40
1.0
 40
1.0
 40
1.0
 40
1.0
 10
22.346
 20
-154.7375
 30
0.0
 10
21.2384
 20
-154.7375
 30
0.0
 10
20.215
 20
-155.3284
 30
0.0
 10
19.6613
 20
-156.2875
 30
0.0
 10
19.6613
 20
-156.2875
 30
0.0
 10
19.1075
 20
-157.2467
 30
0.0
 10
19.1075
 20
-158.4284
 30
0.0
 10
19.6613
 20
-159.3875
 30
0.0
 10
19.6613
 20
-159.3875
 30
0.0
 10
20.215
 20
-160.3467
 30
0.0
 10
21.2384
 20
-160.9375
 30
0.0
 10
22.346
 20
-160.9375
 30
0.0
  0
SPLINE
  5
43
330
1F
100
AcDbEntity
  8
Capa 1
370
    15
100
AcDbSpline
210
0.0
220
0.0
230
1.0
 70
    24
 71
     3
 72
     8
 73
     4
 74
     0
 42
0.000000001
 43
0.0000000001
 40
0.0
 40
0.0
 40
0.0
 40
0.0
 40
1.0
 40
1.0
 40
1.0
 40
1.0
 10
32.346
 20
-154.7375
 30
0.0
 10
32.346
 20
-154.7375
 30
0.0
 10
22.346
 20
-154.7375
 30
0.0
 10
22.346
 20
-154.7375
 30
0.0
  0
SPLINE
  5
44
330
1F
100
AcDbEntity
  8
Capa 1
370
    15
100
AcDbSpline
210
0.0
220
0.0
230
1.0
 70
     8
 71
     3
 72
    12
 73
     8
 74
     0
 42
0.000000001
 43
0.0000000001
 40
0.0
 40
0.0
 40
0.0
 40
0.0
 40
0.3333333333333333
 40
0.3333333333333333
 40
0.3333333333333333
 40
0.3333333333333333
 40
1.0
 40
1.0
 40
1.0
 40
1.0
 10
32.346
 20
-160.9375
 30
0.0
 10
34.058
 20
-160.9375
 30
0.0
 10
35.4459
 20
-159.5496
 30
0.0
 10
35.446
 20
-157.8376
 30
0.0
 10
35.446
 20
-157.8376
 30
0.0
 10
35.446
 20
-156.1255
 30
0.0
 10
34.058
 20
-154.7376
 30
0.0
 10
32.346
 20
-154.7376
 30
0.0
  0
SPLINE
  5
45
330
1F
100
AcDbEntity
  8
Capa 1
370
    15
100
AcDbSpline
210
0.0
220
0.0
230
1.0
 70
     8
 71
     3
 72
    16
 73
    12
 74
     0
 42
0.000000001
 43
0.0000000001
 40
0.0
 40
0.0
 40
0.0
 40
0.0
 40
0.25
 40
0.25
 40
0.25
 40
0.25
 40
0.5
 40
0.5
 40
0.5
 40
0.5
 40
1.0
 40
1.0
 40
1.0
 40
1.0
 10
191.2456
 20
-155.0375
 30
0.0
 10
191.2456
 20
-153.93
 30
0.0
 10
190.6547
 20
-152.9066
 30
0.0
 10
189.6956
 20
-152.3529
 30
0.0
 10
189.6956
 20
-152.3529
 30
0.0
 10
188.7364
 20
-151.7991
 30
0.0
 10
187.5547
 20
-151.7991
 30
0.0
 10
186.5956
 20
-152.3529
 30
0.0
 10
186.5956
 20
-152.3529
 30
0.0
 10
185.6364
 20
-152.9066
 30
0.0
 10
185.0456
 20
-153.93
 30
0.0
 10
185.0456
 20
-155.0375
 30
0.0
  0
SPLINE
  5
46
330
1F
100
AcDbEntity
  8
Capa 1
370
    15
100
AcDbSpline
210
0.0
220
0.0
230
1.0
 70
    24
 71
     3
 72
     8
 73
     4
 74
     0
 42
0.000000001
 43
0.0000000001
 40
0.0
 40
0.0
 40
0.0
 40
0.0
 40
1.0
 40
1.0
 40
1.0
 40
1.0
 10
191.2456
 20
-165.0375
 30
0.0
 10
191.2456
 20
-165.0375
 30
0.0
 10
191.2456
 20
-155.0375
 30
0.0
 10
191.2456
 20
-155.0375
 30
0.0
  0
SPLINE
  5
47
330
1F
100
AcDbEntity
  8
Capa 1
370
    15
100
AcDbSpline
210
0.0
220
0.0
230
1.0
 70
     8
 71
     3
 72
    12
 73
     8
 74
     0
 42
0.000000001
 43
0.0000000001
 40
0.0
 40
0.0
 40
0.0
 40
0.0
 40
0.3333333333333333
 40
0.3333333333333333
 40
0.3333333333333333
 40
0.3333333333333333
 40
1.0
 40
1.0
 40
1.0
 40
1.0
 10
185.0456
 20
-165.0375
 30
0.0
 10
185.0456
 20
-166.7496
 30
0.0
 10
186.4335
 20
-168.1375
 30
0.0
 10
188.1455
 20
-168.1375
 30
0.0
 10
188.1455
 20
-168.1375
 30
0.0
 10
189.8576
 20
-168.1376
 30
0.0
 10
191.2455
 20
-166.7496
 30
0.0
 10
191.2455
 20
-165.0376
 30
0.0
  0
SPLINE
  5
48
330
1F
100
AcDbEntity
  8
Capa 1
370
    15
100
AcDbSpline
210
0.0
220
0.0
230
1.0
 70
     8
 71
     3
 72
    16
 73
    12
 74
     0
 42
0.000000001
 43
0.0000000001
 40
0.0
 40
0.0
 40
0.0
 40
0.0
 40
0.25
 40
0.25
 40
0.25
 40
0.25
 40
0.5
 40
0.5
 40
0.5
 40
0.5
 40
1.0
 40
1.0
 40
1.0
 40
1.0
 10
191.2456
 20
160.8624
 30
0.0
 10
191.2456
 20
161.9699
 30
0.0
 10
190.6547
 20
162.9933
 30
0.0
 10
189.6956
 20
163.547
 30
0.0
 10
189.6956
 20
163.547
 30
0.0
 10
188.7364
 20
164.1008
 30
0.0
 10
187.5547
 20
164.1008
 30
0.0
 10
186.5956
 20
163.547
 30
0.0
 10
186.5956
 20
163.547
 30
0.0
 10
185.6364
 20
162.9933
 30
0.0
 10
185.0456
 20
161.9699
 30
0.0
 10
185.0456
 20
160.8624
 30
0.0
  0
SPLINE
  5
49
330
1F
100
AcDbEntity
  8
Capa 1
370
    15
100
AcDbSpline
210
0.0
220
0.0
230
1.0
 70
    24
 71
     3
 72
     8
 73
     4
 74
     0
 42
0.000000001
 43
0.0000000001
 40
0.0
 40
0.0
 40
0.0
 40
0.0
 40
1.0
 40
1.0
 40
1.0
 40
1.0
 10
191.2456
 20
150.8624
 30
0.0
 10
191.2456
 20
150.8624
 30
0.0
 10
191.2456
 20
160.8624
 30
0.0
 10
191.2456
 20
160.8624
 30
0.0
  0
SPLINE
  5
4A
330
1F
100
AcDbEntity
  8
Capa 1
370
    15
100
AcDbSpline
210
0.0
220
0.0
230
1.0
 70
     8
 71
     3
 72
    12
 73
     8
 74
     0
 42
0.000000001
 43
0.0000000001
 40
0.0
 40
0.0
 40
0.0
 40
0.0
 40
0.3333333333333333
 40
0.3333333333333333
 40
0.3333333333333333
 40
0.3333333333333333
 40
1.0
 40
1.0
 40
1.0
 40
1.0
 10
185.0456
 20
150.8624
 30
0.0
 10
185.0456
 20
149.1503
 30
0.0
 10
186.4335
 20
147.7624
 30
0.0
 10
188.1455
 20
147.7624
 30
0.0
 10
188.1455
 20
147.7624
 30
0.0
 10
189.8576
 20
147.7623
 30
0.0
 10
191.2455
 20
149.1503
 30
0.0
 10
191.2455
 20
150.8623
 30
0.0
  0
SPLINE
  5
4B
330
1F
100
AcDbEntity
  8
Capa 1
370
    15
100
AcDbSpline
210
0.0
220
0.0
230
1.0
 70
     8
 71
     3
 72
    16
 73
    12
 74
     0
 42
0.000000001
 43
0.0000000001
 40
0.0
 40
0.0
 40
0.0
 40
0.0
 40
0.25
 40
0.25
 40
0.25
 40
0.25
 40
0.5
 40
0.5
 40
0.5
 40
0.5
 40
1.0
 40
1.0
 40
1.0
 40
1.0
 10
22.346
 20
179.2624
 30
0.0
 10
21.2384
 20
179.2624
 30
0.0
 10
20.215
 20
178.6715
 30
0.0
 10
19.6613
 20
177.7124
 30
0.0
 10
19.6613
 20
177.7124
 30
0.0
 10
19.1075
 20
176.7532
 30
0.0
 10
19.1075
 20
175.5715
 30
0.0
 10
19.6613
 20
174.6124
 30
0.0
 10
19.6613
 20
174.6124
 30
0.0
 10
20.215
 20
173.6532
 30
0.0
 10
21.2384
 20
173.0624
 30
0.0
 10
22.346
 20
173.0624
 30
0.0
  0
SPLINE
  5
4C
330
1F
100
AcDbEntity
  8
Capa 1
370
    15
100
AcDbSpline
210
0.0
220
0.0
230
1.0
 70
    24
 71
     3
 72
     8
 73
     4
 74
     0
 42
0.000000001
 43
0.0000000001
 40
0.0
 40
0.0
 40
0.0
 40
0.0
 40
1.0
 40
1.0
 40
1.0
 40
1.0
 10
32.346
 20
179.2624
 30
0.0
 10
32.346
 20
179.2624
 30
0.0
 10
22.346
 20
179.2624
 30
0.0
 10
22.346
 20
179.2624
 30
0.0
  0
SPLINE
  5
4D
330
1F
100
AcDbEntity
  8
Capa 1
370
    15
100
AcDbSpline
210
0.0
220
0.0
230
1.0
 70
     8
 71
     3
 72
    12
 73
     8
 74
     0
 42
0.000000001
 43
0.0000000001
 40
0.0
 40
0.0
 40
0.0
 40
0.0
 40
0.3333333333333333
 40
0.3333333333333333
 40
0.3333333333333333
 40
0.3333333333333333
 40
1.0
 40
1.0
 40
1.0
 40
1.0
 10
32.346
 20
173.0624
 30
0.0
 10
34.058
 20
173.0624
 30
0.0
 10
35.4459
 20
174.4503
 30
0.0
 10
35.446
 20
176.1623
 30
0.0
 10
35.446
 20
176.1623
 30
0.0
 10
35.446
 20
177.8744
 30
0.0
 10
34.058
 20
179.2623
 30
0.0
 10
32.346
 20
179.2623
 30
0.0
  0
SPLINE
  5
4E
330
1F
100
AcDbEntity
  8
Capa 1
370
    15
100
AcDbSpline
210
0.0
220
0.0
230
1.0
 70
    24
 71
     3
 72
     8
 73
     4
 74
     0
 42
0.000000001
 43
0.0000000001
 40
0.0
 40
0.0
 40
0.0
 40
0.0
 40
1.0
 40
1.0
 40
1.0
 40
1.0
 10
168.3456
 20
-154.7375
 30
0.0
 10
168.3456
 20
-154.7375
 30
0.0
 10
158.3456
 20
-154.7375
 30
0.0
 10
158.3456
 20
-154.7375
 30
0.0
  0
SPLINE
  5
4F
330
1F
100
AcDbEntity
  8
Capa 1
370
    15
100
AcDbSpline
210
0.0
220
0.0
230
1.0
 70
     8
 71
     3
 72
    12
 73
     8
 74
     0
 42
0.000000001
 43
0.0000000001
 40
0.0
 40
0.0
 40
0.0
 40
0.0
 40
0.3333333333333333
 40
0.3333333333333333
 40
0.3333333333333333
 40
0.3333333333333333
 40
1.0
 40
1.0
 40
1.0
 40
1.0
 10
168.3456
 20
-160.9375
 30
0.0
 10
170.0576
 20
-160.9375
 30
0.0
 10
171.4455
 20
-159.5496
 30
0.0
 10
171.4456
 20
-157.8376
 30
0.0
 10
171.4456
 20
-157.8376
 30
0.0
 10
171.4456
 20
-156.1255
 30
0.0
 10
170.0576
 20
-154.7376
 30
0.0
 10
168.3456
 20
-154.7376
 30
0.0
  0
SPLINE
  5
50
330
1F
100
AcDbEntity
  8
Capa 1
370
    15
100
AcDbSpline
210
0.0
220
0.0
230
1.0
 70
    24
 71
     3
 72
     8
 73
     4
 74
     0
 42
0.000000001
 43
0.0000000001
 40
0.0
 40
0.0
 40
0.0
 40
0.0
 40
1.0
 40
1.0
 40
1.0
 40
1.0
 10
158.3456
 20
-160.9375
 30
0.0
 10
158.3456
 20
-160.9375
 30
0.0
 10
168.3456
 20
-160.9375
 30
0.0
 10
168.3456
 20
-160.9375
 30
0.0
  0
SPLINE
  5
51
330
1F
100
AcDbEntity
  8
Capa 1
370
    15
100
AcDbSpline
210
0.0
220
0.0
230
1.0
 70
     8
 71
     3
 72
    16
 73
    12
 74
     0
 42
0.000000001
 43
0.0000000001
 40
0.0
 40
0.0
 40
0.0
 40
0.0
 40
0.25
 40
0.25
 40
0.25
 40
0.25
 40
0.5
 40
0.5
 40
0.5
 40
0.5
 40
1.0
 40
1.0
 40
1.0
 40
1.0
 10
158.3456
 20
-154.7375
 30
0.0
 10
157.238
 20
-154.7375
 30
0.0
 10
156.2146
 20
-155.3284
 30
0.0
 10
155.6609
 20
-156.2875
 30
0.0
 10
155.6609
 20
-156.2875
 30
0.0
 10
155.1071
 20
-157.2467
 30
0.0
 10
155.1071
 20
-158.4284
 30
0.0
 10
155.6609
 20
-159.3875
 30
0.0
 10
155.6609
 20
-159.3875
 30
0.0
 10
156.2146
 20
-160.3467
 30
0.0
 10
157.238
 20
-160.9375
 30
0.0
 10
158.3456
 20
-160.9375
 30
0.0
  0
SPLINE
  5
52
330
1F
100
AcDbEntity
  8
Capa 1
370
    15
100
AcDbSpline
210
0.0
220
0.0
230
1.0
 70
    24
 71
     3
 72
     8
 73
     4
 74
     0
 42
0.000000001
 43
0.0000000001
 40
0.0
 40
0.0
 40
0.0
 40
0.0
 40
1.0
 40
1.0
 40
1.0
 40
1.0
 10
122.3456
 20
-154.7375
 30
0.0
 10
122.3456
 20
-154.7375
 30
0.0
 10
112.3456
 20
-154.7375
 30
0.0
 10
112.3456
 20
-154.7375
 30
0.0
  0
SPLINE
  5
53
330
1F
100
AcDbEntity
  8
Capa 1
370
    15
100
AcDbSpline
210
0.0
220
0.0
230
1.0
 70
     8
 71
     3
 72
    12
 73
     8
 74
     0
 42
0.000000001
 43
0.0000000001
 40
0.0
 40
0.0
 40
0.0
 40
0.0
 40
0.3333333333333333
 40
0.3333333333333333
 40
0.3333333333333333
 40
0.3333333333333333
 40
1.0
 40
1.0
 40
1.0
 40
1.0
 10
122.3456
 20
-160.9375
 30
0.0
 10
124.0576
 20
-160.9375
 30
0.0
 10
125.4455
 20
-159.5496
 30
0.0
 10
125.4456
 20
-157.8376
 30
0.0
 10
125.4456
 20
-157.8376
 30
0.0
 10
125.4456
 20
-156.1255
 30
0.0
 10
124.0576
 20
-154.7376
 30
0.0
 10
122.3456
 20
-154.7376
 30
0.0
  0
SPLINE
  5
54
330
1F
100
AcDbEntity
  8
Capa 1
370
    15
100
AcDbSpline
210
0.0
220
0.0
230
1.0
 70
    24
 71
     3
 72
     8
 73
     4
 74
     0
 42
0.000000001
 43
0.0000000001
 40
0.0
 40
0.0
 40
0.0
 40
0.0
 40
1.0
 40
1.0
 40
1.0
 40
1.0
 10
112.3456
 20
-160.9375
 30
0.0
 10
112.3456
 20
-160.9375
 30
0.0
 10
122.3456
 20
-160.9375
 30
0.0
 10
122.3456
 20
-160.9375
 30
0.0
  0
SPLINE
  5
55
330
1F
100
AcDbEntity
  8
Capa 1
370
    15
100
AcDbSpline
210
0.0
220
0.0
230
1.0
 70
     8
 71
     3
 72
    16
 73
    12
 74
     0
 42
0.000000001
 43
0.0000000001
 40
0.0
 40
0.0
 40
0.0
 40
0.0
 40
0.25
 40
0.25
 40
0.25
 40
0.25
 40
0.5
 40
0.5
 40
0.5
 40
0.5
 40
1.0
 40
1.0
 40
1.0
 40
1.0
 10
112.3456
 20
-154.7375
 30
0.0
 10
111.238
 20
-154.7375
 30
0.0
 10
110.2146
 20
-155.3284
 30
0.0
 10
109.6609
 20
-156.2875
 30
0.0
 10
109.6609
 20
-156.2875
 30
0.0
 10
109.1071
 20
-157.2467
 30
0.0
 10
109.1071
 20
-158.4284
 30
0.0
 10
109.6609
 20
-159.3875
 30
0.0
 10
109.6609
 20
-159.3875
 30
0.0
 10
110.2146
 20
-160.3467
 30
0.0
 10
111.238
 20
-160.9375
 30
0.0
 10
112.3456
 20
-160.9375
 30
0.0
  0
SPLINE
  5
56
330
1F
100
AcDbEntity
  8
Capa 1
370
    15
100
AcDbSpline
210
0.0
220
0.0
230
1.0
 70
    24
 71
     3
 72
     8
 73
     4
 74
     0
 42
0.000000001
 43
0.0000000001
 40
0.0
 40
0.0
 40
0.0
 40
0.0
 40
1.0
 40
1.0
 40
1.0
 40
1.0
 10
185.0456
 20
-105.0375
 30
0.0
 10
185.0456
 20
-105.0375
 30
0.0
 10
185.0456
 20
-115.0375
 30
0.0
 10
185.0456
 20
-115.0375
 30
0.0
  0
SPLINE
  5
57
330
1F
100
AcDbEntity
  8
Capa 1
370
    15
100
AcDbSpline
210
0.0
220
0.0
230
1.0
 70
     8
 71
     3
 72
    16
 73
    12
 74
     0
 42
0.000000001
 43
0.0000000001
 40
0.0
 40
0.0
 40
0.0
 40
0.0
 40
0.25
 40
0.25
 40
0.25
 40
0.25
 40
0.5
 40
0.5
 40
0.5
 40
0.5
 40
1.0
 40
1.0
 40
1.0
 40
1.0
 10
191.2456
 20
-105.0375
 30
0.0
 10
191.2456
 20
-103.93
 30
0.0
 10
190.6547
 20
-102.9066
 30
0.0
 10
189.6956
 20
-102.3529
 30
0.0
 10
189.6956
 20
-102.3529
 30
0.0
 10
188.7364
 20
-101.7991
 30
0.0
 10
187.5547
 20
-101.7991
 30
0.0
 10
186.5956
 20
-102.3529
 30
0.0
 10
186.5956
 20
-102.3529
 30
0.0
 10
185.6364
 20
-102.9066
 30
0.0
 10
185.0456
 20
-103.93
 30
0.0
 10
185.0456
 20
-105.0375
 30
0.0
  0
SPLINE
  5
58
330
1F
100
AcDbEntity
  8
Capa 1
370
    15
100
AcDbSpline
210
0.0
220
0.0
230
1.0
 70
    24
 71
     3
 72
     8
 73
     4
 74
     0
 42
0.000000001
 43
0.0000000001
 40
0.0
 40
0.0
 40
0.0
 40
0.0
 40
1.0
 40
1.0
 40
1.0
 40
1.0
 10
191.2456
 20
-115.0375
 30
0.0
 10
191.2456
 20
-115.0375
 30
0.0
 10
191.2456
 20
-105.0375
 30
0.0
 10
191.2456
 20
-105.0375
 30
0.0
  0
SPLINE
  5
59
330
1F
100
AcDbEntity
  8
Capa 1
370
    15
100
AcDbSpline
210
0.0
220
0.0
230
1.0
 70
     8
 71
     3
 72
    12
 73
     8
 74
     0
 42
0.000000001
 43
0.0000000001
 40
0.0
 40
0.0
 40
0.0
 40
0.0
 40
0.3333333333333333
 40
0.3333333333333333
 40
0.3333333333333333
 40
0.3333333333333333
 40
1.0
 40
1.0
 40
1.0
 40
1.0
 10
185.0456
 20
-115.0375
 30
0.0
 10
185.0456
 20
-116.7496
 30
0.0
 10
186.4335
 20
-118.1375
 30
0.0
 10
188.1455
 20
-118.1375
 30
0.0
 10
188.1455
 20
-118.1375
 30
0.0
 10
189.8576
 20
-118.1376
 30
0.0
 10
191.2455
 20
-116.7496
 30
0.0
 10
191.2455
 20
-115.0376
 30
0.0
  0
SPLINE
  5
5A
330
1F
100
AcDbEntity
  8
Capa 1
370
    15
100
AcDbSpline
210
0.0
220
0.0
230
1.0
 70
    24
 71
     3
 72
     8
 73
     4
 74
     0
 42
0.000000001
 43
0.0000000001
 40
0.0
 40
0.0
 40
0.0
 40
0.0
 40
1.0
 40
1.0
 40
1.0
 40
1.0
 10
185.0456
 20
-23.3375
 30
0.0
 10
185.0456
 20
-23.3375
 30
0.0
 10
185.0456
 20
-33.3375
 30
0.0
 10
185.0456
 20
-33.3375
 30
0.0
  0
SPLINE
  5
5B
330
1F
100
AcDbEntity
  8
Capa 1
370
    15
100
AcDbSpline
210
0.0
220
0.0
230
1.0
 70
     8
 71
     3
 72
    16
 73
    12
 74
     0
 42
0.000000001
 43
0.0000000001
 40
0.0
 40
0.0
 40
0.0
 40
0.0
 40
0.25
 40
0.25
 40
0.25
 40
0.25
 40
0.5
 40
0.5
 40
0.5
 40
0.5
 40
1.0
 40
1.0
 40
1.0
 40
1.0
 10
191.2456
 20
-23.3375
 30
0.0
 10
191.2456
 20
-22.23
 30
0.0
 10
190.6547
 20
-21.2066
 30
0.0
 10
189.6956
 20
-20.6529
 30
0.0
 10
189.6956
 20
-20.6529
 30
0.0
 10
188.7364
 20
-20.0991
 30
0.0
 10
187.5547
 20
-20.0991
 30
0.0
 10
186.5956
 20
-20.6529
 30
0.0
 10
186.5956
 20
-20.6529
 30
0.0
 10
185.6364
 20
-21.2066
 30
0.0
 10
185.0456
 20
-22.23
 30
0.0
 10
185.0456
 20
-23.3375
 30
0.0
  0
SPLINE
  5
5C
330
1F
100
AcDbEntity
  8
Capa 1
370
    15
100
AcDbSpline
210
0.0
220
0.0
230
1.0
 70
    24
 71
     3
 72
     8
 73
     4
 74
     0
 42
0.000000001
 43
0.0000000001
 40
0.0
 40
0.0
 40
0.0
 40
0.0
 40
1.0
 40
1.0
 40
1.0
 40
1.0
 10
191.2456
 20
-33.3375
 30
0.0
 10
191.2456
 20
-33.3375
 30
0.0
 10
191.2456
 20
-23.3375
 30
0.0
 10
191.2456
 20
-23.3375
 30
0.0
  0
SPLINE
  5
5D
330
1F
100
AcDbEntity
  8
Capa 1
370
    15
100
AcDbSpline
210
0.0
220
0.0
230
1.0
 70
     8
 71
     3
 72
    12
 73
     8
 74
     0
 42
0.000000001
 43
0.0000000001
 40
0.0
 40
0.0
 40
0.0
 40
0.0
 40
0.3333333333333333
 40
0.3333333333333333
 40
0.3333333333333333
 40
0.3333333333333333
 40
1.0
 40
1.0
 40
1.0
 40
1.0
 10
185.0456
 20
-33.3375
 30
0.0
 10
185.0456
 20
-35.0496
 30
0.0
 10
186.4335
 20
-36.4375
 30
0.0
 10
188.1455
 20
-36.4375
 30
0.0
 10
188.1455
 20
-36.4375
 30
0.0
 10
189.8576
 20
-36.4376
 30
0.0
 10
191.2455
 20
-35.0496
 30
0.0
 10
191.2455
 20
-33.3376
 30
0.0
  0
SPLINE
  5
5E
330
1F
100
AcDbEntity
  8
Capa 1
370
    15
100
AcDbSpline
210
0.0
220
0.0
230
1.0
 70
    24
 71
     3
 72
     8
 73
     4
 74
     0
 42
0.000000001
 43
0.0000000001
 40
0.0
 40
0.0
 40
0.0
 40
0.0
 40
1.0
 40
1.0
 40
1.0
 40
1.0
 10
185.0456
 20
26.6624
 30
0.0
 10
185.0456
 20
26.6624
 30
0.0
 10
185.0456
 20
16.6624
 30
0.0
 10
185.0456
 20
16.6624
 30
0.0
  0
SPLINE
  5
5F
330
1F
100
AcDbEntity
  8
Capa 1
370
    15
100
AcDbSpline
210
0.0
220
0.0
230
1.0
 70
     8
 71
     3
 72
    16
 73
    12
 74
     0
 42
0.000000001
 43
0.0000000001
 40
0.0
 40
0.0
 40
0.0
 40
0.0
 40
0.25
 40
0.25
 40
0.25
 40
0.25
 40
0.5
 40
0.5
 40
0.5
 40
0.5
 40
1.0
 40
1.0
 40
1.0
 40
1.0
 10
191.2456
 20
26.6624
 30
0.0
 10
191.2456
 20
27.7699
 30
0.0
 10
190.6547
 20
28.7933
 30
0.0
 10
189.6956
 20
29.347
 30
0.0
 10
189.6956
 20
29.347
 30
0.0
 10
188.7364
 20
29.9008
 30
0.0
 10
187.5547
 20
29.9008
 30
0.0
 10
186.5956
 20
29.347
 30
0.0
 10
186.5956
 20
29.347
 30
0.0
 10
185.6364
 20
28.7933
 30
0.0
 10
185.0456
 20
27.7699
 30
0.0
 10
185.0456
 20
26.6624
 30
0.0
  0
SPLINE
  5
60
330
1F
100
AcDbEntity
  8
Capa 1
370
    15
100
AcDbSpline
210
0.0
220
0.0
230
1.0
 70
    24
 71
     3
 72
     8
 73
     4
 74
     0
 42
0.000000001
 43
0.0000000001
 40
0.0
 40
0.0
 40
0.0
 40
0.0
 40
1.0
 40
1.0
 40
1.0
 40
1.0
 10
191.2456
 20
16.6624
 30
0.0
 10
191.2456
 20
16.6624
 30
0.0
 10
191.2456
 20
26.6624
 30
0.0
 10
191.2456
 20
26.6624
 30
0.0
  0
SPLINE
  5
61
330
1F
100
AcDbEntity
  8
Capa 1
370
    15
100
AcDbSpline
210
0.0
220
0.0
230
1.0
 70
     8
 71
     3
 72
    12
 73
     8
 74
     0
 42
0.000000001
 43
0.0000000001
 40
0.0
 40
0.0
 40
0.0
 40
0.0
 40
0.3333333333333333
 40
0.3333333333333333
 40
0.3333333333333333
 40
0.3333333333333333
 40
1.0
 40
1.0
 40
1.0
 40
1.0
 10
185.0456
 20
16.6624
 30
0.0
 10
185.0456
 20
14.9503
 30
0.0
 10
186.4335
 20
13.5624
 30
0.0
 10
188.1455
 20
13.5624
 30
0.0
 10
188.1455
 20
13.5624
 30
0.0
 10
189.8576
 20
13.5623
 30
0.0
 10
191.2455
 20
14.9503
 30
0.0
 10
191.2455
 20
16.6623
 30
0.0
  0
SPLINE
  5
62
330
1F
100
AcDbEntity
  8
Capa 1
370
    15
100
AcDbSpline
210
0.0
220
0.0
230
1.0
 70
    24
 71
     3
 72
     8
 73
     4
 74
     0
 42
0.000000001
 43
0.0000000001
 40
0.0
 40
0.0
 40
0.0
 40
0.0
 40
1.0
 40
1.0
 40
1.0
 40
1.0
 10
185.0456
 20
110.8624
 30
0.0
 10
185.0456
 20
110.8624
 30
0.0
 10
185.0456
 20
100.8624
 30
0.0
 10
185.0456
 20
100.8624
 30
0.0
  0
SPLINE
  5
63
330
1F
100
AcDbEntity
  8
Capa 1
370
    15
100
AcDbSpline
210
0.0
220
0.0
230
1.0
 70
     8
 71
     3
 72
    16
 73
    12
 74
     0
 42
0.000000001
 43
0.0000000001
 40
0.0
 40
0.0
 40
0.0
 40
0.0
 40
0.25
 40
0.25
 40
0.25
 40
0.25
 40
0.5
 40
0.5
 40
0.5
 40
0.5
 40
1.0
 40
1.0
 40
1.0
 40
1.0
 10
191.2456
 20
110.8624
 30
0.0
 10
191.2456
 20
111.9699
 30
0.0
 10
190.6547
 20
112.9933
 30
0.0
 10
189.6956
 20
113.547
 30
0.0
 10
189.6956
 20
113.547
 30
0.0
 10
188.7364
 20
114.1008
 30
0.0
 10
187.5547
 20
114.1008
 30
0.0
 10
186.5956
 20
113.547
 30
0.0
 10
186.5956
 20
113.547
 30
0.0
 10
185.6364
 20
112.9933
 30
0.0
 10
185.0456
 20
111.9699
 30
0.0
 10
185.0456
 20
110.8624
 30
0.0
  0
SPLINE
  5
64
330
1F
100
AcDbEntity
  8
Capa 1
370
    15
100
AcDbSpline
210
0.0
220
0.0
230
1.0
 70
    24
 71
     3
 72
     8
 73
     4
 74
     0
 42
0.000000001
 43
0.0000000001
 40
0.0
 40
0.0
 40
0.0
 40
0.0
 40
1.0
 40
1.0
 40
1.0
 40
1.0
 10
191.2456
 20
100.8624
 30
0.0
 10
191.2456
 20
100.8624
 30
0.0
 10
191.2456
 20
110.8624
 30
0.0
 10
191.2456
 20
110.8624
 30
0.0
  0
SPLINE
  5
65
330
1F
100
AcDbEntity
  8
Capa 1
370
    15
100
AcDbSpline
210
0.0
220
0.0
230
1.0
 70
     8
 71
     3
 72
    12
 73
     8
 74
     0
 42
0.000000001
 43
0.0000000001
 40
0.0
 40
0.0
 40
0.0
 40
0.0
 40
0.3333333333333333
 40
0.3333333333333333
 40
0.3333333333333333
 40
0.3333333333333333
 40
1.0
 40
1.0
 40
1.0
 40
1.0
 10
185.0456
 20
100.8624
 30
0.0
 10
185.0456
 20
99.1503
 30
0.0
 10
186.4335
 20
97.7624
 30
0.0
 10
188.1455
 20
97.7624
 30
0.0
 10
188.1455
 20
97.7624
 30
0.0
 10
189.8576
 20
97.7623
 30
0.0
 10
191.2455
 20
99.1503
 30
0.0
 10
191.2455
 20
100.8623
 30
0.0
  0
SPLINE
  5
66
330
1F
100
AcDbEntity
  8
Capa 1
370
    15
100
AcDbSpline
210
0.0
220
0.0
230
1.0
 70
    24
 71
     3
 72
     8
 73
     4
 74
     0
 42
0.000000001
 43
0.0000000001
 40
0.0
 40
0.0
 40
0.0
 40
0.0
 40
1.0
 40
1.0
 40
1.0
 40
1.0
 10
112.3456
 20
173.0624
 30
0.0
 10
112.3456
 20
173.0624
 30
0.0
 10
122.3456
 20
173.0624
 30
0.0
 10
122.3456
 20
173.0624
 30
0.0
  0
SPLINE
  5
67
330
1F
100
AcDbEntity
  8
Capa 1
370
    15
100
AcDbSpline
210
0.0
220
0.0
230
1.0
 70
     8
 71
     3
 72
    16
 73
    12
 74
     0
 42
0.000000001
 43
0.0000000001
 40
0.0
 40
0.0
 40
0.0
 40
0.0
 40
0.25
 40
0.25
 40
0.25
 40
0.25
 40
0.5
 40
0.5
 40
0.5
 40
0.5
 40
1.0
 40
1.0
 40
1.0
 40
1.0
 10
112.3456
 20
179.2624
 30
0.0
 10
111.238
 20
179.2624
 30
0.0
 10
110.2146
 20
178.6715
 30
0.0
 10
109.6609
 20
177.7124
 30
0.0
 10
109.6609
 20
177.7124
 30
0.0
 10
109.1071
 20
176.7532
 30
0.0
 10
109.1071
 20
175.5715
 30
0.0
 10
109.6609
 20
174.6124
 30
0.0
 10
109.6609
 20
174.6124
 30
0.0
 10
110.2146
 20
173.6532
 30
0.0
 10
111.238
 20
173.0624
 30
0.0
 10
112.3456
 20
173.0624
 30
0.0
  0
SPLINE
  5
68
330
1F
100
AcDbEntity
  8
Capa 1
370
    15
100
AcDbSpline
210
0.0
220
0.0
230
1.0
 70
    24
 71
     3
 72
     8
 73
     4
 74
     0
 42
0.000000001
 43
0.0000000001
 40
0.0
 40
0.0
 40
0.0
 40
0.0
 40
1.0
 40
1.0
 40
1.0
 40
1.0
 10
122.3456
 20
179.2624
 30
0.0
 10
122.3456
 20
179.2624
 30
0.0
 10
112.3456
 20
179.2624
 30
0.0
 10
112.3456
 20
179.2624
 30
0.0
  0
SPLINE
  5
69
330
1F
100
AcDbEntity
  8
Capa 1
370
    15
100
AcDbSpline
210
0.0
220
0.0
230
1.0
 70
     8
 71
     3
 72
    12
 73
     8
 74
     0
 42
0.000000001
 43
0.0000000001
 40
0.0
 40
0.0
 40
0.0
 40
0.0
 40
0.3333333333333333
 40
0.3333333333333333
 40
0.3333333333333333
 40
0.3333333333333333
 40
1.0
 40
1.0
 40
1.0
 40
1.0
 10
122.3456
 20
173.0624
 30
0.0
 10
124.0576
 20
173.0624
 30
0.0
 10
125.4455
 20
174.4503
 30
0.0
 10
125.4456
 20
176.1623
 30
0.0
 10
125.4456
 20
176.1623
 30
0.0
 10
125.4456
 20
177.8744
 30
0.0
 10
124.0576
 20
179.2623
 30
0.0
 10
122.3456
 20
179.2623
 30
0.0
  0
SPLINE
  5
6A
330
1F
100
AcDbEntity
  8
Capa 1
370
    15
100
AcDbSpline
210
0.0
220
0.0
230
1.0
 70
     8
 71
     3
 72
    20
 73
    16
 74
     0
 42
0.000000001
 43
0.0000000001
 40
0.0
 40
0.0
 40
0.0
 40
0.0
 40
0.2
 40
0.2
 40
0.2
 40
0.2
 40
0.4
 40
0.4
 40
0.4
 40
0.4
 40
0.6
 40
0.6
 40
0.6
 40
0.6
 40
1.0
 40
1.0
 40
1.0
 40
1.0
 10
143.9456
 20
-159.3875
 30
0.0
 10
143.9456
 20
-158.5039
 30
0.0
 10
143.2292
 20
-157.7876
 30
0.0
 10
142.3456
 20
-157.7875
 30
0.0
 10
142.3456
 20
-157.7875
 30
0.0
 10
141.4619
 20
-157.7875
 30
0.0
 10
140.7456
 20
-158.5039
 30
0.0
 10
140.7456
 20
-159.3875
 30
0.0
 10
140.7456
 20
-159.3875
 30
0.0
 10
140.7455
 20
-160.2712
 30
0.0
 10
141.4619
 20
-160.9875
 30
0.0
 10
142.3455
 20
-160.9875
 30
0.0
 10
142.3455
 20
-160.9875
 30
0.0
 10
143.2292
 20
-160.9876
 30
0.0
 10
143.9455
 20
-160.2712
 30
0.0
 10
143.9455
 20
-159.3876
 30
0.0
  0
SPLINE
  5
6B
330
1F
100
AcDbEntity
  8
Capa 1
370
    15
100
AcDbSpline
210
0.0
220
0.0
230
1.0
 70
     8
 71
     3
 72
    20
 73
    16
 74
     0
 42
0.000000001
 43
0.0000000001
 40
0.0
 40
0.0
 40
0.0
 40
0.0
 40
0.2
 40
0.2
 40
0.2
 40
0.2
 40
0.4
 40
0.4
 40
0.4
 40
0.4
 40
0.6
 40
0.6
 40
0.6
 40
0.6
 40
1.0
 40
1.0
 40
1.0
 40
1.0
 10
143.9456
 20
174.6124
 30
0.0
 10
143.9456
 20
175.496
 30
0.0
 10
143.2292
 20
176.2123
 30
0.0
 10
142.3456
 20
176.2124
 30
0.0
 10
142.3456
 20
176.2124
 30
0.0
 10
141.4619
 20
176.2124
 30
0.0
 10
140.7456
 20
175.496
 30
0.0
 10
140.7456
 20
174.6124
 30
0.0
 10
140.7456
 20
174.6124
 30
0.0
 10
140.7455
 20
173.7287
 30
0.0
 10
141.4619
 20
173.0124
 30
0.0
 10
142.3455
 20
173.0124
 30
0.0
 10
142.3455
 20
173.0124
 30
0.0
 10
143.2292
 20
173.0123
 30
0.0
 10
143.9455
 20
173.7287
 30
0.0
 10
143.9455
 20
174.6123
 30
0.0
  0
SPLINE
  5
6C
330
1F
100
AcDbEntity
  8
Capa 1
370
    15
100
AcDbSpline
210
0.0
220
0.0
230
1.0
 70
     8
 71
     3
 72
    20
 73
    16
 74
     0
 42
0.000000001
 43
0.0000000001
 40
0.0
 40
0.0
 40
0.0
 40
0.0
 40
0.2
 40
0.2
 40
0.2
 40
0.2
 40
0.4
 40
0.4
 40
0.4
 40
0.4
 40
0.6
 40
0.6
 40
0.6
 40
0.6
 40
1.0
 40
1.0
 40
1.0
 40
1.0
 10
188.1956
 20
130.8624
 30
0.0
 10
188.1956
 20
131.746
 30
0.0
 10
187.4792
 20
132.4623
 30
0.0
 10
186.5956
 20
132.4624
 30
0.0
 10
186.5956
 20
132.4624
 30
0.0
 10
185.7119
 20
132.4624
 30
0.0
 10
184.9956
 20
131.746
 30
0.0
 10
184.9956
 20
130.8624
 30
0.0
 10
184.9956
 20
130.8624
 30
0.0
 10
184.9955
 20
129.9787
 30
0.0
 10
185.7119
 20
129.2624
 30
0.0
 10
186.5955
 20
129.2624
 30
0.0
 10
186.5955
 20
129.2624
 30
0.0
 10
187.4792
 20
129.2623
 30
0.0
 10
188.1955
 20
129.9787
 30
0.0
 10
188.1955
 20
130.8623
 30
0.0
  0
SPLINE
  5
6D
330
1F
100
AcDbEntity
  8
Capa 1
370
    15
100
AcDbSpline
210
0.0
220
0.0
230
1.0
 70
     8
 71
     3
 72
    20
 73
    16
 74
     0
 42
0.000000001
 43
0.0000000001
 40
0.0
 40
0.0
 40
0.0
 40
0.0
 40
0.2
 40
0.2
 40
0.2
 40
0.2
 40
0.4
 40
0.4
 40
0.4
 40
0.4
 40
0.6
 40
0.6
 40
0.6
 40
0.6
 40
1.0
 40
1.0
 40
1.0
 40
1.0
 10
188.1956
 20
-3.2376
 30
0.0
 10
188.1956
 20
-2.354
 30
0.0
 10
187.4792
 20
-1.6377
 30
0.0
 10
186.5956
 20
-1.6376
 30
0.0
 10
186.5956
 20
-1.6376
 30
0.0
 10
185.7119
 20
-1.6376
 30
0.0
 10
184.9956
 20
-2.354
 30
0.0
 10
184.9956
 20
-3.2376
 30
0.0
 10
184.9956
 20
-3.2376
 30
0.0
 10
184.9955
 20
-4.1213
 30
0.0
 10
185.7119
 20
-4.8376
 30
0.0
 10
186.5955
 20
-4.8376
 30
0.0
 10
186.5955
 20
-4.8376
 30
0.0
 10
187.4792
 20
-4.8377
 30
0.0
 10
188.1955
 20
-4.1213
 30
0.0
 10
188.1955
 20
-3.2377
 30
0.0
  0
SPLINE
  5
6E
330
1F
100
AcDbEntity
  8
Capa 1
370
    15
100
AcDbSpline
210
0.0
220
0.0
230
1.0
 70
     8
 71
     3
 72
    20
 73
    16
 74
     0
 42
0.000000001
 43
0.0000000001
 40
0.0
 40
0.0
 40
0.0
 40
0.0
 40
0.2
 40
0.2
 40
0.2
 40
0.2
 40
0.4
 40
0.4
 40
0.4
 40
0.4
 40
0.6
 40
0.6
 40
0.6
 40
0.6
 40
1.0
 40
1.0
 40
1.0
 40
1.0
 10
188.1956
 20
-135.1375
 30
0.0
 10
188.1956
 20
-134.2539
 30
0.0
 10
187.4792
 20
-133.5376
 30
0.0
 10
186.5956
 20
-133.5375
 30
0.0
 10
186.5956
 20
-133.5375
 30
0.0
 10
185.7119
 20
-133.5375
 30
0.0
 10
184.9956
 20
-134.2539
 30
0.0
 10
184.9956
 20
-135.1375
 30
0.0
 10
184.9956
 20
-135.1375
 30
0.0
 10
184.9955
 20
-136.0212
 30
0.0
 10
185.7119
 20
-136.7375
 30
0.0
 10
186.5955
 20
-136.7375
 30
0.0
 10
186.5955
 20
-136.7375
 30
0.0
 10
187.4792
 20
-136.7376
 30
0.0
 10
188.1955
 20
-136.0212
 30
0.0
 10
188.1955
 20
-135.1376
 30
0.0
  0
SPLINE
  5
6F
330
1F
100
AcDbEntity
  8
Capa 1
370
    15
100
AcDbSpline
210
0.0
220
0.0
230
1.0
 70
    24
 71
     3
 72
     8
 73
     4
 74
     0
 42
0.000000001
 43
0.0000000001
 40
0.0
 40
0.0
 40
0.0
 40
0.0
 40
1.0
 40
1.0
 40
1.0
 40
1.0
 10
-17.6539
 20
-154.7375
 30
0.0
 10
-17.6539
 20
-154.7375
 30
0.0
 10
-27.6539
 20
-154.7375
 30
0.0
 10
-27.6539
 20
-154.7375
 30
0.0
  0
SPLINE
  5
70
330
1F
100
AcDbEntity
  8
Capa 1
370
    15
100
AcDbSpline
210
0.0
220
0.0
230
1.0
 70
     8
 71
     3
 72
    12
 73
     8
 74
     0
 42
0.000000001
 43
0.0000000001
 40
0.0
 40
0.0
 40
0.0
 40
0.0
 40
0.3333333333333333
 40
0.3333333333333333
 40
0.3333333333333333
 40
0.3333333333333333
 40
1.0
 40
1.0
 40
1.0
 40
1.0
 10
-17.6539
 20
-160.9375
 30
0.0
 10
-15.9419
 20
-160.9375
 30
0.0
 10
-14.554
 20
-159.5496
 30
0.0
 10
-14.5539
 20
-157.8376
 30
0.0
 10
-14.5539
 20
-157.8376
 30
0.0
 10
-14.5539
 20
-156.1255
 30
0.0
 10
-15.9419
 20
-154.7376
 30
0.0
 10
-17.6539
 20
-154.7376
 30
0.0
  0
SPLINE
  5
71
330
1F
100
AcDbEntity
  8
Capa 1
370
    15
100
AcDbSpline
210
0.0
220
0.0
230
1.0
 70
     8
 71
     3
 72
    16
 73
    12
 74
     0
 42
0.000000001
 43
0.0000000001
 40
0.0
 40
0.0
 40
0.0
 40
0.0
 40
0.25
 40
0.25
 40
0.25
 40
0.25
 40
0.5
 40
0.5
 40
0.5
 40
0.5
 40
1.0
 40
1.0
 40
1.0
 40
1.0
 10
-27.6539
 20
-154.7375
 30
0.0
 10
-28.7615
 20
-154.7375
 30
0.0
 10
-29.7849
 20
-155.3284
 30
0.0
 10
-30.3386
 20
-156.2875
 30
0.0
 10
-30.3386
 20
-156.2875
 30
0.0
 10
-30.8924
 20
-157.2467
 30
0.0
 10
-30.8924
 20
-158.4284
 30
0.0
 10
-30.3386
 20
-159.3875
 30
0.0
 10
-30.3386
 20
-159.3875
 30
0.0
 10
-29.7849
 20
-160.3467
 30
0.0
 10
-28.7615
 20
-160.9375
 30
0.0
 10
-27.6539
 20
-160.9375
 30
0.0
  0
SPLINE
  5
72
330
1F
100
AcDbEntity
  8
Capa 1
370
    15
100
AcDbSpline
210
0.0
220
0.0
230
1.0
 70
    24
 71
     3
 72
     8
 73
     4
 74
     0
 42
0.000000001
 43
0.0000000001
 40
0.0
 40
0.0
 40
0.0
 40
0.0
 40
1.0
 40
1.0
 40
1.0
 40
1.0
 10
-187.5542
 20
-155.0375
 30
0.0
 10
-187.5542
 20
-155.0375
 30
0.0
 10
-187.5542
 20
-165.0375
 30
0.0
 10
-187.5542
 20
-165.0375
 30
0.0
  0
SPLINE
  5
73
330
1F
100
AcDbEntity
  8
Capa 1
370
    15
100
AcDbSpline
210
0.0
220
0.0
230
1.0
 70
     8
 71
     3
 72
    16
 73
    12
 74
     0
 42
0.000000001
 43
0.0000000001
 40
0.0
 40
0.0
 40
0.0
 40
0.0
 40
0.25
 40
0.25
 40
0.25
 40
0.25
 40
0.5
 40
0.5
 40
0.5
 40
0.5
 40
1.0
 40
1.0
 40
1.0
 40
1.0
 10
-181.3542
 20
-155.0375
 30
0.0
 10
-181.3542
 20
-153.93
 30
0.0
 10
-181.9451
 20
-152.9066
 30
0.0
 10
-182.9042
 20
-152.3529
 30
0.0
 10
-182.9042
 20
-152.3529
 30
0.0
 10
-183.8634
 20
-151.7991
 30
0.0
 10
-185.0451
 20
-151.7991
 30
0.0
 10
-186.0042
 20
-152.3529
 30
0.0
 10
-186.0042
 20
-152.3529
 30
0.0
 10
-186.9634
 20
-152.9066
 30
0.0
 10
-187.5542
 20
-153.93
 30
0.0
 10
-187.5542
 20
-155.0375
 30
0.0
  0
SPLINE
  5
74
330
1F
100
AcDbEntity
  8
Capa 1
370
    15
100
AcDbSpline
210
0.0
220
0.0
230
1.0
 70
     8
 71
     3
 72
    12
 73
     8
 74
     0
 42
0.000000001
 43
0.0000000001
 40
0.0
 40
0.0
 40
0.0
 40
0.0
 40
0.3333333333333333
 40
0.3333333333333333
 40
0.3333333333333333
 40
0.3333333333333333
 40
1.0
 40
1.0
 40
1.0
 40
1.0
 10
-187.5542
 20
-165.0375
 30
0.0
 10
-187.5542
 20
-166.7496
 30
0.0
 10
-186.1663
 20
-168.1375
 30
0.0
 10
-184.4543
 20
-168.1375
 30
0.0
 10
-184.4543
 20
-168.1375
 30
0.0
 10
-182.7422
 20
-168.1376
 30
0.0
 10
-181.3543
 20
-166.7496
 30
0.0
 10
-181.3543
 20
-165.0376
 30
0.0
  0
SPLINE
  5
75
330
1F
100
AcDbEntity
  8
Capa 1
370
    15
100
AcDbSpline
210
0.0
220
0.0
230
1.0
 70
    24
 71
     3
 72
     8
 73
     4
 74
     0
 42
0.000000001
 43
0.0000000001
 40
0.0
 40
0.0
 40
0.0
 40
0.0
 40
1.0
 40
1.0
 40
1.0
 40
1.0
 10
-187.5542
 20
160.8624
 30
0.0
 10
-187.5542
 20
160.8624
 30
0.0
 10
-187.5542
 20
150.8624
 30
0.0
 10
-187.5542
 20
150.8624
 30
0.0
  0
SPLINE
  5
76
330
1F
100
AcDbEntity
  8
Capa 1
370
    15
100
AcDbSpline
210
0.0
220
0.0
230
1.0
 70
     8
 71
     3
 72
    16
 73
    12
 74
     0
 42
0.000000001
 43
0.0000000001
 40
0.0
 40
0.0
 40
0.0
 40
0.0
 40
0.25
 40
0.25
 40
0.25
 40
0.25
 40
0.5
 40
0.5
 40
0.5
 40
0.5
 40
1.0
 40
1.0
 40
1.0
 40
1.0
 10
-181.3542
 20
160.8624
 30
0.0
 10
-181.3542
 20
161.9699
 30
0.0
 10
-181.9451
 20
162.9933
 30
0.0
 10
-182.9042
 20
163.547
 30
0.0
 10
-182.9042
 20
163.547
 30
0.0
 10
-183.8634
 20
164.1008
 30
0.0
 10
-185.0451
 20
164.1008
 30
0.0
 10
-186.0042
 20
163.547
 30
0.0
 10
-186.0042
 20
163.547
 30
0.0
 10
-186.9634
 20
162.9933
 30
0.0
 10
-187.5542
 20
161.9699
 30
0.0
 10
-187.5542
 20
160.8624
 30
0.0
  0
SPLINE
  5
77
330
1F
100
AcDbEntity
  8
Capa 1
370
    15
100
AcDbSpline
210
0.0
220
0.0
230
1.0
 70
     8
 71
     3
 72
    12
 73
     8
 74
     0
 42
0.000000001
 43
0.0000000001
 40
0.0
 40
0.0
 40
0.0
 40
0.0
 40
0.3333333333333333
 40
0.3333333333333333
 40
0.3333333333333333
 40
0.3333333333333333
 40
1.0
 40
1.0
 40
1.0
 40
1.0
 10
-187.5542
 20
150.8624
 30
0.0
 10
-187.5542
 20
149.1503
 30
0.0
 10
-186.1663
 20
147.7624
 30
0.0
 10
-184.4543
 20
147.7624
 30
0.0
 10
-184.4543
 20
147.7624
 30
0.0
 10
-182.7422
 20
147.7623
 30
0.0
 10
-181.3543
 20
149.1503
 30
0.0
 10
-181.3543
 20
150.8623
 30
0.0
  0
SPLINE
  5
78
330
1F
100
AcDbEntity
  8
Capa 1
370
    15
100
AcDbSpline
210
0.0
220
0.0
230
1.0
 70
    24
 71
     3
 72
     8
 73
     4
 74
     0
 42
0.000000001
 43
0.0000000001
 40
0.0
 40
0.0
 40
0.0
 40
0.0
 40
1.0
 40
1.0
 40
1.0
 40
1.0
 10
-17.6539
 20
179.2624
 30
0.0
 10
-17.6539
 20
179.2624
 30
0.0
 10
-27.6539
 20
179.2624
 30
0.0
 10
-27.6539
 20
179.2624
 30
0.0
  0
SPLINE
  5
79
330
1F
100
AcDbEntity
  8
Capa 1
370
    15
100
AcDbSpline
210
0.0
220
0.0
230
1.0
 70
     8
 71
     3
 72
    12
 73
     8
 74
     0
 42
0.000000001
 43
0.0000000001
 40
0.0
 40
0.0
 40
0.0
 40
0.0
 40
0.3333333333333333
 40
0.3333333333333333
 40
0.3333333333333333
 40
0.3333333333333333
 40
1.0
 40
1.0
 40
1.0
 40
1.0
 10
-17.6539
 20
173.0624
 30
0.0
 10
-15.9419
 20
173.0624
 30
0.0
 10
-14.554
 20
174.4503
 30
0.0
 10
-14.5539
 20
176.1623
 30
0.0
 10
-14.5539
 20
176.1623
 30
0.0
 10
-14.5539
 20
177.8744
 30
0.0
 10
-15.9419
 20
179.2623
 30
0.0
 10
-17.6539
 20
179.2623
 30
0.0
  0
SPLINE
  5
7A
330
1F
100
AcDbEntity
  8
Capa 1
370
    15
100
AcDbSpline
210
0.0
220
0.0
230
1.0
 70
     8
 71
     3
 72
    16
 73
    12
 74
     0
 42
0.000000001
 43
0.0000000001
 40
0.0
 40
0.0
 40
0.0
 40
0.0
 40
0.25
 40
0.25
 40
0.25
 40
0.25
 40
0.5
 40
0.5
 40
0.5
 40
0.5
 40
1.0
 40
1.0
 40
1.0
 40
1.0
 10
-27.6539
 20
179.2624
 30
0.0
 10
-28.7615
 20
179.2624
 30
0.0
 10
-29.7849
 20
178.6715
 30
0.0
 10
-30.3386
 20
177.7124
 30
0.0
 10
-30.3386
 20
177.7124
 30
0.0
 10
-30.8924
 20
176.7532
 30
0.0
 10
-30.8924
 20
175.5715
 30
0.0
 10
-30.3386
 20
174.6124
 30
0.0
 10
-30.3386
 20
174.6124
 30
0.0
 10
-29.7849
 20
173.6532
 30
0.0
 10
-28.7615
 20
173.0624
 30
0.0
 10
-27.6539
 20
173.0624
 30
0.0
  0
SPLINE
  5
7B
330
1F
100
AcDbEntity
  8
Capa 1
370
    15
100
AcDbSpline
210
0.0
220
0.0
230
1.0
 70
    24
 71
     3
 72
     8
 73
     4
 74
     0
 42
0.000000001
 43
0.0000000001
 40
0.0
 40
0.0
 40
0.0
 40
0.0
 40
1.0
 40
1.0
 40
1.0
 40
1.0
 10
-164.6542
 20
-160.9375
 30
0.0
 10
-164.6542
 20
-160.9375
 30
0.0
 10
-154.6542
 20
-160.9375
 30
0.0
 10
-154.6542
 20
-160.9375
 30
0.0
  0
SPLINE
  5
7C
330
1F
100
AcDbEntity
  8
Capa 1
370
    15
100
AcDbSpline
210
0.0
220
0.0
230
1.0
 70
     8
 71
     3
 72
    16
 73
    12
 74
     0
 42
0.000000001
 43
0.0000000001
 40
0.0
 40
0.0
 40
0.0
 40
0.0
 40
0.25
 40
0.25
 40
0.25
 40
0.25
 40
0.5
 40
0.5
 40
0.5
 40
0.5
 40
1.0
 40
1.0
 40
1.0
 40
1.0
 10
-164.6542
 20
-154.7375
 30
0.0
 10
-165.7618
 20
-154.7375
 30
0.0
 10
-166.7852
 20
-155.3284
 30
0.0
 10
-167.3389
 20
-156.2875
 30
0.0
 10
-167.3389
 20
-156.2875
 30
0.0
 10
-167.8927
 20
-157.2467
 30
0.0
 10
-167.8927
 20
-158.4284
 30
0.0
 10
-167.3389
 20
-159.3875
 30
0.0
 10
-167.3389
 20
-159.3875
 30
0.0
 10
-166.7852
 20
-160.3467
 30
0.0
 10
-165.7618
 20
-160.9375
 30
0.0
 10
-164.6542
 20
-160.9375
 30
0.0
  0
SPLINE
  5
7D
330
1F
100
AcDbEntity
  8
Capa 1
370
    15
100
AcDbSpline
210
0.0
220
0.0
230
1.0
 70
    24
 71
     3
 72
     8
 73
     4
 74
     0
 42
0.000000001
 43
0.0000000001
 40
0.0
 40
0.0
 40
0.0
 40
0.0
 40
1.0
 40
1.0
 40
1.0
 40
1.0
 10
-154.6542
 20
-154.7375
 30
0.0
 10
-154.6542
 20
-154.7375
 30
0.0
 10
-164.6542
 20
-154.7375
 30
0.0
 10
-164.6542
 20
-154.7375
 30
0.0
  0
SPLINE
  5
7E
330
1F
100
AcDbEntity
  8
Capa 1
370
    15
100
AcDbSpline
210
0.0
220
0.0
230
1.0
 70
     8
 71
     3
 72
    12
 73
     8
 74
     0
 42
0.000000001
 43
0.0000000001
 40
0.0
 40
0.0
 40
0.0
 40
0.0
 40
0.3333333333333333
 40
0.3333333333333333
 40
0.3333333333333333
 40
0.3333333333333333
 40
1.0
 40
1.0
 40
1.0
 40
1.0
 10
-154.6542
 20
-160.9375
 30
0.0
 10
-152.9422
 20
-160.9375
 30
0.0
 10
-151.5543
 20
-159.5496
 30
0.0
 10
-151.5542
 20
-157.8376
 30
0.0
 10
-151.5542
 20
-157.8376
 30
0.0
 10
-151.5542
 20
-156.1255
 30
0.0
 10
-152.9422
 20
-154.7376
 30
0.0
 10
-154.6542
 20
-154.7376
 30
0.0
  0
SPLINE
  5
7F
330
1F
100
AcDbEntity
  8
Capa 1
370
    15
100
AcDbSpline
210
0.0
220
0.0
230
1.0
 70
    24
 71
     3
 72
     8
 73
     4
 74
     0
 42
0.000000001
 43
0.0000000001
 40
0.0
 40
0.0
 40
0.0
 40
0.0
 40
1.0
 40
1.0
 40
1.0
 40
1.0
 10
-118.6542
 20
-160.9375
 30
0.0
 10
-118.6542
 20
-160.9375
 30
0.0
 10
-108.6542
 20
-160.9375
 30
0.0
 10
-108.6542
 20
-160.9375
 30
0.0
  0
SPLINE
  5
80
330
1F
100
AcDbEntity
  8
Capa 1
370
    15
100
AcDbSpline
210
0.0
220
0.0
230
1.0
 70
     8
 71
     3
 72
    16
 73
    12
 74
     0
 42
0.000000001
 43
0.0000000001
 40
0.0
 40
0.0
 40
0.0
 40
0.0
 40
0.25
 40
0.25
 40
0.25
 40
0.25
 40
0.5
 40
0.5
 40
0.5
 40
0.5
 40
1.0
 40
1.0
 40
1.0
 40
1.0
 10
-118.6542
 20
-154.7375
 30
0.0
 10
-119.7618
 20
-154.7375
 30
0.0
 10
-120.7852
 20
-155.3284
 30
0.0
 10
-121.3389
 20
-156.2875
 30
0.0
 10
-121.3389
 20
-156.2875
 30
0.0
 10
-121.8927
 20
-157.2467
 30
0.0
 10
-121.8927
 20
-158.4284
 30
0.0
 10
-121.3389
 20
-159.3875
 30
0.0
 10
-121.3389
 20
-159.3875
 30
0.0
 10
-120.7852
 20
-160.3467
 30
0.0
 10
-119.7618
 20
-160.9375
 30
0.0
 10
-118.6542
 20
-160.9375
 30
0.0
  0
SPLINE
  5
81
330
1F
100
AcDbEntity
  8
Capa 1
370
    15
100
AcDbSpline
210
0.0
220
0.0
230
1.0
 70
    24
 71
     3
 72
     8
 73
     4
 74
     0
 42
0.000000001
 43
0.0000000001
 40
0.0
 40
0.0
 40
0.0
 40
0.0
 40
1.0
 40
1.0
 40
1.0
 40
1.0
 10
-108.6542
 20
-154.7375
 30
0.0
 10
-108.6542
 20
-154.7375
 30
0.0
 10
-118.6542
 20
-154.7375
 30
0.0
 10
-118.6542
 20
-154.7375
 30
0.0
  0
SPLINE
  5
82
330
1F
100
AcDbEntity
  8
Capa 1
370
    15
100
AcDbSpline
210
0.0
220
0.0
230
1.0
 70
     8
 71
     3
 72
    12
 73
     8
 74
     0
 42
0.000000001
 43
0.0000000001
 40
0.0
 40
0.0
 40
0.0
 40
0.0
 40
0.3333333333333333
 40
0.3333333333333333
 40
0.3333333333333333
 40
0.3333333333333333
 40
1.0
 40
1.0
 40
1.0
 40
1.0
 10
-108.6542
 20
-160.9375
 30
0.0
 10
-106.9422
 20
-160.9375
 30
0.0
 10
-105.5543
 20
-159.5496
 30
0.0
 10
-105.5542
 20
-157.8376
 30
0.0
 10
-105.5542
 20
-157.8376
 30
0.0
 10
-105.5542
 20
-156.1255
 30
0.0
 10
-106.9422
 20
-154.7376
 30
0.0
 10
-108.6542
 20
-154.7376
 30
0.0
  0
SPLINE
  5
83
330
1F
100
AcDbEntity
  8
Capa 1
370
    15
100
AcDbSpline
210
0.0
220
0.0
230
1.0
 70
    24
 71
     3
 72
     8
 73
     4
 74
     0
 42
0.000000001
 43
0.0000000001
 40
0.0
 40
0.0
 40
0.0
 40
0.0
 40
1.0
 40
1.0
 40
1.0
 40
1.0
 10
-187.5542
 20
-105.0375
 30
0.0
 10
-187.5542
 20
-105.0375
 30
0.0
 10
-187.5542
 20
-115.0375
 30
0.0
 10
-187.5542
 20
-115.0375
 30
0.0
  0
SPLINE
  5
84
330
1F
100
AcDbEntity
  8
Capa 1
370
    15
100
AcDbSpline
210
0.0
220
0.0
230
1.0
 70
     8
 71
     3
 72
    16
 73
    12
 74
     0
 42
0.000000001
 43
0.0000000001
 40
0.0
 40
0.0
 40
0.0
 40
0.0
 40
0.25
 40
0.25
 40
0.25
 40
0.25
 40
0.5
 40
0.5
 40
0.5
 40
0.5
 40
1.0
 40
1.0
 40
1.0
 40
1.0
 10
-181.3542
 20
-105.0375
 30
0.0
 10
-181.3542
 20
-103.93
 30
0.0
 10
-181.9451
 20
-102.9066
 30
0.0
 10
-182.9042
 20
-102.3529
 30
0.0
 10
-182.9042
 20
-102.3529
 30
0.0
 10
-183.8634
 20
-101.7991
 30
0.0
 10
-185.0451
 20
-101.7991
 30
0.0
 10
-186.0042
 20
-102.3529
 30
0.0
 10
-186.0042
 20
-102.3529
 30
0.0
 10
-186.9634
 20
-102.9066
 30
0.0
 10
-187.5542
 20
-103.93
 30
0.0
 10
-187.5542
 20
-105.0375
 30
0.0
  0
SPLINE
  5
85
330
1F
100
AcDbEntity
  8
Capa 1
370
    15
100
AcDbSpline
210
0.0
220
0.0
230
1.0
 70
    24
 71
     3
 72
     8
 73
     4
 74
     0
 42
0.000000001
 43
0.0000000001
 40
0.0
 40
0.0
 40
0.0
 40
0.0
 40
1.0
 40
1.0
 40
1.0
 40
1.0
 10
-181.3542
 20
-115.0375
 30
0.0
 10
-181.3542
 20
-115.0375
 30
0.0
 10
-181.3542
 20
-105.0375
 30
0.0
 10
-181.3542
 20
-105.0375
 30
0.0
  0
SPLINE
  5
86
330
1F
100
AcDbEntity
  8
Capa 1
370
    15
100
AcDbSpline
210
0.0
220
0.0
230
1.0
 70
     8
 71
     3
 72
    12
 73
     8
 74
     0
 42
0.000000001
 43
0.0000000001
 40
0.0
 40
0.0
 40
0.0
 40
0.0
 40
0.3333333333333333
 40
0.3333333333333333
 40
0.3333333333333333
 40
0.3333333333333333
 40
1.0
 40
1.0
 40
1.0
 40
1.0
 10
-187.5542
 20
-115.0375
 30
0.0
 10
-187.5542
 20
-116.7496
 30
0.0
 10
-186.1663
 20
-118.1375
 30
0.0
 10
-184.4543
 20
-118.1375
 30
0.0
 10
-184.4543
 20
-118.1375
 30
0.0
 10
-182.7422
 20
-118.1376
 30
0.0
 10
-181.3543
 20
-116.7496
 30
0.0
 10
-181.3543
 20
-115.0376
 30
0.0
  0
SPLINE
  5
87
330
1F
100
AcDbEntity
  8
Capa 1
370
    15
100
AcDbSpline
210
0.0
220
0.0
230
1.0
 70
    24
 71
     3
 72
     8
 73
     4
 74
     0
 42
0.000000001
 43
0.0000000001
 40
0.0
 40
0.0
 40
0.0
 40
0.0
 40
1.0
 40
1.0
 40
1.0
 40
1.0
 10
-187.5542
 20
-23.3375
 30
0.0
 10
-187.5542
 20
-23.3375
 30
0.0
 10
-187.5542
 20
-33.3375
 30
0.0
 10
-187.5542
 20
-33.3375
 30
0.0
  0
SPLINE
  5
88
330
1F
100
AcDbEntity
  8
Capa 1
370
    15
100
AcDbSpline
210
0.0
220
0.0
230
1.0
 70
     8
 71
     3
 72
    16
 73
    12
 74
     0
 42
0.000000001
 43
0.0000000001
 40
0.0
 40
0.0
 40
0.0
 40
0.0
 40
0.25
 40
0.25
 40
0.25
 40
0.25
 40
0.5
 40
0.5
 40
0.5
 40
0.5
 40
1.0
 40
1.0
 40
1.0
 40
1.0
 10
-181.3542
 20
-23.3375
 30
0.0
 10
-181.3542
 20
-22.23
 30
0.0
 10
-181.9451
 20
-21.2066
 30
0.0
 10
-182.9042
 20
-20.6529
 30
0.0
 10
-182.9042
 20
-20.6529
 30
0.0
 10
-183.8634
 20
-20.0991
 30
0.0
 10
-185.0451
 20
-20.0991
 30
0.0
 10
-186.0042
 20
-20.6529
 30
0.0
 10
-186.0042
 20
-20.6529
 30
0.0
 10
-186.9634
 20
-21.2066
 30
0.0
 10
-187.5542
 20
-22.23
 30
0.0
 10
-187.5542
 20
-23.3375
 30
0.0
  0
SPLINE
  5
89
330
1F
100
AcDbEntity
  8
Capa 1
370
    15
100
AcDbSpline
210
0.0
220
0.0
230
1.0
 70
    24
 71
     3
 72
     8
 73
     4
 74
     0
 42
0.000000001
 43
0.0000000001
 40
0.0
 40
0.0
 40
0.0
 40
0.0
 40
1.0
 40
1.0
 40
1.0
 40
1.0
 10
-181.3542
 20
-33.3375
 30
0.0
 10
-181.3542
 20
-33.3375
 30
0.0
 10
-181.3542
 20
-23.3375
 30
0.0
 10
-181.3542
 20
-23.3375
 30
0.0
  0
SPLINE
  5
8A
330
1F
100
AcDbEntity
  8
Capa 1
370
    15
100
AcDbSpline
210
0.0
220
0.0
230
1.0
 70
     8
 71
     3
 72
    12
 73
     8
 74
     0
 42
0.000000001
 43
0.0000000001
 40
0.0
 40
0.0
 40
0.0
 40
0.0
 40
0.3333333333333333
 40
0.3333333333333333
 40
0.3333333333333333
 40
0.3333333333333333
 40
1.0
 40
1.0
 40
1.0
 40
1.0
 10
-187.5542
 20
-33.3375
 30
0.0
 10
-187.5542
 20
-35.0496
 30
0.0
 10
-186.1663
 20
-36.4375
 30
0.0
 10
-184.4543
 20
-36.4375
 30
0.0
 10
-184.4543
 20
-36.4375
 30
0.0
 10
-182.7422
 20
-36.4376
 30
0.0
 10
-181.3543
 20
-35.0496
 30
0.0
 10
-181.3543
 20
-33.3376
 30
0.0
  0
SPLINE
  5
8B
330
1F
100
AcDbEntity
  8
Capa 1
370
    15
100
AcDbSpline
210
0.0
220
0.0
230
1.0
 70
    24
 71
     3
 72
     8
 73
     4
 74
     0
 42
0.000000001
 43
0.0000000001
 40
0.0
 40
0.0
 40
0.0
 40
0.0
 40
1.0
 40
1.0
 40
1.0
 40
1.0
 10
-187.5542
 20
26.6624
 30
0.0
 10
-187.5542
 20
26.6624
 30
0.0
 10
-187.5542
 20
16.6624
 30
0.0
 10
-187.5542
 20
16.6624
 30
0.0
  0
SPLINE
  5
8C
330
1F
100
AcDbEntity
  8
Capa 1
370
    15
100
AcDbSpline
210
0.0
220
0.0
230
1.0
 70
     8
 71
     3
 72
    16
 73
    12
 74
     0
 42
0.000000001
 43
0.0000000001
 40
0.0
 40
0.0
 40
0.0
 40
0.0
 40
0.25
 40
0.25
 40
0.25
 40
0.25
 40
0.5
 40
0.5
 40
0.5
 40
0.5
 40
1.0
 40
1.0
 40
1.0
 40
1.0
 10
-181.3542
 20
26.6624
 30
0.0
 10
-181.3542
 20
27.7699
 30
0.0
 10
-181.9451
 20
28.7933
 30
0.0
 10
-182.9042
 20
29.347
 30
0.0
 10
-182.9042
 20
29.347
 30
0.0
 10
-183.8634
 20
29.9008
 30
0.0
 10
-185.0451
 20
29.9008
 30
0.0
 10
-186.0042
 20
29.347
 30
0.0
 10
-186.0042
 20
29.347
 30
0.0
 10
-186.9634
 20
28.7933
 30
0.0
 10
-187.5542
 20
27.7699
 30
0.0
 10
-187.5542
 20
26.6624
 30
0.0
  0
SPLINE
  5
8D
330
1F
100
AcDbEntity
  8
Capa 1
370
    15
100
AcDbSpline
210
0.0
220
0.0
230
1.0
 70
    24
 71
     3
 72
     8
 73
     4
 74
     0
 42
0.000000001
 43
0.0000000001
 40
0.0
 40
0.0
 40
0.0
 40
0.0
 40
1.0
 40
1.0
 40
1.0
 40
1.0
 10
-181.3542
 20
16.6624
 30
0.0
 10
-181.3542
 20
16.6624
 30
0.0
 10
-181.3542
 20
26.6624
 30
0.0
 10
-181.3542
 20
26.6624
 30
0.0
  0
SPLINE
  5
8E
330
1F
100
AcDbEntity
  8
Capa 1
370
    15
100
AcDbSpline
210
0.0
220
0.0
230
1.0
 70
     8
 71
     3
 72
    12
 73
     8
 74
     0
 42
0.000000001
 43
0.0000000001
 40
0.0
 40
0.0
 40
0.0
 40
0.0
 40
0.3333333333333333
 40
0.3333333333333333
 40
0.3333333333333333
 40
0.3333333333333333
 40
1.0
 40
1.0
 40
1.0
 40
1.0
 10
-187.5542
 20
16.6624
 30
0.0
 10
-187.5542
 20
14.9503
 30
0.0
 10
-186.1663
 20
13.5624
 30
0.0
 10
-184.4543
 20
13.5624
 30
0.0
 10
-184.4543
 20
13.5624
 30
0.0
 10
-182.7422
 20
13.5623
 30
0.0
 10
-181.3543
 20
14.9503
 30
0.0
 10
-181.3543
 20
16.6623
 30
0.0
  0
SPLINE
  5
8F
330
1F
100
AcDbEntity
  8
Capa 1
370
    15
100
AcDbSpline
210
0.0
220
0.0
230
1.0
 70
    24
 71
     3
 72
     8
 73
     4
 74
     0
 42
0.000000001
 43
0.0000000001
 40
0.0
 40
0.0
 40
0.0
 40
0.0
 40
1.0
 40
1.0
 40
1.0
 40
1.0
 10
-187.5542
 20
110.8624
 30
0.0
 10
-187.5542
 20
110.8624
 30
0.0
 10
-187.5542
 20
100.8624
 30
0.0
 10
-187.5542
 20
100.8624
 30
0.0
  0
SPLINE
  5
90
330
1F
100
AcDbEntity
  8
Capa 1
370
    15
100
AcDbSpline
210
0.0
220
0.0
230
1.0
 70
     8
 71
     3
 72
    16
 73
    12
 74
     0
 42
0.000000001
 43
0.0000000001
 40
0.0
 40
0.0
 40
0.0
 40
0.0
 40
0.25
 40
0.25
 40
0.25
 40
0.25
 40
0.5
 40
0.5
 40
0.5
 40
0.5
 40
1.0
 40
1.0
 40
1.0
 40
1.0
 10
-181.3542
 20
110.8624
 30
0.0
 10
-181.3542
 20
111.9699
 30
0.0
 10
-181.9451
 20
112.9933
 30
0.0
 10
-182.9042
 20
113.547
 30
0.0
 10
-182.9042
 20
113.547
 30
0.0
 10
-183.8634
 20
114.1008
 30
0.0
 10
-185.0451
 20
114.1008
 30
0.0
 10
-186.0042
 20
113.547
 30
0.0
 10
-186.0042
 20
113.547
 30
0.0
 10
-186.9634
 20
112.9933
 30
0.0
 10
-187.5542
 20
111.9699
 30
0.0
 10
-187.5542
 20
110.8624
 30
0.0
  0
SPLINE
  5
91
330
1F
100
AcDbEntity
  8
Capa 1
370
    15
100
AcDbSpline
210
0.0
220
0.0
230
1.0
 70
    24
 71
     3
 72
     8
 73
     4
 74
     0
 42
0.000000001
 43
0.0000000001
 40
0.0
 40
0.0
 40
0.0
 40
0.0
 40
1.0
 40
1.0
 40
1.0
 40
1.0
 10
-181.3542
 20
100.8624
 30
0.0
 10
-181.3542
 20
100.8624
 30
0.0
 10
-181.3542
 20
110.8624
 30
0.0
 10
-181.3542
 20
110.8624
 30
0.0
  0
SPLINE
  5
92
330
1F
100
AcDbEntity
  8
Capa 1
370
    15
100
AcDbSpline
210
0.0
220
0.0
230
1.0
 70
     8
 71
     3
 72
    12
 73
     8
 74
     0
 42
0.000000001
 43
0.0000000001
 40
0.0
 40
0.0
 40
0.0
 40
0.0
 40
0.3333333333333333
 40
0.3333333333333333
 40
0.3333333333333333
 40
0.3333333333333333
 40
1.0
 40
1.0
 40
1.0
 40
1.0
 10
-187.5542
 20
100.8624
 30
0.0
 10
-187.5542
 20
99.1503
 30
0.0
 10
-186.1663
 20
97.7624
 30
0.0
 10
-184.4543
 20
97.7624
 30
0.0
 10
-184.4543
 20
97.7624
 30
0.0
 10
-182.7422
 20
97.7623
 30
0.0
 10
-181.3543
 20
99.1503
 30
0.0
 10
-181.3543
 20
100.8623
 30
0.0
  0
SPLINE
  5
93
330
1F
100
AcDbEntity
  8
Capa 1
370
    15
100
AcDbSpline
210
0.0
220
0.0
230
1.0
 70
    24
 71
     3
 72
     8
 73
     4
 74
     0
 42
0.000000001
 43
0.0000000001
 40
0.0
 40
0.0
 40
0.0
 40
0.0
 40
1.0
 40
1.0
 40
1.0
 40
1.0
 10
-108.6542
 20
179.2624
 30
0.0
 10
-108.6542
 20
179.2624
 30
0.0
 10
-118.6542
 20
179.2624
 30
0.0
 10
-118.6542
 20
179.2624
 30
0.0
  0
SPLINE
  5
94
330
1F
100
AcDbEntity
  8
Capa 1
370
    15
100
AcDbSpline
210
0.0
220
0.0
230
1.0
 70
     8
 71
     3
 72
    12
 73
     8
 74
     0
 42
0.000000001
 43
0.0000000001
 40
0.0
 40
0.0
 40
0.0
 40
0.0
 40
0.3333333333333333
 40
0.3333333333333333
 40
0.3333333333333333
 40
0.3333333333333333
 40
1.0
 40
1.0
 40
1.0
 40
1.0
 10
-108.6542
 20
173.0624
 30
0.0
 10
-106.9422
 20
173.0624
 30
0.0
 10
-105.5543
 20
174.4503
 30
0.0
 10
-105.5542
 20
176.1623
 30
0.0
 10
-105.5542
 20
176.1623
 30
0.0
 10
-105.5542
 20
177.8744
 30
0.0
 10
-106.9422
 20
179.2623
 30
0.0
 10
-108.6542
 20
179.2623
 30
0.0
  0
SPLINE
  5
95
330
1F
100
AcDbEntity
  8
Capa 1
370
    15
100
AcDbSpline
210
0.0
220
0.0
230
1.0
 70
    24
 71
     3
 72
     8
 73
     4
 74
     0
 42
0.000000001
 43
0.0000000001
 40
0.0
 40
0.0
 40
0.0
 40
0.0
 40
1.0
 40
1.0
 40
1.0
 40
1.0
 10
-118.6542
 20
173.0624
 30
0.0
 10
-118.6542
 20
173.0624
 30
0.0
 10
-108.6542
 20
173.0624
 30
0.0
 10
-108.6542
 20
173.0624
 30
0.0
  0
SPLINE
  5
96
330
1F
100
AcDbEntity
  8
Capa 1
370
    15
100
AcDbSpline
210
0.0
220
0.0
230
1.0
 70
     8
 71
     3
 72
    16
 73
    12
 74
     0
 42
0.000000001
 43
0.0000000001
 40
0.0
 40
0.0
 40
0.0
 40
0.0
 40
0.25
 40
0.25
 40
0.25
 40
0.25
 40
0.5
 40
0.5
 40
0.5
 40
0.5
 40
1.0
 40
1.0
 40
1.0
 40
1.0
 10
-118.6542
 20
179.2624
 30
0.0
 10
-119.7618
 20
179.2624
 30
0.0
 10
-120.7852
 20
178.6715
 30
0.0
 10
-121.3389
 20
177.7124
 30
0.0
 10
-121.3389
 20
177.7124
 30
0.0
 10
-121.8927
 20
176.7532
 30
0.0
 10
-121.8927
 20
175.5715
 30
0.0
 10
-121.3389
 20
174.6124
 30
0.0
 10
-121.3389
 20
174.6124
 30
0.0
 10
-120.7852
 20
173.6532
 30
0.0
 10
-119.7618
 20
173.0624
 30
0.0
 10
-118.6542
 20
173.0624
 30
0.0
  0
SPLINE
  5
97
330
1F
100
AcDbEntity
  8
Capa 1
370
    15
100
AcDbSpline
210
0.0
220
0.0
230
1.0
 70
     8
 71
     3
 72
    20
 73
    16
 74
     0
 42
0.000000001
 43
0.0000000001
 40
0.0
 40
0.0
 40
0.0
 40
0.0
 40
0.2
 40
0.2
 40
0.2
 40
0.2
 40
0.4
 40
0.4
 40
0.4
 40
0.4
 40
0.6
 40
0.6
 40
0.6
 40
0.6
 40
1.0
 40
1.0
 40
1.0
 40
1.0
 10
-137.0542
 20
-159.3875
 30
0.0
 10
-137.0542
 20
-158.5039
 30
0.0
 10
-137.7706
 20
-157.7876
 30
0.0
 10
-138.6542
 20
-157.7875
 30
0.0
 10
-138.6542
 20
-157.7875
 30
0.0
 10
-139.5379
 20
-157.7875
 30
0.0
 10
-140.2542
 20
-158.5039
 30
0.0
 10
-140.2542
 20
-159.3875
 30
0.0
 10
-140.2542
 20
-159.3875
 30
0.0
 10
-140.2543
 20
-160.2712
 30
0.0
 10
-139.5379
 20
-160.9875
 30
0.0
 10
-138.6543
 20
-160.9875
 30
0.0
 10
-138.6543
 20
-160.9875
 30
0.0
 10
-137.7706
 20
-160.9876
 30
0.0
 10
-137.0543
 20
-160.2712
 30
0.0
 10
-137.0543
 20
-159.3876
 30
0.0
  0
SPLINE
  5
98
330
1F
100
AcDbEntity
  8
Capa 1
370
    15
100
AcDbSpline
210
0.0
220
0.0
230
1.0
 70
     8
 71
     3
 72
    20
 73
    16
 74
     0
 42
0.000000001
 43
0.0000000001
 40
0.0
 40
0.0
 40
0.0
 40
0.0
 40
0.2
 40
0.2
 40
0.2
 40
0.2
 40
0.4
 40
0.4
 40
0.4
 40
0.4
 40
0.6
 40
0.6
 40
0.6
 40
0.6
 40
1.0
 40
1.0
 40
1.0
 40
1.0
 10
-137.0542
 20
174.6124
 30
0.0
 10
-137.0542
 20
175.496
 30
0.0
 10
-137.7706
 20
176.2123
 30
0.0
 10
-138.6542
 20
176.2124
 30
0.0
 10
-138.6542
 20
176.2124
 30
0.0
 10
-139.5379
 20
176.2124
 30
0.0
 10
-140.2542
 20
175.496
 30
0.0
 10
-140.2542
 20
174.6124
 30
0.0
 10
-140.2542
 20
174.6124
 30
0.0
 10
-140.2543
 20
173.7287
 30
0.0
 10
-139.5379
 20
173.0124
 30
0.0
 10
-138.6543
 20
173.0124
 30
0.0
 10
-138.6543
 20
173.0124
 30
0.0
 10
-137.7706
 20
173.0123
 30
0.0
 10
-137.0543
 20
173.7287
 30
0.0
 10
-137.0543
 20
174.6123
 30
0.0
  0
SPLINE
  5
99
330
1F
100
AcDbEntity
  8
Capa 1
370
    15
100
AcDbSpline
210
0.0
220
0.0
230
1.0
 70
     8
 71
     3
 72
    20
 73
    16
 74
     0
 42
0.000000001
 43
0.0000000001
 40
0.0
 40
0.0
 40
0.0
 40
0.0
 40
0.2
 40
0.2
 40
0.2
 40
0.2
 40
0.4
 40
0.4
 40
0.4
 40
0.4
 40
0.6
 40
0.6
 40
0.6
 40
0.6
 40
1.0
 40
1.0
 40
1.0
 40
1.0
 10
-181.3042
 20
130.8624
 30
0.0
 10
-181.3042
 20
131.746
 30
0.0
 10
-182.0206
 20
132.4623
 30
0.0
 10
-182.9042
 20
132.4624
 30
0.0
 10
-182.9042
 20
132.4624
 30
0.0
 10
-183.7879
 20
132.4624
 30
0.0
 10
-184.5042
 20
131.746
 30
0.0
 10
-184.5042
 20
130.8624
 30
0.0
 10
-184.5042
 20
130.8624
 30
0.0
 10
-184.5043
 20
129.9787
 30
0.0
 10
-183.7879
 20
129.2624
 30
0.0
 10
-182.9043
 20
129.2624
 30
0.0
 10
-182.9043
 20
129.2624
 30
0.0
 10
-182.0206
 20
129.2623
 30
0.0
 10
-181.3043
 20
129.9787
 30
0.0
 10
-181.3043
 20
130.8623
 30
0.0
  0
SPLINE
  5
9A
330
1F
100
AcDbEntity
  8
Capa 1
370
    15
100
AcDbSpline
210
0.0
220
0.0
230
1.0
 70
     8
 71
     3
 72
    20
 73
    16
 74
     0
 42
0.000000001
 43
0.0000000001
 40
0.0
 40
0.0
 40
0.0
 40
0.0
 40
0.2
 40
0.2
 40
0.2
 40
0.2
 40
0.4
 40
0.4
 40
0.4
 40
0.4
 40
0.6
 40
0.6
 40
0.6
 40
0.6
 40
1.0
 40
1.0
 40
1.0
 40
1.0
 10
-181.3042
 20
-3.2376
 30
0.0
 10
-181.3042
 20
-2.354
 30
0.0
 10
-182.0206
 20
-1.6377
 30
0.0
 10
-182.9042
 20
-1.6376
 30
0.0
 10
-182.9042
 20
-1.6376
 30
0.0
 10
-183.7879
 20
-1.6376
 30
0.0
 10
-184.5042
 20
-2.354
 30
0.0
 10
-184.5042
 20
-3.2376
 30
0.0
 10
-184.5042
 20
-3.2376
 30
0.0
 10
-184.5043
 20
-4.1213
 30
0.0
 10
-183.7879
 20
-4.8376
 30
0.0
 10
-182.9043
 20
-4.8376
 30
0.0
 10
-182.9043
 20
-4.8376
 30
0.0
 10
-182.0206
 20
-4.8377
 30
0.0
 10
-181.3043
 20
-4.1213
 30
0.0
 10
-181.3043
 20
-3.2377
 30
0.0
  0
SPLINE
  5
9B
330
1F
100
AcDbEntity
  8
Capa 1
370
    15
100
AcDbSpline
210
0.0
220
0.0
230
1.0
 70
     8
 71
     3
 72
    20
 73
    16
 74
     0
 42
0.000000001
 43
0.0000000001
 40
0.0
 40
0.0
 40
0.0
 40
0.0
 40
0.2
 40
0.2
 40
0.2
 40
0.2
 40
0.4
 40
0.4
 40
0.4
 40
0.4
 40
0.6
 40
0.6
 40
0.6
 40
0.6
 40
1.0
 40
1.0
 40
1.0
 40
1.0
 10
-181.3042
 20
-135.1375
 30
0.0
 10
-181.3042
 20
-134.2539
 30
0.0
 10
-182.0206
 20
-133.5376
 30
0.0
 10
-182.9042
 20
-133.5375
 30
0.0
 10
-182.9042
 20
-133.5375
 30
0.0
 10
-183.7879
 20
-133.5375
 30
0.0
 10
-184.5042
 20
-134.2539
 30
0.0
 10
-184.5042
 20
-135.1375
 30
0.0
 10
-184.5042
 20
-135.1375
 30
0.0
 10
-184.5043
 20
-136.0212
 30
0.0
 10
-183.7879
 20
-136.7375
 30
0.0
 10
-182.9043
 20
-136.7375
 30
0.0
 10
-182.9043
 20
-136.7375
 30
0.0
 10
-182.0206
 20
-136.7376
 30
0.0
 10
-181.3043
 20
-136.0212
 30
0.0
 10
-181.3043
 20
-135.1376
 30
0.0
  0
SPLINE
  5
9C
330
1F
100
AcDbEntity
  8
Capa 1
370
    15
100
AcDbSpline
210
0.0
220
0.0
230
1.0
 70
     8
 71
     3
 72
    20
 73
    16
 74
     0
 42
0.000000001
 43
0.0000000001
 40
0.0
 40
0.0
 40
0.0
 40
0.0
 40
0.2
 40
0.2
 40
0.2
 40
0.2
 40
0.4
 40
0.4
 40
0.4
 40
0.4
 40
0.6
 40
0.6
 40
0.6
 40
0.6
 40
1.0
 40
1.0
 40
1.0
 40
1.0
 10
3.946
 20
-159.3875
 30
0.0
 10
3.946
 20
-158.5039
 30
0.0
 10
3.2296
 20
-157.7876
 30
0.0
 10
2.346
 20
-157.7875
 30
0.0
 10
2.346
 20
-157.7875
 30
0.0
 10
1.4624
 20
-157.7875
 30
0.0
 10
0.7461
 20
-158.5039
 30
0.0
 10
0.7461
 20
-159.3875
 30
0.0
 10
0.7461
 20
-159.3875
 30
0.0
 10
0.746
 20
-160.2712
 30
0.0
 10
1.4624
 20
-160.9875
 30
0.0
 10
2.346
 20
-160.9875
 30
0.0
 10
2.346
 20
-160.9875
 30
0.0
 10
3.2296
 20
-160.9876
 30
0.0
 10
3.9459
 20
-160.2712
 30
0.0
 10
3.9459
 20
-159.3876
 30
0.0
  0
SPLINE
  5
9D
330
1F
100
AcDbEntity
  8
Capa 1
370
    15
100
AcDbSpline
210
0.0
220
0.0
230
1.0
 70
     8
 71
     3
 72
    20
 73
    16
 74
     0
 42
0.000000001
 43
0.0000000001
 40
0.0
 40
0.0
 40
0.0
 40
0.0
 40
0.2
 40
0.2
 40
0.2
 40
0.2
 40
0.4
 40
0.4
 40
0.4
 40
0.4
 40
0.6
 40
0.6
 40
0.6
 40
0.6
 40
1.0
 40
1.0
 40
1.0
 40
1.0
 10
3.946
 20
174.6124
 30
0.0
 10
3.946
 20
175.496
 30
0.0
 10
3.2296
 20
176.2123
 30
0.0
 10
2.346
 20
176.2124
 30
0.0
 10
2.346
 20
176.2124
 30
0.0
 10
1.4624
 20
176.2124
 30
0.0
 10
0.7461
 20
175.496
 30
0.0
 10
0.7461
 20
174.6124
 30
0.0
 10
0.7461
 20
174.6124
 30
0.0
 10
0.746
 20
173.7287
 30
0.0
 10
1.4624
 20
173.0124
 30
0.0
 10
2.346
 20
173.0124
 30
0.0
 10
2.346
 20
173.0124
 30
0.0
 10
3.2296
 20
173.0123
 30
0.0
 10
3.9459
 20
173.7287
 30
0.0
 10
3.9459
 20
174.6123
 30
0.0
  0
SPLINE
  5
9E
330
1F
100
AcDbEntity
  8
Capa 1
370
    15
100
AcDbSpline
210
0.0
220
0.0
230
1.0
 70
     8
 71
     3
 72
    20
 73
    16
 74
     0
 42
0.000000001
 43
0.0000000001
 40
0.0
 40
0.0
 40
0.0
 40
0.0
 40
0.2
 40
0.2
 40
0.2
 40
0.2
 40
0.4
 40
0.4
 40
0.4
 40
0.4
 40
0.6
 40
0.6
 40
0.6
 40
0.6
 40
1.0
 40
1.0
 40
1.0
 40
1.0
 10
-135.8542
 20
160.1624
 30
0.0
 10
-135.8542
 20
164.5806
 30
0.0
 10
-139.436
 20
168.1623
 30
0.0
 10
-143.8542
 20
168.1624
 30
0.0
 10
-143.8542
 20
168.1624
 30
0.0
 10
-148.2725
 20
168.1624
 30
0.0
 10
-151.8542
 20
164.5806
 30
0.0
 10
-151.8542
 20
160.1624
 30
0.0
 10
-151.8542
 20
160.1624
 30
0.0
 10
-151.8543
 20
155.7441
 30
0.0
 10
-148.2726
 20
152.1624
 30
0.0
 10
-143.8543
 20
152.1624
 30
0.0
 10
-143.8543
 20
152.1624
 30
0.0
 10
-139.436
 20
152.1623
 30
0.0
 10
-135.8543
 20
155.744
 30
0.0
 10
-135.8543
 20
160.1623
 30
0.0
  0
SPLINE
  5
9F
330
1F
100
AcDbEntity
  8
Capa 1
370
    15
100
AcDbSpline
210
0.0
220
0.0
230
1.0
 70
     8
 71
     3
 72
     8
 73
     4
 74
     0
 42
0.000000001
 43
0.0000000001
 40
0.0
 40
0.0
 40
0.0
 40
0.0
 40
1.0
 40
1.0
 40
1.0
 40
1.0
 10
153.385
 20
-232.6657
 30
0.0
 10
151.675
 20
-230.6278
 30
0.0
 10
149.1509
 20
-229.4508
 30
0.0
 10
146.4906
 20
-229.4508
 30
0.0
  0
SPLINE
  5
A0
330
1F
100
AcDbEntity
  8
Capa 1
370
    15
100
AcDbSpline
210
0.0
220
0.0
230
1.0
 70
    24
 71
     3
 72
     8
 73
     4
 74
     0
 42
0.000000001
 43
0.0000000001
 40
0.0
 40
0.0
 40
0.0
 40
0.0
 40
1.0
 40
1.0
 40
1.0
 40
1.0
 10
156.6808
 20
-236.5936
 30
0.0
 10
156.6808
 20
-236.5936
 30
0.0
 10
153.385
 20
-232.6657
 30
0.0
 10
153.385
 20
-232.6657
 30
0.0
  0
SPLINE
  5
A1
330
1F
100
AcDbEntity
  8
Capa 1
370
    15
100
AcDbSpline
210
0.0
220
0.0
230
1.0
 70
     8
 71
     3
 72
     8
 73
     4
 74
     0
 42
0.000000001
 43
0.0000000001
 40
0.0
 40
0.0
 40
0.0
 40
0.0
 40
1.0
 40
1.0
 40
1.0
 40
1.0
 10
156.6808
 20
-236.5936
 30
0.0
 10
158.2008
 20
-238.405
 30
0.0
 10
160.4444
 20
-239.4512
 30
0.0
 10
162.8092
 20
-239.4512
 30
0.0
  0
SPLINE
  5
A2
330
1F
100
AcDbEntity
  8
Capa 1
370
    15
100
AcDbSpline
210
0.0
220
0.0
230
1.0
 70
    24
 71
     3
 72
     8
 73
     4
 74
     0
 42
0.000000001
 43
0.0000000001
 40
0.0
 40
0.0
 40
0.0
 40
0.0
 40
1.0
 40
1.0
 40
1.0
 40
1.0
 10
188.8456
 20
-239.4512
 30
0.0
 10
188.8456
 20
-239.4512
 30
0.0
 10
162.8092
 20
-239.4512
 30
0.0
 10
162.8092
 20
-239.4512
 30
0.0
  0
SPLINE
  5
A3
330
1F
100
AcDbEntity
  8
Capa 1
370
    15
100
AcDbSpline
210
0.0
220
0.0
230
1.0
 70
     8
 71
     3
 72
     8
 73
     4
 74
     0
 42
0.000000001
 43
0.0000000001
 40
0.0
 40
0.0
 40
0.0
 40
0.0
 40
1.0
 40
1.0
 40
1.0
 40
1.0
 10
188.8456
 20
-239.4512
 30
0.0
 10
191.8831
 20
-239.4512
 30
0.0
 10
194.3455
 20
-236.9888
 30
0.0
 10
194.3455
 20
-233.9513
 30
0.0
  0
SPLINE
  5
A4
330
1F
100
AcDbEntity
  8
Capa 1
370
    15
100
AcDbSpline
210
0.0
220
0.0
230
1.0
 70
    24
 71
     3
 72
     8
 73
     4
 74
     0
 42
0.000000001
 43
0.0000000001
 40
0.0
 40
0.0
 40
0.0
 40
0.0
 40
1.0
 40
1.0
 40
1.0
 40
1.0
 10
194.3456
 20
167.1619
 30
0.0
 10
194.3456
 20
167.1619
 30
0.0
 10
194.3456
 20
-233.9513
 30
0.0
 10
194.3456
 20
-233.9513
 30
0.0
  0
SPLINE
  5
A5
330
1F
100
AcDbEntity
  8
Capa 1
370
    15
100
AcDbSpline
210
0.0
220
0.0
230
1.0
 70
     8
 71
     3
 72
    12
 73
     8
 74
     0
 42
0.000000001
 43
0.0000000001
 40
0.0
 40
0.0
 40
0.0
 40
0.0
 40
0.3333333333333333
 40
0.3333333333333333
 40
0.3333333333333333
 40
0.3333333333333333
 40
1.0
 40
1.0
 40
1.0
 40
1.0
 10
194.3456
 20
167.1619
 30
0.0
 10
194.3456
 20
168.6206
 30
0.0
 10
193.7661
 20
170.0196
 30
0.0
 10
192.7346
 20
171.051
 30
0.0
 10
192.7346
 20
171.051
 30
0.0
 10
191.7032
 20
172.0825
 30
0.0
 10
190.3042
 20
172.6619
 30
0.0
 10
188.8456
 20
172.6619
 30
0.0
  0
SPLINE
  5
A6
330
1F
100
AcDbEntity
  8
Capa 1
370
    15
100
AcDbSpline
210
0.0
220
0.0
230
1.0
 70
    24
 71
     3
 72
     8
 73
     4
 74
     0
 42
0.000000001
 43
0.0000000001
 40
0.0
 40
0.0
 40
0.0
 40
0.0
 40
1.0
 40
1.0
 40
1.0
 40
1.0
 10
162.8092
 20
172.6619
 30
0.0
 10
162.8092
 20
172.6619
 30
0.0
 10
188.8456
 20
172.6619
 30
0.0
 10
188.8456
 20
172.6619
 30
0.0
  0
SPLINE
  5
A7
330
1F
100
AcDbEntity
  8
Capa 1
370
    15
100
AcDbSpline
210
0.0
220
0.0
230
1.0
 70
     8
 71
     3
 72
     8
 73
     4
 74
     0
 42
0.000000001
 43
0.0000000001
 40
0.0
 40
0.0
 40
0.0
 40
0.0
 40
1.0
 40
1.0
 40
1.0
 40
1.0
 10
155.9148
 20
175.8768
 30
0.0
 10
157.6248
 20
173.8389
 30
0.0
 10
160.1488
 20
172.6619
 30
0.0
 10
162.8092
 20
172.6619
 30
0.0
  0
SPLINE
  5
A8
330
1F
100
AcDbEntity
  8
Capa 1
370
    15
100
AcDbSpline
210
0.0
220
0.0
230
1.0
 70
    24
 71
     3
 72
     8
 73
     4
 74
     0
 42
0.000000001
 43
0.0000000001
 40
0.0
 40
0.0
 40
0.0
 40
0.0
 40
1.0
 40
1.0
 40
1.0
 40
1.0
 10
152.6189
 20
179.8047
 30
0.0
 10
152.6189
 20
179.8047
 30
0.0
 10
155.9148
 20
175.8768
 30
0.0
 10
155.9148
 20
175.8768
 30
0.0
  0
SPLINE
  5
A9
330
1F
100
AcDbEntity
  8
Capa 1
370
    15
100
AcDbSpline
210
0.0
220
0.0
230
1.0
 70
     8
 71
     3
 72
     8
 73
     4
 74
     0
 42
0.000000001
 43
0.0000000001
 40
0.0
 40
0.0
 40
0.0
 40
0.0
 40
1.0
 40
1.0
 40
1.0
 40
1.0
 10
152.6189
 20
179.8047
 30
0.0
 10
151.0989
 20
181.6161
 30
0.0
 10
148.8553
 20
182.6624
 30
0.0
 10
146.4906
 20
182.6624
 30
0.0
  0
SPLINE
  5
AA
330
1F
100
AcDbEntity
  8
Capa 1
370
    15
100
AcDbSpline
210
0.0
220
0.0
230
1.0
 70
     8
 71
     3
 72
     8
 73
     4
 74
     0
 42
0.000000001
 43
0.0000000001
 40
0.0
 40
0.0
 40
0.0
 40
0.0
 40
1.0
 40
1.0
 40
1.0
 40
1.0
 10
-142.7993
 20
182.6624
 30
0.0
 10
-145.164
 20
182.6624
 30
0.0
 10
-147.4076
 20
181.6161
 30
0.0
 10
-148.9276
 20
179.8047
 30
0.0
  0
SPLINE
  5
AB
330
1F
100
AcDbEntity
  8
Capa 1
370
    15
100
AcDbSpline
210
0.0
220
0.0
230
1.0
 70
    24
 71
     3
 72
     8
 73
     4
 74
     0
 42
0.000000001
 43
0.0000000001
 40
0.0
 40
0.0
 40
0.0
 40
0.0
 40
1.0
 40
1.0
 40
1.0
 40
1.0
 10
-152.2235
 20
175.8768
 30
0.0
 10
-152.2235
 20
175.8768
 30
0.0
 10
-148.9276
 20
179.8047
 30
0.0
 10
-148.9276
 20
179.8047
 30
0.0
  0
SPLINE
  5
AC
330
1F
100
AcDbEntity
  8
Capa 1
370
    15
100
AcDbSpline
210
0.0
220
0.0
230
1.0
 70
     8
 71
     3
 72
     8
 73
     4
 74
     0
 42
0.000000001
 43
0.0000000001
 40
0.0
 40
0.0
 40
0.0
 40
0.0
 40
1.0
 40
1.0
 40
1.0
 40
1.0
 10
-159.1179
 20
172.6619
 30
0.0
 10
-156.4575
 20
172.6619
 30
0.0
 10
-153.9335
 20
173.8389
 30
0.0
 10
-152.2235
 20
175.8768
 30
0.0
  0
SPLINE
  5
AD
330
1F
100
AcDbEntity
  8
Capa 1
370
    15
100
AcDbSpline
210
0.0
220
0.0
230
1.0
 70
    24
 71
     3
 72
     8
 73
     4
 74
     0
 42
0.000000001
 43
0.0000000001
 40
0.0
 40
0.0
 40
0.0
 40
0.0
 40
1.0
 40
1.0
 40
1.0
 40
1.0
 10
-185.1542
 20
172.6619
 30
0.0
 10
-185.1542
 20
172.6619
 30
0.0
 10
-159.1179
 20
172.6619
 30
0.0
 10
-159.1179
 20
172.6619
 30
0.0
  0
SPLINE
  5
AE
330
1F
100
AcDbEntity
  8
Capa 1
370
    15
100
AcDbSpline
210
0.0
220
0.0
230
1.0
 70
     8
 71
     3
 72
    12
 73
     8
 74
     0
 42
0.000000001
 43
0.0000000001
 40
0.0
 40
0.0
 40
0.0
 40
0.0
 40
0.3333333333333333
 40
0.3333333333333333
 40
0.3333333333333333
 40
0.3333333333333333
 40
1.0
 40
1.0
 40
1.0
 40
1.0
 10
-185.1542
 20
172.6619
 30
0.0
 10
-186.6129
 20
172.6619
 30
0.0
 10
-188.0119
 20
172.0825
 30
0.0
 10
-189.0433
 20
171.051
 30
0.0
 10
-189.0433
 20
171.051
 30
0.0
 10
-190.0748
 20
170.0196
 30
0.0
 10
-190.6543
 20
168.6206
 30
0.0
 10
-190.6543
 20
167.1619
 30
0.0
  0
SPLINE
  5
AF
330
1F
100
AcDbEntity
  8
Capa 1
370
    15
100
AcDbSpline
210
0.0
220
0.0
230
1.0
 70
    24
 71
     3
 72
     8
 73
     4
 74
     0
 42
0.000000001
 43
0.0000000001
 40
0.0
 40
0.0
 40
0.0
 40
0.0
 40
1.0
 40
1.0
 40
1.0
 40
1.0
 10
-190.6542
 20
-233.9512
 30
0.0
 10
-190.6542
 20
-233.9512
 30
0.0
 10
-190.6542
 20
167.1619
 30
0.0
 10
-190.6542
 20
167.1619
 30
0.0
  0
SPLINE
  5
B0
330
1F
100
AcDbEntity
  8
Capa 1
370
    15
100
AcDbSpline
210
0.0
220
0.0
230
1.0
 70
     8
 71
     3
 72
    12
 73
     8
 74
     0
 42
0.000000001
 43
0.0000000001
 40
0.0
 40
0.0
 40
0.0
 40
0.0
 40
0.3333333333333333
 40
0.3333333333333333
 40
0.3333333333333333
 40
0.3333333333333333
 40
1.0
 40
1.0
 40
1.0
 40
1.0
 10
-190.6543
 20
-233.9512
 30
0.0
 10
-190.6543
 20
-235.4099
 30
0.0
 10
-190.0748
 20
-236.8089
 30
0.0
 10
-189.0433
 20
-237.8403
 30
0.0
 10
-189.0433
 20
-237.8403
 30
0.0
 10
-188.0119
 20
-238.8718
 30
0.0
 10
-186.6129
 20
-239.4513
 30
0.0
 10
-185.1542
 20
-239.4513
 30
0.0
  0
SPLINE
  5
B1
330
1F
100
AcDbEntity
  8
Capa 1
370
    15
100
AcDbSpline
210
0.0
220
0.0
230
1.0
 70
    24
 71
     3
 72
     8
 73
     4
 74
     0
 42
0.000000001
 43
0.0000000001
 40
0.0
 40
0.0
 40
0.0
 40
0.0
 40
1.0
 40
1.0
 40
1.0
 40
1.0
 10
-159.1179
 20
-239.4512
 30
0.0
 10
-159.1179
 20
-239.4512
 30
0.0
 10
-185.1542
 20
-239.4512
 30
0.0
 10
-185.1542
 20
-239.4512
 30
0.0
  0
SPLINE
  5
B2
330
1F
100
AcDbEntity
  8
Capa 1
370
    15
100
AcDbSpline
210
0.0
220
0.0
230
1.0
 70
     8
 71
     3
 72
     8
 73
     4
 74
     0
 42
0.000000001
 43
0.0000000001
 40
0.0
 40
0.0
 40
0.0
 40
0.0
 40
1.0
 40
1.0
 40
1.0
 40
1.0
 10
-159.1179
 20
-239.4512
 30
0.0
 10
-156.7531
 20
-239.4512
 30
0.0
 10
-154.5095
 20
-238.405
 30
0.0
 10
-152.9895
 20
-236.5936
 30
0.0
  0
SPLINE
  5
B3
330
1F
100
AcDbEntity
  8
Capa 1
370
    15
100
AcDbSpline
210
0.0
220
0.0
230
1.0
 70
    24
 71
     3
 72
     8
 73
     4
 74
     0
 42
0.000000001
 43
0.0000000001
 40
0.0
 40
0.0
 40
0.0
 40
0.0
 40
1.0
 40
1.0
 40
1.0
 40
1.0
 10
-149.6937
 20
-232.6657
 30
0.0
 10
-149.6937
 20
-232.6657
 30
0.0
 10
-152.9895
 20
-236.5936
 30
0.0
 10
-152.9895
 20
-236.5936
 30
0.0
  0
SPLINE
  5
B4
330
1F
100
AcDbEntity
  8
Capa 1
370
    15
100
AcDbSpline
210
0.0
220
0.0
230
1.0
 70
     8
 71
     3
 72
     8
 73
     4
 74
     0
 42
0.000000001
 43
0.0000000001
 40
0.0
 40
0.0
 40
0.0
 40
0.0
 40
1.0
 40
1.0
 40
1.0
 40
1.0
 10
-142.7993
 20
-229.4508
 30
0.0
 10
-145.4596
 20
-229.4508
 30
0.0
 10
-147.9837
 20
-230.6278
 30
0.0
 10
-149.6937
 20
-232.6657
 30
0.0
  0
SPLINE
  5
B5
330
1F
100
AcDbEntity
  8
Capa 1
 62
   250
370
    20
100
AcDbSpline
210
0.0
220
0.0
230
1.0
 70
    24
 71
     3
 72
     8
 73
     4
 74
     0
 42
0.000000001
 43
0.0000000001
 40
0.0
 40
0.0
 40
0.0
 40
0.0
 40
1.0
 40
1.0
 40
1.0
 40
1.0
 10
-181.3543
 20
-165.0376
 30
0.0
 10
-181.3543
 20
-165.0376
 30
0.0
 10
-181.3542
 20
-155.0375
 30
0.0
 10
-181.3542
 20
-155.0375
 30
0.0
  0
SPLINE
  5
B6
330
1F
100
AcDbEntity
  8
Capa 1
 62
   250
370
    20
100
AcDbSpline
210
0.0
220
0.0
230
1.0
 70
    24
 71
     3
 72
     8
 73
     4
 74
     0
 42
0.000000001
 43
0.0000000001
 40
0.0
 40
0.0
 40
0.0
 40
0.0
 40
1.0
 40
1.0
 40
1.0
 40
1.0
 10
-27.6539
 20
-160.9375
 30
0.0
 10
-27.6539
 20
-160.9375
 30
0.0
 10
-17.6539
 20
-160.9375
 30
0.0
 10
-17.6539
 20
-160.9375
 30
0.0
  0
SPLINE
  5
B7
330
1F
100
AcDbEntity
  8
Capa 1
 62
   250
370
    20
100
AcDbSpline
210
0.0
220
0.0
230
1.0
 70
    24
 71
     3
 72
     8
 73
     4
 74
     0
 42
0.000000001
 43
0.0000000001
 40
0.0
 40
0.0
 40
0.0
 40
0.0
 40
1.0
 40
1.0
 40
1.0
 40
1.0
 10
22.346
 20
-160.9375
 30
0.0
 10
22.346
 20
-160.9375
 30
0.0
 10
32.346
 20
-160.9375
 30
0.0
 10
32.346
 20
-160.9375
 30
0.0
  0
SPLINE
  5
B8
330
1F
100
AcDbEntity
  8
Capa 1
 62
   250
370
    20
100
AcDbSpline
210
0.0
220
0.0
230
1.0
 70
    24
 71
     3
 72
     8
 73
     4
 74
     0
 42
0.000000001
 43
0.0000000001
 40
0.0
 40
0.0
 40
0.0
 40
0.0
 40
1.0
 40
1.0
 40
1.0
 40
1.0
 10
185.0456
 20
-165.0375
 30
0.0
 10
185.0456
 20
-165.0375
 30
0.0
 10
185.0456
 20
-155.0375
 30
0.0
 10
185.0456
 20
-155.0375
 30
0.0
  0
SPLINE
  5
B9
330
1F
100
AcDbEntity
  8
Capa 1
 62
   250
370
    20
100
AcDbSpline
210
0.0
220
0.0
230
1.0
 70
    24
 71
     3
 72
     8
 73
     4
 74
     0
 42
0.000000001
 43
0.0000000001
 40
0.0
 40
0.0
 40
0.0
 40
0.0
 40
1.0
 40
1.0
 40
1.0
 40
1.0
 10
185.0456
 20
160.8624
 30
0.0
 10
185.0456
 20
160.8624
 30
0.0
 10
185.0456
 20
150.8624
 30
0.0
 10
185.0456
 20
150.8624
 30
0.0
  0
SPLINE
  5
BA
330
1F
100
AcDbEntity
  8
Capa 1
 62
   250
370
    20
100
AcDbSpline
210
0.0
220
0.0
230
1.0
 70
    24
 71
     3
 72
     8
 73
     4
 74
     0
 42
0.000000001
 43
0.0000000001
 40
0.0
 40
0.0
 40
0.0
 40
0.0
 40
1.0
 40
1.0
 40
1.0
 40
1.0
 10
22.346
 20
173.0624
 30
0.0
 10
22.346
 20
173.0624
 30
0.0
 10
32.346
 20
173.0624
 30
0.0
 10
32.346
 20
173.0624
 30
0.0
  0
SPLINE
  5
BB
330
1F
100
AcDbEntity
  8
Capa 1
 62
   250
370
    20
100
AcDbSpline
210
0.0
220
0.0
230
1.0
 70
    24
 71
     3
 72
     8
 73
     4
 74
     0
 42
0.000000001
 43
0.0000000001
 40
0.0
 40
0.0
 40
0.0
 40
0.0
 40
1.0
 40
1.0
 40
1.0
 40
1.0
 10
-27.6539
 20
173.0624
 30
0.0
 10
-27.6539
 20
173.0624
 30
0.0
 10
-17.6539
 20
173.0624
 30
0.0
 10
-17.6539
 20
173.0624
 30
0.0
  0
SPLINE
  5
BC
330
1F
100
AcDbEntity
  8
Capa 1
 62
   250
370
    20
100
AcDbSpline
210
0.0
220
0.0
230
1.0
 70
    24
 71
     3
 72
     8
 73
     4
 74
     0
 42
0.000000001
 43
0.0000000001
 40
0.0
 40
0.0
 40
0.0
 40
0.0
 40
1.0
 40
1.0
 40
1.0
 40
1.0
 10
-181.3543
 20
150.8623
 30
0.0
 10
-181.3543
 20
150.8623
 30
0.0
 10
-181.3542
 20
160.8624
 30
0.0
 10
-181.3542
 20
160.8624
 30
0.0
  0
SPLINE
  5
BD
330
1F
100
AcDbEntity
  8
Capa 1
 62
   250
370
    20
100
AcDbSpline
210
0.0
220
0.0
230
1.0
 70
    24
 71
     3
 72
     8
 73
     4
 74
     0
 42
0.000000001
 43
0.0000000001
 40
0.0
 40
0.0
 40
0.0
 40
0.0
 40
1.0
 40
1.0
 40
1.0
 40
1.0
 10
-142.7993
 20
182.6624
 30
0.0
 10
-142.7993
 20
182.6624
 30
0.0
 10
146.4906
 20
182.6624
 30
0.0
 10
146.4906
 20
182.6624
 30
0.0
  0
SPLINE
  5
BE
330
1F
100
AcDbEntity
  8
Capa 1
 62
   250
370
    20
100
AcDbSpline
210
0.0
220
0.0
230
1.0
 70
    24
 71
     3
 72
     8
 73
     4
 74
     0
 42
0.000000001
 43
0.0000000001
 40
0.0
 40
0.0
 40
0.0
 40
0.0
 40
1.0
 40
1.0
 40
1.0
 40
1.0
 10
-142.7993
 20
-229.4508
 30
0.0
 10
-142.7993
 20
-229.4508
 30
0.0
 10
146.4906
 20
-229.4508
 30
0.0
 10
146.4906
 20
-229.4508
 30
0.0
  0
ENDSEC
  0
SECTION
  2
OBJECTS
  0
DICTIONARY
  5
C
330
0
100
AcDbDictionary
281
     1
  3
ACAD_DETAILVIEWSTYLE
350
117
  3
ACAD_GROUP
350
D
  3
ACAD_LAYOUT
350
1A
  3
ACAD_MATERIAL
350
3B
  3
ACAD_MLEADERSTYLE
350
E0
  3
ACAD_MLINESTYLE
350
17
  3
ACAD_PLOTSETTINGS
350
19
  3
ACAD_PLOTSTYLENAME
350
E
  3
ACAD_SCALELIST
350
E1
  3
ACAD_SECTIONVIEWSTYLE
350
118
  3
ACAD_TABLESTYLE
350
DF
  3
ACAD_VISUALSTYLE
350
2A
  3
ACDB_RECOMPOSE_DATA
350
113
  3
AcDbVariableDictionary
350
10F
  0
DICTIONARY
  5
117
102
{ACAD_REACTORS
330
C
102
}
330
C
100
AcDbDictionary
281
     1
  0
DICTIONARY
  5
D
102
{ACAD_REACTORS
330
C
102
}
330
C
100
AcDbDictionary
281
     1
  0
DICTIONARY
  5
1A
102
{ACAD_REACTORS
330
C
102
}
330
C
100
AcDbDictionary
281
     1
  3
Layout1
350
1E
  3
Layout2
350
26
  3
Model
350
22
  0
DICTIONARY
  5
3B
102
{ACAD_REACTORS
330
C
102
}
330
C
100
AcDbDictionary
281
     1
  3
ByBlock
350
3D
  3
ByLayer
350
3C
  3
Global
350
3E
  0
DICTIONARY
  5
E0
102
{ACAD_REACTORS
330
C
102
}
330
C
100
AcDbDictionary
281
     1
  3
Standard
350
10E
  0
DICTIONARY
  5
17
102
{ACAD_REACTORS
330
C
102
}
330
C
100
AcDbDictionary
281
     1
  3
Standard
350
18
  0
DICTIONARY
  5
19
102
{ACAD_REACTORS
330
C
102
}
330
C
100
AcDbDictionary
281
     1
  0
ACDBDICTIONARYWDFLT
  5
E
102
{ACAD_REACTORS
330
C
102
}
330
C
100
AcDbDictionary
281
     1
  3
Normal
350
F
100
AcDbDictionaryWithDefault
340
F
  0
DICTIONARY
  5
E1
102
{ACAD_REACTORS
330
C
102
}
330
C
100
AcDbDictionary
281
     1
  3
A0
350
E2
  3
A1
350
E3
  3
A2
350
E4
  3
A3
350
E5
  3
A4
350
E6
  3
A5
350
E7
  3
A6
350
E8
  3
A7
350
E9
  3
A8
350
EA
  3
A9
350
EB
  3
B0
350
EC
  3
B1
350
ED
  3
B2
350
EE
  3
B3
350
EF
  3
B4
350
F0
  3
B5
350
F1
  3
B6
350
F2
  3
B7
350
F3
  3
B8
350
F4
  3
B9
350
F5
  3
C0
350
F6
  3
C1
350
F7
  3
C2
350
F8
  3
C3
350
F9
  3
C4
350
FA
  3
C5
350
FB
  3
C6
350
FC
  3
C7
350
FD
  3
C8
350
FE
  3
C9
350
FF
  3
D0
350
100
  3
D1
350
101
  3
D2
350
102
  0
DICTIONARY
  5
118
102
{ACAD_REACTORS
330
C
102
}
330
C
100
AcDbDictionary
281
     1
  0
DICTIONARY
  5
DF
102
{ACAD_REACTORS
330
C
102
}
330
C
100
AcDbDictionary
281
     1
  3
Standard
350
10D
  0
DICTIONARY
  5
2A
102
{ACAD_REACTORS
330
C
102
}
330
C
100
AcDbDictionary
281
     1
  3
2dWireframe
350
2F
  3
3D Hidden
350
31
  3
3dWireframe
350
30
  3
Basic
350
32
  3
Brighten
350
36
  3
ColorChange
350
3A
  3
Conceptual
350
34
  3
Dim
350
35
  3
EdgeColorOff
350
107
  3
Facepattern
350
39
  3
Flat
350
2B
  3
FlatWithEdges
350
2C
  3
Gouraud
350
2D
  3
GouraudWithEdges
350
2E
  3
Hidden
350
104
  3
JitterOff
350
105
  3
Linepattern
350
38
  3
OverhangOff
350
106
  3
Realistic
350
33
  3
Shaded
350
10C
  3
Shaded with edges
350
10B
  3
Shades of Gray
350
108
  3
Sketchy
350
109
  3
Thicken
350
37
  3
Wireframe
350
103
  3
X-Ray
350
10A
  0
XRECORD
  5
113
102
{ACAD_REACTORS
330
C
102
}
330
C
100
AcDbXrecord
280
     1
 90
        1
330
10D
  0
DICTIONARY
  5
10F
102
{ACAD_REACTORS
330
C
102
}
330
C
100
AcDbDictionary
281
     1
  3
CANNOSCALE
350
110
  3
CMLEADERSTYLE
350
115
  3
CTABLESTYLE
350
114
  3
XCLIPFRAME
350
116
  0
LAYOUT
  5
1E
102
{ACAD_REACTORS
330
1A
102
}
330
1A
100
AcDbPlotSettings
  1

  2
none_device
  4

  6

 40
0.0
 41
0.0
 42
0.0
 43
0.0
 44
0.0
 45
0.0
 46
0.0
 47
0.0
 48
0.0
 49
0.0
140
0.0
141
0.0
142
1.0
143
1.0
 70
   688
 72
     0
 73
     0
 74
     5
  7

 75
    16
 76
     0
 77
     2
 78
   300
147
1.0
148
0.0
149
0.0
100
AcDbLayout
  1
Layout1
 70
     1
 71
     1
 10
0.0
 20
0.0
 11
12.0
 21
9.0
 12
0.0
 22
0.0
 32
0.0
 14
1.000000000000000E+20
 24
1.000000000000000E+20
 34
1.000000000000000E+20
 15
-1.000000000000000E+20
 25
-1.000000000000000E+20
 35
-1.000000000000000E+20
146
0.0
 13
0.0
 23
0.0
 33
0.0
 16
1.0
 26
0.0
 36
0.0
 17
0.0
 27
1.0
 37
0.0
 76
     0
330
1B
  0
LAYOUT
  5
26
102
{ACAD_REACTORS
330
1A
102
}
330
1A
100
AcDbPlotSettings
  1

  2
none_device
  4

  6

 40
0.0
 41
0.0
 42
0.0
 43
0.0
 44
0.0
 45
0.0
 46
0.0
 47
0.0
 48
0.0
 49
0.0
140
0.0
141
0.0
142
1.0
143
1.0
 70
   688
 72
     0
 73
     0
 74
     5
  7

 75
    16
 76
     0
 77
     2
 78
   300
147
1.0
148
0.0
149
0.0
100
AcDbLayout
  1
Layout2
 70
     1
 71
     2
 10
0.0
 20
0.0
 11
0.0
 21
0.0
 12
0.0
 22
0.0
 32
0.0
 14
0.0
 24
0.0
 34
0.0
 15
0.0
 25
0.0
 35
0.0
146
0.0
 13
0.0
 23
0.0
 33
0.0
 16
1.0
 26
0.0
 36
0.0
 17
0.0
 27
1.0
 37
0.0
 76
     0
330
23
  0
LAYOUT
  5
22
102
{ACAD_REACTORS
330
1A
102
}
330
1A
100
AcDbPlotSettings
  1

  2
none_device
  4

  6

 40
0.0
 41
0.0
 42
0.0
 43
0.0
 44
0.0
 45
0.0
 46
0.0
 47
0.0
 48
0.0
 49
0.0
140
0.0
141
0.0
142
1.0
143
1.0
 70
  1712
 72
     0
 73
     0
 74
     0
  7

 75
     0
 76
     0
 77
     2
 78
   300
147
1.0
148
0.0
149
0.0
100
AcDbLayout
  1
Model
 70
     1
 71
     0
 10
0.0
 20
0.0
 11
12.0
 21
9.0
 12
0.0
 22
0.0
 32
0.0
 14
-190.7293
 24
-239.5263
 34
0.0
 15
194.4206
 25
182.7624
 35
0.0
146
0.0
 13
0.0
 23
0.0
 33
0.0
 16
1.0
 26
0.0
 36
0.0
 17
0.0
 27
1.0
 37
0.0
 76
     0
330
1F
331
29
  0
MATERIAL
  5
3D
102
{ACAD_REACTORS
330
3B
102
}
330
3B
100
AcDbMaterial
  1
ByBlock
 72
     1
 94
      127
  0
MATERIAL
  5
3C
102
{ACAD_REACTORS
330
3B
102
}
330
3B
100
AcDbMaterial
  1
ByLayer
 72
     1
 94
      127
  0
MATERIAL
  5
3E
102
{ACAD_REACTORS
330
3B
102
}
330
3B
100
AcDbMaterial
  1
Global
 72
     1
 94
      127
  0
MLEADERSTYLE
  5
10E
102
{ACAD_REACTORS
330
E0
102
}
330
E0
100
AcDbMLeaderStyle
179
     2
170
     2
171
     1
172
     0
 90
        2
 40
0.0
 41
0.0
173
     1
 91
-1056964608
340
14
 92
       -2
290
     1
 42
0.09
291
     1
 43
0.36
  3
Standard
341
0
 44
0.18
300

342
11
174
     1
178
     6
175
     1
176
     0
 93
-1056964608
 45
0.18
292
     0
297
     0
 46
0.18
343
0
 94
-1056964608
 47
1.0
 49
1.0
140
1.0
293
     1
141
0.0
294
     1
177
     0
142
1.0
295
     0
296
     0
143
0.125
271
     0
272
     9
273
     9
298
     0
  0
MLINESTYLE
  5
18
102
{ACAD_REACTORS
330
17
102
}
330
17
100
AcDbMlineStyle
  2
Standard
 70
     0
  3

 62
   256
 51
90.0
 52
90.0
 71
     2
 49
0.5
 62
   256
  6
BYLAYER
 49
-0.5
 62
   256
  6
BYLAYER
  0
ACDBPLACEHOLDER
  5
F
102
{ACAD_REACTORS
330
E
102
}
330
E
  0
SCALE
  5
E2
102
{ACAD_REACTORS
330
E1
102
}
330
E1
100
AcDbScale
 70
     0
300
1:1
140
1.0
141
1.0
290
     1
  0
SCALE
  5
E3
102
{ACAD_REACTORS
330
E1
102
}
330
E1
100
AcDbScale
 70
     0
300
1:2
140
1.0
141
2.0
290
     0
  0
SCALE
  5
E4
102
{ACAD_REACTORS
330
E1
102
}
330
E1
100
AcDbScale
 70
     0
300
1:4
140
1.0
141
4.0
290
     0
  0
SCALE
  5
E5
102
{ACAD_REACTORS
330
E1
102
}
330
E1
100
AcDbScale
 70
     0
300
1:5
140
1.0
141
5.0
290
     0
  0
SCALE
  5
E6
102
{ACAD_REACTORS
330
E1
102
}
330
E1
100
AcDbScale
 70
     0
300
1:8
140
1.0
141
8.0
290
     0
  0
SCALE
  5
E7
102
{ACAD_REACTORS
330
E1
102
}
330
E1
100
AcDbScale
 70
     0
300
1:10
140
1.0
141
10.0
290
     0
  0
SCALE
  5
E8
102
{ACAD_REACTORS
330
E1
102
}
330
E1
100
AcDbScale
 70
     0
300
1:16
140
1.0
141
16.0
290
     0
  0
SCALE
  5
E9
102
{ACAD_REACTORS
330
E1
102
}
330
E1
100
AcDbScale
 70
     0
300
1:20
140
1.0
141
20.0
290
     0
  0
SCALE
  5
EA
102
{ACAD_REACTORS
330
E1
102
}
330
E1
100
AcDbScale
 70
     0
300
1:30
140
1.0
141
30.0
290
     0
  0
SCALE
  5
EB
102
{ACAD_REACTORS
330
E1
102
}
330
E1
100
AcDbScale
 70
     0
300
1:40
140
1.0
141
40.0
290
     0
  0
SCALE
  5
EC
102
{ACAD_REACTORS
330
E1
102
}
330
E1
100
AcDbScale
 70
     0
300
1:50
140
1.0
141
50.0
290
     0
  0
SCALE
  5
ED
102
{ACAD_REACTORS
330
E1
102
}
330
E1
100
AcDbScale
 70
     0
300
1:100
140
1.0
141
100.0
290
     0
  0
SCALE
  5
EE
102
{ACAD_REACTORS
330
E1
102
}
330
E1
100
AcDbScale
 70
     0
300
2:1
140
2.0
141
1.0
290
     0
  0
SCALE
  5
EF
102
{ACAD_REACTORS
330
E1
102
}
330
E1
100
AcDbScale
 70
     0
300
4:1
140
4.0
141
1.0
290
     0
  0
SCALE
  5
F0
102
{ACAD_REACTORS
330
E1
102
}
330
E1
100
AcDbScale
 70
     0
300
8:1
140
8.0
141
1.0
290
     0
  0
SCALE
  5
F1
102
{ACAD_REACTORS
330
E1
102
}
330
E1
100
AcDbScale
 70
     0
300
10:1
140
10.0
141
1.0
290
     0
  0
SCALE
  5
F2
102
{ACAD_REACTORS
330
E1
102
}
330
E1
100
AcDbScale
 70
     0
300
100:1
140
100.0
141
1.0
290
     0
  0
SCALE
  5
F3
102
{ACAD_REACTORS
330
E1
102
}
330
E1
100
AcDbScale
 70
     0
300
1/128" = 1'-0"
140
0.0078125
141
12.0
290
     0
  0
SCALE
  5
F4
102
{ACAD_REACTORS
330
E1
102
}
330
E1
100
AcDbScale
 70
     0
300
1/64" = 1'-0"
140
0.015625
141
12.0
290
     0
  0
SCALE
  5
F5
102
{ACAD_REACTORS
330
E1
102
}
330
E1
100
AcDbScale
 70
     0
300
1/32" = 1'-0"
140
0.03125
141
12.0
290
     0
  0
SCALE
  5
F6
102
{ACAD_REACTORS
330
E1
102
}
330
E1
100
AcDbScale
 70
     0
300
1/16" = 1'-0"
140
0.0625
141
12.0
290
     0
  0
SCALE
  5
F7
102
{ACAD_REACTORS
330
E1
102
}
330
E1
100
AcDbScale
 70
     0
300
3/32" = 1'-0"
140
0.09375
141
12.0
290
     0
  0
SCALE
  5
F8
102
{ACAD_REACTORS
330
E1
102
}
330
E1
100
AcDbScale
 70
     0
300
1/8" = 1'-0"
140
0.125
141
12.0
290
     0
  0
SCALE
  5
F9
102
{ACAD_REACTORS
330
E1
102
}
330
E1
100
AcDbScale
 70
     0
300
3/16" = 1'-0"
140
0.1875
141
12.0
290
     0
  0
SCALE
  5
FA
102
{ACAD_REACTORS
330
E1
102
}
330
E1
100
AcDbScale
 70
     0
300
1/4" = 1'-0"
140
0.25
141
12.0
290
     0
  0
SCALE
  5
FB
102
{ACAD_REACTORS
330
E1
102
}
330
E1
100
AcDbScale
 70
     0
300
3/8" = 1'-0"
140
0.375
141
12.0
290
     0
  0
SCALE
  5
FC
102
{ACAD_REACTORS
330
E1
102
}
330
E1
100
AcDbScale
 70
     0
300
1/2" = 1'-0"
140
0.5
141
12.0
290
     0
  0
SCALE
  5
FD
102
{ACAD_REACTORS
330
E1
102
}
330
E1
100
AcDbScale
 70
     0
300
3/4" = 1'-0"
140
0.75
141
12.0
290
     0
  0
SCALE
  5
FE
102
{ACAD_REACTORS
330
E1
102
}
330
E1
100
AcDbScale
 70
     0
300
1" = 1'-0"
140
1.0
141
12.0
290
     0
  0
SCALE
  5
FF
102
{ACAD_REACTORS
330
E1
102
}
330
E1
100
AcDbScale
 70
     0
300
1-1/2" = 1'-0"
140
1.5
141
12.0
290
     0
  0
SCALE
  5
100
102
{ACAD_REACTORS
330
E1
102
}
330
E1
100
AcDbScale
 70
     0
300
3" = 1'-0"
140
3.0
141
12.0
290
     0
  0
SCALE
  5
101
102
{ACAD_REACTORS
330
E1
102
}
330
E1
100
AcDbScale
 70
     0
300
6" = 1'-0"
140
6.0
141
12.0
290
     0
  0
SCALE
  5
102
102
{ACAD_REACTORS
330
E1
102
}
330
E1
100
AcDbScale
 70
     0
300
1'-0" = 1'-0"
140
12.0
141
12.0
290
     0
  0
TABLESTYLE
  5
10D
102
{ACAD_REACTORS
330
DF
102
}
102
{ACAD_XDICTIONARY
360
111
102
}
330
DF
100
AcDbTableStyle
  3
Standard
 70
     0
 71
     0
 40
0.06
 41
0.06
280
     0
281
     0
  7
Standard
140
0.18
170
     2
 62
     0
 63
   257
283
     0
 90
        4
 91
        0
  1

274
    -2
284
     1
 64
     0
275
    -2
285
     1
 65
     0
276
    -2
286
     1
 66
     0
277
    -2
287
     1
 67
     0
278
    -2
288
     1
 68
     0
279
    -2
289
     1
 69
     0
  7
Standard
140
0.25
170
     5
 62
     0
 63
   257
283
     0
 90
        4
 91
        0
  1

274
    -2
284
     1
 64
     0
275
    -2
285
     1
 65
     0
276
    -2
286
     1
 66
     0
277
    -2
287
     1
 67
     0
278
    -2
288
     1
 68
     0
279
    -2
289
     1
 69
     0
  7
Standard
140
0.18
170
     5
 62
     0
 63
   257
283
     0
 90
        4
 91
        0
  1

274
    -2
284
     1
 64
     0
275
    -2
285
     1
 65
     0
276
    -2
286
     1
 66
     0
277
    -2
287
     1
 67
     0
278
    -2
288
     1
 68
     0
279
    -2
289
     1
 69
     0
  0
VISUALSTYLE
  5
2F
102
{ACAD_REACTORS
330
2A
102
}
330
2A
100
AcDbVisualStyle
  2
2dWireframe
 70
     4
177
     3
291
     0
 70
    58
 90
        0
176
     1
 90
        2
176
     1
 90
        0
176
     1
 90
        0
176
     1
 40
-0.6
176
     1
 40
-30.0
176
     1
 62
     7
420
 16777215
176
     1
 90
        1
176
     1
 90
        4
176
     1
 62
     7
176
     1
 62
   257
176
     1
 90
        1
176
     1
 90
        1
176
     1
 40
1.0
176
     1
 90
        0
176
     1
 62
   257
176
     1
 40
1.0
176
     1
 90
        1
176
     1
 90
        6
176
     1
 90
        2
176
     1
 62
     7
176
     1
 90
        5
176
     1
 90
        0
176
     1
 90
        0
176
     1
290
     0
176
     1
 90
        1
176
     1
 40
0.0
176
     1
 90
        0
176
     1
290
     1
176
     1
290
     1
176
     1
290
     0
176
     1
290
     0
176
     1
290
     0
176
     1
290
     0
176
     1
290
     0
176
     1
290
     0
176
     1
290
     0
176
     1
 90
       50
176
     1
 40
0.0
176
     1
 40
1.0
176
     1
 90
        0
176
     1
 62
   178
420
        0
176
     1
 90
       50
176
     1
 90
        3
176
     1
 62
     5
420
      255
176
     1
290
     0
176
     1
 90
       50
176
     1
 90
       50
176
     1
 90
       50
176
     1
290
     0
176
     1
 90
       50
176
     1
 62
   256
176
     0
 40
1.0
176
     0
 90
        2
176
     1
  1
strokes_ogs.tif
176
     1
290
     0
176
     1
 40
1.0
176
     1
 40
1.0
176
     1
  0
VISUALSTYLE
  5
31
102
{ACAD_REACTORS
330
2A
102
}
330
2A
100
AcDbVisualStyle
  2
3D Hidden
 70
     6
177
     3
291
     0
 70
    58
 90
        1
176
     1
 90
        2
176
     1
 90
        2
176
     1
 90
        0
176
     1
 40
-0.6
176
     1
 40
-30.0
176
     1
 62
     7
420
 16777215
176
     1
 90
        2
176
     1
 90
        2
176
     1
 62
     7
176
     1
 62
   257
176
     1
 90
        2
176
     1
 90
        1
176
     1
 40
40.0
176
     1
 90
        0
176
     1
 62
   257
176
     1
 40
1.0
176
     1
 90
        1
176
     1
 90
        6
176
     1
 90
        2
176
     1
 62
     7
176
     1
 90
        3
176
     1
 90
        0
176
     1
 90
        0
176
     1
290
     0
176
     1
 90
        1
176
     1
 40
0.0
176
     1
 90
        0
176
     1
290
     0
176
     1
290
     1
176
     1
290
     1
176
     1
290
     0
176
     1
290
     0
176
     1
290
     0
176
     1
290
     0
176
     1
290
     0
176
     1
290
     0
176
     1
 90
       50
176
     1
 40
0.0
176
     1
 40
1.0
176
     1
 90
        0
176
     1
 62
   178
420
        0
176
     1
 90
       50
176
     1
 90
        3
176
     1
 62
     5
420
      255
176
     1
290
     0
176
     1
 90
       50
176
     1
 90
       50
176
     1
 90
       50
176
     1
290
     0
176
     1
 90
       50
176
     1
 62
   256
176
     0
 40
1.0
176
     0
 90
        2
176
     1
  1
strokes_ogs.tif
176
     1
290
     0
176
     1
 40
1.0
176
     1
 40
1.0
176
     1
  0
VISUALSTYLE
  5
30
102
{ACAD_REACTORS
330
2A
102
}
330
2A
100
AcDbVisualStyle
  2
3dWireframe
 70
     5
177
     3
291
     0
 70
    58
 90
        0
176
     1
 90
        2
176
     1
 90
        0
176
     1
 90
        0
176
     1
 40
-0.6
176
     1
 40
-30.0
176
     1
 62
     7
420
 16777215
176
     1
 90
        1
176
     1
 90
        4
176
     1
 62
     7
176
     1
 62
   257
176
     1
 90
        1
176
     1
 90
        1
176
     1
 40
1.0
176
     1
 90
        0
176
     1
 62
   257
176
     1
 40
1.0
176
     1
 90
        1
176
     1
 90
        6
176
     1
 90
        2
176
     1
 62
     7
176
     1
 90
        5
176
     1
 90
        0
176
     1
 90
        0
176
     1
290
     0
176
     1
 90
        1
176
     1
 40
0.0
176
     1
 90
        0
176
     1
290
     0
176
     1
290
     1
176
     1
290
     1
176
     1
290
     0
176
     1
290
     0
176
     1
290
     0
176
     1
290
     0
176
     1
290
     0
176
     1
290
     0
176
     1
 90
       50
176
     1
 40
0.0
176
     1
 40
1.0
176
     1
 90
        0
176
     1
 62
   178
420
        0
176
     1
 90
       50
176
     1
 90
        3
176
     1
 62
     5
420
      255
176
     1
290
     0
176
     1
 90
       50
176
     1
 90
       50
176
     1
 90
       50
176
     1
290
     0
176
     1
 90
       50
176
     1
 62
   256
176
     0
 40
1.0
176
     0
 90
        2
176
     1
  1
strokes_ogs.tif
176
     1
290
     0
176
     1
 40
1.0
176
     1
 40
1.0
176
     1
  0
VISUALSTYLE
  5
32
102
{ACAD_REACTORS
330
2A
102
}
330
2A
100
AcDbVisualStyle
  2
Basic
 70
     7
177
     3
291
     1
 70
    58
 90
        1
176
     1
 90
        0
176
     1
 90
        1
176
     1
 90
        0
176
     1
 40
-0.6
176
     1
 40
-30.0
176
     1
 62
     7
420
 16777215
176
     1
 90
        0
176
     1
 90
        4
176
     1
 62
     7
176
     1
 62
   257
176
     1
 90
        1
176
     1
 90
        1
176
     1
 40
1.0
176
     1
 90
        8
176
     1
 62
     7
176
     1
 40
1.0
176
     1
 90
        1
176
     1
 90
        6
176
     1
 90
        2
176
     1
 62
     7
176
     1
 90
        5
176
     1
 90
        0
176
     1
 90
        0
176
     1
290
     0
176
     1
 90
        1
176
     1
 40
0.0
176
     1
 90
        0
176
     1
290
     0
176
     1
290
     1
176
     1
290
     1
176
     1
290
     0
176
     1
290
     0
176
     1
290
     0
176
     1
290
     0
176
     1
290
     0
176
     1
290
     0
176
     1
 90
       50
176
     1
 40
0.0
176
     1
 40
1.0
176
     1
 90
        0
176
     1
 62
   178
420
        0
176
     1
 90
       50
176
     1
 90
        3
176
     1
 62
     5
420
      255
176
     1
290
     0
176
     1
 90
       50
176
     1
 90
       50
176
     1
 90
       50
176
     1
290
     0
176
     1
 90
       50
176
     1
 62
   256
176
     0
 40
1.0
176
     0
 90
        2
176
     1
  1
strokes_ogs.tif
176
     1
290
     0
176
     1
 40
1.0
176
     1
 40
1.0
176
     1
  0
VISUALSTYLE
  5
36
102
{ACAD_REACTORS
330
2A
102
}
330
2A
100
AcDbVisualStyle
  2
Brighten
 70
    12
177
     3
291
     1
 70
    58
 90
        2
176
     1
 90
        2
176
     1
 90
        0
176
     1
 90
        0
176
     1
 40
-0.6
176
     1
 40
-30.0
176
     1
 62
     7
420
 16777215
176
     1
 90
        1
176
     1
 90
        4
176
     1
 62
     7
176
     1
 62
   257
176
     1
 90
        1
176
     1
 90
        1
176
     1
 40
1.0
176
     1
 90
        8
176
     1
 62
     7
176
     1
 40
1.0
176
     1
 90
        1
176
     1
 90
        6
176
     1
 90
        2
176
     1
 62
     7
176
     1
 90
        5
176
     1
 90
        0
176
     1
 90
        0
176
     1
290
     0
176
     1
 90
        1
176
     1
 40
50.0
176
     1
 90
        0
176
     1
290
     0
176
     1
290
     1
176
     1
290
     1
176
     1
290
     0
176
     1
290
     0
176
     1
290
     0
176
     1
290
     0
176
     1
290
     0
176
     1
290
     0
176
     1
 90
       50
176
     1
 40
0.0
176
     1
 40
1.0
176
     1
 90
        0
176
     1
 62
   178
420
        0
176
     1
 90
       50
176
     1
 90
        3
176
     1
 62
     5
420
      255
176
     1
290
     0
176
     1
 90
       50
176
     1
 90
       50
176
     1
 90
       50
176
     1
290
     0
176
     1
 90
       50
176
     1
 62
   256
176
     0
 40
1.0
176
     0
 90
        2
176
     1
  1
strokes_ogs.tif
176
     1
290
     0
176
     1
 40
1.0
176
     1
 40
1.0
176
     1
  0
VISUALSTYLE
  5
3A
102
{ACAD_REACTORS
330
2A
102
}
330
2A
100
AcDbVisualStyle
  2
ColorChange
 70
    16
177
     3
291
     1
 70
    58
 90
        2
176
     1
 90
        2
176
     1
 90
        3
176
     1
 90
        0
176
     1
 40
-0.6
176
     1
 40
-30.0
176
     1
 62
     8
420
  8421504
176
     1
 90
        1
176
     1
 90
        4
176
     1
 62
     7
176
     1
 62
   257
176
     1
 90
        1
176
     1
 90
        1
176
     1
 40
1.0
176
     1
 90
        8
176
     1
 62
     8
420
  8421504
176
     1
 40
1.0
176
     1
 90
        1
176
     1
 90
        6
176
     1
 90
        2
176
     1
 62
     7
176
     1
 90
        5
176
     1
 90
        0
176
     1
 90
        0
176
     1
290
     0
176
     1
 90
        1
176
     1
 40
0.0
176
     1
 90
        0
176
     1
290
     0
176
     1
290
     1
176
     1
290
     1
176
     1
290
     0
176
     1
290
     0
176
     1
290
     0
176
     1
290
     0
176
     1
290
     0
176
     1
290
     0
176
     1
 90
       50
176
     1
 40
0.0
176
     1
 40
1.0
176
     1
 90
        0
176
     1
 62
   178
420
        0
176
     1
 90
       50
176
     1
 90
        3
176
     1
 62
     5
420
      255
176
     1
290
     0
176
     1
 90
       50
176
     1
 90
       50
176
     1
 90
       50
176
     1
290
     0
176
     1
 90
       50
176
     1
 62
   256
176
     0
 40
1.0
176
     0
 90
        2
176
     1
  1
strokes_ogs.tif
176
     1
290
     0
176
     1
 40
1.0
176
     1
 40
1.0
176
     1
  0
VISUALSTYLE
  5
34
102
{ACAD_REACTORS
330
2A
102
}
330
2A
100
AcDbVisualStyle
  2
Conceptual
 70
     9
177
     3
291
     0
 70
    58
 90
        3
176
     1
 90
        2
176
     1
 90
        0
176
     1
 90
        0
176
     1
 40
-0.6
176
     1
 40
-30.0
176
     1
 62
     7
420
 16777215
176
     1
 90
        2
176
     1
 90
        2
176
     1
 62
     7
176
     1
 62
   257
176
     1
 90
        1
176
     1
 90
        1
176
     1
 40
40.0
176
     1
 90
        8
176
     1
 62
     7
176
     1
 40
1.0
176
     1
 90
        1
176
     1
 90
        6
176
     1
 90
        2
176
     1
 62
     7
176
     1
 90
        3
176
     1
 90
        0
176
     1
 90
        0
176
     1
290
     0
176
     1
 90
        1
176
     1
 40
0.0
176
     1
 90
        0
176
     1
290
     0
176
     1
290
     1
176
     1
290
     1
176
     1
290
     0
176
     1
290
     0
176
     1
290
     0
176
     1
290
     0
176
     1
290
     0
176
     1
290
     0
176
     1
 90
       50
176
     1
 40
0.0
176
     1
 40
1.0
176
     1
 90
        0
176
     1
 62
   178
420
        0
176
     1
 90
       50
176
     1
 90
        3
176
     1
 62
     5
420
      255
176
     1
290
     0
176
     1
 90
       50
176
     1
 90
       50
176
     1
 90
       50
176
     1
290
     0
176
     1
 90
       50
176
     1
 62
   256
176
     0
 40
1.0
176
     0
 90
        2
176
     1
  1
strokes_ogs.tif
176
     1
290
     0
176
     1
 40
1.0
176
     1
 40
1.0
176
     1
  0
VISUALSTYLE
  5
35
102
{ACAD_REACTORS
330
2A
102
}
330
2A
100
AcDbVisualStyle
  2
Dim
 70
    11
177
     3
291
     1
 70
    58
 90
        2
176
     1
 90
        2
176
     1
 90
        0
176
     1
 90
        0
176
     1
 40
-0.6
176
     1
 40
-30.0
176
     1
 62
     7
420
 16777215
176
     1
 90
        1
176
     1
 90
        4
176
     1
 62
     7
176
     1
 62
   257
176
     1
 90
        1
176
     1
 90
        1
176
     1
 40
1.0
176
     1
 90
        8
176
     1
 62
     7
176
     1
 40
1.0
176
     1
 90
        1
176
     1
 90
        6
176
     1
 90
        2
176
     1
 62
     7
176
     1
 90
        5
176
     1
 90
        0
176
     1
 90
        0
176
     1
290
     0
176
     1
 90
        1
176
     1
 40
-50.0
176
     1
 90
        0
176
     1
290
     0
176
     1
290
     1
176
     1
290
     1
176
     1
290
     0
176
     1
290
     0
176
     1
290
     0
176
     1
290
     0
176
     1
290
     0
176
     1
290
     0
176
     1
 90
       50
176
     1
 40
0.0
176
     1
 40
1.0
176
     1
 90
        0
176
     1
 62
   178
420
        0
176
     1
 90
       50
176
     1
 90
        3
176
     1
 62
     5
420
      255
176
     1
290
     0
176
     1
 90
       50
176
     1
 90
       50
176
     1
 90
       50
176
     1
290
     0
176
     1
 90
       50
176
     1
 62
   256
176
     0
 40
1.0
176
     0
 90
        2
176
     1
  1
strokes_ogs.tif
176
     1
290
     0
176
     1
 40
1.0
176
     1
 40
1.0
176
     1
  0
VISUALSTYLE
  5
107
102
{ACAD_REACTORS
330
2A
102
}
330
2A
100
AcDbVisualStyle
  2
EdgeColorOff
 70
    22
177
     3
291
     1
 70
    58
 90
        2
176
     0
 90
        2
176
     0
 90
        0
176
     0
 90
        0
176
     0
 40
0.6
176
     0
 40
30.0
176
     0
 62
     7
420
 16777215
176
     0
 90
        1
176
     0
 90
        4
176
     0
 62
     7
176
     0
 62
   257
176
     0
 90
        1
176
     0
 90
        1
176
     0
 40
1.0
176
     0
 90
        8
176
     2
 62
     7
176
     0
 40
1.0
176
     0
 90
        1
176
     0
 90
        6
176
     0
 90
        2
176
     0
 62
     7
176
     0
 90
        5
176
     0
 90
        0
176
     0
 90
        0
176
     0
290
     0
176
     0
 90
        1
176
     0
 40
0.0
176
     0
 90
        0
176
     0
290
     0
176
     0
290
     1
176
     0
290
     1
176
     0
290
     0
176
     0
290
     0
176
     0
290
     0
176
     0
290
     0
176
     0
290
     0
176
     0
290
     0
176
     0
 90
       50
176
     0
 40
0.0
176
     0
 40
1.0
176
     0
 90
        0
176
     0
 62
   178
420
        0
176
     0
 90
       50
176
     0
 90
        3
176
     0
 62
     5
420
      255
176
     0
290
     0
176
     0
 90
       50
176
     0
 90
       50
176
     0
 90
       50
176
     0
290
     0
176
     0
 90
       50
176
     0
 62
   256
176
     0
 40
1.0
176
     0
 90
        2
176
     0
  1
strokes_ogs.tif
176
     0
290
     0
176
     0
 40
1.0
176
     0
 40
1.0
176
     0
  0
VISUALSTYLE
  5
39
102
{ACAD_REACTORS
330
2A
102
}
330
2A
100
AcDbVisualStyle
  2
Facepattern
 70
    15
177
     3
291
     1
 70
    58
 90
        2
176
     1
 90
        2
176
     1
 90
        0
176
     1
 90
        0
176
     1
 40
-0.6
176
     1
 40
-30.0
176
     1
 62
     7
420
 16777215
176
     1
 90
        1
176
     1
 90
        4
176
     1
 62
     7
176
     1
 62
   257
176
     1
 90
        1
176
     1
 90
        1
176
     1
 40
1.0
176
     1
 90
        8
176
     1
 62
     7
176
     1
 40
1.0
176
     1
 90
        1
176
     1
 90
        6
176
     1
 90
        2
176
     1
 62
     7
176
     1
 90
        5
176
     1
 90
        0
176
     1
 90
        0
176
     1
290
     0
176
     1
 90
        1
176
     1
 40
0.0
176
     1
 90
        0
176
     1
290
     0
176
     1
290
     1
176
     1
290
     1
176
     1
290
     0
176
     1
290
     0
176
     1
290
     0
176
     1
290
     0
176
     1
290
     0
176
     1
290
     0
176
     1
 90
       50
176
     1
 40
0.0
176
     1
 40
1.0
176
     1
 90
        0
176
     1
 62
   178
420
        0
176
     1
 90
       50
176
     1
 90
        3
176
     1
 62
     5
420
      255
176
     1
290
     0
176
     1
 90
       50
176
     1
 90
       50
176
     1
 90
       50
176
     1
290
     0
176
     1
 90
       50
176
     1
 62
   256
176
     0
 40
1.0
176
     0
 90
        2
176
     1
  1
strokes_ogs.tif
176
     1
290
     0
176
     1
 40
1.0
176
     1
 40
1.0
176
     1
  0
VISUALSTYLE
  5
2B
102
{ACAD_REACTORS
330
2A
102
}
330
2A
100
AcDbVisualStyle
  2
Flat
 70
     0
177
     3
291
     1
 70
    58
 90
        2
176
     1
 90
        1
176
     1
 90
        1
176
     1
 90
        2
176
     1
 40
-0.6
176
     1
 40
30.0
176
     1
 62
     7
420
 16777215
176
     1
 90
        0
176
     1
 90
        4
176
     1
 62
     7
176
     1
 62
   257
176
     1
 90
        1
176
     1
 90
        1
176
     1
 40
1.0
176
     1
 90
        8
176
     1
 62
     7
176
     1
 40
1.0
176
     1
 90
        1
176
     1
 90
        6
176
     1
 90
        2
176
     1
 62
     7
176
     1
 90
        5
176
     1
 90
        0
176
     1
 90
        0
176
     1
290
     0
176
     1
 90
       13
176
     1
 40
0.0
176
     1
 90
        0
176
     1
290
     0
176
     1
290
     1
176
     1
290
     1
176
     1
290
     0
176
     1
290
     0
176
     1
290
     0
176
     1
290
     0
176
     1
290
     0
176
     1
290
     0
176
     1
 90
       50
176
     1
 40
0.0
176
     1
 40
1.0
176
     1
 90
        0
176
     1
 62
   178
420
        0
176
     1
 90
       50
176
     1
 90
        3
176
     1
 62
     5
420
      255
176
     1
290
     0
176
     1
 90
       50
176
     1
 90
       50
176
     1
 90
       50
176
     1
290
     0
176
     1
 90
       50
176
     1
 62
   256
176
     0
 40
1.0
176
     0
 90
        2
176
     1
  1
strokes_ogs.tif
176
     1
290
     0
176
     1
 40
1.0
176
     1
 40
1.0
176
     1
  0
VISUALSTYLE
  5
2C
102
{ACAD_REACTORS
330
2A
102
}
330
2A
100
AcDbVisualStyle
  2
FlatWithEdges
 70
     1
177
     3
291
     1
 70
    58
 90
        2
176
     1
 90
        1
176
     1
 90
        1
176
     1
 90
        2
176
     1
 40
-0.6
176
     1
 40
30.0
176
     1
 62
     7
420
 16777215
176
     1
 90
        1
176
     1
 90
        4
176
     1
 62
     7
176
     1
 62
   257
176
     1
 90
        1
176
     1
 90
        1
176
     1
 40
1.0
176
     1
 90
        0
176
     1
 62
   257
176
     1
 40
1.0
176
     1
 90
        1
176
     1
 90
        6
176
     1
 90
        2
176
     1
 62
     7
176
     1
 90
        5
176
     1
 90
        0
176
     1
 90
        0
176
     1
290
     0
176
     1
 90
       13
176
     1
 40
0.0
176
     1
 90
        0
176
     1
290
     0
176
     1
290
     1
176
     1
290
     1
176
     1
290
     0
176
     1
290
     0
176
     1
290
     0
176
     1
290
     0
176
     1
290
     0
176
     1
290
     0
176
     1
 90
       50
176
     1
 40
0.0
176
     1
 40
1.0
176
     1
 90
        0
176
     1
 62
   178
420
        0
176
     1
 90
       50
176
     1
 90
        3
176
     1
 62
     5
420
      255
176
     1
290
     0
176
     1
 90
       50
176
     1
 90
       50
176
     1
 90
       50
176
     1
290
     0
176
     1
 90
       50
176
     1
 62
   256
176
     0
 40
1.0
176
     0
 90
        2
176
     1
  1
strokes_ogs.tif
176
     1
290
     0
176
     1
 40
1.0
176
     1
 40
1.0
176
     1
  0
VISUALSTYLE
  5
2D
102
{ACAD_REACTORS
330
2A
102
}
330
2A
100
AcDbVisualStyle
  2
Gouraud
 70
     2
177
     3
291
     1
 70
    58
 90
        2
176
     1
 90
        2
176
     1
 90
        1
176
     1
 90
        2
176
     1
 40
-0.6
176
     1
 40
30.0
176
     1
 62
     7
420
 16777215
176
     1
 90
        0
176
     1
 90
        4
176
     1
 62
     7
176
     1
 62
   257
176
     1
 90
        1
176
     1
 90
        1
176
     1
 40
1.0
176
     1
 90
        0
176
     1
 62
     7
176
     1
 40
1.0
176
     1
 90
        1
176
     1
 90
        6
176
     1
 90
        2
176
     1
 62
     7
176
     1
 90
        5
176
     1
 90
        0
176
     1
 90
        0
176
     1
290
     0
176
     1
 90
       13
176
     1
 40
0.0
176
     1
 90
        0
176
     1
290
     0
176
     1
290
     1
176
     1
290
     1
176
     1
290
     0
176
     1
290
     0
176
     1
290
     0
176
     1
290
     0
176
     1
290
     0
176
     1
290
     0
176
     1
 90
       50
176
     1
 40
0.0
176
     1
 40
1.0
176
     1
 90
        0
176
     1
 62
   178
420
        0
176
     1
 90
       50
176
     1
 90
        3
176
     1
 62
     5
420
      255
176
     1
290
     0
176
     1
 90
       50
176
     1
 90
       50
176
     1
 90
       50
176
     1
290
     0
176
     1
 90
       50
176
     1
 62
   256
176
     0
 40
1.0
176
     0
 90
        2
176
     1
  1
strokes_ogs.tif
176
     1
290
     0
176
     1
 40
1.0
176
     1
 40
1.0
176
     1
  0
VISUALSTYLE
  5
2E
102
{ACAD_REACTORS
330
2A
102
}
330
2A
100
AcDbVisualStyle
  2
GouraudWithEdges
 70
     3
177
     3
291
     1
 70
    58
 90
        2
176
     1
 90
        2
176
     1
 90
        1
176
     1
 90
        2
176
     1
 40
-0.6
176
     1
 40
30.0
176
     1
 62
     7
420
 16777215
176
     1
 90
        1
176
     1
 90
        4
176
     1
 62
     7
176
     1
 62
   257
176
     1
 90
        1
176
     1
 90
        1
176
     1
 40
1.0
176
     1
 90
        0
176
     1
 62
   257
176
     1
 40
1.0
176
     1
 90
        1
176
     1
 90
        6
176
     1
 90
        2
176
     1
 62
     7
176
     1
 90
        5
176
     1
 90
        0
176
     1
 90
        0
176
     1
290
     0
176
     1
 90
       13
176
     1
 40
0.0
176
     1
 90
        0
176
     1
290
     0
176
     1
290
     1
176
     1
290
     1
176
     1
290
     0
176
     1
290
     0
176
     1
290
     0
176
     1
290
     0
176
     1
290
     0
176
     1
290
     0
176
     1
 90
       50
176
     1
 40
0.0
176
     1
 40
1.0
176
     1
 90
        0
176
     1
 62
   178
420
        0
176
     1
 90
       50
176
     1
 90
        3
176
     1
 62
     5
420
      255
176
     1
290
     0
176
     1
 90
       50
176
     1
 90
       50
176
     1
 90
       50
176
     1
290
     0
176
     1
 90
       50
176
     1
 62
   256
176
     0
 40
1.0
176
     0
 90
        2
176
     1
  1
strokes_ogs.tif
176
     1
290
     0
176
     1
 40
1.0
176
     1
 40
1.0
176
     1
  0
VISUALSTYLE
  5
104
102
{ACAD_REACTORS
330
2A
102
}
330
2A
100
AcDbVisualStyle
  2
Hidden
 70
     6
177
     3
291
     0
 70
    58
 90
        1
176
     1
 90
        2
176
     1
 90
        2
176
     1
 90
        0
176
     1
 40
0.6
176
     1
 40
30.0
176
     1
 62
     7
420
 16777215
176
     1
 90
        2
176
     1
 90
        2
176
     1
 62
     7
176
     1
 62
   257
176
     1
 90
        2
176
     1
 90
        1
176
     1
 40
40.0
176
     1
 90
        0
176
     1
 62
   257
176
     1
 40
1.0
176
     1
 90
        1
176
     1
 90
        6
176
     1
 90
        2
176
     1
 62
     7
176
     1
 90
        3
176
     1
 90
        0
176
     1
 90
        0
176
     1
290
     0
176
     1
 90
        1
176
     1
 40
0.0
176
     1
 90
        0
176
     1
290
     0
176
     1
290
     1
176
     1
290
     1
176
     1
290
     0
176
     1
290
     0
176
     1
290
     0
176
     1
290
     0
176
     1
290
     0
176
     1
290
     0
176
     1
 90
       50
176
     1
 40
0.0
176
     1
 40
1.0
176
     1
 90
        0
176
     1
 62
   178
420
        0
176
     1
 90
       50
176
     1
 90
        3
176
     1
 62
     5
420
      255
176
     1
290
     0
176
     1
 90
       50
176
     1
 90
       50
176
     1
 90
       50
176
     1
290
     0
176
     1
 90
       50
176
     1
 62
   256
176
     0
 40
1.0
176
     0
 90
        2
176
     1
  1
strokes_ogs.tif
176
     1
290
     0
176
     1
 40
1.0
176
     1
 40
1.0
176
     1
  0
VISUALSTYLE
  5
105
102
{ACAD_REACTORS
330
2A
102
}
330
2A
100
AcDbVisualStyle
  2
JitterOff
 70
    20
177
     3
291
     1
 70
    58
 90
        2
176
     0
 90
        2
176
     0
 90
        0
176
     0
 90
        0
176
     0
 40
0.6
176
     0
 40
30.0
176
     0
 62
     7
420
 16777215
176
     0
 90
        1
176
     0
 90
        4
176
     0
 62
     7
176
     0
 62
   257
176
     0
 90
        1
176
     0
 90
        1
176
     0
 40
1.0
176
     0
 90
       10
176
     2
 62
     7
176
     0
 40
1.0
176
     0
 90
        1
176
     0
 90
        6
176
     0
 90
        2
176
     0
 62
     7
176
     0
 90
        5
176
     0
 90
        0
176
     0
 90
        0
176
     0
290
     0
176
     0
 90
        1
176
     0
 40
0.0
176
     0
 90
        0
176
     0
290
     0
176
     0
290
     1
176
     0
290
     1
176
     0
290
     0
176
     0
290
     0
176
     0
290
     0
176
     0
290
     0
176
     0
290
     0
176
     0
290
     0
176
     0
 90
       50
176
     0
 40
0.0
176
     0
 40
1.0
176
     0
 90
        0
176
     0
 62
   178
420
        0
176
     0
 90
       50
176
     0
 90
        3
176
     0
 62
     5
420
      255
176
     0
290
     0
176
     0
 90
       50
176
     0
 90
       50
176
     0
 90
       50
176
     0
290
     0
176
     0
 90
       50
176
     0
 62
   256
176
     0
 40
1.0
176
     0
 90
        2
176
     0
  1
strokes_ogs.tif
176
     0
290
     0
176
     0
 40
1.0
176
     0
 40
1.0
176
     0
  0
VISUALSTYLE
  5
38
102
{ACAD_REACTORS
330
2A
102
}
330
2A
100
AcDbVisualStyle
  2
Linepattern
 70
    14
177
     3
291
     1
 70
    58
 90
        2
176
     1
 90
        2
176
     1
 90
        0
176
     1
 90
        0
176
     1
 40
-0.6
176
     1
 40
-30.0
176
     1
 62
     7
420
 16777215
176
     1
 90
        1
176
     1
 90
        4
176
     1
 62
     7
176
     1
 62
   257
176
     1
 90
        7
176
     1
 90
        7
176
     1
 40
1.0
176
     1
 90
        8
176
     1
 62
     7
176
     1
 40
1.0
176
     1
 90
        1
176
     1
 90
        6
176
     1
 90
        2
176
     1
 62
     7
176
     1
 90
        5
176
     1
 90
        0
176
     1
 90
        0
176
     1
290
     0
176
     1
 90
        1
176
     1
 40
0.0
176
     1
 90
        0
176
     1
290
     0
176
     1
290
     1
176
     1
290
     1
176
     1
290
     0
176
     1
290
     0
176
     1
290
     0
176
     1
290
     0
176
     1
290
     0
176
     1
290
     0
176
     1
 90
       50
176
     1
 40
0.0
176
     1
 40
1.0
176
     1
 90
        0
176
     1
 62
   178
420
        0
176
     1
 90
       50
176
     1
 90
        3
176
     1
 62
     5
420
      255
176
     1
290
     0
176
     1
 90
       50
176
     1
 90
       50
176
     1
 90
       50
176
     1
290
     0
176
     1
 90
       50
176
     1
 62
   256
176
     0
 40
1.0
176
     0
 90
        2
176
     1
  1
strokes_ogs.tif
176
     1
290
     0
176
     1
 40
1.0
176
     1
 40
1.0
176
     1
  0
VISUALSTYLE
  5
106
102
{ACAD_REACTORS
330
2A
102
}
330
2A
100
AcDbVisualStyle
  2
OverhangOff
 70
    21
177
     3
291
     1
 70
    58
 90
        2
176
     0
 90
        2
176
     0
 90
        0
176
     0
 90
        0
176
     0
 40
0.6
176
     0
 40
30.0
176
     0
 62
     7
420
 16777215
176
     0
 90
        1
176
     0
 90
        4
176
     0
 62
     7
176
     0
 62
   257
176
     0
 90
        1
176
     0
 90
        1
176
     0
 40
1.0
176
     0
 90
        9
176
     2
 62
     7
176
     0
 40
1.0
176
     0
 90
        1
176
     0
 90
        6
176
     0
 90
        2
176
     0
 62
     7
176
     0
 90
        5
176
     0
 90
        0
176
     0
 90
        0
176
     0
290
     0
176
     0
 90
        1
176
     0
 40
0.0
176
     0
 90
        0
176
     0
290
     0
176
     0
290
     1
176
     0
290
     1
176
     0
290
     0
176
     0
290
     0
176
     0
290
     0
176
     0
290
     0
176
     0
290
     0
176
     0
290
     0
176
     0
 90
       50
176
     0
 40
0.0
176
     0
 40
1.0
176
     0
 90
        0
176
     0
 62
   178
420
        0
176
     0
 90
       50
176
     0
 90
        3
176
     0
 62
     5
420
      255
176
     0
290
     0
176
     0
 90
       50
176
     0
 90
       50
176
     0
 90
       50
176
     0
290
     0
176
     0
 90
       50
176
     0
 62
   256
176
     0
 40
1.0
176
     0
 90
        2
176
     0
  1
strokes_ogs.tif
176
     0
290
     0
176
     0
 40
1.0
176
     0
 40
1.0
176
     0
  0
VISUALSTYLE
  5
33
102
{ACAD_REACTORS
330
2A
102
}
330
2A
100
AcDbVisualStyle
  2
Realistic
 70
     8
177
     3
291
     0
 70
    58
 90
        2
176
     1
 90
        2
176
     1
 90
        0
176
     1
 90
        0
176
     1
 40
-0.6
176
     1
 40
-30.0
176
     1
 62
     7
420
 16777215
176
     1
 90
        1
176
     1
 90
        0
176
     1
 62
     7
176
     1
 62
   257
176
     1
 90
        1
176
     1
 90
        1
176
     1
 40
1.0
176
     1
 90
        8
176
     1
 62
     8
420
  7895160
176
     1
 40
1.0
176
     1
 90
        1
176
     1
 90
        6
176
     1
 90
        2
176
     1
 62
     7
176
     1
 90
        5
176
     1
 90
        0
176
     1
 90
        0
176
     1
290
     0
176
     1
 90
       13
176
     1
 40
0.0
176
     1
 90
        0
176
     1
290
     0
176
     1
290
     1
176
     1
290
     1
176
     1
290
     0
176
     1
290
     0
176
     1
290
     0
176
     1
290
     0
176
     1
290
     0
176
     1
290
     0
176
     1
 90
       50
176
     1
 40
0.0
176
     1
 40
1.0
176
     1
 90
        0
176
     1
 62
   178
420
        0
176
     1
 90
       50
176
     1
 90
        3
176
     1
 62
     5
420
      255
176
     1
290
     0
176
     1
 90
       50
176
     1
 90
       50
176
     1
 90
       50
176
     1
290
     0
176
     1
 90
       50
176
     1
 62
   256
176
     0
 40
1.0
176
     0
 90
        2
176
     1
  1
strokes_ogs.tif
176
     1
290
     0
176
     1
 40
1.0
176
     1
 40
1.0
176
     1
  0
VISUALSTYLE
  5
10C
102
{ACAD_REACTORS
330
2A
102
}
330
2A
100
AcDbVisualStyle
  2
Shaded
 70
    27
177
     3
291
     0
 70
    58
 90
        2
176
     1
 90
        2
176
     1
 90
        1
176
     1
 90
        2
176
     1
 40
0.6
176
     1
 40
30.0
176
     1
 62
     7
420
 16777215
176
     1
 90
        0
176
     1
 90
        4
176
     1
 62
     7
176
     1
 62
   257
176
     1
 90
        1
176
     1
 90
        1
176
     1
 40
1.0
176
     1
 90
        8
176
     1
 62
   257
176
     1
 40
1.0
176
     1
 90
        1
176
     1
 90
        6
176
     1
 90
        2
176
     1
 62
     8
420
  7895160
176
     1
 90
        3
176
     1
 90
        0
176
     1
 90
        0
176
     1
290
     0
176
     1
 90
        5
176
     1
 40
0.0
176
     1
 90
        0
176
     1
290
     0
176
     1
290
     1
176
     1
290
     1
176
     1
290
     0
176
     1
290
     0
176
     1
290
     0
176
     1
290
     0
176
     1
290
     0
176
     1
290
     0
176
     1
 90
       50
176
     1
 40
0.0
176
     1
 40
1.0
176
     1
 90
        0
176
     1
 62
   178
420
        0
176
     1
 90
       50
176
     1
 90
        3
176
     1
 62
     5
420
      255
176
     1
290
     0
176
     1
 90
       50
176
     1
 90
       50
176
     1
 90
       50
176
     1
290
     0
176
     1
 90
       50
176
     1
 62
   256
176
     0
 40
1.0
176
     0
 90
        2
176
     1
  1
strokes_ogs.tif
176
     1
290
     0
176
     1
 40
1.0
176
     1
 40
1.0
176
     1
  0
VISUALSTYLE
  5
10B
102
{ACAD_REACTORS
330
2A
102
}
330
2A
100
AcDbVisualStyle
  2
Shaded with edges
 70
    26
177
     3
291
     0
 70
    58
 90
        2
176
     1
 90
        2
176
     1
 90
        1
176
     1
 90
        2
176
     1
 40
0.6
176
     1
 40
30.0
176
     1
 62
     7
420
 16777215
176
     1
 90
        1
176
     1
 90
       10
176
     1
 62
     7
176
     1
 62
   257
176
     1
 90
        2
176
     1
 90
        1
176
     1
 40
1.0
176
     1
 90
        8
176
     1
 62
   257
176
     1
 40
1.0
176
     1
 90
        1
176
     1
 90
        6
176
     1
 90
        2
176
     1
 62
     7
176
     1
 90
        3
176
     1
 90
        0
176
     1
 90
        0
176
     1
290
     0
176
     1
 90
        5
176
     1
 40
0.0
176
     1
 90
        0
176
     1
290
     0
176
     1
290
     1
176
     1
290
     1
176
     1
290
     0
176
     1
290
     0
176
     1
290
     0
176
     1
290
     0
176
     1
290
     0
176
     1
290
     0
176
     1
 90
       50
176
     1
 40
0.0
176
     1
 40
1.0
176
     1
 90
        0
176
     1
 62
   178
420
        0
176
     1
 90
       50
176
     1
 90
        3
176
     1
 62
     5
420
      255
176
     1
290
     0
176
     1
 90
       50
176
     1
 90
       50
176
     1
 90
       50
176
     1
290
     0
176
     1
 90
       50
176
     1
 62
   256
176
     0
 40
1.0
176
     0
 90
        2
176
     1
  1
strokes_ogs.tif
176
     1
290
     0
176
     1
 40
1.0
176
     1
 40
1.0
176
     1
  0
VISUALSTYLE
  5
108
102
{ACAD_REACTORS
330
2A
102
}
330
2A
100
AcDbVisualStyle
  2
Shades of Gray
 70
    23
177
     3
291
     0
 70
    58
 90
        2
176
     1
 90
        2
176
     1
 90
        3
176
     1
 90
        0
176
     1
 40
0.6
176
     1
 40
30.0
176
     1
 62
     7
420
 16777215
176
     1
 90
        2
176
     1
 90
        2
176
     1
 62
     7
176
     1
 62
     7
176
     1
 90
        1
176
     1
 90
        1
176
     1
 40
40.0
176
     1
 90
        8
176
     1
 62
     7
176
     1
 40
1.0
176
     1
 90
        1
176
     1
 90
        6
176
     1
 90
        2
176
     1
 62
     7
176
     1
 90
        3
176
     1
 90
        0
176
     1
 90
        0
176
     1
290
     0
176
     1
 90
        1
176
     1
 40
0.0
176
     1
 90
        0
176
     1
290
     0
176
     1
290
     1
176
     1
290
     1
176
     1
290
     0
176
     1
290
     0
176
     1
290
     0
176
     1
290
     0
176
     1
290
     0
176
     1
290
     0
176
     1
 90
       50
176
     1
 40
0.0
176
     1
 40
1.0
176
     1
 90
        0
176
     1
 62
   178
420
        0
176
     1
 90
       50
176
     1
 90
        3
176
     1
 62
     5
420
      255
176
     1
290
     0
176
     1
 90
       50
176
     1
 90
       50
176
     1
 90
       50
176
     1
290
     0
176
     1
 90
       50
176
     1
 62
   256
176
     0
 40
1.0
176
     0
 90
        2
176
     1
  1
strokes_ogs.tif
176
     1
290
     0
176
     1
 40
1.0
176
     1
 40
1.0
176
     1
  0
VISUALSTYLE
  5
109
102
{ACAD_REACTORS
330
2A
102
}
330
2A
100
AcDbVisualStyle
  2
Sketchy
 70
    24
177
     3
291
     0
 70
    58
 90
        1
176
     1
 90
        2
176
     1
 90
        2
176
     1
 90
        0
176
     1
 40
0.6
176
     1
 40
30.0
176
     1
 62
     7
420
 16777215
176
     1
 90
        2
176
     1
 90
        2
176
     1
 62
     7
176
     1
 62
     7
176
     1
 90
        1
176
     1
 90
        1
176
     1
 40
40.0
176
     1
 90
       11
176
     1
 62
     7
176
     1
 40
1.0
176
     1
 90
        1
176
     1
 90
        6
176
     1
 90
        2
176
     1
 62
     7
176
     1
 90
        6
176
     1
 90
        0
176
     1
 90
        0
176
     1
290
     0
176
     1
 90
        1
176
     1
 40
0.0
176
     1
 90
        0
176
     1
290
     0
176
     1
290
     1
176
     1
290
     1
176
     1
290
     0
176
     1
290
     0
176
     1
290
     0
176
     1
290
     0
176
     1
290
     0
176
     1
290
     0
176
     1
 90
       50
176
     1
 40
0.0
176
     1
 40
1.0
176
     1
 90
        0
176
     1
 62
   178
420
        0
176
     1
 90
       50
176
     1
 90
        3
176
     1
 62
     5
420
      255
176
     1
290
     0
176
     1
 90
       50
176
     1
 90
       50
176
     1
 90
       50
176
     1
290
     0
176
     1
 90
       50
176
     1
 62
   256
176
     0
 40
1.0
176
     0
 90
        2
176
     1
  1
strokes_ogs.tif
176
     1
290
     0
176
     1
 40
1.0
176
     1
 40
1.0
176
     1
  0
VISUALSTYLE
  5
37
102
{ACAD_REACTORS
330
2A
102
}
330
2A
100
AcDbVisualStyle
  2
Thicken
 70
    13
177
     3
291
     1
 70
    58
 90
        2
176
     1
 90
        2
176
     1
 90
        0
176
     1
 90
        0
176
     1
 40
-0.6
176
     1
 40
-30.0
176
     1
 62
     7
420
 16777215
176
     1
 90
        1
176
     1
 90
        4
176
     1
 62
     7
176
     1
 62
   257
176
     1
 90
        1
176
     1
 90
        1
176
     1
 40
1.0
176
     1
 90
       12
176
     1
 62
     7
176
     1
 40
1.0
176
     1
 90
        1
176
     1
 90
        6
176
     1
 90
        2
176
     1
 62
     7
176
     1
 90
        5
176
     1
 90
        0
176
     1
 90
        0
176
     1
290
     0
176
     1
 90
        1
176
     1
 40
0.0
176
     1
 90
        0
176
     1
290
     0
176
     1
290
     1
176
     1
290
     1
176
     1
290
     0
176
     1
290
     0
176
     1
290
     0
176
     1
290
     0
176
     1
290
     0
176
     1
290
     0
176
     1
 90
       50
176
     1
 40
0.0
176
     1
 40
1.0
176
     1
 90
        0
176
     1
 62
   178
420
        0
176
     1
 90
       50
176
     1
 90
        3
176
     1
 62
     5
420
      255
176
     1
290
     0
176
     1
 90
       50
176
     1
 90
       50
176
     1
 90
       50
176
     1
290
     0
176
     1
 90
       50
176
     1
 62
   256
176
     0
 40
1.0
176
     0
 90
        2
176
     1
  1
strokes_ogs.tif
176
     1
290
     0
176
     1
 40
1.0
176
     1
 40
1.0
176
     1
  0
VISUALSTYLE
  5
103
102
{ACAD_REACTORS
330
2A
102
}
330
2A
100
AcDbVisualStyle
  2
Wireframe
 70
     5
177
     3
291
     0
 70
    58
 90
        0
176
     1
 90
        2
176
     1
 90
        0
176
     1
 90
        0
176
     1
 40
0.6
176
     1
 40
30.0
176
     1
 62
     7
420
 16777215
176
     1
 90
        1
176
     1
 90
        4
176
     1
 62
     7
176
     1
 62
   257
176
     1
 90
        1
176
     1
 90
        1
176
     1
 40
1.0
176
     1
 90
        0
176
     1
 62
   257
176
     1
 40
1.0
176
     1
 90
        1
176
     1
 90
        6
176
     1
 90
        2
176
     1
 62
     7
176
     1
 90
        3
176
     1
 90
        0
176
     1
 90
        0
176
     1
290
     0
176
     1
 90
        1
176
     1
 40
0.0
176
     1
 90
        0
176
     1
290
     0
176
     1
290
     1
176
     1
290
     1
176
     1
290
     0
176
     1
290
     0
176
     1
290
     0
176
     1
290
     0
176
     1
290
     0
176
     1
290
     0
176
     1
 90
       50
176
     1
 40
0.0
176
     1
 40
1.0
176
     1
 90
        0
176
     1
 62
   178
420
        0
176
     1
 90
       50
176
     1
 90
        3
176
     1
 62
     5
420
      255
176
     1
290
     0
176
     1
 90
       50
176
     1
 90
       50
176
     1
 90
       50
176
     1
290
     0
176
     1
 90
       50
176
     1
 62
   256
176
     0
 40
1.0
176
     0
 90
        2
176
     1
  1
strokes_ogs.tif
176
     1
290
     0
176
     1
 40
1.0
176
     1
 40
1.0
176
     1
  0
VISUALSTYLE
  5
10A
102
{ACAD_REACTORS
330
2A
102
}
330
2A
100
AcDbVisualStyle
  2
X-Ray
 70
    25
177
     3
291
     0
 70
    58
 90
        2
176
     1
 90
        2
176
     1
 90
        1
176
     1
 90
        1
176
     1
 40
0.5
176
     1
 40
30.0
176
     1
 62
     7
420
 16777215
176
     1
 90
        1
176
     1
 90
        0
176
     1
 62
     7
176
     1
 62
   257
176
     1
 90
        1
176
     1
 90
        1
176
     1
 40
1.0
176
     1
 90
        8
176
     1
 62
     7
176
     1
 40
1.0
176
     1
 90
        1
176
     1
 90
        6
176
     1
 90
        2
176
     1
 62
     7
176
     1
 90
        3
176
     1
 90
        0
176
     1
 90
        0
176
     1
290
     0
176
     1
 90
       13
176
     1
 40
0.0
176
     1
 90
        0
176
     1
290
     0
176
     1
290
     1
176
     1
290
     1
176
     1
290
     0
176
     1
290
     0
176
     1
290
     0
176
     1
290
     0
176
     1
290
     0
176
     1
290
     0
176
     1
 90
       50
176
     1
 40
0.0
176
     1
 40
1.0
176
     1
 90
        0
176
     1
 62
   178
420
        0
176
     1
 90
       50
176
     1
 90
        3
176
     1
 62
     5
420
      255
176
     1
290
     0
176
     1
 90
       50
176
     1
 90
       50
176
     1
 90
       50
176
     1
290
     0
176
     1
 90
       50
176
     1
 62
   256
176
     0
 40
1.0
176
     0
 90
        2
176
     1
  1
strokes_ogs.tif
176
     1
290
     0
176
     1
 40
1.0
176
     1
 40
1.0
176
     1
  0
DICTIONARYVAR
  5
110
102
{ACAD_REACTORS
330
10F
102
}
330
10F
100
DictionaryVariables
280
     0
  1
1:1
  0
DICTIONARYVAR
  5
115
102
{ACAD_REACTORS
330
10F
102
}
330
10F
100
DictionaryVariables
280
     0
  1
Standard
  0
DICTIONARYVAR
  5
114
102
{ACAD_REACTORS
330
10F
102
}
330
10F
100
DictionaryVariables
280
     0
  1
Standard
  0
DICTIONARYVAR
  5
116
102
{ACAD_REACTORS
330
10F
102
}
330
10F
100
DictionaryVariables
280
     0
  1
0
  0
DICTIONARY
  5
111
330
10D
100
AcDbDictionary
280
     1
281
     1
  3
ACAD_ROUNDTRIP_2008_TABLESTYLE_CELLSTYLEMAP
360
112
  0
CELLSTYLEMAP
  5
112
102
{ACAD_REACTORS
330
111
102
}
330
111
100
AcDbCellStyleMap
 90
        3
300
CELLSTYLE
  1
TABLEFORMAT_BEGIN
 90
        5
170
     1
 91
        0
 92
    32768
 62
   257
 93
        1
300
CONTENTFORMAT
  1
CONTENTFORMAT_BEGIN
 90
        0
 91
        0
 92
        4
 93
        0
300

 40
0.0
140
1.0
 94
        5
 62
     0
340
11
144
0.25
309
CONTENTFORMAT_END
171
     1
301
MARGIN
  1
CELLMARGIN_BEGIN
 40
0.06
 40
0.06
 40
0.06
 40
0.06
 40
0.06
 40
0.06
309
CELLMARGIN_END
 94
        6
 95
        1
302
GRIDFORMAT
  1
GRIDFORMAT_BEGIN
 90
        0
 91
        1
 62
     0
 92
       -2
340
14
 93
        0
 40
0.045
309
GRIDFORMAT_END
 95
        2
302
GRIDFORMAT
  1
GRIDFORMAT_BEGIN
 90
        0
 91
        1
 62
     0
 92
       -2
340
14
 93
        0
 40
0.045
309
GRIDFORMAT_END
 95
        4
302
GRIDFORMAT
  1
GRIDFORMAT_BEGIN
 90
        0
 91
        1
 62
     0
 92
       -2
340
14
 93
        0
 40
0.045
309
GRIDFORMAT_END
 95
        8
302
GRIDFORMAT
  1
GRIDFORMAT_BEGIN
 90
        0
 91
        1
 62
     0
 92
       -2
340
14
 93
        0
 40
0.045
309
GRIDFORMAT_END
 95
       16
302
GRIDFORMAT
  1
GRIDFORMAT_BEGIN
 90
        0
 91
        1
 62
     0
 92
       -2
340
14
 93
        0
 40
0.045
309
GRIDFORMAT_END
 95
       32
302
GRIDFORMAT
  1
GRIDFORMAT_BEGIN
 90
        0
 91
        1
 62
     0
 92
       -2
340
14
 93
        0
 40
0.045
309
GRIDFORMAT_END
309
TABLEFORMAT_END
  1
CELLSTYLE_BEGIN
 90
        1
 91
        1
300
_TITLE
309
CELLSTYLE_END
300
CELLSTYLE
  1
TABLEFORMAT_BEGIN
 90
        5
170
     1
 91
        0
 92
        0
 62
   257
 93
        1
300
CONTENTFORMAT
  1
CONTENTFORMAT_BEGIN
 90
        0
 91
        0
 92
        4
 93
        0
300

 40
0.0
140
1.0
 94
        5
 62
     0
340
11
144
0.18
309
CONTENTFORMAT_END
171
     1
301
MARGIN
  1
CELLMARGIN_BEGIN
 40
0.06
 40
0.06
 40
0.06
 40
0.06
 40
0.06
 40
0.06
309
CELLMARGIN_END
 94
        6
 95
        1
302
GRIDFORMAT
  1
GRIDFORMAT_BEGIN
 90
        0
 91
        1
 62
     0
 92
       -2
340
14
 93
        0
 40
0.045
309
GRIDFORMAT_END
 95
        2
302
GRIDFORMAT
  1
GRIDFORMAT_BEGIN
 90
        0
 91
        1
 62
     0
 92
       -2
340
14
 93
        0
 40
0.045
309
GRIDFORMAT_END
 95
        4
302
GRIDFORMAT
  1
GRIDFORMAT_BEGIN
 90
        0
 91
        1
 62
     0
 92
       -2
340
14
 93
        0
 40
0.045
309
GRIDFORMAT_END
 95
        8
302
GRIDFORMAT
  1
GRIDFORMAT_BEGIN
 90
        0
 91
        1
 62
     0
 92
       -2
340
14
 93
        0
 40
0.045
309
GRIDFORMAT_END
 95
       16
302
GRIDFORMAT
  1
GRIDFORMAT_BEGIN
 90
        0
 91
        1
 62
     0
 92
       -2
340
14
 93
        0
 40
0.045
309
GRIDFORMAT_END
 95
       32
302
GRIDFORMAT
  1
GRIDFORMAT_BEGIN
 90
        0
 91
        1
 62
     0
 92
       -2
340
14
 93
        0
 40
0.045
309
GRIDFORMAT_END
309
TABLEFORMAT_END
  1
CELLSTYLE_BEGIN
 90
        2
 91
        1
300
_HEADER
309
CELLSTYLE_END
300
CELLSTYLE
  1
TABLEFORMAT_BEGIN
 90
        5
170
     1
 91
        0
 92
        0
 62
   257
 93
        1
300
CONTENTFORMAT
  1
CONTENTFORMAT_BEGIN
 90
        0
 91
        0
 92
        4
 93
        0
300

 40
0.0
140
1.0
 94
        2
 62
     0
340
11
144
0.18
309
CONTENTFORMAT_END
171
     1
301
MARGIN
  1
CELLMARGIN_BEGIN
 40
0.06
 40
0.06
 40
0.06
 40
0.06
 40
0.06
 40
0.06
309
CELLMARGIN_END
 94
        6
 95
        1
302
GRIDFORMAT
  1
GRIDFORMAT_BEGIN
 90
        0
 91
        1
 62
     0
 92
       -2
340
14
 93
        0
 40
0.045
309
GRIDFORMAT_END
 95
        2
302
GRIDFORMAT
  1
GRIDFORMAT_BEGIN
 90
        0
 91
        1
 62
     0
 92
       -2
340
14
 93
        0
 40
0.045
309
GRIDFORMAT_END
 95
        4
302
GRIDFORMAT
  1
GRIDFORMAT_BEGIN
 90
        0
 91
        1
 62
     0
 92
       -2
340
14
 93
        0
 40
0.045
309
GRIDFORMAT_END
 95
        8
302
GRIDFORMAT
  1
GRIDFORMAT_BEGIN
 90
        0
 91
        1
 62
     0
 92
       -2
340
14
 93
        0
 40
0.045
309
GRIDFORMAT_END
 95
       16
302
GRIDFORMAT
  1
GRIDFORMAT_BEGIN
 90
        0
 91
        1
 62
     0
 92
       -2
340
14
 93
        0
 40
0.045
309
GRIDFORMAT_END
 95
       32
302
GRIDFORMAT
  1
GRIDFORMAT_BEGIN
 90
        0
 91
        1
 62
     0
 92
       -2
340
14
 93
        0
 40
0.045
309
GRIDFORMAT_END
309
TABLEFORMAT_END
  1
CELLSTYLE_BEGIN
 90
        3
 91
        2
300
_DATA
309
CELLSTYLE_END
  0
ENDSEC
  0
EOF
